<svg width="150.000000" height="210.000000" id="card-webspade10">
<radialGradient id="card-webwhitegradient" cx="75.0" cy="105.0" r="150" gradientTransform="matrix(1 0 0 1 0 -.25)" gradientUnits="userSpaceOnUse">
<stop stop-color="#FDFAF4" offset=".15"/>
<stop stop-color="#FDF9F2" offset=".35"/>
<stop stop-color="#FCF7F1" offset=".5"/>
<stop stop-color="#FDFDF8" offset=".75"/>
<stop stop-color="#FFFDFA" offset="1"/>
</radialGradient>
<rect x="0" y="0" rx="7.5" ry="7.5" width="150" height="210.0" stroke="#010101" fill="url(#card-webwhitegradient)" />
<path d="M44.297872 39.87234C44.156029 41.347519 43.801417 42.652481 43.234043 43.787234C42.666668 44.921987 42.070923 45.787234 41.446809 46.382979S40.03546 47.489362 39.085106 47.914894C38.134753 48.340426 37.404255 48.617021 36.893617 48.744681S35.758864 48.992908 35.021277 49.106383C34.907801 49.134752 34.822695 49.148936 34.765957 49.148936V50.0H55.234043V49.148936C52.822694 48.723404 50.992906 48.099289 49.744681 47.276596C47.361702 45.687945 46.014183 43.21986 45.702128 39.87234C47.177306 42.141843 49.078013 43.276596 51.404255 43.276596C52.9078 43.276596 54.191489 42.751774 55.255319 41.702128S56.851064 39.375885 56.851064 37.87234C56.851064 36.595745 56.539007 35.432626 55.914894 34.382979C55.290779 33.333332 54.482268 32.375885 53.489362 31.510638S51.475179 29.744681 50.425532 28.808511C49.375885 27.87234 48.340426 26.645391 47.319149 25.12766S45.517732 21.900711 44.978723 20.0C44.496455 21.87234 43.751774 23.560285 42.744681 25.06383S40.702128 27.787234 39.638298 28.723404S37.546098 30.567374 36.553191 31.446809S34.744681 33.290779 34.106383 34.340426S33.148936 36.567374 33.148936 37.87234C33.148936 39.375885 33.680851 40.652481 34.744681 41.702128S37.0922 43.276596 38.595745 43.276596C40.921987 43.276596 42.822694 42.141843 44.297872 39.87234Z" fill="#010101" />
<path d="M45.702128 170.12766C45.843971 168.652481 46.198583 167.347519 46.765957 166.212766C47.333332 165.078013 47.929077 164.212766 48.553191 163.617021S49.96454 162.510638 50.914894 162.085106C51.865247 161.659574 52.595745 161.382979 53.106383 161.255319S54.241136 161.007092 54.978723 160.893617C55.092199 160.865248 55.177305 160.851064 55.234043 160.851064V160.0H34.765957V160.851064C37.177306 161.276596 39.007094 161.900711 40.255319 162.723404C42.638298 164.312055 43.985817 166.78014 44.297872 170.12766C42.822694 167.858157 40.921987 166.723404 38.595745 166.723404C37.0922 166.723404 35.808511 167.248226 34.744681 168.297872S33.148936 170.624115 33.148936 172.12766C33.148936 173.404255 33.460993 174.567374 34.085106 175.617021C34.709221 176.666668 35.517732 177.624115 36.510638 178.489362S38.524821 180.255319 39.574468 181.191489C40.624115 182.12766 41.659574 183.354609 42.680851 184.87234S44.482268 188.099289 45.021277 190.0C45.503545 188.12766 46.248226 186.439715 47.255319 184.93617S49.297872 182.212766 50.361702 181.276596S52.453902 179.432626 53.446809 178.553191S55.255319 176.709221 55.893617 175.659574S56.851064 173.432626 56.851064 172.12766C56.851064 170.624115 56.319149 169.347519 55.255319 168.297872S52.9078 166.723404 51.404255 166.723404C49.078013 166.723404 47.177306 167.858157 45.702128 170.12766Z" fill="#010101" />
<path d="M44.297872 86.539007C44.156029 88.014186 43.801417 89.319148 43.234043 90.453901C42.666668 91.588654 42.070923 92.453901 41.446809 93.049645S40.03546 94.156028 39.085106 94.58156C38.134753 95.007092 37.404255 95.283688 36.893617 95.411348S35.758864 95.659574 35.021277 95.77305C34.907801 95.801418 34.822695 95.815603 34.765957 95.815603V96.666667H55.234043V95.815603C52.822694 95.390071 50.992906 94.765956 49.744681 93.943262C47.361702 92.354611 46.014183 89.886526 45.702128 86.539007C47.177306 88.808509 49.078013 89.943262 51.404255 89.943262C52.9078 89.943262 54.191489 89.418441 55.255319 88.368794S56.851064 86.042552 56.851064 84.539007C56.851064 83.262411 56.539007 82.099292 55.914894 81.049645C55.290779 79.999999 54.482268 79.042552 53.489362 78.177305S51.475179 76.411348 50.425532 75.475177C49.375885 74.539007 48.340426 73.312058 47.319149 71.794326S45.517732 68.567377 44.978723 66.666667C44.496455 68.539007 43.751774 70.226952 42.744681 71.730496S40.702128 74.453901 39.638298 75.390071S37.546098 77.234041 36.553191 78.113475S34.744681 79.957445 34.106383 81.007092S33.148936 83.234041 33.148936 84.539007C33.148936 86.042552 33.680851 87.319148 34.744681 88.368794S37.0922 89.943262 38.595745 89.943262C40.921987 89.943262 42.822694 88.808509 44.297872 86.539007Z" fill="#010101" />
<path d="M45.702128 123.460993C45.843971 121.985814 46.198583 120.680852 46.765957 119.546099C47.333332 118.411346 47.929077 117.546099 48.553191 116.950355S49.96454 115.843972 50.914894 115.41844C51.865247 114.992908 52.595745 114.716312 53.106383 114.588652S54.241136 114.340426 54.978723 114.22695C55.092199 114.198582 55.177305 114.184397 55.234043 114.184397V113.333333H34.765957V114.184397C37.177306 114.609929 39.007094 115.234044 40.255319 116.056738C42.638298 117.645389 43.985817 120.113474 44.297872 123.460993C42.822694 121.191491 40.921987 120.056738 38.595745 120.056738C37.0922 120.056738 35.808511 120.581559 34.744681 121.631206S33.148936 123.957448 33.148936 125.460993C33.148936 126.737589 33.460993 127.900708 34.085106 128.950355C34.709221 130.000001 35.517732 130.957448 36.510638 131.822695S38.524821 133.588652 39.574468 134.524823C40.624115 135.460993 41.659574 136.687942 42.680851 138.205674S44.482268 141.432623 45.021277 143.333333C45.503545 141.460993 46.248226 139.773048 47.255319 138.269504S49.297872 135.546099 50.361702 134.609929S52.453902 132.765959 53.446809 131.886525S55.255319 130.042555 55.893617 128.992908S56.851064 126.765959 56.851064 125.460993C56.851064 123.957448 56.319149 122.680852 55.255319 121.631206S52.9078 120.056738 51.404255 120.056738C49.078013 120.056738 47.177306 121.191491 45.702128 123.460993Z" fill="#010101" />
<path d="M104.297872 39.87234C104.156029 41.347519 103.801417 42.652481 103.234043 43.787234C102.666668 44.921987 102.070923 45.787234 101.446809 46.382979S100.03546 47.489362 99.085106 47.914894C98.134753 48.340426 97.404255 48.617021 96.893617 48.744681S95.758864 48.992908 95.021277 49.106383C94.907801 49.134752 94.822695 49.148936 94.765957 49.148936V50.0H115.234043V49.148936C112.822694 48.723404 110.992906 48.099289 109.744681 47.276596C107.361702 45.687945 106.014183 43.21986 105.702128 39.87234C107.177306 42.141843 109.078013 43.276596 111.404255 43.276596C112.9078 43.276596 114.191489 42.751774 115.255319 41.702128S116.851064 39.375885 116.851064 37.87234C116.851064 36.595745 116.539007 35.432626 115.914894 34.382979C115.290779 33.333332 114.482268 32.375885 113.489362 31.510638S111.475179 29.744681 110.425532 28.808511C109.375885 27.87234 108.340426 26.645391 107.319149 25.12766S105.517732 21.900711 104.978723 20.0C104.496455 21.87234 103.751774 23.560285 102.744681 25.06383S100.702128 27.787234 99.638298 28.723404S97.546098 30.567374 96.553191 31.446809S94.744681 33.290779 94.106383 34.340426S93.148936 36.567374 93.148936 37.87234C93.148936 39.375885 93.680851 40.652481 94.744681 41.702128S97.0922 43.276596 98.595745 43.276596C100.921987 43.276596 102.822694 42.141843 104.297872 39.87234Z" fill="#010101" />
<path d="M105.702128 170.12766C105.843971 168.652481 106.198583 167.347519 106.765957 166.212766C107.333332 165.078013 107.929077 164.212766 108.553191 163.617021S109.96454 162.510638 110.914894 162.085106C111.865247 161.659574 112.595745 161.382979 113.106383 161.255319S114.241136 161.007092 114.978723 160.893617C115.092199 160.865248 115.177305 160.851064 115.234043 160.851064V160.0H94.765957V160.851064C97.177306 161.276596 99.007094 161.900711 100.255319 162.723404C102.638298 164.312055 103.985817 166.78014 104.297872 170.12766C102.822694 167.858157 100.921987 166.723404 98.595745 166.723404C97.0922 166.723404 95.808511 167.248226 94.744681 168.297872S93.148936 170.624115 93.148936 172.12766C93.148936 173.404255 93.460993 174.567374 94.085106 175.617021C94.709221 176.666668 95.517732 177.624115 96.510638 178.489362S98.524821 180.255319 99.574468 181.191489C100.624115 182.12766 101.659574 183.354609 102.680851 184.87234S104.482268 188.099289 105.021277 190.0C105.503545 188.12766 106.248226 186.439715 107.255319 184.93617S109.297872 182.212766 110.361702 181.276596S112.453902 179.432626 113.446809 178.553191S115.255319 176.709221 115.893617 175.659574S116.851064 173.432626 116.851064 172.12766C116.851064 170.624115 116.319149 169.347519 115.255319 168.297872S112.9078 166.723404 111.404255 166.723404C109.078013 166.723404 107.177306 167.858157 105.702128 170.12766Z" fill="#010101" />
<path d="M104.297872 86.539007C104.156029 88.014186 103.801417 89.319148 103.234043 90.453901C102.666668 91.588654 102.070923 92.453901 101.446809 93.049645S100.03546 94.156028 99.085106 94.58156C98.134753 95.007092 97.404255 95.283688 96.893617 95.411348S95.758864 95.659574 95.021277 95.77305C94.907801 95.801418 94.822695 95.815603 94.765957 95.815603V96.666667H115.234043V95.815603C112.822694 95.390071 110.992906 94.765956 109.744681 93.943262C107.361702 92.354611 106.014183 89.886526 105.702128 86.539007C107.177306 88.808509 109.078013 89.943262 111.404255 89.943262C112.9078 89.943262 114.191489 89.418441 115.255319 88.368794S116.851064 86.042552 116.851064 84.539007C116.851064 83.262411 116.539007 82.099292 115.914894 81.049645C115.290779 79.999999 114.482268 79.042552 113.489362 78.177305S111.475179 76.411348 110.425532 75.475177C109.375885 74.539007 108.340426 73.312058 107.319149 71.794326S105.517732 68.567377 104.978723 66.666667C104.496455 68.539007 103.751774 70.226952 102.744681 71.730496S100.702128 74.453901 99.638298 75.390071S97.546098 77.234041 96.553191 78.113475S94.744681 79.957445 94.106383 81.007092S93.148936 83.234041 93.148936 84.539007C93.148936 86.042552 93.680851 87.319148 94.744681 88.368794S97.0922 89.943262 98.595745 89.943262C100.921987 89.943262 102.822694 88.808509 104.297872 86.539007Z" fill="#010101" />
<path d="M105.702128 123.460993C105.843971 121.985814 106.198583 120.680852 106.765957 119.546099C107.333332 118.411346 107.929077 117.546099 108.553191 116.950355S109.96454 115.843972 110.914894 115.41844C111.865247 114.992908 112.595745 114.716312 113.106383 114.588652S114.241136 114.340426 114.978723 114.22695C115.092199 114.198582 115.177305 114.184397 115.234043 114.184397V113.333333H94.765957V114.184397C97.177306 114.609929 99.007094 115.234044 100.255319 116.056738C102.638298 117.645389 103.985817 120.113474 104.297872 123.460993C102.822694 121.191491 100.921987 120.056738 98.595745 120.056738C97.0922 120.056738 95.808511 120.581559 94.744681 121.631206S93.148936 123.957448 93.148936 125.460993C93.148936 126.737589 93.460993 127.900708 94.085106 128.950355C94.709221 130.000001 95.517732 130.957448 96.510638 131.822695S98.524821 133.588652 99.574468 134.524823C100.624115 135.460993 101.659574 136.687942 102.680851 138.205674S104.482268 141.432623 105.021277 143.333333C105.503545 141.460993 106.248226 139.773048 107.255319 138.269504S109.297872 135.546099 110.361702 134.609929S112.453902 132.765959 113.446809 131.886525S115.255319 130.042555 115.893617 128.992908S116.851064 126.765959 116.851064 125.460993C116.851064 123.957448 116.319149 122.680852 115.255319 121.631206S112.9078 120.056738 111.404255 120.056738C109.078013 120.056738 107.177306 121.191491 105.702128 123.460993Z" fill="#010101" />
<path d="M74.297872 63.205674C74.156029 64.680852 73.801417 65.985814 73.234043 67.120567C72.666668 68.255321 72.070923 69.120567 71.446809 69.716312S70.03546 70.822695 69.085106 71.248227C68.134753 71.673759 67.404255 71.950355 66.893617 72.078014S65.758864 72.326241 65.021277 72.439716C64.907801 72.468085 64.822695 72.48227 64.765957 72.48227V73.333333H85.234043V72.48227C82.822694 72.056738 80.992906 71.432623 79.744681 70.609929C77.361702 69.021278 76.014183 66.553193 75.702128 63.205674C77.177306 65.475176 79.078013 66.609929 81.404255 66.609929C82.9078 66.609929 84.191489 66.085108 85.255319 65.035461S86.851064 62.709218 86.851064 61.205674C86.851064 59.929078 86.539007 58.765959 85.914894 57.716312C85.290779 56.666665 84.482268 55.709218 83.489362 54.843972S81.475179 53.078014 80.425532 52.141844C79.375885 51.205674 78.340426 49.978725 77.319149 48.460993S75.517732 45.234044 74.978723 43.333333C74.496455 45.205674 73.751774 46.893618 72.744681 48.397163S70.702128 51.120567 69.638298 52.056738S67.546098 53.900708 66.553191 54.780142S64.744681 56.624112 64.106383 57.673759S63.148936 59.900708 63.148936 61.205674C63.148936 62.709218 63.680851 63.985814 64.744681 65.035461S67.0922 66.609929 68.595745 66.609929C70.921987 66.609929 72.822694 65.475176 74.297872 63.205674Z" fill="#010101" />
<path d="M74.297872 156.539007C74.156029 158.014186 73.801417 159.319148 73.234043 160.453901C72.666668 161.588654 72.070923 162.453901 71.446809 163.049645S70.03546 164.156028 69.085106 164.58156C68.134753 165.007092 67.404255 165.283688 66.893617 165.411348S65.758864 165.659574 65.021277 165.77305C64.907801 165.801418 64.822695 165.815603 64.765957 165.815603V166.666667H85.234043V165.815603C82.822694 165.390071 80.992906 164.765956 79.744681 163.943262C77.361702 162.354611 76.014183 159.886526 75.702128 156.539007C77.177306 158.808509 79.078013 159.943262 81.404255 159.943262C82.9078 159.943262 84.191489 159.418441 85.255319 158.368794S86.851064 156.042552 86.851064 154.539007C86.851064 153.262411 86.539007 152.099292 85.914894 151.049645C85.290779 149.999999 84.482268 149.042552 83.489362 148.177305S81.475179 146.411348 80.425532 145.475177C79.375885 144.539007 78.340426 143.312058 77.319149 141.794326S75.517732 138.567377 74.978723 136.666667C74.496455 138.539007 73.751774 140.226952 72.744681 141.730496S70.702128 144.453901 69.638298 145.390071S67.546098 147.234041 66.553191 148.113475S64.744681 149.957445 64.106383 151.007092S63.148936 153.234041 63.148936 154.539007C63.148936 156.042552 63.680851 157.319148 64.744681 158.368794S67.0922 159.943262 68.595745 159.943262C70.921987 159.943262 72.822694 158.808509 74.297872 156.539007Z" fill="#010101" />
<path d="M148.353582 32.687879Q148.328128 32.229697 148.239038 32.07697T147.946314 31.924242Q146.520874 31.924242 145.922698 31.752424T145.031798 30.855152T144.739073 28.411515V20.469697Q144.713619 18.675152 144.853617 17.892424T145.349976 16.880606T146.520874 16.651515H147.768134Q148.226311 16.651515 148.226311 15.735152Q148.200857 15.162424 148.073585 15.028788T147.755407 14.895152H147.488137Q146.419056 14.895152 145.400885 14.379697T143.186361 13.138788Q143.033636 13.062424 142.931818 13.062424Q142.52455 13.062424 142.52455 13.940606V28.411515Q142.52455 30.091515 142.25728 30.81697T141.417288 31.733333T139.571852 31.924242H139.317309Q139.113675 31.924242 139.024585 32.07697T138.910041 32.687879Q138.910041 33.604242 139.368218 33.604242Q141.200927 33.489697 143.644539 33.489697Q146.062696 33.489697 147.895405 33.604242Q148.353582 33.604242 148.353582 32.687879ZM137.051778 32.382424Q138.413583 30.931515 139.088121 28.526061T139.76266 23.295152Q139.76266 20.431515 139.088121 18.064242T137.051778 14.265152T133.704539 12.833333Q131.820921 12.833333 130.44639 14.284242T128.359138 18.140606T127.646418 23.295152T128.359138 28.449697T130.44639 32.344242T133.704539 33.833333Q135.689973 33.833333 137.051778 32.382424ZM131.031838 30.053333Q130.090029 27.686061 130.090029 23.295152T131.031838 16.575152T133.679084 14.246061Q135.435431 14.246061 136.377239 16.556061T137.319048 23.295152T136.377239 30.072424T133.679084 32.420606Q131.973647 32.420606 131.031838 30.053333Z" fill="#010101" />
<path d="M137.672344 48.940403C137.606151 49.628813 137.440667 50.237789 137.175895 50.767335C136.911123 51.296881 136.633111 51.700659 136.341861 51.97867S135.683238 52.494977 135.239744 52.693557C134.79625 52.892136 134.455355 53.021213 134.217059 53.080787S133.687513 53.196625 133.343309 53.24958C133.290354 53.262818 133.250638 53.269438 133.224161 53.269438V53.666597H142.775839V53.269438C141.650554 53.070858 140.796662 52.779607 140.214162 52.395687C139.102117 51.654324 138.473281 50.502563 138.327656 48.940403C139.016066 49.999493 139.903054 50.529039 140.988623 50.529039C141.69027 50.529039 142.289319 50.284125 142.785768 49.794295S143.530441 48.708726 143.530441 48.007079C143.530441 47.41134 143.384816 46.868557 143.093566 46.378726C142.802315 45.888896 142.425014 45.442092 141.961663 45.038314S141.02172 44.214209 140.53189 43.777334C140.042059 43.340459 139.55885 42.767888 139.082259 42.059621S138.241606 40.553726 137.990071 39.666737C137.765015 40.540487 137.417501 41.328186 136.947528 42.029834S135.994346 43.300743 135.497897 43.737618S134.521547 44.598129 134.058195 45.008527S133.214232 45.869038 132.916363 46.358868S132.469559 47.398101 132.469559 48.007079C132.469559 48.708726 132.717783 49.304465 133.214232 49.794295S134.30973 50.529039 135.011377 50.529039C136.096946 50.529039 136.983934 49.999493 137.672344 48.940403Z" fill="#010101" />
<path d="M1.646418 177.312121Q1.671872 177.770303 1.760962 177.92303T2.053686 178.075758Q3.479126 178.075758 4.077302 178.247576T4.968203 179.144848T5.260927 181.588485V189.530303Q5.286381 191.324848 5.146383 192.107576T4.650024 193.119394T3.479126 193.348485H2.231866Q1.773689 193.348485 1.773689 194.264848Q1.799143 194.837576 1.926415 194.971212T2.244593 195.104848H2.511863Q3.580944 195.104848 4.599115 195.620303T6.813639 196.861212Q6.966364 196.937576 7.068182 196.937576Q7.47545 196.937576 7.47545 196.059394V181.588485Q7.47545 179.908485 7.74272 179.18303T8.582712 178.266667T10.428148 178.075758H10.682691Q10.886325 178.075758 10.975415 177.92303T11.089959 177.312121Q11.089959 176.395758 10.631782 176.395758Q8.799073 176.510303 6.355461 176.510303Q3.937304 176.510303 2.104595 176.395758Q1.646418 176.395758 1.646418 177.312121ZM12.948222 177.617576Q11.586417 179.068485 10.911879 181.473939T10.23734 186.704848Q10.23734 189.568485 10.911879 191.935758T12.948222 195.734848T16.295461 197.166667Q18.179079 197.166667 19.55361 195.715758T21.640862 191.859394T22.353582 186.704848T21.640862 181.550303T19.55361 177.655758T16.295461 176.166667Q14.310027 176.166667 12.948222 177.617576ZM18.968162 179.946667Q19.909971 182.313939 19.909971 186.704848T18.968162 193.424848T16.320916 195.753939Q14.564569 195.753939 13.622761 193.443939T12.680952 186.704848T13.622761 179.927576T16.320916 177.579394Q18.026353 177.579394 18.968162 179.946667Z" fill="#010101" />
<path d="M12.327656 161.059597C12.393849 160.371187 12.559333 159.762211 12.824105 159.232665C13.088877 158.703119 13.366889 158.299341 13.658139 158.02133S14.316762 157.505023 14.760256 157.306443C15.20375 157.107864 15.544645 156.978787 15.782941 156.919213S16.312487 156.803375 16.656691 156.75042C16.709646 156.737182 16.749362 156.730562 16.775839 156.730562V156.333403H7.224161V156.730562C8.349446 156.929142 9.203338 157.220393 9.785838 157.604313C10.897883 158.345676 11.526719 159.497437 11.672344 161.059597C10.983934 160.000507 10.096946 159.470961 9.011377 159.470961C8.30973 159.470961 7.710681 159.715875 7.214232 160.205705S6.469559 161.291274 6.469559 161.992921C6.469559 162.58866 6.615184 163.131443 6.906434 163.621274C7.197685 164.111104 7.574986 164.557908 8.038337 164.961686S8.97828 165.785791 9.46811 166.222666C9.957941 166.659541 10.44115 167.232112 10.917741 167.940379S11.758394 169.446274 12.009929 170.333263C12.234985 169.459513 12.582499 168.671814 13.052472 167.970166S14.005654 166.699257 14.502103 166.262382S15.478453 165.401871 15.941805 164.991473S16.785768 164.130962 17.083637 163.641132S17.530441 162.601899 17.530441 161.992921C17.530441 161.291274 17.282217 160.695535 16.785768 160.205705S15.69027 159.470961 14.988623 159.470961C13.903054 159.470961 13.016066 160.000507 12.327656 161.059597Z" fill="#010101" />
</svg>
