<svg width="500.000000" height="700.000000" id="card-realheart12">
<radialGradient id="card-realwhitegradient" cx="250.0" cy="350.0" r="500" gradientTransform="matrix(1 0 0 1 0 -.25)" gradientUnits="userSpaceOnUse">
<stop stop-color="#FDFAF4" offset=".15"/>
<stop stop-color="#FDF9F2" offset=".35"/>
<stop stop-color="#FCF7F1" offset=".5"/>
<stop stop-color="#FDFDF8" offset=".75"/>
<stop stop-color="#FFFDFA" offset="1"/>
</radialGradient>
<rect x="0" y="0" rx="25.0" ry="25.0" width="500" height="700.0" stroke="#010101" fill="url(#card-realwhitegradient)" />
<rect x="100.0" y="70.0" width="300.0" height="560.0" stroke="#010101" fill="#fffdfa" />
<path d="M249.721448 275.966141C261.420613 275.966141 272.052006 276.801795 281.615599 278.473104C291.179192 280.144413 295.961003 282.279985 295.961003 284.87979C295.961003 287.851015 293.82544 289.336614 289.554318 289.336614C288.811513 289.336614 283.101198 288.965213 272.423398 288.222408S254.085432 287.108202 249.442897 287.108202C244.61468 287.108202 237.000919 287.479603 226.601671 288.222408C216.202423 288.965213 210.724234 289.336614 210.167131 289.336614C205.896017 289.336614 203.760446 287.851007 203.760446 284.87979C203.760446 278.937366 219.08078 275.966141 249.721448 275.966141ZM330.779944 168.445249C332.636955 168.445249 334.261838 169.095202 335.654596 170.39511C337.047354 171.695018 337.743733 173.366335 337.743733 175.409037S337.047354 179.123049 335.654596 180.422965S332.636964 182.372826 330.779944 182.372826C326.32312 182.372826 324.094708 180.051564 324.094708 175.409037C324.094708 170.766503 326.32312 168.445249 330.779944 168.445249ZM294.289694 150.896503C299.117911 150.896503 301.532033 153.217764 301.532033 157.860291S299.117919 164.824079 294.289694 164.824079C289.832869 164.824079 287.604457 162.502817 287.604457 157.860291S289.832869 150.896503 294.289694 150.896503ZM205.431755 150.896503C207.288766 150.896503 208.867214 151.592881 210.167131 152.985639S212.116992 156.003271 212.116992 157.860291C212.116992 162.502826 209.888579 164.824079 205.431755 164.824079C200.78922 164.824079 198.467967 162.502817 198.467967 157.860291S200.789228 150.896503 205.431755 150.896503ZM169.220056 168.445249C173.67688 168.445249 175.905292 170.766511 175.905292 175.409037C175.905292 180.051572 173.67688 182.372826 169.220056 182.372826C164.577521 182.372826 162.256267 180.051564 162.256267 175.409037C162.256267 173.366327 162.952646 171.695026 164.345404 170.39511C165.738162 169.095202 167.363036 168.445249 169.220056 168.445249ZM197.075209 274.573383C197.075209 275.687589 195.775301 279.262324 193.175487 285.297617S189.275766 296.764664 189.275766 301.592881C189.275766 306.049706 195.636017 309.253049 208.356546 311.202909C221.077075 313.15277 234.958217 314.1277 250.0 314.1277C267.084485 314.1277 281.429805 312.967068 293.036212 310.645806C304.642535 308.324544 310.445682 305.306893 310.445682 301.592881C310.445682 296.578954 309.192201 291.100764 306.685237 285.158341S302.924791 275.687589 302.924791 274.573383C302.924791 271.416475 306.406685 265.79901 313.370474 257.721015S323.816156 244.675528 323.816156 242.818508C323.816156 241.704302 324.512535 238.825946 325.905292 234.183411S328.830084 223.412742 330.501393 215.79901S333.286908 200.385834 333.844011 192.400681C342.386267 188.872352 346.657382 183.20848 346.657382 175.409037C346.657382 170.952213 345.125348 167.238202 342.061281 164.266976S335.236769 159.810152 330.779944 159.810152C326.694513 159.810152 323.073343 161.342185 319.916435 164.406252S315.181058 171.137923 315.181058 175.409037C315.181058 175.594739 315.413185 177.312472 315.877437 180.562241S316.573816 185.622603 316.573816 185.993996C316.573816 194.350542 310.631393 204.564107 298.746518 216.634664C297.818014 209.020932 297.35376 201.035778 297.35376 192.679232C297.35376 185.808285 298.003713 180.422965 299.303621 176.523244S302.089136 170.2094 303.760446 169.280904S306.917354 166.959642 308.21727 165.102631S310.167131 160.645806 310.167131 157.303188C310.167131 152.846363 308.635097 149.132352 305.571031 146.161127S298.746518 141.704302 294.289694 141.704302C290.018579 141.704302 286.350975 143.236335 283.286908 146.300402S278.690808 153.032074 278.690808 157.303188C278.690808 157.674589 279.015786 159.62445 279.665738 163.15277S280.640669 168.723801 280.640669 169.280904C280.640669 179.680152 275.5339 195.557589 265.320334 216.913216C261.420613 199.45731 259.470752 186.086753 259.470752 176.801795C259.470752 170.116558 260.445682 164.034859 262.395543 158.55667S265.320334 150.153689 265.320334 149.782297C265.320334 145.325472 263.788301 141.611461 260.724234 138.640235S253.992563 134.183411 249.721448 134.183411S241.875571 135.715444 238.997214 138.779511S234.679666 145.511182 234.679666 149.782297C234.679666 150.710801 235.654596 153.774859 237.604457 158.974497S240.529248 170.116558 240.529248 176.801795C240.529248 186.086837 238.579387 199.45731 234.679666 216.913216C224.651811 195.743299 219.637883 179.865862 219.637883 169.280904C219.637883 168.538099 219.916435 166.588238 220.473538 163.431322S221.309192 158.231684 221.309192 157.303188C221.309192 152.846363 219.777159 149.132352 216.713092 146.161127S209.888579 141.704302 205.431755 141.704302C201.160641 141.704302 197.493036 143.236335 194.428969 146.300402S189.832869 153.032074 189.832869 157.303188C189.832869 160.088703 190.250696 162.270681 191.086351 163.849149S192.989786 166.77394 194.289694 167.888146S196.889507 170.348684 198.189415 171.927143C199.489323 173.505603 200.557103 176.058982 201.392758 179.58731S202.64624 187.572464 202.64624 192.957784C202.64624 201.12862 202.181986 209.020932 201.253482 216.634664C189.368607 204.564107 183.426184 194.350542 183.426184 185.993996C183.426184 181.722881 183.890437 178.194553 184.818942 175.409037C184.818942 171.137923 183.286908 167.470319 180.222841 164.406252S173.49117 159.810152 169.220056 159.810152C164.763231 159.810152 161.002786 161.342185 157.938719 164.406252S153.342618 171.137923 153.342618 175.409037C153.342618 182.837088 157.613733 188.500959 166.155989 192.400681C167.270195 204.099845 169.220056 214.91692 172.005571 224.851934S176.183844 240.775806 176.183844 242.818508C176.183844 244.489817 179.665738 249.410904 186.629526 257.581739S197.075209 271.416475 197.075209 274.573383ZM249.721448 142.261405C251.764159 142.261405 253.43546 142.911358 254.735376 144.211266S256.685237 147.182491 256.685237 149.225193S256.035284 152.939205 254.735376 154.239121S251.76415 156.188982 249.721448 156.188982C245.264624 156.188982 243.036212 153.86772 243.036212 149.225193C243.036212 147.368182 243.686164 145.743299 244.986072 144.350542S247.864429 142.261405 249.721448 142.261405ZM199.582173 250.896503C199.582173 247.739595 205.106769 245.464748 216.155989 244.07199C227.205209 242.679232 238.393677 241.982854 249.721448 241.982854C260.492117 241.982854 271.587744 242.725659 283.008357 244.211266S300.139276 248.018146 300.139276 251.175054C300.139276 253.774868 297.725162 255.074776 292.896936 255.074776C288.811504 255.074776 281.940585 254.749798 272.284123 254.099845S255.013928 253.124915 249.442897 253.124915C243.686156 253.124915 235.190334 253.449893 223.955432 254.099845C212.720529 254.749798 206.824513 255.074776 206.267409 255.074776C201.810585 255.074776 199.582173 253.682018 199.582173 250.896503Z" fill="#da0a0a" />
<path d="M250.278552 424.033859C238.579387 424.033859 227.947994 423.198205 218.384401 421.526896C208.820808 419.855587 204.038997 417.720015 204.038997 415.12021C204.038997 412.148985 206.17456 410.663386 210.445682 410.663386C211.188487 410.663386 216.898802 411.034787 227.576602 411.777592S245.914568 412.891798 250.557103 412.891798C255.38532 412.891798 262.999081 412.520397 273.398329 411.777592C283.797577 411.034787 289.275766 410.663386 289.832869 410.663386C294.103983 410.663386 296.239554 412.148993 296.239554 415.12021C296.239554 421.062634 280.91922 424.033859 250.278552 424.033859ZM169.220056 531.554751C167.363045 531.554751 165.738162 530.904798 164.345404 529.60489C162.952646 528.304982 162.256267 526.633665 162.256267 524.590963S162.952646 520.876951 164.345404 519.577035S167.363036 517.627174 169.220056 517.627174C173.67688 517.627174 175.905292 519.948436 175.905292 524.590963C175.905292 529.233497 173.67688 531.554751 169.220056 531.554751ZM205.710306 549.103497C200.882089 549.103497 198.467967 546.782236 198.467967 542.139709S200.882081 535.175921 205.710306 535.175921C210.167131 535.175921 212.395543 537.497183 212.395543 542.139709S210.167131 549.103497 205.710306 549.103497ZM294.568245 549.103497C292.711234 549.103497 291.132786 548.407119 289.832869 547.014361S287.883008 543.996729 287.883008 542.139709C287.883008 537.497174 290.111421 535.175921 294.568245 535.175921C299.21078 535.175921 301.532033 537.497183 301.532033 542.139709S299.210772 549.103497 294.568245 549.103497ZM330.779944 531.554751C326.32312 531.554751 324.094708 529.233489 324.094708 524.590963C324.094708 519.948428 326.32312 517.627174 330.779944 517.627174C335.422479 517.627174 337.743733 519.948436 337.743733 524.590963C337.743733 526.633673 337.047354 528.304974 335.654596 529.60489C334.261838 530.904798 332.636964 531.554751 330.779944 531.554751ZM302.924791 425.426617C302.924791 424.312411 304.224699 420.737676 306.824513 414.702383S310.724234 403.235336 310.724234 398.407119C310.724234 393.950294 304.363983 390.746951 291.643454 388.797091C278.922925 386.84723 265.041783 385.8723 250.0 385.8723C232.915515 385.8723 218.570195 387.032932 206.963788 389.354194C195.357465 391.675456 189.554318 394.693107 189.554318 398.407119C189.554318 403.421046 190.807799 408.899236 193.314763 414.841659S197.075209 424.312411 197.075209 425.426617C197.075209 428.583525 193.593315 434.20099 186.629526 442.278985S176.183844 455.324472 176.183844 457.181492C176.183844 458.295698 175.487465 461.174054 174.094708 465.816589S171.169916 476.587258 169.498607 484.20099S166.713092 499.614166 166.155989 507.599319C157.613733 511.127648 153.342618 516.79152 153.342618 524.590963C153.342618 529.047787 154.874652 532.761798 157.938719 535.733024S164.763231 540.189848 169.220056 540.189848C173.305487 540.189848 176.926657 538.657815 180.083565 535.593748S184.818942 528.862077 184.818942 524.590963C184.818942 524.405261 184.586815 522.687528 184.122563 519.437759S183.426184 514.377397 183.426184 514.006004C183.426184 505.649458 189.368607 495.435893 201.253482 483.365336C202.181986 490.979068 202.64624 498.964222 202.64624 507.320768C202.64624 514.191715 201.996287 519.577035 200.696379 523.476756S197.910864 529.7906 196.239554 530.719096S193.082646 533.040358 191.78273 534.897369S189.832869 539.354194 189.832869 542.696812C189.832869 547.153637 191.364903 550.867648 194.428969 553.838873S201.253482 558.295698 205.710306 558.295698C209.981421 558.295698 213.649025 556.763665 216.713092 553.699598S221.309192 546.967926 221.309192 542.696812C221.309192 542.325411 220.984214 540.37555 220.334262 536.84723S219.359331 531.276199 219.359331 530.719096C219.359331 520.319848 224.4661 504.442411 234.679666 483.086784C238.579387 500.54269 240.529248 513.913247 240.529248 523.198205C240.529248 529.883442 239.554318 535.965141 237.604457 541.44333S234.679666 549.846311 234.679666 550.217703C234.679666 554.674528 236.211699 558.388539 239.275766 561.359765S246.007437 565.816589 250.278552 565.816589S258.124429 564.284556 261.002786 561.220489S265.320334 554.488818 265.320334 550.217703C265.320334 549.289199 264.345404 546.225141 262.395543 541.025503S259.470752 529.883442 259.470752 523.198205C259.470752 513.913163 261.420613 500.54269 265.320334 483.086784C275.348189 504.256701 280.362117 520.134138 280.362117 530.719096C280.362117 531.461901 280.083565 533.411762 279.526462 536.568678S278.690808 541.768316 278.690808 542.696812C278.690808 547.153637 280.222841 550.867648 283.286908 553.838873S290.111421 558.295698 294.568245 558.295698C298.839359 558.295698 302.506964 556.763665 305.571031 553.699598S310.167131 546.967926 310.167131 542.696812C310.167131 539.911297 309.749304 537.729319 308.913649 536.150851S307.010214 533.22606 305.710306 532.111854S303.110493 529.651316 301.810585 528.072857C300.510677 526.494397 299.442897 523.941018 298.607242 520.41269S297.35376 512.427536 297.35376 507.042216C297.35376 498.87138 297.818014 490.979068 298.746518 483.365336C310.631393 495.435893 316.573816 505.649458 316.573816 514.006004C316.573816 518.277119 316.109563 521.805447 315.181058 524.590963C315.181058 528.862077 316.713092 532.529681 319.777159 535.593748S326.50883 540.189848 330.779944 540.189848C335.236769 540.189848 338.997214 538.657815 342.061281 535.593748S346.657382 528.862077 346.657382 524.590963C346.657382 517.162912 342.386267 511.499041 333.844011 507.599319C332.729805 495.900155 330.779944 485.08308 327.994429 475.148066S323.816156 459.224194 323.816156 457.181492C323.816156 455.510183 320.334262 450.589096 313.370474 442.418261S302.924791 428.583525 302.924791 425.426617ZM250.278552 557.738595C248.235841 557.738595 246.56454 557.088642 245.264624 555.788734S243.314763 552.817509 243.314763 550.774807S243.964716 547.060795 245.264624 545.760879S248.23585 543.811018 250.278552 543.811018C254.735376 543.811018 256.963788 546.13228 256.963788 550.774807C256.963788 552.631818 256.313836 554.256701 255.013928 555.649458S252.135571 557.738595 250.278552 557.738595ZM300.417827 449.103497C300.417827 452.260405 294.893231 454.535252 283.844011 455.92801C272.794791 457.320768 261.606323 458.017146 250.278552 458.017146C239.507883 458.017146 228.412256 457.274341 216.991643 455.788734S199.860724 451.981854 199.860724 448.824946C199.860724 446.225132 202.274838 444.925224 207.103064 444.925224C211.188496 444.925224 218.059415 445.250202 227.715877 445.900155S244.986072 446.875085 250.557103 446.875085C256.313844 446.875085 264.809666 446.550107 276.044568 445.900155C287.279471 445.250202 293.175487 444.925224 293.732591 444.925224C298.189415 444.925224 300.417827 446.317982 300.417827 449.103497Z" fill="#da0a0a" />
<path d="M444.947121 111.87296Q447.579318 110.968142 449.553467 109.610915T454.653349 105.786003Q457.121034 103.729599 459.054054 102.331244T463.207991 99.781303Q465.840188 98.465204 469.459459 97.642643Q478.096357 95.668495 482.044653 92.625016Q486.897767 88.841233 489.571093 83.165557T492.244418 71.0739Q492.244418 62.437002 488.33725 56.021021T478.343126 46.191409T466.0047 42.777778Q458.108108 42.777778 452.021152 46.520433T442.685076 56.391174T439.435958 69.593289Q439.435958 78.80598 444.083431 85.67437T456.380729 95.586238Q457.696827 96.162032 459.753231 96.244288V96.4088Q457.532315 96.655569 455.722679 97.560386Q452.514689 99.123254 447.085781 103.07155Q443.055229 105.950516 440.587544 107.307743T435.73443 108.664969Q434.253819 108.500457 433.554642 107.719023T432.855464 105.786003Q432.855464 103.811855 434.377203 102.125604T438.284371 100.357096Q438.53114 99.040998 437.297297 97.807155T433.59577 96.573312Q432.526439 96.573312 431.169213 97.313618T428.783784 99.534535T427.755582 103.153806Q427.755582 105.621491 429.441833 107.80128T433.719154 111.338295T438.942421 112.777778Q442.314924 112.777778 444.947121 111.87296ZM456.709753 91.185533Q452.925969 87.771902 451.075206 82.096227T449.224442 69.593289Q449.224442 63.259564 451.116334 57.954041T456.833137 49.481656T466.086957 46.314793Q474.312573 46.314793 478.425382 53.265439T482.53819 70.827131Q482.53819 77.243113 480.687427 82.67202T475.135135 91.350046T466.086957 94.599164Q460.493537 94.599164 456.709753 91.185533Z" fill="#da0a0a" />
<path d="M459.935005 141.581693C459.068411 138.37529 457.671025 136.013811 455.742847 134.49727S451.680677 132.222456 449.340868 132.222456C446.697748 132.222456 444.433768 133.132381 442.548921 134.952233S439.721651 138.960242 439.721651 141.516699C439.721651 143.856508 440.295771 146.23965 441.444011 148.666117S444.043799 153.432393 445.798656 155.685545S449.340868 160.202677 451.16072 162.477492S454.724594 167.34126 456.392794 170.244359S459.241726 176.028888 459.935005 178.888656C460.714942 175.898899 461.960676 172.898308 463.672201 169.886889S467.149418 164.210686 468.96927 161.89254C470.789121 159.574393 472.565641 157.299578 474.298836 155.068095S477.461914 150.594295 478.588486 148.341143S480.278349 143.943166 480.278349 141.906667C480.278349 139.176889 479.357588 136.880412 477.516074 135.017228C475.674559 133.154044 473.410572 132.222456 470.724127 132.222456C465.567882 132.222456 461.971484 135.342202 459.935005 141.581693Z" fill="#da0a0a" />
<path d="M55.052879 588.12704Q52.420682 589.031858 50.446533 590.389085T45.346651 594.213997Q42.878966 596.270401 40.945946 597.668756T36.792009 600.218697Q34.159812 601.534796 30.540541 602.357357Q21.903643 604.331505 17.955347 607.374984Q13.102233 611.158767 10.428907 616.834443T7.755582 628.9261Q7.755582 637.562998 11.66275 643.978979T21.656874 653.808591T33.9953 657.222222Q41.891892 657.222222 47.978848 653.479567T57.314924 643.608826T60.564042 630.406711Q60.564042 621.19402 55.916569 614.32563T43.619271 604.413762Q42.303173 603.837968 40.246769 603.755712V603.5912Q42.467685 603.344431 44.277321 602.439614Q47.485311 600.876746 52.914219 596.92845Q56.944771 594.049484 59.412456 592.692257T64.26557 591.335031Q65.746181 591.499543 66.445358 592.280977T67.144536 594.213997Q67.144536 596.188145 65.622797 597.874396T61.715629 599.642904Q61.46886 600.959002 62.702703 602.192845T66.40423 603.426688Q67.473561 603.426688 68.830787 602.686382T71.216216 600.465465T72.244418 596.846194Q72.244418 594.378509 70.558167 592.19872T66.280846 588.661705T61.057579 587.222222Q57.685076 587.222222 55.052879 588.12704ZM43.290247 608.814467Q47.074031 612.228098 48.924794 617.903773T50.775558 630.406711Q50.775558 636.740436 48.883666 642.045959T43.166863 650.518344T33.913043 653.685207Q25.687427 653.685207 21.574618 646.734561T17.46181 629.172869Q17.46181 622.756887 19.312573 617.32798T24.864865 608.649954T33.913043 605.400836Q39.506463 605.400836 43.290247 608.814467Z" fill="#da0a0a" />
<path d="M40.064995 558.418307C40.931589 561.62471 42.328975 563.986189 44.257153 565.50273S48.319323 567.777544 50.659132 567.777544C53.302252 567.777544 55.566232 566.867619 57.451079 565.047767S60.278349 561.039758 60.278349 558.483301C60.278349 556.143492 59.704229 553.76035 58.555989 551.333883S55.956201 546.567607 54.201344 544.314455S50.659132 539.797323 48.83928 537.522508S45.275406 532.65874 43.607206 529.755641S40.758274 523.971112 40.064995 521.111344C39.285058 524.101101 38.039324 527.101692 36.327799 530.113111S32.850582 535.789314 31.03073 538.10746C29.210879 540.425607 27.434359 542.700422 25.701164 544.931905S22.538086 549.405705 21.411514 551.658857S19.721651 556.056834 19.721651 558.093333C19.721651 560.823111 20.642412 563.119588 22.483926 564.982772C24.325441 566.845956 26.589428 567.777544 29.275873 567.777544C34.432118 567.777544 38.028516 564.657798 40.064995 558.418307Z" fill="#da0a0a" />
</svg>
