<svg width="150.000000" height="210.000000" id="card-webspade6">
<radialGradient id="card-webwhitegradient" cx="75.0" cy="105.0" r="150" gradientTransform="matrix(1 0 0 1 0 -.25)" gradientUnits="userSpaceOnUse">
<stop stop-color="#FDFAF4" offset=".15"/>
<stop stop-color="#FDF9F2" offset=".35"/>
<stop stop-color="#FCF7F1" offset=".5"/>
<stop stop-color="#FDFDF8" offset=".75"/>
<stop stop-color="#FFFDFA" offset="1"/>
</radialGradient>
<rect x="0" y="0" rx="7.5" ry="7.5" width="150" height="210.0" stroke="#010101" fill="url(#card-webwhitegradient)" />
<path d="M44.297872 39.87234C44.156029 41.347519 43.801417 42.652481 43.234043 43.787234C42.666668 44.921987 42.070923 45.787234 41.446809 46.382979S40.03546 47.489362 39.085106 47.914894C38.134753 48.340426 37.404255 48.617021 36.893617 48.744681S35.758864 48.992908 35.021277 49.106383C34.907801 49.134752 34.822695 49.148936 34.765957 49.148936V50.0H55.234043V49.148936C52.822694 48.723404 50.992906 48.099289 49.744681 47.276596C47.361702 45.687945 46.014183 43.21986 45.702128 39.87234C47.177306 42.141843 49.078013 43.276596 51.404255 43.276596C52.9078 43.276596 54.191489 42.751774 55.255319 41.702128S56.851064 39.375885 56.851064 37.87234C56.851064 36.595745 56.539007 35.432626 55.914894 34.382979C55.290779 33.333332 54.482268 32.375885 53.489362 31.510638S51.475179 29.744681 50.425532 28.808511C49.375885 27.87234 48.340426 26.645391 47.319149 25.12766S45.517732 21.900711 44.978723 20.0C44.496455 21.87234 43.751774 23.560285 42.744681 25.06383S40.702128 27.787234 39.638298 28.723404S37.546098 30.567374 36.553191 31.446809S34.744681 33.290779 34.106383 34.340426S33.148936 36.567374 33.148936 37.87234C33.148936 39.375885 33.680851 40.652481 34.744681 41.702128S37.0922 43.276596 38.595745 43.276596C40.921987 43.276596 42.822694 42.141843 44.297872 39.87234Z" fill="#010101" />
<path d="M45.702128 170.12766C45.843971 168.652481 46.198583 167.347519 46.765957 166.212766C47.333332 165.078013 47.929077 164.212766 48.553191 163.617021S49.96454 162.510638 50.914894 162.085106C51.865247 161.659574 52.595745 161.382979 53.106383 161.255319S54.241136 161.007092 54.978723 160.893617C55.092199 160.865248 55.177305 160.851064 55.234043 160.851064V160.0H34.765957V160.851064C37.177306 161.276596 39.007094 161.900711 40.255319 162.723404C42.638298 164.312055 43.985817 166.78014 44.297872 170.12766C42.822694 167.858157 40.921987 166.723404 38.595745 166.723404C37.0922 166.723404 35.808511 167.248226 34.744681 168.297872S33.148936 170.624115 33.148936 172.12766C33.148936 173.404255 33.460993 174.567374 34.085106 175.617021C34.709221 176.666668 35.517732 177.624115 36.510638 178.489362S38.524821 180.255319 39.574468 181.191489C40.624115 182.12766 41.659574 183.354609 42.680851 184.87234S44.482268 188.099289 45.021277 190.0C45.503545 188.12766 46.248226 186.439715 47.255319 184.93617S49.297872 182.212766 50.361702 181.276596S52.453902 179.432626 53.446809 178.553191S55.255319 176.709221 55.893617 175.659574S56.851064 173.432626 56.851064 172.12766C56.851064 170.624115 56.319149 169.347519 55.255319 168.297872S52.9078 166.723404 51.404255 166.723404C49.078013 166.723404 47.177306 167.858157 45.702128 170.12766Z" fill="#010101" />
<path d="M44.297872 109.87234C44.156029 111.347519 43.801417 112.652481 43.234043 113.787234C42.666668 114.921987 42.070923 115.787234 41.446809 116.382979S40.03546 117.489362 39.085106 117.914894C38.134753 118.340426 37.404255 118.617021 36.893617 118.744681S35.758864 118.992908 35.021277 119.106383C34.907801 119.134752 34.822695 119.148936 34.765957 119.148936V120.0H55.234043V119.148936C52.822694 118.723404 50.992906 118.099289 49.744681 117.276596C47.361702 115.687945 46.014183 113.21986 45.702128 109.87234C47.177306 112.141843 49.078013 113.276596 51.404255 113.276596C52.9078 113.276596 54.191489 112.751774 55.255319 111.702128S56.851064 109.375885 56.851064 107.87234C56.851064 106.595745 56.539007 105.432626 55.914894 104.382979C55.290779 103.333332 54.482268 102.375885 53.489362 101.510638S51.475179 99.744681 50.425532 98.808511C49.375885 97.87234 48.340426 96.645391 47.319149 95.12766S45.517732 91.900711 44.978723 90.0C44.496455 91.87234 43.751774 93.560285 42.744681 95.06383S40.702128 97.787234 39.638298 98.723404S37.546098 100.567374 36.553191 101.446809S34.744681 103.290779 34.106383 104.340426S33.148936 106.567374 33.148936 107.87234C33.148936 109.375885 33.680851 110.652481 34.744681 111.702128S37.0922 113.276596 38.595745 113.276596C40.921987 113.276596 42.822694 112.141843 44.297872 109.87234Z" fill="#010101" />
<path d="M104.297872 39.87234C104.156029 41.347519 103.801417 42.652481 103.234043 43.787234C102.666668 44.921987 102.070923 45.787234 101.446809 46.382979S100.03546 47.489362 99.085106 47.914894C98.134753 48.340426 97.404255 48.617021 96.893617 48.744681S95.758864 48.992908 95.021277 49.106383C94.907801 49.134752 94.822695 49.148936 94.765957 49.148936V50.0H115.234043V49.148936C112.822694 48.723404 110.992906 48.099289 109.744681 47.276596C107.361702 45.687945 106.014183 43.21986 105.702128 39.87234C107.177306 42.141843 109.078013 43.276596 111.404255 43.276596C112.9078 43.276596 114.191489 42.751774 115.255319 41.702128S116.851064 39.375885 116.851064 37.87234C116.851064 36.595745 116.539007 35.432626 115.914894 34.382979C115.290779 33.333332 114.482268 32.375885 113.489362 31.510638S111.475179 29.744681 110.425532 28.808511C109.375885 27.87234 108.340426 26.645391 107.319149 25.12766S105.517732 21.900711 104.978723 20.0C104.496455 21.87234 103.751774 23.560285 102.744681 25.06383S100.702128 27.787234 99.638298 28.723404S97.546098 30.567374 96.553191 31.446809S94.744681 33.290779 94.106383 34.340426S93.148936 36.567374 93.148936 37.87234C93.148936 39.375885 93.680851 40.652481 94.744681 41.702128S97.0922 43.276596 98.595745 43.276596C100.921987 43.276596 102.822694 42.141843 104.297872 39.87234Z" fill="#010101" />
<path d="M105.702128 170.12766C105.843971 168.652481 106.198583 167.347519 106.765957 166.212766C107.333332 165.078013 107.929077 164.212766 108.553191 163.617021S109.96454 162.510638 110.914894 162.085106C111.865247 161.659574 112.595745 161.382979 113.106383 161.255319S114.241136 161.007092 114.978723 160.893617C115.092199 160.865248 115.177305 160.851064 115.234043 160.851064V160.0H94.765957V160.851064C97.177306 161.276596 99.007094 161.900711 100.255319 162.723404C102.638298 164.312055 103.985817 166.78014 104.297872 170.12766C102.822694 167.858157 100.921987 166.723404 98.595745 166.723404C97.0922 166.723404 95.808511 167.248226 94.744681 168.297872S93.148936 170.624115 93.148936 172.12766C93.148936 173.404255 93.460993 174.567374 94.085106 175.617021C94.709221 176.666668 95.517732 177.624115 96.510638 178.489362S98.524821 180.255319 99.574468 181.191489C100.624115 182.12766 101.659574 183.354609 102.680851 184.87234S104.482268 188.099289 105.021277 190.0C105.503545 188.12766 106.248226 186.439715 107.255319 184.93617S109.297872 182.212766 110.361702 181.276596S112.453902 179.432626 113.446809 178.553191S115.255319 176.709221 115.893617 175.659574S116.851064 173.432626 116.851064 172.12766C116.851064 170.624115 116.319149 169.347519 115.255319 168.297872S112.9078 166.723404 111.404255 166.723404C109.078013 166.723404 107.177306 167.858157 105.702128 170.12766Z" fill="#010101" />
<path d="M104.297872 109.87234C104.156029 111.347519 103.801417 112.652481 103.234043 113.787234C102.666668 114.921987 102.070923 115.787234 101.446809 116.382979S100.03546 117.489362 99.085106 117.914894C98.134753 118.340426 97.404255 118.617021 96.893617 118.744681S95.758864 118.992908 95.021277 119.106383C94.907801 119.134752 94.822695 119.148936 94.765957 119.148936V120.0H115.234043V119.148936C112.822694 118.723404 110.992906 118.099289 109.744681 117.276596C107.361702 115.687945 106.014183 113.21986 105.702128 109.87234C107.177306 112.141843 109.078013 113.276596 111.404255 113.276596C112.9078 113.276596 114.191489 112.751774 115.255319 111.702128S116.851064 109.375885 116.851064 107.87234C116.851064 106.595745 116.539007 105.432626 115.914894 104.382979C115.290779 103.333332 114.482268 102.375885 113.489362 101.510638S111.475179 99.744681 110.425532 98.808511C109.375885 97.87234 108.340426 96.645391 107.319149 95.12766S105.517732 91.900711 104.978723 90.0C104.496455 91.87234 103.751774 93.560285 102.744681 95.06383S100.702128 97.787234 99.638298 98.723404S97.546098 100.567374 96.553191 101.446809S94.744681 103.290779 94.106383 104.340426S93.148936 106.567374 93.148936 107.87234C93.148936 109.375885 93.680851 110.652481 94.744681 111.702128S97.0922 113.276596 98.595745 113.276596C100.921987 113.276596 102.822694 112.141843 104.297872 109.87234Z" fill="#010101" />
<path d="M143.696203 31.592827Q145.841772 29.352321 145.841772 25.478903Q145.841772 22.402954 144.379747 19.744726T140.259494 15.2827T134.183544 12.871308Q133.993671 12.833333 133.613924 12.833333Q132.85443 12.833333 132.85443 13.516878Q132.85443 14.124473 133.537975 14.314346Q140.487342 16.478903 141.816456 22.099156Q140.563291 21.263713 139.329114 20.921941T136.765823 20.580169Q134.943038 20.580169 133.424051 21.396624T131.031646 23.637131T130.158228 26.883966Q130.158228 28.934599 131.259494 30.510549T134.14557 32.959916T137.943038 33.833333Q141.550633 33.833333 143.696203 31.592827ZM134.981013 31.118143Q133.803797 29.618143 133.803797 27.225738Q133.803797 24.985232 134.981013 23.637131T138.056962 22.28903Q139.006329 22.28903 140.031646 22.763713T141.968354 24.035865Q142.196203 24.947257 142.196203 25.516878Q142.196203 27.035865 141.797468 28.668776T140.43038 31.459916T137.943038 32.618143Q136.158228 32.618143 134.981013 31.118143Z" fill="#010101" />
<path d="M137.672344 48.940403C137.606151 49.628813 137.440667 50.237789 137.175895 50.767335C136.911123 51.296881 136.633111 51.700659 136.341861 51.97867S135.683238 52.494977 135.239744 52.693557C134.79625 52.892136 134.455355 53.021213 134.217059 53.080787S133.687513 53.196625 133.343309 53.24958C133.290354 53.262818 133.250638 53.269438 133.224161 53.269438V53.666597H142.775839V53.269438C141.650554 53.070858 140.796662 52.779607 140.214162 52.395687C139.102117 51.654324 138.473281 50.502563 138.327656 48.940403C139.016066 49.999493 139.903054 50.529039 140.988623 50.529039C141.69027 50.529039 142.289319 50.284125 142.785768 49.794295S143.530441 48.708726 143.530441 48.007079C143.530441 47.41134 143.384816 46.868557 143.093566 46.378726C142.802315 45.888896 142.425014 45.442092 141.961663 45.038314S141.02172 44.214209 140.53189 43.777334C140.042059 43.340459 139.55885 42.767888 139.082259 42.059621S138.241606 40.553726 137.990071 39.666737C137.765015 40.540487 137.417501 41.328186 136.947528 42.029834S135.994346 43.300743 135.497897 43.737618S134.521547 44.598129 134.058195 45.008527S133.214232 45.869038 132.916363 46.358868S132.469559 47.398101 132.469559 48.007079C132.469559 48.708726 132.717783 49.304465 133.214232 49.794295S134.30973 50.529039 135.011377 50.529039C136.096946 50.529039 136.983934 49.999493 137.672344 48.940403Z" fill="#010101" />
<path d="M6.303797 178.407173Q4.158228 180.647679 4.158228 184.521097Q4.158228 187.597046 5.620253 190.255274T9.740506 194.7173T15.816456 197.128692Q16.006329 197.166667 16.386076 197.166667Q17.14557 197.166667 17.14557 196.483122Q17.14557 195.875527 16.462025 195.685654Q9.512658 193.521097 8.183544 187.900844Q9.436709 188.736287 10.670886 189.078059T13.234177 189.419831Q15.056962 189.419831 16.575949 188.603376T18.968354 186.362869T19.841772 183.116034Q19.841772 181.065401 18.740506 179.489451T15.85443 177.040084T12.056962 176.166667Q8.449367 176.166667 6.303797 178.407173ZM15.018987 178.881857Q16.196203 180.381857 16.196203 182.774262Q16.196203 185.014768 15.018987 186.362869T11.943038 187.71097Q10.993671 187.71097 9.968354 187.236287T8.031646 185.964135Q7.803797 185.052743 7.803797 184.483122Q7.803797 182.964135 8.202532 181.331224T9.56962 178.540084T12.056962 177.381857Q13.841772 177.381857 15.018987 178.881857Z" fill="#010101" />
<path d="M12.327656 161.059597C12.393849 160.371187 12.559333 159.762211 12.824105 159.232665C13.088877 158.703119 13.366889 158.299341 13.658139 158.02133S14.316762 157.505023 14.760256 157.306443C15.20375 157.107864 15.544645 156.978787 15.782941 156.919213S16.312487 156.803375 16.656691 156.75042C16.709646 156.737182 16.749362 156.730562 16.775839 156.730562V156.333403H7.224161V156.730562C8.349446 156.929142 9.203338 157.220393 9.785838 157.604313C10.897883 158.345676 11.526719 159.497437 11.672344 161.059597C10.983934 160.000507 10.096946 159.470961 9.011377 159.470961C8.30973 159.470961 7.710681 159.715875 7.214232 160.205705S6.469559 161.291274 6.469559 161.992921C6.469559 162.58866 6.615184 163.131443 6.906434 163.621274C7.197685 164.111104 7.574986 164.557908 8.038337 164.961686S8.97828 165.785791 9.46811 166.222666C9.957941 166.659541 10.44115 167.232112 10.917741 167.940379S11.758394 169.446274 12.009929 170.333263C12.234985 169.459513 12.582499 168.671814 13.052472 167.970166S14.005654 166.699257 14.502103 166.262382S15.478453 165.401871 15.941805 164.991473S16.785768 164.130962 17.083637 163.641132S17.530441 162.601899 17.530441 161.992921C17.530441 161.291274 17.282217 160.695535 16.785768 160.205705S15.69027 159.470961 14.988623 159.470961C13.903054 159.470961 13.016066 160.000507 12.327656 161.059597Z" fill="#010101" />
</svg>
