<svg width="25.000000" height="35.000000" id="card-lightheart7">
<rect x="0" y="0" rx="1.25" ry="1.25" width="25" height="35.0" stroke="#010101" fill="#fffdfa" />
<path d="M7.493036 4.336119C7.400186 3.992572 7.250464 3.739554 7.043872 3.577066S6.608635 3.333333 6.357939 3.333333C6.074744 3.333333 5.832173 3.430826 5.630223 3.625812S5.327298 4.055246 5.327298 4.329155C5.327298 4.579851 5.388811 4.835191 5.511838 5.095172S5.79039 5.605849 5.978412 5.847261S6.357939 6.331244 6.552925 6.574977S6.934772 7.0961 7.11351 7.407149S7.418756 8.026927 7.493036 8.333333C7.576602 8.012999 7.710075 7.691504 7.893454 7.368849S8.266017 6.760678 8.461003 6.512303C8.655989 6.263927 8.846332 6.020195 9.032033 5.781105S9.370938 5.301764 9.491643 5.060353S9.672702 4.589136 9.672702 4.370938C9.672702 4.078459 9.574048 3.832405 9.376741 3.632776C9.179434 3.433147 8.936861 3.333333 8.649025 3.333333C8.096565 3.333333 7.711233 3.667595 7.493036 4.336119Z" fill="#da0a0a" />
<path d="M7.506964 30.663881C7.599814 31.007428 7.749536 31.260446 7.956128 31.422934S8.391365 31.666667 8.642061 31.666667C8.925256 31.666667 9.167827 31.569174 9.369777 31.374188S9.672702 30.944754 9.672702 30.670845C9.672702 30.420149 9.611189 30.164809 9.488162 29.904828S9.20961 29.394151 9.021588 29.152739S8.642061 28.668756 8.447075 28.425023S8.065228 27.9039 7.88649 27.592851S7.581244 26.973073 7.506964 26.666667C7.423398 26.987001 7.289925 27.308496 7.106546 27.631151S6.733983 28.239322 6.538997 28.487697C6.344011 28.736073 6.153668 28.979805 5.967967 29.218895S5.629062 29.698236 5.508357 29.939647S5.327298 30.410864 5.327298 30.629062C5.327298 30.921541 5.425952 31.167595 5.623259 31.367224C5.820566 31.566853 6.063139 31.666667 6.350975 31.666667C6.903435 31.666667 7.288767 31.332405 7.506964 30.663881Z" fill="#da0a0a" />
<path d="M7.493036 16.002786C7.400186 15.659239 7.250464 15.406221 7.043872 15.243733S6.608635 15.0 6.357939 15.0C6.074744 15.0 5.832173 15.097493 5.630223 15.292479S5.327298 15.721913 5.327298 15.995822C5.327298 16.246518 5.388811 16.501857 5.511838 16.761838S5.79039 17.272516 5.978412 17.513928S6.357939 17.997911 6.552925 18.241643S6.934772 18.762767 7.11351 19.073816S7.418756 19.693593 7.493036 20.0C7.576602 19.679666 7.710075 19.358171 7.893454 19.035515S8.266017 18.427345 8.461003 18.178969C8.655989 17.930594 8.846332 17.686861 9.032033 17.447772S9.370938 16.968431 9.491643 16.727019S9.672702 16.255803 9.672702 16.037604C9.672702 15.745125 9.574048 15.499072 9.376741 15.299443C9.179434 15.099814 8.936861 15.0 8.649025 15.0C8.096565 15.0 7.711233 15.334262 7.493036 16.002786Z" fill="#da0a0a" />
<path d="M17.493036 4.336119C17.400186 3.992572 17.250464 3.739554 17.043872 3.577066S16.608635 3.333333 16.357939 3.333333C16.074744 3.333333 15.832173 3.430826 15.630223 3.625812S15.327298 4.055246 15.327298 4.329155C15.327298 4.579851 15.388811 4.835191 15.511838 5.095172S15.79039 5.605849 15.978412 5.847261S16.357939 6.331244 16.552925 6.574977S16.934772 7.0961 17.11351 7.407149S17.418756 8.026927 17.493036 8.333333C17.576602 8.012999 17.710075 7.691504 17.893454 7.368849S18.266017 6.760678 18.461003 6.512303C18.655989 6.263927 18.846332 6.020195 19.032033 5.781105S19.370938 5.301764 19.491643 5.060353S19.672702 4.589136 19.672702 4.370938C19.672702 4.078459 19.574048 3.832405 19.376741 3.632776C19.179434 3.433147 18.936861 3.333333 18.649025 3.333333C18.096565 3.333333 17.711233 3.667595 17.493036 4.336119Z" fill="#da0a0a" />
<path d="M17.506964 30.663881C17.599814 31.007428 17.749536 31.260446 17.956128 31.422934S18.391365 31.666667 18.642061 31.666667C18.925256 31.666667 19.167827 31.569174 19.369777 31.374188S19.672702 30.944754 19.672702 30.670845C19.672702 30.420149 19.611189 30.164809 19.488162 29.904828S19.20961 29.394151 19.021588 29.152739S18.642061 28.668756 18.447075 28.425023S18.065228 27.9039 17.88649 27.592851S17.581244 26.973073 17.506964 26.666667C17.423398 26.987001 17.289925 27.308496 17.106546 27.631151S16.733983 28.239322 16.538997 28.487697C16.344011 28.736073 16.153668 28.979805 15.967967 29.218895S15.629062 29.698236 15.508357 29.939647S15.327298 30.410864 15.327298 30.629062C15.327298 30.921541 15.425952 31.167595 15.623259 31.367224C15.820566 31.566853 16.063139 31.666667 16.350975 31.666667C16.903435 31.666667 17.288767 31.332405 17.506964 30.663881Z" fill="#da0a0a" />
<path d="M17.493036 16.002786C17.400186 15.659239 17.250464 15.406221 17.043872 15.243733S16.608635 15.0 16.357939 15.0C16.074744 15.0 15.832173 15.097493 15.630223 15.292479S15.327298 15.721913 15.327298 15.995822C15.327298 16.246518 15.388811 16.501857 15.511838 16.761838S15.79039 17.272516 15.978412 17.513928S16.357939 17.997911 16.552925 18.241643S16.934772 18.762767 17.11351 19.073816S17.418756 19.693593 17.493036 20.0C17.576602 19.679666 17.710075 19.358171 17.893454 19.035515S18.266017 18.427345 18.461003 18.178969C18.655989 17.930594 18.846332 17.686861 19.032033 17.447772S19.370938 16.968431 19.491643 16.727019S19.672702 16.255803 19.672702 16.037604C19.672702 15.745125 19.574048 15.499072 19.376741 15.299443C19.179434 15.099814 18.936861 15.0 18.649025 15.0C18.096565 15.0 17.711233 15.334262 17.493036 16.002786Z" fill="#da0a0a" />
<path d="M12.493036 10.169452C12.400186 9.825906 12.250464 9.572887 12.043872 9.410399S11.608635 9.166667 11.357939 9.166667C11.074744 9.166667 10.832173 9.26416 10.630223 9.459146S10.327298 9.88858 10.327298 10.162488C10.327298 10.413185 10.388811 10.668524 10.511838 10.928505S10.79039 11.439183 10.978412 11.680594S11.357939 12.164578 11.552925 12.40831S11.934772 12.929433 12.11351 13.240483S12.418756 13.86026 12.493036 14.166667C12.576602 13.846332 12.710075 13.524837 12.893454 13.202182S13.266017 12.594011 13.461003 12.345636C13.655989 12.097261 13.846332 11.853528 14.032033 11.614438S14.370938 11.135098 14.491643 10.893686S14.672702 10.42247 14.672702 10.204271C14.672702 9.911792 14.574048 9.665738 14.376741 9.46611C14.179434 9.266481 13.936861 9.166667 13.649025 9.166667C13.096565 9.166667 12.711233 9.500929 12.493036 10.169452Z" fill="#da0a0a" />
<path d="M23.552122 5.564627Q23.616697 5.490365 23.616697 5.361214Q23.616697 5.077081 23.297048 4.434553T22.460793 2.862136L22.312269 2.597376H23.442343Q23.616697 2.597376 23.703875 2.623206T23.845941 2.7459T23.926661 3.049405Q23.939576 3.101066 23.968635 3.123667T24.075185 3.146269Q24.184963 3.146269 24.184963 3.03649L24.159133 2.280955Q24.159133 2.138889 23.971863 2.138889H22.002306Q21.815037 2.138889 21.815037 2.261583Q21.815037 2.358446 21.957103 2.597376Q22.196033 2.997745 22.399446 3.491749T22.848247 4.663797Q23.048432 5.21269 23.138838 5.432247Q23.235701 5.638889 23.403598 5.638889Q23.487546 5.638889 23.552122 5.564627Z" fill="#da0a0a" />
<path d="M22.99675 7.079085C22.953421 6.918765 22.883551 6.800691 22.787142 6.724864S22.584034 6.611123 22.467043 6.611123C22.334887 6.611123 22.221688 6.656619 22.127446 6.747612S21.986083 6.948012 21.986083 7.075835C21.986083 7.192825 22.014789 7.311982 22.072201 7.433306S22.20219 7.67162 22.289933 7.784277S22.467043 8.010134 22.558036 8.123875S22.73623 8.367063 22.81964 8.512218S22.962086 8.801444 22.99675 8.944433C23.035747 8.794945 23.098034 8.644915 23.18361 8.494344S23.357471 8.210534 23.448463 8.094627C23.539456 7.97872 23.628282 7.864979 23.714942 7.753405S23.873096 7.529715 23.929424 7.417057S24.013917 7.197158 24.013917 7.095333C24.013917 6.958844 23.967879 6.844021 23.875804 6.750861C23.783728 6.657702 23.670529 6.611123 23.536206 6.611123C23.278394 6.611123 23.098574 6.76711 22.99675 7.079085Z" fill="#da0a0a" />
<path d="M1.447878 29.435373Q1.383303 29.509635 1.383303 29.638786Q1.383303 29.922919 1.702952 30.565447T2.539207 32.137864L2.687731 32.402624H1.557657Q1.383303 32.402624 1.296125 32.376794T1.154059 32.2541T1.073339 31.950595Q1.060424 31.898934 1.031365 31.876333T0.924815 31.853731Q0.815037 31.853731 0.815037 31.96351L0.840867 32.719045Q0.840867 32.861111 1.028137 32.861111H2.997694Q3.184963 32.861111 3.184963 32.738417Q3.184963 32.641554 3.042897 32.402624Q2.803967 32.002255 2.600554 31.508251T2.151753 30.336203Q1.951568 29.78731 1.861162 29.567753Q1.764299 29.361111 1.596402 29.361111Q1.512454 29.361111 1.447878 29.435373Z" fill="#da0a0a" />
<path d="M2.00325 27.920915C2.046579 28.081235 2.116449 28.199309 2.212858 28.275136S2.415966 28.388877 2.532957 28.388877C2.665113 28.388877 2.778312 28.343381 2.872554 28.252388S3.013917 28.051988 3.013917 27.924165C3.013917 27.807175 2.985211 27.688018 2.927799 27.566694S2.79781 27.32838 2.710067 27.215723S2.532957 26.989866 2.441964 26.876125S2.26377 26.632937 2.18036 26.487782S2.037914 26.198556 2.00325 26.055567C1.964253 26.205055 1.901966 26.355085 1.81639 26.505656S1.642529 26.789466 1.551537 26.905373C1.460544 27.02128 1.371718 27.135021 1.285058 27.246595S1.126904 27.470285 1.070576 27.582943S0.986083 27.802842 0.986083 27.904667C0.986083 28.041156 1.032121 28.155979 1.124196 28.249139C1.216272 28.342298 1.329471 28.388877 1.463794 28.388877C1.721606 28.388877 1.901426 28.23289 2.00325 27.920915Z" fill="#da0a0a" />
</svg>
