<svg width="150.000000" height="210.000000" id="card-webspade8">
<radialGradient id="card-webwhitegradient" cx="75.0" cy="105.0" r="150" gradientTransform="matrix(1 0 0 1 0 -.25)" gradientUnits="userSpaceOnUse">
<stop stop-color="#FDFAF4" offset=".15"/>
<stop stop-color="#FDF9F2" offset=".35"/>
<stop stop-color="#FCF7F1" offset=".5"/>
<stop stop-color="#FDFDF8" offset=".75"/>
<stop stop-color="#FFFDFA" offset="1"/>
</radialGradient>
<rect x="0" y="0" rx="7.5" ry="7.5" width="150" height="210.0" stroke="#010101" fill="url(#card-webwhitegradient)" />
<path d="M44.297872 39.87234C44.156029 41.347519 43.801417 42.652481 43.234043 43.787234C42.666668 44.921987 42.070923 45.787234 41.446809 46.382979S40.03546 47.489362 39.085106 47.914894C38.134753 48.340426 37.404255 48.617021 36.893617 48.744681S35.758864 48.992908 35.021277 49.106383C34.907801 49.134752 34.822695 49.148936 34.765957 49.148936V50.0H55.234043V49.148936C52.822694 48.723404 50.992906 48.099289 49.744681 47.276596C47.361702 45.687945 46.014183 43.21986 45.702128 39.87234C47.177306 42.141843 49.078013 43.276596 51.404255 43.276596C52.9078 43.276596 54.191489 42.751774 55.255319 41.702128S56.851064 39.375885 56.851064 37.87234C56.851064 36.595745 56.539007 35.432626 55.914894 34.382979C55.290779 33.333332 54.482268 32.375885 53.489362 31.510638S51.475179 29.744681 50.425532 28.808511C49.375885 27.87234 48.340426 26.645391 47.319149 25.12766S45.517732 21.900711 44.978723 20.0C44.496455 21.87234 43.751774 23.560285 42.744681 25.06383S40.702128 27.787234 39.638298 28.723404S37.546098 30.567374 36.553191 31.446809S34.744681 33.290779 34.106383 34.340426S33.148936 36.567374 33.148936 37.87234C33.148936 39.375885 33.680851 40.652481 34.744681 41.702128S37.0922 43.276596 38.595745 43.276596C40.921987 43.276596 42.822694 42.141843 44.297872 39.87234Z" fill="#010101" />
<path d="M45.702128 170.12766C45.843971 168.652481 46.198583 167.347519 46.765957 166.212766C47.333332 165.078013 47.929077 164.212766 48.553191 163.617021S49.96454 162.510638 50.914894 162.085106C51.865247 161.659574 52.595745 161.382979 53.106383 161.255319S54.241136 161.007092 54.978723 160.893617C55.092199 160.865248 55.177305 160.851064 55.234043 160.851064V160.0H34.765957V160.851064C37.177306 161.276596 39.007094 161.900711 40.255319 162.723404C42.638298 164.312055 43.985817 166.78014 44.297872 170.12766C42.822694 167.858157 40.921987 166.723404 38.595745 166.723404C37.0922 166.723404 35.808511 167.248226 34.744681 168.297872S33.148936 170.624115 33.148936 172.12766C33.148936 173.404255 33.460993 174.567374 34.085106 175.617021C34.709221 176.666668 35.517732 177.624115 36.510638 178.489362S38.524821 180.255319 39.574468 181.191489C40.624115 182.12766 41.659574 183.354609 42.680851 184.87234S44.482268 188.099289 45.021277 190.0C45.503545 188.12766 46.248226 186.439715 47.255319 184.93617S49.297872 182.212766 50.361702 181.276596S52.453902 179.432626 53.446809 178.553191S55.255319 176.709221 55.893617 175.659574S56.851064 173.432626 56.851064 172.12766C56.851064 170.624115 56.319149 169.347519 55.255319 168.297872S52.9078 166.723404 51.404255 166.723404C49.078013 166.723404 47.177306 167.858157 45.702128 170.12766Z" fill="#010101" />
<path d="M44.297872 86.539007C44.156029 88.014186 43.801417 89.319148 43.234043 90.453901C42.666668 91.588654 42.070923 92.453901 41.446809 93.049645S40.03546 94.156028 39.085106 94.58156C38.134753 95.007092 37.404255 95.283688 36.893617 95.411348S35.758864 95.659574 35.021277 95.77305C34.907801 95.801418 34.822695 95.815603 34.765957 95.815603V96.666667H55.234043V95.815603C52.822694 95.390071 50.992906 94.765956 49.744681 93.943262C47.361702 92.354611 46.014183 89.886526 45.702128 86.539007C47.177306 88.808509 49.078013 89.943262 51.404255 89.943262C52.9078 89.943262 54.191489 89.418441 55.255319 88.368794S56.851064 86.042552 56.851064 84.539007C56.851064 83.262411 56.539007 82.099292 55.914894 81.049645C55.290779 79.999999 54.482268 79.042552 53.489362 78.177305S51.475179 76.411348 50.425532 75.475177C49.375885 74.539007 48.340426 73.312058 47.319149 71.794326S45.517732 68.567377 44.978723 66.666667C44.496455 68.539007 43.751774 70.226952 42.744681 71.730496S40.702128 74.453901 39.638298 75.390071S37.546098 77.234041 36.553191 78.113475S34.744681 79.957445 34.106383 81.007092S33.148936 83.234041 33.148936 84.539007C33.148936 86.042552 33.680851 87.319148 34.744681 88.368794S37.0922 89.943262 38.595745 89.943262C40.921987 89.943262 42.822694 88.808509 44.297872 86.539007Z" fill="#010101" />
<path d="M45.702128 123.460993C45.843971 121.985814 46.198583 120.680852 46.765957 119.546099C47.333332 118.411346 47.929077 117.546099 48.553191 116.950355S49.96454 115.843972 50.914894 115.41844C51.865247 114.992908 52.595745 114.716312 53.106383 114.588652S54.241136 114.340426 54.978723 114.22695C55.092199 114.198582 55.177305 114.184397 55.234043 114.184397V113.333333H34.765957V114.184397C37.177306 114.609929 39.007094 115.234044 40.255319 116.056738C42.638298 117.645389 43.985817 120.113474 44.297872 123.460993C42.822694 121.191491 40.921987 120.056738 38.595745 120.056738C37.0922 120.056738 35.808511 120.581559 34.744681 121.631206S33.148936 123.957448 33.148936 125.460993C33.148936 126.737589 33.460993 127.900708 34.085106 128.950355C34.709221 130.000001 35.517732 130.957448 36.510638 131.822695S38.524821 133.588652 39.574468 134.524823C40.624115 135.460993 41.659574 136.687942 42.680851 138.205674S44.482268 141.432623 45.021277 143.333333C45.503545 141.460993 46.248226 139.773048 47.255319 138.269504S49.297872 135.546099 50.361702 134.609929S52.453902 132.765959 53.446809 131.886525S55.255319 130.042555 55.893617 128.992908S56.851064 126.765959 56.851064 125.460993C56.851064 123.957448 56.319149 122.680852 55.255319 121.631206S52.9078 120.056738 51.404255 120.056738C49.078013 120.056738 47.177306 121.191491 45.702128 123.460993Z" fill="#010101" />
<path d="M104.297872 39.87234C104.156029 41.347519 103.801417 42.652481 103.234043 43.787234C102.666668 44.921987 102.070923 45.787234 101.446809 46.382979S100.03546 47.489362 99.085106 47.914894C98.134753 48.340426 97.404255 48.617021 96.893617 48.744681S95.758864 48.992908 95.021277 49.106383C94.907801 49.134752 94.822695 49.148936 94.765957 49.148936V50.0H115.234043V49.148936C112.822694 48.723404 110.992906 48.099289 109.744681 47.276596C107.361702 45.687945 106.014183 43.21986 105.702128 39.87234C107.177306 42.141843 109.078013 43.276596 111.404255 43.276596C112.9078 43.276596 114.191489 42.751774 115.255319 41.702128S116.851064 39.375885 116.851064 37.87234C116.851064 36.595745 116.539007 35.432626 115.914894 34.382979C115.290779 33.333332 114.482268 32.375885 113.489362 31.510638S111.475179 29.744681 110.425532 28.808511C109.375885 27.87234 108.340426 26.645391 107.319149 25.12766S105.517732 21.900711 104.978723 20.0C104.496455 21.87234 103.751774 23.560285 102.744681 25.06383S100.702128 27.787234 99.638298 28.723404S97.546098 30.567374 96.553191 31.446809S94.744681 33.290779 94.106383 34.340426S93.148936 36.567374 93.148936 37.87234C93.148936 39.375885 93.680851 40.652481 94.744681 41.702128S97.0922 43.276596 98.595745 43.276596C100.921987 43.276596 102.822694 42.141843 104.297872 39.87234Z" fill="#010101" />
<path d="M105.702128 170.12766C105.843971 168.652481 106.198583 167.347519 106.765957 166.212766C107.333332 165.078013 107.929077 164.212766 108.553191 163.617021S109.96454 162.510638 110.914894 162.085106C111.865247 161.659574 112.595745 161.382979 113.106383 161.255319S114.241136 161.007092 114.978723 160.893617C115.092199 160.865248 115.177305 160.851064 115.234043 160.851064V160.0H94.765957V160.851064C97.177306 161.276596 99.007094 161.900711 100.255319 162.723404C102.638298 164.312055 103.985817 166.78014 104.297872 170.12766C102.822694 167.858157 100.921987 166.723404 98.595745 166.723404C97.0922 166.723404 95.808511 167.248226 94.744681 168.297872S93.148936 170.624115 93.148936 172.12766C93.148936 173.404255 93.460993 174.567374 94.085106 175.617021C94.709221 176.666668 95.517732 177.624115 96.510638 178.489362S98.524821 180.255319 99.574468 181.191489C100.624115 182.12766 101.659574 183.354609 102.680851 184.87234S104.482268 188.099289 105.021277 190.0C105.503545 188.12766 106.248226 186.439715 107.255319 184.93617S109.297872 182.212766 110.361702 181.276596S112.453902 179.432626 113.446809 178.553191S115.255319 176.709221 115.893617 175.659574S116.851064 173.432626 116.851064 172.12766C116.851064 170.624115 116.319149 169.347519 115.255319 168.297872S112.9078 166.723404 111.404255 166.723404C109.078013 166.723404 107.177306 167.858157 105.702128 170.12766Z" fill="#010101" />
<path d="M104.297872 86.539007C104.156029 88.014186 103.801417 89.319148 103.234043 90.453901C102.666668 91.588654 102.070923 92.453901 101.446809 93.049645S100.03546 94.156028 99.085106 94.58156C98.134753 95.007092 97.404255 95.283688 96.893617 95.411348S95.758864 95.659574 95.021277 95.77305C94.907801 95.801418 94.822695 95.815603 94.765957 95.815603V96.666667H115.234043V95.815603C112.822694 95.390071 110.992906 94.765956 109.744681 93.943262C107.361702 92.354611 106.014183 89.886526 105.702128 86.539007C107.177306 88.808509 109.078013 89.943262 111.404255 89.943262C112.9078 89.943262 114.191489 89.418441 115.255319 88.368794S116.851064 86.042552 116.851064 84.539007C116.851064 83.262411 116.539007 82.099292 115.914894 81.049645C115.290779 79.999999 114.482268 79.042552 113.489362 78.177305S111.475179 76.411348 110.425532 75.475177C109.375885 74.539007 108.340426 73.312058 107.319149 71.794326S105.517732 68.567377 104.978723 66.666667C104.496455 68.539007 103.751774 70.226952 102.744681 71.730496S100.702128 74.453901 99.638298 75.390071S97.546098 77.234041 96.553191 78.113475S94.744681 79.957445 94.106383 81.007092S93.148936 83.234041 93.148936 84.539007C93.148936 86.042552 93.680851 87.319148 94.744681 88.368794S97.0922 89.943262 98.595745 89.943262C100.921987 89.943262 102.822694 88.808509 104.297872 86.539007Z" fill="#010101" />
<path d="M105.702128 123.460993C105.843971 121.985814 106.198583 120.680852 106.765957 119.546099C107.333332 118.411346 107.929077 117.546099 108.553191 116.950355S109.96454 115.843972 110.914894 115.41844C111.865247 114.992908 112.595745 114.716312 113.106383 114.588652S114.241136 114.340426 114.978723 114.22695C115.092199 114.198582 115.177305 114.184397 115.234043 114.184397V113.333333H94.765957V114.184397C97.177306 114.609929 99.007094 115.234044 100.255319 116.056738C102.638298 117.645389 103.985817 120.113474 104.297872 123.460993C102.822694 121.191491 100.921987 120.056738 98.595745 120.056738C97.0922 120.056738 95.808511 120.581559 94.744681 121.631206S93.148936 123.957448 93.148936 125.460993C93.148936 126.737589 93.460993 127.900708 94.085106 128.950355C94.709221 130.000001 95.517732 130.957448 96.510638 131.822695S98.524821 133.588652 99.574468 134.524823C100.624115 135.460993 101.659574 136.687942 102.680851 138.205674S104.482268 141.432623 105.021277 143.333333C105.503545 141.460993 106.248226 139.773048 107.255319 138.269504S109.297872 135.546099 110.361702 134.609929S112.453902 132.765959 113.446809 131.886525S115.255319 130.042555 115.893617 128.992908S116.851064 126.765959 116.851064 125.460993C116.851064 123.957448 116.319149 122.680852 115.255319 121.631206S112.9078 120.056738 111.404255 120.056738C109.078013 120.056738 107.177306 121.191491 105.702128 123.460993Z" fill="#010101" />
<path d="M142.180909 33.107879Q143.88 32.382424 144.796364 31.122424T145.712727 28.258788Q145.712727 26.578788 144.586364 25.337879T141.245455 23.142424Q143.078182 22.035152 143.937273 20.889697T144.796364 18.293333Q144.796364 16.804242 143.803636 15.544242T141.169091 13.558788T137.656364 12.833333Q135.747273 12.833333 134.258182 13.520606T131.929091 15.391515T131.089091 18.064242Q131.089091 19.438788 132.043636 20.641515T134.907273 22.798788Q132.387273 23.867879 131.337273 25.051515T130.287273 28.067879Q130.287273 29.633333 131.299091 30.950606T134.124545 33.050606T138.267273 33.833333Q140.481818 33.833333 142.180909 33.107879ZM134.620909 20.297879Q134.067273 19.209697 134.067273 18.026061Q134.067273 16.384242 135.06 15.257879T137.847273 14.131515Q139.565455 14.131515 140.596364 15.124242T141.627273 17.644242Q141.627273 19.05697 140.233636 20.030606T136.205455 22.111515Q135.174545 21.386061 134.620909 20.297879ZM134.869091 31.504242Q133.723636 30.435152 133.723636 28.755152Q133.723636 27.647879 134.43 26.82697T136.262727 25.414242T139.794545 23.753333Q140.978182 24.555152 141.627273 25.662424T142.276364 28.106061Q142.276364 30.091515 141.073636 31.332424T137.923636 32.573333Q136.014545 32.573333 134.869091 31.504242Z" fill="#010101" />
<path d="M137.672344 48.940403C137.606151 49.628813 137.440667 50.237789 137.175895 50.767335C136.911123 51.296881 136.633111 51.700659 136.341861 51.97867S135.683238 52.494977 135.239744 52.693557C134.79625 52.892136 134.455355 53.021213 134.217059 53.080787S133.687513 53.196625 133.343309 53.24958C133.290354 53.262818 133.250638 53.269438 133.224161 53.269438V53.666597H142.775839V53.269438C141.650554 53.070858 140.796662 52.779607 140.214162 52.395687C139.102117 51.654324 138.473281 50.502563 138.327656 48.940403C139.016066 49.999493 139.903054 50.529039 140.988623 50.529039C141.69027 50.529039 142.289319 50.284125 142.785768 49.794295S143.530441 48.708726 143.530441 48.007079C143.530441 47.41134 143.384816 46.868557 143.093566 46.378726C142.802315 45.888896 142.425014 45.442092 141.961663 45.038314S141.02172 44.214209 140.53189 43.777334C140.042059 43.340459 139.55885 42.767888 139.082259 42.059621S138.241606 40.553726 137.990071 39.666737C137.765015 40.540487 137.417501 41.328186 136.947528 42.029834S135.994346 43.300743 135.497897 43.737618S134.521547 44.598129 134.058195 45.008527S133.214232 45.869038 132.916363 46.358868S132.469559 47.398101 132.469559 48.007079C132.469559 48.708726 132.717783 49.304465 133.214232 49.794295S134.30973 50.529039 135.011377 50.529039C136.096946 50.529039 136.983934 49.999493 137.672344 48.940403Z" fill="#010101" />
<path d="M7.819091 176.892121Q6.12 177.617576 5.203636 178.877576T4.287273 181.741212Q4.287273 183.421212 5.413636 184.662121T8.754545 186.857576Q6.921818 187.964848 6.062727 189.110303T5.203636 191.706667Q5.203636 193.195758 6.196364 194.455758T8.830909 196.441212T12.343636 197.166667Q14.252727 197.166667 15.741818 196.479394T18.070909 194.608485T18.910909 191.935758Q18.910909 190.561212 17.956364 189.358485T15.092727 187.201212Q17.612727 186.132121 18.662727 184.948485T19.712727 181.932121Q19.712727 180.366667 18.700909 179.049394T15.875455 176.949394T11.732727 176.166667Q9.518182 176.166667 7.819091 176.892121ZM15.379091 189.702121Q15.932727 190.790303 15.932727 191.973939Q15.932727 193.615758 14.94 194.742121T12.152727 195.868485Q10.434545 195.868485 9.403636 194.875758T8.372727 192.355758Q8.372727 190.94303 9.766364 189.969394T13.794545 187.888485Q14.825455 188.613939 15.379091 189.702121ZM15.130909 178.495758Q16.276364 179.564848 16.276364 181.244848Q16.276364 182.352121 15.57 183.17303T13.737273 184.585758T10.205455 186.246667Q9.021818 185.444848 8.372727 184.337576T7.723636 181.893939Q7.723636 179.908485 8.926364 178.667576T12.076364 177.426667Q13.985455 177.426667 15.130909 178.495758Z" fill="#010101" />
<path d="M12.327656 161.059597C12.393849 160.371187 12.559333 159.762211 12.824105 159.232665C13.088877 158.703119 13.366889 158.299341 13.658139 158.02133S14.316762 157.505023 14.760256 157.306443C15.20375 157.107864 15.544645 156.978787 15.782941 156.919213S16.312487 156.803375 16.656691 156.75042C16.709646 156.737182 16.749362 156.730562 16.775839 156.730562V156.333403H7.224161V156.730562C8.349446 156.929142 9.203338 157.220393 9.785838 157.604313C10.897883 158.345676 11.526719 159.497437 11.672344 161.059597C10.983934 160.000507 10.096946 159.470961 9.011377 159.470961C8.30973 159.470961 7.710681 159.715875 7.214232 160.205705S6.469559 161.291274 6.469559 161.992921C6.469559 162.58866 6.615184 163.131443 6.906434 163.621274C7.197685 164.111104 7.574986 164.557908 8.038337 164.961686S8.97828 165.785791 9.46811 166.222666C9.957941 166.659541 10.44115 167.232112 10.917741 167.940379S11.758394 169.446274 12.009929 170.333263C12.234985 169.459513 12.582499 168.671814 13.052472 167.970166S14.005654 166.699257 14.502103 166.262382S15.478453 165.401871 15.941805 164.991473S16.785768 164.130962 17.083637 163.641132S17.530441 162.601899 17.530441 161.992921C17.530441 161.291274 17.282217 160.695535 16.785768 160.205705S15.69027 159.470961 14.988623 159.470961C13.903054 159.470961 13.016066 160.000507 12.327656 161.059597Z" fill="#010101" />
</svg>
