<svg width="25.000000" height="35.000000" id="card-lightheart11">
<rect x="0" y="0" rx="1.25" ry="1.25" width="25" height="35.0" stroke="#010101" fill="#fffdfa" />
<rect x="5.0" y="3.5" width="15.0" height="28.0" stroke="#010101" fill="#fffdfa" />
<path d="M14.763231 10.351232C14.5961 10.351232 14.396472 10.260703 14.164345 10.079644S13.816156 9.733776 13.816156 9.585215C13.816156 9.464509 13.927577 9.404157 14.150418 9.404157C14.336118 9.404157 14.514857 9.478437 14.68663 9.626998S14.94429 9.933405 14.94429 10.100535S14.883937 10.351232 14.763231 10.351232ZM16.685237 12.635354C16.629526 12.291807 16.32312 11.530434 15.766017 10.351232S14.930362 8.406009 14.930362 8.053182C14.930362 7.77463 14.953575 7.523934 15.0 7.301093C14.266481 7.301093 13.746518 7.454296 13.440111 7.760703C13.170845 7.324306 12.966574 7.106106 12.827298 7.106106C12.576602 7.245382 12.411792 7.375372 12.332869 7.496079S12.154132 7.862838 12.033426 8.23424C11.959146 8.21567 11.884865 8.206385 11.810585 8.206385C11.615599 8.206385 11.385794 8.257453 11.12117 8.359588S10.557103 8.654389 10.222841 8.937583S9.582173 9.573609 9.303621 9.996079S8.790623 10.9919 8.600279 11.716134S8.314763 13.252806 8.314763 14.15346C8.314763 14.580573 8.333333 14.965902 8.370474 15.309449H14.247911C14.238626 14.900907 14.15506 14.531827 13.997214 14.202207S13.669916 13.614927 13.488858 13.429226C13.307799 13.243526 13.133705 13.016041 12.966574 12.746775S12.697308 12.198957 12.660167 11.91112C13.012999 12.050396 13.319405 12.236097 13.579387 12.468223S14.020428 12.911584 14.122563 13.101928S14.324513 13.459403 14.422006 13.603321C14.519499 13.747239 14.61467 13.819198 14.707521 13.819198C14.939648 13.819198 15.05571 13.675281 15.05571 13.387444C15.148561 13.508149 15.255338 13.568502 15.376045 13.568502L15.654596 13.498864C15.942433 13.424584 16.153667 13.329411 16.288301 13.213349C16.422934 13.097286 16.555247 12.90462 16.685237 12.635354ZM15.835655 12.189672C15.965645 12.189672 16.077065 12.231455 16.169916 12.31502S16.309192 12.500721 16.309192 12.621427C16.309192 12.658567 16.295265 12.704992 16.267409 12.760703C16.137419 12.760703 16.028319 12.723562 15.940111 12.649282S15.807799 12.477509 15.807799 12.356803C15.807799 12.338233 15.817084 12.282522 15.835655 12.189672ZM8.997214 14.334519C8.997214 13.647425 9.078459 12.992829 9.240947 12.37073S9.607706 11.228669 9.85376 10.810842S10.366759 10.028576 10.654596 9.717527C10.942433 9.406478 11.211699 9.178994 11.462396 9.035076S11.926648 8.819198 12.103064 8.819198C12.279481 8.837768 12.367688 8.898121 12.367688 9.000257C12.367688 9.055967 12.35376 9.093107 12.325905 9.111677C11.406685 9.57593 10.707981 10.288558 10.229805 11.249561S9.512535 13.23424 9.512535 14.320591C9.512535 14.571288 9.424327 14.696636 9.247911 14.696636C9.08078 14.696636 8.997214 14.57593 8.997214 14.334519Z" fill="#da0a0a" />
<path d="M10.236769 24.648768C10.4039 24.648768 10.603528 24.739297 10.835655 24.920356S11.183844 25.266224 11.183844 25.414785C11.183844 25.535491 11.072423 25.595843 10.849582 25.595843C10.663882 25.595843 10.485143 25.521563 10.31337 25.373002S10.05571 25.066595 10.05571 24.899465S10.116063 24.648768 10.236769 24.648768ZM8.314763 22.364646C8.370474 22.708193 8.67688 23.469566 9.233983 24.648768S10.069638 26.593991 10.069638 26.946818C10.069638 27.22537 10.046425 27.476066 10.0 27.698907C10.733519 27.698907 11.253482 27.545704 11.559889 27.239297C11.829155 27.675694 12.033426 27.893894 12.172702 27.893894C12.423398 27.754618 12.588208 27.624628 12.667131 27.503921S12.845868 27.137162 12.966574 26.76576C13.040854 26.78433 13.115135 26.793615 13.189415 26.793615C13.384401 26.793615 13.614206 26.742547 13.87883 26.640412S14.442897 26.345611 14.777159 26.062417S15.417827 25.426391 15.696379 25.003921S16.209377 24.0081 16.399721 23.283866S16.685237 21.747194 16.685237 20.84654C16.685237 20.419427 16.666667 20.034098 16.629526 19.690551H10.752089C10.761374 20.099093 10.84494 20.468173 11.002786 20.797793S11.330084 21.385073 11.511142 21.570774C11.692201 21.756474 11.866295 21.983959 12.033426 22.253225S12.302692 22.801043 12.339833 23.08888C11.987001 22.949604 11.680595 22.763903 11.420613 22.531777S10.979572 22.088416 10.877437 21.898072S10.675487 21.540597 10.577994 21.396679C10.480501 21.252761 10.38533 21.180802 10.292479 21.180802C10.060352 21.180802 9.94429 21.324719 9.94429 21.612556C9.851439 21.491851 9.744662 21.431498 9.623955 21.431498L9.345404 21.501136C9.057567 21.575416 8.846333 21.670589 8.711699 21.786651C8.577066 21.902714 8.444753 22.09538 8.314763 22.364646ZM9.164345 22.810328C9.034355 22.810328 8.922935 22.768545 8.830084 22.68498S8.690808 22.499279 8.690808 22.378573C8.690808 22.341433 8.704735 22.295008 8.732591 22.239297C8.862581 22.239297 8.971681 22.276438 9.059889 22.350718S9.192201 22.522491 9.192201 22.643197C9.192201 22.661767 9.182916 22.717478 9.164345 22.810328ZM16.002786 20.665481C16.002786 21.352575 15.921541 22.007171 15.759053 22.62927S15.392294 23.771331 15.14624 24.189158S14.633241 24.971424 14.345404 25.282473C14.057567 25.593522 13.788301 25.821006 13.537604 25.964924S13.073352 26.180802 12.896936 26.180802C12.720519 26.162232 12.632312 26.101879 12.632312 25.999743C12.632312 25.944033 12.64624 25.906893 12.674095 25.888323C13.593315 25.42407 14.292019 24.711442 14.770195 23.750439S15.487465 21.76576 15.487465 20.679409C15.487465 20.428712 15.575673 20.303364 15.752089 20.303364C15.91922 20.303364 16.002786 20.42407 16.002786 20.665481Z" fill="#da0a0a" />
<path d="M23.576271 5.638889Q23.635593 5.638889 23.65678 5.566855Q23.661017 5.554143 23.661017 5.528719Q23.661017 5.477872 23.614407 5.460923Q23.402542 5.37194 23.300847 5.206685T23.169492 4.797787T23.139831 4.138889V2.647363Q23.144068 2.541431 23.158898 2.475753T23.233051 2.365584T23.415254 2.321092H23.440678Q23.483051 2.321092 23.502119 2.306262T23.525424 2.232109Q23.525424 2.193974 23.504237 2.166431T23.449153 2.138889Q23.177966 2.151601 22.944915 2.151601Q22.686441 2.151601 22.415254 2.138889Q22.377119 2.138889 22.358051 2.166431T22.338983 2.232109Q22.34322 2.295669 22.366525 2.30838T22.449153 2.321092Q22.572034 2.321092 22.631356 2.365584T22.705508 2.475753T22.724576 2.647363V4.282957Q22.724576 4.829567 22.917373 5.179143T23.559322 5.638889H23.576271Z" fill="#da0a0a" />
<path d="M22.99675 7.079085C22.953421 6.918765 22.883551 6.800691 22.787142 6.724864S22.584034 6.611123 22.467043 6.611123C22.334887 6.611123 22.221688 6.656619 22.127446 6.747612S21.986083 6.948012 21.986083 7.075835C21.986083 7.192825 22.014789 7.311982 22.072201 7.433306S22.20219 7.67162 22.289933 7.784277S22.467043 8.010134 22.558036 8.123875S22.73623 8.367063 22.81964 8.512218S22.962086 8.801444 22.99675 8.944433C23.035747 8.794945 23.098034 8.644915 23.18361 8.494344S23.357471 8.210534 23.448463 8.094627C23.539456 7.97872 23.628282 7.864979 23.714942 7.753405S23.873096 7.529715 23.929424 7.417057S24.013917 7.197158 24.013917 7.095333C24.013917 6.958844 23.967879 6.844021 23.875804 6.750861C23.783728 6.657702 23.670529 6.611123 23.536206 6.611123C23.278394 6.611123 23.098574 6.76711 22.99675 7.079085Z" fill="#da0a0a" />
<path d="M1.423729 29.361111Q1.364407 29.361111 1.34322 29.433145Q1.338983 29.445857 1.338983 29.471281Q1.338983 29.522128 1.385593 29.539077Q1.597458 29.62806 1.699153 29.793315T1.830508 30.202213T1.860169 30.861111V32.352637Q1.855932 32.458569 1.841102 32.524247T1.766949 32.634416T1.584746 32.678908H1.559322Q1.516949 32.678908 1.497881 32.693738T1.474576 32.767891Q1.474576 32.806026 1.495763 32.833569T1.550847 32.861111Q1.822034 32.848399 2.055085 32.848399Q2.313559 32.848399 2.584746 32.861111Q2.622881 32.861111 2.641949 32.833569T2.661017 32.767891Q2.65678 32.704331 2.633475 32.69162T2.550847 32.678908Q2.427966 32.678908 2.368644 32.634416T2.294492 32.524247T2.275424 32.352637V30.717043Q2.275424 30.170433 2.082627 29.820857T1.440678 29.361111H1.423729Z" fill="#da0a0a" />
<path d="M2.00325 27.920915C2.046579 28.081235 2.116449 28.199309 2.212858 28.275136S2.415966 28.388877 2.532957 28.388877C2.665113 28.388877 2.778312 28.343381 2.872554 28.252388S3.013917 28.051988 3.013917 27.924165C3.013917 27.807175 2.985211 27.688018 2.927799 27.566694S2.79781 27.32838 2.710067 27.215723S2.532957 26.989866 2.441964 26.876125S2.26377 26.632937 2.18036 26.487782S2.037914 26.198556 2.00325 26.055567C1.964253 26.205055 1.901966 26.355085 1.81639 26.505656S1.642529 26.789466 1.551537 26.905373C1.460544 27.02128 1.371718 27.135021 1.285058 27.246595S1.126904 27.470285 1.070576 27.582943S0.986083 27.802842 0.986083 27.904667C0.986083 28.041156 1.032121 28.155979 1.124196 28.249139C1.216272 28.342298 1.329471 28.388877 1.463794 28.388877C1.721606 28.388877 1.901426 28.23289 2.00325 27.920915Z" fill="#da0a0a" />
</svg>
