<svg width="25.000000" height="35.000000" id="card-lightheart8">
<rect x="0" y="0" rx="1.25" ry="1.25" width="25" height="35.0" stroke="#010101" fill="#fffdfa" />
<path d="M7.493036 4.336119C7.400186 3.992572 7.250464 3.739554 7.043872 3.577066S6.608635 3.333333 6.357939 3.333333C6.074744 3.333333 5.832173 3.430826 5.630223 3.625812S5.327298 4.055246 5.327298 4.329155C5.327298 4.579851 5.388811 4.835191 5.511838 5.095172S5.79039 5.605849 5.978412 5.847261S6.357939 6.331244 6.552925 6.574977S6.934772 7.0961 7.11351 7.407149S7.418756 8.026927 7.493036 8.333333C7.576602 8.012999 7.710075 7.691504 7.893454 7.368849S8.266017 6.760678 8.461003 6.512303C8.655989 6.263927 8.846332 6.020195 9.032033 5.781105S9.370938 5.301764 9.491643 5.060353S9.672702 4.589136 9.672702 4.370938C9.672702 4.078459 9.574048 3.832405 9.376741 3.632776C9.179434 3.433147 8.936861 3.333333 8.649025 3.333333C8.096565 3.333333 7.711233 3.667595 7.493036 4.336119Z" fill="#da0a0a" />
<path d="M7.506964 30.663881C7.599814 31.007428 7.749536 31.260446 7.956128 31.422934S8.391365 31.666667 8.642061 31.666667C8.925256 31.666667 9.167827 31.569174 9.369777 31.374188S9.672702 30.944754 9.672702 30.670845C9.672702 30.420149 9.611189 30.164809 9.488162 29.904828S9.20961 29.394151 9.021588 29.152739S8.642061 28.668756 8.447075 28.425023S8.065228 27.9039 7.88649 27.592851S7.581244 26.973073 7.506964 26.666667C7.423398 26.987001 7.289925 27.308496 7.106546 27.631151S6.733983 28.239322 6.538997 28.487697C6.344011 28.736073 6.153668 28.979805 5.967967 29.218895S5.629062 29.698236 5.508357 29.939647S5.327298 30.410864 5.327298 30.629062C5.327298 30.921541 5.425952 31.167595 5.623259 31.367224C5.820566 31.566853 6.063139 31.666667 6.350975 31.666667C6.903435 31.666667 7.288767 31.332405 7.506964 30.663881Z" fill="#da0a0a" />
<path d="M7.493036 12.113897C7.400186 11.77035 7.250464 11.517332 7.043872 11.354844S6.608635 11.111111 6.357939 11.111111C6.074744 11.111111 5.832173 11.208604 5.630223 11.40359S5.327298 11.833024 5.327298 12.106933C5.327298 12.357629 5.388811 12.612968 5.511838 12.87295S5.79039 13.383627 5.978412 13.625039S6.357939 14.109022 6.552925 14.352755S6.934772 14.873878 7.11351 15.184927S7.418756 15.804704 7.493036 16.111111C7.576602 15.790777 7.710075 15.469282 7.893454 15.146626S8.266017 14.538456 8.461003 14.29008C8.655989 14.041705 8.846332 13.797973 9.032033 13.558883S9.370938 13.079542 9.491643 12.838131S9.672702 12.366914 9.672702 12.148716C9.672702 11.856236 9.574048 11.610183 9.376741 11.410554C9.179434 11.210925 8.936861 11.111111 8.649025 11.111111C8.096565 11.111111 7.711233 11.445373 7.493036 12.113897Z" fill="#da0a0a" />
<path d="M7.506964 22.886103C7.599814 23.22965 7.749536 23.482668 7.956128 23.645156S8.391365 23.888889 8.642061 23.888889C8.925256 23.888889 9.167827 23.791396 9.369777 23.59641S9.672702 23.166976 9.672702 22.893067C9.672702 22.642371 9.611189 22.387032 9.488162 22.12705S9.20961 21.616373 9.021588 21.374961S8.642061 20.890978 8.447075 20.647245S8.065228 20.126122 7.88649 19.815073S7.581244 19.195296 7.506964 18.888889C7.423398 19.209223 7.289925 19.530718 7.106546 19.853374S6.733983 20.461544 6.538997 20.70992C6.344011 20.958295 6.153668 21.202027 5.967967 21.441117S5.629062 21.920458 5.508357 22.161869S5.327298 22.633086 5.327298 22.851284C5.327298 23.143764 5.425952 23.389817 5.623259 23.589446C5.820566 23.789075 6.063139 23.888889 6.350975 23.888889C6.903435 23.888889 7.288767 23.554627 7.506964 22.886103Z" fill="#da0a0a" />
<path d="M17.493036 4.336119C17.400186 3.992572 17.250464 3.739554 17.043872 3.577066S16.608635 3.333333 16.357939 3.333333C16.074744 3.333333 15.832173 3.430826 15.630223 3.625812S15.327298 4.055246 15.327298 4.329155C15.327298 4.579851 15.388811 4.835191 15.511838 5.095172S15.79039 5.605849 15.978412 5.847261S16.357939 6.331244 16.552925 6.574977S16.934772 7.0961 17.11351 7.407149S17.418756 8.026927 17.493036 8.333333C17.576602 8.012999 17.710075 7.691504 17.893454 7.368849S18.266017 6.760678 18.461003 6.512303C18.655989 6.263927 18.846332 6.020195 19.032033 5.781105S19.370938 5.301764 19.491643 5.060353S19.672702 4.589136 19.672702 4.370938C19.672702 4.078459 19.574048 3.832405 19.376741 3.632776C19.179434 3.433147 18.936861 3.333333 18.649025 3.333333C18.096565 3.333333 17.711233 3.667595 17.493036 4.336119Z" fill="#da0a0a" />
<path d="M17.506964 30.663881C17.599814 31.007428 17.749536 31.260446 17.956128 31.422934S18.391365 31.666667 18.642061 31.666667C18.925256 31.666667 19.167827 31.569174 19.369777 31.374188S19.672702 30.944754 19.672702 30.670845C19.672702 30.420149 19.611189 30.164809 19.488162 29.904828S19.20961 29.394151 19.021588 29.152739S18.642061 28.668756 18.447075 28.425023S18.065228 27.9039 17.88649 27.592851S17.581244 26.973073 17.506964 26.666667C17.423398 26.987001 17.289925 27.308496 17.106546 27.631151S16.733983 28.239322 16.538997 28.487697C16.344011 28.736073 16.153668 28.979805 15.967967 29.218895S15.629062 29.698236 15.508357 29.939647S15.327298 30.410864 15.327298 30.629062C15.327298 30.921541 15.425952 31.167595 15.623259 31.367224C15.820566 31.566853 16.063139 31.666667 16.350975 31.666667C16.903435 31.666667 17.288767 31.332405 17.506964 30.663881Z" fill="#da0a0a" />
<path d="M17.493036 12.113897C17.400186 11.77035 17.250464 11.517332 17.043872 11.354844S16.608635 11.111111 16.357939 11.111111C16.074744 11.111111 15.832173 11.208604 15.630223 11.40359S15.327298 11.833024 15.327298 12.106933C15.327298 12.357629 15.388811 12.612968 15.511838 12.87295S15.79039 13.383627 15.978412 13.625039S16.357939 14.109022 16.552925 14.352755S16.934772 14.873878 17.11351 15.184927S17.418756 15.804704 17.493036 16.111111C17.576602 15.790777 17.710075 15.469282 17.893454 15.146626S18.266017 14.538456 18.461003 14.29008C18.655989 14.041705 18.846332 13.797973 19.032033 13.558883S19.370938 13.079542 19.491643 12.838131S19.672702 12.366914 19.672702 12.148716C19.672702 11.856236 19.574048 11.610183 19.376741 11.410554C19.179434 11.210925 18.936861 11.111111 18.649025 11.111111C18.096565 11.111111 17.711233 11.445373 17.493036 12.113897Z" fill="#da0a0a" />
<path d="M17.506964 22.886103C17.599814 23.22965 17.749536 23.482668 17.956128 23.645156S18.391365 23.888889 18.642061 23.888889C18.925256 23.888889 19.167827 23.791396 19.369777 23.59641S19.672702 23.166976 19.672702 22.893067C19.672702 22.642371 19.611189 22.387032 19.488162 22.12705S19.20961 21.616373 19.021588 21.374961S18.642061 20.890978 18.447075 20.647245S18.065228 20.126122 17.88649 19.815073S17.581244 19.195296 17.506964 18.888889C17.423398 19.209223 17.289925 19.530718 17.106546 19.853374S16.733983 20.461544 16.538997 20.70992C16.344011 20.958295 16.153668 21.202027 15.967967 21.441117S15.629062 21.920458 15.508357 22.161869S15.327298 22.633086 15.327298 22.851284C15.327298 23.143764 15.425952 23.389817 15.623259 23.589446C15.820566 23.789075 16.063139 23.888889 16.350975 23.888889C16.903435 23.888889 17.288767 23.554627 17.506964 22.886103Z" fill="#da0a0a" />
<path d="M23.696818 5.51798Q23.98 5.397071 24.132727 5.187071T24.285455 4.709798Q24.285455 4.429798 24.097727 4.22298T23.540909 3.857071Q23.846364 3.672525 23.989545 3.481616T24.132727 3.048889Q24.132727 2.800707 23.967273 2.590707T23.528182 2.259798T22.942727 2.138889Q22.624545 2.138889 22.376364 2.253434T21.988182 2.565253T21.848182 3.010707Q21.848182 3.239798 22.007273 3.440253T22.484545 3.799798Q22.064545 3.97798 21.889545 4.175253T21.714545 4.67798Q21.714545 4.938889 21.883182 5.158434T22.354091 5.508434T23.044545 5.638889Q23.413636 5.638889 23.696818 5.51798ZM22.436818 3.38298Q22.344545 3.201616 22.344545 3.004343Q22.344545 2.730707 22.51 2.54298T22.974545 2.355253Q23.260909 2.355253 23.432727 2.520707T23.604545 2.940707Q23.604545 3.176162 23.372273 3.338434T22.700909 3.685253Q22.529091 3.564343 22.436818 3.38298ZM22.478182 5.250707Q22.287273 5.072525 22.287273 4.792525Q22.287273 4.60798 22.405 4.471162T22.710455 4.235707T23.299091 3.958889Q23.496364 4.092525 23.604545 4.277071T23.712727 4.684343Q23.712727 5.015253 23.512273 5.222071T22.987273 5.428889Q22.669091 5.428889 22.478182 5.250707Z" fill="#da0a0a" />
<path d="M22.99675 7.079085C22.953421 6.918765 22.883551 6.800691 22.787142 6.724864S22.584034 6.611123 22.467043 6.611123C22.334887 6.611123 22.221688 6.656619 22.127446 6.747612S21.986083 6.948012 21.986083 7.075835C21.986083 7.192825 22.014789 7.311982 22.072201 7.433306S22.20219 7.67162 22.289933 7.784277S22.467043 8.010134 22.558036 8.123875S22.73623 8.367063 22.81964 8.512218S22.962086 8.801444 22.99675 8.944433C23.035747 8.794945 23.098034 8.644915 23.18361 8.494344S23.357471 8.210534 23.448463 8.094627C23.539456 7.97872 23.628282 7.864979 23.714942 7.753405S23.873096 7.529715 23.929424 7.417057S24.013917 7.197158 24.013917 7.095333C24.013917 6.958844 23.967879 6.844021 23.875804 6.750861C23.783728 6.657702 23.670529 6.611123 23.536206 6.611123C23.278394 6.611123 23.098574 6.76711 22.99675 7.079085Z" fill="#da0a0a" />
<path d="M1.303182 29.48202Q1.02 29.602929 0.867273 29.812929T0.714545 30.290202Q0.714545 30.570202 0.902273 30.77702T1.459091 31.142929Q1.153636 31.327475 1.010455 31.518384T0.867273 31.951111Q0.867273 32.199293 1.032727 32.409293T1.471818 32.740202T2.057273 32.861111Q2.375455 32.861111 2.623636 32.746566T3.011818 32.434747T3.151818 31.989293Q3.151818 31.760202 2.992727 31.559747T2.515455 31.200202Q2.935455 31.02202 3.110455 30.824747T3.285455 30.32202Q3.285455 30.061111 3.116818 29.841566T2.645909 29.491566T1.955455 29.361111Q1.586364 29.361111 1.303182 29.48202ZM2.563182 31.61702Q2.655455 31.798384 2.655455 31.995657Q2.655455 32.269293 2.49 32.45702T2.025455 32.644747Q1.739091 32.644747 1.567273 32.479293T1.395455 32.059293Q1.395455 31.823838 1.627727 31.661566T2.299091 31.314747Q2.470909 31.435657 2.563182 31.61702ZM2.521818 29.749293Q2.712727 29.927475 2.712727 30.207475Q2.712727 30.39202 2.595 30.528838T2.289545 30.764293T1.700909 31.041111Q1.503636 30.907475 1.395455 30.722929T1.287273 30.315657Q1.287273 29.984747 1.487727 29.777929T2.012727 29.571111Q2.330909 29.571111 2.521818 29.749293Z" fill="#da0a0a" />
<path d="M2.00325 27.920915C2.046579 28.081235 2.116449 28.199309 2.212858 28.275136S2.415966 28.388877 2.532957 28.388877C2.665113 28.388877 2.778312 28.343381 2.872554 28.252388S3.013917 28.051988 3.013917 27.924165C3.013917 27.807175 2.985211 27.688018 2.927799 27.566694S2.79781 27.32838 2.710067 27.215723S2.532957 26.989866 2.441964 26.876125S2.26377 26.632937 2.18036 26.487782S2.037914 26.198556 2.00325 26.055567C1.964253 26.205055 1.901966 26.355085 1.81639 26.505656S1.642529 26.789466 1.551537 26.905373C1.460544 27.02128 1.371718 27.135021 1.285058 27.246595S1.126904 27.470285 1.070576 27.582943S0.986083 27.802842 0.986083 27.904667C0.986083 28.041156 1.032121 28.155979 1.124196 28.249139C1.216272 28.342298 1.329471 28.388877 1.463794 28.388877C1.721606 28.388877 1.901426 28.23289 2.00325 27.920915Z" fill="#da0a0a" />
</svg>
