<svg width="25.000000" height="35.000000" id="card-lightheart3">
<rect x="0" y="0" rx="1.25" ry="1.25" width="25" height="35.0" stroke="#010101" fill="#fffdfa" />
<path d="M12.493036 4.336119C12.400186 3.992572 12.250464 3.739554 12.043872 3.577066S11.608635 3.333333 11.357939 3.333333C11.074744 3.333333 10.832173 3.430826 10.630223 3.625812S10.327298 4.055246 10.327298 4.329155C10.327298 4.579851 10.388811 4.835191 10.511838 5.095172S10.79039 5.605849 10.978412 5.847261S11.357939 6.331244 11.552925 6.574977S11.934772 7.0961 12.11351 7.407149S12.418756 8.026927 12.493036 8.333333C12.576602 8.012999 12.710075 7.691504 12.893454 7.368849S13.266017 6.760678 13.461003 6.512303C13.655989 6.263927 13.846332 6.020195 14.032033 5.781105S14.370938 5.301764 14.491643 5.060353S14.672702 4.589136 14.672702 4.370938C14.672702 4.078459 14.574048 3.832405 14.376741 3.632776C14.179434 3.433147 13.936861 3.333333 13.649025 3.333333C13.096565 3.333333 12.711233 3.667595 12.493036 4.336119Z" fill="#da0a0a" />
<path d="M12.506964 30.663881C12.599814 31.007428 12.749536 31.260446 12.956128 31.422934S13.391365 31.666667 13.642061 31.666667C13.925256 31.666667 14.167827 31.569174 14.369777 31.374188S14.672702 30.944754 14.672702 30.670845C14.672702 30.420149 14.611189 30.164809 14.488162 29.904828S14.20961 29.394151 14.021588 29.152739S13.642061 28.668756 13.447075 28.425023S13.065228 27.9039 12.88649 27.592851S12.581244 26.973073 12.506964 26.666667C12.423398 26.987001 12.289925 27.308496 12.106546 27.631151S11.733983 28.239322 11.538997 28.487697C11.344011 28.736073 11.153668 28.979805 10.967967 29.218895S10.629062 29.698236 10.508357 29.939647S10.327298 30.410864 10.327298 30.629062C10.327298 30.921541 10.425952 31.167595 10.623259 31.367224C10.820566 31.566853 11.063139 31.666667 11.350975 31.666667C11.903435 31.666667 12.288767 31.332405 12.506964 30.663881Z" fill="#da0a0a" />
<path d="M12.493036 16.002786C12.400186 15.659239 12.250464 15.406221 12.043872 15.243733S11.608635 15.0 11.357939 15.0C11.074744 15.0 10.832173 15.097493 10.630223 15.292479S10.327298 15.721913 10.327298 15.995822C10.327298 16.246518 10.388811 16.501857 10.511838 16.761838S10.79039 17.272516 10.978412 17.513928S11.357939 17.997911 11.552925 18.241643S11.934772 18.762767 12.11351 19.073816S12.418756 19.693593 12.493036 20.0C12.576602 19.679666 12.710075 19.358171 12.893454 19.035515S13.266017 18.427345 13.461003 18.178969C13.655989 17.930594 13.846332 17.686861 14.032033 17.447772S14.370938 16.968431 14.491643 16.727019S14.672702 16.255803 14.672702 16.037604C14.672702 15.745125 14.574048 15.499072 14.376741 15.299443C14.179434 15.099814 13.936861 15.0 13.649025 15.0C13.096565 15.0 12.711233 15.334262 12.493036 16.002786Z" fill="#da0a0a" />
<path d="M23.887681 5.458182Q24.20788 5.277476 24.20788 4.928744Q24.20788 4.744867 24.09375 4.611715T23.776721 4.478563Q23.65625 4.478563 23.570652 4.541969T23.485054 4.649758Q23.485054 4.656099 23.54212 4.697313T23.646739 4.808273T23.694293 4.985809Q23.694293 5.182367 23.526268 5.293327T23.085598 5.404287Q22.407156 5.404287 22.407156 4.649758Q22.407156 4.33907 22.572011 4.152023T23.066576 3.945954H23.301178Q23.345562 3.945954 23.370924 3.907911T23.396286 3.819143Q23.396286 3.762077 23.370924 3.720864T23.301178 3.673309H23.066576Q22.819293 3.647947 22.67029 3.451389T22.521286 2.975845Q22.521286 2.671498 22.692482 2.509813T23.091938 2.348128Q23.307518 2.348128 23.462862 2.471769T23.618207 2.81099Q23.618207 2.950483 23.564312 2.998037T23.459692 3.055103T23.408967 3.070954Q23.408967 3.115338 23.494565 3.178744T23.700634 3.24215Q23.903533 3.24215 24.017663 3.115338T24.131793 2.791969Q24.131793 2.48128 23.840127 2.310085T23.085598 2.138889Q22.591033 2.138889 22.267663 2.354469T21.944293 2.975845Q21.944293 3.24215 22.131341 3.470411T22.66712 3.79378V3.819143Q22.312047 3.857186 22.052083 4.044233T21.79212 4.637077Q21.79212 5.150664 22.166214 5.394777T23.10462 5.638889Q23.567482 5.638889 23.887681 5.458182Z" fill="#da0a0a" />
<path d="M22.99675 7.079085C22.953421 6.918765 22.883551 6.800691 22.787142 6.724864S22.584034 6.611123 22.467043 6.611123C22.334887 6.611123 22.221688 6.656619 22.127446 6.747612S21.986083 6.948012 21.986083 7.075835C21.986083 7.192825 22.014789 7.311982 22.072201 7.433306S22.20219 7.67162 22.289933 7.784277S22.467043 8.010134 22.558036 8.123875S22.73623 8.367063 22.81964 8.512218S22.962086 8.801444 22.99675 8.944433C23.035747 8.794945 23.098034 8.644915 23.18361 8.494344S23.357471 8.210534 23.448463 8.094627C23.539456 7.97872 23.628282 7.864979 23.714942 7.753405S23.873096 7.529715 23.929424 7.417057S24.013917 7.197158 24.013917 7.095333C24.013917 6.958844 23.967879 6.844021 23.875804 6.750861C23.783728 6.657702 23.670529 6.611123 23.536206 6.611123C23.278394 6.611123 23.098574 6.76711 22.99675 7.079085Z" fill="#da0a0a" />
<path d="M1.112319 29.541818Q0.79212 29.722524 0.79212 30.071256Q0.79212 30.255133 0.90625 30.388285T1.223279 30.521437Q1.34375 30.521437 1.429348 30.458031T1.514946 30.350242Q1.514946 30.343901 1.45788 30.302687T1.353261 30.191727T1.305707 30.014191Q1.305707 29.817633 1.473732 29.706673T1.914402 29.595713Q2.592844 29.595713 2.592844 30.350242Q2.592844 30.66093 2.427989 30.847977T1.933424 31.054046H1.698822Q1.654438 31.054046 1.629076 31.092089T1.603714 31.180857Q1.603714 31.237923 1.629076 31.279136T1.698822 31.326691H1.933424Q2.180707 31.352053 2.32971 31.548611T2.478714 32.024155Q2.478714 32.328502 2.307518 32.490187T1.908062 32.651872Q1.692482 32.651872 1.537138 32.528231T1.381793 32.18901Q1.381793 32.049517 1.435688 32.001963T1.540308 31.944897T1.591033 31.929046Q1.591033 31.884662 1.505435 31.821256T1.299366 31.75785Q1.096467 31.75785 0.982337 31.884662T0.868207 32.208031Q0.868207 32.51872 1.159873 32.689915T1.914402 32.861111Q2.408967 32.861111 2.732337 32.645531T3.055707 32.024155Q3.055707 31.75785 2.868659 31.529589T2.33288 31.20622V31.180857Q2.687953 31.142814 2.947917 30.955767T3.20788 30.362923Q3.20788 29.849336 2.833786 29.605223T1.89538 29.361111Q1.432518 29.361111 1.112319 29.541818Z" fill="#da0a0a" />
<path d="M2.00325 27.920915C2.046579 28.081235 2.116449 28.199309 2.212858 28.275136S2.415966 28.388877 2.532957 28.388877C2.665113 28.388877 2.778312 28.343381 2.872554 28.252388S3.013917 28.051988 3.013917 27.924165C3.013917 27.807175 2.985211 27.688018 2.927799 27.566694S2.79781 27.32838 2.710067 27.215723S2.532957 26.989866 2.441964 26.876125S2.26377 26.632937 2.18036 26.487782S2.037914 26.198556 2.00325 26.055567C1.964253 26.205055 1.901966 26.355085 1.81639 26.505656S1.642529 26.789466 1.551537 26.905373C1.460544 27.02128 1.371718 27.135021 1.285058 27.246595S1.126904 27.470285 1.070576 27.582943S0.986083 27.802842 0.986083 27.904667C0.986083 28.041156 1.032121 28.155979 1.124196 28.249139C1.216272 28.342298 1.329471 28.388877 1.463794 28.388877C1.721606 28.388877 1.901426 28.23289 2.00325 27.920915Z" fill="#da0a0a" />
</svg>
