<svg width="500.000000" height="700.000000" id="card-realheart2">
<radialGradient id="card-realwhitegradient" cx="250.0" cy="350.0" r="500" gradientTransform="matrix(1 0 0 1 0 -.25)" gradientUnits="userSpaceOnUse">
<stop stop-color="#FDFAF4" offset=".15"/>
<stop stop-color="#FDF9F2" offset=".35"/>
<stop stop-color="#FCF7F1" offset=".5"/>
<stop stop-color="#FDFDF8" offset=".75"/>
<stop stop-color="#FFFDFA" offset="1"/>
</radialGradient>
<rect x="0" y="0" rx="25.0" ry="25.0" width="500" height="700.0" stroke="#010101" fill="url(#card-realwhitegradient)" />
<path d="M249.860724 86.722377C248.003719 79.851444 245.00929 74.791082 240.877437 71.541318S232.172702 66.666667 227.158774 66.666667C221.494889 66.666667 216.643454 68.616527 212.604457 72.516249S206.545961 81.104926 206.545961 86.583101C206.545961 91.597029 207.77623 96.703812 210.236769 101.903435S215.807799 112.116987 219.568245 116.945218S227.158774 126.624884 231.058496 131.499536S238.695446 141.922001 242.270195 148.14299S248.375111 160.538533 249.860724 166.666667C251.532033 160.259981 254.20149 153.830079 257.869081 147.376973S265.320334 135.213561 269.220056 130.246054C273.119777 125.278547 276.926643 120.403895 280.640669 115.622098S287.41876 106.035288 289.832869 101.207057S293.454039 91.782725 293.454039 87.418756C293.454039 81.569174 291.480961 76.648101 287.534819 72.655525C283.588677 68.662948 278.737228 66.666667 272.980501 66.666667C261.931295 66.666667 254.224652 73.351903 249.860724 86.722377Z" fill="#da0a0a" />
<path d="M250.139276 613.277623C251.996281 620.148556 254.99071 625.208918 259.122563 628.458682S267.827298 633.333333 272.841226 633.333333C278.505111 633.333333 283.356546 631.383473 287.395543 627.483751S293.454039 618.895074 293.454039 613.416899C293.454039 608.402971 292.22377 603.296188 289.763231 598.096565S284.192201 587.883013 280.431755 583.054782S272.841226 573.375116 268.941504 568.500464S261.304554 558.077999 257.729805 551.85701S251.624889 539.461467 250.139276 533.333333C248.467967 539.740019 245.79851 546.169921 242.130919 552.623027S234.679666 564.786439 230.779944 569.753946C226.880223 574.721453 223.073357 579.596105 219.359331 584.377902S212.58124 593.964712 210.167131 598.792943S206.545961 608.217275 206.545961 612.581244C206.545961 618.430826 208.519039 623.351899 212.465181 627.344475C216.411323 631.337052 221.262772 633.333333 227.019499 633.333333C238.068705 633.333333 245.775348 626.648097 250.139276 613.277623Z" fill="#da0a0a" />
<path d="M486.745283 108.023061Q486.613208 105.249476 485.226415 103.532495T480.669811 99.702306Q470.235849 92.702306 464.490566 88.145702T454.122642 76.589099T449.5 60.872117Q449.5 54.532495 452.867925 51.032495T462.311321 47.532495Q467.462264 47.532495 470.830189 50.107966T474.198113 57.174004Q474.198113 59.419287 473.141509 60.938155T470.962264 63.381551T469.839623 64.438155Q469.839623 65.362683 471.622642 66.683438T475.915094 68.004193Q480.009434 68.004193 482.45283 65.428721T484.896226 58.890985Q484.896226 53.607966 481.330189 49.909853T472.283019 44.494759T461.122642 42.777778Q451.216981 42.777778 444.018868 47.66457T436.820755 62.589099Q436.820755 69.853249 440.783019 75.796646T450.226415 85.900419T464.556604 95.740042Q471.556604 100.098532 474.990566 102.740042V103.400419H439.59434Q436.292453 103.400419 434.773585 104.126834T433.254717 108.023061Q433.254717 112.777778 437.877358 112.777778H482.122642Q486.745283 112.777778 486.745283 108.023061Z" fill="#da0a0a" />
<path d="M459.935005 141.581693C459.068411 138.37529 457.671025 136.013811 455.742847 134.49727S451.680677 132.222456 449.340868 132.222456C446.697748 132.222456 444.433768 133.132381 442.548921 134.952233S439.721651 138.960242 439.721651 141.516699C439.721651 143.856508 440.295771 146.23965 441.444011 148.666117S444.043799 153.432393 445.798656 155.685545S449.340868 160.202677 451.16072 162.477492S454.724594 167.34126 456.392794 170.244359S459.241726 176.028888 459.935005 178.888656C460.714942 175.898899 461.960676 172.898308 463.672201 169.886889S467.149418 164.210686 468.96927 161.89254C470.789121 159.574393 472.565641 157.299578 474.298836 155.068095S477.461914 150.594295 478.588486 148.341143S480.278349 143.943166 480.278349 141.906667C480.278349 139.176889 479.357588 136.880412 477.516074 135.017228C475.674559 133.154044 473.410572 132.222456 470.724127 132.222456C465.567882 132.222456 461.971484 135.342202 459.935005 141.581693Z" fill="#da0a0a" />
<path d="M13.254717 591.976939Q13.386792 594.750524 14.773585 596.467505T19.330189 600.297694Q29.764151 607.297694 35.509434 611.854298T45.877358 623.410901T50.5 639.127883Q50.5 645.467505 47.132075 648.967505T37.688679 652.467505Q32.537736 652.467505 29.169811 649.892034T25.801887 642.825996Q25.801887 640.580713 26.858491 639.061845T29.037736 636.618449T30.160377 635.561845Q30.160377 634.637317 28.377358 633.316562T24.084906 631.995807Q19.990566 631.995807 17.54717 634.571279T15.103774 641.109015Q15.103774 646.392034 18.669811 650.090147T27.716981 655.505241T38.877358 657.222222Q48.783019 657.222222 55.981132 652.33543T63.179245 637.410901Q63.179245 630.146751 59.216981 624.203354T49.773585 614.099581T35.443396 604.259958Q28.443396 599.901468 25.009434 597.259958V596.599581H60.40566Q63.707547 596.599581 65.226415 595.873166T66.745283 591.976939Q66.745283 587.222222 62.122642 587.222222H17.877358Q13.254717 587.222222 13.254717 591.976939Z" fill="#da0a0a" />
<path d="M40.064995 558.418307C40.931589 561.62471 42.328975 563.986189 44.257153 565.50273S48.319323 567.777544 50.659132 567.777544C53.302252 567.777544 55.566232 566.867619 57.451079 565.047767S60.278349 561.039758 60.278349 558.483301C60.278349 556.143492 59.704229 553.76035 58.555989 551.333883S55.956201 546.567607 54.201344 544.314455S50.659132 539.797323 48.83928 537.522508S45.275406 532.65874 43.607206 529.755641S40.758274 523.971112 40.064995 521.111344C39.285058 524.101101 38.039324 527.101692 36.327799 530.113111S32.850582 535.789314 31.03073 538.10746C29.210879 540.425607 27.434359 542.700422 25.701164 544.931905S22.538086 549.405705 21.411514 551.658857S19.721651 556.056834 19.721651 558.093333C19.721651 560.823111 20.642412 563.119588 22.483926 564.982772C24.325441 566.845956 26.589428 567.777544 29.275873 567.777544C34.432118 567.777544 38.028516 564.657798 40.064995 558.418307Z" fill="#da0a0a" />
</svg>
