<svg width="25.000000" height="35.000000" id="card-lightclub11">
<rect x="0" y="0" rx="1.25" ry="1.25" width="25" height="35.0" stroke="#010101" fill="#fffdfa" />
<rect x="5.0" y="3.5" width="15.0" height="28.0" stroke="#010101" fill="#fffdfa" />
<path d="M15.708215 12.050554C15.576015 12.050554 15.509915 12.140261 15.509915 12.319676C15.509915 12.555748 15.627951 12.673783 15.864023 12.673783C15.958451 12.673783 16.005666 12.598241 16.005666 12.447155C16.005666 12.182754 15.906516 12.050554 15.708215 12.050554ZM14.688385 10.322509C14.820585 10.322509 14.886686 10.242244 14.886686 10.081715C14.886686 9.9023 14.796978 9.737051 14.617564 9.585965C14.438149 9.434878 14.254013 9.359336 14.065156 9.359336C13.84797 9.359336 13.739377 9.425436 13.739377 9.557636C13.739377 9.727608 13.852691 9.897579 14.07932 10.067551S14.50897 10.322509 14.688385 10.322509ZM14.575071 7.659619C14.537299 7.791819 14.518414 7.881527 14.518414 7.928741C14.518414 7.95707 14.532578 8.032612 14.560907 8.15537C14.504249 8.15537 14.402738 8.129402 14.256374 8.077466S14.003778 7.975955 13.937677 7.928741C14.192635 7.796541 14.405099 7.706833 14.575071 7.659619ZM12.096317 11.540639C12.096317 11.956125 12.209632 12.378694 12.436261 12.808344S12.901322 13.636956 13.151558 14.005228S13.541076 14.661507 13.569405 14.869251H8.895184C8.857413 14.434878 8.838527 14.113822 8.838527 13.906078C8.838527 13.084548 8.954202 12.324393 9.185552 11.625625C9.416902 10.926853 9.690746 10.379166 10.007082 9.982565S10.620868 9.279071 10.899433 9.061885C11.177999 8.8447 11.397545 8.736106 11.558074 8.736106H12.407932C12.483475 8.698335 12.551936 8.528363 12.613314 8.226191C12.674693 7.92402 12.752597 7.735162 12.847025 7.659619C12.922568 7.905133 13.052408 8.079827 13.236544 8.183698C13.42068 8.28757 13.647309 8.377278 13.916431 8.45282S14.395656 8.622792 14.546742 8.736106C14.660057 9.123264 14.964589 9.788986 15.46034 10.733274S16.222851 12.277183 16.260623 12.53214C16.222852 12.673783 16.133144 12.801262 15.991501 12.914577S15.698772 13.084548 15.538244 13.084548C15.472143 13.084548 15.387157 13.046777 15.283286 12.971234S15.084986 12.857919 15.0 12.857919C14.952786 12.857919 14.929178 12.886248 14.929178 12.942905L14.971671 13.070384C15.0 13.15537 15.014164 13.202584 15.014164 13.212027C15.014164 13.297013 14.948064 13.339506 14.815864 13.339506C14.796978 13.339506 14.678942 13.174255 14.461756 12.843755C14.046271 12.20164 13.456091 11.715332 12.691218 11.384832C12.634561 11.007116 12.514164 10.662452 12.330028 10.350837S12.001888 9.883415 11.898017 9.883415C11.813031 9.883415 11.770538 9.944794 11.770538 10.067551C11.770538 10.133651 11.829556 10.334312 11.947592 10.669534S12.124646 11.233745 12.124646 11.356503C12.124646 11.384832 12.115203 11.44621 12.096317 11.540639ZM11.798867 8.141206C11.600567 8.141206 11.369217 8.193141 11.104816 8.297013C10.840415 8.400884 10.538244 8.596825 10.1983 8.884832S9.549103 9.531669 9.270538 9.961319S8.755902 10.976428 8.562323 11.717693C8.368744 12.458958 8.271955 13.287565 8.271955 14.203528C8.271955 14.647343 8.29084 15.043944 8.328612 15.39333H14.263456C14.235127 14.958958 14.143059 14.5718 13.987252 14.231857S13.663834 13.632235 13.484419 13.45282C13.305004 13.273405 13.132673 13.049138 12.967422 12.780016S12.700661 12.220526 12.66289 11.908911C13.031161 12.069439 13.345137 12.26538 13.604816 12.49673S14.046271 12.938184 14.150142 13.127041S14.355524 13.478788 14.454674 13.61571C14.553824 13.752631 14.650613 13.821092 14.745042 13.821092C14.905571 13.821092 15.047214 13.783321 15.169972 13.707778S15.358829 13.537806 15.368272 13.424492C15.462701 13.471706 15.557129 13.495313 15.651558 13.495313C16.095373 13.495313 16.454203 13.212027 16.728045 12.645455C16.671388 12.286626 16.359773 11.509949 15.793201 10.315427S14.943343 8.348953 14.943343 7.999562C14.943343 7.952348 14.971671 7.687948 15.028329 7.206361C14.442871 7.206361 13.918792 7.36689 13.456091 7.687948C13.201133 7.244133 12.988669 7.022225 12.818697 7.022225C12.592068 7.144983 12.429178 7.281904 12.330028 7.43299S12.134089 7.829591 12.03966 8.169534C11.945231 8.150648 11.864967 8.141206 11.798867 8.141206Z" fill="#010101" />
<path d="M9.291785 22.949446C9.423985 22.949446 9.490085 22.859739 9.490085 22.680324C9.490085 22.444252 9.372049 22.326217 9.135977 22.326217C9.041549 22.326217 8.994334 22.401759 8.994334 22.552845C8.994334 22.817246 9.093484 22.949446 9.291785 22.949446ZM10.311615 24.677491C10.179415 24.677491 10.113314 24.757756 10.113314 24.918285C10.113314 25.0977 10.203022 25.262949 10.382436 25.414035C10.561851 25.565122 10.745987 25.640664 10.934844 25.640664C11.15203 25.640664 11.260623 25.574564 11.260623 25.442364C11.260623 25.272392 11.147309 25.102421 10.92068 24.932449S10.49103 24.677491 10.311615 24.677491ZM10.424929 27.340381C10.462701 27.208181 10.481586 27.118473 10.481586 27.071259C10.481586 27.04293 10.467422 26.967388 10.439093 26.84463C10.495751 26.84463 10.597262 26.870598 10.743626 26.922534S10.996222 27.024045 11.062323 27.071259C10.807365 27.203459 10.594901 27.293167 10.424929 27.340381ZM12.903683 23.459361C12.903683 23.043875 12.790368 22.621306 12.563739 22.191656S12.098678 21.363044 11.848442 20.994772S11.458924 20.338493 11.430595 20.130749H16.104816C16.142587 20.565122 16.161473 20.886178 16.161473 21.093922C16.161473 21.915452 16.045798 22.675607 15.814448 23.374375C15.583098 24.073147 15.309254 24.620834 14.992918 25.017435S14.379132 25.720929 14.100567 25.938115C13.822001 26.1553 13.602455 26.263894 13.441926 26.263894H12.592068C12.516525 26.301665 12.448064 26.471637 12.386686 26.773809C12.325307 27.07598 12.247403 27.264838 12.152975 27.340381C12.077432 27.094867 11.947592 26.920173 11.763456 26.816302C11.57932 26.71243 11.352691 26.622722 11.083569 26.54718S10.604344 26.377208 10.453258 26.263894C10.339943 25.876736 10.035411 25.211014 9.53966 24.266726S8.777149 22.722817 8.739377 22.46786C8.777148 22.326217 8.866856 22.198738 9.008499 22.085423S9.301228 21.915452 9.461756 21.915452C9.527857 21.915452 9.612843 21.953223 9.716714 22.028766S9.915014 22.142081 10.0 22.142081C10.047214 22.142081 10.070822 22.113752 10.070822 22.057095L10.028329 21.929616C10.0 21.84463 9.985836 21.797416 9.985836 21.787973C9.985836 21.702987 10.051936 21.660494 10.184136 21.660494C10.203022 21.660494 10.321058 21.825745 10.538244 22.156245C10.953729 22.79836 11.543909 23.284668 12.308782 23.615168C12.365439 23.992884 12.485836 24.337548 12.669972 24.649163S12.998112 25.116585 13.101983 25.116585C13.186969 25.116585 13.229462 25.055206 13.229462 24.932449C13.229462 24.866349 13.170444 24.665688 13.052408 24.330466S12.875354 23.766255 12.875354 23.643497C12.875354 23.615168 12.884797 23.55379 12.903683 23.459361ZM13.201133 26.858794C13.399433 26.858794 13.630783 26.806859 13.895184 26.702987C14.159585 26.599116 14.461756 26.403175 14.8017 26.115168S15.450897 25.468331 15.729462 25.038681S16.244098 24.023572 16.437677 23.282307C16.631256 22.541042 16.728045 21.712435 16.728045 20.796472C16.728045 20.352657 16.70916 19.956056 16.671388 19.60667H10.736544C10.764873 20.041042 10.856941 20.4282 11.012748 20.768143S11.336166 21.367765 11.515581 21.54718C11.694996 21.726595 11.867327 21.950862 12.032578 22.219984S12.299339 22.779474 12.33711 23.091089C11.968839 22.930561 11.654863 22.73462 11.395184 22.50327S10.953729 22.061816 10.849858 21.872959S10.644476 21.521212 10.545326 21.38429C10.446176 21.247369 10.349387 21.178908 10.254958 21.178908C10.094429 21.178908 9.952786 21.216679 9.830028 21.292222S9.641171 21.462194 9.631728 21.575508C9.537299 21.528294 9.442871 21.504687 9.348442 21.504687C8.904627 21.504687 8.545797 21.787973 8.271955 22.354545C8.328612 22.713374 8.640227 23.490051 9.206799 24.684573S10.056657 26.651047 10.056657 27.000438C10.056657 27.047652 10.028329 27.312052 9.971671 27.793639C10.557129 27.793639 11.081208 27.63311 11.543909 27.312052C11.798867 27.755867 12.011331 27.977775 12.181303 27.977775C12.407932 27.855017 12.570822 27.718096 12.669972 27.56701S12.865911 27.170409 12.96034 26.830466C13.054769 26.849352 13.135033 26.858794 13.201133 26.858794Z" fill="#010101" />
<path d="M23.576271 5.638889Q23.635593 5.638889 23.65678 5.566855Q23.661017 5.554143 23.661017 5.528719Q23.661017 5.477872 23.614407 5.460923Q23.402542 5.37194 23.300847 5.206685T23.169492 4.797787T23.139831 4.138889V2.647363Q23.144068 2.541431 23.158898 2.475753T23.233051 2.365584T23.415254 2.321092H23.440678Q23.483051 2.321092 23.502119 2.306262T23.525424 2.232109Q23.525424 2.193974 23.504237 2.166431T23.449153 2.138889Q23.177966 2.151601 22.944915 2.151601Q22.686441 2.151601 22.415254 2.138889Q22.377119 2.138889 22.358051 2.166431T22.338983 2.232109Q22.34322 2.295669 22.366525 2.30838T22.449153 2.321092Q22.572034 2.321092 22.631356 2.365584T22.705508 2.475753T22.724576 2.647363V4.282957Q22.724576 4.829567 22.917373 5.179143T23.559322 5.638889H23.576271Z" fill="#010101" />
<path d="M22.95373 7.974424C22.951527 8.040523 22.948773 8.093954 22.945468 8.134715C22.942163 8.175476 22.933901 8.227254 22.920681 8.290048S22.891487 8.404621 22.872759 8.445382S22.825938 8.531862 22.788482 8.582538S22.706959 8.675078 22.656283 8.708127S22.54171 8.773125 22.464595 8.803971S22.299346 8.859054 22.200197 8.876681V8.94278H23.799803V8.876681C23.700654 8.859054 23.612521 8.834267 23.535405 8.802319S23.393843 8.737872 23.342065 8.704822S23.24622 8.629359 23.209866 8.577581S23.145419 8.480084 23.125589 8.440425S23.089785 8.348987 23.077667 8.285091S23.057837 8.169968 23.054532 8.13141C23.051227 8.092852 23.048473 8.040523 23.04627 7.974424C23.099149 8.071369 23.142114 8.139672 23.175163 8.179332C23.234653 8.254245 23.307913 8.313734 23.394944 8.3578C23.481975 8.401866 23.567354 8.4239 23.651079 8.4239C23.792092 8.4239 23.913274 8.371571 24.014626 8.266914S24.166655 8.036117 24.166655 7.888494C24.166655 7.745279 24.120936 7.622995 24.029499 7.521642S23.827344 7.369614 23.697349 7.369614C23.653283 7.369614 23.612521 7.375673 23.575065 7.387791S23.500152 7.415333 23.462696 7.434061L23.393292 7.468763C23.479221 7.345377 23.522186 7.228602 23.522186 7.118436C23.522186 6.979627 23.470958 6.860648 23.368504 6.761499S23.143215 6.612775 23.0 6.612775S22.73395 6.66235 22.631496 6.761499S22.477814 6.979627 22.477814 7.118436C22.477814 7.228602 22.520779 7.345377 22.606708 7.468763C22.591285 7.462153 22.569803 7.452238 22.542261 7.439018S22.494339 7.415883 22.481119 7.409273S22.450824 7.396054 22.429892 7.389444S22.38858 7.377876 22.36875 7.374571S22.326887 7.369614 22.302651 7.369614C22.172656 7.369614 22.061939 7.42029 21.970501 7.521642S21.833345 7.745279 21.833345 7.888494C21.833345 8.036117 21.884021 8.162256 21.985374 8.266914S22.207908 8.4239 22.348921 8.4239C22.591285 8.4239 22.792887 8.274074 22.95373 7.974424Z" fill="#010101" />
<path d="M1.423729 29.361111Q1.364407 29.361111 1.34322 29.433145Q1.338983 29.445857 1.338983 29.471281Q1.338983 29.522128 1.385593 29.539077Q1.597458 29.62806 1.699153 29.793315T1.830508 30.202213T1.860169 30.861111V32.352637Q1.855932 32.458569 1.841102 32.524247T1.766949 32.634416T1.584746 32.678908H1.559322Q1.516949 32.678908 1.497881 32.693738T1.474576 32.767891Q1.474576 32.806026 1.495763 32.833569T1.550847 32.861111Q1.822034 32.848399 2.055085 32.848399Q2.313559 32.848399 2.584746 32.861111Q2.622881 32.861111 2.641949 32.833569T2.661017 32.767891Q2.65678 32.704331 2.633475 32.69162T2.550847 32.678908Q2.427966 32.678908 2.368644 32.634416T2.294492 32.524247T2.275424 32.352637V30.717043Q2.275424 30.170433 2.082627 29.820857T1.440678 29.361111H1.423729Z" fill="#010101" />
<path d="M2.04627 27.025576C2.048473 26.959477 2.051227 26.906046 2.054532 26.865285C2.057837 26.824524 2.066099 26.772746 2.079319 26.709952S2.108513 26.595379 2.127241 26.554618S2.174062 26.468138 2.211518 26.417462S2.293041 26.324922 2.343717 26.291873S2.45829 26.226875 2.535405 26.196029S2.700654 26.140946 2.799803 26.123319V26.05722H1.200197V26.123319C1.299346 26.140946 1.387479 26.165733 1.464595 26.197681S1.606157 26.262128 1.657935 26.295178S1.75378 26.370641 1.790134 26.422419S1.854581 26.519916 1.874411 26.559575S1.910215 26.651013 1.922333 26.714909S1.942163 26.830032 1.945468 26.86859C1.948773 26.907148 1.951527 26.959477 1.95373 27.025576C1.900851 26.928631 1.857886 26.860328 1.824837 26.820668C1.765347 26.745755 1.692087 26.686266 1.605056 26.6422C1.518025 26.598134 1.432646 26.5761 1.348921 26.5761C1.207908 26.5761 1.086726 26.628429 0.985374 26.733086S0.833345 26.963883 0.833345 27.111506C0.833345 27.254721 0.879064 27.377005 0.970501 27.478358S1.172656 27.630386 1.302651 27.630386C1.346717 27.630386 1.387479 27.624327 1.424935 27.612209S1.499848 27.584667 1.537304 27.565939L1.606708 27.531237C1.520779 27.654623 1.477814 27.771398 1.477814 27.881564C1.477814 28.020373 1.529042 28.139352 1.631496 28.238501S1.856785 28.387225 2.0 28.387225S2.26605 28.33765 2.368504 28.238501S2.522186 28.020373 2.522186 27.881564C2.522186 27.771398 2.479221 27.654623 2.393292 27.531237C2.408715 27.537847 2.430197 27.547762 2.457739 27.560982S2.505661 27.584117 2.518881 27.590727S2.549176 27.603946 2.570108 27.610556S2.61142 27.622124 2.63125 27.625429S2.673113 27.630386 2.697349 27.630386C2.827344 27.630386 2.938061 27.57971 3.029499 27.478358S3.166655 27.254721 3.166655 27.111506C3.166655 26.963883 3.115979 26.837744 3.014626 26.733086S2.792092 26.5761 2.651079 26.5761C2.408715 26.5761 2.207113 26.725926 2.04627 27.025576Z" fill="#010101" />
</svg>
