<svg width="150.000000" height="210.000000" id="card-webclub13">
<radialGradient id="card-webwhitegradient" cx="75.0" cy="105.0" r="150" gradientTransform="matrix(1 0 0 1 0 -.25)" gradientUnits="userSpaceOnUse">
<stop stop-color="#FDFAF4" offset=".15"/>
<stop stop-color="#FDF9F2" offset=".35"/>
<stop stop-color="#FCF7F1" offset=".5"/>
<stop stop-color="#FDFDF8" offset=".75"/>
<stop stop-color="#FFFDFA" offset="1"/>
</radialGradient>
<rect x="0" y="0" rx="7.5" ry="7.5" width="150" height="210.0" stroke="#010101" fill="url(#card-webwhitegradient)" />
<rect x="30.0" y="21.0" width="90.0" height="168.0" stroke="#010101" fill="#fffdfa" />
<path d="M59.787535 55.688593C59.107649 55.688593 58.25779 55.8444 57.23796 56.156015S55.070822 56.949216 53.796034 57.600774S51.444756 59.314658 50.566572 60.787743S49.249292 63.960545 49.249292 65.886893C49.249292 67.416638 49.518414 68.776412 50.056657 69.966213S51.260626 72.232505 52.053824 73.195675C52.847025 74.158845 53.654388 75.235335 54.475921 76.425137S56.033992 79.328822 56.685552 81.56678S57.71955 86.453466 57.832861 89.512956C57.946175 93.308992 63.668558 95.207007 75.0 95.207007C86.274816 95.207007 91.997167 93.308992 92.167139 89.512956C92.393768 85.546947 92.974504 82.28916 93.909348 79.739585S95.807363 75.461967 96.798867 74.555449S98.696881 72.487463 99.518414 71.071029S100.750708 67.926553 100.750708 65.886893C100.750708 63.903893 100.311614 62.175842 99.433428 60.702757S97.478754 58.167349 96.203966 57.515788S93.767703 56.396805 92.719547 56.113522S90.77904 55.688593 90.042493 55.688593C87.266286 55.688593 84.490088 56.793409 81.713881 59.003041C81.713881 56.340154 81.458924 54.456298 80.949008 53.351483S79.13598 51.014372 77.03966 49.654599V47.614939L80.524079 45.575279V42.515788H77.379603L76.274788 39.286327H73.725212L72.620397 42.515788H69.475921V45.575279L72.96034 47.614939V49.654599C70.86402 50.957712 69.560907 52.218341 69.050992 53.436468S68.286119 56.510126 68.286119 59.003041C67.549575 58.266496 66.373938 57.529956 64.759207 56.793409S61.487252 55.688593 59.787535 55.688593ZM75.0 66.56678C74.660057 65.943551 74.17847 65.150347 73.555241 64.187177S72.521244 62.558279 72.322946 62.190009S71.926345 61.255165 71.728045 60.490293S71.430595 58.833069 71.430595 57.813239C71.430595 54.470466 72.592071 52.799075 74.915014 52.799075C77.351278 52.799075 78.569405 54.470466 78.569405 57.813239C78.569405 58.833069 78.470255 59.72542 78.271955 60.490293S77.875354 61.835899 77.677054 62.232502S77.067988 63.294825 76.444759 64.229669S75.339943 65.943553 75.0 66.56678ZM59.872521 58.748083C62.648728 58.748083 65.509912 60.178675 68.456091 63.039868S73.073652 69.62627 73.470255 74.215505C73.470255 75.575279 68.286119 76.255165 57.917847 76.255165C57.804533 76.141851 57.152975 75.348647 55.963173 73.875562C54.773371 72.402477 53.866853 71.056862 53.243626 69.838735S52.308782 67.473298 52.308782 66.396808C52.308782 64.130517 53.031161 62.289162 54.475921 60.872729S57.71955 58.748083 59.872521 58.748083ZM59.447592 79.654599C61.090649 79.541285 62.861193 79.413806 64.759207 79.272162C66.657221 79.130519 67.988669 79.031369 68.753541 78.974712S70.354105 78.833069 71.260623 78.719754S72.875354 78.493125 73.385269 78.379811S74.433425 78.096525 75.0 77.869896C75.679887 78.153182 76.501419 78.393976 77.464589 78.592276S79.291785 78.918054 80.056657 78.974712S82.337108 79.130519 84.603399 79.272162S88.852691 79.541285 90.552408 79.654599C89.985835 81.80757 89.617564 84.187174 89.447592 86.793409C85.538244 85.546947 80.722351 84.92372 75.0 84.92372C69.164303 84.92372 64.34847 85.54695 60.552408 86.793409C60.382436 83.960551 60.014165 81.580947 59.447592 79.654599ZM90.127479 58.748083C92.167139 58.748083 93.937674 59.456298 95.439093 60.872729S97.691218 64.130517 97.691218 66.396808C97.691218 67.190009 97.464589 68.068199 97.011331 69.031369S96.104813 70.816072 95.651558 71.495958S94.546742 73.054029 93.696884 74.130519C92.847025 75.207009 92.308785 75.915222 92.082153 76.255165C81.713881 76.255165 76.529745 75.575279 76.529745 74.215505C76.926346 69.62627 78.583572 65.90106 81.501416 63.039868S87.29462 58.748083 90.127479 58.748083ZM74.915014 88.323154C82.847023 88.323154 86.813031 89.059698 86.813031 90.532786C86.813031 91.042701 85.453258 91.439304 82.733711 91.722587S77.436263 92.147517 75.0 92.147517C67.124643 92.147517 63.186969 91.609273 63.186969 90.532786C63.186969 89.059701 67.096317 88.323154 74.915014 88.323154Z" fill="#010101" />
<path d="M90.212465 154.311407C90.892351 154.311407 91.74221 154.1556 92.76204 153.843985S94.929178 153.050784 96.203966 152.399226S98.555244 150.685342 99.433428 149.212257S100.750708 146.039455 100.750708 144.113107C100.750708 142.583362 100.481586 141.223588 99.943343 140.033787S98.739374 137.767495 97.946176 136.804325C97.152975 135.841155 96.345612 134.764665 95.524079 133.574863S93.966008 130.671178 93.314448 128.43322S92.28045 123.546534 92.167139 120.487044C92.053825 116.691008 86.331442 114.792993 75.0 114.792993C63.725184 114.792993 58.002833 116.691008 57.832861 120.487044C57.606232 124.453053 57.025496 127.71084 56.090652 130.260415S54.192637 134.538033 53.201133 135.444551S51.303119 137.512537 50.481586 138.928971S49.249292 142.073447 49.249292 144.113107C49.249292 146.096107 49.688386 147.824158 50.566572 149.297243S52.521246 151.832651 53.796034 152.484212S56.232297 153.603195 57.280453 153.886478S59.22096 154.311407 59.957507 154.311407C62.733714 154.311407 65.509912 153.206591 68.286119 150.996959C68.286119 153.659846 68.541076 155.543702 69.050992 156.648517S70.86402 158.985628 72.96034 160.345401V162.385061L69.475921 164.424721V167.484212H72.620397L73.725212 170.713673H76.274788L77.379603 167.484212H80.524079V164.424721L77.03966 162.385061V160.345401C79.13598 159.042288 80.439093 157.781659 80.949008 156.563532S81.713881 153.489874 81.713881 150.996959C82.450425 151.733504 83.626062 152.470044 85.240793 153.206591S88.512748 154.311407 90.212465 154.311407ZM75.0 143.43322C75.339943 144.056449 75.82153 144.849653 76.444759 145.812823S77.478756 147.441721 77.677054 147.809991S78.073655 148.744835 78.271955 149.509707S78.569405 151.166931 78.569405 152.186761C78.569405 155.529534 77.407929 157.200925 75.084986 157.200925C72.648722 157.200925 71.430595 155.529534 71.430595 152.186761C71.430595 151.166931 71.529745 150.27458 71.728045 149.509707S72.124646 148.164101 72.322946 147.767498S72.932012 146.705175 73.555241 145.770331S74.660057 144.056447 75.0 143.43322ZM90.127479 151.251917C87.351272 151.251917 84.490088 149.821325 81.543909 146.960132S76.926348 140.37373 76.529745 135.784495C76.529745 134.424721 81.713881 133.744835 92.082153 133.744835C92.195467 133.858149 92.847025 134.651353 94.036827 136.124438C95.226629 137.597523 96.133147 138.943138 96.756374 140.161265S97.691218 142.526702 97.691218 143.603192C97.691218 145.869483 96.968839 147.710838 95.524079 149.127271S92.28045 151.251917 90.127479 151.251917ZM90.552408 130.345401C88.909351 130.458715 87.138807 130.586194 85.240793 130.727838C83.342779 130.869481 82.011331 130.968631 81.246459 131.025288S79.645895 131.166931 78.739377 131.280246S77.124646 131.506875 76.614731 131.620189S75.566575 131.903475 75.0 132.130104C74.320113 131.846818 73.498581 131.606024 72.535411 131.407724S70.708215 131.081946 69.943343 131.025288S67.662892 130.869481 65.396601 130.727838S61.147309 130.458715 59.447592 130.345401C60.014165 128.19243 60.382436 125.812826 60.552408 123.206591C64.461756 124.453053 69.277649 125.07628 75.0 125.07628C80.835697 125.07628 85.65153 124.45305 89.447592 123.206591C89.617564 126.039449 89.985835 128.419053 90.552408 130.345401ZM59.872521 151.251917C57.832861 151.251917 56.062326 150.543702 54.560907 149.127271S52.308782 145.869483 52.308782 143.603192C52.308782 142.809991 52.535411 141.931801 52.988669 140.968631S53.895187 139.183928 54.348442 138.504042S55.453258 136.945971 56.303116 135.869481C57.152975 134.792991 57.691215 134.084778 57.917847 133.744835C68.286119 133.744835 73.470255 134.424721 73.470255 135.784495C73.073654 140.37373 71.416428 144.09894 68.498584 146.960132S62.70538 151.251917 59.872521 151.251917ZM75.084986 121.676846C67.152977 121.676846 63.186969 120.940302 63.186969 119.467214C63.186969 118.957299 64.546742 118.560696 67.266289 118.277413S72.563737 117.852483 75.0 117.852483C82.875357 117.852483 86.813031 118.390727 86.813031 119.467214C86.813031 120.940299 82.903683 121.676846 75.084986 121.676846Z" fill="#010101" />
<path d="M148.356164 33.305936Q148.5 33.098174 148.5 32.810502Q148.468037 32.33105 148.308219 32.23516T147.700913 32.139269Q146.773973 32.139269 146.326484 31.803653T145.767123 30.972603T145.623288 29.678082V16.988584Q145.655251 16.189498 145.767123 15.694064T146.326484 14.863014T147.700913 14.527397H147.892694Q148.212329 14.527397 148.340183 14.415525T148.5 13.856164Q148.5 13.568493 148.356164 13.360731T147.924658 13.152968Q145.847032 13.248858 144.152968 13.248858Q142.23516 13.248858 140.157534 13.152968Q139.869863 13.152968 139.726027 13.360731T139.582192 13.856164Q139.614155 14.335616 139.773973 14.431507T140.381279 14.527397Q141.308219 14.527397 141.755708 14.863014T142.315068 15.694064T142.458904 16.988584V22.773973Q141.947489 22.678082 141.308219 22.230594T139.742009 20.984018Q137.952055 19.321918 135.23516 16.093607Q134.659817 15.454338 134.659817 15.070776Q134.659817 14.591324 135.522831 14.559361Q135.746575 14.527397 135.826484 14.383562T135.97032 13.888128Q135.97032 13.600457 135.810502 13.376712T135.394977 13.152968Q134.276256 13.248858 131.878995 13.248858Q131.111872 13.248858 129.641553 13.184932L128.97032 13.152968Q128.682648 13.152968 128.522831 13.360731T128.363014 13.888128Q128.394977 14.335616 128.554795 14.447489T129.002283 14.559361Q130.280822 14.495434 131.415525 14.974886T133.796804 16.700913L138.974886 22.10274Q137.856164 23.477169 136.673516 24.723744T133.828767 27.63242Q132.997717 28.46347 131.847032 29.678082Q131.495434 30.02968 131.36758 30.189498Q130.344749 31.212329 129.753425 31.627854T128.299087 32.139269Q128.23516 32.139269 128.011416 32.155251T127.643836 32.33105T127.5 32.810502Q127.5 33.098174 127.643836 33.305936T128.075342 33.513699Q128.458904 33.481735 129.002283 33.481735Q130.152968 33.417808 130.792237 33.417808H132.8379Q137.057078 28.719178 140.381279 24.883562Q141.40411 23.700913 142.458904 23.605023V29.678082Q142.426941 30.477169 142.315068 30.972603T141.755708 31.803653T140.381279 32.139269H140.189498Q139.869863 32.139269 139.742009 32.251142T139.582192 32.810502Q139.582192 33.098174 139.726027 33.305936T140.157534 33.513699Q142.203196 33.417808 144.121005 33.417808Q145.847032 33.417808 147.924658 33.513699Q148.212329 33.513699 148.356164 33.305936Z" fill="#010101" />
<path d="M137.722382 47.846542C137.709162 48.243138 137.692638 48.563721 137.672808 48.808288C137.652978 49.052856 137.603403 49.363524 137.524084 49.74029S137.348921 50.427725 137.236552 50.672292S136.955628 51.191174 136.730891 51.49523S136.241754 52.050466 135.937698 52.248764S135.250263 52.638751 134.787568 52.823829S133.796076 53.154327 133.201181 53.260085V53.656682H142.798819V53.260085C142.203924 53.154326 141.675128 53.005603 141.212432 52.813914S140.363055 52.427232 140.052387 52.228934S139.477322 51.776154 139.259194 51.465486S138.872513 50.880506 138.753534 50.642548S138.538711 50.093922 138.466001 49.710546S138.347022 49.019807 138.327192 48.788458C138.307362 48.55711 138.290838 48.243138 138.277618 47.846542C138.594895 48.428216 138.852683 48.838033 139.050981 49.075991C139.407918 49.525468 139.84748 49.882405 140.369665 50.146802C140.89185 50.411199 141.404121 50.543398 141.906477 50.543398C142.75255 50.543398 143.479642 50.229427 144.087758 49.601482S144.99993 48.216699 144.99993 47.330966C144.99993 46.471674 144.725618 45.73797 144.176992 45.129855S142.964067 44.217683 142.184094 44.217683C141.919697 44.217683 141.675128 44.254037 141.45039 44.326747S141.000914 44.491995 140.776176 44.604364L140.35975 44.812578C140.875325 44.072265 141.133113 43.371609 141.133113 42.710616C141.133113 41.877763 140.825751 41.163889 140.211026 40.568994S138.859292 39.676652 138.0 39.676652S136.403699 39.974099 135.788974 40.568994S134.866887 41.877763 134.866887 42.710616C134.866887 43.371609 135.124675 44.072265 135.64025 44.812578C135.547711 44.772918 135.418816 44.713428 135.253569 44.634109S134.966036 44.4953 134.886717 44.455641S134.704943 44.376321 134.579354 44.336662S134.331481 44.267257 134.212502 44.247427S133.961324 44.217683 133.815906 44.217683C133.035933 44.217683 132.371634 44.521739 131.823008 45.129855S131.00007 46.471674 131.00007 47.330966C131.00007 48.216699 131.304127 48.973536 131.912242 49.601482S133.24745 50.543398 134.093523 50.543398C135.54771 50.543398 136.757324 49.644447 137.722382 47.846542Z" fill="#010101" />
<path d="M1.643836 176.694064Q1.5 176.901826 1.5 177.189498Q1.531963 177.66895 1.691781 177.76484T2.299087 177.860731Q3.226027 177.860731 3.673516 178.196347T4.232877 179.027397T4.376712 180.321918V193.011416Q4.344749 193.810502 4.232877 194.305936T3.673516 195.136986T2.299087 195.472603H2.107306Q1.787671 195.472603 1.659817 195.584475T1.5 196.143836Q1.5 196.431507 1.643836 196.639269T2.075342 196.847032Q4.152968 196.751142 5.847032 196.751142Q7.76484 196.751142 9.842466 196.847032Q10.130137 196.847032 10.273973 196.639269T10.417808 196.143836Q10.385845 195.664384 10.226027 195.568493T9.618721 195.472603Q8.691781 195.472603 8.244292 195.136986T7.684932 194.305936T7.541096 193.011416V187.226027Q8.052511 187.321918 8.691781 187.769406T10.257991 189.015982Q12.047945 190.678082 14.76484 193.906393Q15.340183 194.545662 15.340183 194.929224Q15.340183 195.408676 14.477169 195.440639Q14.253425 195.472603 14.173516 195.616438T14.02968 196.111872Q14.02968 196.399543 14.189498 196.623288T14.605023 196.847032Q15.723744 196.751142 18.121005 196.751142Q18.888128 196.751142 20.358447 196.815068L21.02968 196.847032Q21.317352 196.847032 21.477169 196.639269T21.636986 196.111872Q21.605023 195.664384 21.445205 195.552511T20.997717 195.440639Q19.719178 195.504566 18.584475 195.025114T16.203196 193.299087L11.025114 187.89726Q12.143836 186.522831 13.326484 185.276256T16.171233 182.36758Q17.002283 181.53653 18.152968 180.321918Q18.504566 179.97032 18.63242 179.810502Q19.655251 178.787671 20.246575 178.372146T21.700913 177.860731Q21.76484 177.860731 21.988584 177.844749T22.356164 177.66895T22.5 177.189498Q22.5 176.901826 22.356164 176.694064T21.924658 176.486301Q21.541096 176.518265 20.997717 176.518265Q19.847032 176.582192 19.207763 176.582192H17.1621Q12.942922 181.280822 9.618721 185.116438Q8.59589 186.299087 7.541096 186.394977V180.321918Q7.573059 179.522831 7.684932 179.027397T8.244292 178.196347T9.618721 177.860731H9.810502Q10.130137 177.860731 10.257991 177.748858T10.417808 177.189498Q10.417808 176.901826 10.273973 176.694064T9.842466 176.486301Q7.796804 176.582192 5.878995 176.582192Q4.152968 176.582192 2.075342 176.486301Q1.787671 176.486301 1.643836 176.694064Z" fill="#010101" />
<path d="M12.277618 162.153458C12.290838 161.756862 12.307362 161.436279 12.327192 161.191712C12.347022 160.947144 12.396597 160.636476 12.475916 160.25971S12.651079 159.572275 12.763448 159.327708S13.044372 158.808826 13.269109 158.50477S13.758246 157.949534 14.062302 157.751236S14.749737 157.361249 15.212432 157.176171S16.203924 156.845673 16.798819 156.739915V156.343318H7.201181V156.739915C7.796076 156.845674 8.324872 156.994397 8.787568 157.186086S9.636945 157.572768 9.947613 157.771066S10.522678 158.223846 10.740806 158.534514S11.127487 159.119494 11.246466 159.357452S11.461289 159.906078 11.533999 160.289454S11.652978 160.980193 11.672808 161.211542C11.692638 161.44289 11.709162 161.756862 11.722382 162.153458C11.405105 161.571784 11.147317 161.161967 10.949019 160.924009C10.592082 160.474532 10.15252 160.117595 9.630335 159.853198C9.10815 159.588801 8.595879 159.456602 8.093523 159.456602C7.24745 159.456602 6.520358 159.770573 5.912242 160.398518S5.00007 161.783301 5.00007 162.669034C5.00007 163.528326 5.274382 164.26203 5.823008 164.870145S7.035933 165.782317 7.815906 165.782317C8.080303 165.782317 8.324872 165.745963 8.54961 165.673253S8.999086 165.508005 9.223824 165.395636L9.64025 165.187422C9.124675 165.927735 8.866887 166.628391 8.866887 167.289384C8.866887 168.122237 9.174249 168.836111 9.788974 169.431006S11.140708 170.323348 12.0 170.323348S13.596301 170.025901 14.211026 169.431006S15.133113 168.122237 15.133113 167.289384C15.133113 166.628391 14.875325 165.927735 14.35975 165.187422C14.452289 165.227082 14.581184 165.286572 14.746431 165.365891S15.033964 165.5047 15.113283 165.544359S15.295057 165.623679 15.420646 165.663338S15.668519 165.732743 15.787498 165.752573S16.038676 165.782317 16.184094 165.782317C16.964067 165.782317 17.628366 165.478261 18.176992 164.870145S18.99993 163.528326 18.99993 162.669034C18.99993 161.783301 18.695873 161.026464 18.087758 160.398518S16.75255 159.456602 15.906477 159.456602C14.45229 159.456602 13.242676 160.355553 12.277618 162.153458Z" fill="#010101" />
</svg>
