<svg width="25.000000" height="35.000000" id="card-lightdiamond13">
<rect x="0" y="0" rx="1.25" ry="1.25" width="25" height="35.0" stroke="#010101" fill="#fffdfa" />
<rect x="5.0" y="3.5" width="15.0" height="28.0" stroke="#010101" fill="#fffdfa" />
<path d="M10.010431 9.316262C9.899166 9.316262 9.760083 9.34176 9.593185 9.392757S9.238526 9.522567 9.029903 9.629196S8.645108 9.909679 8.501391 10.150754S8.285814 10.669993 8.285814 10.985246C8.285814 11.235594 8.329856 11.458125 8.417942 11.65284S8.614975 12.023726 8.744784 12.181352C8.874594 12.338978 9.006722 12.515149 9.141168 12.709864S9.396152 13.185062 9.502782 13.55131S9.671999 14.351032 9.690542 14.851728C9.709087 15.472961 10.645573 15.783577 12.5 15.783577C14.34516 15.783577 15.281641 15.472961 15.309458 14.851728C15.346546 14.202678 15.441586 13.66953 15.594576 13.252284S15.905192 12.552238 16.067455 12.403883S16.378071 12.065451 16.512517 11.833647S16.714186 11.319043 16.714186 10.985246C16.714186 10.660722 16.642327 10.377921 16.498609 10.136846S16.17872 9.721918 15.970097 9.615288S15.571395 9.432163 15.399861 9.385803S15.082291 9.316262 14.961752 9.316262C14.507417 9.316262 14.053083 9.497068 13.598748 9.858682C13.598748 9.422892 13.557024 9.114593 13.473574 8.933786S13.176866 8.55131 12.833797 8.328779V7.994982L13.404033 7.661185V7.16049H12.88943L12.708623 6.631978H12.291377L12.11057 7.16049H11.595967V7.661185L12.166203 7.994982V8.328779C11.823134 8.542038 11.609875 8.748344 11.526426 8.947694S11.401252 9.450708 11.401252 9.858682C11.280714 9.738144 11.088317 9.617607 10.824061 9.497068S10.288595 9.316262 10.010431 9.316262ZM12.5 11.096512C12.444367 10.994519 12.365554 10.864708 12.263561 10.707082S12.094344 10.440508 12.061892 10.38024S11.996987 10.227249 11.964534 10.102075S11.915855 9.830865 11.915855 9.663967C11.915855 9.116911 12.105935 8.843383 12.486092 8.843383C12.884794 8.843383 13.084145 9.116911 13.084145 9.663967C13.084145 9.830865 13.067918 9.976902 13.035466 10.102075S12.970561 10.322288 12.938108 10.387194S12.838433 10.561046 12.736439 10.714036S12.555633 10.994519 12.5 11.096512ZM10.024339 9.816957C10.478675 9.816957 10.946917 10.051078 11.429068 10.519322S12.184747 11.597208 12.249652 12.348251C12.249652 12.570782 11.401252 12.682048 9.704451 12.682048C9.685906 12.663503 9.579277 12.533693 9.384562 12.292618C9.189847 12.051543 9.041492 11.831329 8.939499 11.631978S8.786509 11.244867 8.786509 11.068696C8.786509 10.69781 8.904729 10.396466 9.141168 10.164662S9.671999 9.816957 10.024339 9.816957ZM9.954798 13.238376C10.22369 13.219832 10.513445 13.198969 10.824061 13.175789C11.134677 13.152609 11.352573 13.136382 11.477747 13.12711S11.739684 13.10393 11.888039 13.085386S12.152295 13.048297 12.235744 13.029753S12.407278 12.983392 12.5 12.946304C12.611266 12.992664 12.745712 13.032071 12.903338 13.064523S13.202364 13.117838 13.327538 13.12711S13.700741 13.152609 14.071627 13.175789S14.767038 13.219832 15.045202 13.238376C14.95248 13.590717 14.892211 13.980146 14.864395 14.406665C14.224618 14.202678 13.436481 14.100685 12.5 14.100685C11.544969 14.100685 10.756843 14.202678 10.135605 14.406665C10.107789 13.943059 10.04752 13.553629 9.954798 13.238376ZM14.975661 9.816957C15.309458 9.816957 15.599211 9.932859 15.844924 10.164662S16.213491 10.69781 16.213491 11.068696C16.213491 11.198506 16.176402 11.342224 16.102225 11.49985S15.953871 11.791922 15.879694 11.903188S15.698887 12.158171 15.559805 12.334342C15.420723 12.510514 15.332638 12.626415 15.295549 12.682048C13.598748 12.682048 12.750348 12.570782 12.750348 12.348251C12.815253 11.597208 13.086463 10.987565 13.563978 10.519322S14.512054 9.816957 14.975661 9.816957ZM12.486092 14.657013C13.784191 14.657013 14.433241 14.777551 14.433241 15.018626C14.433241 15.102075 14.210709 15.166981 13.765647 15.213341S12.898702 15.282882 12.5 15.282882C11.211172 15.282882 10.566759 15.194797 10.566759 15.018626C10.566759 14.777551 11.206537 14.657013 12.486092 14.657013Z" fill="#da0a0a" />
<path d="M14.989569 25.683738C15.100834 25.683738 15.239917 25.65824 15.406815 25.607243S15.761474 25.477433 15.970097 25.370804S16.354892 25.090321 16.498609 24.849246S16.714186 24.330007 16.714186 24.014754C16.714186 23.764406 16.670144 23.541875 16.582058 23.34716S16.385025 22.976274 16.255216 22.818648C16.125406 22.661022 15.993278 22.484851 15.858832 22.290136S15.603848 21.814938 15.497218 21.44869S15.328001 20.648968 15.309458 20.148272C15.290913 19.527039 14.354427 19.216423 12.5 19.216423C10.65484 19.216423 9.718359 19.527039 9.690542 20.148272C9.653454 20.797322 9.558414 21.33047 9.405424 21.747716S9.094808 22.447762 8.932545 22.596117S8.621929 22.934549 8.487483 23.166353S8.285814 23.680957 8.285814 24.014754C8.285814 24.339278 8.357673 24.622079 8.501391 24.863154S8.82128 25.278082 9.029903 25.384712S9.428605 25.567837 9.600139 25.614197S9.917709 25.683738 10.038248 25.683738C10.492583 25.683738 10.946917 25.502932 11.401252 25.141318C11.401252 25.577108 11.442976 25.885407 11.526426 26.066214S11.823134 26.44869 12.166203 26.671221V27.005018L11.595967 27.338815V27.83951H12.11057L12.291377 28.368022H12.708623L12.88943 27.83951H13.404033V27.338815L12.833797 27.005018V26.671221C13.176866 26.457962 13.390125 26.251656 13.473574 26.052306S13.598748 25.549292 13.598748 25.141318C13.719286 25.261856 13.911683 25.382393 14.175939 25.502932S14.711405 25.683738 14.989569 25.683738ZM12.5 23.903488C12.555633 24.005481 12.634446 24.135292 12.736439 24.292918S12.905656 24.559492 12.938108 24.61976S13.003013 24.772751 13.035466 24.897925S13.084145 25.169135 13.084145 25.336033C13.084145 25.883089 12.894065 26.156617 12.513908 26.156617C12.115206 26.156617 11.915855 25.883089 11.915855 25.336033C11.915855 25.169135 11.932082 25.023098 11.964534 24.897925S12.029439 24.677712 12.061892 24.612806S12.161567 24.438954 12.263561 24.285964S12.444367 24.005481 12.5 23.903488ZM14.975661 25.183043C14.521325 25.183043 14.053083 24.948922 13.570932 24.480678S12.815253 23.402792 12.750348 22.651749C12.750348 22.429218 13.598748 22.317952 15.295549 22.317952C15.314094 22.336497 15.420723 22.466307 15.615438 22.707382C15.810153 22.948457 15.958508 23.168671 16.060501 23.368022S16.213491 23.755133 16.213491 23.931304C16.213491 24.30219 16.095271 24.603534 15.858832 24.835338S15.328001 25.183043 14.975661 25.183043ZM15.045202 21.761624C14.77631 21.780168 14.486555 21.801031 14.175939 21.824211C13.865323 21.847391 13.647427 21.863618 13.522253 21.87289S13.260316 21.89607 13.111961 21.914614S12.847705 21.951703 12.764256 21.970247S12.592722 22.016608 12.5 22.053696C12.388734 22.007336 12.254288 21.967929 12.096662 21.935477S11.797636 21.882162 11.672462 21.87289S11.299259 21.847391 10.928373 21.824211S10.232962 21.780168 9.954798 21.761624C10.04752 21.409283 10.107789 21.019854 10.135605 20.593335C10.775382 20.797322 11.563519 20.899315 12.5 20.899315C13.455031 20.899315 14.243157 20.797322 14.864395 20.593335C14.892211 21.056941 14.95248 21.446371 15.045202 21.761624ZM10.024339 25.183043C9.690542 25.183043 9.400789 25.067141 9.155076 24.835338S8.786509 24.30219 8.786509 23.931304C8.786509 23.801494 8.823598 23.657776 8.897775 23.50015S9.046129 23.208078 9.120306 23.096812S9.301113 22.841829 9.440195 22.665658C9.579277 22.489486 9.667362 22.373585 9.704451 22.317952C11.401252 22.317952 12.249652 22.429218 12.249652 22.651749C12.184747 23.402792 11.913537 24.012435 11.436022 24.480678S10.487946 25.183043 10.024339 25.183043ZM12.513908 20.342987C11.215809 20.342987 10.566759 20.222449 10.566759 19.981374C10.566759 19.897925 10.789291 19.833019 11.234353 19.786659S12.101298 19.717118 12.5 19.717118C13.788828 19.717118 14.433241 19.805203 14.433241 19.981374C14.433241 20.222449 13.793463 20.342987 12.513908 20.342987Z" fill="#da0a0a" />
<path d="M24.726027 5.550989Q24.75 5.516362 24.75 5.468417Q24.744673 5.388508 24.718037 5.372527T24.616819 5.356545Q24.462329 5.356545 24.387747 5.300609T24.294521 5.1621T24.270548 4.946347V2.831431Q24.275875 2.69825 24.294521 2.615677T24.387747 2.477169T24.616819 2.421233H24.648782Q24.702055 2.421233 24.723364 2.402588T24.75 2.309361Q24.75 2.261416 24.726027 2.226788T24.65411 2.192161Q24.307839 2.208143 24.025495 2.208143Q23.70586 2.208143 23.359589 2.192161Q23.311644 2.192161 23.287671 2.226788T23.263699 2.309361Q23.269026 2.389269 23.295662 2.405251T23.39688 2.421233Q23.55137 2.421233 23.625951 2.477169T23.719178 2.615677T23.743151 2.831431V3.795662Q23.657915 3.77968 23.55137 3.705099T23.290335 3.497336Q22.992009 3.22032 22.539193 2.682268Q22.443303 2.575723 22.443303 2.511796Q22.443303 2.431887 22.587139 2.42656Q22.624429 2.421233 22.637747 2.39726T22.66172 2.314688Q22.66172 2.266743 22.635084 2.229452T22.56583 2.192161Q22.379376 2.208143 21.979833 2.208143Q21.851979 2.208143 21.606925 2.197489L21.495053 2.192161Q21.447108 2.192161 21.420472 2.226788T21.393836 2.314688Q21.399163 2.389269 21.425799 2.407915T21.500381 2.42656Q21.71347 2.415906 21.902588 2.495814T22.299467 2.783486L23.162481 3.68379Q22.976027 3.912861 22.778919 4.120624T22.304795 4.605403Q22.166286 4.743912 21.974505 4.946347Q21.915906 5.004947 21.894597 5.031583Q21.724125 5.202055 21.625571 5.271309T21.383181 5.356545Q21.372527 5.356545 21.335236 5.359209T21.273973 5.388508T21.25 5.468417Q21.25 5.516362 21.273973 5.550989T21.34589 5.585616Q21.409817 5.580289 21.500381 5.580289Q21.692161 5.569635 21.798706 5.569635H22.13965Q22.842846 4.78653 23.39688 4.14726Q23.567352 3.950152 23.743151 3.93417V4.946347Q23.737823 5.079528 23.719178 5.1621T23.625951 5.300609T23.39688 5.356545H23.364916Q23.311644 5.356545 23.290335 5.37519T23.263699 5.468417Q23.263699 5.516362 23.287671 5.550989T23.359589 5.585616Q23.700533 5.569635 24.020167 5.569635Q24.307839 5.569635 24.65411 5.585616Q24.702055 5.585616 24.726027 5.550989Z" fill="#da0a0a" />
<path d="M23.003245 6.611123C22.951322 6.71497 22.82584 6.90157 22.6268 7.170922C22.42776 7.440275 22.267662 7.642021 22.146508 7.776155C22.297952 7.949233 22.460753 8.154765 22.634913 8.392746C22.809073 8.630728 22.93185 8.814624 23.003245 8.944433C23.163342 8.658854 23.446759 8.269428 23.853492 7.776155C23.43594 7.272066 23.152525 6.883721 23.003245 6.611123Z" fill="#da0a0a" />
<path d="M0.273973 29.449011Q0.25 29.483638 0.25 29.531583Q0.255327 29.611492 0.281963 29.627473T0.383181 29.643455Q0.537671 29.643455 0.612253 29.699391T0.705479 29.8379T0.729452 30.053653V32.168569Q0.724125 32.30175 0.705479 32.384323T0.612253 32.522831T0.383181 32.578767H0.351218Q0.297945 32.578767 0.276636 32.597412T0.25 32.690639Q0.25 32.738584 0.273973 32.773212T0.34589 32.807839Q0.692161 32.791857 0.974505 32.791857Q1.29414 32.791857 1.640411 32.807839Q1.688356 32.807839 1.712329 32.773212T1.736301 32.690639Q1.730974 32.610731 1.704338 32.594749T1.60312 32.578767Q1.44863 32.578767 1.374049 32.522831T1.280822 32.384323T1.256849 32.168569V31.204338Q1.342085 31.22032 1.44863 31.294901T1.709665 31.502664Q2.007991 31.77968 2.460807 32.317732Q2.556697 32.424277 2.556697 32.488204Q2.556697 32.568113 2.412861 32.57344Q2.375571 32.578767 2.362253 32.60274T2.33828 32.685312Q2.33828 32.733257 2.364916 32.770548T2.43417 32.807839Q2.620624 32.791857 3.020167 32.791857Q3.148021 32.791857 3.393075 32.802511L3.504947 32.807839Q3.552892 32.807839 3.579528 32.773212T3.606164 32.685312Q3.600837 32.610731 3.574201 32.592085T3.499619 32.57344Q3.28653 32.584094 3.097412 32.504186T2.700533 32.216514L1.837519 31.31621Q2.023973 31.087139 2.221081 30.879376T2.695205 30.394597Q2.833714 30.256088 3.025495 30.053653Q3.084094 29.995053 3.105403 29.968417Q3.275875 29.797945 3.374429 29.728691T3.616819 29.643455Q3.627473 29.643455 3.664764 29.640791T3.726027 29.611492T3.75 29.531583Q3.75 29.483638 3.726027 29.449011T3.65411 29.414384Q3.590183 29.419711 3.499619 29.419711Q3.307839 29.430365 3.201294 29.430365H2.86035Q2.157154 30.21347 1.60312 30.85274Q1.432648 31.049848 1.256849 31.06583V30.053653Q1.262177 29.920472 1.280822 29.8379T1.374049 29.699391T1.60312 29.643455H1.635084Q1.688356 29.643455 1.709665 29.62481T1.736301 29.531583Q1.736301 29.483638 1.712329 29.449011T1.640411 29.414384Q1.299467 29.430365 0.979833 29.430365Q0.692161 29.430365 0.34589 29.414384Q0.297945 29.414384 0.273973 29.449011Z" fill="#da0a0a" />
<path d="M1.996755 28.388877C2.048678 28.28503 2.17416 28.09843 2.3732 27.829078C2.57224 27.559725 2.732338 27.357979 2.853492 27.223845C2.702048 27.050767 2.539247 26.845235 2.365087 26.607254C2.190927 26.369272 2.06815 26.185376 1.996755 26.055567C1.836658 26.341146 1.553241 26.730572 1.146508 27.223845C1.56406 27.727934 1.847475 28.116279 1.996755 28.388877Z" fill="#da0a0a" />
</svg>
