<svg width="500.000000" height="700.000000" id="card-webdiamond12">
<radialGradient id="card-webwhitegradient" cx="250.0" cy="350.0" r="500" gradientTransform="matrix(1 0 0 1 0 -.25)" gradientUnits="userSpaceOnUse">
<stop stop-color="#FDFAF4" offset=".15"/>
<stop stop-color="#FDF9F2" offset=".35"/>
<stop stop-color="#FCF7F1" offset=".5"/>
<stop stop-color="#FDFDF8" offset=".75"/>
<stop stop-color="#FFFDFA" offset="1"/>
</radialGradient>
<rect x="0" y="0" rx="25.0" ry="25.0" width="500" height="700.0" fill="url(#card-webwhitegradient)" />
<rect x="100.0" y="70.0" width="300.0" height="560.0" stroke="#010101" fill="#fffdfa" />
<path d="M250.139082 251.415639C239.939722 251.415639 230.4358 251.740165 221.62726 252.389213C212.81872 253.038262 207.672684 253.362788 206.189152 253.362788C203.963839 253.362788 202.573018 253.223706 202.01669 252.945542S201.182197 251.971967 201.182197 250.859311C201.182197 247.150465 206.884562 244.322454 218.289291 242.375305S240.217886 239.454582 249.860918 239.454582C259.689374 239.454582 270.259611 240.428156 281.571627 242.375305C292.883644 244.322454 298.539638 247.150465 298.539638 250.859311C298.539638 251.786524 298.261474 252.435575 297.705146 252.80646S295.757997 253.362788 293.532684 253.362788C293.347241 253.362788 287.78395 253.038262 276.842837 252.389213S257.000473 251.415639 250.139082 251.415639ZM204.798331 263.933024C219.448317 262.078596 234.469263 261.151383 249.860918 261.151383C265.994437 261.151383 281.015299 262.078596 294.923505 263.933024C292.698192 265.787453 291.585535 269.403594 291.585535 274.781425C291.585535 278.304846 292.141864 280.437419 293.25452 281.1792C281.942503 279.13933 267.477969 278.119394 249.860918 278.119394C232.058414 278.119394 217.59388 279.13933 206.467316 281.1792C207.579972 280.437428 208.1363 278.304846 208.1363 274.781425C208.1363 269.403594 207.023644 265.787461 204.798331 263.933024ZM204.520167 295.643734C204.520167 290.451327 219.633741 287.855138 249.860918 287.855138S295.201669 290.451336 295.201669 295.643734C295.201669 300.279811 280.088095 302.597837 249.860918 302.597837S204.520167 300.279803 204.520167 295.643734ZM249.860918 142.375305C254.496996 142.375305 256.815021 144.600618 256.815021 149.051244C256.815021 153.872746 254.496987 156.283511 249.860918 156.283511C245.410292 156.283511 243.184979 153.872754 243.184979 149.051244C243.184979 144.600618 245.410292 142.375305 249.860918 142.375305ZM259.596662 176.589492C259.596662 170.284429 260.570236 164.442983 262.517385 159.065152S265.438108 150.627517 265.438108 149.885736C265.438108 145.620563 263.908206 141.958059 260.848401 138.898254S254.126092 134.308546 249.860918 134.308546S241.979611 135.838448 239.012517 138.898254S234.561892 145.620563 234.561892 149.885736C234.561892 150.627508 235.581828 153.640952 237.621697 158.92607S240.681502 170.099005 240.681502 176.589492C240.681502 185.676195 238.641633 199.120785 234.561892 216.923289C224.547983 195.782816 219.541029 179.834832 219.541029 169.07906C219.541029 167.966404 219.819193 165.880173 220.375522 162.820368S221.210014 157.859784 221.210014 157.118003C221.210014 152.85283 219.726473 149.190326 216.759388 146.130521C213.792295 143.070715 210.176161 141.540813 205.910987 141.540813C201.460362 141.540813 197.705146 143.070715 194.645341 146.130521S190.055633 152.85283 190.055633 157.118003C190.055633 160.455973 190.704682 163.098532 192.002782 165.045681S194.784423 168.476362 196.453408 169.496307S199.605925 172.973358 200.904033 176.867656S202.851182 186.139784 202.851182 193.001174C202.851182 197.822677 202.387574 205.611272 201.460362 216.36696C189.406592 203.942287 183.379694 193.835667 183.379694 186.047072L183.657858 183.543594C183.843301 181.87461 184.075104 180.159255 184.353268 178.397558S184.770515 175.569547 184.770515 175.198671C184.770515 171.118921 183.240612 167.502788 180.180807 164.35027S173.551238 159.62148 169.471488 159.62148C165.206314 159.62148 161.497441 161.151383 158.344924 164.211188S153.616134 170.933497 153.616134 175.198671C153.616134 182.801814 157.881307 188.550549 166.411683 192.444846C166.782567 199.862565 170.120529 216.552412 176.425591 242.514387C176.425591 244.183372 179.902643 249.283038 186.856745 257.813414S197.2879 271.907072 197.2879 274.503261C197.2879 276.172245 195.9898 279.695667 193.393602 285.073497S189.499305 294.901953 189.499305 298.425375V302.876001C189.499305 307.141174 196.221613 310.061898 209.666203 311.63817C223.110793 313.214435 236.601752 314.002565 250.139082 314.002565C265.159944 314.002565 278.975522 313.121711 291.585535 311.360006C304.195633 309.598301 310.500695 306.770298 310.500695 302.876001V298.425375C310.500695 294.531077 309.248957 289.894999 306.74548 284.517169S302.990264 275.801369 302.990264 274.503261C302.990264 270.608963 306.0037 265.323845 312.030598 258.647906S321.905424 246.594137 323.574409 242.514387C329.879471 216.923289 333.217441 200.233442 333.588317 192.444846C342.118693 188.550549 346.383866 182.801814 346.383866 175.198671C346.383866 170.933497 344.807602 167.270994 341.655076 164.211188C338.502559 161.151383 334.886426 159.62148 330.806676 159.62148C326.541502 159.62148 322.878999 161.151383 319.819193 164.211188S315.229485 170.933497 315.229485 175.198671C315.229485 175.384114 315.461289 177.14582 315.924896 180.483789S316.620306 185.676195 316.620306 186.047072C316.620306 194.206543 310.686147 204.313191 298.817803 216.36696C297.89059 208.207489 297.426982 200.418894 297.426982 193.001174C297.426982 186.325236 298.076031 180.993747 299.374131 177.006738S302.155772 170.516251 303.824757 169.496307S306.977274 166.946468 308.275382 164.906599S310.222531 160.270521 310.222531 157.118003C310.222531 152.85283 308.646267 149.190326 305.493741 146.130521S298.63235 141.540813 294.367177 141.540813C290.102003 141.540813 286.439499 143.070715 283.379694 146.130521S278.789986 152.85283 278.789986 157.118003L279.624478 162.403122C280.180807 165.926543 280.458971 168.151856 280.458971 169.07906C280.458971 179.649297 275.452017 195.597364 265.438108 216.923289C261.543811 200.047989 259.596662 186.6034 259.596662 176.589492ZM169.471488 168.522732C171.140473 168.522732 172.670376 169.171781 174.061196 170.469881C175.452017 171.767981 176.147427 173.344234 176.147427 175.198671C176.147427 177.23854 175.498378 178.953887 174.200278 180.344707S171.325925 182.430938 169.471488 182.430938C164.83541 182.430938 162.517385 180.020181 162.517385 175.198671C162.517385 170.748045 164.835419 168.522732 169.471488 168.522732ZM205.910987 150.720229C207.765416 150.720229 209.341669 151.415639 210.639777 152.80646S212.586926 155.819895 212.586926 157.674332S211.937878 161.151383 210.639777 162.542204S207.765424 164.628435 205.910987 164.628435C201.089485 164.628435 198.67872 162.310401 198.67872 157.674332S201.089477 150.720229 205.910987 150.720229ZM294.367177 150.720229C299.003255 150.720229 301.32128 153.038262 301.32128 157.674332S299.003246 164.628435 294.367177 164.628435C289.916551 164.628435 287.691238 162.310401 287.691238 157.674332S289.916551 150.720229 294.367177 150.720229ZM330.806676 168.522732C335.442754 168.522732 337.760779 170.748045 337.760779 175.198671C337.760779 180.020173 335.442745 182.430938 330.806676 182.430938C326.35605 182.430938 324.130737 180.020181 324.130737 175.198671C324.130737 173.344243 324.826147 171.767989 326.216968 170.469881C327.607789 169.171781 329.137691 168.522732 330.806676 168.522732ZM249.860918 186.325236C251.529903 196.524596 253.384339 204.544985 255.4242 210.386432S259.318498 220.35397 260.987483 222.764735S263.676403 227.122649 264.047288 228.606181C264.974501 227.493525 266.550765 225.639088 268.776078 223.042899S272.392211 218.684985 272.94854 217.757781S274.571163 215.207942 276.147427 212.889909S278.975438 208.300201 279.902643 206.074888S282.035235 200.882482 283.518776 197.173636S286.578581 189.199589 288.247566 184.378087C287.876682 186.974284 287.691238 189.663205 287.691238 192.444846C287.691238 201.160646 289.267502 214.605263 292.420028 232.778643C302.433936 226.844485 312.16968 217.386905 321.62726 204.405903C317.176634 226.473581 313.745953 238.805625 311.335188 241.401731C310.964303 241.772615 310.593416 242.050779 310.222531 242.236223C295.016217 233.520423 274.895688 229.16251 249.860918 229.16251C224.640695 229.16251 204.520167 233.520423 189.499305 242.236223C186.161335 241.123567 182.45249 228.513469 178.37274 204.405903C188.015772 217.757781 197.658776 227.215361 207.301808 232.778643C210.454325 216.645124 212.030598 203.942204 212.030598 194.670159C212.030598 192.259403 211.845155 188.828713 211.47427 184.378087C214.255911 192.908462 217.083922 200.094359 219.958275 205.935806C222.832629 211.777252 225.150682 215.71792 226.912378 217.757781S230.38943 221.744791 232.058414 223.599227S234.932768 227.122649 235.674548 228.606181C236.601761 226.937197 237.714417 225.036418 239.012517 222.903817S241.14511 219.241314 241.515994 218.314109S242.53593 215.57883 243.463143 212.889909S245.317572 206.86301 246.244784 202.876001S248.377377 193.372051 249.860918 186.325236Z" fill="#da0a0a" />
<path d="M249.860918 448.584361C260.060278 448.584361 269.5642 448.259835 278.37274 447.610787C287.18128 446.961738 292.327316 446.637212 293.810848 446.637212C296.036161 446.637212 297.426982 446.776294 297.98331 447.054458S298.817803 448.028033 298.817803 449.140689C298.817803 452.849535 293.115438 455.677546 281.710709 457.624695S259.782114 460.545418 250.139082 460.545418C240.310626 460.545418 229.740389 459.571844 218.428373 457.624695C207.116356 455.677546 201.460362 452.849535 201.460362 449.140689C201.460362 448.213476 201.738526 447.564425 202.294854 447.19354S204.242003 446.637212 206.467316 446.637212C206.652759 446.637212 212.21605 446.961738 223.157163 447.610787S242.999527 448.584361 249.860918 448.584361ZM295.201669 436.066976C280.551683 437.921404 265.530737 438.848617 250.139082 438.848617C234.005563 438.848617 218.984701 437.921404 205.076495 436.066976C207.301808 434.212547 208.414465 430.596406 208.414465 425.218575C208.414465 421.695154 207.858136 419.562581 206.74548 418.8208C218.057497 420.86067 232.522031 421.880606 250.139082 421.880606C267.941586 421.880606 282.40612 420.86067 293.532684 418.8208C292.420028 419.562572 291.8637 421.695154 291.8637 425.218575C291.8637 430.596406 292.976356 434.212539 295.201669 436.066976ZM295.479833 404.356266C295.479833 409.548673 280.366259 412.144862 250.139082 412.144862S204.798331 409.548664 204.798331 404.356266C204.798331 399.720189 219.911905 397.402163 250.139082 397.402163S295.479833 399.720197 295.479833 404.356266ZM250.139082 557.624695C245.503004 557.624695 243.184979 555.399382 243.184979 550.948756C243.184979 546.127254 245.503013 543.716489 250.139082 543.716489C254.589708 543.716489 256.815021 546.127246 256.815021 550.948756C256.815021 555.399382 254.589708 557.624695 250.139082 557.624695ZM240.403338 523.410508C240.403338 529.715571 239.429764 535.557017 237.482615 540.934848S234.561892 549.372483 234.561892 550.114264C234.561892 554.379437 236.091794 558.041941 239.151599 561.101746S245.873908 565.691454 250.139082 565.691454S258.020389 564.161552 260.987483 561.101746S265.438108 554.379437 265.438108 550.114264C265.438108 549.372492 264.418172 546.359048 262.378303 541.07393S259.318498 529.900995 259.318498 523.410508C259.318498 514.323805 261.358367 500.879215 265.438108 483.076711C275.452017 504.217184 280.458971 520.165168 280.458971 530.92094C280.458971 532.033596 280.180807 534.119827 279.624478 537.179632S278.789986 542.140216 278.789986 542.881997C278.789986 547.14717 280.273527 550.809674 283.240612 553.869479C286.207705 556.929285 289.823839 558.459187 294.089013 558.459187C298.539638 558.459187 302.294854 556.929285 305.354659 553.869479S309.944367 547.14717 309.944367 542.881997C309.944367 539.544027 309.295318 536.901468 307.997218 534.954319S305.215577 531.523638 303.546592 530.503693S300.394075 527.026642 299.095967 523.132344S297.148818 513.860216 297.148818 506.998826C297.148818 502.177323 297.612426 494.388728 298.539638 483.63304C310.593408 496.057713 316.620306 506.164333 316.620306 513.952928L316.342142 516.456406C316.156699 518.12539 315.924896 519.840745 315.646732 521.602442S315.229485 524.430453 315.229485 524.801329C315.229485 528.881079 316.759388 532.497212 319.819193 535.64973S326.448762 540.37852 330.528512 540.37852C334.793686 540.37852 338.502559 538.848617 341.655076 535.788812S346.383866 529.066503 346.383866 524.801329C346.383866 517.198186 342.118693 511.449451 333.588317 507.555154C333.217433 500.137435 329.879471 483.447588 323.574409 457.485613C323.574409 455.816628 320.097357 450.716962 313.143255 442.186586S302.7121 428.092928 302.7121 425.496739C302.7121 423.827755 304.0102 420.304333 306.606398 414.926503S310.500695 405.098047 310.500695 401.574625V397.123999C310.500695 392.858826 303.778387 389.938102 290.333797 388.36183C276.889207 386.785565 263.398248 385.997435 249.860918 385.997435C234.840056 385.997435 221.024478 386.878289 208.414465 388.639994C195.804367 390.401699 189.499305 393.229702 189.499305 397.123999V401.574625C189.499305 405.468923 190.751043 410.105001 193.25452 415.482831S197.009736 424.198631 197.009736 425.496739C197.009736 429.391037 193.9963 434.676155 187.969402 441.352094S178.094576 453.405863 176.425591 457.485613C170.120529 483.076711 166.782559 499.766558 166.411683 507.555154C157.881307 511.449451 153.616134 517.198186 153.616134 524.801329C153.616134 529.066503 155.192398 532.729006 158.344924 535.788812C161.497441 538.848617 165.113574 540.37852 169.193324 540.37852C173.458498 540.37852 177.121001 538.848617 180.180807 535.788812S184.770515 529.066503 184.770515 524.801329C184.770515 524.615886 184.538711 522.85418 184.075104 519.516211S183.379694 514.323805 183.379694 513.952928C183.379694 505.793457 189.313853 495.686809 201.182197 483.63304C202.10941 491.792511 202.573018 499.581106 202.573018 506.998826C202.573018 513.674764 201.923969 519.006253 200.625869 522.993262S197.844228 529.483749 196.175243 530.503693S193.022726 533.053532 191.724618 535.093401S189.777469 539.729479 189.777469 542.881997C189.777469 547.14717 191.353733 550.809674 194.506259 553.869479S201.36765 558.459187 205.632823 558.459187C209.897997 558.459187 213.560501 556.929285 216.620306 553.869479S221.210014 547.14717 221.210014 542.881997L220.375522 537.596878C219.819193 534.073457 219.541029 531.848144 219.541029 530.92094C219.541029 520.350703 224.547983 504.402636 234.561892 483.076711C238.456189 499.952011 240.403338 513.3966 240.403338 523.410508ZM330.528512 531.477268C328.859527 531.477268 327.329624 530.828219 325.938804 529.530119C324.547983 528.232019 323.852573 526.655766 323.852573 524.801329C323.852573 522.76146 324.501622 521.046113 325.799722 519.655293S328.674075 517.569062 330.528512 517.569062C335.16459 517.569062 337.482615 519.979819 337.482615 524.801329C337.482615 529.251955 335.164581 531.477268 330.528512 531.477268ZM294.089013 549.279771C292.234584 549.279771 290.658331 548.584361 289.360223 547.19354S287.413074 544.180105 287.413074 542.325668S288.062122 538.848617 289.360223 537.457796S292.234576 535.371565 294.089013 535.371565C298.910515 535.371565 301.32128 537.689599 301.32128 542.325668S298.910523 549.279771 294.089013 549.279771ZM205.632823 549.279771C200.996745 549.279771 198.67872 546.961738 198.67872 542.325668S200.996754 535.371565 205.632823 535.371565C210.083449 535.371565 212.308762 537.689599 212.308762 542.325668S210.083449 549.279771 205.632823 549.279771ZM169.193324 531.477268C164.557246 531.477268 162.239221 529.251955 162.239221 524.801329C162.239221 519.979827 164.557255 517.569062 169.193324 517.569062C173.64395 517.569062 175.869263 519.979819 175.869263 524.801329C175.869263 526.655757 175.173853 528.232011 173.783032 529.530119C172.392211 530.828219 170.862309 531.477268 169.193324 531.477268ZM250.139082 513.674764C248.470097 503.475404 246.615661 495.455015 244.5758 489.613568S240.681502 479.64603 239.012517 477.235265S236.323597 472.877351 235.952712 471.393819C235.025499 472.506475 233.449235 474.360912 231.223922 476.957101S227.607789 481.315015 227.05146 482.242219S225.428837 484.792058 223.852573 487.110091S221.024562 491.699799 220.097357 493.925112S217.964765 499.117518 216.481224 502.826364S213.421419 510.800411 211.752434 515.621913C212.123318 513.025716 212.308762 510.336795 212.308762 507.555154C212.308762 498.839354 210.732498 485.394737 207.579972 467.221357C197.566064 473.155515 187.83032 482.613095 178.37274 495.594097C182.823366 473.526419 186.254047 461.194375 188.664812 458.598269C189.035697 458.227385 189.406584 457.949221 189.777469 457.763777C204.983783 466.479577 225.104312 470.83749 250.139082 470.83749C275.359305 470.83749 295.479833 466.479577 310.500695 457.763777C313.838665 458.876433 317.54751 471.486531 321.62726 495.594097C311.984228 482.242219 302.341224 472.784639 292.698192 467.221357C289.545675 483.354876 287.969402 496.057796 287.969402 505.329841C287.969402 507.740597 288.154845 511.171287 288.52573 515.621913C285.744089 507.091538 282.916078 499.905641 280.041725 494.064194C277.167371 488.222748 274.849318 484.28208 273.087622 482.242219S269.61057 478.255209 267.941586 476.400773S265.067232 472.877351 264.325452 471.393819C263.398239 473.062803 262.285583 474.963582 260.987483 477.096183S258.85489 480.758686 258.484006 481.685891S257.46407 484.42117 256.536857 487.110091S254.682428 493.13699 253.755216 497.123999S251.622623 506.627949 250.139082 513.674764Z" fill="#da0a0a" />
<path d="M444.947121 111.87296Q447.579318 110.968142 449.553467 109.610915T454.653349 105.786003Q457.121034 103.729599 459.054054 102.331244T463.207991 99.781303Q465.840188 98.465204 469.459459 97.642643Q478.096357 95.668495 482.044653 92.625016Q486.897767 88.841233 489.571093 83.165557T492.244418 71.0739Q492.244418 62.437002 488.33725 56.021021T478.343126 46.191409T466.0047 42.777778Q458.108108 42.777778 452.021152 46.520433T442.685076 56.391174T439.435958 69.593289Q439.435958 78.80598 444.083431 85.67437T456.380729 95.586238Q457.696827 96.162032 459.753231 96.244288V96.4088Q457.532315 96.655569 455.722679 97.560386Q452.514689 99.123254 447.085781 103.07155Q443.055229 105.950516 440.587544 107.307743T435.73443 108.664969Q434.253819 108.500457 433.554642 107.719023T432.855464 105.786003Q432.855464 103.811855 434.377203 102.125604T438.284371 100.357096Q438.53114 99.040998 437.297297 97.807155T433.59577 96.573312Q432.526439 96.573312 431.169213 97.313618T428.783784 99.534535T427.755582 103.153806Q427.755582 105.621491 429.441833 107.80128T433.719154 111.338295T438.942421 112.777778Q442.314924 112.777778 444.947121 111.87296ZM456.709753 91.185533Q452.925969 87.771902 451.075206 82.096227T449.224442 69.593289Q449.224442 63.259564 451.116334 57.954041T456.833137 49.481656T466.086957 46.314793Q474.312573 46.314793 478.425382 53.265439T482.53819 70.827131Q482.53819 77.243113 480.687427 82.67202T475.135135 91.350046T466.086957 94.599164Q460.493537 94.599164 456.709753 91.185533Z" fill="#da0a0a" />
<path d="M460.064904 132.222456C459.026435 134.299394 456.5168 138.031391 452.536004 143.418449C448.555209 148.805507 445.353239 152.840413 442.930166 155.523103C445.959036 158.984665 449.215065 163.095295 452.698265 167.854923C456.181465 172.61457 458.637009 176.292483 460.064904 178.888656C463.266848 173.177076 468.935182 165.388559 477.069834 155.523103C468.718791 145.441322 463.050503 137.674418 460.064904 132.222456Z" fill="#da0a0a" />
<path d="M55.052879 588.12704Q52.420682 589.031858 50.446533 590.389085T45.346651 594.213997Q42.878966 596.270401 40.945946 597.668756T36.792009 600.218697Q34.159812 601.534796 30.540541 602.357357Q21.903643 604.331505 17.955347 607.374984Q13.102233 611.158767 10.428907 616.834443T7.755582 628.9261Q7.755582 637.562998 11.66275 643.978979T21.656874 653.808591T33.9953 657.222222Q41.891892 657.222222 47.978848 653.479567T57.314924 643.608826T60.564042 630.406711Q60.564042 621.19402 55.916569 614.32563T43.619271 604.413762Q42.303173 603.837968 40.246769 603.755712V603.5912Q42.467685 603.344431 44.277321 602.439614Q47.485311 600.876746 52.914219 596.92845Q56.944771 594.049484 59.412456 592.692257T64.26557 591.335031Q65.746181 591.499543 66.445358 592.280977T67.144536 594.213997Q67.144536 596.188145 65.622797 597.874396T61.715629 599.642904Q61.46886 600.959002 62.702703 602.192845T66.40423 603.426688Q67.473561 603.426688 68.830787 602.686382T71.216216 600.465465T72.244418 596.846194Q72.244418 594.378509 70.558167 592.19872T66.280846 588.661705T61.057579 587.222222Q57.685076 587.222222 55.052879 588.12704ZM43.290247 608.814467Q47.074031 612.228098 48.924794 617.903773T50.775558 630.406711Q50.775558 636.740436 48.883666 642.045959T43.166863 650.518344T33.913043 653.685207Q25.687427 653.685207 21.574618 646.734561T17.46181 629.172869Q17.46181 622.756887 19.312573 617.32798T24.864865 608.649954T33.913043 605.400836Q39.506463 605.400836 43.290247 608.814467Z" fill="#da0a0a" />
<path d="M39.935096 567.777544C40.973565 565.700606 43.4832 561.968609 47.463996 556.581551C51.444791 551.194493 54.646761 547.159587 57.069834 544.476897C54.040964 541.015335 50.784935 536.904705 47.301735 532.145077C43.818535 527.38543 41.362991 523.707517 39.935096 521.111344C36.733152 526.822924 31.064818 534.611441 22.930166 544.476897C31.281209 554.558678 36.949497 562.325582 39.935096 567.777544Z" fill="#da0a0a" />
</svg>
