<svg width="500.000000" height="700.000000" id="card-webclub12">
<radialGradient id="card-webwhitegradient" cx="250.0" cy="350.0" r="500" gradientTransform="matrix(1 0 0 1 0 -.25)" gradientUnits="userSpaceOnUse">
<stop stop-color="#FDFAF4" offset=".15"/>
<stop stop-color="#FDF9F2" offset=".35"/>
<stop stop-color="#FCF7F1" offset=".5"/>
<stop stop-color="#FDFDF8" offset=".75"/>
<stop stop-color="#FFFDFA" offset="1"/>
</radialGradient>
<rect x="0" y="0" rx="25.0" ry="25.0" width="500" height="700.0" fill="url(#card-webwhitegradient)" />
<rect x="100.0" y="70.0" width="300.0" height="560.0" stroke="#010101" fill="#fffdfa" />
<path d="M250.141643 251.917595C239.754476 251.917595 230.075552 252.248097 221.104816 252.909097C212.134079 253.570097 206.893286 253.900598 205.382436 253.900598C203.116147 253.900598 201.699717 253.758955 201.133144 253.475669S200.283286 252.484167 200.283286 251.351023C200.283286 247.573884 206.090652 244.693799 217.705382 242.710796S240.037762 239.736292 249.858357 239.736292C259.86779 239.736292 270.632663 240.727794 282.152975 242.710796C293.673286 244.693799 299.433428 247.573884 299.433428 251.351023C299.433428 252.295309 299.150142 252.956312 298.583569 253.334026S296.600567 253.900598 294.334278 253.900598C294.14542 253.900598 288.479688 253.570097 277.33711 252.909097S257.129377 251.917595 250.141643 251.917595ZM203.966006 264.665471C218.885751 262.776895 234.183286 261.832609 249.858357 261.832609C266.288952 261.832609 281.586402 262.776895 295.750708 264.665471C293.484419 266.554046 292.351275 270.236774 292.351275 275.713629C292.351275 279.301929 292.917847 281.473771 294.050992 282.22921C282.53068 280.151779 267.799802 279.113063 249.858357 279.113063C231.728045 279.113063 216.997167 280.151779 205.665722 282.22921C206.798867 281.473779 207.365439 279.301929 207.365439 275.713629C207.365439 270.236774 206.232295 266.554054 203.966006 264.665471ZM203.68272 296.960088C203.68272 291.672071 219.074589 289.028077 249.858357 289.028077S296.033994 291.67208 296.033994 296.960088C296.033994 301.681533 280.642125 304.042241 249.858357 304.042241S203.68272 301.681524 203.68272 296.960088ZM249.858357 140.869437C254.579802 140.869437 256.94051 143.135726 256.94051 147.668303C256.94051 152.578587 254.579793 155.033743 249.858357 155.033743C245.325779 155.033743 243.05949 152.578595 243.05949 147.668303C243.05949 143.135726 245.325779 140.869437 249.858357 140.869437ZM259.773371 175.713629C259.773371 169.292468 260.764873 163.343459 262.747875 157.866604S265.72238 149.273601 265.72238 148.518162C265.72238 144.174451 264.164306 140.444507 261.048159 137.32836S254.202068 132.654139 249.858357 132.654139S241.831926 134.212213 238.810198 137.32836S234.27762 144.174451 234.27762 148.518162C234.27762 149.273592 235.316337 152.342524 237.393768 157.724961S240.509915 169.103629 240.509915 175.713629C240.509915 184.967652 238.432484 198.659805 234.27762 216.790116C224.07932 195.260371 218.98017 179.018728 218.98017 168.064904C218.98017 166.93176 219.263456 164.807114 219.830028 161.690966S220.679887 156.63904 220.679887 155.883601C220.679887 151.53989 219.169028 147.809946 216.147309 144.693799C213.125581 141.577652 209.442861 140.019578 205.09915 140.019578C200.566572 140.019578 196.74221 141.577652 193.626062 144.693799S188.951841 151.53989 188.951841 155.883601C188.951841 159.283034 189.612841 161.974252 190.934844 163.957255S193.767705 167.451108 195.467422 168.489833S198.677989 172.03091 200.0 175.996915S201.983003 185.439777 201.983003 192.42751C201.983003 197.337794 201.510858 205.269805 200.566572 216.223544C188.29085 203.570088 182.152975 193.277369 182.152975 185.345357L182.436261 182.795782C182.625118 181.096065 182.86119 179.349125 183.144476 177.554989S183.569405 174.674904 183.569405 174.297199C183.569405 170.142326 182.011331 166.459607 178.895184 163.24904S172.143541 158.433176 167.988669 158.433176C163.644958 158.433176 159.86779 159.99125 156.657224 163.107397S151.84136 169.953488 151.84136 174.297199C151.84136 182.040343 156.185071 187.894932 164.872521 191.860938C165.250235 199.415244 168.64966 216.412411 175.070822 242.852439C175.070822 244.552156 178.611898 249.745726 185.694051 258.433176S196.31728 272.786349 196.31728 275.430343C196.31728 277.13006 194.995278 280.71836 192.351275 286.195216S188.385269 296.204649 188.385269 299.792949V304.325527C188.385269 308.669238 195.23136 311.643743 208.923513 313.24904C222.615666 314.854329 236.355042 315.656972 250.141643 315.656972C265.439093 315.656972 279.509065 314.759898 292.351275 312.965754C305.193569 311.171609 311.614731 308.291533 311.614731 304.325527V299.792949C311.614731 295.826944 310.339943 291.105499 307.790368 285.628643S303.966006 276.752354 303.966006 275.430343C303.966006 271.464337 307.034929 266.081901 313.172805 259.283034S323.229462 247.007312 324.929178 242.852439C331.35034 216.790116 334.749773 199.792949 335.127479 191.860938C343.814929 187.894932 348.15864 182.040343 348.15864 174.297199C348.15864 169.953488 346.553351 166.223544 343.342776 163.107397C340.13221 159.99125 336.44949 158.433176 332.294618 158.433176C327.950907 158.433176 324.220963 159.99125 321.104816 163.107397S316.430595 169.953488 316.430595 174.297199C316.430595 174.486056 316.666667 176.280201 317.13881 179.679635S317.847025 184.967652 317.847025 185.345357C317.847025 193.655074 311.803598 203.947822 299.716714 216.223544C298.772428 207.913828 298.300283 199.981816 298.300283 192.42751C298.300283 185.628643 298.961283 180.198983 300.283286 176.138558S303.116147 169.528558 304.815864 168.489833S308.026431 165.893043 309.348442 163.815612S311.331445 159.094167 311.331445 155.883601C311.331445 151.53989 309.726156 147.809946 306.515581 144.693799S299.527847 140.019578 295.184136 140.019578C290.840425 140.019578 287.110482 141.577652 283.994334 144.693799S279.320113 151.53989 279.320113 155.883601L280.169972 161.266037C280.736544 164.854337 281.01983 167.120626 281.01983 168.064904C281.01983 178.829777 275.92068 195.071505 265.72238 216.790116C261.756374 199.604082 259.773371 185.911929 259.773371 175.713629ZM167.988669 167.498332C169.688385 167.498332 171.246459 168.159332 172.66289 169.481335C174.07932 170.803337 174.787535 172.408615 174.787535 174.297199C174.787535 176.374629 174.126535 178.121561 172.804533 179.537992S169.877252 181.662638 167.988669 181.662638C163.267224 181.662638 160.906516 179.20749 160.906516 174.297199C160.906516 169.764621 163.267232 167.498332 167.988669 167.498332ZM205.09915 149.36802C206.987725 149.36802 208.593003 150.076235 209.915014 151.492666S211.898017 154.56159 211.898017 156.450173S211.237017 159.99125 209.915014 161.40768S206.987734 163.532326 205.09915 163.532326C200.188867 163.532326 197.733711 161.171609 197.733711 156.450173S200.188858 149.36802 205.09915 149.36802ZM295.184136 149.36802C299.905581 149.36802 302.266289 151.728737 302.266289 156.450173S299.905572 163.532326 295.184136 163.532326C290.651558 163.532326 288.385269 161.171609 288.385269 156.450173S290.651558 149.36802 295.184136 149.36802ZM332.294618 167.498332C337.016062 167.498332 339.376771 169.764621 339.376771 174.297199C339.376771 179.207482 337.016054 181.662638 332.294618 181.662638C327.76204 181.662638 325.495751 179.20749 325.495751 174.297199C325.495751 172.408624 326.203966 170.803346 327.620397 169.481335C329.036827 168.159332 330.594901 167.498332 332.294618 167.498332ZM249.858357 185.628643C251.558074 196.015811 253.446657 204.183884 255.524079 210.132893S259.490085 220.283969 261.189802 222.739125S263.928235 227.177284 264.305949 228.688133C265.250235 227.554989 266.855524 225.666405 269.121813 223.022411S272.804533 218.584252 273.371105 217.639975S275.023606 215.043184 276.628895 212.682468S279.50898 208.008247 280.453258 205.741958S282.625119 200.453941 284.135977 196.676802S287.252125 188.555924 288.951841 183.645641C288.574127 186.289643 288.385269 189.028077 288.385269 191.860938C288.385269 200.737227 289.990558 214.429408 293.201133 232.937425C303.399433 226.893997 313.314448 217.262269 322.946176 204.042241C318.413598 226.516264 314.919745 239.075386 312.464589 241.719295C312.086875 242.097009 311.709159 242.380295 311.331445 242.569153C295.845127 233.692864 275.354108 229.254706 249.858357 229.254706C224.173739 229.254706 203.68272 233.692864 188.385269 242.569153C184.985836 241.436009 181.208697 228.593714 177.053824 204.042241C186.874419 217.639975 196.694986 227.271703 206.515581 232.937425C209.726147 216.50683 211.331445 203.570003 211.331445 194.127227C211.331445 191.67208 211.142587 188.178218 210.764873 183.645641C213.597734 192.333091 216.477819 199.651306 219.405099 205.600315C222.33238 211.549323 224.693116 215.562553 226.487252 217.639975S230.028329 221.7004 231.728045 223.588983S234.655326 227.177284 235.410765 228.688133C236.355051 226.988417 237.488195 225.052638 238.810198 222.880768S240.982059 219.150825 241.359773 218.206547S242.39849 215.420901 243.342776 212.682468S245.231351 206.544592 246.175637 202.484167S248.347499 192.805216 249.858357 185.628643Z" fill="#010101" />
<path d="M249.858357 448.082405C260.245524 448.082405 269.924448 447.751903 278.895184 447.090903C287.865921 446.429903 293.106714 446.099402 294.617564 446.099402C296.883853 446.099402 298.300283 446.241045 298.866856 446.524331S299.716714 447.515833 299.716714 448.648977C299.716714 452.426116 293.909348 455.306201 282.294618 457.289204S259.962238 460.263708 250.141643 460.263708C240.13221 460.263708 229.367337 459.272206 217.847025 457.289204C206.326714 455.306201 200.566572 452.426116 200.566572 448.648977C200.566572 447.704691 200.849858 447.043688 201.416431 446.665974S203.399433 446.099402 205.665722 446.099402C205.85458 446.099402 211.520312 446.429903 222.66289 447.090903S242.870623 448.082405 249.858357 448.082405ZM296.033994 435.334529C281.114249 437.223105 265.816714 438.167391 250.141643 438.167391C233.711048 438.167391 218.413598 437.223105 204.249292 435.334529C206.515581 433.445954 207.648725 429.763226 207.648725 424.286371C207.648725 420.698071 207.082153 418.526229 205.949008 417.77079C217.46932 419.848221 232.200198 420.886937 250.141643 420.886937C268.271955 420.886937 283.002833 419.848221 294.334278 417.77079C293.201133 418.526221 292.634561 420.698071 292.634561 424.286371C292.634561 429.763226 293.767705 433.445946 296.033994 435.334529ZM296.31728 403.039912C296.31728 408.327929 280.925411 410.971923 250.141643 410.971923S203.966006 408.32792 203.966006 403.039912C203.966006 398.318467 219.357875 395.957759 250.141643 395.957759S296.31728 398.318476 296.31728 403.039912ZM250.141643 559.130563C245.420198 559.130563 243.05949 556.864274 243.05949 552.331697C243.05949 547.421413 245.420207 544.966257 250.141643 544.966257C254.674221 544.966257 256.94051 547.421405 256.94051 552.331697C256.94051 556.864274 254.674221 559.130563 250.141643 559.130563ZM240.226629 524.286371C240.226629 530.707532 239.235127 536.656541 237.252125 542.133396S234.27762 550.726399 234.27762 551.481838C234.27762 555.825549 235.835694 559.555493 238.951841 562.67164S245.797932 567.345861 250.141643 567.345861S258.168074 565.787787 261.189802 562.67164S265.72238 555.825549 265.72238 551.481838C265.72238 550.726408 264.683663 547.657476 262.606232 542.275039S259.490085 530.896371 259.490085 524.286371C259.490085 515.032348 261.567516 501.340195 265.72238 483.209884C275.92068 504.739629 281.01983 520.981272 281.01983 531.935096C281.01983 533.06824 280.736544 535.192886 280.169972 538.309034S279.320113 543.36096 279.320113 544.116399C279.320113 548.46011 280.830972 552.190054 283.852691 555.306201C286.874419 558.422348 290.557139 559.980422 294.90085 559.980422C299.433428 559.980422 303.25779 558.422348 306.373938 555.306201S311.048159 548.46011 311.048159 544.116399C311.048159 540.716966 310.387159 538.025748 309.065156 536.042745S306.232295 532.548892 304.532578 531.510167S301.322011 527.96909 300.0 524.003085S298.016997 514.560223 298.016997 507.57249C298.016997 502.662206 298.489142 494.730195 299.433428 483.776456C311.70915 496.429912 317.847025 506.722631 317.847025 514.654643L317.563739 517.204218C317.374882 518.903935 317.13881 520.650875 316.855524 522.445011S316.430595 525.325096 316.430595 525.702801C316.430595 529.857674 317.988669 533.540393 321.104816 536.75096S327.856459 541.566824 332.011331 541.566824C336.355042 541.566824 340.13221 540.00875 343.342776 536.892603S348.15864 530.046512 348.15864 525.702801C348.15864 517.959657 343.814929 512.105068 335.127479 508.139062C334.749765 500.584756 331.35034 483.587589 324.929178 457.147561C324.929178 455.447844 321.388102 450.254274 314.305949 441.566824S303.68272 427.213651 303.68272 424.569657C303.68272 422.86994 305.004722 419.28164 307.648725 413.804784S311.614731 403.795351 311.614731 400.207051V395.674473C311.614731 391.330762 304.76864 388.356257 291.076487 386.75096C277.384334 385.145671 263.644958 384.343028 249.858357 384.343028C234.560907 384.343028 220.490935 385.240102 207.648725 387.034246C194.806431 388.828391 188.385269 391.708467 188.385269 395.674473V400.207051C188.385269 404.173056 189.660057 408.894501 192.209632 414.371357S196.033994 423.247646 196.033994 424.569657C196.033994 428.535663 192.965071 433.918099 186.827195 440.716966S176.770538 452.992688 175.070822 457.147561C168.64966 483.209884 165.250227 500.207051 164.872521 508.139062C156.185071 512.105068 151.84136 517.959657 151.84136 525.702801C151.84136 530.046512 153.446649 533.776456 156.657224 536.892603C159.86779 540.00875 163.55051 541.566824 167.705382 541.566824C172.049093 541.566824 175.779037 540.00875 178.895184 536.892603S183.569405 530.046512 183.569405 525.702801C183.569405 525.513944 183.333333 523.719799 182.86119 520.320365S182.152975 515.032348 182.152975 514.654643C182.152975 506.344926 188.196402 496.052178 200.283286 483.776456C201.227572 492.086172 201.699717 500.018184 201.699717 507.57249C201.699717 514.371357 201.038717 519.801017 199.716714 523.861442S196.883853 530.471442 195.184136 531.510167S191.973569 534.106957 190.651558 536.184388S188.668555 540.905833 188.668555 544.116399C188.668555 548.46011 190.273844 552.190054 193.484419 555.306201S200.472153 559.980422 204.815864 559.980422C209.159575 559.980422 212.889518 558.422348 216.005666 555.306201S220.679887 548.46011 220.679887 544.116399L219.830028 538.733963C219.263456 535.145663 218.98017 532.879374 218.98017 531.935096C218.98017 521.170223 224.07932 504.928495 234.27762 483.209884C238.243626 500.395918 240.226629 514.088071 240.226629 524.286371ZM332.011331 532.501668C330.311615 532.501668 328.753541 531.840668 327.33711 530.518665C325.92068 529.196663 325.212465 527.591385 325.212465 525.702801C325.212465 523.625371 325.873465 521.878439 327.195467 520.462008S330.122748 518.337362 332.011331 518.337362C336.732776 518.337362 339.093484 520.79251 339.093484 525.702801C339.093484 530.235379 336.732768 532.501668 332.011331 532.501668ZM294.90085 550.63198C293.012275 550.63198 291.406997 549.923765 290.084986 548.507334S288.101983 545.43841 288.101983 543.549827S288.762983 540.00875 290.084986 538.59232S293.012266 536.467674 294.90085 536.467674C299.811133 536.467674 302.266289 538.828391 302.266289 543.549827S299.811142 550.63198 294.90085 550.63198ZM204.815864 550.63198C200.094419 550.63198 197.733711 548.271263 197.733711 543.549827S200.094428 536.467674 204.815864 536.467674C209.348442 536.467674 211.614731 538.828391 211.614731 543.549827S209.348442 550.63198 204.815864 550.63198ZM167.705382 532.501668C162.983938 532.501668 160.623229 530.235379 160.623229 525.702801C160.623229 520.792518 162.983946 518.337362 167.705382 518.337362C172.23796 518.337362 174.504249 520.79251 174.504249 525.702801C174.504249 527.591376 173.796034 529.196654 172.379603 530.518665C170.963173 531.840668 169.405099 532.501668 167.705382 532.501668ZM250.141643 514.371357C248.441926 503.984189 246.553343 495.816116 244.475921 489.867107S240.509915 479.716031 238.810198 477.260875S236.071765 472.822716 235.694051 471.311867C234.749765 472.445011 233.144476 474.333595 230.878187 476.977589S227.195467 481.415748 226.628895 482.360025S224.976394 484.956816 223.371105 487.317532S220.49102 491.991753 219.546742 494.258042S217.374881 499.546059 215.864023 503.323198S212.747875 511.444076 211.048159 516.354359C211.425873 513.710357 211.614731 510.971923 211.614731 508.139062C211.614731 499.262773 210.009442 485.570592 206.798867 467.062575C196.600567 473.106003 186.685552 482.737731 177.053824 495.957759C181.586402 473.483736 185.080255 460.924614 187.535411 458.280705C187.913125 457.902991 188.290841 457.619705 188.668555 457.430847C204.154873 466.307136 224.645892 470.745294 250.141643 470.745294C275.826261 470.745294 296.31728 466.307136 311.614731 457.430847C315.014164 458.563991 318.791303 471.406286 322.946176 495.957759C313.125581 482.360025 303.305014 472.728297 293.484419 467.062575C290.273853 483.49317 288.668555 496.429997 288.668555 505.872773C288.668555 508.32792 288.857413 511.821782 289.235127 516.354359C286.402266 507.666909 283.522181 500.348694 280.594901 494.399685C277.66762 488.450677 275.306884 484.437447 273.512748 482.360025S269.971671 478.2996 268.271955 476.411017S265.344674 472.822716 264.589235 471.311867C263.644949 473.011583 262.511805 474.947362 261.189802 477.119232S259.017941 480.849175 258.640227 481.793453S257.60151 484.579099 256.657224 487.317532S254.768649 493.455408 253.824363 497.515833S251.652501 507.194784 250.141643 514.371357Z" fill="#010101" />
<path d="M444.947121 111.87296Q447.579318 110.968142 449.553467 109.610915T454.653349 105.786003Q457.121034 103.729599 459.054054 102.331244T463.207991 99.781303Q465.840188 98.465204 469.459459 97.642643Q478.096357 95.668495 482.044653 92.625016Q486.897767 88.841233 489.571093 83.165557T492.244418 71.0739Q492.244418 62.437002 488.33725 56.021021T478.343126 46.191409T466.0047 42.777778Q458.108108 42.777778 452.021152 46.520433T442.685076 56.391174T439.435958 69.593289Q439.435958 78.80598 444.083431 85.67437T456.380729 95.586238Q457.696827 96.162032 459.753231 96.244288V96.4088Q457.532315 96.655569 455.722679 97.560386Q452.514689 99.123254 447.085781 103.07155Q443.055229 105.950516 440.587544 107.307743T435.73443 108.664969Q434.253819 108.500457 433.554642 107.719023T432.855464 105.786003Q432.855464 103.811855 434.377203 102.125604T438.284371 100.357096Q438.53114 99.040998 437.297297 97.807155T433.59577 96.573312Q432.526439 96.573312 431.169213 97.313618T428.783784 99.534535T427.755582 103.153806Q427.755582 105.621491 429.441833 107.80128T433.719154 111.338295T438.942421 112.777778Q442.314924 112.777778 444.947121 111.87296ZM456.709753 91.185533Q452.925969 87.771902 451.075206 82.096227T449.224442 69.593289Q449.224442 63.259564 451.116334 57.954041T456.833137 49.481656T466.086957 46.314793Q474.312573 46.314793 478.425382 53.265439T482.53819 70.827131Q482.53819 77.243113 480.687427 82.67202T475.135135 91.350046T466.086957 94.599164Q460.493537 94.599164 456.709753 91.185533Z" fill="#010101" />
<path d="M459.074608 159.488472C459.030542 160.810461 458.975459 161.87907 458.909359 162.694294C458.84326 163.509519 458.678011 164.545079 458.413614 165.800968S457.829735 168.092417 457.455172 168.907641S456.518761 170.637245 455.769636 171.650768S454.139181 173.501552 453.125659 174.162546S450.83421 175.462504 449.291892 176.07943S445.98692 177.181089 444.003937 177.533617V178.855606H475.996063V177.533617C474.01308 177.181087 472.250426 176.685343 470.708108 176.04638S467.876851 174.757441 466.841291 174.096447S464.924408 172.587178 464.197314 171.551618S462.908375 169.601685 462.511778 168.808492S461.795703 166.979739 461.553337 165.701819S461.15674 163.399357 461.090641 162.628195C461.024541 161.857033 460.969459 160.810461 460.925392 159.488472C461.982983 161.427386 462.842276 162.793444 463.50327 163.586637C464.69306 165.084893 466.158266 166.274683 467.898882 167.156006C469.639499 168.03733 471.347072 168.477995 473.021588 168.477995C475.841833 168.477995 478.265475 167.431423 480.292526 165.338272S483.3331 160.72233 483.3331 157.769887C483.3331 154.90558 482.418727 152.459901 480.589974 150.432849S476.546889 147.392276 473.94698 147.392276C473.065657 147.392276 472.250426 147.513458 471.501301 147.755822S470.003045 148.306651 469.253921 148.681214L467.865833 149.375259C469.584418 146.907549 470.44371 144.572031 470.44371 142.368719C470.44371 139.592542 469.419169 137.212963 467.370087 135.22998S462.864307 132.255505 460.0 132.255505S454.678996 133.246997 452.629913 135.22998S449.55629 139.592542 449.55629 142.368719C449.55629 144.572031 450.415582 146.907549 452.134167 149.375259C451.825703 149.24306 451.396055 149.044761 450.845228 148.780364S449.886787 148.317668 449.622389 148.185469S449.016477 147.921071 448.597848 147.788872S447.771605 147.557524 447.375008 147.491425S446.537747 147.392276 446.05302 147.392276C443.453111 147.392276 441.23878 148.405798 439.410026 150.432849S436.6669 154.90558 436.6669 157.769887C436.6669 160.72233 437.680422 163.245121 439.707474 165.338272S444.158167 168.477995 446.978412 168.477995C451.825701 168.477995 455.857747 165.481489 459.074608 159.488472Z" fill="#010101" />
<path d="M55.052879 588.12704Q52.420682 589.031858 50.446533 590.389085T45.346651 594.213997Q42.878966 596.270401 40.945946 597.668756T36.792009 600.218697Q34.159812 601.534796 30.540541 602.357357Q21.903643 604.331505 17.955347 607.374984Q13.102233 611.158767 10.428907 616.834443T7.755582 628.9261Q7.755582 637.562998 11.66275 643.978979T21.656874 653.808591T33.9953 657.222222Q41.891892 657.222222 47.978848 653.479567T57.314924 643.608826T60.564042 630.406711Q60.564042 621.19402 55.916569 614.32563T43.619271 604.413762Q42.303173 603.837968 40.246769 603.755712V603.5912Q42.467685 603.344431 44.277321 602.439614Q47.485311 600.876746 52.914219 596.92845Q56.944771 594.049484 59.412456 592.692257T64.26557 591.335031Q65.746181 591.499543 66.445358 592.280977T67.144536 594.213997Q67.144536 596.188145 65.622797 597.874396T61.715629 599.642904Q61.46886 600.959002 62.702703 602.192845T66.40423 603.426688Q67.473561 603.426688 68.830787 602.686382T71.216216 600.465465T72.244418 596.846194Q72.244418 594.378509 70.558167 592.19872T66.280846 588.661705T61.057579 587.222222Q57.685076 587.222222 55.052879 588.12704ZM43.290247 608.814467Q47.074031 612.228098 48.924794 617.903773T50.775558 630.406711Q50.775558 636.740436 48.883666 642.045959T43.166863 650.518344T33.913043 653.685207Q25.687427 653.685207 21.574618 646.734561T17.46181 629.172869Q17.46181 622.756887 19.312573 617.32798T24.864865 608.649954T33.913043 605.400836Q39.506463 605.400836 43.290247 608.814467Z" fill="#010101" />
<path d="M40.925392 540.511528C40.969458 539.189539 41.024541 538.12093 41.090641 537.305706C41.15674 536.490481 41.321989 535.454921 41.586386 534.199032S42.170265 531.907583 42.544828 531.092359S43.481239 529.362755 44.230364 528.349232S45.860819 526.498448 46.874341 525.837454S49.16579 524.537496 50.708108 523.92057S54.01308 522.818911 55.996063 522.466383V521.144394H24.003937V522.466383C25.98692 522.818913 27.749574 523.314657 29.291892 523.95362S32.123149 525.242559 33.158709 525.903553S35.075592 527.412822 35.802686 528.448382S37.091625 530.398315 37.488222 531.191508S38.204297 533.020261 38.446663 534.298181S38.84326 536.600643 38.909359 537.371805C38.975459 538.142967 39.030541 539.189539 39.074608 540.511528C38.017017 538.572614 37.157724 537.206556 36.49673 536.413363C35.30694 534.915107 33.841734 533.725317 32.101118 532.843994C30.360501 531.96267 28.652928 531.522005 26.978412 531.522005C24.158167 531.522005 21.734525 532.568577 19.707474 534.661728S16.6669 539.27767 16.6669 542.230113C16.6669 545.09442 17.581273 547.540099 19.410026 549.567151S23.453111 552.607724 26.05302 552.607724C26.934343 552.607724 27.749574 552.486542 28.498699 552.244178S29.996955 551.693349 30.746079 551.318786L32.134167 550.624741C30.415582 553.092451 29.55629 555.427969 29.55629 557.631281C29.55629 560.407458 30.580831 562.787037 32.629913 564.77002S37.135693 567.744495 40.0 567.744495S45.321004 566.753003 47.370087 564.77002S50.44371 560.407458 50.44371 557.631281C50.44371 555.427969 49.584418 553.092451 47.865833 550.624741C48.174297 550.75694 48.603945 550.955239 49.154772 551.219636S50.113213 551.682332 50.377611 551.814531S50.983523 552.078929 51.402152 552.211128S52.228395 552.442476 52.624992 552.508575S53.462253 552.607724 53.94698 552.607724C56.546889 552.607724 58.76122 551.594202 60.589974 549.567151S63.3331 545.09442 63.3331 542.230113C63.3331 539.27767 62.319578 536.754879 60.292526 534.661728S55.841833 531.522005 53.021588 531.522005C48.174299 531.522005 44.142253 534.518511 40.925392 540.511528Z" fill="#010101" />
</svg>
