<svg width="25.000000" height="35.000000" id="card-lightheart10">
<rect x="0" y="0" rx="1.25" ry="1.25" width="25" height="35.0" stroke="#010101" fill="#fffdfa" />
<path d="M7.493036 4.336119C7.400186 3.992572 7.250464 3.739554 7.043872 3.577066S6.608635 3.333333 6.357939 3.333333C6.074744 3.333333 5.832173 3.430826 5.630223 3.625812S5.327298 4.055246 5.327298 4.329155C5.327298 4.579851 5.388811 4.835191 5.511838 5.095172S5.79039 5.605849 5.978412 5.847261S6.357939 6.331244 6.552925 6.574977S6.934772 7.0961 7.11351 7.407149S7.418756 8.026927 7.493036 8.333333C7.576602 8.012999 7.710075 7.691504 7.893454 7.368849S8.266017 6.760678 8.461003 6.512303C8.655989 6.263927 8.846332 6.020195 9.032033 5.781105S9.370938 5.301764 9.491643 5.060353S9.672702 4.589136 9.672702 4.370938C9.672702 4.078459 9.574048 3.832405 9.376741 3.632776C9.179434 3.433147 8.936861 3.333333 8.649025 3.333333C8.096565 3.333333 7.711233 3.667595 7.493036 4.336119Z" fill="#da0a0a" />
<path d="M7.506964 30.663881C7.599814 31.007428 7.749536 31.260446 7.956128 31.422934S8.391365 31.666667 8.642061 31.666667C8.925256 31.666667 9.167827 31.569174 9.369777 31.374188S9.672702 30.944754 9.672702 30.670845C9.672702 30.420149 9.611189 30.164809 9.488162 29.904828S9.20961 29.394151 9.021588 29.152739S8.642061 28.668756 8.447075 28.425023S8.065228 27.9039 7.88649 27.592851S7.581244 26.973073 7.506964 26.666667C7.423398 26.987001 7.289925 27.308496 7.106546 27.631151S6.733983 28.239322 6.538997 28.487697C6.344011 28.736073 6.153668 28.979805 5.967967 29.218895S5.629062 29.698236 5.508357 29.939647S5.327298 30.410864 5.327298 30.629062C5.327298 30.921541 5.425952 31.167595 5.623259 31.367224C5.820566 31.566853 6.063139 31.666667 6.350975 31.666667C6.903435 31.666667 7.288767 31.332405 7.506964 30.663881Z" fill="#da0a0a" />
<path d="M7.493036 12.113897C7.400186 11.77035 7.250464 11.517332 7.043872 11.354844S6.608635 11.111111 6.357939 11.111111C6.074744 11.111111 5.832173 11.208604 5.630223 11.40359S5.327298 11.833024 5.327298 12.106933C5.327298 12.357629 5.388811 12.612968 5.511838 12.87295S5.79039 13.383627 5.978412 13.625039S6.357939 14.109022 6.552925 14.352755S6.934772 14.873878 7.11351 15.184927S7.418756 15.804704 7.493036 16.111111C7.576602 15.790777 7.710075 15.469282 7.893454 15.146626S8.266017 14.538456 8.461003 14.29008C8.655989 14.041705 8.846332 13.797973 9.032033 13.558883S9.370938 13.079542 9.491643 12.838131S9.672702 12.366914 9.672702 12.148716C9.672702 11.856236 9.574048 11.610183 9.376741 11.410554C9.179434 11.210925 8.936861 11.111111 8.649025 11.111111C8.096565 11.111111 7.711233 11.445373 7.493036 12.113897Z" fill="#da0a0a" />
<path d="M7.506964 22.886103C7.599814 23.22965 7.749536 23.482668 7.956128 23.645156S8.391365 23.888889 8.642061 23.888889C8.925256 23.888889 9.167827 23.791396 9.369777 23.59641S9.672702 23.166976 9.672702 22.893067C9.672702 22.642371 9.611189 22.387032 9.488162 22.12705S9.20961 21.616373 9.021588 21.374961S8.642061 20.890978 8.447075 20.647245S8.065228 20.126122 7.88649 19.815073S7.581244 19.195296 7.506964 18.888889C7.423398 19.209223 7.289925 19.530718 7.106546 19.853374S6.733983 20.461544 6.538997 20.70992C6.344011 20.958295 6.153668 21.202027 5.967967 21.441117S5.629062 21.920458 5.508357 22.161869S5.327298 22.633086 5.327298 22.851284C5.327298 23.143764 5.425952 23.389817 5.623259 23.589446C5.820566 23.789075 6.063139 23.888889 6.350975 23.888889C6.903435 23.888889 7.288767 23.554627 7.506964 22.886103Z" fill="#da0a0a" />
<path d="M17.493036 4.336119C17.400186 3.992572 17.250464 3.739554 17.043872 3.577066S16.608635 3.333333 16.357939 3.333333C16.074744 3.333333 15.832173 3.430826 15.630223 3.625812S15.327298 4.055246 15.327298 4.329155C15.327298 4.579851 15.388811 4.835191 15.511838 5.095172S15.79039 5.605849 15.978412 5.847261S16.357939 6.331244 16.552925 6.574977S16.934772 7.0961 17.11351 7.407149S17.418756 8.026927 17.493036 8.333333C17.576602 8.012999 17.710075 7.691504 17.893454 7.368849S18.266017 6.760678 18.461003 6.512303C18.655989 6.263927 18.846332 6.020195 19.032033 5.781105S19.370938 5.301764 19.491643 5.060353S19.672702 4.589136 19.672702 4.370938C19.672702 4.078459 19.574048 3.832405 19.376741 3.632776C19.179434 3.433147 18.936861 3.333333 18.649025 3.333333C18.096565 3.333333 17.711233 3.667595 17.493036 4.336119Z" fill="#da0a0a" />
<path d="M17.506964 30.663881C17.599814 31.007428 17.749536 31.260446 17.956128 31.422934S18.391365 31.666667 18.642061 31.666667C18.925256 31.666667 19.167827 31.569174 19.369777 31.374188S19.672702 30.944754 19.672702 30.670845C19.672702 30.420149 19.611189 30.164809 19.488162 29.904828S19.20961 29.394151 19.021588 29.152739S18.642061 28.668756 18.447075 28.425023S18.065228 27.9039 17.88649 27.592851S17.581244 26.973073 17.506964 26.666667C17.423398 26.987001 17.289925 27.308496 17.106546 27.631151S16.733983 28.239322 16.538997 28.487697C16.344011 28.736073 16.153668 28.979805 15.967967 29.218895S15.629062 29.698236 15.508357 29.939647S15.327298 30.410864 15.327298 30.629062C15.327298 30.921541 15.425952 31.167595 15.623259 31.367224C15.820566 31.566853 16.063139 31.666667 16.350975 31.666667C16.903435 31.666667 17.288767 31.332405 17.506964 30.663881Z" fill="#da0a0a" />
<path d="M17.493036 12.113897C17.400186 11.77035 17.250464 11.517332 17.043872 11.354844S16.608635 11.111111 16.357939 11.111111C16.074744 11.111111 15.832173 11.208604 15.630223 11.40359S15.327298 11.833024 15.327298 12.106933C15.327298 12.357629 15.388811 12.612968 15.511838 12.87295S15.79039 13.383627 15.978412 13.625039S16.357939 14.109022 16.552925 14.352755S16.934772 14.873878 17.11351 15.184927S17.418756 15.804704 17.493036 16.111111C17.576602 15.790777 17.710075 15.469282 17.893454 15.146626S18.266017 14.538456 18.461003 14.29008C18.655989 14.041705 18.846332 13.797973 19.032033 13.558883S19.370938 13.079542 19.491643 12.838131S19.672702 12.366914 19.672702 12.148716C19.672702 11.856236 19.574048 11.610183 19.376741 11.410554C19.179434 11.210925 18.936861 11.111111 18.649025 11.111111C18.096565 11.111111 17.711233 11.445373 17.493036 12.113897Z" fill="#da0a0a" />
<path d="M17.506964 22.886103C17.599814 23.22965 17.749536 23.482668 17.956128 23.645156S18.391365 23.888889 18.642061 23.888889C18.925256 23.888889 19.167827 23.791396 19.369777 23.59641S19.672702 23.166976 19.672702 22.893067C19.672702 22.642371 19.611189 22.387032 19.488162 22.12705S19.20961 21.616373 19.021588 21.374961S18.642061 20.890978 18.447075 20.647245S18.065228 20.126122 17.88649 19.815073S17.581244 19.195296 17.506964 18.888889C17.423398 19.209223 17.289925 19.530718 17.106546 19.853374S16.733983 20.461544 16.538997 20.70992C16.344011 20.958295 16.153668 21.202027 15.967967 21.441117S15.629062 21.920458 15.508357 22.161869S15.327298 22.633086 15.327298 22.851284C15.327298 23.143764 15.425952 23.389817 15.623259 23.589446C15.820566 23.789075 16.063139 23.888889 16.350975 23.888889C16.903435 23.888889 17.288767 23.554627 17.506964 22.886103Z" fill="#da0a0a" />
<path d="M12.493036 8.225008C12.400186 7.881461 12.250464 7.628443 12.043872 7.465955S11.608635 7.222222 11.357939 7.222222C11.074744 7.222222 10.832173 7.319715 10.630223 7.514701S10.327298 7.944135 10.327298 8.218044C10.327298 8.46874 10.388811 8.724079 10.511838 8.984061S10.79039 9.494738 10.978412 9.73615S11.357939 10.220133 11.552925 10.463866S11.934772 10.984989 12.11351 11.296038S12.418756 11.915816 12.493036 12.222222C12.576602 11.901888 12.710075 11.580393 12.893454 11.257738S13.266017 10.649567 13.461003 10.401192C13.655989 10.152816 13.846332 9.909084 14.032033 9.669994S14.370938 9.190653 14.491643 8.949242S14.672702 8.478025 14.672702 8.259827C14.672702 7.967348 14.574048 7.721294 14.376741 7.521665C14.179434 7.322036 13.936861 7.222222 13.649025 7.222222C13.096565 7.222222 12.711233 7.556484 12.493036 8.225008Z" fill="#da0a0a" />
<path d="M12.493036 23.780563C12.400186 23.437017 12.250464 23.183999 12.043872 23.02151S11.608635 22.777778 11.357939 22.777778C11.074744 22.777778 10.832173 22.875271 10.630223 23.070257S10.327298 23.499691 10.327298 23.7736C10.327298 24.024296 10.388811 24.279635 10.511838 24.539616S10.79039 25.050294 10.978412 25.291705S11.357939 25.775689 11.552925 26.019421S11.934772 26.540544 12.11351 26.851594S12.418756 27.471371 12.493036 27.777778C12.576602 27.457444 12.710075 27.135948 12.893454 26.813293S13.266017 26.205122 13.461003 25.956747C13.655989 25.708372 13.846332 25.464639 14.032033 25.225549S14.370938 24.746209 14.491643 24.504797S14.672702 24.033581 14.672702 23.815382C14.672702 23.522903 14.574048 23.27685 14.376741 23.077221C14.179434 22.877592 13.936861 22.777778 13.649025 22.777778C13.096565 22.777778 12.711233 23.11204 12.493036 23.780563Z" fill="#da0a0a" />
<path d="M24.725597 5.44798Q24.721355 5.371616 24.706506 5.346162T24.657719 5.320707Q24.420146 5.320707 24.32045 5.292071T24.171966 5.142525T24.123179 4.735253V3.411616Q24.118936 3.112525 24.14227 2.982071T24.224996 2.813434T24.420146 2.775253H24.628022Q24.704385 2.775253 24.704385 2.622525Q24.700143 2.527071 24.678931 2.504798T24.625901 2.482525H24.581356Q24.403176 2.482525 24.233481 2.396616T23.864394 2.189798Q23.838939 2.177071 23.82197 2.177071Q23.754092 2.177071 23.754092 2.323434V4.735253Q23.754092 5.015253 23.709547 5.136162T23.569548 5.288889T23.261975 5.320707H23.219552Q23.185612 5.320707 23.170764 5.346162T23.151673 5.44798Q23.151673 5.600707 23.228036 5.600707Q23.533488 5.581616 23.940756 5.581616Q24.343783 5.581616 24.649234 5.600707Q24.725597 5.600707 24.725597 5.44798ZM22.841963 5.397071Q23.06893 5.155253 23.181354 4.754343T23.293777 3.882525Q23.293777 3.405253 23.181354 3.010707T22.841963 2.377525T22.28409 2.138889Q21.970154 2.138889 21.741065 2.380707T21.39319 3.023434T21.274403 3.882525T21.39319 4.741616T21.741065 5.390707T22.28409 5.638889Q22.614996 5.638889 22.841963 5.397071ZM21.83864 5.008889Q21.681672 4.614343 21.681672 3.882525T21.83864 2.762525T22.279847 2.374343Q22.572572 2.374343 22.72954 2.759343T22.886508 3.882525T22.72954 5.012071T22.279847 5.403434Q21.995608 5.403434 21.83864 5.008889Z" fill="#da0a0a" />
<path d="M22.99675 7.079085C22.953421 6.918765 22.883551 6.800691 22.787142 6.724864S22.584034 6.611123 22.467043 6.611123C22.334887 6.611123 22.221688 6.656619 22.127446 6.747612S21.986083 6.948012 21.986083 7.075835C21.986083 7.192825 22.014789 7.311982 22.072201 7.433306S22.20219 7.67162 22.289933 7.784277S22.467043 8.010134 22.558036 8.123875S22.73623 8.367063 22.81964 8.512218S22.962086 8.801444 22.99675 8.944433C23.035747 8.794945 23.098034 8.644915 23.18361 8.494344S23.357471 8.210534 23.448463 8.094627C23.539456 7.97872 23.628282 7.864979 23.714942 7.753405S23.873096 7.529715 23.929424 7.417057S24.013917 7.197158 24.013917 7.095333C24.013917 6.958844 23.967879 6.844021 23.875804 6.750861C23.783728 6.657702 23.670529 6.611123 23.536206 6.611123C23.278394 6.611123 23.098574 6.76711 22.99675 7.079085Z" fill="#da0a0a" />
<path d="M0.274403 29.55202Q0.278645 29.628384 0.293494 29.653838T0.342281 29.679293Q0.579854 29.679293 0.67955 29.707929T0.828034 29.857475T0.876821 30.264747V31.588384Q0.881064 31.887475 0.85773 32.017929T0.775004 32.186566T0.579854 32.224747H0.371978Q0.295615 32.224747 0.295615 32.377475Q0.299857 32.472929 0.321069 32.495202T0.374099 32.517475H0.418644Q0.596824 32.517475 0.766519 32.603384T1.135606 32.810202Q1.161061 32.822929 1.17803 32.822929Q1.245908 32.822929 1.245908 32.676566V30.264747Q1.245908 29.984747 1.290453 29.863838T1.430452 29.711111T1.738025 29.679293H1.780448Q1.814388 29.679293 1.829236 29.653838T1.848327 29.55202Q1.848327 29.399293 1.771964 29.399293Q1.466512 29.418384 1.059244 29.418384Q0.656217 29.418384 0.350766 29.399293Q0.274403 29.399293 0.274403 29.55202ZM2.158037 29.602929Q1.93107 29.844747 1.818646 30.245657T1.706223 31.117475Q1.706223 31.594747 1.818646 31.989293T2.158037 32.622475T2.71591 32.861111Q3.029846 32.861111 3.258935 32.619293T3.60681 31.976566T3.725597 31.117475T3.60681 30.258384T3.258935 29.609293T2.71591 29.361111Q2.385004 29.361111 2.158037 29.602929ZM3.16136 29.991111Q3.318328 30.385657 3.318328 31.117475T3.16136 32.237475T2.720153 32.625657Q2.427428 32.625657 2.27046 32.240657T2.113492 31.117475T2.27046 29.987929T2.720153 29.596566Q3.004392 29.596566 3.16136 29.991111Z" fill="#da0a0a" />
<path d="M2.00325 27.920915C2.046579 28.081235 2.116449 28.199309 2.212858 28.275136S2.415966 28.388877 2.532957 28.388877C2.665113 28.388877 2.778312 28.343381 2.872554 28.252388S3.013917 28.051988 3.013917 27.924165C3.013917 27.807175 2.985211 27.688018 2.927799 27.566694S2.79781 27.32838 2.710067 27.215723S2.532957 26.989866 2.441964 26.876125S2.26377 26.632937 2.18036 26.487782S2.037914 26.198556 2.00325 26.055567C1.964253 26.205055 1.901966 26.355085 1.81639 26.505656S1.642529 26.789466 1.551537 26.905373C1.460544 27.02128 1.371718 27.135021 1.285058 27.246595S1.126904 27.470285 1.070576 27.582943S0.986083 27.802842 0.986083 27.904667C0.986083 28.041156 1.032121 28.155979 1.124196 28.249139C1.216272 28.342298 1.329471 28.388877 1.463794 28.388877C1.721606 28.388877 1.901426 28.23289 2.00325 27.920915Z" fill="#da0a0a" />
</svg>
