<svg width="500.000000" height="700.000000" id="card-realclub4">
<radialGradient id="card-realwhitegradient" cx="250.0" cy="350.0" r="500" gradientTransform="matrix(1 0 0 1 0 -.25)" gradientUnits="userSpaceOnUse">
<stop stop-color="#FDFAF4" offset=".15"/>
<stop stop-color="#FDF9F2" offset=".35"/>
<stop stop-color="#FCF7F1" offset=".5"/>
<stop stop-color="#FDFDF8" offset=".75"/>
<stop stop-color="#FFFDFA" offset="1"/>
</radialGradient>
<rect x="0" y="0" rx="25.0" ry="25.0" width="500" height="700.0" stroke="#010101" fill="url(#card-realwhitegradient)" />
<path d="M148.016997 125.094429C147.922568 127.92729 147.804533 130.217191 147.66289 131.964117C147.521246 133.711043 147.167139 135.930123 146.600567 138.621341S145.349387 143.531638 144.546742 145.278565S142.540127 148.984896 140.934844 151.156752S137.440977 155.122757 135.269122 156.539188S130.358824 159.324839 127.053824 160.646837S119.971671 163.007559 115.72238 163.762984V166.595845H184.27762V163.762984C180.028329 163.007555 176.251176 161.945236 172.946176 160.576015S166.879136 157.813975 164.660057 156.397545S160.552408 153.163366 158.994334 150.944287S156.232295 146.765817 155.382436 145.0661S153.847975 141.147304 153.328612 138.408876S152.478754 133.474981 152.33711 131.822474C152.195467 130.169967 152.077432 127.92729 151.983003 125.094429C154.249292 129.249287 156.090652 132.176582 157.507082 133.876298C160.056657 137.086879 163.196416 139.636454 166.926346 141.525024C170.656275 143.413593 174.315397 144.357885 177.903683 144.357885C183.947125 144.357885 189.140694 142.115208 193.484419 137.629839S200.0 127.738437 200.0 121.411709C200.0 115.273848 198.040609 110.033055 194.121813 105.68933S185.457975 99.173749 179.886686 99.173749C177.998116 99.173749 176.251176 99.433427 174.645892 99.952786S171.435312 101.133144 169.830028 101.935788L166.855524 103.423041C170.538244 98.135038 172.379603 93.130307 172.379603 88.408876C172.379603 82.459868 170.184136 77.360718 165.793201 73.111426S156.137861 66.737488 150.0 66.737488S138.597734 68.862134 134.206799 73.111426S127.620397 82.459868 127.620397 88.408876C127.620397 93.130307 129.461756 98.135038 133.144476 103.423041C132.483475 103.139754 131.56279 102.714825 130.382436 102.148253S128.328612 101.156752 127.76204 100.873466S126.463644 100.306893 125.566572 100.023607S123.796034 99.527856 122.946176 99.386213S121.152025 99.173749 120.113314 99.173749C114.542025 99.173749 109.796983 101.345604 105.878187 105.68933S100.0 115.273848 100.0 121.411709C100.0 127.738437 102.171856 133.144471 106.515581 137.629839S116.052875 144.357885 122.096317 144.357885C132.48347 144.357885 141.123654 137.936737 148.016997 125.094429Z" fill="#010101" />
<path d="M151.983003 574.905571C152.077432 572.07271 152.195467 569.782809 152.33711 568.035883C152.478754 566.288957 152.832861 564.069877 153.399433 561.378659S154.650613 556.468362 155.453258 554.721435S157.459873 551.015104 159.065156 548.843248S162.559023 544.877243 164.730878 543.460812S169.641176 540.675161 172.946176 539.353163S180.028329 536.992441 184.27762 536.237016V533.404155H115.72238V536.237016C119.971671 536.992445 123.748824 538.054764 127.053824 539.423985S133.120864 542.186025 135.339943 543.602455S139.447592 546.836634 141.005666 549.055713S143.767705 553.234183 144.617564 554.9339S146.152025 558.852696 146.671388 561.591124S147.521246 566.525019 147.66289 568.177526C147.804533 569.830033 147.922568 572.07271 148.016997 574.905571C145.750708 570.750713 143.909348 567.823418 142.492918 566.123702C139.943343 562.913121 136.803584 560.363546 133.073654 558.474976C129.343725 556.586407 125.684603 555.642115 122.096317 555.642115C116.052875 555.642115 110.859306 557.884792 106.515581 562.370161S100.0 572.261563 100.0 578.588291C100.0 584.726152 101.959391 589.966945 105.878187 594.31067S114.542025 600.826251 120.113314 600.826251C122.001884 600.826251 123.748824 600.566573 125.354108 600.047214S128.564688 598.866856 130.169972 598.064212L133.144476 596.576959C129.461756 601.864962 127.620397 606.869693 127.620397 611.591124C127.620397 617.540132 129.815864 622.639282 134.206799 626.888574S143.862139 633.262512 150.0 633.262512S161.402266 631.137866 165.793201 626.888574S172.379603 617.540132 172.379603 611.591124C172.379603 606.869693 170.538244 601.864962 166.855524 596.576959C167.516525 596.860246 168.43721 597.285175 169.617564 597.851747S171.671388 598.843248 172.23796 599.126534S173.536356 599.693107 174.433428 599.976393S176.203966 600.472144 177.053824 600.613787S178.847975 600.826251 179.886686 600.826251C185.457975 600.826251 190.203017 598.654396 194.121813 594.31067S200.0 584.726152 200.0 578.588291C200.0 572.261563 197.828144 566.855529 193.484419 562.370161S183.947125 555.642115 177.903683 555.642115C167.51653 555.642115 158.876346 562.063263 151.983003 574.905571Z" fill="#010101" />
<path d="M348.016997 125.094429C347.922568 127.92729 347.804533 130.217191 347.66289 131.964117C347.521246 133.711043 347.167139 135.930123 346.600567 138.621341S345.349387 143.531638 344.546742 145.278565S342.540127 148.984896 340.934844 151.156752S337.440977 155.122757 335.269122 156.539188S330.358824 159.324839 327.053824 160.646837S319.971671 163.007559 315.72238 163.762984V166.595845H384.27762V163.762984C380.028329 163.007555 376.251176 161.945236 372.946176 160.576015S366.879136 157.813975 364.660057 156.397545S360.552408 153.163366 358.994334 150.944287S356.232295 146.765817 355.382436 145.0661S353.847975 141.147304 353.328612 138.408876S352.478754 133.474981 352.33711 131.822474C352.195467 130.169967 352.077432 127.92729 351.983003 125.094429C354.249292 129.249287 356.090652 132.176582 357.507082 133.876298C360.056657 137.086879 363.196416 139.636454 366.926346 141.525024C370.656275 143.413593 374.315397 144.357885 377.903683 144.357885C383.947125 144.357885 389.140694 142.115208 393.484419 137.629839S400.0 127.738437 400.0 121.411709C400.0 115.273848 398.040609 110.033055 394.121813 105.68933S385.457975 99.173749 379.886686 99.173749C377.998116 99.173749 376.251176 99.433427 374.645892 99.952786S371.435312 101.133144 369.830028 101.935788L366.855524 103.423041C370.538244 98.135038 372.379603 93.130307 372.379603 88.408876C372.379603 82.459868 370.184136 77.360718 365.793201 73.111426S356.137861 66.737488 350.0 66.737488S338.597734 68.862134 334.206799 73.111426S327.620397 82.459868 327.620397 88.408876C327.620397 93.130307 329.461756 98.135038 333.144476 103.423041C332.483475 103.139754 331.56279 102.714825 330.382436 102.148253S328.328612 101.156752 327.76204 100.873466S326.463644 100.306893 325.566572 100.023607S323.796034 99.527856 322.946176 99.386213S321.152025 99.173749 320.113314 99.173749C314.542025 99.173749 309.796983 101.345604 305.878187 105.68933S300.0 115.273848 300.0 121.411709C300.0 127.738437 302.171856 133.144471 306.515581 137.629839S316.052875 144.357885 322.096317 144.357885C332.48347 144.357885 341.123654 137.936737 348.016997 125.094429Z" fill="#010101" />
<path d="M351.983003 574.905571C352.077432 572.07271 352.195467 569.782809 352.33711 568.035883C352.478754 566.288957 352.832861 564.069877 353.399433 561.378659S354.650613 556.468362 355.453258 554.721435S357.459873 551.015104 359.065156 548.843248S362.559023 544.877243 364.730878 543.460812S369.641176 540.675161 372.946176 539.353163S380.028329 536.992441 384.27762 536.237016V533.404155H315.72238V536.237016C319.971671 536.992445 323.748824 538.054764 327.053824 539.423985S333.120864 542.186025 335.339943 543.602455S339.447592 546.836634 341.005666 549.055713S343.767705 553.234183 344.617564 554.9339S346.152025 558.852696 346.671388 561.591124S347.521246 566.525019 347.66289 568.177526C347.804533 569.830033 347.922568 572.07271 348.016997 574.905571C345.750708 570.750713 343.909348 567.823418 342.492918 566.123702C339.943343 562.913121 336.803584 560.363546 333.073654 558.474976C329.343725 556.586407 325.684603 555.642115 322.096317 555.642115C316.052875 555.642115 310.859306 557.884792 306.515581 562.370161S300.0 572.261563 300.0 578.588291C300.0 584.726152 301.959391 589.966945 305.878187 594.31067S314.542025 600.826251 320.113314 600.826251C322.001884 600.826251 323.748824 600.566573 325.354108 600.047214S328.564688 598.866856 330.169972 598.064212L333.144476 596.576959C329.461756 601.864962 327.620397 606.869693 327.620397 611.591124C327.620397 617.540132 329.815864 622.639282 334.206799 626.888574S343.862139 633.262512 350.0 633.262512S361.402266 631.137866 365.793201 626.888574S372.379603 617.540132 372.379603 611.591124C372.379603 606.869693 370.538244 601.864962 366.855524 596.576959C367.516525 596.860246 368.43721 597.285175 369.617564 597.851747S371.671388 598.843248 372.23796 599.126534S373.536356 599.693107 374.433428 599.976393S376.203966 600.472144 377.053824 600.613787S378.847975 600.826251 379.886686 600.826251C385.457975 600.826251 390.203017 598.654396 394.121813 594.31067S400.0 584.726152 400.0 578.588291C400.0 572.261563 397.828144 566.855529 393.484419 562.370161S383.947125 555.642115 377.903683 555.642115C367.51653 555.642115 358.876346 562.063263 351.983003 574.905571Z" fill="#010101" />
<path d="M451.987179 112.136752Q453.653846 111.495726 453.782051 110.34188V90.726496H484.423077Q486.474359 90.726496 487.5 89.444444T488.525641 86.239316Q488.525641 84.57265 487.628205 83.418803L451.602564 44.059829Q450.320513 42.777778 447.628205 42.777778Q445.576923 42.777778 444.166667 43.867521T442.628205 47.264957V84.444444H434.935897Q433.141026 84.444444 432.371795 84.893162T431.474359 87.521368Q431.474359 88.931624 432.051282 89.82906T433.910256 90.726496H442.628205V110.34188Q442.628205 111.495726 444.294872 112.136752T448.141026 112.777778T451.987179 112.136752ZM481.089744 84.444444H453.782051V54.059829Z" fill="#010101" />
<path d="M459.074608 159.488472C459.030542 160.810461 458.975459 161.87907 458.909359 162.694294C458.84326 163.509519 458.678011 164.545079 458.413614 165.800968S457.829735 168.092417 457.455172 168.907641S456.518761 170.637245 455.769636 171.650768S454.139181 173.501552 453.125659 174.162546S450.83421 175.462504 449.291892 176.07943S445.98692 177.181089 444.003937 177.533617V178.855606H475.996063V177.533617C474.01308 177.181087 472.250426 176.685343 470.708108 176.04638S467.876851 174.757441 466.841291 174.096447S464.924408 172.587178 464.197314 171.551618S462.908375 169.601685 462.511778 168.808492S461.795703 166.979739 461.553337 165.701819S461.15674 163.399357 461.090641 162.628195C461.024541 161.857033 460.969459 160.810461 460.925392 159.488472C461.982983 161.427386 462.842276 162.793444 463.50327 163.586637C464.69306 165.084893 466.158266 166.274683 467.898882 167.156006C469.639499 168.03733 471.347072 168.477995 473.021588 168.477995C475.841833 168.477995 478.265475 167.431423 480.292526 165.338272S483.3331 160.72233 483.3331 157.769887C483.3331 154.90558 482.418727 152.459901 480.589974 150.432849S476.546889 147.392276 473.94698 147.392276C473.065657 147.392276 472.250426 147.513458 471.501301 147.755822S470.003045 148.306651 469.253921 148.681214L467.865833 149.375259C469.584418 146.907549 470.44371 144.572031 470.44371 142.368719C470.44371 139.592542 469.419169 137.212963 467.370087 135.22998S462.864307 132.255505 460.0 132.255505S454.678996 133.246997 452.629913 135.22998S449.55629 139.592542 449.55629 142.368719C449.55629 144.572031 450.415582 146.907549 452.134167 149.375259C451.825703 149.24306 451.396055 149.044761 450.845228 148.780364S449.886787 148.317668 449.622389 148.185469S449.016477 147.921071 448.597848 147.788872S447.771605 147.557524 447.375008 147.491425S446.537747 147.392276 446.05302 147.392276C443.453111 147.392276 441.23878 148.405798 439.410026 150.432849S436.6669 154.90558 436.6669 157.769887C436.6669 160.72233 437.680422 163.245121 439.707474 165.338272S444.158167 168.477995 446.978412 168.477995C451.825701 168.477995 455.857747 165.481489 459.074608 159.488472Z" fill="#010101" />
<path d="M48.012821 587.863248Q46.346154 588.504274 46.217949 589.65812V609.273504H15.576923Q13.525641 609.273504 12.5 610.555556T11.474359 613.760684Q11.474359 615.42735 12.371795 616.581197L48.397436 655.940171Q49.679487 657.222222 52.371795 657.222222Q54.423077 657.222222 55.833333 656.132479T57.371795 652.735043V615.555556H65.064103Q66.858974 615.555556 67.628205 615.106838T68.525641 612.478632Q68.525641 611.068376 67.948718 610.17094T66.089744 609.273504H57.371795V589.65812Q57.371795 588.504274 55.705128 587.863248T51.858974 587.222222T48.012821 587.863248ZM18.910256 615.555556H46.217949V645.940171Z" fill="#010101" />
<path d="M40.925392 540.511528C40.969458 539.189539 41.024541 538.12093 41.090641 537.305706C41.15674 536.490481 41.321989 535.454921 41.586386 534.199032S42.170265 531.907583 42.544828 531.092359S43.481239 529.362755 44.230364 528.349232S45.860819 526.498448 46.874341 525.837454S49.16579 524.537496 50.708108 523.92057S54.01308 522.818911 55.996063 522.466383V521.144394H24.003937V522.466383C25.98692 522.818913 27.749574 523.314657 29.291892 523.95362S32.123149 525.242559 33.158709 525.903553S35.075592 527.412822 35.802686 528.448382S37.091625 530.398315 37.488222 531.191508S38.204297 533.020261 38.446663 534.298181S38.84326 536.600643 38.909359 537.371805C38.975459 538.142967 39.030541 539.189539 39.074608 540.511528C38.017017 538.572614 37.157724 537.206556 36.49673 536.413363C35.30694 534.915107 33.841734 533.725317 32.101118 532.843994C30.360501 531.96267 28.652928 531.522005 26.978412 531.522005C24.158167 531.522005 21.734525 532.568577 19.707474 534.661728S16.6669 539.27767 16.6669 542.230113C16.6669 545.09442 17.581273 547.540099 19.410026 549.567151S23.453111 552.607724 26.05302 552.607724C26.934343 552.607724 27.749574 552.486542 28.498699 552.244178S29.996955 551.693349 30.746079 551.318786L32.134167 550.624741C30.415582 553.092451 29.55629 555.427969 29.55629 557.631281C29.55629 560.407458 30.580831 562.787037 32.629913 564.77002S37.135693 567.744495 40.0 567.744495S45.321004 566.753003 47.370087 564.77002S50.44371 560.407458 50.44371 557.631281C50.44371 555.427969 49.584418 553.092451 47.865833 550.624741C48.174297 550.75694 48.603945 550.955239 49.154772 551.219636S50.113213 551.682332 50.377611 551.814531S50.983523 552.078929 51.402152 552.211128S52.228395 552.442476 52.624992 552.508575S53.462253 552.607724 53.94698 552.607724C56.546889 552.607724 58.76122 551.594202 60.589974 549.567151S63.3331 545.09442 63.3331 542.230113C63.3331 539.27767 62.319578 536.754879 60.292526 534.661728S55.841833 531.522005 53.021588 531.522005C48.174299 531.522005 44.142253 534.518511 40.925392 540.511528Z" fill="#010101" />
</svg>
