<svg width="500.000000" height="700.000000" id="card-webheart6">
<radialGradient id="card-webwhitegradient" cx="250.0" cy="350.0" r="500" gradientTransform="matrix(1 0 0 1 0 -.25)" gradientUnits="userSpaceOnUse">
<stop stop-color="#FDFAF4" offset=".15"/>
<stop stop-color="#FDF9F2" offset=".35"/>
<stop stop-color="#FCF7F1" offset=".5"/>
<stop stop-color="#FDFDF8" offset=".75"/>
<stop stop-color="#FFFDFA" offset="1"/>
</radialGradient>
<rect x="0" y="0" rx="25.0" ry="25.0" width="500" height="700.0" fill="url(#card-webwhitegradient)" />
<path d="M149.860724 86.722377C148.003719 79.851444 145.00929 74.791082 140.877437 71.541318S132.172702 66.666667 127.158774 66.666667C121.494889 66.666667 116.643454 68.616527 112.604457 72.516249S106.545961 81.104926 106.545961 86.583101C106.545961 91.597029 107.77623 96.703812 110.236769 101.903435S115.807799 112.116987 119.568245 116.945218S127.158774 126.624884 131.058496 131.499536S138.695446 141.922001 142.270195 148.14299S148.375111 160.538533 149.860724 166.666667C151.532033 160.259981 154.20149 153.830079 157.869081 147.376973S165.320334 135.213561 169.220056 130.246054C173.119777 125.278547 176.926643 120.403895 180.640669 115.622098S187.41876 106.035288 189.832869 101.207057S193.454039 91.782725 193.454039 87.418756C193.454039 81.569174 191.480961 76.648101 187.534819 72.655525C183.588677 68.662948 178.737228 66.666667 172.980501 66.666667C161.931295 66.666667 154.224652 73.351903 149.860724 86.722377Z" fill="#da0a0a" />
<path d="M150.139276 613.277623C151.996281 620.148556 154.99071 625.208918 159.122563 628.458682S167.827298 633.333333 172.841226 633.333333C178.505111 633.333333 183.356546 631.383473 187.395543 627.483751S193.454039 618.895074 193.454039 613.416899C193.454039 608.402971 192.22377 603.296188 189.763231 598.096565S184.192201 587.883013 180.431755 583.054782S172.841226 573.375116 168.941504 568.500464S161.304554 558.077999 157.729805 551.85701S151.624889 539.461467 150.139276 533.333333C148.467967 539.740019 145.79851 546.169921 142.130919 552.623027S134.679666 564.786439 130.779944 569.753946C126.880223 574.721453 123.073357 579.596105 119.359331 584.377902S112.58124 593.964712 110.167131 598.792943S106.545961 608.217275 106.545961 612.581244C106.545961 618.430826 108.519039 623.351899 112.465181 627.344475C116.411323 631.337052 121.262772 633.333333 127.019499 633.333333C138.068705 633.333333 145.775348 626.648097 150.139276 613.277623Z" fill="#da0a0a" />
<path d="M149.860724 320.05571C148.003719 313.184777 145.00929 308.124415 140.877437 304.874652S132.172702 300.0 127.158774 300.0C121.494889 300.0 116.643454 301.949861 112.604457 305.849582S106.545961 314.438259 106.545961 319.916435C106.545961 324.930362 107.77623 330.037145 110.236769 335.236769S115.807799 345.45032 119.568245 350.278552S127.158774 359.958217 131.058496 364.832869S138.695446 375.255334 142.270195 381.476323S148.375111 393.871866 149.860724 400.0C151.532033 393.593315 154.20149 387.163412 157.869081 380.710306S165.320334 368.546894 169.220056 363.579387C173.119777 358.61188 176.926643 353.737228 180.640669 348.955432S187.41876 339.368621 189.832869 334.54039S193.454039 325.116058 193.454039 320.752089C193.454039 314.902507 191.480961 309.981435 187.534819 305.988858C183.588677 301.996281 178.737228 300.0 172.980501 300.0C161.931295 300.0 154.224652 306.685237 149.860724 320.05571Z" fill="#da0a0a" />
<path d="M349.860724 86.722377C348.003719 79.851444 345.00929 74.791082 340.877437 71.541318S332.172702 66.666667 327.158774 66.666667C321.494889 66.666667 316.643454 68.616527 312.604457 72.516249S306.545961 81.104926 306.545961 86.583101C306.545961 91.597029 307.77623 96.703812 310.236769 101.903435S315.807799 112.116987 319.568245 116.945218S327.158774 126.624884 331.058496 131.499536S338.695446 141.922001 342.270195 148.14299S348.375111 160.538533 349.860724 166.666667C351.532033 160.259981 354.20149 153.830079 357.869081 147.376973S365.320334 135.213561 369.220056 130.246054C373.119777 125.278547 376.926643 120.403895 380.640669 115.622098S387.41876 106.035288 389.832869 101.207057S393.454039 91.782725 393.454039 87.418756C393.454039 81.569174 391.480961 76.648101 387.534819 72.655525C383.588677 68.662948 378.737228 66.666667 372.980501 66.666667C361.931295 66.666667 354.224652 73.351903 349.860724 86.722377Z" fill="#da0a0a" />
<path d="M350.139276 613.277623C351.996281 620.148556 354.99071 625.208918 359.122563 628.458682S367.827298 633.333333 372.841226 633.333333C378.505111 633.333333 383.356546 631.383473 387.395543 627.483751S393.454039 618.895074 393.454039 613.416899C393.454039 608.402971 392.22377 603.296188 389.763231 598.096565S384.192201 587.883013 380.431755 583.054782S372.841226 573.375116 368.941504 568.500464S361.304554 558.077999 357.729805 551.85701S351.624889 539.461467 350.139276 533.333333C348.467967 539.740019 345.79851 546.169921 342.130919 552.623027S334.679666 564.786439 330.779944 569.753946C326.880223 574.721453 323.073357 579.596105 319.359331 584.377902S312.58124 593.964712 310.167131 598.792943S306.545961 608.217275 306.545961 612.581244C306.545961 618.430826 308.519039 623.351899 312.465181 627.344475C316.411323 631.337052 321.262772 633.333333 327.019499 633.333333C338.068705 633.333333 345.775348 626.648097 350.139276 613.277623Z" fill="#da0a0a" />
<path d="M349.860724 320.05571C348.003719 313.184777 345.00929 308.124415 340.877437 304.874652S332.172702 300.0 327.158774 300.0C321.494889 300.0 316.643454 301.949861 312.604457 305.849582S306.545961 314.438259 306.545961 319.916435C306.545961 324.930362 307.77623 330.037145 310.236769 335.236769S315.807799 345.45032 319.568245 350.278552S327.158774 359.958217 331.058496 364.832869S338.695446 375.255334 342.270195 381.476323S348.375111 393.871866 349.860724 400.0C351.532033 393.593315 354.20149 387.163412 357.869081 380.710306S365.320334 368.546894 369.220056 363.579387C373.119777 358.61188 376.926643 353.737228 380.640669 348.955432S387.41876 339.368621 389.832869 334.54039S393.454039 325.116058 393.454039 320.752089C393.454039 314.902507 391.480961 309.981435 387.534819 305.988858C383.588677 301.996281 378.737228 300.0 372.980501 300.0C361.931295 300.0 354.224652 306.685237 349.860724 320.05571Z" fill="#da0a0a" />
<path d="M478.987342 105.309423Q486.139241 97.841069 486.139241 84.929677Q486.139241 74.676512 481.265823 65.815752T467.531646 50.942335T447.278481 42.90436Q446.64557 42.777778 445.379747 42.777778Q442.848101 42.777778 442.848101 45.056259Q442.848101 47.081575 445.126582 47.714487Q468.291139 54.929677 472.721519 73.663854Q468.544304 70.879044 464.43038 69.739803T455.886076 68.600563Q449.810127 68.600563 444.746835 71.322082T436.772152 78.790436T433.860759 89.613221Q433.860759 96.448664 437.531646 101.701828T447.151899 109.866385T459.810127 112.777778Q471.835443 112.777778 478.987342 105.309423ZM449.936709 103.727145Q446.012658 98.727145 446.012658 90.752461Q446.012658 83.284107 449.936709 78.790436T460.189873 74.296765Q463.35443 74.296765 466.772152 75.879044T473.227848 80.11955Q473.987342 83.157525 473.987342 85.056259Q473.987342 90.11955 472.658228 95.562588T468.101266 104.866385T459.810127 108.727145Q453.860759 108.727145 449.936709 103.727145Z" fill="#da0a0a" />
<path d="M459.935005 141.581693C459.068411 138.37529 457.671025 136.013811 455.742847 134.49727S451.680677 132.222456 449.340868 132.222456C446.697748 132.222456 444.433768 133.132381 442.548921 134.952233S439.721651 138.960242 439.721651 141.516699C439.721651 143.856508 440.295771 146.23965 441.444011 148.666117S444.043799 153.432393 445.798656 155.685545S449.340868 160.202677 451.16072 162.477492S454.724594 167.34126 456.392794 170.244359S459.241726 176.028888 459.935005 178.888656C460.714942 175.898899 461.960676 172.898308 463.672201 169.886889S467.149418 164.210686 468.96927 161.89254C470.789121 159.574393 472.565641 157.299578 474.298836 155.068095S477.461914 150.594295 478.588486 148.341143S480.278349 143.943166 480.278349 141.906667C480.278349 139.176889 479.357588 136.880412 477.516074 135.017228C475.674559 133.154044 473.410572 132.222456 470.724127 132.222456C465.567882 132.222456 461.971484 135.342202 459.935005 141.581693Z" fill="#da0a0a" />
<path d="M21.012658 594.690577Q13.860759 602.158931 13.860759 615.070323Q13.860759 625.323488 18.734177 634.184248T32.468354 649.057665T52.721519 657.09564Q53.35443 657.222222 54.620253 657.222222Q57.151899 657.222222 57.151899 654.943741Q57.151899 652.918425 54.873418 652.285513Q31.708861 645.070323 27.278481 626.336146Q31.455696 629.120956 35.56962 630.260197T44.113924 631.399437Q50.189873 631.399437 55.253165 628.677918T63.227848 621.209564T66.139241 610.386779Q66.139241 603.551336 62.468354 598.298172T52.848101 590.133615T40.189873 587.222222Q28.164557 587.222222 21.012658 594.690577ZM50.063291 596.272855Q53.987342 601.272855 53.987342 609.247539Q53.987342 616.715893 50.063291 621.209564T39.810127 625.703235Q36.64557 625.703235 33.227848 624.120956T26.772152 619.88045Q26.012658 616.842475 26.012658 614.943741Q26.012658 609.88045 27.341772 604.437412T31.898734 595.133615T40.189873 591.272855Q46.139241 591.272855 50.063291 596.272855Z" fill="#da0a0a" />
<path d="M40.064995 558.418307C40.931589 561.62471 42.328975 563.986189 44.257153 565.50273S48.319323 567.777544 50.659132 567.777544C53.302252 567.777544 55.566232 566.867619 57.451079 565.047767S60.278349 561.039758 60.278349 558.483301C60.278349 556.143492 59.704229 553.76035 58.555989 551.333883S55.956201 546.567607 54.201344 544.314455S50.659132 539.797323 48.83928 537.522508S45.275406 532.65874 43.607206 529.755641S40.758274 523.971112 40.064995 521.111344C39.285058 524.101101 38.039324 527.101692 36.327799 530.113111S32.850582 535.789314 31.03073 538.10746C29.210879 540.425607 27.434359 542.700422 25.701164 544.931905S22.538086 549.405705 21.411514 551.658857S19.721651 556.056834 19.721651 558.093333C19.721651 560.823111 20.642412 563.119588 22.483926 564.982772C24.325441 566.845956 26.589428 567.777544 29.275873 567.777544C34.432118 567.777544 38.028516 564.657798 40.064995 558.418307Z" fill="#da0a0a" />
</svg>
