<svg width="150.000000" height="210.000000" id="card-webheart6">
<radialGradient id="card-webwhitegradient" cx="75.0" cy="105.0" r="150" gradientTransform="matrix(1 0 0 1 0 -.25)" gradientUnits="userSpaceOnUse">
<stop stop-color="#FDFAF4" offset=".15"/>
<stop stop-color="#FDF9F2" offset=".35"/>
<stop stop-color="#FCF7F1" offset=".5"/>
<stop stop-color="#FDFDF8" offset=".75"/>
<stop stop-color="#FFFDFA" offset="1"/>
</radialGradient>
<rect x="0" y="0" rx="7.5" ry="7.5" width="150" height="210.0" stroke="#010101" fill="url(#card-webwhitegradient)" />
<path d="M44.958217 26.016713C44.401116 23.955433 43.502787 22.437325 42.263231 21.462396S39.651811 20.0 38.147632 20.0C36.448467 20.0 34.993036 20.584958 33.781337 21.754875S31.963788 24.331478 31.963788 25.97493C31.963788 27.479109 32.332869 29.011143 33.071031 30.571031S34.74234 33.635096 35.870474 35.083565S38.147632 37.987465 39.317549 39.449861S41.608634 42.5766 42.681058 44.442897S44.512533 48.16156 44.958217 50.0C45.45961 48.077994 46.260447 46.149024 47.360724 44.213092S49.5961 40.564068 50.766017 39.073816C51.935933 37.583564 53.077993 36.121169 54.192201 34.68663S56.225628 31.810586 56.949861 30.362117S58.036212 27.534818 58.036212 26.225627C58.036212 24.470752 57.444288 22.99443 56.260446 21.796657C55.076603 20.598884 53.621169 20.0 51.89415 20.0C48.579389 20.0 46.267396 22.005571 44.958217 26.016713Z" fill="#da0a0a" />
<path d="M45.041783 183.983287C45.598884 186.044567 46.497213 187.562675 47.736769 188.537604S50.348189 190.0 51.852368 190.0C53.551533 190.0 55.006964 189.415042 56.218663 188.245125S58.036212 185.668522 58.036212 184.02507C58.036212 182.520891 57.667131 180.988857 56.928969 179.428969S55.25766 176.364904 54.129526 174.916435S51.852368 172.012535 50.682451 170.550139S48.391366 167.4234 47.318942 165.557103S45.487467 161.83844 45.041783 160.0C44.54039 161.922006 43.739553 163.850976 42.639276 165.786908S40.4039 169.435932 39.233983 170.926184C38.064067 172.416436 36.922007 173.878831 35.807799 175.31337S33.774372 178.189414 33.050139 179.637883S31.963788 182.465182 31.963788 183.774373C31.963788 185.529248 32.555712 187.00557 33.739554 188.203343C34.923397 189.401116 36.378831 190.0 38.10585 190.0C41.420611 190.0 43.732604 187.994429 45.041783 183.983287Z" fill="#da0a0a" />
<path d="M44.958217 96.016713C44.401116 93.955433 43.502787 92.437325 42.263231 91.462396S39.651811 90.0 38.147632 90.0C36.448467 90.0 34.993036 90.584958 33.781337 91.754875S31.963788 94.331478 31.963788 95.97493C31.963788 97.479109 32.332869 99.011143 33.071031 100.571031S34.74234 103.635096 35.870474 105.083565S38.147632 107.987465 39.317549 109.449861S41.608634 112.5766 42.681058 114.442897S44.512533 118.16156 44.958217 120.0C45.45961 118.077994 46.260447 116.149024 47.360724 114.213092S49.5961 110.564068 50.766017 109.073816C51.935933 107.583564 53.077993 106.121169 54.192201 104.68663S56.225628 101.810586 56.949861 100.362117S58.036212 97.534818 58.036212 96.225627C58.036212 94.470752 57.444288 92.99443 56.260446 91.796657C55.076603 90.598884 53.621169 90.0 51.89415 90.0C48.579389 90.0 46.267396 92.005571 44.958217 96.016713Z" fill="#da0a0a" />
<path d="M104.958217 26.016713C104.401116 23.955433 103.502787 22.437325 102.263231 21.462396S99.651811 20.0 98.147632 20.0C96.448467 20.0 94.993036 20.584958 93.781337 21.754875S91.963788 24.331478 91.963788 25.97493C91.963788 27.479109 92.332869 29.011143 93.071031 30.571031S94.74234 33.635096 95.870474 35.083565S98.147632 37.987465 99.317549 39.449861S101.608634 42.5766 102.681058 44.442897S104.512533 48.16156 104.958217 50.0C105.45961 48.077994 106.260447 46.149024 107.360724 44.213092S109.5961 40.564068 110.766017 39.073816C111.935933 37.583564 113.077993 36.121169 114.192201 34.68663S116.225628 31.810586 116.949861 30.362117S118.036212 27.534818 118.036212 26.225627C118.036212 24.470752 117.444288 22.99443 116.260446 21.796657C115.076603 20.598884 113.621169 20.0 111.89415 20.0C108.579389 20.0 106.267396 22.005571 104.958217 26.016713Z" fill="#da0a0a" />
<path d="M105.041783 183.983287C105.598884 186.044567 106.497213 187.562675 107.736769 188.537604S110.348189 190.0 111.852368 190.0C113.551533 190.0 115.006964 189.415042 116.218663 188.245125S118.036212 185.668522 118.036212 184.02507C118.036212 182.520891 117.667131 180.988857 116.928969 179.428969S115.25766 176.364904 114.129526 174.916435S111.852368 172.012535 110.682451 170.550139S108.391366 167.4234 107.318942 165.557103S105.487467 161.83844 105.041783 160.0C104.54039 161.922006 103.739553 163.850976 102.639276 165.786908S100.4039 169.435932 99.233983 170.926184C98.064067 172.416436 96.922007 173.878831 95.807799 175.31337S93.774372 178.189414 93.050139 179.637883S91.963788 182.465182 91.963788 183.774373C91.963788 185.529248 92.555712 187.00557 93.739554 188.203343C94.923397 189.401116 96.378831 190.0 98.10585 190.0C101.420611 190.0 103.732604 187.994429 105.041783 183.983287Z" fill="#da0a0a" />
<path d="M104.958217 96.016713C104.401116 93.955433 103.502787 92.437325 102.263231 91.462396S99.651811 90.0 98.147632 90.0C96.448467 90.0 94.993036 90.584958 93.781337 91.754875S91.963788 94.331478 91.963788 95.97493C91.963788 97.479109 92.332869 99.011143 93.071031 100.571031S94.74234 103.635096 95.870474 105.083565S98.147632 107.987465 99.317549 109.449861S101.608634 112.5766 102.681058 114.442897S104.512533 118.16156 104.958217 120.0C105.45961 118.077994 106.260447 116.149024 107.360724 114.213092S109.5961 110.564068 110.766017 109.073816C111.935933 107.583564 113.077993 106.121169 114.192201 104.68663S116.225628 101.810586 116.949861 100.362117S118.036212 97.534818 118.036212 96.225627C118.036212 94.470752 117.444288 92.99443 116.260446 91.796657C115.076603 90.598884 113.621169 90.0 111.89415 90.0C108.579389 90.0 106.267396 92.005571 104.958217 96.016713Z" fill="#da0a0a" />
<path d="M143.696203 31.592827Q145.841772 29.352321 145.841772 25.478903Q145.841772 22.402954 144.379747 19.744726T140.259494 15.2827T134.183544 12.871308Q133.993671 12.833333 133.613924 12.833333Q132.85443 12.833333 132.85443 13.516878Q132.85443 14.124473 133.537975 14.314346Q140.487342 16.478903 141.816456 22.099156Q140.563291 21.263713 139.329114 20.921941T136.765823 20.580169Q134.943038 20.580169 133.424051 21.396624T131.031646 23.637131T130.158228 26.883966Q130.158228 28.934599 131.259494 30.510549T134.14557 32.959916T137.943038 33.833333Q141.550633 33.833333 143.696203 31.592827ZM134.981013 31.118143Q133.803797 29.618143 133.803797 27.225738Q133.803797 24.985232 134.981013 23.637131T138.056962 22.28903Q139.006329 22.28903 140.031646 22.763713T141.968354 24.035865Q142.196203 24.947257 142.196203 25.516878Q142.196203 27.035865 141.797468 28.668776T140.43038 31.459916T137.943038 32.618143Q136.158228 32.618143 134.981013 31.118143Z" fill="#da0a0a" />
<path d="M137.980502 42.474508C137.720523 41.512587 137.301308 40.804143 136.722854 40.349181S135.504203 39.666737 134.80226 39.666737C134.009324 39.666737 133.33013 39.939714 132.764676 40.48567S131.916495 41.688073 131.916495 42.45501C131.916495 43.156952 132.088731 43.871895 132.433203 44.599835S133.21314 46.029718 133.739597 46.705663S134.80226 48.060803 135.348216 48.743248S136.417378 50.202378 136.917838 51.073308S137.772518 52.808667 137.980502 53.666597C138.214483 52.76967 138.588203 51.869492 139.10166 50.966067S140.144825 49.263206 140.690781 48.567762C141.236736 47.872318 141.769692 47.189873 142.289651 46.520429S143.238574 45.178289 143.576546 44.502343S144.083505 43.18295 144.083505 42.572C144.083505 41.753067 143.807276 41.064124 143.254822 40.505168C142.702368 39.946213 142.023172 39.666737 141.217238 39.666737C139.670365 39.666737 138.591445 40.60266 137.980502 42.474508Z" fill="#da0a0a" />
<path d="M6.303797 178.407173Q4.158228 180.647679 4.158228 184.521097Q4.158228 187.597046 5.620253 190.255274T9.740506 194.7173T15.816456 197.128692Q16.006329 197.166667 16.386076 197.166667Q17.14557 197.166667 17.14557 196.483122Q17.14557 195.875527 16.462025 195.685654Q9.512658 193.521097 8.183544 187.900844Q9.436709 188.736287 10.670886 189.078059T13.234177 189.419831Q15.056962 189.419831 16.575949 188.603376T18.968354 186.362869T19.841772 183.116034Q19.841772 181.065401 18.740506 179.489451T15.85443 177.040084T12.056962 176.166667Q8.449367 176.166667 6.303797 178.407173ZM15.018987 178.881857Q16.196203 180.381857 16.196203 182.774262Q16.196203 185.014768 15.018987 186.362869T11.943038 187.71097Q10.993671 187.71097 9.968354 187.236287T8.031646 185.964135Q7.803797 185.052743 7.803797 184.483122Q7.803797 182.964135 8.202532 181.331224T9.56962 178.540084T12.056962 177.381857Q13.841772 177.381857 15.018987 178.881857Z" fill="#da0a0a" />
<path d="M12.019498 167.525492C12.279477 168.487413 12.698692 169.195857 13.277146 169.650819S14.495797 170.333263 15.19774 170.333263C15.990676 170.333263 16.66987 170.060286 17.235324 169.51433S18.083505 168.311927 18.083505 167.54499C18.083505 166.843048 17.911269 166.128105 17.566797 165.400165S16.78686 163.970282 16.260403 163.294337S15.19774 161.939197 14.651784 161.256752S13.582622 159.797622 13.082162 158.926692S12.227482 157.191333 12.019498 156.333403C11.785517 157.23033 11.411797 158.130508 10.89834 159.033933S9.855175 160.736794 9.309219 161.432238C8.763264 162.127682 8.230308 162.810127 7.710349 163.479571S6.761426 164.821711 6.423454 165.497657S5.916495 166.81705 5.916495 167.428C5.916495 168.246933 6.192724 168.935876 6.745178 169.494832C7.297632 170.053787 7.976828 170.333263 8.782762 170.333263C10.329635 170.333263 11.408555 169.39734 12.019498 167.525492Z" fill="#da0a0a" />
</svg>
