<svg width="150.000000" height="210.000000" id="card-webspade1">
<radialGradient id="card-webwhitegradient" cx="75.0" cy="105.0" r="150" gradientTransform="matrix(1 0 0 1 0 -.25)" gradientUnits="userSpaceOnUse">
<stop stop-color="#FDFAF4" offset=".15"/>
<stop stop-color="#FDF9F2" offset=".35"/>
<stop stop-color="#FCF7F1" offset=".5"/>
<stop stop-color="#FDFDF8" offset=".75"/>
<stop stop-color="#FFFDFA" offset="1"/>
</radialGradient>
<rect x="0" y="0" rx="7.5" ry="7.5" width="150" height="210.0" stroke="#010101" fill="url(#card-webwhitegradient)" />
<path d="M107.255319 108.617021C107.255319 107.822695 107.0 107.170213 106.489362 106.659574S105.297872 105.893617 104.446809 105.893617C103.368791 105.893617 102.489362 106.432624 101.808511 107.510638C102.205674 108.702128 102.404255 109.609932 102.404255 110.234043C102.404255 111.595745 101.950355 112.730494 101.042553 113.638298S99.0 115.0 97.638298 115.0C95.652485 115.0 94.092196 114.06383 92.957447 112.191489C92.390071 111.340426 91.907804 108.886528 91.510638 104.829787S90.262409 97.75177 88.957447 95.765957C87.765957 94.007089 86.163123 92.588655 84.148936 91.510638C82.134749 90.432621 80.078017 89.893617 77.978723 89.893617C75.652485 89.893617 73.638298 90.631206 71.93617 92.106383C70.234043 93.581557 69.382979 95.368791 69.382979 97.468085C69.382979 98.94326 69.865249 100.787234 70.829787 103.0C67.652485 100.390068 64.560281 99.085106 61.553191 99.085106H60.87234C60.304964 97.836877 59.468085 96.702128 58.361702 95.680851S56.205677 93.87943 55.212766 93.340426S53.340426 92.12057 52.574468 91.297872C51.808511 90.475177 51.425532 89.553191 51.425532 88.531915S51.964539 86.631209 53.042553 85.893617H52.191489C50.432621 85.893617 49.014187 86.375887 47.93617 87.340426S46.319149 89.553191 46.319149 91.085106S46.829787 93.794323 47.851064 94.617021S50.035464 95.921983 51.340426 96.06383S53.964536 96.51773 55.297872 97.0S57.524826 98.177302 57.978723 99.085106C54.517728 99.652483 51.453898 101.212766 48.787234 103.765957S44.730494 109.042553 44.617021 111.93617C43.595745 113.014187 42.971634 114.375889 42.744681 116.021277H44.617021C44.900709 118.347515 45.709217 120.205677 47.042553 121.595745S50.06383 123.680851 52.106383 123.680851C53.75177 123.680851 55.028366 123.241134 55.93617 122.361702S57.297872 120.24823 57.297872 118.659574C57.297872 117.978723 57.241135 117.099294 57.12766 116.021277C55.87943 117.099294 54.631209 117.638298 53.382979 117.638298C51.113472 117.638298 49.695038 116.418443 49.12766 113.978723C52.645387 112.503549 55.482272 110.588655 57.638298 108.234043S60.87234 103.482272 60.87234 101.042553V100.87234C62.744681 100.929078 64.460996 101.397163 66.021277 102.276596C67.581557 103.156026 68.673762 104.24823 69.297872 105.553191C67.198579 106.68794 65.75177 107.780145 64.957447 108.829787C64.163121 109.87943 63.765957 111.226953 63.765957 112.87234C63.765957 115.992911 65.31206 118.645387 68.404255 120.829787C71.496451 123.014187 75.226953 124.106383 79.595745 124.106383C83.113472 124.106383 87.099294 123.156026 91.553191 121.255319C96.007089 119.354613 99.737591 117.1844 102.744681 114.744681C105.75177 112.304962 107.255319 110.262409 107.255319 108.617021ZM48.787234 110.744681V110.404255C48.787234 108.021277 49.808511 105.851064 51.851064 103.893617S56.163123 100.929081 58.659574 100.87234C58.773049 101.553191 58.829787 101.950357 58.829787 102.06383C58.829787 103.539004 58.120568 104.94326 56.702128 106.276596S53.93617 108.588655 52.659574 109.212766S50.092196 110.347515 48.787234 110.744681Z" fill="#010101" />
<path d="M148.359165 33.144809Q148.5 32.941381 148.5 32.659712Q148.468703 32.190263 148.312221 32.096374T147.936662 32.002484H147.654993Q146.716095 32.002484 146.277943 31.517387T145.57377 30.422007T145.21386 29.592648L139.73696 16.635867Q139.54918 16.166418 139.54918 15.884749Q139.54918 15.321411 139.987332 15.071038T141.207899 14.664183Q141.73994 14.570293 141.865127 14.476403T141.990313 13.944362Q141.990313 13.568803 141.786885 13.443616T141.145306 13.31843Q139.580477 13.31843 138.657228 13.553154T137.045455 14.492052T135.762295 16.635867L130.504471 29.592648Q130.035022 30.781918 129.59687 31.376552T128.282414 32.002484H128.094635Q127.781669 32.002484 127.656483 32.112022T127.5 32.659712Q127.5 32.941381 127.640835 33.144809T128.063338 33.348236Q130.066319 33.254347 131.505961 33.254347Q133.383756 33.254347 135.386736 33.348236Q135.668405 33.348236 135.80924 33.144809T135.950075 32.659712Q135.918778 32.22156 135.793592 32.112022T135.35544 32.002484Q134.291356 32.002484 133.853204 31.799056T133.415052 31.063587Q133.415052 30.656731 133.790611 29.592648L134.854694 26.995032H142.584948Q143.367362 28.93542 143.4769 29.248385T143.586438 29.592648Q143.961997 30.781918 143.961997 31.12618Q143.961997 31.658222 143.492548 31.830353T141.708644 32.002484H141.520864Q141.207899 32.002484 141.082712 32.112022T140.92623 32.659712Q140.92623 32.941381 141.067064 33.144809T141.489568 33.348236Q143.492548 33.254347 144.900894 33.254347Q145.902385 33.254347 147.936662 33.348236Q148.218331 33.348236 148.359165 33.144809ZM141.990313 25.64928H135.418033L138.578987 17.606061H138.672876Z" fill="#010101" />
<path d="M137.672344 48.940403C137.606151 49.628813 137.440667 50.237789 137.175895 50.767335C136.911123 51.296881 136.633111 51.700659 136.341861 51.97867S135.683238 52.494977 135.239744 52.693557C134.79625 52.892136 134.455355 53.021213 134.217059 53.080787S133.687513 53.196625 133.343309 53.24958C133.290354 53.262818 133.250638 53.269438 133.224161 53.269438V53.666597H142.775839V53.269438C141.650554 53.070858 140.796662 52.779607 140.214162 52.395687C139.102117 51.654324 138.473281 50.502563 138.327656 48.940403C139.016066 49.999493 139.903054 50.529039 140.988623 50.529039C141.69027 50.529039 142.289319 50.284125 142.785768 49.794295S143.530441 48.708726 143.530441 48.007079C143.530441 47.41134 143.384816 46.868557 143.093566 46.378726C142.802315 45.888896 142.425014 45.442092 141.961663 45.038314S141.02172 44.214209 140.53189 43.777334C140.042059 43.340459 139.55885 42.767888 139.082259 42.059621S138.241606 40.553726 137.990071 39.666737C137.765015 40.540487 137.417501 41.328186 136.947528 42.029834S135.994346 43.300743 135.497897 43.737618S134.521547 44.598129 134.058195 45.008527S133.214232 45.869038 132.916363 46.358868S132.469559 47.398101 132.469559 48.007079C132.469559 48.708726 132.717783 49.304465 133.214232 49.794295S134.30973 50.529039 135.011377 50.529039C136.096946 50.529039 136.983934 49.999493 137.672344 48.940403Z" fill="#010101" />
<path d="M1.640835 176.855191Q1.5 177.058619 1.5 177.340288Q1.531297 177.809737 1.687779 177.903626T2.063338 177.997516H2.345007Q3.283905 177.997516 3.722057 178.482613T4.42623 179.577993T4.78614 180.407352L10.26304 193.364133Q10.45082 193.833582 10.45082 194.115251Q10.45082 194.678589 10.012668 194.928962T8.792101 195.335817Q8.26006 195.429707 8.134873 195.523597T8.009687 196.055638Q8.009687 196.431197 8.213115 196.556384T8.854694 196.68157Q10.419523 196.68157 11.342772 196.446846T12.954545 195.507948T14.237705 193.364133L19.495529 180.407352Q19.964978 179.218082 20.40313 178.623448T21.717586 177.997516H21.905365Q22.218331 177.997516 22.343517 177.887978T22.5 177.340288Q22.5 177.058619 22.359165 176.855191T21.936662 176.651764Q19.933681 176.745653 18.494039 176.745653Q16.616244 176.745653 14.613264 176.651764Q14.331595 176.651764 14.19076 176.855191T14.049925 177.340288Q14.081222 177.77844 14.206408 177.887978T14.64456 177.997516Q15.708644 177.997516 16.146796 178.200944T16.584948 178.936413Q16.584948 179.343269 16.209389 180.407352L15.145306 183.004968H7.415052Q6.632638 181.06458 6.5231 180.751615T6.413562 180.407352Q6.038003 179.218082 6.038003 178.87382Q6.038003 178.341778 6.507452 178.169647T8.291356 177.997516H8.479136Q8.792101 177.997516 8.917288 177.887978T9.07377 177.340288Q9.07377 177.058619 8.932936 176.855191T8.510432 176.651764Q6.507452 176.745653 5.099106 176.745653Q4.097615 176.745653 2.063338 176.651764Q1.781669 176.651764 1.640835 176.855191ZM8.009687 184.35072H14.581967L11.421013 192.393939H11.327124Z" fill="#010101" />
<path d="M12.327656 161.059597C12.393849 160.371187 12.559333 159.762211 12.824105 159.232665C13.088877 158.703119 13.366889 158.299341 13.658139 158.02133S14.316762 157.505023 14.760256 157.306443C15.20375 157.107864 15.544645 156.978787 15.782941 156.919213S16.312487 156.803375 16.656691 156.75042C16.709646 156.737182 16.749362 156.730562 16.775839 156.730562V156.333403H7.224161V156.730562C8.349446 156.929142 9.203338 157.220393 9.785838 157.604313C10.897883 158.345676 11.526719 159.497437 11.672344 161.059597C10.983934 160.000507 10.096946 159.470961 9.011377 159.470961C8.30973 159.470961 7.710681 159.715875 7.214232 160.205705S6.469559 161.291274 6.469559 161.992921C6.469559 162.58866 6.615184 163.131443 6.906434 163.621274C7.197685 164.111104 7.574986 164.557908 8.038337 164.961686S8.97828 165.785791 9.46811 166.222666C9.957941 166.659541 10.44115 167.232112 10.917741 167.940379S11.758394 169.446274 12.009929 170.333263C12.234985 169.459513 12.582499 168.671814 13.052472 167.970166S14.005654 166.699257 14.502103 166.262382S15.478453 165.401871 15.941805 164.991473S16.785768 164.130962 17.083637 163.641132S17.530441 162.601899 17.530441 161.992921C17.530441 161.291274 17.282217 160.695535 16.785768 160.205705S15.69027 159.470961 14.988623 159.470961C13.903054 159.470961 13.016066 160.000507 12.327656 161.059597Z" fill="#010101" />
</svg>
