<svg width="150.000000" height="210.000000" id="card-webdiamond7">
<radialGradient id="card-webwhitegradient" cx="75.0" cy="105.0" r="150" gradientTransform="matrix(1 0 0 1 0 -.25)" gradientUnits="userSpaceOnUse">
<stop stop-color="#FDFAF4" offset=".15"/>
<stop stop-color="#FDF9F2" offset=".35"/>
<stop stop-color="#FCF7F1" offset=".5"/>
<stop stop-color="#FDFDF8" offset=".75"/>
<stop stop-color="#FFFDFA" offset="1"/>
</radialGradient>
<rect x="0" y="0" rx="7.5" ry="7.5" width="150" height="210.0" stroke="#010101" fill="url(#card-webwhitegradient)" />
<path d="M45.041725 20.0C44.374131 21.335188 42.760777 23.734353 40.201669 27.197497C37.642561 30.66064 35.584131 33.254534 34.026426 34.979138C35.973576 37.204449 38.066758 39.847024 40.305981 42.906815C42.545203 45.966619 44.123783 48.331015 45.041725 50.0C47.100138 46.328234 50.744103 41.32128 55.973574 34.979138C50.604993 28.497928 46.961057 23.504868 45.041725 20.0Z" fill="#da0a0a" />
<path d="M44.958275 190.0C45.625869 188.664812 47.239223 186.265647 49.798331 182.802503C52.357439 179.33936 54.415869 176.745466 55.973574 175.020862C54.026424 172.795551 51.933242 170.152976 49.694019 167.093185C47.454797 164.033381 45.876217 161.668985 44.958275 160.0C42.899862 163.671766 39.255897 168.67872 34.026426 175.020862C39.395007 181.502072 43.038943 186.495132 44.958275 190.0Z" fill="#da0a0a" />
<path d="M45.041725 90.0C44.374131 91.335188 42.760777 93.734353 40.201669 97.197497C37.642561 100.66064 35.584131 103.254534 34.026426 104.979138C35.973576 107.204449 38.066758 109.847024 40.305981 112.906815C42.545203 115.966619 44.123783 118.331015 45.041725 120.0C47.100138 116.328234 50.744103 111.32128 55.973574 104.979138C50.604993 98.497928 46.961057 93.504868 45.041725 90.0Z" fill="#da0a0a" />
<path d="M105.041725 20.0C104.374131 21.335188 102.760777 23.734353 100.201669 27.197497C97.642561 30.66064 95.584131 33.254534 94.026426 34.979138C95.973576 37.204449 98.066758 39.847024 100.305981 42.906815C102.545203 45.966619 104.123783 48.331015 105.041725 50.0C107.100138 46.328234 110.744103 41.32128 115.973574 34.979138C110.604993 28.497928 106.961057 23.504868 105.041725 20.0Z" fill="#da0a0a" />
<path d="M104.958275 190.0C105.625869 188.664812 107.239223 186.265647 109.798331 182.802503C112.357439 179.33936 114.415869 176.745466 115.973574 175.020862C114.026424 172.795551 111.933242 170.152976 109.694019 167.093185C107.454797 164.033381 105.876217 161.668985 104.958275 160.0C102.899862 163.671766 99.255897 168.67872 94.026426 175.020862C99.395007 181.502072 103.038943 186.495132 104.958275 190.0Z" fill="#da0a0a" />
<path d="M105.041725 90.0C104.374131 91.335188 102.760777 93.734353 100.201669 97.197497C97.642561 100.66064 95.584131 103.254534 94.026426 104.979138C95.973576 107.204449 98.066758 109.847024 100.305981 112.906815C102.545203 115.966619 104.123783 118.331015 105.041725 120.0C107.100138 116.328234 110.744103 111.32128 115.973574 104.979138C110.604993 98.497928 106.961057 93.504868 105.041725 90.0Z" fill="#da0a0a" />
<path d="M75.041725 55.0C74.374131 56.335188 72.760777 58.734353 70.201669 62.197497C67.642561 65.66064 65.584131 68.254534 64.026426 69.979138C65.973576 72.204449 68.066758 74.847024 70.305981 77.906815C72.545203 80.966619 74.123783 83.331015 75.041725 85.0C77.100138 81.328234 80.744103 76.32128 85.973574 69.979138C80.604993 63.497928 76.961057 58.504868 75.041725 55.0Z" fill="#da0a0a" />
<path d="M141.312731 33.387761Q141.700185 32.942189 141.700185 32.167282Q141.700185 30.462485 139.782288 26.607319T134.76476 17.172817L133.873616 15.584256H140.654059Q141.700185 15.584256 142.223247 15.739237T143.075646 16.4754T143.559963 18.296433Q143.637454 18.606396 143.811808 18.742005T144.451107 18.877614Q145.109779 18.877614 145.109779 18.218942L144.954797 13.685732Q144.954797 12.833333 143.831181 12.833333H132.013838Q130.890221 12.833333 130.890221 13.569496Q130.890221 14.150677 131.74262 15.584256Q133.176199 17.98647 134.396679 20.950492T137.089483 27.98278Q138.29059 31.276138 138.833026 32.593481Q139.414207 33.833333 140.421587 33.833333Q140.925277 33.833333 141.312731 33.387761Z" fill="#da0a0a" />
<path d="M138.019471 39.666737C137.707931 40.289818 136.95504 41.409417 135.760801 43.025535C134.566563 44.641652 133.605972 45.852124 132.87905 46.656931C133.787711 47.695399 134.764519 48.928588 135.809479 50.356477C136.85444 51.784371 137.591103 52.887745 138.019471 53.666597C138.980054 51.953123 140.680555 49.616568 143.12095 46.656931C140.615637 43.632397 138.915151 41.302325 138.019471 39.666737Z" fill="#da0a0a" />
<path d="M8.687269 176.612239Q8.299815 177.057811 8.299815 177.832718Q8.299815 179.537515 10.217712 183.392681T15.23524 192.827183L16.126384 194.415744H9.345941Q8.299815 194.415744 7.776753 194.260763T6.924354 193.5246T6.440037 191.703567Q6.362546 191.393604 6.188192 191.257995T5.548893 191.122386Q4.890221 191.122386 4.890221 191.781058L5.045203 196.314268Q5.045203 197.166667 6.168819 197.166667H17.986162Q19.109779 197.166667 19.109779 196.430504Q19.109779 195.849323 18.25738 194.415744Q16.823801 192.01353 15.603321 189.049508T12.910517 182.01722Q11.70941 178.723862 11.166974 177.406519Q10.585793 176.166667 9.578413 176.166667Q9.074723 176.166667 8.687269 176.612239Z" fill="#da0a0a" />
<path d="M11.980529 170.333263C12.292069 169.710182 13.04496 168.590583 14.239199 166.974465C15.433437 165.358348 16.394028 164.147876 17.12095 163.343069C16.212289 162.304601 15.235481 161.071412 14.190521 159.643523C13.14556 158.215629 12.408897 157.112255 11.980529 156.333403C11.019946 158.046877 9.319445 160.383432 6.87905 163.343069C9.384363 166.367603 11.084849 168.697675 11.980529 170.333263Z" fill="#da0a0a" />
</svg>
