<svg width="500.000000" height="700.000000" id="card-realclub13">
<radialGradient id="card-realwhitegradient" cx="250.0" cy="350.0" r="500" gradientTransform="matrix(1 0 0 1 0 -.25)" gradientUnits="userSpaceOnUse">
<stop stop-color="#FDFAF4" offset=".15"/>
<stop stop-color="#FDF9F2" offset=".35"/>
<stop stop-color="#FCF7F1" offset=".5"/>
<stop stop-color="#FDFDF8" offset=".75"/>
<stop stop-color="#FFFDFA" offset="1"/>
</radialGradient>
<rect x="0" y="0" rx="25.0" ry="25.0" width="500" height="700.0" stroke="#010101" fill="url(#card-realwhitegradient)" />
<rect x="100.0" y="70.0" width="300.0" height="560.0" stroke="#010101" fill="#fffdfa" />
<path d="M199.291785 185.628643C197.025496 185.628643 194.192635 186.148 190.793201 187.186717S183.569405 189.83072 179.320113 192.002581S171.482521 197.715527 168.555241 202.625811S164.164306 213.201816 164.164306 219.622978C164.164306 224.722128 165.06138 229.254706 166.855524 233.220711S170.868754 240.775017 173.512748 243.985584C176.156751 247.19615 178.84796 250.784451 181.586402 254.750456S186.779972 264.429408 188.951841 271.889267S192.398499 288.178218 192.776204 298.376519C193.153918 311.029975 212.228527 317.356689 250.0 317.356689C287.58272 317.356689 306.657224 311.029975 307.223796 298.376519C307.979227 285.15649 309.915014 274.297199 313.031161 265.798615S319.357875 251.53989 322.66289 248.518162S328.989603 241.624876 331.728045 236.903431S335.835694 226.421845 335.835694 219.622978C335.835694 213.012978 334.372048 207.252808 331.444759 202.342524S324.929178 193.891165 320.679887 191.719295S312.559008 187.989352 309.065156 187.045074S302.596799 185.628643 300.141643 185.628643C290.88762 185.628643 281.633626 189.311363 272.379603 196.676802C272.379603 187.800513 271.529745 181.520995 269.830028 177.838275S263.786601 170.047907 256.798867 165.515329V158.716462L268.413598 151.917595V141.719295H257.932011L254.249292 130.954422H245.750708L242.067989 141.719295H231.586402V151.917595L243.201133 158.716462V165.515329C236.213399 169.85904 231.869688 174.061136 230.169972 178.121561S227.620397 188.367085 227.620397 196.676802C225.165249 194.221655 221.246459 191.766519 215.864023 189.311363S204.957507 185.628643 199.291785 185.628643ZM250.0 221.889267C248.866856 219.811836 247.261567 217.167822 245.184136 213.957255S241.737479 208.527595 241.076487 207.300031S239.754484 204.183884 239.093484 201.634309S238.101983 196.11023 238.101983 192.710796C238.101983 181.568218 241.973569 175.996915 249.716714 175.996915C257.837592 175.996915 261.898017 181.568218 261.898017 192.710796C261.898017 196.11023 261.567516 199.084734 260.906516 201.634309S259.584513 206.119663 258.923513 207.441675S256.893295 210.982751 254.815864 214.098898S251.133144 219.811845 250.0 221.889267ZM199.575071 195.826944C208.829093 195.826944 218.366374 200.595584 228.186969 210.132893S243.578839 232.087567 244.90085 247.385017C244.90085 251.917595 227.620397 254.183884 193.05949 254.183884C192.681776 253.80617 190.509915 251.162156 186.543909 246.251873C182.577904 241.34159 179.556176 236.856207 177.478754 232.795782S174.362606 224.910995 174.362606 221.322694C174.362606 213.768388 176.770538 207.630541 181.586402 202.909097S192.398499 195.826944 199.575071 195.826944ZM198.15864 265.515329C203.635496 265.137615 209.537309 264.712686 215.864023 264.240541C222.190737 263.768397 226.628895 263.437898 229.17847 263.24904S234.513683 262.776895 237.535411 262.399182S242.917847 261.643751 244.617564 261.266037S248.111416 260.321751 250.0 259.56632C252.266289 260.510607 255.004731 261.313252 258.215297 261.974252S264.305949 263.060182 266.855524 263.24904S274.457025 263.768397 282.011331 264.240541S296.175637 265.137615 301.84136 265.515329C299.952785 272.691901 298.725212 280.623912 298.15864 289.311363C285.127479 285.15649 269.074504 283.079068 250.0 283.079068C230.547677 283.079068 214.494901 285.156499 201.84136 289.311363C201.274788 279.868502 200.047215 271.93649 198.15864 265.515329ZM300.424929 195.826944C307.223796 195.826944 313.125581 198.18766 318.130312 202.909097S325.637394 213.768388 325.637394 221.322694C325.637394 223.966697 324.881963 226.893997 323.371105 230.104564S320.349377 236.053573 318.838527 238.319862S315.155807 243.513431 312.322946 247.101731C309.490085 250.690031 307.695949 253.05074 306.94051 254.183884C272.379603 254.183884 255.09915 251.917595 255.09915 247.385017C256.421153 232.087567 261.945241 219.670201 271.671388 210.132893S290.982068 195.826944 300.424929 195.826944ZM249.716714 294.410513C276.156742 294.410513 289.376771 296.86566 289.376771 301.775952C289.376771 303.475669 284.844193 304.79768 275.779037 305.741958S258.120878 307.158388 250.0 307.158388C223.74881 307.158388 210.623229 305.364244 210.623229 301.775952C210.623229 296.865669 223.654391 294.410513 249.716714 294.410513Z" fill="#010101" />
<path d="M300.708215 514.371357C302.974504 514.371357 305.807365 513.852 309.206799 512.813283S316.430595 510.16928 320.679887 507.997419S328.517479 502.284473 331.444759 497.374189S335.835694 486.798184 335.835694 480.377022C335.835694 475.277872 334.93862 470.745294 333.144476 466.779289S329.131246 459.224983 326.487252 456.014416C323.843249 452.80385 321.15204 449.215549 318.413598 445.249544S313.220028 435.570592 311.048159 428.110733S307.601501 411.821782 307.223796 401.623481C306.846082 388.970025 287.771473 382.643311 250.0 382.643311C212.41728 382.643311 193.342776 388.970025 192.776204 401.623481C192.020773 414.84351 190.084986 425.702801 186.968839 434.201385S180.642125 448.46011 177.33711 451.481838S171.010397 458.375124 168.271955 463.096569S164.164306 473.578155 164.164306 480.377022C164.164306 486.987022 165.627952 492.747192 168.555241 497.657476S175.070822 506.108835 179.320113 508.280705S187.440992 512.010648 190.934844 512.954926S197.403201 514.371357 199.858357 514.371357C209.11238 514.371357 218.366374 510.688637 227.620397 503.323198C227.620397 512.199487 228.470255 518.479005 230.169972 522.161725S236.213399 529.952093 243.201133 534.484671V541.283538L231.586402 548.082405V558.280705H242.067989L245.750708 569.045578H254.249292L257.932011 558.280705H268.413598V548.082405L256.798867 541.283538V534.484671C263.786601 530.14096 268.130312 525.938864 269.830028 521.878439S272.379603 511.632915 272.379603 503.323198C274.834751 505.778345 278.753541 508.233481 284.135977 510.688637S295.042493 514.371357 300.708215 514.371357ZM250.0 478.110733C251.133144 480.188164 252.738433 482.832178 254.815864 486.042745S258.262521 491.472405 258.923513 492.699969S260.245516 495.816116 260.906516 498.365691S261.898017 503.88977 261.898017 507.289204C261.898017 518.431782 258.026431 524.003085 250.283286 524.003085C242.162408 524.003085 238.101983 518.431782 238.101983 507.289204C238.101983 503.88977 238.432484 500.915266 239.093484 498.365691S240.415487 493.880337 241.076487 492.558325S243.106705 489.017249 245.184136 485.901102S248.866856 480.188155 250.0 478.110733ZM300.424929 504.173056C291.170907 504.173056 281.633626 499.404416 271.813031 489.867107S256.421161 467.912433 255.09915 452.614983C255.09915 448.082405 272.379603 445.816116 306.94051 445.816116C307.318224 446.19383 309.490085 448.837844 313.456091 453.748127C317.422096 458.65841 320.443824 463.143793 322.521246 467.204218S325.637394 475.089005 325.637394 478.677306C325.637394 486.231612 323.229462 492.369459 318.413598 497.090903S307.601501 504.173056 300.424929 504.173056ZM301.84136 434.484671C296.364504 434.862385 290.462691 435.287314 284.135977 435.759459C277.809263 436.231603 273.371105 436.562102 270.82153 436.75096S265.486317 437.223105 262.464589 437.600818S257.082153 438.356249 255.382436 438.733963S251.888584 439.678249 250.0 440.43368C247.733711 439.489393 244.995269 438.686748 241.784703 438.025748S235.694051 436.939818 233.144476 436.75096S225.542975 436.231603 217.988669 435.759459S203.824363 434.862385 198.15864 434.484671C200.047215 427.308099 201.274788 419.376088 201.84136 410.688637C214.872521 414.84351 230.925496 416.920932 250.0 416.920932C269.452323 416.920932 285.505099 414.843501 298.15864 410.688637C298.725212 420.131498 299.952785 428.06351 301.84136 434.484671ZM199.575071 504.173056C192.776204 504.173056 186.874419 501.81234 181.869688 497.090903S174.362606 486.231612 174.362606 478.677306C174.362606 476.033303 175.118037 473.106003 176.628895 469.895436S179.650623 463.946427 181.161473 461.680138S184.844193 456.486569 187.677054 452.898269C190.509915 449.309969 192.304051 446.94926 193.05949 445.816116C227.620397 445.816116 244.90085 448.082405 244.90085 452.614983C243.578847 467.912433 238.054759 480.329799 228.328612 489.867107S209.017932 504.173056 199.575071 504.173056ZM250.283286 405.589487C223.843258 405.589487 210.623229 403.13434 210.623229 398.224048C210.623229 396.524331 215.155807 395.20232 224.220963 394.258042S241.879122 392.841612 250.0 392.841612C276.25119 392.841612 289.376771 394.635756 289.376771 398.224048C289.376771 403.134331 276.345609 405.589487 250.283286 405.589487Z" fill="#010101" />
<path d="M494.520548 111.019787Q495.0 110.327245 495.0 109.368341Q494.893455 107.770167 494.360731 107.450533T492.336377 107.130898Q489.246575 107.130898 487.754947 106.012177T485.890411 103.242009T485.410959 98.926941V56.628615Q485.517504 53.964992 485.890411 52.313546T487.754947 49.543379T492.336377 48.424658H492.975647Q494.041096 48.424658 494.467275 48.05175T495.0 46.187215Q495.0 45.228311 494.520548 44.535769T493.082192 43.843227Q486.156773 44.162861 480.509893 44.162861Q474.117199 44.162861 467.191781 43.843227Q466.232877 43.843227 465.753425 44.535769T465.273973 46.187215Q465.380518 47.785388 465.913242 48.105023T467.937595 48.424658Q471.027397 48.424658 472.519026 49.543379T474.383562 52.313546T474.863014 56.628615V75.913242Q473.158295 75.593607 471.027397 74.101979T465.806697 69.946728Q459.840183 64.406393 450.783866 53.645358Q448.866058 51.51446 448.866058 50.235921Q448.866058 48.637747 451.74277 48.531202Q452.488584 48.424658 452.754947 47.945205T453.234399 46.29376Q453.234399 45.334855 452.701674 44.589041T451.316591 43.843227Q447.587519 44.162861 439.596651 44.162861Q437.039574 44.162861 432.138508 43.949772L429.901065 43.843227Q428.942161 43.843227 428.409437 44.535769T427.876712 46.29376Q427.983257 47.785388 428.515982 48.158295T430.00761 48.531202Q434.269406 48.318113 438.05175 49.916286T445.989346 55.669711L463.249619 73.675799Q459.520548 78.25723 455.578387 82.412481T446.09589 92.108067Q443.325723 94.878234 439.490107 98.926941Q438.318113 100.098935 437.891933 100.631659Q434.482496 104.041096 432.511416 105.42618T427.663623 107.130898Q427.450533 107.130898 426.704718 107.18417T425.479452 107.770167T425.0 109.368341Q425.0 110.327245 425.479452 111.019787T426.917808 111.712329Q428.196347 111.605784 430.00761 111.605784Q433.843227 111.392694 435.974125 111.392694H442.792998Q456.856925 95.730594 467.937595 82.945205Q471.347032 79.003044 474.863014 78.683409V98.926941Q474.756469 101.590563 474.383562 103.242009T472.519026 106.012177T467.937595 107.130898H467.298326Q466.232877 107.130898 465.806697 107.503805T465.273973 109.368341Q465.273973 110.327245 465.753425 111.019787T467.191781 111.712329Q474.010654 111.392694 480.403349 111.392694Q486.156773 111.392694 493.082192 111.712329Q494.041096 111.712329 494.520548 111.019787Z" fill="#010101" />
<path d="M459.074608 159.488472C459.030542 160.810461 458.975459 161.87907 458.909359 162.694294C458.84326 163.509519 458.678011 164.545079 458.413614 165.800968S457.829735 168.092417 457.455172 168.907641S456.518761 170.637245 455.769636 171.650768S454.139181 173.501552 453.125659 174.162546S450.83421 175.462504 449.291892 176.07943S445.98692 177.181089 444.003937 177.533617V178.855606H475.996063V177.533617C474.01308 177.181087 472.250426 176.685343 470.708108 176.04638S467.876851 174.757441 466.841291 174.096447S464.924408 172.587178 464.197314 171.551618S462.908375 169.601685 462.511778 168.808492S461.795703 166.979739 461.553337 165.701819S461.15674 163.399357 461.090641 162.628195C461.024541 161.857033 460.969459 160.810461 460.925392 159.488472C461.982983 161.427386 462.842276 162.793444 463.50327 163.586637C464.69306 165.084893 466.158266 166.274683 467.898882 167.156006C469.639499 168.03733 471.347072 168.477995 473.021588 168.477995C475.841833 168.477995 478.265475 167.431423 480.292526 165.338272S483.3331 160.72233 483.3331 157.769887C483.3331 154.90558 482.418727 152.459901 480.589974 150.432849S476.546889 147.392276 473.94698 147.392276C473.065657 147.392276 472.250426 147.513458 471.501301 147.755822S470.003045 148.306651 469.253921 148.681214L467.865833 149.375259C469.584418 146.907549 470.44371 144.572031 470.44371 142.368719C470.44371 139.592542 469.419169 137.212963 467.370087 135.22998S462.864307 132.255505 460.0 132.255505S454.678996 133.246997 452.629913 135.22998S449.55629 139.592542 449.55629 142.368719C449.55629 144.572031 450.415582 146.907549 452.134167 149.375259C451.825703 149.24306 451.396055 149.044761 450.845228 148.780364S449.886787 148.317668 449.622389 148.185469S449.016477 147.921071 448.597848 147.788872S447.771605 147.557524 447.375008 147.491425S446.537747 147.392276 446.05302 147.392276C443.453111 147.392276 441.23878 148.405798 439.410026 150.432849S436.6669 154.90558 436.6669 157.769887C436.6669 160.72233 437.680422 163.245121 439.707474 165.338272S444.158167 168.477995 446.978412 168.477995C451.825701 168.477995 455.857747 165.481489 459.074608 159.488472Z" fill="#010101" />
<path d="M5.479452 588.980213Q5.0 589.672755 5.0 590.631659Q5.106545 592.229833 5.639269 592.549467T7.663623 592.869102Q10.753425 592.869102 12.245053 593.987823T14.109589 596.757991T14.589041 601.073059V643.371385Q14.482496 646.035008 14.109589 647.686454T12.245053 650.456621T7.663623 651.575342H7.024353Q5.958904 651.575342 5.532725 651.94825T5.0 653.812785Q5.0 654.771689 5.479452 655.464231T6.917808 656.156773Q13.843227 655.837139 19.490107 655.837139Q25.882801 655.837139 32.808219 656.156773Q33.767123 656.156773 34.246575 655.464231T34.726027 653.812785Q34.619482 652.214612 34.086758 651.894977T32.062405 651.575342Q28.972603 651.575342 27.480974 650.456621T25.616438 647.686454T25.136986 643.371385V624.086758Q26.841705 624.406393 28.972603 625.898021T34.193303 630.053272Q40.159817 635.593607 49.216134 646.354642Q51.133942 648.48554 51.133942 649.764079Q51.133942 651.362253 48.25723 651.468798Q47.511416 651.575342 47.245053 652.054795T46.765601 653.70624Q46.765601 654.665145 47.298326 655.410959T48.683409 656.156773Q52.412481 655.837139 60.403349 655.837139Q62.960426 655.837139 67.861492 656.050228L70.098935 656.156773Q71.057839 656.156773 71.590563 655.464231T72.123288 653.70624Q72.016743 652.214612 71.484018 651.841705T69.99239 651.468798Q65.730594 651.681887 61.94825 650.083714T54.010654 644.330289L36.750381 626.324201Q40.479452 621.74277 44.421613 617.587519T53.90411 607.891933Q56.674277 605.121766 60.509893 601.073059Q61.681887 599.901065 62.108067 599.368341Q65.517504 595.958904 67.488584 594.57382T72.336377 592.869102Q72.549467 592.869102 73.295282 592.81583T74.520548 592.229833T75.0 590.631659Q75.0 589.672755 74.520548 588.980213T73.082192 588.287671Q71.803653 588.394216 69.99239 588.394216Q66.156773 588.607306 64.025875 588.607306H57.207002Q43.143075 604.269406 32.062405 617.054795Q28.652968 620.996956 25.136986 621.316591V601.073059Q25.243531 598.409437 25.616438 596.757991T27.480974 593.987823T32.062405 592.869102H32.701674Q33.767123 592.869102 34.193303 592.496195T34.726027 590.631659Q34.726027 589.672755 34.246575 588.980213T32.808219 588.287671Q25.989346 588.607306 19.596651 588.607306Q13.843227 588.607306 6.917808 588.287671Q5.958904 588.287671 5.479452 588.980213Z" fill="#010101" />
<path d="M40.925392 540.511528C40.969458 539.189539 41.024541 538.12093 41.090641 537.305706C41.15674 536.490481 41.321989 535.454921 41.586386 534.199032S42.170265 531.907583 42.544828 531.092359S43.481239 529.362755 44.230364 528.349232S45.860819 526.498448 46.874341 525.837454S49.16579 524.537496 50.708108 523.92057S54.01308 522.818911 55.996063 522.466383V521.144394H24.003937V522.466383C25.98692 522.818913 27.749574 523.314657 29.291892 523.95362S32.123149 525.242559 33.158709 525.903553S35.075592 527.412822 35.802686 528.448382S37.091625 530.398315 37.488222 531.191508S38.204297 533.020261 38.446663 534.298181S38.84326 536.600643 38.909359 537.371805C38.975459 538.142967 39.030541 539.189539 39.074608 540.511528C38.017017 538.572614 37.157724 537.206556 36.49673 536.413363C35.30694 534.915107 33.841734 533.725317 32.101118 532.843994C30.360501 531.96267 28.652928 531.522005 26.978412 531.522005C24.158167 531.522005 21.734525 532.568577 19.707474 534.661728S16.6669 539.27767 16.6669 542.230113C16.6669 545.09442 17.581273 547.540099 19.410026 549.567151S23.453111 552.607724 26.05302 552.607724C26.934343 552.607724 27.749574 552.486542 28.498699 552.244178S29.996955 551.693349 30.746079 551.318786L32.134167 550.624741C30.415582 553.092451 29.55629 555.427969 29.55629 557.631281C29.55629 560.407458 30.580831 562.787037 32.629913 564.77002S37.135693 567.744495 40.0 567.744495S45.321004 566.753003 47.370087 564.77002S50.44371 560.407458 50.44371 557.631281C50.44371 555.427969 49.584418 553.092451 47.865833 550.624741C48.174297 550.75694 48.603945 550.955239 49.154772 551.219636S50.113213 551.682332 50.377611 551.814531S50.983523 552.078929 51.402152 552.211128S52.228395 552.442476 52.624992 552.508575S53.462253 552.607724 53.94698 552.607724C56.546889 552.607724 58.76122 551.594202 60.589974 549.567151S63.3331 545.09442 63.3331 542.230113C63.3331 539.27767 62.319578 536.754879 60.292526 534.661728S55.841833 531.522005 53.021588 531.522005C48.174299 531.522005 44.142253 534.518511 40.925392 540.511528Z" fill="#010101" />
</svg>
