<svg width="150.000000" height="210.000000" id="card-webdiamond6">
<radialGradient id="card-webwhitegradient" cx="75.0" cy="105.0" r="150" gradientTransform="matrix(1 0 0 1 0 -.25)" gradientUnits="userSpaceOnUse">
<stop stop-color="#FDFAF4" offset=".15"/>
<stop stop-color="#FDF9F2" offset=".35"/>
<stop stop-color="#FCF7F1" offset=".5"/>
<stop stop-color="#FDFDF8" offset=".75"/>
<stop stop-color="#FFFDFA" offset="1"/>
</radialGradient>
<rect x="0" y="0" rx="7.5" ry="7.5" width="150" height="210.0" stroke="#010101" fill="url(#card-webwhitegradient)" />
<path d="M45.041725 20.0C44.374131 21.335188 42.760777 23.734353 40.201669 27.197497C37.642561 30.66064 35.584131 33.254534 34.026426 34.979138C35.973576 37.204449 38.066758 39.847024 40.305981 42.906815C42.545203 45.966619 44.123783 48.331015 45.041725 50.0C47.100138 46.328234 50.744103 41.32128 55.973574 34.979138C50.604993 28.497928 46.961057 23.504868 45.041725 20.0Z" fill="#da0a0a" />
<path d="M44.958275 190.0C45.625869 188.664812 47.239223 186.265647 49.798331 182.802503C52.357439 179.33936 54.415869 176.745466 55.973574 175.020862C54.026424 172.795551 51.933242 170.152976 49.694019 167.093185C47.454797 164.033381 45.876217 161.668985 44.958275 160.0C42.899862 163.671766 39.255897 168.67872 34.026426 175.020862C39.395007 181.502072 43.038943 186.495132 44.958275 190.0Z" fill="#da0a0a" />
<path d="M45.041725 90.0C44.374131 91.335188 42.760777 93.734353 40.201669 97.197497C37.642561 100.66064 35.584131 103.254534 34.026426 104.979138C35.973576 107.204449 38.066758 109.847024 40.305981 112.906815C42.545203 115.966619 44.123783 118.331015 45.041725 120.0C47.100138 116.328234 50.744103 111.32128 55.973574 104.979138C50.604993 98.497928 46.961057 93.504868 45.041725 90.0Z" fill="#da0a0a" />
<path d="M105.041725 20.0C104.374131 21.335188 102.760777 23.734353 100.201669 27.197497C97.642561 30.66064 95.584131 33.254534 94.026426 34.979138C95.973576 37.204449 98.066758 39.847024 100.305981 42.906815C102.545203 45.966619 104.123783 48.331015 105.041725 50.0C107.100138 46.328234 110.744103 41.32128 115.973574 34.979138C110.604993 28.497928 106.961057 23.504868 105.041725 20.0Z" fill="#da0a0a" />
<path d="M104.958275 190.0C105.625869 188.664812 107.239223 186.265647 109.798331 182.802503C112.357439 179.33936 114.415869 176.745466 115.973574 175.020862C114.026424 172.795551 111.933242 170.152976 109.694019 167.093185C107.454797 164.033381 105.876217 161.668985 104.958275 160.0C102.899862 163.671766 99.255897 168.67872 94.026426 175.020862C99.395007 181.502072 103.038943 186.495132 104.958275 190.0Z" fill="#da0a0a" />
<path d="M105.041725 90.0C104.374131 91.335188 102.760777 93.734353 100.201669 97.197497C97.642561 100.66064 95.584131 103.254534 94.026426 104.979138C95.973576 107.204449 98.066758 109.847024 100.305981 112.906815C102.545203 115.966619 104.123783 118.331015 105.041725 120.0C107.100138 116.328234 110.744103 111.32128 115.973574 104.979138C110.604993 98.497928 106.961057 93.504868 105.041725 90.0Z" fill="#da0a0a" />
<path d="M143.696203 31.592827Q145.841772 29.352321 145.841772 25.478903Q145.841772 22.402954 144.379747 19.744726T140.259494 15.2827T134.183544 12.871308Q133.993671 12.833333 133.613924 12.833333Q132.85443 12.833333 132.85443 13.516878Q132.85443 14.124473 133.537975 14.314346Q140.487342 16.478903 141.816456 22.099156Q140.563291 21.263713 139.329114 20.921941T136.765823 20.580169Q134.943038 20.580169 133.424051 21.396624T131.031646 23.637131T130.158228 26.883966Q130.158228 28.934599 131.259494 30.510549T134.14557 32.959916T137.943038 33.833333Q141.550633 33.833333 143.696203 31.592827ZM134.981013 31.118143Q133.803797 29.618143 133.803797 27.225738Q133.803797 24.985232 134.981013 23.637131T138.056962 22.28903Q139.006329 22.28903 140.031646 22.763713T141.968354 24.035865Q142.196203 24.947257 142.196203 25.516878Q142.196203 27.035865 141.797468 28.668776T140.43038 31.459916T137.943038 32.618143Q136.158228 32.618143 134.981013 31.118143Z" fill="#da0a0a" />
<path d="M138.019471 39.666737C137.707931 40.289818 136.95504 41.409417 135.760801 43.025535C134.566563 44.641652 133.605972 45.852124 132.87905 46.656931C133.787711 47.695399 134.764519 48.928588 135.809479 50.356477C136.85444 51.784371 137.591103 52.887745 138.019471 53.666597C138.980054 51.953123 140.680555 49.616568 143.12095 46.656931C140.615637 43.632397 138.915151 41.302325 138.019471 39.666737Z" fill="#da0a0a" />
<path d="M6.303797 178.407173Q4.158228 180.647679 4.158228 184.521097Q4.158228 187.597046 5.620253 190.255274T9.740506 194.7173T15.816456 197.128692Q16.006329 197.166667 16.386076 197.166667Q17.14557 197.166667 17.14557 196.483122Q17.14557 195.875527 16.462025 195.685654Q9.512658 193.521097 8.183544 187.900844Q9.436709 188.736287 10.670886 189.078059T13.234177 189.419831Q15.056962 189.419831 16.575949 188.603376T18.968354 186.362869T19.841772 183.116034Q19.841772 181.065401 18.740506 179.489451T15.85443 177.040084T12.056962 176.166667Q8.449367 176.166667 6.303797 178.407173ZM15.018987 178.881857Q16.196203 180.381857 16.196203 182.774262Q16.196203 185.014768 15.018987 186.362869T11.943038 187.71097Q10.993671 187.71097 9.968354 187.236287T8.031646 185.964135Q7.803797 185.052743 7.803797 184.483122Q7.803797 182.964135 8.202532 181.331224T9.56962 178.540084T12.056962 177.381857Q13.841772 177.381857 15.018987 178.881857Z" fill="#da0a0a" />
<path d="M11.980529 170.333263C12.292069 169.710182 13.04496 168.590583 14.239199 166.974465C15.433437 165.358348 16.394028 164.147876 17.12095 163.343069C16.212289 162.304601 15.235481 161.071412 14.190521 159.643523C13.14556 158.215629 12.408897 157.112255 11.980529 156.333403C11.019946 158.046877 9.319445 160.383432 6.87905 163.343069C9.384363 166.367603 11.084849 168.697675 11.980529 170.333263Z" fill="#da0a0a" />
</svg>
