<svg width="150.000000" height="210.000000" id="card-webdiamond12">
<radialGradient id="card-webwhitegradient" cx="75.0" cy="105.0" r="150" gradientTransform="matrix(1 0 0 1 0 -.25)" gradientUnits="userSpaceOnUse">
<stop stop-color="#FDFAF4" offset=".15"/>
<stop stop-color="#FDF9F2" offset=".35"/>
<stop stop-color="#FCF7F1" offset=".5"/>
<stop stop-color="#FDFDF8" offset=".75"/>
<stop stop-color="#FFFDFA" offset="1"/>
</radialGradient>
<rect x="0" y="0" rx="7.5" ry="7.5" width="150" height="210.0" stroke="#010101" fill="url(#card-webwhitegradient)" />
<rect x="30.0" y="21.0" width="90.0" height="168.0" stroke="#010101" fill="#fffdfa" />
<path d="M75.041725 75.424692C71.981917 75.424692 69.13074 75.522049 66.488178 75.716764C63.845616 75.911479 62.301805 76.008836 61.856745 76.008836C61.189152 76.008836 60.771905 75.967112 60.605007 75.883662S60.354659 75.59159 60.354659 75.257793C60.354659 74.14514 62.065369 73.296736 65.486787 72.712592S72.065366 71.836375 74.958275 71.836375C77.906812 71.836375 81.077883 72.128447 84.471488 72.712592C87.865093 73.296736 89.561892 74.14514 89.561892 75.257793C89.561892 75.535957 89.478442 75.730673 89.311544 75.841938S88.727399 76.008836 88.059805 76.008836C88.004172 76.008836 86.335185 75.911479 83.052851 75.716764S77.100142 75.424692 75.041725 75.424692ZM61.439499 79.179907C65.834495 78.623579 70.340779 78.345415 74.958275 78.345415C79.798331 78.345415 84.30459 78.623579 88.477051 79.179907C87.809458 79.736236 87.475661 80.821078 87.475661 82.434427C87.475661 83.491454 87.642559 84.131226 87.976356 84.35376C84.582751 83.741799 80.243391 83.435818 74.958275 83.435818C69.617524 83.435818 65.278164 83.741799 61.940195 84.35376C62.273992 84.131228 62.44089 83.491454 62.44089 82.434427C62.44089 80.821078 62.107093 79.736238 61.439499 79.179907ZM61.35605 88.69312C61.35605 87.135398 65.890122 86.356541 74.958275 86.356541S88.560501 87.135401 88.560501 88.69312C88.560501 90.083943 84.026428 90.779351 74.958275 90.779351S61.35605 90.083941 61.35605 88.69312ZM74.958275 42.712592C76.349099 42.712592 77.044506 43.380185 77.044506 44.715373C77.044506 46.161824 76.349096 46.885053 74.958275 46.885053C73.623088 46.885053 72.955494 46.161826 72.955494 44.715373C72.955494 43.380185 73.623088 42.712592 74.958275 42.712592ZM77.878999 52.976847C77.878999 51.085329 78.171071 49.332895 78.755216 47.719546S79.631433 45.188255 79.631433 44.965721C79.631433 43.686169 79.172462 42.587418 78.25452 41.669476S76.237828 40.292564 74.958275 40.292564S72.593883 40.751535 71.703755 41.669476S70.368567 43.686169 70.368567 44.965721C70.368567 45.188252 70.674548 46.092286 71.286509 47.677821S72.204451 51.029701 72.204451 52.976847C72.204451 55.702859 71.59249 59.736236 70.368567 65.076987C67.364395 58.734845 65.862309 53.95045 65.862309 50.723718C65.862309 50.389921 65.945758 49.764052 66.112656 48.84611S66.363004 47.357935 66.363004 47.135401C66.363004 45.855849 65.917942 44.757098 65.027816 43.839156C64.137688 42.921215 63.052848 42.462244 61.773296 42.462244C60.438108 42.462244 59.311544 42.921215 58.393602 43.839156S57.01669 45.855849 57.01669 47.135401C57.01669 48.136792 57.211404 48.92956 57.600834 49.513704S58.435327 50.542909 58.936022 50.848892S59.881777 51.892007 60.27121 53.060297S60.855355 55.841935 60.855355 57.900352C60.855355 59.346803 60.716272 61.683382 60.438108 64.910088C56.821978 61.182686 55.013908 58.1507 55.013908 55.814121L55.097357 55.063078C55.15299 54.562383 55.222531 54.047777 55.305981 53.519268S55.431154 52.670864 55.431154 52.559601C55.431154 51.335676 54.972184 50.250836 54.054242 49.305081S52.065371 47.886444 50.841446 47.886444C49.561894 47.886444 48.449232 48.345415 47.503477 49.263357S46.08484 51.280049 46.08484 52.559601C46.08484 54.840544 47.364392 56.565165 49.923505 57.733454C50.03477 59.95877 51.036159 64.965724 52.927677 72.754316C52.927677 73.255012 53.970793 74.784911 56.057024 77.344024S59.18637 81.572121 59.18637 82.350978C59.18637 82.851674 58.79694 83.9087 58.018081 85.522049S56.849791 88.470586 56.849791 89.527612V90.8628C56.849791 92.142352 58.866484 93.018569 62.899861 93.491451C66.933238 93.96433 70.980526 94.20077 75.041725 94.20077C79.547983 94.20077 83.692656 93.936513 87.475661 93.408002C91.25869 92.87949 93.150209 92.031089 93.150209 90.8628V89.527612C93.150209 88.359323 92.774687 86.9685 92.023644 85.355151S90.897079 82.740411 90.897079 82.350978C90.897079 81.182689 91.80111 79.597153 93.609179 77.594372S96.571627 73.978241 97.072323 72.754316C98.963841 65.076987 99.965232 60.070032 100.076495 57.733454C102.635608 56.565165 103.91516 54.840544 103.91516 52.559601C103.91516 51.280049 103.442281 50.181298 102.496523 49.263357C101.550768 48.345415 100.465928 47.886444 99.242003 47.886444C97.962451 47.886444 96.8637 48.345415 95.945758 49.263357S94.568846 51.280049 94.568846 52.559601C94.568846 52.615234 94.638387 53.143746 94.777469 54.145137S94.986092 55.702859 94.986092 55.814121C94.986092 58.261963 93.205844 61.293957 89.645341 64.910088C89.367177 62.462247 89.228095 60.125668 89.228095 57.900352C89.228095 55.897571 89.422809 54.298124 89.812239 53.102021S90.646732 51.154875 91.147427 50.848892S92.093182 50.08394 92.482615 49.47198S93.066759 48.081156 93.066759 47.135401C93.066759 45.855849 92.59388 44.757098 91.648122 43.839156S89.589705 42.462244 88.310153 42.462244C87.030601 42.462244 85.93185 42.921215 85.013908 43.839156S83.636996 45.855849 83.636996 47.135401L83.887344 48.720936C84.054242 49.777963 84.137691 50.445557 84.137691 50.723718C84.137691 53.894789 82.635605 58.679209 79.631433 65.076987C78.463143 60.014397 77.878999 55.98102 77.878999 52.976847ZM50.841446 50.55682C51.342142 50.55682 51.801113 50.751534 52.218359 51.140964C52.635605 51.530394 52.844228 52.00327 52.844228 52.559601C52.844228 53.171562 52.649513 53.686166 52.260083 54.103412S51.397777 54.729281 50.841446 54.729281C49.450623 54.729281 48.755216 54.006054 48.755216 52.559601C48.755216 51.224414 49.450626 50.55682 50.841446 50.55682ZM61.773296 45.216069C62.329625 45.216069 62.802501 45.424692 63.191933 45.841938S63.776078 46.745968 63.776078 47.302299S63.581363 48.345415 63.191933 48.762661S62.329627 49.38853 61.773296 49.38853C60.326846 49.38853 59.603616 48.69312 59.603616 47.302299S60.326843 45.216069 61.773296 45.216069ZM88.310153 45.216069C89.700976 45.216069 90.396384 45.911479 90.396384 47.302299S89.700974 49.38853 88.310153 49.38853C86.974965 49.38853 86.307371 48.69312 86.307371 47.302299S86.974965 45.216069 88.310153 45.216069ZM99.242003 50.55682C100.632826 50.55682 101.328234 51.224414 101.328234 52.559601C101.328234 54.006052 100.632824 54.729281 99.242003 54.729281C97.906815 54.729281 97.239221 54.006054 97.239221 52.559601C97.239221 52.003273 97.447844 51.530397 97.86509 51.140964C98.282337 50.751534 98.741307 50.55682 99.242003 50.55682ZM74.958275 55.897571C75.458971 58.957379 76.015302 61.363496 76.62726 63.11593S77.795549 66.106191 78.296245 66.82942S79.102921 68.136795 79.214186 68.581854C79.49235 68.248057 79.965229 67.691726 80.632823 66.91287S81.717663 65.605496 81.884562 65.327334S82.371349 64.562383 82.844228 63.866973S83.692631 62.49006 83.970793 61.822466S84.610571 60.264745 85.055633 59.152091S85.973574 56.759877 86.47427 55.313426C86.363004 56.092285 86.307371 56.898962 86.307371 57.733454C86.307371 60.348194 86.780251 64.381579 87.726008 69.833593C90.730181 68.053345 93.650904 65.216071 96.488178 61.321771C95.15299 67.942074 94.123786 71.641688 93.400556 72.420519C93.289291 72.531785 93.178025 72.615234 93.066759 72.670867C88.504865 70.056127 82.468707 68.748753 74.958275 68.748753C67.392209 68.748753 61.35605 70.056127 56.849791 72.670867C55.848401 72.33707 54.735747 68.554041 53.511822 61.321771C56.404732 65.327334 59.297633 68.164608 62.190542 69.833593C63.136298 64.993537 63.609179 61.182661 63.609179 58.401048C63.609179 57.677821 63.553547 56.648614 63.442281 55.313426C64.276773 57.872539 65.125177 60.028308 65.987483 61.780742C66.849789 63.533176 67.545204 64.715376 68.073713 65.327334S69.116829 66.523437 69.617524 67.079768S70.47983 68.136795 70.702364 68.581854C70.980528 68.081159 71.314325 67.510925 71.703755 66.871145S72.343533 65.772394 72.454798 65.494233S72.760779 64.673649 73.038943 63.866973S73.595271 62.058903 73.873435 60.8628S74.513213 58.011615 74.958275 55.897571Z" fill="#da0a0a" />
<path d="M74.958275 134.575308C78.018083 134.575308 80.86926 134.477951 83.511822 134.283236C86.154384 134.088521 87.698195 133.991164 88.143255 133.991164C88.810848 133.991164 89.228095 134.032888 89.394993 134.116338S89.645341 134.40841 89.645341 134.742207C89.645341 135.85486 87.934631 136.703264 84.513213 137.287408S77.934634 138.163625 75.041725 138.163625C72.093188 138.163625 68.922117 137.871553 65.528512 137.287408C62.134907 136.703264 60.438108 135.85486 60.438108 134.742207C60.438108 134.464043 60.521558 134.269327 60.688456 134.158062S61.272601 133.991164 61.940195 133.991164C61.995828 133.991164 63.664815 134.088521 66.947149 134.283236S72.899858 134.575308 74.958275 134.575308ZM88.560501 130.820093C84.165505 131.376421 79.659221 131.654585 75.041725 131.654585C70.201669 131.654585 65.69541 131.376421 61.522949 130.820093C62.190542 130.263764 62.524339 129.178922 62.524339 127.565573C62.524339 126.508546 62.357441 125.868774 62.023644 125.64624C65.417249 126.258201 69.756609 126.564182 75.041725 126.564182C80.382476 126.564182 84.721836 126.258201 88.059805 125.64624C87.726008 125.868772 87.55911 126.508546 87.55911 127.565573C87.55911 129.178922 87.892907 130.263762 88.560501 130.820093ZM88.64395 121.30688C88.64395 122.864602 84.109878 123.643459 75.041725 123.643459S61.439499 122.864599 61.439499 121.30688C61.439499 119.916057 65.973572 119.220649 75.041725 119.220649S88.64395 119.916059 88.64395 121.30688ZM75.041725 167.287408C73.650901 167.287408 72.955494 166.619815 72.955494 165.284627C72.955494 163.838176 73.650904 163.114947 75.041725 163.114947C76.376912 163.114947 77.044506 163.838174 77.044506 165.284627C77.044506 166.619815 76.376912 167.287408 75.041725 167.287408ZM72.121001 157.023153C72.121001 158.914671 71.828929 160.667105 71.244784 162.280454S70.368567 164.811745 70.368567 165.034279C70.368567 166.313831 70.827538 167.412582 71.74548 168.330524S73.762172 169.707436 75.041725 169.707436S77.406117 169.248465 78.296245 168.330524S79.631433 166.313831 79.631433 165.034279C79.631433 164.811748 79.325452 163.907714 78.713491 162.322179S77.795549 158.970299 77.795549 157.023153C77.795549 154.297141 78.40751 150.263764 79.631433 144.923013C82.635605 151.265155 84.137691 156.04955 84.137691 159.276282C84.137691 159.610079 84.054242 160.235948 83.887344 161.15389S83.636996 162.642065 83.636996 162.864599C83.636996 164.144151 84.082058 165.242902 84.972184 166.160844C85.862312 167.078785 86.947152 167.537756 88.226704 167.537756C89.561892 167.537756 90.688456 167.078785 91.606398 166.160844S92.98331 164.144151 92.98331 162.864599C92.98331 161.863208 92.788596 161.07044 92.399166 160.486296S91.564673 159.457091 91.063978 159.151108S90.118223 158.107993 89.72879 156.939703S89.144645 154.158065 89.144645 152.099648C89.144645 150.653197 89.283728 148.316618 89.561892 145.089912C93.178022 148.817314 94.986092 151.8493 94.986092 154.185879L94.902643 154.936922C94.84701 155.437617 94.777469 155.952223 94.694019 156.480732S94.568846 157.329136 94.568846 157.440399C94.568846 158.664324 95.027816 159.749164 95.945758 160.694919S97.934629 162.113556 99.158554 162.113556C100.438106 162.113556 101.550768 161.654585 102.496523 160.736643S103.91516 158.719951 103.91516 157.440399C103.91516 155.159456 102.635608 153.434835 100.076495 152.266546C99.96523 150.04123 98.963841 145.034276 97.072323 137.245684C97.072323 136.744988 96.029207 135.215089 93.942976 132.655976S90.81363 128.427879 90.81363 127.649022C90.81363 127.148326 91.20306 126.0913 91.981919 124.477951S93.150209 121.529414 93.150209 120.472388V119.1372C93.150209 117.857648 91.133516 116.981431 87.100139 116.508549C83.066762 116.03567 79.019474 115.79923 74.958275 115.79923C70.452017 115.79923 66.307344 116.063487 62.524339 116.591998C58.74131 117.12051 56.849791 117.968911 56.849791 119.1372V120.472388C56.849791 121.640677 57.225313 123.0315 57.976356 124.644849S59.102921 127.259589 59.102921 127.649022C59.102921 128.817311 58.19889 130.402847 56.390821 132.405628S53.428373 136.021759 52.927677 137.245684C51.036159 144.923013 50.034768 149.929968 49.923505 152.266546C47.364392 153.434835 46.08484 155.159456 46.08484 157.440399C46.08484 158.719951 46.557719 159.818702 47.503477 160.736643C48.449232 161.654585 49.534072 162.113556 50.757997 162.113556C52.037549 162.113556 53.1363 161.654585 54.054242 160.736643S55.431154 158.719951 55.431154 157.440399C55.431154 157.384766 55.361613 156.856254 55.222531 155.854863S55.013908 154.297141 55.013908 154.185879C55.013908 151.738037 56.794156 148.706043 60.354659 145.089912C60.632823 147.537753 60.771905 149.874332 60.771905 152.099648C60.771905 154.102429 60.577191 155.701876 60.187761 156.897979S59.353268 158.845125 58.852573 159.151108S57.906818 159.91606 57.517385 160.52802S56.933241 161.918844 56.933241 162.864599C56.933241 164.144151 57.40612 165.242902 58.351878 166.160844S60.410295 167.537756 61.689847 167.537756C62.969399 167.537756 64.06815 167.078785 64.986092 166.160844S66.363004 164.144151 66.363004 162.864599L66.112656 161.279064C65.945758 160.222037 65.862309 159.554443 65.862309 159.276282C65.862309 156.105211 67.364395 151.320791 70.368567 144.923013C71.536857 149.985603 72.121001 154.01898 72.121001 157.023153ZM99.158554 159.44318C98.657858 159.44318 98.198887 159.248466 97.781641 158.859036C97.364395 158.469606 97.155772 157.99673 97.155772 157.440399C97.155772 156.828438 97.350487 156.313834 97.739917 155.896588S98.602223 155.270719 99.158554 155.270719C100.549377 155.270719 101.244784 155.993946 101.244784 157.440399C101.244784 158.775586 100.549374 159.44318 99.158554 159.44318ZM88.226704 164.783931C87.670375 164.783931 87.197499 164.575308 86.808067 164.158062S86.223922 163.254032 86.223922 162.697701S86.418637 161.654585 86.808067 161.237339S87.670373 160.61147 88.226704 160.61147C89.673154 160.61147 90.396384 161.30688 90.396384 162.697701S89.673157 164.783931 88.226704 164.783931ZM61.689847 164.783931C60.299024 164.783931 59.603616 164.088521 59.603616 162.697701S60.299026 160.61147 61.689847 160.61147C63.025035 160.61147 63.692629 161.30688 63.692629 162.697701S63.025035 164.783931 61.689847 164.783931ZM50.757997 159.44318C49.367174 159.44318 48.671766 158.775586 48.671766 157.440399C48.671766 155.993948 49.367176 155.270719 50.757997 155.270719C52.093185 155.270719 52.760779 155.993946 52.760779 157.440399C52.760779 157.996727 52.552156 158.469603 52.13491 158.859036C51.717663 159.248466 51.258693 159.44318 50.757997 159.44318ZM75.041725 154.102429C74.541029 151.042621 73.984698 148.636504 73.37274 146.88407S72.204451 143.893809 71.703755 143.17058S70.897079 141.863205 70.785814 141.418146C70.50765 141.751943 70.034771 142.308274 69.367177 143.08713S68.282337 144.394504 68.115438 144.672666S67.628651 145.437617 67.155772 146.133027S66.307369 147.50994 66.029207 148.177534S65.389429 149.735255 64.944367 150.847909S64.026426 153.240123 63.52573 154.686574C63.636996 153.907715 63.692629 153.101038 63.692629 152.266546C63.692629 149.651806 63.219749 145.618421 62.273992 140.166407C59.269819 141.946655 56.349096 144.783929 53.511822 148.678229C54.84701 142.057926 55.876214 138.358312 56.599444 137.579481C56.710709 137.468215 56.821975 137.384766 56.933241 137.329133C61.495135 139.943873 67.531293 141.251247 75.041725 141.251247C82.607791 141.251247 88.64395 139.943873 93.150209 137.329133C94.151599 137.66293 95.264253 141.445959 96.488178 148.678229C93.595268 144.672666 90.702367 141.835392 87.809458 140.166407C86.863702 145.006463 86.390821 148.817339 86.390821 151.598952C86.390821 152.322179 86.446453 153.351386 86.557719 154.686574C85.723227 152.127461 84.874823 149.971692 84.012517 148.219258C83.150211 146.466824 82.454796 145.284624 81.926287 144.672666S80.883171 143.476563 80.382476 142.920232S79.52017 141.863205 79.297636 141.418146C79.019472 141.918841 78.685675 142.489075 78.296245 143.128855S77.656467 144.227606 77.545202 144.505767S77.239221 145.326351 76.961057 146.133027S76.404729 147.941097 76.126565 149.1372S75.486787 151.988385 75.041725 154.102429Z" fill="#da0a0a" />
<path d="M133.484136 33.561888Q134.273796 33.290443 134.86604 32.883275T136.396005 31.735801Q137.13631 31.11888 137.716216 30.699373T138.962397 29.934391Q139.752056 29.539561 140.837838 29.292793Q143.428907 28.700548 144.613396 27.787505Q146.06933 26.65237 146.871328 24.949667T147.673325 21.32217Q147.673325 18.731101 146.501175 16.806306T143.502938 13.857423T139.80141 12.833333Q137.432432 12.833333 135.606345 13.95613T132.805523 16.917352T131.830787 20.877987Q131.830787 23.641794 133.225029 25.702311T136.914219 28.675872Q137.309048 28.848609 137.925969 28.873286V28.92264Q137.259694 28.996671 136.716804 29.268116Q135.754407 29.736976 134.125734 30.921465Q132.916569 31.785155 132.176263 32.192323T130.720329 32.599491Q130.276146 32.550137 130.066392 32.315707T129.856639 31.735801Q129.856639 31.143557 130.313161 30.637681T131.485311 30.107129Q131.559342 29.712299 131.189189 29.342146T130.078731 28.971994Q129.757932 28.971994 129.350764 29.194085T128.635135 29.86036T128.326675 30.946142Q128.326675 31.686447 128.83255 32.340384T130.115746 33.401488T131.682726 33.833333Q132.694477 33.833333 133.484136 33.561888ZM137.012926 27.35566Q135.877791 26.331571 135.322562 24.628868T134.767333 20.877987Q134.767333 18.977869 135.3349 17.386212T137.049941 14.844497T139.826087 13.894438Q142.293772 13.894438 143.527615 15.979632T144.761457 21.248139Q144.761457 23.172934 144.206228 24.801606T142.540541 27.405014T139.826087 28.379749Q138.148061 28.379749 137.012926 27.35566Z" fill="#da0a0a" />
<path d="M138.019471 39.666737C137.707931 40.289818 136.95504 41.409417 135.760801 43.025535C134.566563 44.641652 133.605972 45.852124 132.87905 46.656931C133.787711 47.695399 134.764519 48.928588 135.809479 50.356477C136.85444 51.784371 137.591103 52.887745 138.019471 53.666597C138.980054 51.953123 140.680555 49.616568 143.12095 46.656931C140.615637 43.632397 138.915151 41.302325 138.019471 39.666737Z" fill="#da0a0a" />
<path d="M16.515864 176.438112Q15.726204 176.709557 15.13396 177.116725T13.603995 178.264199Q12.86369 178.88112 12.283784 179.300627T11.037603 180.065609Q10.247944 180.460439 9.162162 180.707207Q6.571093 181.299452 5.386604 182.212495Q3.93067 183.34763 3.128672 185.050333T2.326675 188.67783Q2.326675 191.268899 3.498825 193.193694T6.497062 196.142577T10.19859 197.166667Q12.567568 197.166667 14.393655 196.04387T17.194477 193.082648T18.169213 189.122013Q18.169213 186.358206 16.774971 184.297689T13.085781 181.324128Q12.690952 181.151391 12.074031 181.126714V181.07736Q12.740306 181.003329 13.283196 180.731884Q14.245593 180.263024 15.874266 179.078535Q17.083431 178.214845 17.823737 177.807677T19.279671 177.400509Q19.723854 177.449863 19.933608 177.684293T20.143361 178.264199Q20.143361 178.856443 19.686839 179.362319T18.514689 179.892871Q18.440658 180.287701 18.810811 180.657854T19.921269 181.028006Q20.242068 181.028006 20.649236 180.805915T21.364865 180.13964T21.673325 179.053858Q21.673325 178.313553 21.16745 177.659616T19.884254 176.598512T18.317274 176.166667Q17.305523 176.166667 16.515864 176.438112ZM12.987074 182.64434Q14.122209 183.668429 14.677438 185.371132T15.232667 189.122013Q15.232667 191.022131 14.6651 192.613788T12.950059 195.155503T10.173913 196.105562Q7.706228 196.105562 6.472385 194.020368T5.238543 188.751861Q5.238543 186.827066 5.793772 185.198394T7.459459 182.594986T10.173913 181.620251Q11.851939 181.620251 12.987074 182.64434Z" fill="#da0a0a" />
<path d="M11.980529 170.333263C12.292069 169.710182 13.04496 168.590583 14.239199 166.974465C15.433437 165.358348 16.394028 164.147876 17.12095 163.343069C16.212289 162.304601 15.235481 161.071412 14.190521 159.643523C13.14556 158.215629 12.408897 157.112255 11.980529 156.333403C11.019946 158.046877 9.319445 160.383432 6.87905 163.343069C9.384363 166.367603 11.084849 168.697675 11.980529 170.333263Z" fill="#da0a0a" />
</svg>
