<svg width="25.000000" height="35.000000" id="card-lightspade3">
<rect x="0" y="0" rx="1.25" ry="1.25" width="25" height="35.0" stroke="#010101" fill="#fffdfa" />
<path d="M12.382979 6.64539C12.359338 6.891253 12.300236 7.108747 12.205674 7.297872C12.111111 7.486998 12.011821 7.631206 11.907801 7.730496S11.672577 7.914894 11.514184 7.985816C11.355792 8.056738 11.234043 8.102837 11.148936 8.124113S10.959811 8.165485 10.836879 8.184397C10.817967 8.189125 10.803782 8.191489 10.794326 8.191489V8.333333H14.205674V8.191489C13.803782 8.120567 13.498818 8.016548 13.29078 7.879433C12.893617 7.614657 12.66903 7.20331 12.617021 6.64539C12.862884 7.02364 13.179669 7.212766 13.567376 7.212766C13.817967 7.212766 14.031915 7.125296 14.20922 6.950355S14.475177 6.562648 14.475177 6.312057C14.475177 6.099291 14.423168 5.905438 14.319149 5.730496C14.21513 5.555555 14.080378 5.395981 13.914894 5.251773S13.579196 4.957447 13.404255 4.801418C13.229314 4.64539 13.056738 4.440899 12.886525 4.187943S12.586289 3.650118 12.496454 3.333333C12.416076 3.64539 12.291962 3.926714 12.124113 4.177305S11.783688 4.631206 11.606383 4.787234S11.257683 5.094562 11.092199 5.241135S10.79078 5.548463 10.684397 5.723404S10.524823 6.094562 10.524823 6.312057C10.524823 6.562648 10.613475 6.775413 10.79078 6.950355S11.182033 7.212766 11.432624 7.212766C11.820331 7.212766 12.137116 7.02364 12.382979 6.64539Z" fill="#010101" />
<path d="M12.617021 28.35461C12.640662 28.108747 12.699764 27.891253 12.794326 27.702128C12.888889 27.513002 12.988179 27.368794 13.092199 27.269504S13.327423 27.085106 13.485816 27.014184C13.644208 26.943262 13.765957 26.897163 13.851064 26.875887S14.040189 26.834515 14.163121 26.815603C14.182033 26.810875 14.196218 26.808511 14.205674 26.808511V26.666667H10.794326V26.808511C11.196218 26.879433 11.501182 26.983452 11.70922 27.120567C12.106383 27.385343 12.33097 27.79669 12.382979 28.35461C12.137116 27.97636 11.820331 27.787234 11.432624 27.787234C11.182033 27.787234 10.968085 27.874704 10.79078 28.049645S10.524823 28.437352 10.524823 28.687943C10.524823 28.900709 10.576832 29.094562 10.680851 29.269504C10.78487 29.444445 10.919622 29.604019 11.085106 29.748227S11.420804 30.042553 11.595745 30.198582C11.770686 30.35461 11.943262 30.559101 12.113475 30.812057S12.413711 31.349882 12.503546 31.666667C12.583924 31.35461 12.708038 31.073286 12.875887 30.822695S13.216312 30.368794 13.393617 30.212766S13.742317 29.905438 13.907801 29.758865S14.20922 29.451537 14.315603 29.276596S14.475177 28.905438 14.475177 28.687943C14.475177 28.437352 14.386525 28.224587 14.20922 28.049645S13.817967 27.787234 13.567376 27.787234C13.179669 27.787234 12.862884 27.97636 12.617021 28.35461Z" fill="#010101" />
<path d="M12.382979 18.312057C12.359338 18.55792 12.300236 18.775413 12.205674 18.964539C12.111111 19.153665 12.011821 19.297872 11.907801 19.397163S11.672577 19.58156 11.514184 19.652482C11.355792 19.723404 11.234043 19.769504 11.148936 19.79078S10.959811 19.832151 10.836879 19.851064C10.817967 19.855792 10.803782 19.858156 10.794326 19.858156V20.0H14.205674V19.858156C13.803782 19.787234 13.498818 19.683215 13.29078 19.546099C12.893617 19.281324 12.66903 18.869977 12.617021 18.312057C12.862884 18.690307 13.179669 18.879433 13.567376 18.879433C13.817967 18.879433 14.031915 18.791962 14.20922 18.617021S14.475177 18.229314 14.475177 17.978723C14.475177 17.765957 14.423168 17.572104 14.319149 17.397163C14.21513 17.222222 14.080378 17.062648 13.914894 16.91844S13.579196 16.624113 13.404255 16.468085C13.229314 16.312057 13.056738 16.107565 12.886525 15.85461S12.586289 15.316785 12.496454 15.0C12.416076 15.312057 12.291962 15.593381 12.124113 15.843972S11.783688 16.297872 11.606383 16.453901S11.257683 16.761229 11.092199 16.907801S10.79078 17.21513 10.684397 17.390071S10.524823 17.761229 10.524823 17.978723C10.524823 18.229314 10.613475 18.44208 10.79078 18.617021S11.182033 18.879433 11.432624 18.879433C11.820331 18.879433 12.137116 18.690307 12.382979 18.312057Z" fill="#010101" />
<path d="M23.887681 5.458182Q24.20788 5.277476 24.20788 4.928744Q24.20788 4.744867 24.09375 4.611715T23.776721 4.478563Q23.65625 4.478563 23.570652 4.541969T23.485054 4.649758Q23.485054 4.656099 23.54212 4.697313T23.646739 4.808273T23.694293 4.985809Q23.694293 5.182367 23.526268 5.293327T23.085598 5.404287Q22.407156 5.404287 22.407156 4.649758Q22.407156 4.33907 22.572011 4.152023T23.066576 3.945954H23.301178Q23.345562 3.945954 23.370924 3.907911T23.396286 3.819143Q23.396286 3.762077 23.370924 3.720864T23.301178 3.673309H23.066576Q22.819293 3.647947 22.67029 3.451389T22.521286 2.975845Q22.521286 2.671498 22.692482 2.509813T23.091938 2.348128Q23.307518 2.348128 23.462862 2.471769T23.618207 2.81099Q23.618207 2.950483 23.564312 2.998037T23.459692 3.055103T23.408967 3.070954Q23.408967 3.115338 23.494565 3.178744T23.700634 3.24215Q23.903533 3.24215 24.017663 3.115338T24.131793 2.791969Q24.131793 2.48128 23.840127 2.310085T23.085598 2.138889Q22.591033 2.138889 22.267663 2.354469T21.944293 2.975845Q21.944293 3.24215 22.131341 3.470411T22.66712 3.79378V3.819143Q22.312047 3.857186 22.052083 4.044233T21.79212 4.637077Q21.79212 5.150664 22.166214 5.394777T23.10462 5.638889Q23.567482 5.638889 23.887681 5.458182Z" fill="#010101" />
<path d="M22.945391 8.156734C22.934358 8.271469 22.906778 8.372965 22.862649 8.461222C22.81852 8.54948 22.772185 8.616776 22.723643 8.663112S22.613873 8.749163 22.539957 8.782259C22.466042 8.815356 22.409226 8.836869 22.36951 8.846798S22.281252 8.866104 22.223885 8.87493C22.215059 8.877136 22.20844 8.87824 22.204027 8.87824V8.944433H23.795973V8.87824C23.608426 8.845143 23.46611 8.796601 23.369027 8.732615C23.183686 8.609054 23.07888 8.417094 23.054609 8.156734C23.169344 8.333249 23.317176 8.421507 23.498104 8.421507C23.615045 8.421507 23.714886 8.380688 23.797628 8.299049S23.92174 8.118121 23.92174 8.00118C23.92174 7.90189 23.897469 7.811426 23.848928 7.729788C23.800386 7.648149 23.737502 7.573682 23.660277 7.506386S23.50362 7.369035 23.421982 7.296222C23.340343 7.22341 23.259808 7.127981 23.180376 7.009937S23.040268 6.758954 22.998345 6.611123C22.960836 6.756748 22.902917 6.888031 22.824588 7.004972S22.665724 7.21679 22.582983 7.289603S22.420258 7.433021 22.343033 7.501421S22.202372 7.64484 22.152727 7.726478S22.07826 7.899683 22.07826 8.00118C22.07826 8.118121 22.119631 8.217411 22.202372 8.299049S22.384955 8.421507 22.501896 8.421507C22.682824 8.421507 22.830656 8.333249 22.945391 8.156734Z" fill="#010101" />
<path d="M1.112319 29.541818Q0.79212 29.722524 0.79212 30.071256Q0.79212 30.255133 0.90625 30.388285T1.223279 30.521437Q1.34375 30.521437 1.429348 30.458031T1.514946 30.350242Q1.514946 30.343901 1.45788 30.302687T1.353261 30.191727T1.305707 30.014191Q1.305707 29.817633 1.473732 29.706673T1.914402 29.595713Q2.592844 29.595713 2.592844 30.350242Q2.592844 30.66093 2.427989 30.847977T1.933424 31.054046H1.698822Q1.654438 31.054046 1.629076 31.092089T1.603714 31.180857Q1.603714 31.237923 1.629076 31.279136T1.698822 31.326691H1.933424Q2.180707 31.352053 2.32971 31.548611T2.478714 32.024155Q2.478714 32.328502 2.307518 32.490187T1.908062 32.651872Q1.692482 32.651872 1.537138 32.528231T1.381793 32.18901Q1.381793 32.049517 1.435688 32.001963T1.540308 31.944897T1.591033 31.929046Q1.591033 31.884662 1.505435 31.821256T1.299366 31.75785Q1.096467 31.75785 0.982337 31.884662T0.868207 32.208031Q0.868207 32.51872 1.159873 32.689915T1.914402 32.861111Q2.408967 32.861111 2.732337 32.645531T3.055707 32.024155Q3.055707 31.75785 2.868659 31.529589T2.33288 31.20622V31.180857Q2.687953 31.142814 2.947917 30.955767T3.20788 30.362923Q3.20788 29.849336 2.833786 29.605223T1.89538 29.361111Q1.432518 29.361111 1.112319 29.541818Z" fill="#010101" />
<path d="M2.054609 26.843266C2.065642 26.728531 2.093222 26.627035 2.137351 26.538778C2.18148 26.45052 2.227815 26.383224 2.276357 26.336888S2.386127 26.250837 2.460043 26.217741C2.533958 26.184644 2.590774 26.163131 2.63049 26.153202S2.718748 26.133896 2.776115 26.12507C2.784941 26.122864 2.79156 26.12176 2.795973 26.12176V26.055567H1.204027V26.12176C1.391574 26.154857 1.53389 26.203399 1.630973 26.267385C1.816314 26.390946 1.92112 26.582906 1.945391 26.843266C1.830656 26.666751 1.682824 26.578493 1.501896 26.578493C1.384955 26.578493 1.285114 26.619312 1.202372 26.700951S1.07826 26.881879 1.07826 26.99882C1.07826 27.09811 1.102531 27.188574 1.151072 27.270212C1.199614 27.351851 1.262498 27.426318 1.339723 27.493614S1.49638 27.630965 1.578018 27.703778C1.659657 27.77659 1.740192 27.872019 1.819624 27.990063S1.959732 28.241046 2.001655 28.388877C2.039164 28.243252 2.097083 28.111969 2.175412 27.995028S2.334276 27.78321 2.417017 27.710397S2.579742 27.566979 2.656967 27.498579S2.797628 27.35516 2.847273 27.273522S2.92174 27.100317 2.92174 26.99882C2.92174 26.881879 2.880369 26.782589 2.797628 26.700951S2.615045 26.578493 2.498104 26.578493C2.317176 26.578493 2.169344 26.666751 2.054609 26.843266Z" fill="#010101" />
</svg>
