<svg width="25.000000" height="35.000000" id="card-lightdiamond6">
<rect x="0" y="0" rx="1.25" ry="1.25" width="25" height="35.0" stroke="#010101" fill="#fffdfa" />
<path d="M7.506954 3.333333C7.395688 3.555865 7.126796 3.955726 6.700278 4.532916C6.27376 5.110107 5.930688 5.542422 5.671071 5.829856C5.995596 6.200742 6.34446 6.641171 6.717663 7.151136C7.090867 7.661103 7.353964 8.055169 7.506954 8.333333C7.850023 7.721372 8.45735 6.88688 9.328929 5.829856C8.434166 4.749655 7.826843 3.917478 7.506954 3.333333Z" fill="#da0a0a" />
<path d="M7.493046 31.666667C7.604312 31.444135 7.873204 31.044274 8.299722 30.467084C8.72624 29.889893 9.069312 29.457578 9.328929 29.170144C9.004404 28.799258 8.65554 28.358829 8.282337 27.848864C7.909133 27.338897 7.646036 26.944831 7.493046 26.666667C7.149977 27.278628 6.54265 28.11312 5.671071 29.170144C6.565834 30.250345 7.173157 31.082522 7.493046 31.666667Z" fill="#da0a0a" />
<path d="M7.506954 15.0C7.395688 15.222531 7.126796 15.622392 6.700278 16.199583C6.27376 16.776773 5.930688 17.209089 5.671071 17.496523C5.995596 17.867408 6.34446 18.307837 6.717663 18.817803C7.090867 19.32777 7.353964 19.721836 7.506954 20.0C7.850023 19.388039 8.45735 18.553547 9.328929 17.496523C8.434166 16.416321 7.826843 15.584145 7.506954 15.0Z" fill="#da0a0a" />
<path d="M17.506954 3.333333C17.395688 3.555865 17.126796 3.955726 16.700278 4.532916C16.27376 5.110107 15.930688 5.542422 15.671071 5.829856C15.995596 6.200742 16.34446 6.641171 16.717663 7.151136C17.090867 7.661103 17.353964 8.055169 17.506954 8.333333C17.850023 7.721372 18.45735 6.88688 19.328929 5.829856C18.434166 4.749655 17.826843 3.917478 17.506954 3.333333Z" fill="#da0a0a" />
<path d="M17.493046 31.666667C17.604312 31.444135 17.873204 31.044274 18.299722 30.467084C18.72624 29.889893 19.069312 29.457578 19.328929 29.170144C19.004404 28.799258 18.65554 28.358829 18.282337 27.848864C17.909133 27.338897 17.646036 26.944831 17.493046 26.666667C17.149977 27.278628 16.54265 28.11312 15.671071 29.170144C16.565834 30.250345 17.173157 31.082522 17.493046 31.666667Z" fill="#da0a0a" />
<path d="M17.506954 15.0C17.395688 15.222531 17.126796 15.622392 16.700278 16.199583C16.27376 16.776773 15.930688 17.209089 15.671071 17.496523C15.995596 17.867408 16.34446 18.307837 16.717663 18.817803C17.090867 19.32777 17.353964 19.721836 17.506954 20.0C17.850023 19.388039 18.45735 18.553547 19.328929 17.496523C18.434166 16.416321 17.826843 15.584145 17.506954 15.0Z" fill="#da0a0a" />
<path d="M23.949367 5.265471Q24.306962 4.892053 24.306962 4.246484Q24.306962 3.733826 24.063291 3.290788T23.376582 2.547117T22.363924 2.145218Q22.332278 2.138889 22.268987 2.138889Q22.142405 2.138889 22.142405 2.252813Q22.142405 2.354079 22.256329 2.385724Q23.414557 2.746484 23.636076 3.683193Q23.427215 3.543952 23.221519 3.48699T22.794304 3.430028Q22.490506 3.430028 22.237342 3.566104T21.838608 3.939522T21.693038 4.480661Q21.693038 4.822433 21.876582 5.085091T22.357595 5.493319T22.990506 5.638889Q23.591772 5.638889 23.949367 5.265471ZM22.496835 5.186357Q22.300633 4.936357 22.300633 4.537623Q22.300633 4.164205 22.496835 3.939522T23.009494 3.714838Q23.167722 3.714838 23.338608 3.793952T23.661392 4.005977Q23.699367 4.157876 23.699367 4.252813Q23.699367 4.505977 23.632911 4.778129T23.405063 5.243319T22.990506 5.436357Q22.693038 5.436357 22.496835 5.186357Z" fill="#da0a0a" />
<path d="M23.003245 6.611123C22.951322 6.71497 22.82584 6.90157 22.6268 7.170922C22.42776 7.440275 22.267662 7.642021 22.146508 7.776155C22.297952 7.949233 22.460753 8.154765 22.634913 8.392746C22.809073 8.630728 22.93185 8.814624 23.003245 8.944433C23.163342 8.658854 23.446759 8.269428 23.853492 7.776155C23.43594 7.272066 23.152525 6.883721 23.003245 6.611123Z" fill="#da0a0a" />
<path d="M1.050633 29.734529Q0.693038 30.107947 0.693038 30.753516Q0.693038 31.266174 0.936709 31.709212T1.623418 32.452883T2.636076 32.854782Q2.667722 32.861111 2.731013 32.861111Q2.857595 32.861111 2.857595 32.747187Q2.857595 32.645921 2.743671 32.614276Q1.585443 32.253516 1.363924 31.316807Q1.572785 31.456048 1.778481 31.51301T2.205696 31.569972Q2.509494 31.569972 2.762658 31.433896T3.161392 31.060478T3.306962 30.519339Q3.306962 30.177567 3.123418 29.914909T2.642405 29.506681T2.009494 29.361111Q1.408228 29.361111 1.050633 29.734529ZM2.503165 29.813643Q2.699367 30.063643 2.699367 30.462377Q2.699367 30.835795 2.503165 31.060478T1.990506 31.285162Q1.832278 31.285162 1.661392 31.206048T1.338608 30.994023Q1.300633 30.842124 1.300633 30.747187Q1.300633 30.494023 1.367089 30.221871T1.594937 29.756681T2.009494 29.563643Q2.306962 29.563643 2.503165 29.813643Z" fill="#da0a0a" />
<path d="M1.996755 28.388877C2.048678 28.28503 2.17416 28.09843 2.3732 27.829078C2.57224 27.559725 2.732338 27.357979 2.853492 27.223845C2.702048 27.050767 2.539247 26.845235 2.365087 26.607254C2.190927 26.369272 2.06815 26.185376 1.996755 26.055567C1.836658 26.341146 1.553241 26.730572 1.146508 27.223845C1.56406 27.727934 1.847475 28.116279 1.996755 28.388877Z" fill="#da0a0a" />
</svg>
