<svg width="150.000000" height="210.000000" id="card-webclub10">
<radialGradient id="card-webwhitegradient" cx="75.0" cy="105.0" r="150" gradientTransform="matrix(1 0 0 1 0 -.25)" gradientUnits="userSpaceOnUse">
<stop stop-color="#FDFAF4" offset=".15"/>
<stop stop-color="#FDF9F2" offset=".35"/>
<stop stop-color="#FCF7F1" offset=".5"/>
<stop stop-color="#FDFDF8" offset=".75"/>
<stop stop-color="#FFFDFA" offset="1"/>
</radialGradient>
<rect x="0" y="0" rx="7.5" ry="7.5" width="150" height="210.0" stroke="#010101" fill="url(#card-webwhitegradient)" />
<path d="M44.405099 37.528329C44.376771 38.378187 44.34136 39.065157 44.298867 39.589235C44.256374 40.113313 44.150142 40.779037 43.98017 41.586402S43.604816 43.059492 43.364023 43.583569S42.762038 44.695469 42.280453 45.347025S41.232293 46.536827 40.580737 46.961756S39.107647 47.797452 38.116147 48.194051S35.991501 48.902268 34.716714 49.128895V49.978754H55.283286V49.128895C54.008499 48.902266 52.875353 48.583571 51.883853 48.172805S50.063741 47.344193 49.398017 46.919263S48.165722 45.94901 47.6983 45.283286S46.869688 44.029745 46.614731 43.51983S46.154392 42.344191 45.998584 41.522663S45.743626 40.042494 45.701133 39.546742C45.65864 39.05099 45.62323 38.378187 45.594901 37.528329C46.274788 38.774786 46.827195 39.652975 47.252125 40.16289C48.016997 41.126064 48.958925 41.890936 50.077904 42.457507C51.196882 43.024078 52.294619 43.307365 53.371105 43.307365C55.184137 43.307365 56.742208 42.634562 58.045326 41.288952S60.0 38.321531 60.0 36.423513C60.0 34.582154 59.412183 33.009916 58.236544 31.706799S55.637392 29.752125 53.966006 29.752125C53.399435 29.752125 52.875353 29.830028 52.393768 29.985836S51.430593 30.339943 50.949008 30.580737L50.056657 31.026912C51.161473 29.440511 51.713881 27.939092 51.713881 26.522663C51.713881 24.73796 51.055241 23.208215 49.73796 21.933428S46.841358 20.021246 45.0 20.021246S41.57932 20.65864 40.26204 21.933428S38.286119 24.73796 38.286119 26.522663C38.286119 27.939092 38.838527 29.440511 39.943343 31.026912C39.745042 30.941926 39.468837 30.814448 39.114731 30.644476S38.498584 30.347025 38.328612 30.26204S37.939093 30.092068 37.669972 30.007082S37.13881 29.858357 36.883853 29.815864S36.345608 29.752125 36.033994 29.752125C34.362608 29.752125 32.939095 30.403681 31.763456 31.706799S30.0 34.582154 30.0 36.423513C30.0 38.321531 30.651557 39.943341 31.954674 41.288952S34.815863 43.307365 36.628895 43.307365C39.745041 43.307365 42.337096 41.381021 44.405099 37.528329Z" fill="#010101" />
<path d="M45.594901 172.471671C45.623229 171.621813 45.65864 170.934843 45.701133 170.410765C45.743626 169.886687 45.849858 169.220963 46.01983 168.413598S46.395184 166.940508 46.635977 166.416431S47.237962 165.304531 47.719547 164.652975S48.767707 163.463173 49.419263 163.038244S50.892353 162.202548 51.883853 161.805949S54.008499 161.097732 55.283286 160.871105V160.021246H34.716714V160.871105C35.991501 161.097734 37.124647 161.416429 38.116147 161.827195S39.936259 162.655807 40.601983 163.080737S41.834278 164.05099 42.3017 164.716714S43.130312 165.970255 43.385269 166.48017S43.845608 167.655809 44.001416 168.477337S44.256374 169.957506 44.298867 170.453258C44.34136 170.94901 44.37677 171.621813 44.405099 172.471671C43.725212 171.225214 43.172805 170.347025 42.747875 169.83711C41.983003 168.873936 41.041075 168.109064 39.922096 167.542493C38.803118 166.975922 37.705381 166.692635 36.628895 166.692635C34.815863 166.692635 33.257792 167.365438 31.954674 168.711048S30.0 171.678469 30.0 173.576487C30.0 175.417846 30.587817 176.990084 31.763456 178.293201S34.362608 180.247875 36.033994 180.247875C36.600565 180.247875 37.124647 180.169972 37.606232 180.014164S38.569407 179.660057 39.050992 179.419263L39.943343 178.973088C38.838527 180.559489 38.286119 182.060908 38.286119 183.477337C38.286119 185.26204 38.944759 186.791785 40.26204 188.066572S43.158642 189.978754 45.0 189.978754S48.42068 189.34136 49.73796 188.066572S51.713881 185.26204 51.713881 183.477337C51.713881 182.060908 51.161473 180.559489 50.056657 178.973088C50.254958 179.058074 50.531163 179.185552 50.885269 179.355524S51.501416 179.652975 51.671388 179.73796S52.060907 179.907932 52.330028 179.992918S52.86119 180.141643 53.116147 180.184136S53.654392 180.247875 53.966006 180.247875C55.637392 180.247875 57.060905 179.596319 58.236544 178.293201S60.0 175.417846 60.0 173.576487C60.0 171.678469 59.348443 170.056659 58.045326 168.711048S55.184137 166.692635 53.371105 166.692635C50.254959 166.692635 47.662904 168.618979 45.594901 172.471671Z" fill="#010101" />
<path d="M44.405099 84.194995C44.376771 85.044854 44.34136 85.731824 44.298867 86.255902C44.256374 86.77998 44.150142 87.445703 43.98017 88.253069S43.604816 89.726158 43.364023 90.250236S42.762038 91.362136 42.280453 92.013692S41.232293 93.203494 40.580737 93.628423S39.107647 94.464119 38.116147 94.860718S35.991501 95.568934 34.716714 95.795562V96.64542H55.283286V95.795562C54.008499 95.568933 52.875353 95.250237 51.883853 94.839471S50.063741 94.010859 49.398017 93.58593S48.165722 92.615677 47.6983 91.949953S46.869688 90.696412 46.614731 90.186497S46.154392 89.010858 45.998584 88.18933S45.743626 86.709161 45.701133 86.213409C45.65864 85.717657 45.62323 85.044854 45.594901 84.194995C46.274788 85.441453 46.827195 86.319641 47.252125 86.829556C48.016997 87.79273 48.958925 88.557603 50.077904 89.124174C51.196882 89.690745 52.294619 89.974032 53.371105 89.974032C55.184137 89.974032 56.742208 89.301229 58.045326 87.955619S60.0 84.988198 60.0 83.090179C60.0 81.248821 59.412183 79.676583 58.236544 78.373466S55.637392 76.418791 53.966006 76.418791C53.399435 76.418791 52.875353 76.496695 52.393768 76.652502S51.430593 77.00661 50.949008 77.247403L50.056657 77.693579C51.161473 76.107178 51.713881 74.605759 51.713881 73.18933C51.713881 71.404627 51.055241 69.874882 49.73796 68.600094S46.841358 66.687913 45.0 66.687913S41.57932 67.325307 40.26204 68.600094S38.286119 71.404627 38.286119 73.18933C38.286119 74.605759 38.838527 76.107178 39.943343 77.693579C39.745042 77.608593 39.468837 77.481114 39.114731 77.311143S38.498584 77.013692 38.328612 76.928706S37.939093 76.758735 37.669972 76.673749S37.13881 76.525024 36.883853 76.482531S36.345608 76.418791 36.033994 76.418791C34.362608 76.418791 32.939095 77.070348 31.763456 78.373466S30.0 81.248821 30.0 83.090179C30.0 84.988198 30.651557 86.610008 31.954674 87.955619S34.815863 89.974032 36.628895 89.974032C39.745041 89.974032 42.337096 88.047688 44.405099 84.194995Z" fill="#010101" />
<path d="M45.594901 125.805005C45.623229 124.955146 45.65864 124.268176 45.701133 123.744098C45.743626 123.22002 45.849858 122.554297 46.01983 121.746931S46.395184 120.273842 46.635977 119.749764S47.237962 118.637864 47.719547 117.986308S48.767707 116.796506 49.419263 116.371577S50.892353 115.535881 51.883853 115.139282S54.008499 114.431066 55.283286 114.204438V113.35458H34.716714V114.204438C35.991501 114.431067 37.124647 114.749763 38.116147 115.160529S39.936259 115.989141 40.601983 116.41407S41.834278 117.384323 42.3017 118.050047S43.130312 119.303588 43.385269 119.813503S43.845608 120.989142 44.001416 121.81067S44.256374 123.290839 44.298867 123.786591C44.34136 124.282343 44.37677 124.955146 44.405099 125.805005C43.725212 124.558547 43.172805 123.680359 42.747875 123.170444C41.983003 122.20727 41.041075 121.442397 39.922096 120.875826C38.803118 120.309255 37.705381 120.025968 36.628895 120.025968C34.815863 120.025968 33.257792 120.698771 31.954674 122.044381S30.0 125.011802 30.0 126.909821C30.0 128.751179 30.587817 130.323417 31.763456 131.626534S34.362608 133.581209 36.033994 133.581209C36.600565 133.581209 37.124647 133.503305 37.606232 133.347498S38.569407 132.99339 39.050992 132.752597L39.943343 132.306421C38.838527 133.892822 38.286119 135.394241 38.286119 136.81067C38.286119 138.595373 38.944759 140.125118 40.26204 141.399906S43.158642 143.312087 45.0 143.312087S48.42068 142.674693 49.73796 141.399906S51.713881 138.595373 51.713881 136.81067C51.713881 135.394241 51.161473 133.892822 50.056657 132.306421C50.254958 132.391407 50.531163 132.518886 50.885269 132.688857S51.501416 132.986308 51.671388 133.071294S52.060907 133.241265 52.330028 133.326251S52.86119 133.474976 53.116147 133.517469S53.654392 133.581209 53.966006 133.581209C55.637392 133.581209 57.060905 132.929652 58.236544 131.626534S60.0 128.751179 60.0 126.909821C60.0 125.011802 59.348443 123.389992 58.045326 122.044381S55.184137 120.025968 53.371105 120.025968C50.254959 120.025968 47.662904 121.952312 45.594901 125.805005Z" fill="#010101" />
<path d="M104.405099 37.528329C104.376771 38.378187 104.34136 39.065157 104.298867 39.589235C104.256374 40.113313 104.150142 40.779037 103.98017 41.586402S103.604816 43.059492 103.364023 43.583569S102.762038 44.695469 102.280453 45.347025S101.232293 46.536827 100.580737 46.961756S99.107647 47.797452 98.116147 48.194051S95.991501 48.902268 94.716714 49.128895V49.978754H115.283286V49.128895C114.008499 48.902266 112.875353 48.583571 111.883853 48.172805S110.063741 47.344193 109.398017 46.919263S108.165722 45.94901 107.6983 45.283286S106.869688 44.029745 106.614731 43.51983S106.154392 42.344191 105.998584 41.522663S105.743626 40.042494 105.701133 39.546742C105.65864 39.05099 105.62323 38.378187 105.594901 37.528329C106.274788 38.774786 106.827195 39.652975 107.252125 40.16289C108.016997 41.126064 108.958925 41.890936 110.077904 42.457507C111.196882 43.024078 112.294619 43.307365 113.371105 43.307365C115.184137 43.307365 116.742208 42.634562 118.045326 41.288952S120.0 38.321531 120.0 36.423513C120.0 34.582154 119.412183 33.009916 118.236544 31.706799S115.637392 29.752125 113.966006 29.752125C113.399435 29.752125 112.875353 29.830028 112.393768 29.985836S111.430593 30.339943 110.949008 30.580737L110.056657 31.026912C111.161473 29.440511 111.713881 27.939092 111.713881 26.522663C111.713881 24.73796 111.055241 23.208215 109.73796 21.933428S106.841358 20.021246 105.0 20.021246S101.57932 20.65864 100.26204 21.933428S98.286119 24.73796 98.286119 26.522663C98.286119 27.939092 98.838527 29.440511 99.943343 31.026912C99.745042 30.941926 99.468837 30.814448 99.114731 30.644476S98.498584 30.347025 98.328612 30.26204S97.939093 30.092068 97.669972 30.007082S97.13881 29.858357 96.883853 29.815864S96.345608 29.752125 96.033994 29.752125C94.362608 29.752125 92.939095 30.403681 91.763456 31.706799S90.0 34.582154 90.0 36.423513C90.0 38.321531 90.651557 39.943341 91.954674 41.288952S94.815863 43.307365 96.628895 43.307365C99.745041 43.307365 102.337096 41.381021 104.405099 37.528329Z" fill="#010101" />
<path d="M105.594901 172.471671C105.623229 171.621813 105.65864 170.934843 105.701133 170.410765C105.743626 169.886687 105.849858 169.220963 106.01983 168.413598S106.395184 166.940508 106.635977 166.416431S107.237962 165.304531 107.719547 164.652975S108.767707 163.463173 109.419263 163.038244S110.892353 162.202548 111.883853 161.805949S114.008499 161.097732 115.283286 160.871105V160.021246H94.716714V160.871105C95.991501 161.097734 97.124647 161.416429 98.116147 161.827195S99.936259 162.655807 100.601983 163.080737S101.834278 164.05099 102.3017 164.716714S103.130312 165.970255 103.385269 166.48017S103.845608 167.655809 104.001416 168.477337S104.256374 169.957506 104.298867 170.453258C104.34136 170.94901 104.37677 171.621813 104.405099 172.471671C103.725212 171.225214 103.172805 170.347025 102.747875 169.83711C101.983003 168.873936 101.041075 168.109064 99.922096 167.542493C98.803118 166.975922 97.705381 166.692635 96.628895 166.692635C94.815863 166.692635 93.257792 167.365438 91.954674 168.711048S90.0 171.678469 90.0 173.576487C90.0 175.417846 90.587817 176.990084 91.763456 178.293201S94.362608 180.247875 96.033994 180.247875C96.600565 180.247875 97.124647 180.169972 97.606232 180.014164S98.569407 179.660057 99.050992 179.419263L99.943343 178.973088C98.838527 180.559489 98.286119 182.060908 98.286119 183.477337C98.286119 185.26204 98.944759 186.791785 100.26204 188.066572S103.158642 189.978754 105.0 189.978754S108.42068 189.34136 109.73796 188.066572S111.713881 185.26204 111.713881 183.477337C111.713881 182.060908 111.161473 180.559489 110.056657 178.973088C110.254958 179.058074 110.531163 179.185552 110.885269 179.355524S111.501416 179.652975 111.671388 179.73796S112.060907 179.907932 112.330028 179.992918S112.86119 180.141643 113.116147 180.184136S113.654392 180.247875 113.966006 180.247875C115.637392 180.247875 117.060905 179.596319 118.236544 178.293201S120.0 175.417846 120.0 173.576487C120.0 171.678469 119.348443 170.056659 118.045326 168.711048S115.184137 166.692635 113.371105 166.692635C110.254959 166.692635 107.662904 168.618979 105.594901 172.471671Z" fill="#010101" />
<path d="M104.405099 84.194995C104.376771 85.044854 104.34136 85.731824 104.298867 86.255902C104.256374 86.77998 104.150142 87.445703 103.98017 88.253069S103.604816 89.726158 103.364023 90.250236S102.762038 91.362136 102.280453 92.013692S101.232293 93.203494 100.580737 93.628423S99.107647 94.464119 98.116147 94.860718S95.991501 95.568934 94.716714 95.795562V96.64542H115.283286V95.795562C114.008499 95.568933 112.875353 95.250237 111.883853 94.839471S110.063741 94.010859 109.398017 93.58593S108.165722 92.615677 107.6983 91.949953S106.869688 90.696412 106.614731 90.186497S106.154392 89.010858 105.998584 88.18933S105.743626 86.709161 105.701133 86.213409C105.65864 85.717657 105.62323 85.044854 105.594901 84.194995C106.274788 85.441453 106.827195 86.319641 107.252125 86.829556C108.016997 87.79273 108.958925 88.557603 110.077904 89.124174C111.196882 89.690745 112.294619 89.974032 113.371105 89.974032C115.184137 89.974032 116.742208 89.301229 118.045326 87.955619S120.0 84.988198 120.0 83.090179C120.0 81.248821 119.412183 79.676583 118.236544 78.373466S115.637392 76.418791 113.966006 76.418791C113.399435 76.418791 112.875353 76.496695 112.393768 76.652502S111.430593 77.00661 110.949008 77.247403L110.056657 77.693579C111.161473 76.107178 111.713881 74.605759 111.713881 73.18933C111.713881 71.404627 111.055241 69.874882 109.73796 68.600094S106.841358 66.687913 105.0 66.687913S101.57932 67.325307 100.26204 68.600094S98.286119 71.404627 98.286119 73.18933C98.286119 74.605759 98.838527 76.107178 99.943343 77.693579C99.745042 77.608593 99.468837 77.481114 99.114731 77.311143S98.498584 77.013692 98.328612 76.928706S97.939093 76.758735 97.669972 76.673749S97.13881 76.525024 96.883853 76.482531S96.345608 76.418791 96.033994 76.418791C94.362608 76.418791 92.939095 77.070348 91.763456 78.373466S90.0 81.248821 90.0 83.090179C90.0 84.988198 90.651557 86.610008 91.954674 87.955619S94.815863 89.974032 96.628895 89.974032C99.745041 89.974032 102.337096 88.047688 104.405099 84.194995Z" fill="#010101" />
<path d="M105.594901 125.805005C105.623229 124.955146 105.65864 124.268176 105.701133 123.744098C105.743626 123.22002 105.849858 122.554297 106.01983 121.746931S106.395184 120.273842 106.635977 119.749764S107.237962 118.637864 107.719547 117.986308S108.767707 116.796506 109.419263 116.371577S110.892353 115.535881 111.883853 115.139282S114.008499 114.431066 115.283286 114.204438V113.35458H94.716714V114.204438C95.991501 114.431067 97.124647 114.749763 98.116147 115.160529S99.936259 115.989141 100.601983 116.41407S101.834278 117.384323 102.3017 118.050047S103.130312 119.303588 103.385269 119.813503S103.845608 120.989142 104.001416 121.81067S104.256374 123.290839 104.298867 123.786591C104.34136 124.282343 104.37677 124.955146 104.405099 125.805005C103.725212 124.558547 103.172805 123.680359 102.747875 123.170444C101.983003 122.20727 101.041075 121.442397 99.922096 120.875826C98.803118 120.309255 97.705381 120.025968 96.628895 120.025968C94.815863 120.025968 93.257792 120.698771 91.954674 122.044381S90.0 125.011802 90.0 126.909821C90.0 128.751179 90.587817 130.323417 91.763456 131.626534S94.362608 133.581209 96.033994 133.581209C96.600565 133.581209 97.124647 133.503305 97.606232 133.347498S98.569407 132.99339 99.050992 132.752597L99.943343 132.306421C98.838527 133.892822 98.286119 135.394241 98.286119 136.81067C98.286119 138.595373 98.944759 140.125118 100.26204 141.399906S103.158642 143.312087 105.0 143.312087S108.42068 142.674693 109.73796 141.399906S111.713881 138.595373 111.713881 136.81067C111.713881 135.394241 111.161473 133.892822 110.056657 132.306421C110.254958 132.391407 110.531163 132.518886 110.885269 132.688857S111.501416 132.986308 111.671388 133.071294S112.060907 133.241265 112.330028 133.326251S112.86119 133.474976 113.116147 133.517469S113.654392 133.581209 113.966006 133.581209C115.637392 133.581209 117.060905 132.929652 118.236544 131.626534S120.0 128.751179 120.0 126.909821C120.0 125.011802 119.348443 123.389992 118.045326 122.044381S115.184137 120.025968 113.371105 120.025968C110.254959 120.025968 107.662904 121.952312 105.594901 125.805005Z" fill="#010101" />
<path d="M74.405099 60.861662C74.376771 61.71152 74.34136 62.398491 74.298867 62.922568C74.256374 63.446646 74.150142 64.11237 73.98017 64.919736S73.604816 66.392825 73.364023 66.916903S72.762038 68.028802 72.280453 68.680359S71.232293 69.870161 70.580737 70.29509S69.107647 71.130785 68.116147 71.527384S65.991501 72.235601 64.716714 72.462229V73.312087H85.283286V72.462229C84.008499 72.2356 82.875353 71.916904 81.883853 71.506138S80.063741 70.677526 79.398017 70.252597S78.165722 69.282343 77.6983 68.616619S76.869688 67.363078 76.614731 66.853163S76.154392 65.677525 75.998584 64.855996S75.743626 63.375828 75.701133 62.880076C75.65864 62.384323 75.62323 61.71152 75.594901 60.861662C76.274788 62.108119 76.827195 62.986308 77.252125 63.496223C78.016997 64.459397 78.958925 65.22427 80.077904 65.79084C81.196882 66.357411 82.294619 66.640699 83.371105 66.640699C85.184137 66.640699 86.742208 65.967896 88.045326 64.622285S90.0 61.654864 90.0 59.756846C90.0 57.915488 89.412183 56.34325 88.236544 55.040132S85.637392 53.085458 83.966006 53.085458C83.399435 53.085458 82.875353 53.163362 82.393768 53.319169S81.430593 53.673277 80.949008 53.91407L80.056657 54.360246C81.161473 52.773845 81.713881 51.272425 81.713881 49.855996C81.713881 48.071294 81.055241 46.541549 79.73796 45.266761S76.841358 43.35458 75.0 43.35458S71.57932 43.991974 70.26204 45.266761S68.286119 48.071294 68.286119 49.855996C68.286119 51.272425 68.838527 52.773845 69.943343 54.360246C69.745042 54.27526 69.468837 54.147781 69.114731 53.977809S68.498584 53.680359 68.328612 53.595373S67.939093 53.425401 67.669972 53.340415S67.13881 53.19169 66.883853 53.149197S66.345608 53.085458 66.033994 53.085458C64.362608 53.085458 62.939095 53.737015 61.763456 55.040132S60.0 57.915488 60.0 59.756846C60.0 61.654864 60.651557 63.276675 61.954674 64.622285S64.815863 66.640699 66.628895 66.640699C69.745041 66.640699 72.337096 64.714355 74.405099 60.861662Z" fill="#010101" />
<path d="M74.405099 154.194995C74.376771 155.044854 74.34136 155.731824 74.298867 156.255902C74.256374 156.77998 74.150142 157.445703 73.98017 158.253069S73.604816 159.726158 73.364023 160.250236S72.762038 161.362136 72.280453 162.013692S71.232293 163.203494 70.580737 163.628423S69.107647 164.464119 68.116147 164.860718S65.991501 165.568934 64.716714 165.795562V166.64542H85.283286V165.795562C84.008499 165.568933 82.875353 165.250237 81.883853 164.839471S80.063741 164.010859 79.398017 163.58593S78.165722 162.615677 77.6983 161.949953S76.869688 160.696412 76.614731 160.186497S76.154392 159.010858 75.998584 158.18933S75.743626 156.709161 75.701133 156.213409C75.65864 155.717657 75.62323 155.044854 75.594901 154.194995C76.274788 155.441453 76.827195 156.319641 77.252125 156.829556C78.016997 157.79273 78.958925 158.557603 80.077904 159.124174C81.196882 159.690745 82.294619 159.974032 83.371105 159.974032C85.184137 159.974032 86.742208 159.301229 88.045326 157.955619S90.0 154.988198 90.0 153.090179C90.0 151.248821 89.412183 149.676583 88.236544 148.373466S85.637392 146.418791 83.966006 146.418791C83.399435 146.418791 82.875353 146.496695 82.393768 146.652502S81.430593 147.00661 80.949008 147.247403L80.056657 147.693579C81.161473 146.107178 81.713881 144.605759 81.713881 143.18933C81.713881 141.404627 81.055241 139.874882 79.73796 138.600094S76.841358 136.687913 75.0 136.687913S71.57932 137.325307 70.26204 138.600094S68.286119 141.404627 68.286119 143.18933C68.286119 144.605759 68.838527 146.107178 69.943343 147.693579C69.745042 147.608593 69.468837 147.481114 69.114731 147.311143S68.498584 147.013692 68.328612 146.928706S67.939093 146.758735 67.669972 146.673749S67.13881 146.525024 66.883853 146.482531S66.345608 146.418791 66.033994 146.418791C64.362608 146.418791 62.939095 147.070348 61.763456 148.373466S60.0 151.248821 60.0 153.090179C60.0 154.988198 60.651557 156.610008 61.954674 157.955619S64.815863 159.974032 66.628895 159.974032C69.745041 159.974032 72.337096 158.047688 74.405099 154.194995Z" fill="#010101" />
<path d="M148.353582 32.687879Q148.328128 32.229697 148.239038 32.07697T147.946314 31.924242Q146.520874 31.924242 145.922698 31.752424T145.031798 30.855152T144.739073 28.411515V20.469697Q144.713619 18.675152 144.853617 17.892424T145.349976 16.880606T146.520874 16.651515H147.768134Q148.226311 16.651515 148.226311 15.735152Q148.200857 15.162424 148.073585 15.028788T147.755407 14.895152H147.488137Q146.419056 14.895152 145.400885 14.379697T143.186361 13.138788Q143.033636 13.062424 142.931818 13.062424Q142.52455 13.062424 142.52455 13.940606V28.411515Q142.52455 30.091515 142.25728 30.81697T141.417288 31.733333T139.571852 31.924242H139.317309Q139.113675 31.924242 139.024585 32.07697T138.910041 32.687879Q138.910041 33.604242 139.368218 33.604242Q141.200927 33.489697 143.644539 33.489697Q146.062696 33.489697 147.895405 33.604242Q148.353582 33.604242 148.353582 32.687879ZM137.051778 32.382424Q138.413583 30.931515 139.088121 28.526061T139.76266 23.295152Q139.76266 20.431515 139.088121 18.064242T137.051778 14.265152T133.704539 12.833333Q131.820921 12.833333 130.44639 14.284242T128.359138 18.140606T127.646418 23.295152T128.359138 28.449697T130.44639 32.344242T133.704539 33.833333Q135.689973 33.833333 137.051778 32.382424ZM131.031838 30.053333Q130.090029 27.686061 130.090029 23.295152T131.031838 16.575152T133.679084 14.246061Q135.435431 14.246061 136.377239 16.556061T137.319048 23.295152T136.377239 30.072424T133.679084 32.420606Q131.973647 32.420606 131.031838 30.053333Z" fill="#010101" />
<path d="M137.722382 47.846542C137.709162 48.243138 137.692638 48.563721 137.672808 48.808288C137.652978 49.052856 137.603403 49.363524 137.524084 49.74029S137.348921 50.427725 137.236552 50.672292S136.955628 51.191174 136.730891 51.49523S136.241754 52.050466 135.937698 52.248764S135.250263 52.638751 134.787568 52.823829S133.796076 53.154327 133.201181 53.260085V53.656682H142.798819V53.260085C142.203924 53.154326 141.675128 53.005603 141.212432 52.813914S140.363055 52.427232 140.052387 52.228934S139.477322 51.776154 139.259194 51.465486S138.872513 50.880506 138.753534 50.642548S138.538711 50.093922 138.466001 49.710546S138.347022 49.019807 138.327192 48.788458C138.307362 48.55711 138.290838 48.243138 138.277618 47.846542C138.594895 48.428216 138.852683 48.838033 139.050981 49.075991C139.407918 49.525468 139.84748 49.882405 140.369665 50.146802C140.89185 50.411199 141.404121 50.543398 141.906477 50.543398C142.75255 50.543398 143.479642 50.229427 144.087758 49.601482S144.99993 48.216699 144.99993 47.330966C144.99993 46.471674 144.725618 45.73797 144.176992 45.129855S142.964067 44.217683 142.184094 44.217683C141.919697 44.217683 141.675128 44.254037 141.45039 44.326747S141.000914 44.491995 140.776176 44.604364L140.35975 44.812578C140.875325 44.072265 141.133113 43.371609 141.133113 42.710616C141.133113 41.877763 140.825751 41.163889 140.211026 40.568994S138.859292 39.676652 138.0 39.676652S136.403699 39.974099 135.788974 40.568994S134.866887 41.877763 134.866887 42.710616C134.866887 43.371609 135.124675 44.072265 135.64025 44.812578C135.547711 44.772918 135.418816 44.713428 135.253569 44.634109S134.966036 44.4953 134.886717 44.455641S134.704943 44.376321 134.579354 44.336662S134.331481 44.267257 134.212502 44.247427S133.961324 44.217683 133.815906 44.217683C133.035933 44.217683 132.371634 44.521739 131.823008 45.129855S131.00007 46.471674 131.00007 47.330966C131.00007 48.216699 131.304127 48.973536 131.912242 49.601482S133.24745 50.543398 134.093523 50.543398C135.54771 50.543398 136.757324 49.644447 137.722382 47.846542Z" fill="#010101" />
<path d="M1.646418 177.312121Q1.671872 177.770303 1.760962 177.92303T2.053686 178.075758Q3.479126 178.075758 4.077302 178.247576T4.968203 179.144848T5.260927 181.588485V189.530303Q5.286381 191.324848 5.146383 192.107576T4.650024 193.119394T3.479126 193.348485H2.231866Q1.773689 193.348485 1.773689 194.264848Q1.799143 194.837576 1.926415 194.971212T2.244593 195.104848H2.511863Q3.580944 195.104848 4.599115 195.620303T6.813639 196.861212Q6.966364 196.937576 7.068182 196.937576Q7.47545 196.937576 7.47545 196.059394V181.588485Q7.47545 179.908485 7.74272 179.18303T8.582712 178.266667T10.428148 178.075758H10.682691Q10.886325 178.075758 10.975415 177.92303T11.089959 177.312121Q11.089959 176.395758 10.631782 176.395758Q8.799073 176.510303 6.355461 176.510303Q3.937304 176.510303 2.104595 176.395758Q1.646418 176.395758 1.646418 177.312121ZM12.948222 177.617576Q11.586417 179.068485 10.911879 181.473939T10.23734 186.704848Q10.23734 189.568485 10.911879 191.935758T12.948222 195.734848T16.295461 197.166667Q18.179079 197.166667 19.55361 195.715758T21.640862 191.859394T22.353582 186.704848T21.640862 181.550303T19.55361 177.655758T16.295461 176.166667Q14.310027 176.166667 12.948222 177.617576ZM18.968162 179.946667Q19.909971 182.313939 19.909971 186.704848T18.968162 193.424848T16.320916 195.753939Q14.564569 195.753939 13.622761 193.443939T12.680952 186.704848T13.622761 179.927576T16.320916 177.579394Q18.026353 177.579394 18.968162 179.946667Z" fill="#010101" />
<path d="M12.277618 162.153458C12.290838 161.756862 12.307362 161.436279 12.327192 161.191712C12.347022 160.947144 12.396597 160.636476 12.475916 160.25971S12.651079 159.572275 12.763448 159.327708S13.044372 158.808826 13.269109 158.50477S13.758246 157.949534 14.062302 157.751236S14.749737 157.361249 15.212432 157.176171S16.203924 156.845673 16.798819 156.739915V156.343318H7.201181V156.739915C7.796076 156.845674 8.324872 156.994397 8.787568 157.186086S9.636945 157.572768 9.947613 157.771066S10.522678 158.223846 10.740806 158.534514S11.127487 159.119494 11.246466 159.357452S11.461289 159.906078 11.533999 160.289454S11.652978 160.980193 11.672808 161.211542C11.692638 161.44289 11.709162 161.756862 11.722382 162.153458C11.405105 161.571784 11.147317 161.161967 10.949019 160.924009C10.592082 160.474532 10.15252 160.117595 9.630335 159.853198C9.10815 159.588801 8.595879 159.456602 8.093523 159.456602C7.24745 159.456602 6.520358 159.770573 5.912242 160.398518S5.00007 161.783301 5.00007 162.669034C5.00007 163.528326 5.274382 164.26203 5.823008 164.870145S7.035933 165.782317 7.815906 165.782317C8.080303 165.782317 8.324872 165.745963 8.54961 165.673253S8.999086 165.508005 9.223824 165.395636L9.64025 165.187422C9.124675 165.927735 8.866887 166.628391 8.866887 167.289384C8.866887 168.122237 9.174249 168.836111 9.788974 169.431006S11.140708 170.323348 12.0 170.323348S13.596301 170.025901 14.211026 169.431006S15.133113 168.122237 15.133113 167.289384C15.133113 166.628391 14.875325 165.927735 14.35975 165.187422C14.452289 165.227082 14.581184 165.286572 14.746431 165.365891S15.033964 165.5047 15.113283 165.544359S15.295057 165.623679 15.420646 165.663338S15.668519 165.732743 15.787498 165.752573S16.038676 165.782317 16.184094 165.782317C16.964067 165.782317 17.628366 165.478261 18.176992 164.870145S18.99993 163.528326 18.99993 162.669034C18.99993 161.783301 18.695873 161.026464 18.087758 160.398518S16.75255 159.456602 15.906477 159.456602C14.45229 159.456602 13.242676 160.355553 12.277618 162.153458Z" fill="#010101" />
</svg>
