<svg width="25.000000" height="35.000000" id="card-lightclub7">
<rect x="0" y="0" rx="1.25" ry="1.25" width="25" height="35.0" stroke="#010101" fill="#fffdfa" />
<path d="M7.40085 6.254721C7.396128 6.396364 7.390227 6.51086 7.383144 6.598206C7.376062 6.685552 7.358357 6.796506 7.330028 6.931067S7.267469 7.176582 7.227337 7.263928S7.127006 7.449245 7.046742 7.557838S6.872049 7.756138 6.763456 7.826959S6.517941 7.966242 6.352691 8.032342S5.998584 8.150378 5.786119 8.188149V8.329792H9.213881V8.188149C9.001416 8.150378 8.812559 8.097262 8.647309 8.028801S8.343957 7.890699 8.233003 7.819877S8.02762 7.658168 7.949717 7.547214S7.811615 7.338291 7.769122 7.253305S7.692399 7.057365 7.666431 6.920444S7.623938 6.673749 7.616856 6.591124C7.609773 6.508498 7.603872 6.396364 7.59915 6.254721C7.712465 6.462464 7.804533 6.608829 7.875354 6.693815C8.002833 6.854344 8.159821 6.981823 8.346317 7.076251C8.532814 7.17068 8.71577 7.217894 8.895184 7.217894C9.197356 7.217894 9.457035 7.10576 9.674221 6.881492S10.0 6.386922 10.0 6.070585C10.0 5.763692 9.90203 5.501653 9.706091 5.284466S9.272899 4.958687 8.994334 4.958687C8.899906 4.958687 8.812559 4.971671 8.732295 4.997639S8.571766 5.056657 8.491501 5.096789L8.342776 5.171152C8.526912 4.906752 8.61898 4.656515 8.61898 4.420444C8.61898 4.122993 8.509207 3.868036 8.28966 3.655571S7.806893 3.336874 7.5 3.336874S6.929887 3.443107 6.71034 3.655571S6.38102 4.122993 6.38102 4.420444C6.38102 4.656515 6.473088 4.906752 6.657224 5.171152C6.624174 5.156988 6.57814 5.135741 6.519122 5.107413S6.416431 5.057838 6.388102 5.043673S6.323182 5.015345 6.278329 5.00118S6.189802 4.976393 6.147309 4.969311S6.057601 4.958687 6.005666 4.958687C5.727101 4.958687 5.489849 5.06728 5.293909 5.284466S5.0 5.763692 5.0 6.070585C5.0 6.386922 5.108593 6.657224 5.325779 6.881492S5.802644 7.217894 6.104816 7.217894C6.624174 7.217894 7.056183 6.896837 7.40085 6.254721Z" fill="#010101" />
<path d="M7.59915 28.745279C7.603872 28.603636 7.609773 28.48914 7.616856 28.401794C7.623938 28.314448 7.641643 28.203494 7.669972 28.068933S7.732531 27.823418 7.772663 27.736072S7.872994 27.550755 7.953258 27.442162S8.127951 27.243862 8.236544 27.173041S8.482059 27.033758 8.647309 26.967658S9.001416 26.849622 9.213881 26.811851V26.670208H5.786119V26.811851C5.998584 26.849622 6.187441 26.902738 6.352691 26.971199S6.656043 27.109301 6.766997 27.180123S6.97238 27.341832 7.050283 27.452786S7.188385 27.661709 7.230878 27.746695S7.307601 27.942635 7.333569 28.079556S7.376062 28.326251 7.383144 28.408876C7.390227 28.491502 7.396128 28.603636 7.40085 28.745279C7.287535 28.537536 7.195467 28.391171 7.124646 28.306185C6.997167 28.145656 6.840179 28.018177 6.653683 27.923749C6.467186 27.82932 6.28423 27.782106 6.104816 27.782106C5.802644 27.782106 5.542965 27.89424 5.325779 28.118508S5.0 28.613078 5.0 28.929415C5.0 29.236308 5.09797 29.498347 5.293909 29.715534S5.727101 30.041313 6.005666 30.041313C6.100094 30.041313 6.187441 30.028329 6.267705 30.002361S6.428234 29.943343 6.508499 29.903211L6.657224 29.828848C6.473088 30.093248 6.38102 30.343485 6.38102 30.579556C6.38102 30.877007 6.490793 31.131964 6.71034 31.344429S7.193107 31.663126 7.5 31.663126S8.070113 31.556893 8.28966 31.344429S8.61898 30.877007 8.61898 30.579556C8.61898 30.343485 8.526912 30.093248 8.342776 29.828848C8.375826 29.843012 8.42186 29.864259 8.480878 29.892587S8.583569 29.942162 8.611898 29.956327S8.676818 29.984655 8.721671 29.99882S8.810198 30.023607 8.852691 30.030689S8.942399 30.041313 8.994334 30.041313C9.272899 30.041313 9.510151 29.93272 9.706091 29.715534S10.0 29.236308 10.0 28.929415C10.0 28.613078 9.891407 28.342776 9.674221 28.118508S9.197356 27.782106 8.895184 27.782106C8.375826 27.782106 7.943817 28.103163 7.59915 28.745279Z" fill="#010101" />
<path d="M7.40085 17.921388C7.396128 18.063031 7.390227 18.177526 7.383144 18.264873C7.376062 18.352219 7.358357 18.463173 7.330028 18.597734S7.267469 18.843249 7.227337 18.930595S7.127006 19.115911 7.046742 19.224504S6.872049 19.422805 6.763456 19.493626S6.517941 19.632909 6.352691 19.699008S5.998584 19.817045 5.786119 19.854816V19.996459H9.213881V19.854816C9.001416 19.817044 8.812559 19.763928 8.647309 19.695467S8.343957 19.557365 8.233003 19.486544S8.02762 19.324835 7.949717 19.213881S7.811615 19.004958 7.769122 18.919972S7.692399 18.724032 7.666431 18.58711S7.623938 18.340416 7.616856 18.25779C7.609773 18.175165 7.603872 18.063031 7.59915 17.921388C7.712465 18.129131 7.804533 18.275496 7.875354 18.360482C8.002833 18.521011 8.159821 18.648489 8.346317 18.742918C8.532814 18.837346 8.71577 18.884561 8.895184 18.884561C9.197356 18.884561 9.457035 18.772427 9.674221 18.548159S10.0 18.053589 10.0 17.737252C10.0 17.430359 9.90203 17.168319 9.706091 16.951133S9.272899 16.625354 8.994334 16.625354C8.899906 16.625354 8.812559 16.638338 8.732295 16.664306S8.571766 16.723324 8.491501 16.763456L8.342776 16.837819C8.526912 16.573419 8.61898 16.323182 8.61898 16.08711C8.61898 15.78966 8.509207 15.534703 8.28966 15.322238S7.806893 15.003541 7.5 15.003541S6.929887 15.109773 6.71034 15.322238S6.38102 15.78966 6.38102 16.08711C6.38102 16.323182 6.473088 16.573419 6.657224 16.837819C6.624174 16.823654 6.57814 16.802408 6.519122 16.774079S6.416431 16.724504 6.388102 16.71034S6.323182 16.682011 6.278329 16.667847S6.189802 16.643059 6.147309 16.635977S6.057601 16.625354 6.005666 16.625354C5.727101 16.625354 5.489849 16.733947 5.293909 16.951133S5.0 17.430359 5.0 17.737252C5.0 18.053589 5.108593 18.32389 5.325779 18.548159S5.802644 18.884561 6.104816 18.884561C6.624174 18.884561 7.056183 18.563504 7.40085 17.921388Z" fill="#010101" />
<path d="M17.40085 6.254721C17.396128 6.396364 17.390227 6.51086 17.383144 6.598206C17.376062 6.685552 17.358357 6.796506 17.330028 6.931067S17.267469 7.176582 17.227337 7.263928S17.127006 7.449245 17.046742 7.557838S16.872049 7.756138 16.763456 7.826959S16.517941 7.966242 16.352691 8.032342S15.998584 8.150378 15.786119 8.188149V8.329792H19.213881V8.188149C19.001416 8.150378 18.812559 8.097262 18.647309 8.028801S18.343957 7.890699 18.233003 7.819877S18.02762 7.658168 17.949717 7.547214S17.811615 7.338291 17.769122 7.253305S17.692399 7.057365 17.666431 6.920444S17.623938 6.673749 17.616856 6.591124C17.609773 6.508498 17.603872 6.396364 17.59915 6.254721C17.712465 6.462464 17.804533 6.608829 17.875354 6.693815C18.002833 6.854344 18.159821 6.981823 18.346317 7.076251C18.532814 7.17068 18.71577 7.217894 18.895184 7.217894C19.197356 7.217894 19.457035 7.10576 19.674221 6.881492S20.0 6.386922 20.0 6.070585C20.0 5.763692 19.90203 5.501653 19.706091 5.284466S19.272899 4.958687 18.994334 4.958687C18.899906 4.958687 18.812559 4.971671 18.732295 4.997639S18.571766 5.056657 18.491501 5.096789L18.342776 5.171152C18.526912 4.906752 18.61898 4.656515 18.61898 4.420444C18.61898 4.122993 18.509207 3.868036 18.28966 3.655571S17.806893 3.336874 17.5 3.336874S16.929887 3.443107 16.71034 3.655571S16.38102 4.122993 16.38102 4.420444C16.38102 4.656515 16.473088 4.906752 16.657224 5.171152C16.624174 5.156988 16.57814 5.135741 16.519122 5.107413S16.416431 5.057838 16.388102 5.043673S16.323182 5.015345 16.278329 5.00118S16.189802 4.976393 16.147309 4.969311S16.057601 4.958687 16.005666 4.958687C15.727101 4.958687 15.489849 5.06728 15.293909 5.284466S15.0 5.763692 15.0 6.070585C15.0 6.386922 15.108593 6.657224 15.325779 6.881492S15.802644 7.217894 16.104816 7.217894C16.624174 7.217894 17.056183 6.896837 17.40085 6.254721Z" fill="#010101" />
<path d="M17.59915 28.745279C17.603872 28.603636 17.609773 28.48914 17.616856 28.401794C17.623938 28.314448 17.641643 28.203494 17.669972 28.068933S17.732531 27.823418 17.772663 27.736072S17.872994 27.550755 17.953258 27.442162S18.127951 27.243862 18.236544 27.173041S18.482059 27.033758 18.647309 26.967658S19.001416 26.849622 19.213881 26.811851V26.670208H15.786119V26.811851C15.998584 26.849622 16.187441 26.902738 16.352691 26.971199S16.656043 27.109301 16.766997 27.180123S16.97238 27.341832 17.050283 27.452786S17.188385 27.661709 17.230878 27.746695S17.307601 27.942635 17.333569 28.079556S17.376062 28.326251 17.383144 28.408876C17.390227 28.491502 17.396128 28.603636 17.40085 28.745279C17.287535 28.537536 17.195467 28.391171 17.124646 28.306185C16.997167 28.145656 16.840179 28.018177 16.653683 27.923749C16.467186 27.82932 16.28423 27.782106 16.104816 27.782106C15.802644 27.782106 15.542965 27.89424 15.325779 28.118508S15.0 28.613078 15.0 28.929415C15.0 29.236308 15.09797 29.498347 15.293909 29.715534S15.727101 30.041313 16.005666 30.041313C16.100094 30.041313 16.187441 30.028329 16.267705 30.002361S16.428234 29.943343 16.508499 29.903211L16.657224 29.828848C16.473088 30.093248 16.38102 30.343485 16.38102 30.579556C16.38102 30.877007 16.490793 31.131964 16.71034 31.344429S17.193107 31.663126 17.5 31.663126S18.070113 31.556893 18.28966 31.344429S18.61898 30.877007 18.61898 30.579556C18.61898 30.343485 18.526912 30.093248 18.342776 29.828848C18.375826 29.843012 18.42186 29.864259 18.480878 29.892587S18.583569 29.942162 18.611898 29.956327S18.676818 29.984655 18.721671 29.99882S18.810198 30.023607 18.852691 30.030689S18.942399 30.041313 18.994334 30.041313C19.272899 30.041313 19.510151 29.93272 19.706091 29.715534S20.0 29.236308 20.0 28.929415C20.0 28.613078 19.891407 28.342776 19.674221 28.118508S19.197356 27.782106 18.895184 27.782106C18.375826 27.782106 17.943817 28.103163 17.59915 28.745279Z" fill="#010101" />
<path d="M17.40085 17.921388C17.396128 18.063031 17.390227 18.177526 17.383144 18.264873C17.376062 18.352219 17.358357 18.463173 17.330028 18.597734S17.267469 18.843249 17.227337 18.930595S17.127006 19.115911 17.046742 19.224504S16.872049 19.422805 16.763456 19.493626S16.517941 19.632909 16.352691 19.699008S15.998584 19.817045 15.786119 19.854816V19.996459H19.213881V19.854816C19.001416 19.817044 18.812559 19.763928 18.647309 19.695467S18.343957 19.557365 18.233003 19.486544S18.02762 19.324835 17.949717 19.213881S17.811615 19.004958 17.769122 18.919972S17.692399 18.724032 17.666431 18.58711S17.623938 18.340416 17.616856 18.25779C17.609773 18.175165 17.603872 18.063031 17.59915 17.921388C17.712465 18.129131 17.804533 18.275496 17.875354 18.360482C18.002833 18.521011 18.159821 18.648489 18.346317 18.742918C18.532814 18.837346 18.71577 18.884561 18.895184 18.884561C19.197356 18.884561 19.457035 18.772427 19.674221 18.548159S20.0 18.053589 20.0 17.737252C20.0 17.430359 19.90203 17.168319 19.706091 16.951133S19.272899 16.625354 18.994334 16.625354C18.899906 16.625354 18.812559 16.638338 18.732295 16.664306S18.571766 16.723324 18.491501 16.763456L18.342776 16.837819C18.526912 16.573419 18.61898 16.323182 18.61898 16.08711C18.61898 15.78966 18.509207 15.534703 18.28966 15.322238S17.806893 15.003541 17.5 15.003541S16.929887 15.109773 16.71034 15.322238S16.38102 15.78966 16.38102 16.08711C16.38102 16.323182 16.473088 16.573419 16.657224 16.837819C16.624174 16.823654 16.57814 16.802408 16.519122 16.774079S16.416431 16.724504 16.388102 16.71034S16.323182 16.682011 16.278329 16.667847S16.189802 16.643059 16.147309 16.635977S16.057601 16.625354 16.005666 16.625354C15.727101 16.625354 15.489849 16.733947 15.293909 16.951133S15.0 17.430359 15.0 17.737252C15.0 18.053589 15.108593 18.32389 15.325779 18.548159S15.802644 18.884561 16.104816 18.884561C16.624174 18.884561 17.056183 18.563504 17.40085 17.921388Z" fill="#010101" />
<path d="M12.40085 12.088055C12.396128 12.229698 12.390227 12.344193 12.383144 12.431539C12.376062 12.518886 12.358357 12.629839 12.330028 12.7644S12.267469 13.009915 12.227337 13.097262S12.127006 13.282578 12.046742 13.391171S11.872049 13.589471 11.763456 13.660293S11.517941 13.799575 11.352691 13.865675S10.998584 13.983711 10.786119 14.021483V14.163126H14.213881V14.021483C14.001416 13.983711 13.812559 13.930595 13.647309 13.862134S13.343957 13.724032 13.233003 13.653211S13.02762 13.491502 12.949717 13.380548S12.811615 13.171624 12.769122 13.086638S12.692399 12.890699 12.666431 12.753777S12.623938 12.507082 12.616856 12.424457C12.609773 12.341832 12.603872 12.229698 12.59915 12.088055C12.712465 12.295798 12.804533 12.442162 12.875354 12.527148C13.002833 12.687677 13.159821 12.815156 13.346317 12.909585C13.532814 13.004013 13.71577 13.051228 13.895184 13.051228C14.197356 13.051228 14.457035 12.939094 14.674221 12.714825S15.0 12.220255 15.0 11.903919C15.0 11.597026 14.90203 11.334986 14.706091 11.1178S14.272899 10.792021 13.994334 10.792021C13.899906 10.792021 13.812559 10.805005 13.732295 10.830973S13.571766 10.889991 13.491501 10.930123L13.342776 11.004485C13.526912 10.740085 13.61898 10.489849 13.61898 10.253777C13.61898 9.956327 13.509207 9.701369 13.28966 9.488905S12.806893 9.170208 12.5 9.170208S11.929887 9.27644 11.71034 9.488905S11.38102 9.956327 11.38102 10.253777C11.38102 10.489849 11.473088 10.740085 11.657224 11.004485C11.624174 10.990321 11.57814 10.969075 11.519122 10.940746S11.416431 10.891171 11.388102 10.877007S11.323182 10.848678 11.278329 10.834514S11.189802 10.809726 11.147309 10.802644S11.057601 10.792021 11.005666 10.792021C10.727101 10.792021 10.489849 10.900614 10.293909 11.1178S10.0 11.597026 10.0 11.903919C10.0 12.220255 10.108593 12.490557 10.325779 12.714825S10.802644 13.051228 11.104816 13.051228C11.624174 13.051228 12.056183 12.73017 12.40085 12.088055Z" fill="#010101" />
<path d="M23.552122 5.564627Q23.616697 5.490365 23.616697 5.361214Q23.616697 5.077081 23.297048 4.434553T22.460793 2.862136L22.312269 2.597376H23.442343Q23.616697 2.597376 23.703875 2.623206T23.845941 2.7459T23.926661 3.049405Q23.939576 3.101066 23.968635 3.123667T24.075185 3.146269Q24.184963 3.146269 24.184963 3.03649L24.159133 2.280955Q24.159133 2.138889 23.971863 2.138889H22.002306Q21.815037 2.138889 21.815037 2.261583Q21.815037 2.358446 21.957103 2.597376Q22.196033 2.997745 22.399446 3.491749T22.848247 4.663797Q23.048432 5.21269 23.138838 5.432247Q23.235701 5.638889 23.403598 5.638889Q23.487546 5.638889 23.552122 5.564627Z" fill="#010101" />
<path d="M22.95373 7.974424C22.951527 8.040523 22.948773 8.093954 22.945468 8.134715C22.942163 8.175476 22.933901 8.227254 22.920681 8.290048S22.891487 8.404621 22.872759 8.445382S22.825938 8.531862 22.788482 8.582538S22.706959 8.675078 22.656283 8.708127S22.54171 8.773125 22.464595 8.803971S22.299346 8.859054 22.200197 8.876681V8.94278H23.799803V8.876681C23.700654 8.859054 23.612521 8.834267 23.535405 8.802319S23.393843 8.737872 23.342065 8.704822S23.24622 8.629359 23.209866 8.577581S23.145419 8.480084 23.125589 8.440425S23.089785 8.348987 23.077667 8.285091S23.057837 8.169968 23.054532 8.13141C23.051227 8.092852 23.048473 8.040523 23.04627 7.974424C23.099149 8.071369 23.142114 8.139672 23.175163 8.179332C23.234653 8.254245 23.307913 8.313734 23.394944 8.3578C23.481975 8.401866 23.567354 8.4239 23.651079 8.4239C23.792092 8.4239 23.913274 8.371571 24.014626 8.266914S24.166655 8.036117 24.166655 7.888494C24.166655 7.745279 24.120936 7.622995 24.029499 7.521642S23.827344 7.369614 23.697349 7.369614C23.653283 7.369614 23.612521 7.375673 23.575065 7.387791S23.500152 7.415333 23.462696 7.434061L23.393292 7.468763C23.479221 7.345377 23.522186 7.228602 23.522186 7.118436C23.522186 6.979627 23.470958 6.860648 23.368504 6.761499S23.143215 6.612775 23.0 6.612775S22.73395 6.66235 22.631496 6.761499S22.477814 6.979627 22.477814 7.118436C22.477814 7.228602 22.520779 7.345377 22.606708 7.468763C22.591285 7.462153 22.569803 7.452238 22.542261 7.439018S22.494339 7.415883 22.481119 7.409273S22.450824 7.396054 22.429892 7.389444S22.38858 7.377876 22.36875 7.374571S22.326887 7.369614 22.302651 7.369614C22.172656 7.369614 22.061939 7.42029 21.970501 7.521642S21.833345 7.745279 21.833345 7.888494C21.833345 8.036117 21.884021 8.162256 21.985374 8.266914S22.207908 8.4239 22.348921 8.4239C22.591285 8.4239 22.792887 8.274074 22.95373 7.974424Z" fill="#010101" />
<path d="M1.447878 29.435373Q1.383303 29.509635 1.383303 29.638786Q1.383303 29.922919 1.702952 30.565447T2.539207 32.137864L2.687731 32.402624H1.557657Q1.383303 32.402624 1.296125 32.376794T1.154059 32.2541T1.073339 31.950595Q1.060424 31.898934 1.031365 31.876333T0.924815 31.853731Q0.815037 31.853731 0.815037 31.96351L0.840867 32.719045Q0.840867 32.861111 1.028137 32.861111H2.997694Q3.184963 32.861111 3.184963 32.738417Q3.184963 32.641554 3.042897 32.402624Q2.803967 32.002255 2.600554 31.508251T2.151753 30.336203Q1.951568 29.78731 1.861162 29.567753Q1.764299 29.361111 1.596402 29.361111Q1.512454 29.361111 1.447878 29.435373Z" fill="#010101" />
<path d="M2.04627 27.025576C2.048473 26.959477 2.051227 26.906046 2.054532 26.865285C2.057837 26.824524 2.066099 26.772746 2.079319 26.709952S2.108513 26.595379 2.127241 26.554618S2.174062 26.468138 2.211518 26.417462S2.293041 26.324922 2.343717 26.291873S2.45829 26.226875 2.535405 26.196029S2.700654 26.140946 2.799803 26.123319V26.05722H1.200197V26.123319C1.299346 26.140946 1.387479 26.165733 1.464595 26.197681S1.606157 26.262128 1.657935 26.295178S1.75378 26.370641 1.790134 26.422419S1.854581 26.519916 1.874411 26.559575S1.910215 26.651013 1.922333 26.714909S1.942163 26.830032 1.945468 26.86859C1.948773 26.907148 1.951527 26.959477 1.95373 27.025576C1.900851 26.928631 1.857886 26.860328 1.824837 26.820668C1.765347 26.745755 1.692087 26.686266 1.605056 26.6422C1.518025 26.598134 1.432646 26.5761 1.348921 26.5761C1.207908 26.5761 1.086726 26.628429 0.985374 26.733086S0.833345 26.963883 0.833345 27.111506C0.833345 27.254721 0.879064 27.377005 0.970501 27.478358S1.172656 27.630386 1.302651 27.630386C1.346717 27.630386 1.387479 27.624327 1.424935 27.612209S1.499848 27.584667 1.537304 27.565939L1.606708 27.531237C1.520779 27.654623 1.477814 27.771398 1.477814 27.881564C1.477814 28.020373 1.529042 28.139352 1.631496 28.238501S1.856785 28.387225 2.0 28.387225S2.26605 28.33765 2.368504 28.238501S2.522186 28.020373 2.522186 27.881564C2.522186 27.771398 2.479221 27.654623 2.393292 27.531237C2.408715 27.537847 2.430197 27.547762 2.457739 27.560982S2.505661 27.584117 2.518881 27.590727S2.549176 27.603946 2.570108 27.610556S2.61142 27.622124 2.63125 27.625429S2.673113 27.630386 2.697349 27.630386C2.827344 27.630386 2.938061 27.57971 3.029499 27.478358S3.166655 27.254721 3.166655 27.111506C3.166655 26.963883 3.115979 26.837744 3.014626 26.733086S2.792092 26.5761 2.651079 26.5761C2.408715 26.5761 2.207113 26.725926 2.04627 27.025576Z" fill="#010101" />
</svg>
