<svg width="500.000000" height="700.000000" id="card-realdiamond2">
<radialGradient id="card-realwhitegradient" cx="250.0" cy="350.0" r="500" gradientTransform="matrix(1 0 0 1 0 -.25)" gradientUnits="userSpaceOnUse">
<stop stop-color="#FDFAF4" offset=".15"/>
<stop stop-color="#FDF9F2" offset=".35"/>
<stop stop-color="#FCF7F1" offset=".5"/>
<stop stop-color="#FDFDF8" offset=".75"/>
<stop stop-color="#FFFDFA" offset="1"/>
</radialGradient>
<rect x="0" y="0" rx="25.0" ry="25.0" width="500" height="700.0" stroke="#010101" fill="url(#card-realwhitegradient)" />
<path d="M250.139082 66.666667C247.913769 71.117293 242.535925 79.114511 234.005563 90.658322C225.475202 102.202133 218.613769 110.848447 213.421419 116.597126C219.911919 124.014831 226.889193 132.823412 234.353268 143.022717C241.817344 153.222063 247.079277 161.103384 250.139082 166.666667C257.000459 154.427446 269.14701 137.737599 286.578581 116.597126C268.68331 94.993092 256.536857 78.34956 250.139082 66.666667Z" fill="#da0a0a" />
<path d="M249.860918 633.333333C252.086231 628.882707 257.464075 620.885489 265.994437 609.341678C274.524798 597.797867 281.386231 589.151553 286.578581 583.402874C280.088081 575.985169 273.110807 567.176588 265.646732 556.977283C258.182656 546.777937 252.920723 538.896616 249.860918 533.333333C242.999541 545.572554 230.85299 562.262401 213.421419 583.402874C231.31669 605.006908 243.463143 621.65044 249.860918 633.333333Z" fill="#da0a0a" />
<path d="M486.745283 108.023061Q486.613208 105.249476 485.226415 103.532495T480.669811 99.702306Q470.235849 92.702306 464.490566 88.145702T454.122642 76.589099T449.5 60.872117Q449.5 54.532495 452.867925 51.032495T462.311321 47.532495Q467.462264 47.532495 470.830189 50.107966T474.198113 57.174004Q474.198113 59.419287 473.141509 60.938155T470.962264 63.381551T469.839623 64.438155Q469.839623 65.362683 471.622642 66.683438T475.915094 68.004193Q480.009434 68.004193 482.45283 65.428721T484.896226 58.890985Q484.896226 53.607966 481.330189 49.909853T472.283019 44.494759T461.122642 42.777778Q451.216981 42.777778 444.018868 47.66457T436.820755 62.589099Q436.820755 69.853249 440.783019 75.796646T450.226415 85.900419T464.556604 95.740042Q471.556604 100.098532 474.990566 102.740042V103.400419H439.59434Q436.292453 103.400419 434.773585 104.126834T433.254717 108.023061Q433.254717 112.777778 437.877358 112.777778H482.122642Q486.745283 112.777778 486.745283 108.023061Z" fill="#da0a0a" />
<path d="M460.064904 132.222456C459.026435 134.299394 456.5168 138.031391 452.536004 143.418449C448.555209 148.805507 445.353239 152.840413 442.930166 155.523103C445.959036 158.984665 449.215065 163.095295 452.698265 167.854923C456.181465 172.61457 458.637009 176.292483 460.064904 178.888656C463.266848 173.177076 468.935182 165.388559 477.069834 155.523103C468.718791 145.441322 463.050503 137.674418 460.064904 132.222456Z" fill="#da0a0a" />
<path d="M13.254717 591.976939Q13.386792 594.750524 14.773585 596.467505T19.330189 600.297694Q29.764151 607.297694 35.509434 611.854298T45.877358 623.410901T50.5 639.127883Q50.5 645.467505 47.132075 648.967505T37.688679 652.467505Q32.537736 652.467505 29.169811 649.892034T25.801887 642.825996Q25.801887 640.580713 26.858491 639.061845T29.037736 636.618449T30.160377 635.561845Q30.160377 634.637317 28.377358 633.316562T24.084906 631.995807Q19.990566 631.995807 17.54717 634.571279T15.103774 641.109015Q15.103774 646.392034 18.669811 650.090147T27.716981 655.505241T38.877358 657.222222Q48.783019 657.222222 55.981132 652.33543T63.179245 637.410901Q63.179245 630.146751 59.216981 624.203354T49.773585 614.099581T35.443396 604.259958Q28.443396 599.901468 25.009434 597.259958V596.599581H60.40566Q63.707547 596.599581 65.226415 595.873166T66.745283 591.976939Q66.745283 587.222222 62.122642 587.222222H17.877358Q13.254717 587.222222 13.254717 591.976939Z" fill="#da0a0a" />
<path d="M39.935096 567.777544C40.973565 565.700606 43.4832 561.968609 47.463996 556.581551C51.444791 551.194493 54.646761 547.159587 57.069834 544.476897C54.040964 541.015335 50.784935 536.904705 47.301735 532.145077C43.818535 527.38543 41.362991 523.707517 39.935096 521.111344C36.733152 526.822924 31.064818 534.611441 22.930166 544.476897C31.281209 554.558678 36.949497 562.325582 39.935096 567.777544Z" fill="#da0a0a" />
</svg>
