<svg width="500.000000" height="700.000000" id="card-realclub2">
<radialGradient id="card-realwhitegradient" cx="250.0" cy="350.0" r="500" gradientTransform="matrix(1 0 0 1 0 -.25)" gradientUnits="userSpaceOnUse">
<stop stop-color="#FDFAF4" offset=".15"/>
<stop stop-color="#FDF9F2" offset=".35"/>
<stop stop-color="#FCF7F1" offset=".5"/>
<stop stop-color="#FDFDF8" offset=".75"/>
<stop stop-color="#FFFDFA" offset="1"/>
</radialGradient>
<rect x="0" y="0" rx="25.0" ry="25.0" width="500" height="700.0" stroke="#010101" fill="url(#card-realwhitegradient)" />
<path d="M248.016997 125.094429C247.922568 127.92729 247.804533 130.217191 247.66289 131.964117C247.521246 133.711043 247.167139 135.930123 246.600567 138.621341S245.349387 143.531638 244.546742 145.278565S242.540127 148.984896 240.934844 151.156752S237.440977 155.122757 235.269122 156.539188S230.358824 159.324839 227.053824 160.646837S219.971671 163.007559 215.72238 163.762984V166.595845H284.27762V163.762984C280.028329 163.007555 276.251176 161.945236 272.946176 160.576015S266.879136 157.813975 264.660057 156.397545S260.552408 153.163366 258.994334 150.944287S256.232295 146.765817 255.382436 145.0661S253.847975 141.147304 253.328612 138.408876S252.478754 133.474981 252.33711 131.822474C252.195467 130.169967 252.077432 127.92729 251.983003 125.094429C254.249292 129.249287 256.090652 132.176582 257.507082 133.876298C260.056657 137.086879 263.196416 139.636454 266.926346 141.525024C270.656275 143.413593 274.315397 144.357885 277.903683 144.357885C283.947125 144.357885 289.140694 142.115208 293.484419 137.629839S300.0 127.738437 300.0 121.411709C300.0 115.273848 298.040609 110.033055 294.121813 105.68933S285.457975 99.173749 279.886686 99.173749C277.998116 99.173749 276.251176 99.433427 274.645892 99.952786S271.435312 101.133144 269.830028 101.935788L266.855524 103.423041C270.538244 98.135038 272.379603 93.130307 272.379603 88.408876C272.379603 82.459868 270.184136 77.360718 265.793201 73.111426S256.137861 66.737488 250.0 66.737488S238.597734 68.862134 234.206799 73.111426S227.620397 82.459868 227.620397 88.408876C227.620397 93.130307 229.461756 98.135038 233.144476 103.423041C232.483475 103.139754 231.56279 102.714825 230.382436 102.148253S228.328612 101.156752 227.76204 100.873466S226.463644 100.306893 225.566572 100.023607S223.796034 99.527856 222.946176 99.386213S221.152025 99.173749 220.113314 99.173749C214.542025 99.173749 209.796983 101.345604 205.878187 105.68933S200.0 115.273848 200.0 121.411709C200.0 127.738437 202.171856 133.144471 206.515581 137.629839S216.052875 144.357885 222.096317 144.357885C232.48347 144.357885 241.123654 137.936737 248.016997 125.094429Z" fill="#010101" />
<path d="M251.983003 574.905571C252.077432 572.07271 252.195467 569.782809 252.33711 568.035883C252.478754 566.288957 252.832861 564.069877 253.399433 561.378659S254.650613 556.468362 255.453258 554.721435S257.459873 551.015104 259.065156 548.843248S262.559023 544.877243 264.730878 543.460812S269.641176 540.675161 272.946176 539.353163S280.028329 536.992441 284.27762 536.237016V533.404155H215.72238V536.237016C219.971671 536.992445 223.748824 538.054764 227.053824 539.423985S233.120864 542.186025 235.339943 543.602455S239.447592 546.836634 241.005666 549.055713S243.767705 553.234183 244.617564 554.9339S246.152025 558.852696 246.671388 561.591124S247.521246 566.525019 247.66289 568.177526C247.804533 569.830033 247.922568 572.07271 248.016997 574.905571C245.750708 570.750713 243.909348 567.823418 242.492918 566.123702C239.943343 562.913121 236.803584 560.363546 233.073654 558.474976C229.343725 556.586407 225.684603 555.642115 222.096317 555.642115C216.052875 555.642115 210.859306 557.884792 206.515581 562.370161S200.0 572.261563 200.0 578.588291C200.0 584.726152 201.959391 589.966945 205.878187 594.31067S214.542025 600.826251 220.113314 600.826251C222.001884 600.826251 223.748824 600.566573 225.354108 600.047214S228.564688 598.866856 230.169972 598.064212L233.144476 596.576959C229.461756 601.864962 227.620397 606.869693 227.620397 611.591124C227.620397 617.540132 229.815864 622.639282 234.206799 626.888574S243.862139 633.262512 250.0 633.262512S261.402266 631.137866 265.793201 626.888574S272.379603 617.540132 272.379603 611.591124C272.379603 606.869693 270.538244 601.864962 266.855524 596.576959C267.516525 596.860246 268.43721 597.285175 269.617564 597.851747S271.671388 598.843248 272.23796 599.126534S273.536356 599.693107 274.433428 599.976393S276.203966 600.472144 277.053824 600.613787S278.847975 600.826251 279.886686 600.826251C285.457975 600.826251 290.203017 598.654396 294.121813 594.31067S300.0 584.726152 300.0 578.588291C300.0 572.261563 297.828144 566.855529 293.484419 562.370161S283.947125 555.642115 277.903683 555.642115C267.51653 555.642115 258.876346 562.063263 251.983003 574.905571Z" fill="#010101" />
<path d="M486.745283 108.023061Q486.613208 105.249476 485.226415 103.532495T480.669811 99.702306Q470.235849 92.702306 464.490566 88.145702T454.122642 76.589099T449.5 60.872117Q449.5 54.532495 452.867925 51.032495T462.311321 47.532495Q467.462264 47.532495 470.830189 50.107966T474.198113 57.174004Q474.198113 59.419287 473.141509 60.938155T470.962264 63.381551T469.839623 64.438155Q469.839623 65.362683 471.622642 66.683438T475.915094 68.004193Q480.009434 68.004193 482.45283 65.428721T484.896226 58.890985Q484.896226 53.607966 481.330189 49.909853T472.283019 44.494759T461.122642 42.777778Q451.216981 42.777778 444.018868 47.66457T436.820755 62.589099Q436.820755 69.853249 440.783019 75.796646T450.226415 85.900419T464.556604 95.740042Q471.556604 100.098532 474.990566 102.740042V103.400419H439.59434Q436.292453 103.400419 434.773585 104.126834T433.254717 108.023061Q433.254717 112.777778 437.877358 112.777778H482.122642Q486.745283 112.777778 486.745283 108.023061Z" fill="#010101" />
<path d="M459.074608 159.488472C459.030542 160.810461 458.975459 161.87907 458.909359 162.694294C458.84326 163.509519 458.678011 164.545079 458.413614 165.800968S457.829735 168.092417 457.455172 168.907641S456.518761 170.637245 455.769636 171.650768S454.139181 173.501552 453.125659 174.162546S450.83421 175.462504 449.291892 176.07943S445.98692 177.181089 444.003937 177.533617V178.855606H475.996063V177.533617C474.01308 177.181087 472.250426 176.685343 470.708108 176.04638S467.876851 174.757441 466.841291 174.096447S464.924408 172.587178 464.197314 171.551618S462.908375 169.601685 462.511778 168.808492S461.795703 166.979739 461.553337 165.701819S461.15674 163.399357 461.090641 162.628195C461.024541 161.857033 460.969459 160.810461 460.925392 159.488472C461.982983 161.427386 462.842276 162.793444 463.50327 163.586637C464.69306 165.084893 466.158266 166.274683 467.898882 167.156006C469.639499 168.03733 471.347072 168.477995 473.021588 168.477995C475.841833 168.477995 478.265475 167.431423 480.292526 165.338272S483.3331 160.72233 483.3331 157.769887C483.3331 154.90558 482.418727 152.459901 480.589974 150.432849S476.546889 147.392276 473.94698 147.392276C473.065657 147.392276 472.250426 147.513458 471.501301 147.755822S470.003045 148.306651 469.253921 148.681214L467.865833 149.375259C469.584418 146.907549 470.44371 144.572031 470.44371 142.368719C470.44371 139.592542 469.419169 137.212963 467.370087 135.22998S462.864307 132.255505 460.0 132.255505S454.678996 133.246997 452.629913 135.22998S449.55629 139.592542 449.55629 142.368719C449.55629 144.572031 450.415582 146.907549 452.134167 149.375259C451.825703 149.24306 451.396055 149.044761 450.845228 148.780364S449.886787 148.317668 449.622389 148.185469S449.016477 147.921071 448.597848 147.788872S447.771605 147.557524 447.375008 147.491425S446.537747 147.392276 446.05302 147.392276C443.453111 147.392276 441.23878 148.405798 439.410026 150.432849S436.6669 154.90558 436.6669 157.769887C436.6669 160.72233 437.680422 163.245121 439.707474 165.338272S444.158167 168.477995 446.978412 168.477995C451.825701 168.477995 455.857747 165.481489 459.074608 159.488472Z" fill="#010101" />
<path d="M13.254717 591.976939Q13.386792 594.750524 14.773585 596.467505T19.330189 600.297694Q29.764151 607.297694 35.509434 611.854298T45.877358 623.410901T50.5 639.127883Q50.5 645.467505 47.132075 648.967505T37.688679 652.467505Q32.537736 652.467505 29.169811 649.892034T25.801887 642.825996Q25.801887 640.580713 26.858491 639.061845T29.037736 636.618449T30.160377 635.561845Q30.160377 634.637317 28.377358 633.316562T24.084906 631.995807Q19.990566 631.995807 17.54717 634.571279T15.103774 641.109015Q15.103774 646.392034 18.669811 650.090147T27.716981 655.505241T38.877358 657.222222Q48.783019 657.222222 55.981132 652.33543T63.179245 637.410901Q63.179245 630.146751 59.216981 624.203354T49.773585 614.099581T35.443396 604.259958Q28.443396 599.901468 25.009434 597.259958V596.599581H60.40566Q63.707547 596.599581 65.226415 595.873166T66.745283 591.976939Q66.745283 587.222222 62.122642 587.222222H17.877358Q13.254717 587.222222 13.254717 591.976939Z" fill="#010101" />
<path d="M40.925392 540.511528C40.969458 539.189539 41.024541 538.12093 41.090641 537.305706C41.15674 536.490481 41.321989 535.454921 41.586386 534.199032S42.170265 531.907583 42.544828 531.092359S43.481239 529.362755 44.230364 528.349232S45.860819 526.498448 46.874341 525.837454S49.16579 524.537496 50.708108 523.92057S54.01308 522.818911 55.996063 522.466383V521.144394H24.003937V522.466383C25.98692 522.818913 27.749574 523.314657 29.291892 523.95362S32.123149 525.242559 33.158709 525.903553S35.075592 527.412822 35.802686 528.448382S37.091625 530.398315 37.488222 531.191508S38.204297 533.020261 38.446663 534.298181S38.84326 536.600643 38.909359 537.371805C38.975459 538.142967 39.030541 539.189539 39.074608 540.511528C38.017017 538.572614 37.157724 537.206556 36.49673 536.413363C35.30694 534.915107 33.841734 533.725317 32.101118 532.843994C30.360501 531.96267 28.652928 531.522005 26.978412 531.522005C24.158167 531.522005 21.734525 532.568577 19.707474 534.661728S16.6669 539.27767 16.6669 542.230113C16.6669 545.09442 17.581273 547.540099 19.410026 549.567151S23.453111 552.607724 26.05302 552.607724C26.934343 552.607724 27.749574 552.486542 28.498699 552.244178S29.996955 551.693349 30.746079 551.318786L32.134167 550.624741C30.415582 553.092451 29.55629 555.427969 29.55629 557.631281C29.55629 560.407458 30.580831 562.787037 32.629913 564.77002S37.135693 567.744495 40.0 567.744495S45.321004 566.753003 47.370087 564.77002S50.44371 560.407458 50.44371 557.631281C50.44371 555.427969 49.584418 553.092451 47.865833 550.624741C48.174297 550.75694 48.603945 550.955239 49.154772 551.219636S50.113213 551.682332 50.377611 551.814531S50.983523 552.078929 51.402152 552.211128S52.228395 552.442476 52.624992 552.508575S53.462253 552.607724 53.94698 552.607724C56.546889 552.607724 58.76122 551.594202 60.589974 549.567151S63.3331 545.09442 63.3331 542.230113C63.3331 539.27767 62.319578 536.754879 60.292526 534.661728S55.841833 531.522005 53.021588 531.522005C48.174299 531.522005 44.142253 534.518511 40.925392 540.511528Z" fill="#010101" />
</svg>
