<svg width="25.000000" height="35.000000" id="card-lightheart2">
<rect x="0" y="0" rx="1.25" ry="1.25" width="25" height="35.0" stroke="#010101" fill="#fffdfa" />
<path d="M12.493036 4.336119C12.400186 3.992572 12.250464 3.739554 12.043872 3.577066S11.608635 3.333333 11.357939 3.333333C11.074744 3.333333 10.832173 3.430826 10.630223 3.625812S10.327298 4.055246 10.327298 4.329155C10.327298 4.579851 10.388811 4.835191 10.511838 5.095172S10.79039 5.605849 10.978412 5.847261S11.357939 6.331244 11.552925 6.574977S11.934772 7.0961 12.11351 7.407149S12.418756 8.026927 12.493036 8.333333C12.576602 8.012999 12.710075 7.691504 12.893454 7.368849S13.266017 6.760678 13.461003 6.512303C13.655989 6.263927 13.846332 6.020195 14.032033 5.781105S14.370938 5.301764 14.491643 5.060353S14.672702 4.589136 14.672702 4.370938C14.672702 4.078459 14.574048 3.832405 14.376741 3.632776C14.179434 3.433147 13.936861 3.333333 13.649025 3.333333C13.096565 3.333333 12.711233 3.667595 12.493036 4.336119Z" fill="#da0a0a" />
<path d="M12.506964 30.663881C12.599814 31.007428 12.749536 31.260446 12.956128 31.422934S13.391365 31.666667 13.642061 31.666667C13.925256 31.666667 14.167827 31.569174 14.369777 31.374188S14.672702 30.944754 14.672702 30.670845C14.672702 30.420149 14.611189 30.164809 14.488162 29.904828S14.20961 29.394151 14.021588 29.152739S13.642061 28.668756 13.447075 28.425023S13.065228 27.9039 12.88649 27.592851S12.581244 26.973073 12.506964 26.666667C12.423398 26.987001 12.289925 27.308496 12.106546 27.631151S11.733983 28.239322 11.538997 28.487697C11.344011 28.736073 11.153668 28.979805 10.967967 29.218895S10.629062 29.698236 10.508357 29.939647S10.327298 30.410864 10.327298 30.629062C10.327298 30.921541 10.425952 31.167595 10.623259 31.367224C10.820566 31.566853 11.063139 31.666667 11.350975 31.666667C11.903435 31.666667 12.288767 31.332405 12.506964 30.663881Z" fill="#da0a0a" />
<path d="M24.337264 5.401153Q24.33066 5.262474 24.261321 5.176625T24.033491 4.985115Q23.511792 4.635115 23.224528 4.407285T22.706132 3.829455T22.475 3.043606Q22.475 2.726625 22.643396 2.551625T23.115566 2.376625Q23.373113 2.376625 23.541509 2.505398T23.709906 2.8587Q23.709906 2.970964 23.657075 3.046908T23.548113 3.169078T23.491981 3.221908Q23.491981 3.268134 23.581132 3.334172T23.795755 3.40021Q24.000472 3.40021 24.122642 3.271436T24.244811 2.944549Q24.244811 2.680398 24.066509 2.495493T23.614151 2.224738T23.056132 2.138889Q22.560849 2.138889 22.200943 2.383229T21.841038 3.129455Q21.841038 3.492662 22.039151 3.789832T22.511321 4.295021T23.22783 4.787002Q23.57783 5.004927 23.749528 5.137002V5.170021H21.979717Q21.814623 5.170021 21.738679 5.206342T21.662736 5.401153Q21.662736 5.638889 21.893868 5.638889H24.106132Q24.337264 5.638889 24.337264 5.401153Z" fill="#da0a0a" />
<path d="M22.99675 7.079085C22.953421 6.918765 22.883551 6.800691 22.787142 6.724864S22.584034 6.611123 22.467043 6.611123C22.334887 6.611123 22.221688 6.656619 22.127446 6.747612S21.986083 6.948012 21.986083 7.075835C21.986083 7.192825 22.014789 7.311982 22.072201 7.433306S22.20219 7.67162 22.289933 7.784277S22.467043 8.010134 22.558036 8.123875S22.73623 8.367063 22.81964 8.512218S22.962086 8.801444 22.99675 8.944433C23.035747 8.794945 23.098034 8.644915 23.18361 8.494344S23.357471 8.210534 23.448463 8.094627C23.539456 7.97872 23.628282 7.864979 23.714942 7.753405S23.873096 7.529715 23.929424 7.417057S24.013917 7.197158 24.013917 7.095333C24.013917 6.958844 23.967879 6.844021 23.875804 6.750861C23.783728 6.657702 23.670529 6.611123 23.536206 6.611123C23.278394 6.611123 23.098574 6.76711 22.99675 7.079085Z" fill="#da0a0a" />
<path d="M0.662736 29.598847Q0.66934 29.737526 0.738679 29.823375T0.966509 30.014885Q1.488208 30.364885 1.775472 30.592715T2.293868 31.170545T2.525 31.956394Q2.525 32.273375 2.356604 32.448375T1.884434 32.623375Q1.626887 32.623375 1.458491 32.494602T1.290094 32.1413Q1.290094 32.029036 1.342925 31.953092T1.451887 31.830922T1.508019 31.778092Q1.508019 31.731866 1.418868 31.665828T1.204245 31.59979Q0.999528 31.59979 0.877358 31.728564T0.755189 32.055451Q0.755189 32.319602 0.933491 32.504507T1.385849 32.775262T1.943868 32.861111Q2.439151 32.861111 2.799057 32.616771T3.158962 31.870545Q3.158962 31.507338 2.960849 31.210168T2.488679 30.704979T1.77217 30.212998Q1.42217 29.995073 1.250472 29.862998V29.829979H3.020283Q3.185377 29.829979 3.261321 29.793658T3.337264 29.598847Q3.337264 29.361111 3.106132 29.361111H0.893868Q0.662736 29.361111 0.662736 29.598847Z" fill="#da0a0a" />
<path d="M2.00325 27.920915C2.046579 28.081235 2.116449 28.199309 2.212858 28.275136S2.415966 28.388877 2.532957 28.388877C2.665113 28.388877 2.778312 28.343381 2.872554 28.252388S3.013917 28.051988 3.013917 27.924165C3.013917 27.807175 2.985211 27.688018 2.927799 27.566694S2.79781 27.32838 2.710067 27.215723S2.532957 26.989866 2.441964 26.876125S2.26377 26.632937 2.18036 26.487782S2.037914 26.198556 2.00325 26.055567C1.964253 26.205055 1.901966 26.355085 1.81639 26.505656S1.642529 26.789466 1.551537 26.905373C1.460544 27.02128 1.371718 27.135021 1.285058 27.246595S1.126904 27.470285 1.070576 27.582943S0.986083 27.802842 0.986083 27.904667C0.986083 28.041156 1.032121 28.155979 1.124196 28.249139C1.216272 28.342298 1.329471 28.388877 1.463794 28.388877C1.721606 28.388877 1.901426 28.23289 2.00325 27.920915Z" fill="#da0a0a" />
</svg>
