<svg width="150.000000" height="210.000000" id="card-webheart13">
<radialGradient id="card-webwhitegradient" cx="75.0" cy="105.0" r="150" gradientTransform="matrix(1 0 0 1 0 -.25)" gradientUnits="userSpaceOnUse">
<stop stop-color="#FDFAF4" offset=".15"/>
<stop stop-color="#FDF9F2" offset=".35"/>
<stop stop-color="#FCF7F1" offset=".5"/>
<stop stop-color="#FDFDF8" offset=".75"/>
<stop stop-color="#FFFDFA" offset="1"/>
</radialGradient>
<rect x="0" y="0" rx="7.5" ry="7.5" width="150" height="210.0" stroke="#010101" fill="url(#card-webwhitegradient)" />
<rect x="30.0" y="21.0" width="90.0" height="168.0" stroke="#010101" fill="#fffdfa" />
<path d="M60.334262 58.806555C61.114206 58.806555 62.130919 59.071179 63.384401 59.600427S66.002783 60.937474 67.479109 62.023825S70.222838 64.68399 71.281337 66.745274S72.869081 71.146391 72.869081 73.764773C72.869081 74.767558 73.593315 75.268951 75.041783 75.268951C76.545961 75.268951 77.29805 74.767558 77.29805 73.764773C77.29805 71.034965 77.813371 68.611566 78.844011 66.494578S81.142061 62.803767 82.64624 61.773129S85.515318 59.990402 86.740947 59.516862C87.966577 59.043324 88.997214 58.806555 89.832869 58.806555C92.116989 58.806555 93.927577 59.419368 95.264624 60.644995S97.270195 63.569786 97.270195 65.742488C97.270195 66.522432 96.852368 67.859477 96.016713 69.75363S93.816159 73.569789 91.922006 75.519647S87.938716 78.444438 85.654596 78.444438C83.481894 78.444438 79.972145 78.026611 75.125348 77.190956C70.222838 78.026611 66.685237 78.444438 64.512535 78.444438C62.785513 78.444438 61.128134 77.873408 59.54039 76.731346S56.713095 74.252235 55.821727 72.720204C54.930359 71.188174 54.220053 69.767561 53.690808 68.458366S52.896936 66.243881 52.896936 65.742488C52.896936 63.569786 53.56546 61.870625 54.902507 60.644995S58.050142 58.806555 60.334262 58.806555ZM70.86351 74.099034C70.807799 72.093463 70.487465 70.282876 69.902507 68.667279S68.621173 65.770341 67.81337 64.823268S66.100279 63.096246 65.097493 62.483435S63.21727 61.452798 62.465181 61.229954S61.058499 60.895692 60.501393 60.895692C58.830084 60.895692 57.451253 61.327447 56.364903 62.190956S54.735376 64.23831 54.735376 65.742488C54.735376 66.188171 54.94429 66.940257 55.362117 67.998756S56.392755 70.21324 57.200557 71.466722S59.164345 73.820486 60.668524 74.767558S63.844011 76.188171 65.682451 76.188171C69.136487 76.188171 70.86351 75.491792 70.86351 74.099034ZM62.674095 86.968115C62.674095 85.51965 66.768802 84.795413 74.958217 84.795413C78.635097 84.795413 81.629524 84.990399 83.941504 85.380371S87.409471 86.271739 87.409471 86.88455C87.409471 87.720204 86.657382 88.138032 85.153203 88.138032C84.986072 88.138032 83.342616 87.998756 80.222841 87.720204S75.376045 87.302377 75.041783 87.302377C74.874652 87.302377 73.245125 87.441653 70.153203 87.720204S65.348189 88.138032 65.013928 88.138032C63.454036 88.138032 62.674095 87.748059 62.674095 86.968115ZM81.727019 59.057252C81.727019 56.661706 81.476323 54.906831 80.97493 53.792628S79.164343 51.397082 77.047354 49.948617V48.026611L80.473538 45.937474V42.929118H77.381616L76.37883 39.837196H73.537604L72.451253 42.929118H69.442897V45.937474L72.785515 48.026611V49.948617C70.835657 51.229951 69.582175 52.44165 69.02507 53.583714S68.189415 56.550288 68.189415 59.057252C65.571033 56.940263 62.869078 55.881764 60.083565 55.881764C57.186627 55.881764 54.721446 56.828837 52.688022 58.72299S49.637883 62.984828 49.637883 65.826054C49.637883 68.110174 50.724234 70.756416 52.896936 73.764773C54.233983 75.603213 55.139273 76.92633 55.612813 77.734132S56.587747 79.934686 57.116992 81.912405S57.938718 86.243878 57.994429 88.973686C58.105849 92.761984 63.788298 94.656137 75.041783 94.656137C86.183816 94.656137 91.83844 92.761984 92.005571 88.973686C92.061281 86.132461 92.40947 83.611566 93.050139 81.411012S94.261838 77.720201 94.763231 76.94026S96.044565 75.073968 97.103064 73.681207C99.275766 70.728564 100.362117 68.110174 100.362117 65.826054C100.362117 63.040541 99.345401 60.686778 97.311978 58.764773C95.278554 56.842767 92.841226 55.881764 90.0 55.881764C87.103061 55.881764 84.345401 56.940263 81.727019 59.057252ZM89.749304 60.895692C89.025069 60.895692 88.14763 61.104605 87.116992 61.522433C86.086354 61.94026 84.94429 62.608784 83.690808 63.528004S81.392758 65.839984 80.557103 67.706277S79.303621 71.731349 79.303621 74.1826C79.303621 75.519647 81.002783 76.188171 84.401114 76.188171C86.295267 76.188171 88.008359 75.714633 89.54039 74.767558S92.228415 72.692352 93.008357 71.383157S94.373256 68.917976 94.763231 67.91519S95.348189 66.188168 95.348189 65.742488C95.348189 64.23831 94.805014 63.054463 93.718663 62.190956S91.309195 60.895692 89.749304 60.895692Z" fill="#da0a0a" />
<path d="M89.665738 151.193445C88.885794 151.193445 87.869081 150.928821 86.615599 150.399573S83.997217 149.062526 82.520891 147.976175S79.777162 145.31601 78.718663 143.254726S77.130919 138.853609 77.130919 136.235227C77.130919 135.232442 76.406685 134.731049 74.958217 134.731049C73.454039 134.731049 72.70195 135.232442 72.70195 136.235227C72.70195 138.965035 72.186629 141.388434 71.155989 143.505422S68.857939 147.196233 67.35376 148.226871S64.484682 150.009598 63.259053 150.483138C62.033423 150.956676 61.002786 151.193445 60.167131 151.193445C57.883011 151.193445 56.072423 150.580632 54.735376 149.355005S52.729805 146.430214 52.729805 144.257512C52.729805 143.477568 53.147632 142.140523 53.983287 140.24637S56.183841 136.430211 58.077994 134.480353S62.061284 131.555562 64.345404 131.555562C66.518106 131.555562 70.027855 131.973389 74.874652 132.809044C79.777162 131.973389 83.314763 131.555562 85.487465 131.555562C87.214487 131.555562 88.871866 132.126592 90.45961 133.268654S93.286905 135.747765 94.178273 137.279796C95.069641 138.811826 95.779947 140.232439 96.309192 141.541634S97.103064 143.756119 97.103064 144.257512C97.103064 146.430214 96.43454 148.129375 95.097493 149.355005S91.949858 151.193445 89.665738 151.193445ZM79.13649 135.900966C79.192201 137.906537 79.512535 139.717124 80.097493 141.332721S81.378827 144.229659 82.18663 145.176732S83.899721 146.903754 84.902507 147.516565S86.78273 148.547202 87.534819 148.770046S88.941501 149.104308 89.498607 149.104308C91.169916 149.104308 92.548747 148.672553 93.635097 147.809044S95.264624 145.76169 95.264624 144.257512C95.264624 143.811829 95.05571 143.059743 94.637883 142.001244S93.607245 139.78676 92.799443 138.533278S90.835655 136.179514 89.331476 135.232442S86.155989 133.811829 84.317549 133.811829C80.863513 133.811829 79.13649 134.508208 79.13649 135.900966ZM87.325905 123.031885C87.325905 124.48035 83.231198 125.204587 75.041783 125.204587C71.364903 125.204587 68.370476 125.009601 66.058496 124.619629S62.590529 123.728261 62.590529 123.11545C62.590529 122.279796 63.342618 121.861968 64.846797 121.861968C65.013928 121.861968 66.657384 122.001244 69.777159 122.279796S74.623955 122.697623 74.958217 122.697623C75.125348 122.697623 76.754875 122.558347 79.846797 122.279796S84.651811 121.861968 84.986072 121.861968C86.545964 121.861968 87.325905 122.251941 87.325905 123.031885ZM68.272981 150.942748C68.272981 153.338294 68.523677 155.093169 69.02507 156.207372S70.835657 158.602918 72.952646 160.051383V161.973389L69.526462 164.062526V167.070882H72.618384L73.62117 170.162804H76.462396L77.548747 167.070882H80.557103V164.062526L77.214485 161.973389V160.051383C79.164343 158.770049 80.417825 157.55835 80.97493 156.416286S81.810585 153.449712 81.810585 150.942748C84.428967 153.059737 87.130922 154.118236 89.916435 154.118236C92.813373 154.118236 95.278554 153.171163 97.311978 151.27701S100.362117 147.015172 100.362117 144.173946C100.362117 141.889826 99.275766 139.243584 97.103064 136.235227C95.766017 134.396787 94.860727 133.07367 94.387187 132.265868S93.412253 130.065314 92.883008 128.087595S92.061282 123.756122 92.005571 121.026314C91.894151 117.238016 86.211702 115.343863 74.958217 115.343863C63.816184 115.343863 58.16156 117.238016 57.994429 121.026314C57.938719 123.867539 57.59053 126.388434 56.949861 128.588988S55.738162 132.279799 55.236769 133.05974S53.955435 134.926032 52.896936 136.318793C50.724234 139.271436 49.637883 141.889826 49.637883 144.173946C49.637883 146.959459 50.654599 149.313222 52.688022 151.235227C54.721446 153.157233 57.158774 154.118236 60.0 154.118236C62.896939 154.118236 65.654599 153.059737 68.272981 150.942748ZM60.250696 149.104308C60.974931 149.104308 61.85237 148.895395 62.883008 148.477567C63.913646 148.05974 65.05571 147.391216 66.309192 146.471996S68.607242 144.160016 69.442897 142.293723S70.696379 138.268651 70.696379 135.8174C70.696379 134.480353 68.997217 133.811829 65.598886 133.811829C63.704733 133.811829 61.991641 134.285367 60.45961 135.232442S57.771585 137.307648 56.991643 138.616843S55.626744 141.082024 55.236769 142.08481S54.651811 143.811832 54.651811 144.257512C54.651811 145.76169 55.194986 146.945537 56.281337 147.809044S58.690805 149.104308 60.250696 149.104308Z" fill="#da0a0a" />
<path d="M148.356164 33.305936Q148.5 33.098174 148.5 32.810502Q148.468037 32.33105 148.308219 32.23516T147.700913 32.139269Q146.773973 32.139269 146.326484 31.803653T145.767123 30.972603T145.623288 29.678082V16.988584Q145.655251 16.189498 145.767123 15.694064T146.326484 14.863014T147.700913 14.527397H147.892694Q148.212329 14.527397 148.340183 14.415525T148.5 13.856164Q148.5 13.568493 148.356164 13.360731T147.924658 13.152968Q145.847032 13.248858 144.152968 13.248858Q142.23516 13.248858 140.157534 13.152968Q139.869863 13.152968 139.726027 13.360731T139.582192 13.856164Q139.614155 14.335616 139.773973 14.431507T140.381279 14.527397Q141.308219 14.527397 141.755708 14.863014T142.315068 15.694064T142.458904 16.988584V22.773973Q141.947489 22.678082 141.308219 22.230594T139.742009 20.984018Q137.952055 19.321918 135.23516 16.093607Q134.659817 15.454338 134.659817 15.070776Q134.659817 14.591324 135.522831 14.559361Q135.746575 14.527397 135.826484 14.383562T135.97032 13.888128Q135.97032 13.600457 135.810502 13.376712T135.394977 13.152968Q134.276256 13.248858 131.878995 13.248858Q131.111872 13.248858 129.641553 13.184932L128.97032 13.152968Q128.682648 13.152968 128.522831 13.360731T128.363014 13.888128Q128.394977 14.335616 128.554795 14.447489T129.002283 14.559361Q130.280822 14.495434 131.415525 14.974886T133.796804 16.700913L138.974886 22.10274Q137.856164 23.477169 136.673516 24.723744T133.828767 27.63242Q132.997717 28.46347 131.847032 29.678082Q131.495434 30.02968 131.36758 30.189498Q130.344749 31.212329 129.753425 31.627854T128.299087 32.139269Q128.23516 32.139269 128.011416 32.155251T127.643836 32.33105T127.5 32.810502Q127.5 33.098174 127.643836 33.305936T128.075342 33.513699Q128.458904 33.481735 129.002283 33.481735Q130.152968 33.417808 130.792237 33.417808H132.8379Q137.057078 28.719178 140.381279 24.883562Q141.40411 23.700913 142.458904 23.605023V29.678082Q142.426941 30.477169 142.315068 30.972603T141.755708 31.803653T140.381279 32.139269H140.189498Q139.869863 32.139269 139.742009 32.251142T139.582192 32.810502Q139.582192 33.098174 139.726027 33.305936T140.157534 33.513699Q142.203196 33.417808 144.121005 33.417808Q145.847032 33.417808 147.924658 33.513699Q148.212329 33.513699 148.356164 33.305936Z" fill="#da0a0a" />
<path d="M137.980502 42.474508C137.720523 41.512587 137.301308 40.804143 136.722854 40.349181S135.504203 39.666737 134.80226 39.666737C134.009324 39.666737 133.33013 39.939714 132.764676 40.48567S131.916495 41.688073 131.916495 42.45501C131.916495 43.156952 132.088731 43.871895 132.433203 44.599835S133.21314 46.029718 133.739597 46.705663S134.80226 48.060803 135.348216 48.743248S136.417378 50.202378 136.917838 51.073308S137.772518 52.808667 137.980502 53.666597C138.214483 52.76967 138.588203 51.869492 139.10166 50.966067S140.144825 49.263206 140.690781 48.567762C141.236736 47.872318 141.769692 47.189873 142.289651 46.520429S143.238574 45.178289 143.576546 44.502343S144.083505 43.18295 144.083505 42.572C144.083505 41.753067 143.807276 41.064124 143.254822 40.505168C142.702368 39.946213 142.023172 39.666737 141.217238 39.666737C139.670365 39.666737 138.591445 40.60266 137.980502 42.474508Z" fill="#da0a0a" />
<path d="M1.643836 176.694064Q1.5 176.901826 1.5 177.189498Q1.531963 177.66895 1.691781 177.76484T2.299087 177.860731Q3.226027 177.860731 3.673516 178.196347T4.232877 179.027397T4.376712 180.321918V193.011416Q4.344749 193.810502 4.232877 194.305936T3.673516 195.136986T2.299087 195.472603H2.107306Q1.787671 195.472603 1.659817 195.584475T1.5 196.143836Q1.5 196.431507 1.643836 196.639269T2.075342 196.847032Q4.152968 196.751142 5.847032 196.751142Q7.76484 196.751142 9.842466 196.847032Q10.130137 196.847032 10.273973 196.639269T10.417808 196.143836Q10.385845 195.664384 10.226027 195.568493T9.618721 195.472603Q8.691781 195.472603 8.244292 195.136986T7.684932 194.305936T7.541096 193.011416V187.226027Q8.052511 187.321918 8.691781 187.769406T10.257991 189.015982Q12.047945 190.678082 14.76484 193.906393Q15.340183 194.545662 15.340183 194.929224Q15.340183 195.408676 14.477169 195.440639Q14.253425 195.472603 14.173516 195.616438T14.02968 196.111872Q14.02968 196.399543 14.189498 196.623288T14.605023 196.847032Q15.723744 196.751142 18.121005 196.751142Q18.888128 196.751142 20.358447 196.815068L21.02968 196.847032Q21.317352 196.847032 21.477169 196.639269T21.636986 196.111872Q21.605023 195.664384 21.445205 195.552511T20.997717 195.440639Q19.719178 195.504566 18.584475 195.025114T16.203196 193.299087L11.025114 187.89726Q12.143836 186.522831 13.326484 185.276256T16.171233 182.36758Q17.002283 181.53653 18.152968 180.321918Q18.504566 179.97032 18.63242 179.810502Q19.655251 178.787671 20.246575 178.372146T21.700913 177.860731Q21.76484 177.860731 21.988584 177.844749T22.356164 177.66895T22.5 177.189498Q22.5 176.901826 22.356164 176.694064T21.924658 176.486301Q21.541096 176.518265 20.997717 176.518265Q19.847032 176.582192 19.207763 176.582192H17.1621Q12.942922 181.280822 9.618721 185.116438Q8.59589 186.299087 7.541096 186.394977V180.321918Q7.573059 179.522831 7.684932 179.027397T8.244292 178.196347T9.618721 177.860731H9.810502Q10.130137 177.860731 10.257991 177.748858T10.417808 177.189498Q10.417808 176.901826 10.273973 176.694064T9.842466 176.486301Q7.796804 176.582192 5.878995 176.582192Q4.152968 176.582192 2.075342 176.486301Q1.787671 176.486301 1.643836 176.694064Z" fill="#da0a0a" />
<path d="M12.019498 167.525492C12.279477 168.487413 12.698692 169.195857 13.277146 169.650819S14.495797 170.333263 15.19774 170.333263C15.990676 170.333263 16.66987 170.060286 17.235324 169.51433S18.083505 168.311927 18.083505 167.54499C18.083505 166.843048 17.911269 166.128105 17.566797 165.400165S16.78686 163.970282 16.260403 163.294337S15.19774 161.939197 14.651784 161.256752S13.582622 159.797622 13.082162 158.926692S12.227482 157.191333 12.019498 156.333403C11.785517 157.23033 11.411797 158.130508 10.89834 159.033933S9.855175 160.736794 9.309219 161.432238C8.763264 162.127682 8.230308 162.810127 7.710349 163.479571S6.761426 164.821711 6.423454 165.497657S5.916495 166.81705 5.916495 167.428C5.916495 168.246933 6.192724 168.935876 6.745178 169.494832C7.297632 170.053787 7.976828 170.333263 8.782762 170.333263C10.329635 170.333263 11.408555 169.39734 12.019498 167.525492Z" fill="#da0a0a" />
</svg>
