<svg width="25.000000" height="35.000000" id="card-lightdiamond3">
<rect x="0" y="0" rx="1.25" ry="1.25" width="25" height="35.0" stroke="#010101" fill="#fffdfa" />
<path d="M12.506954 3.333333C12.395688 3.555865 12.126796 3.955726 11.700278 4.532916C11.27376 5.110107 10.930688 5.542422 10.671071 5.829856C10.995596 6.200742 11.34446 6.641171 11.717663 7.151136C12.090867 7.661103 12.353964 8.055169 12.506954 8.333333C12.850023 7.721372 13.45735 6.88688 14.328929 5.829856C13.434166 4.749655 12.826843 3.917478 12.506954 3.333333Z" fill="#da0a0a" />
<path d="M12.493046 31.666667C12.604312 31.444135 12.873204 31.044274 13.299722 30.467084C13.72624 29.889893 14.069312 29.457578 14.328929 29.170144C14.004404 28.799258 13.65554 28.358829 13.282337 27.848864C12.909133 27.338897 12.646036 26.944831 12.493046 26.666667C12.149977 27.278628 11.54265 28.11312 10.671071 29.170144C11.565834 30.250345 12.173157 31.082522 12.493046 31.666667Z" fill="#da0a0a" />
<path d="M12.506954 15.0C12.395688 15.222531 12.126796 15.622392 11.700278 16.199583C11.27376 16.776773 10.930688 17.209089 10.671071 17.496523C10.995596 17.867408 11.34446 18.307837 11.717663 18.817803C12.090867 19.32777 12.353964 19.721836 12.506954 20.0C12.850023 19.388039 13.45735 18.553547 14.328929 17.496523C13.434166 16.416321 12.826843 15.584145 12.506954 15.0Z" fill="#da0a0a" />
<path d="M23.887681 5.458182Q24.20788 5.277476 24.20788 4.928744Q24.20788 4.744867 24.09375 4.611715T23.776721 4.478563Q23.65625 4.478563 23.570652 4.541969T23.485054 4.649758Q23.485054 4.656099 23.54212 4.697313T23.646739 4.808273T23.694293 4.985809Q23.694293 5.182367 23.526268 5.293327T23.085598 5.404287Q22.407156 5.404287 22.407156 4.649758Q22.407156 4.33907 22.572011 4.152023T23.066576 3.945954H23.301178Q23.345562 3.945954 23.370924 3.907911T23.396286 3.819143Q23.396286 3.762077 23.370924 3.720864T23.301178 3.673309H23.066576Q22.819293 3.647947 22.67029 3.451389T22.521286 2.975845Q22.521286 2.671498 22.692482 2.509813T23.091938 2.348128Q23.307518 2.348128 23.462862 2.471769T23.618207 2.81099Q23.618207 2.950483 23.564312 2.998037T23.459692 3.055103T23.408967 3.070954Q23.408967 3.115338 23.494565 3.178744T23.700634 3.24215Q23.903533 3.24215 24.017663 3.115338T24.131793 2.791969Q24.131793 2.48128 23.840127 2.310085T23.085598 2.138889Q22.591033 2.138889 22.267663 2.354469T21.944293 2.975845Q21.944293 3.24215 22.131341 3.470411T22.66712 3.79378V3.819143Q22.312047 3.857186 22.052083 4.044233T21.79212 4.637077Q21.79212 5.150664 22.166214 5.394777T23.10462 5.638889Q23.567482 5.638889 23.887681 5.458182Z" fill="#da0a0a" />
<path d="M23.003245 6.611123C22.951322 6.71497 22.82584 6.90157 22.6268 7.170922C22.42776 7.440275 22.267662 7.642021 22.146508 7.776155C22.297952 7.949233 22.460753 8.154765 22.634913 8.392746C22.809073 8.630728 22.93185 8.814624 23.003245 8.944433C23.163342 8.658854 23.446759 8.269428 23.853492 7.776155C23.43594 7.272066 23.152525 6.883721 23.003245 6.611123Z" fill="#da0a0a" />
<path d="M1.112319 29.541818Q0.79212 29.722524 0.79212 30.071256Q0.79212 30.255133 0.90625 30.388285T1.223279 30.521437Q1.34375 30.521437 1.429348 30.458031T1.514946 30.350242Q1.514946 30.343901 1.45788 30.302687T1.353261 30.191727T1.305707 30.014191Q1.305707 29.817633 1.473732 29.706673T1.914402 29.595713Q2.592844 29.595713 2.592844 30.350242Q2.592844 30.66093 2.427989 30.847977T1.933424 31.054046H1.698822Q1.654438 31.054046 1.629076 31.092089T1.603714 31.180857Q1.603714 31.237923 1.629076 31.279136T1.698822 31.326691H1.933424Q2.180707 31.352053 2.32971 31.548611T2.478714 32.024155Q2.478714 32.328502 2.307518 32.490187T1.908062 32.651872Q1.692482 32.651872 1.537138 32.528231T1.381793 32.18901Q1.381793 32.049517 1.435688 32.001963T1.540308 31.944897T1.591033 31.929046Q1.591033 31.884662 1.505435 31.821256T1.299366 31.75785Q1.096467 31.75785 0.982337 31.884662T0.868207 32.208031Q0.868207 32.51872 1.159873 32.689915T1.914402 32.861111Q2.408967 32.861111 2.732337 32.645531T3.055707 32.024155Q3.055707 31.75785 2.868659 31.529589T2.33288 31.20622V31.180857Q2.687953 31.142814 2.947917 30.955767T3.20788 30.362923Q3.20788 29.849336 2.833786 29.605223T1.89538 29.361111Q1.432518 29.361111 1.112319 29.541818Z" fill="#da0a0a" />
<path d="M1.996755 28.388877C2.048678 28.28503 2.17416 28.09843 2.3732 27.829078C2.57224 27.559725 2.732338 27.357979 2.853492 27.223845C2.702048 27.050767 2.539247 26.845235 2.365087 26.607254C2.190927 26.369272 2.06815 26.185376 1.996755 26.055567C1.836658 26.341146 1.553241 26.730572 1.146508 27.223845C1.56406 27.727934 1.847475 28.116279 1.996755 28.388877Z" fill="#da0a0a" />
</svg>
