<svg width="25.000000" height="35.000000" id="card-lightdiamond5">
<rect x="0" y="0" rx="1.25" ry="1.25" width="25" height="35.0" stroke="#010101" fill="#fffdfa" />
<path d="M7.506954 3.333333C7.395688 3.555865 7.126796 3.955726 6.700278 4.532916C6.27376 5.110107 5.930688 5.542422 5.671071 5.829856C5.995596 6.200742 6.34446 6.641171 6.717663 7.151136C7.090867 7.661103 7.353964 8.055169 7.506954 8.333333C7.850023 7.721372 8.45735 6.88688 9.328929 5.829856C8.434166 4.749655 7.826843 3.917478 7.506954 3.333333Z" fill="#da0a0a" />
<path d="M7.493046 31.666667C7.604312 31.444135 7.873204 31.044274 8.299722 30.467084C8.72624 29.889893 9.069312 29.457578 9.328929 29.170144C9.004404 28.799258 8.65554 28.358829 8.282337 27.848864C7.909133 27.338897 7.646036 26.944831 7.493046 26.666667C7.149977 27.278628 6.54265 28.11312 5.671071 29.170144C6.565834 30.250345 7.173157 31.082522 7.493046 31.666667Z" fill="#da0a0a" />
<path d="M17.506954 3.333333C17.395688 3.555865 17.126796 3.955726 16.700278 4.532916C16.27376 5.110107 15.930688 5.542422 15.671071 5.829856C15.995596 6.200742 16.34446 6.641171 16.717663 7.151136C17.090867 7.661103 17.353964 8.055169 17.506954 8.333333C17.850023 7.721372 18.45735 6.88688 19.328929 5.829856C18.434166 4.749655 17.826843 3.917478 17.506954 3.333333Z" fill="#da0a0a" />
<path d="M17.493046 31.666667C17.604312 31.444135 17.873204 31.044274 18.299722 30.467084C18.72624 29.889893 19.069312 29.457578 19.328929 29.170144C19.004404 28.799258 18.65554 28.358829 18.282337 27.848864C17.909133 27.338897 17.646036 26.944831 17.493046 26.666667C17.149977 27.278628 16.54265 28.11312 15.671071 29.170144C16.565834 30.250345 17.173157 31.082522 17.493046 31.666667Z" fill="#da0a0a" />
<path d="M12.506954 15.0C12.395688 15.222531 12.126796 15.622392 11.700278 16.199583C11.27376 16.776773 10.930688 17.209089 10.671071 17.496523C10.995596 17.867408 11.34446 18.307837 11.717663 18.817803C12.090867 19.32777 12.353964 19.721836 12.506954 20.0C12.850023 19.388039 13.45735 18.553547 14.328929 17.496523C13.434166 16.416321 12.826843 15.584145 12.506954 15.0Z" fill="#da0a0a" />
<path d="M23.913889 5.463889Q24.231481 5.288889 24.231481 4.919444Q24.231481 4.718519 24.111574 4.566204T23.790741 4.413889Q23.667593 4.413889 23.580093 4.478704T23.492593 4.588889Q23.492593 4.59537 23.550926 4.647222T23.65787 4.773611T23.706481 4.94537Q23.706481 5.165741 23.547685 5.282407T23.103704 5.399074Q22.747222 5.399074 22.568981 5.146296T22.390741 4.485185Q22.390741 4.109259 22.572222 3.859722T23.136111 3.610185Q23.311111 3.610185 23.4375 3.665278T23.706481 3.824074Q23.790741 3.882407 23.845833 3.911574T23.952778 3.940741Q24.056481 3.940741 24.056481 3.759259L24.05 3.681481L23.849074 2.138889H22.066667Q21.975926 2.138889 21.920833 2.197222T21.865741 2.359259Q21.865741 2.599074 22.112037 2.599074H23.550926L23.687037 3.5Q23.401852 3.325 22.987037 3.325Q22.708333 3.325 22.426389 3.448148T21.956481 3.824074T21.768519 4.452778T21.953241 5.097685T22.445833 5.502778T23.116667 5.638889Q23.596296 5.638889 23.913889 5.463889Z" fill="#da0a0a" />
<path d="M23.003245 6.611123C22.951322 6.71497 22.82584 6.90157 22.6268 7.170922C22.42776 7.440275 22.267662 7.642021 22.146508 7.776155C22.297952 7.949233 22.460753 8.154765 22.634913 8.392746C22.809073 8.630728 22.93185 8.814624 23.003245 8.944433C23.163342 8.658854 23.446759 8.269428 23.853492 7.776155C23.43594 7.272066 23.152525 6.883721 23.003245 6.611123Z" fill="#da0a0a" />
<path d="M1.086111 29.536111Q0.768519 29.711111 0.768519 30.080556Q0.768519 30.281481 0.888426 30.433796T1.209259 30.586111Q1.332407 30.586111 1.419907 30.521296T1.507407 30.411111Q1.507407 30.40463 1.449074 30.352778T1.34213 30.226389T1.293519 30.05463Q1.293519 29.834259 1.452315 29.717593T1.896296 29.600926Q2.252778 29.600926 2.431019 29.853704T2.609259 30.514815Q2.609259 30.890741 2.427778 31.140278T1.863889 31.389815Q1.688889 31.389815 1.5625 31.334722T1.293519 31.175926Q1.209259 31.117593 1.154167 31.088426T1.047222 31.059259Q0.943519 31.059259 0.943519 31.240741L0.95 31.318519L1.150926 32.861111H2.933333Q3.024074 32.861111 3.079167 32.802778T3.134259 32.640741Q3.134259 32.400926 2.887963 32.400926H1.449074L1.312963 31.5Q1.598148 31.675 2.012963 31.675Q2.291667 31.675 2.573611 31.551852T3.043519 31.175926T3.231481 30.547222T3.046759 29.902315T2.554167 29.497222T1.883333 29.361111Q1.403704 29.361111 1.086111 29.536111Z" fill="#da0a0a" />
<path d="M1.996755 28.388877C2.048678 28.28503 2.17416 28.09843 2.3732 27.829078C2.57224 27.559725 2.732338 27.357979 2.853492 27.223845C2.702048 27.050767 2.539247 26.845235 2.365087 26.607254C2.190927 26.369272 2.06815 26.185376 1.996755 26.055567C1.836658 26.341146 1.553241 26.730572 1.146508 27.223845C1.56406 27.727934 1.847475 28.116279 1.996755 28.388877Z" fill="#da0a0a" />
</svg>
