<svg width="150.000000" height="210.000000" id="card-webdiamond2">
<radialGradient id="card-webwhitegradient" cx="75.0" cy="105.0" r="150" gradientTransform="matrix(1 0 0 1 0 -.25)" gradientUnits="userSpaceOnUse">
<stop stop-color="#FDFAF4" offset=".15"/>
<stop stop-color="#FDF9F2" offset=".35"/>
<stop stop-color="#FCF7F1" offset=".5"/>
<stop stop-color="#FDFDF8" offset=".75"/>
<stop stop-color="#FFFDFA" offset="1"/>
</radialGradient>
<rect x="0" y="0" rx="7.5" ry="7.5" width="150" height="210.0" stroke="#010101" fill="url(#card-webwhitegradient)" />
<path d="M75.041725 20.0C74.374131 21.335188 72.760777 23.734353 70.201669 27.197497C67.642561 30.66064 65.584131 33.254534 64.026426 34.979138C65.973576 37.204449 68.066758 39.847024 70.305981 42.906815C72.545203 45.966619 74.123783 48.331015 75.041725 50.0C77.100138 46.328234 80.744103 41.32128 85.973574 34.979138C80.604993 28.497928 76.961057 23.504868 75.041725 20.0Z" fill="#da0a0a" />
<path d="M74.958275 190.0C75.625869 188.664812 77.239223 186.265647 79.798331 182.802503C82.357439 179.33936 84.415869 176.745466 85.973574 175.020862C84.026424 172.795551 81.933242 170.152976 79.694019 167.093185C77.454797 164.033381 75.876217 161.668985 74.958275 160.0C72.899862 163.671766 69.255897 168.67872 64.026426 175.020862C69.395007 181.502072 73.038943 186.495132 74.958275 190.0Z" fill="#da0a0a" />
<path d="M146.023585 32.406918Q145.983962 31.574843 145.567925 31.059748T144.200943 29.910692Q141.070755 27.810692 139.34717 26.443711T136.236792 22.97673T134.85 18.261635Q134.85 16.359748 135.860377 15.309748T138.693396 14.259748Q140.238679 14.259748 141.249057 15.03239T142.259434 17.152201Q142.259434 17.825786 141.942453 18.281447T141.288679 19.014465T140.951887 19.331447Q140.951887 19.608805 141.486792 20.005031T142.774528 20.401258Q144.00283 20.401258 144.735849 19.628616T145.468868 17.667296Q145.468868 16.08239 144.399057 14.972956T141.684906 13.348428T138.336792 12.833333Q135.365094 12.833333 133.20566 14.299371T131.046226 18.77673Q131.046226 20.955975 132.234906 22.738994T135.067925 25.770126T139.366981 28.722013Q141.466981 30.02956 142.49717 30.822013V31.020126H131.878302Q130.887736 31.020126 130.432075 31.23805T129.976415 32.406918Q129.976415 33.833333 131.363208 33.833333H144.636792Q146.023585 33.833333 146.023585 32.406918Z" fill="#da0a0a" />
<path d="M138.019471 39.666737C137.707931 40.289818 136.95504 41.409417 135.760801 43.025535C134.566563 44.641652 133.605972 45.852124 132.87905 46.656931C133.787711 47.695399 134.764519 48.928588 135.809479 50.356477C136.85444 51.784371 137.591103 52.887745 138.019471 53.666597C138.980054 51.953123 140.680555 49.616568 143.12095 46.656931C140.615637 43.632397 138.915151 41.302325 138.019471 39.666737Z" fill="#da0a0a" />
<path d="M3.976415 177.593082Q4.016038 178.425157 4.432075 178.940252T5.799057 180.089308Q8.929245 182.189308 10.65283 183.556289T13.763208 187.02327T15.15 191.738365Q15.15 193.640252 14.139623 194.690252T11.306604 195.740252Q9.761321 195.740252 8.750943 194.96761T7.740566 192.847799Q7.740566 192.174214 8.057547 191.718553T8.711321 190.985535T9.048113 190.668553Q9.048113 190.391195 8.513208 189.994969T7.225472 189.598742Q5.99717 189.598742 5.264151 190.371384T4.531132 192.332704Q4.531132 193.91761 5.600943 195.027044T8.315094 196.651572T11.663208 197.166667Q14.634906 197.166667 16.79434 195.700629T18.953774 191.22327Q18.953774 189.044025 17.765094 187.261006T14.932075 184.229874T10.633019 181.277987Q8.533019 179.97044 7.50283 179.177987V178.979874H18.121698Q19.112264 178.979874 19.567925 178.76195T20.023585 177.593082Q20.023585 176.166667 18.636792 176.166667H5.363208Q3.976415 176.166667 3.976415 177.593082Z" fill="#da0a0a" />
<path d="M11.980529 170.333263C12.292069 169.710182 13.04496 168.590583 14.239199 166.974465C15.433437 165.358348 16.394028 164.147876 17.12095 163.343069C16.212289 162.304601 15.235481 161.071412 14.190521 159.643523C13.14556 158.215629 12.408897 157.112255 11.980529 156.333403C11.019946 158.046877 9.319445 160.383432 6.87905 163.343069C9.384363 166.367603 11.084849 168.697675 11.980529 170.333263Z" fill="#da0a0a" />
</svg>
