<svg width="150.000000" height="210.000000" id="card-webclub12">
<radialGradient id="card-webwhitegradient" cx="75.0" cy="105.0" r="150" gradientTransform="matrix(1 0 0 1 0 -.25)" gradientUnits="userSpaceOnUse">
<stop stop-color="#FDFAF4" offset=".15"/>
<stop stop-color="#FDF9F2" offset=".35"/>
<stop stop-color="#FCF7F1" offset=".5"/>
<stop stop-color="#FDFDF8" offset=".75"/>
<stop stop-color="#FFFDFA" offset="1"/>
</radialGradient>
<rect x="0" y="0" rx="7.5" ry="7.5" width="150" height="210.0" stroke="#010101" fill="url(#card-webwhitegradient)" />
<rect x="30.0" y="21.0" width="90.0" height="168.0" stroke="#010101" fill="#fffdfa" />
<path d="M75.042493 75.575279C71.926343 75.575279 69.022666 75.674429 66.331445 75.872729C63.640224 76.071029 62.067986 76.170179 61.614731 76.170179C60.934844 76.170179 60.509915 76.127686 60.339943 76.042701S60.084986 75.74525 60.084986 75.405307C60.084986 74.272165 61.827195 73.40814 65.311615 72.813239S72.011329 71.920888 74.957507 71.920888C77.960337 71.920888 81.189799 72.218338 84.645892 72.813239C88.101986 73.40814 89.830028 74.272165 89.830028 75.405307C89.830028 75.688593 89.745042 75.886894 89.575071 76.000208S88.98017 76.170179 88.300283 76.170179C88.243626 76.170179 86.543907 76.071029 83.201133 75.872729S77.138813 75.575279 75.042493 75.575279ZM61.189802 79.399641C65.665725 78.833069 70.254986 78.549783 74.957507 78.549783C79.886686 78.549783 84.475921 78.833069 88.725212 79.399641C88.045326 79.966214 87.705382 81.071032 87.705382 82.714089C87.705382 83.790579 87.875354 84.442131 88.215297 84.668763C84.759204 84.045534 80.339941 83.733919 74.957507 83.733919C69.518414 83.733919 65.09915 84.045534 61.699717 84.668763C62.03966 84.442134 62.209632 83.790579 62.209632 82.714089C62.209632 81.071032 61.869688 79.966216 61.189802 79.399641ZM61.104816 89.088026C61.104816 87.501621 65.722377 86.708423 74.957507 86.708423S88.810198 87.501624 88.810198 89.088026C88.810198 90.50446 84.192637 91.212672 74.957507 91.212672S61.104816 90.504457 61.104816 89.088026ZM74.957507 42.260831C76.373941 42.260831 77.082153 42.940718 77.082153 44.300491C77.082153 45.773576 76.373938 46.510123 74.957507 46.510123C73.597734 46.510123 72.917847 45.773579 72.917847 44.300491C72.917847 42.940718 73.597734 42.260831 74.957507 42.260831ZM77.932011 52.714089C77.932011 50.78774 78.229462 49.003038 78.824363 47.359981S79.716714 44.78208 79.716714 44.555449C79.716714 43.252335 79.249292 42.133352 78.314448 41.198508S76.26062 39.796242 74.957507 39.796242S72.549578 40.263664 71.643059 41.198508S70.283286 43.252335 70.283286 44.555449C70.283286 44.782078 70.594901 45.702757 71.21813 47.317488S72.152975 50.731089 72.152975 52.714089C72.152975 55.490296 71.529745 59.597941 70.283286 65.037035C67.223796 58.578111 65.694051 53.705619 65.694051 50.419471C65.694051 50.079528 65.779037 49.442134 65.949008 48.50729S66.203966 46.991712 66.203966 46.76508C66.203966 45.461967 65.750708 44.342984 64.844193 43.40814C63.937674 42.473296 62.832858 42.005873 61.529745 42.005873C60.169972 42.005873 59.022663 42.473296 58.087819 43.40814S56.685552 45.461967 56.685552 46.76508C56.685552 47.78491 56.883852 48.592276 57.280453 49.187177S58.130312 50.235332 58.640227 50.54695S59.603397 51.609273 60.0 52.799075S60.594901 55.631933 60.594901 57.728253C60.594901 59.201338 60.453258 61.580941 60.169972 64.867063C56.487255 61.071026 54.645892 57.983211 54.645892 55.603607L54.730878 54.838735C54.787535 54.32882 54.858357 53.804737 54.943343 53.266497S55.070822 52.402471 55.070822 52.28916C55.070822 51.042698 54.603399 49.937882 53.668555 48.974712S51.643062 47.529953 50.396601 47.529953C49.093487 47.529953 47.960337 47.997375 46.997167 48.932219S45.552408 50.986046 45.552408 52.28916C45.552408 54.612103 46.855521 56.36848 49.461756 57.558281C49.575071 59.824573 50.594898 64.923723 52.521246 72.855732C52.521246 73.365647 53.583569 74.923718 55.708215 77.529953S58.895184 81.835905 58.895184 82.629103C58.895184 83.139018 58.498583 84.215508 57.705382 85.858565S56.515581 88.861395 56.515581 89.937885V91.297658C56.515581 92.600771 58.569408 93.493123 62.677054 93.974712C66.7847 94.456299 70.906513 94.697092 75.042493 94.697092C79.631728 94.697092 83.85272 94.427969 87.705382 93.889726C91.558071 93.351483 93.484419 92.48746 93.484419 91.297658V89.937885C93.484419 88.748083 93.101983 87.33165 92.33711 85.688593S91.189802 83.025706 91.189802 82.629103C91.189802 81.439301 92.110479 79.82457 93.951841 77.78491S96.968839 74.102194 97.478754 72.855732C99.405102 65.037035 100.424932 59.937885 100.538244 57.558281C103.144479 56.36848 104.447592 54.612103 104.447592 52.28916C104.447592 50.986046 103.966005 49.867063 103.002833 48.932219C102.039663 47.997375 100.934847 47.529953 99.688385 47.529953C98.385272 47.529953 97.266289 47.997375 96.331445 48.932219S94.929178 50.986046 94.929178 52.28916C94.929178 52.345817 95.0 52.88406 95.141643 53.90389S95.354108 55.490296 95.354108 55.603607C95.354108 58.096522 93.541079 61.184347 89.915014 64.867063C89.631728 62.374148 89.490085 59.994545 89.490085 57.728253C89.490085 55.688593 89.688385 54.059695 90.084986 52.841568S90.934844 50.858568 91.444759 50.54695S92.407929 49.767913 92.804533 49.144684S93.399433 47.72825 93.399433 46.76508C93.399433 45.461967 92.917847 44.342984 91.954674 43.40814S89.858354 42.005873 88.555241 42.005873C87.252127 42.005873 86.133144 42.473296 85.1983 43.40814S83.796034 45.461967 83.796034 46.76508L84.050992 48.379811C84.220963 49.456301 84.305949 50.136188 84.305949 50.419471C84.305949 53.648933 82.776204 58.521451 79.716714 65.037035C78.526912 59.881225 77.932011 55.773579 77.932011 52.714089ZM50.396601 50.2495C50.906516 50.2495 51.373938 50.4478 51.798867 50.8444C52.223796 51.241001 52.436261 51.722585 52.436261 52.28916C52.436261 52.912389 52.237961 53.436468 51.84136 53.861398S50.963176 54.498791 50.396601 54.498791C48.980167 54.498791 48.271955 53.762247 48.271955 52.28916C48.271955 50.929386 48.98017 50.2495 50.396601 50.2495ZM61.529745 44.810406C62.096318 44.810406 62.577901 45.022871 62.974504 45.4478S63.569405 46.368477 63.569405 46.935052S63.371105 47.997375 62.974504 48.422304S62.09632 49.059698 61.529745 49.059698C60.05666 49.059698 59.320113 48.351483 59.320113 46.935052S60.056658 44.810406 61.529745 44.810406ZM88.555241 44.810406C89.971674 44.810406 90.679887 45.518621 90.679887 46.935052S89.971672 49.059698 88.555241 49.059698C87.195467 49.059698 86.515581 48.351483 86.515581 46.935052S87.195467 44.810406 88.555241 44.810406ZM99.688385 50.2495C101.104819 50.2495 101.813031 50.929386 101.813031 52.28916C101.813031 53.762245 101.104816 54.498791 99.688385 54.498791C98.328612 54.498791 97.648725 53.762247 97.648725 52.28916C97.648725 51.722587 97.86119 51.241004 98.286119 50.8444C98.711048 50.4478 99.17847 50.2495 99.688385 50.2495ZM74.957507 55.688593C75.467422 58.804743 76.033997 61.255165 76.657224 63.039868S77.847025 66.085191 78.356941 66.821737S79.178471 68.153185 79.291785 68.60644C79.575071 68.266497 80.056657 67.699922 80.736544 66.906723S81.84136 65.575276 82.011331 65.291992S82.507082 64.512955 82.988669 63.80474S83.852694 62.402474 84.135977 61.722587S84.787536 60.136182 85.240793 59.003041S86.175637 56.566777 86.685552 55.093692C86.572238 55.886893 86.515581 56.708423 86.515581 57.558281C86.515581 60.221168 86.997167 64.328822 87.96034 69.881228C91.01983 68.068199 93.994334 65.178681 96.883853 61.212672C95.524079 67.954879 94.475924 71.722616 93.739377 72.515788C93.626063 72.629103 93.512748 72.714088 93.399433 72.770746C88.753538 70.107859 82.606232 68.776412 74.957507 68.776412C67.252122 68.776412 61.104816 70.107859 56.515581 72.770746C55.495751 72.430803 54.362609 68.578114 53.116147 61.212672C56.062326 65.291992 59.008496 68.181511 61.954674 69.881228C62.917844 64.952049 63.399433 61.071001 63.399433 58.238168C63.399433 57.501624 63.342776 56.453466 63.229462 55.093692C64.07932 57.699927 64.943346 59.895392 65.82153 61.680094C66.699714 63.464797 67.407935 64.668766 67.946176 65.291992S69.008499 66.51012 69.518414 67.076695S70.396598 68.153185 70.623229 68.60644C70.906515 68.096525 71.246459 67.515791 71.643059 66.86423S72.294618 65.745247 72.407932 65.461964S72.719547 64.62627 73.002833 63.80474S73.569405 61.963378 73.852691 60.74525S74.50425 57.841565 74.957507 55.688593Z" fill="#010101" />
<path d="M74.957507 134.424721C78.073657 134.424721 80.977334 134.325571 83.668555 134.127271C86.359776 133.928971 87.932014 133.829821 88.385269 133.829821C89.065156 133.829821 89.490085 133.872314 89.660057 133.957299S89.915014 134.25475 89.915014 134.594693C89.915014 135.727835 88.172805 136.59186 84.688385 137.186761S77.988671 138.079112 75.042493 138.079112C72.039663 138.079112 68.810201 137.781662 65.354108 137.186761C61.898014 136.59186 60.169972 135.727835 60.169972 134.594693C60.169972 134.311407 60.254958 134.113106 60.424929 133.999792S61.01983 133.829821 61.699717 133.829821C61.756374 133.829821 63.456093 133.928971 66.798867 134.127271S72.861187 134.424721 74.957507 134.424721ZM88.810198 130.600359C84.334275 131.166931 79.745014 131.450217 75.042493 131.450217C70.113314 131.450217 65.524079 131.166931 61.274788 130.600359C61.954674 130.033786 62.294618 128.928968 62.294618 127.285911C62.294618 126.209421 62.124646 125.557869 61.784703 125.331237C65.240796 125.954466 69.660059 126.266081 75.042493 126.266081C80.481586 126.266081 84.90085 125.954466 88.300283 125.331237C87.96034 125.557866 87.790368 126.209421 87.790368 127.285911C87.790368 128.928968 88.130312 130.033784 88.810198 130.600359ZM88.895184 120.911974C88.895184 122.498379 84.277623 123.291577 75.042493 123.291577S61.189802 122.498376 61.189802 120.911974C61.189802 119.49554 65.807363 118.787328 75.042493 118.787328S88.895184 119.495543 88.895184 120.911974ZM75.042493 167.739169C73.626059 167.739169 72.917847 167.059282 72.917847 165.699509C72.917847 164.226424 73.626062 163.489877 75.042493 163.489877C76.402266 163.489877 77.082153 164.226421 77.082153 165.699509C77.082153 167.059282 76.402266 167.739169 75.042493 167.739169ZM72.067989 157.285911C72.067989 159.21226 71.770538 160.996962 71.175637 162.640019S70.283286 165.21792 70.283286 165.444551C70.283286 166.747665 70.750708 167.866648 71.685552 168.801492S73.73938 170.203758 75.042493 170.203758S77.450422 169.736336 78.356941 168.801492S79.716714 166.747665 79.716714 165.444551C79.716714 165.217922 79.405099 164.297243 78.78187 162.682512S77.847025 159.268911 77.847025 157.285911C77.847025 154.509704 78.470255 150.402059 79.716714 144.962965C82.776204 151.421889 84.305949 156.294381 84.305949 159.580529C84.305949 159.920472 84.220963 160.557866 84.050992 161.49271S83.796034 163.008288 83.796034 163.23492C83.796034 164.538033 84.249292 165.657016 85.155807 166.59186C86.062326 167.526704 87.167142 167.994127 88.470255 167.994127C89.830028 167.994127 90.977337 167.526704 91.912181 166.59186S93.314448 164.538033 93.314448 163.23492C93.314448 162.21509 93.116148 161.407724 92.719547 160.812823S91.869688 159.764668 91.359773 159.45305S90.396603 158.390727 90.0 157.200925S89.405099 154.368067 89.405099 152.271747C89.405099 150.798662 89.546742 148.419059 89.830028 145.132937C93.512745 148.928974 95.354108 152.016789 95.354108 154.396393L95.269122 155.161265C95.212465 155.67118 95.141643 156.195263 95.056657 156.733503S94.929178 157.597529 94.929178 157.71084C94.929178 158.957302 95.396601 160.062118 96.331445 161.025288S98.356938 162.470047 99.603399 162.470047C100.906513 162.470047 102.039663 162.002625 103.002833 161.067781S104.447592 159.013954 104.447592 157.71084C104.447592 155.387897 103.144479 153.63152 100.538244 152.441719C100.424929 150.175427 99.405102 145.076277 97.478754 137.144268C97.478754 136.634353 96.416431 135.076282 94.291785 132.470047S91.104816 128.164095 91.104816 127.370897C91.104816 126.860982 91.501417 125.784492 92.294618 124.141435S93.484419 121.138605 93.484419 120.062115V118.702342C93.484419 117.399229 91.430592 116.506877 87.322946 116.025288C83.2153 115.543701 79.093487 115.302908 74.957507 115.302908C70.368272 115.302908 66.14728 115.572031 62.294618 116.110274C58.441929 116.648517 56.515581 117.51254 56.515581 118.702342V120.062115C56.515581 121.251917 56.898017 122.66835 57.66289 124.311407S58.810198 126.974294 58.810198 127.370897C58.810198 128.560699 57.889521 130.17543 56.048159 132.21509S53.031161 135.897806 52.521246 137.144268C50.594898 144.962965 49.575068 150.062115 49.461756 152.441719C46.855521 153.63152 45.552408 155.387897 45.552408 157.71084C45.552408 159.013954 46.033995 160.132937 46.997167 161.067781C47.960337 162.002625 49.065153 162.470047 50.311615 162.470047C51.614728 162.470047 52.733711 162.002625 53.668555 161.067781S55.070822 159.013954 55.070822 157.71084C55.070822 157.654183 55.0 157.11594 54.858357 156.09611S54.645892 154.509704 54.645892 154.396393C54.645892 151.903478 56.458921 148.815653 60.084986 145.132937C60.368272 147.625852 60.509915 150.005455 60.509915 152.271747C60.509915 154.311407 60.311615 155.940305 59.915014 157.158432S59.065156 159.141432 58.555241 159.45305S57.592071 160.232087 57.195467 160.855316S56.600567 162.27175 56.600567 163.23492C56.600567 164.538033 57.082153 165.657016 58.045326 166.59186S60.141646 167.994127 61.444759 167.994127C62.747873 167.994127 63.866856 167.526704 64.8017 166.59186S66.203966 164.538033 66.203966 163.23492L65.949008 161.620189C65.779037 160.543699 65.694051 159.863812 65.694051 159.580529C65.694051 156.351067 67.223796 151.478549 70.283286 144.962965C71.473088 150.118775 72.067989 154.226421 72.067989 157.285911ZM99.603399 159.7505C99.093484 159.7505 98.626062 159.5522 98.201133 159.1556C97.776204 158.758999 97.563739 158.277415 97.563739 157.71084C97.563739 157.087611 97.762039 156.563532 98.15864 156.138602S99.036824 155.501209 99.603399 155.501209C101.019833 155.501209 101.728045 156.237753 101.728045 157.71084C101.728045 159.070614 101.01983 159.7505 99.603399 159.7505ZM88.470255 165.189594C87.903682 165.189594 87.422099 164.977129 87.025496 164.5522S86.430595 163.631523 86.430595 163.064948S86.628895 162.002625 87.025496 161.577696S87.90368 160.940302 88.470255 160.940302C89.94334 160.940302 90.679887 161.648517 90.679887 163.064948S89.943342 165.189594 88.470255 165.189594ZM61.444759 165.189594C60.028326 165.189594 59.320113 164.481379 59.320113 163.064948S60.028328 160.940302 61.444759 160.940302C62.804533 160.940302 63.484419 161.648517 63.484419 163.064948S62.804533 165.189594 61.444759 165.189594ZM50.311615 159.7505C48.895181 159.7505 48.186969 159.070614 48.186969 157.71084C48.186969 156.237755 48.895184 155.501209 50.311615 155.501209C51.671388 155.501209 52.351275 156.237753 52.351275 157.71084C52.351275 158.277413 52.13881 158.758996 51.713881 159.1556C51.288952 159.5522 50.82153 159.7505 50.311615 159.7505ZM75.042493 154.311407C74.532578 151.195257 73.966003 148.744835 73.342776 146.960132S72.152975 143.914809 71.643059 143.178263S70.821529 141.846815 70.708215 141.39356C70.424929 141.733503 69.943343 142.300078 69.263456 143.093277S68.15864 144.424724 67.988669 144.708008S67.492918 145.487045 67.011331 146.19526S66.147306 147.597526 65.864023 148.277413S65.212464 149.863818 64.759207 150.996959S63.824363 153.433223 63.314448 154.906308C63.427762 154.113107 63.484419 153.291577 63.484419 152.441719C63.484419 149.778832 63.002833 145.671178 62.03966 140.118772C58.98017 141.931801 56.005666 144.821319 53.116147 148.787328C54.475921 142.045121 55.524076 138.277384 56.260623 137.484212C56.373937 137.370897 56.487252 137.285912 56.600567 137.229254C61.246462 139.892141 67.393768 141.223588 75.042493 141.223588C82.747878 141.223588 88.895184 139.892141 93.484419 137.229254C94.504249 137.569197 95.637391 141.421886 96.883853 148.787328C93.937674 144.708008 90.991504 141.818489 88.045326 140.118772C87.082156 145.047951 86.600567 148.928999 86.600567 151.761832C86.600567 152.498376 86.657224 153.546534 86.770538 154.906308C85.92068 152.300073 85.056654 150.104608 84.17847 148.319906C83.300286 146.535203 82.592065 145.331234 82.053824 144.708008S80.991501 143.48988 80.481586 142.923305S79.603402 141.846815 79.376771 141.39356C79.093485 141.903475 78.753541 142.484209 78.356941 143.13577S77.705382 144.254753 77.592068 144.538036S77.280453 145.37373 76.997167 146.19526S76.430595 148.036622 76.147309 149.25475S75.49575 152.158435 75.042493 154.311407Z" fill="#010101" />
<path d="M133.484136 33.561888Q134.273796 33.290443 134.86604 32.883275T136.396005 31.735801Q137.13631 31.11888 137.716216 30.699373T138.962397 29.934391Q139.752056 29.539561 140.837838 29.292793Q143.428907 28.700548 144.613396 27.787505Q146.06933 26.65237 146.871328 24.949667T147.673325 21.32217Q147.673325 18.731101 146.501175 16.806306T143.502938 13.857423T139.80141 12.833333Q137.432432 12.833333 135.606345 13.95613T132.805523 16.917352T131.830787 20.877987Q131.830787 23.641794 133.225029 25.702311T136.914219 28.675872Q137.309048 28.848609 137.925969 28.873286V28.92264Q137.259694 28.996671 136.716804 29.268116Q135.754407 29.736976 134.125734 30.921465Q132.916569 31.785155 132.176263 32.192323T130.720329 32.599491Q130.276146 32.550137 130.066392 32.315707T129.856639 31.735801Q129.856639 31.143557 130.313161 30.637681T131.485311 30.107129Q131.559342 29.712299 131.189189 29.342146T130.078731 28.971994Q129.757932 28.971994 129.350764 29.194085T128.635135 29.86036T128.326675 30.946142Q128.326675 31.686447 128.83255 32.340384T130.115746 33.401488T131.682726 33.833333Q132.694477 33.833333 133.484136 33.561888ZM137.012926 27.35566Q135.877791 26.331571 135.322562 24.628868T134.767333 20.877987Q134.767333 18.977869 135.3349 17.386212T137.049941 14.844497T139.826087 13.894438Q142.293772 13.894438 143.527615 15.979632T144.761457 21.248139Q144.761457 23.172934 144.206228 24.801606T142.540541 27.405014T139.826087 28.379749Q138.148061 28.379749 137.012926 27.35566Z" fill="#010101" />
<path d="M137.722382 47.846542C137.709162 48.243138 137.692638 48.563721 137.672808 48.808288C137.652978 49.052856 137.603403 49.363524 137.524084 49.74029S137.348921 50.427725 137.236552 50.672292S136.955628 51.191174 136.730891 51.49523S136.241754 52.050466 135.937698 52.248764S135.250263 52.638751 134.787568 52.823829S133.796076 53.154327 133.201181 53.260085V53.656682H142.798819V53.260085C142.203924 53.154326 141.675128 53.005603 141.212432 52.813914S140.363055 52.427232 140.052387 52.228934S139.477322 51.776154 139.259194 51.465486S138.872513 50.880506 138.753534 50.642548S138.538711 50.093922 138.466001 49.710546S138.347022 49.019807 138.327192 48.788458C138.307362 48.55711 138.290838 48.243138 138.277618 47.846542C138.594895 48.428216 138.852683 48.838033 139.050981 49.075991C139.407918 49.525468 139.84748 49.882405 140.369665 50.146802C140.89185 50.411199 141.404121 50.543398 141.906477 50.543398C142.75255 50.543398 143.479642 50.229427 144.087758 49.601482S144.99993 48.216699 144.99993 47.330966C144.99993 46.471674 144.725618 45.73797 144.176992 45.129855S142.964067 44.217683 142.184094 44.217683C141.919697 44.217683 141.675128 44.254037 141.45039 44.326747S141.000914 44.491995 140.776176 44.604364L140.35975 44.812578C140.875325 44.072265 141.133113 43.371609 141.133113 42.710616C141.133113 41.877763 140.825751 41.163889 140.211026 40.568994S138.859292 39.676652 138.0 39.676652S136.403699 39.974099 135.788974 40.568994S134.866887 41.877763 134.866887 42.710616C134.866887 43.371609 135.124675 44.072265 135.64025 44.812578C135.547711 44.772918 135.418816 44.713428 135.253569 44.634109S134.966036 44.4953 134.886717 44.455641S134.704943 44.376321 134.579354 44.336662S134.331481 44.267257 134.212502 44.247427S133.961324 44.217683 133.815906 44.217683C133.035933 44.217683 132.371634 44.521739 131.823008 45.129855S131.00007 46.471674 131.00007 47.330966C131.00007 48.216699 131.304127 48.973536 131.912242 49.601482S133.24745 50.543398 134.093523 50.543398C135.54771 50.543398 136.757324 49.644447 137.722382 47.846542Z" fill="#010101" />
<path d="M16.515864 176.438112Q15.726204 176.709557 15.13396 177.116725T13.603995 178.264199Q12.86369 178.88112 12.283784 179.300627T11.037603 180.065609Q10.247944 180.460439 9.162162 180.707207Q6.571093 181.299452 5.386604 182.212495Q3.93067 183.34763 3.128672 185.050333T2.326675 188.67783Q2.326675 191.268899 3.498825 193.193694T6.497062 196.142577T10.19859 197.166667Q12.567568 197.166667 14.393655 196.04387T17.194477 193.082648T18.169213 189.122013Q18.169213 186.358206 16.774971 184.297689T13.085781 181.324128Q12.690952 181.151391 12.074031 181.126714V181.07736Q12.740306 181.003329 13.283196 180.731884Q14.245593 180.263024 15.874266 179.078535Q17.083431 178.214845 17.823737 177.807677T19.279671 177.400509Q19.723854 177.449863 19.933608 177.684293T20.143361 178.264199Q20.143361 178.856443 19.686839 179.362319T18.514689 179.892871Q18.440658 180.287701 18.810811 180.657854T19.921269 181.028006Q20.242068 181.028006 20.649236 180.805915T21.364865 180.13964T21.673325 179.053858Q21.673325 178.313553 21.16745 177.659616T19.884254 176.598512T18.317274 176.166667Q17.305523 176.166667 16.515864 176.438112ZM12.987074 182.64434Q14.122209 183.668429 14.677438 185.371132T15.232667 189.122013Q15.232667 191.022131 14.6651 192.613788T12.950059 195.155503T10.173913 196.105562Q7.706228 196.105562 6.472385 194.020368T5.238543 188.751861Q5.238543 186.827066 5.793772 185.198394T7.459459 182.594986T10.173913 181.620251Q11.851939 181.620251 12.987074 182.64434Z" fill="#010101" />
<path d="M12.277618 162.153458C12.290838 161.756862 12.307362 161.436279 12.327192 161.191712C12.347022 160.947144 12.396597 160.636476 12.475916 160.25971S12.651079 159.572275 12.763448 159.327708S13.044372 158.808826 13.269109 158.50477S13.758246 157.949534 14.062302 157.751236S14.749737 157.361249 15.212432 157.176171S16.203924 156.845673 16.798819 156.739915V156.343318H7.201181V156.739915C7.796076 156.845674 8.324872 156.994397 8.787568 157.186086S9.636945 157.572768 9.947613 157.771066S10.522678 158.223846 10.740806 158.534514S11.127487 159.119494 11.246466 159.357452S11.461289 159.906078 11.533999 160.289454S11.652978 160.980193 11.672808 161.211542C11.692638 161.44289 11.709162 161.756862 11.722382 162.153458C11.405105 161.571784 11.147317 161.161967 10.949019 160.924009C10.592082 160.474532 10.15252 160.117595 9.630335 159.853198C9.10815 159.588801 8.595879 159.456602 8.093523 159.456602C7.24745 159.456602 6.520358 159.770573 5.912242 160.398518S5.00007 161.783301 5.00007 162.669034C5.00007 163.528326 5.274382 164.26203 5.823008 164.870145S7.035933 165.782317 7.815906 165.782317C8.080303 165.782317 8.324872 165.745963 8.54961 165.673253S8.999086 165.508005 9.223824 165.395636L9.64025 165.187422C9.124675 165.927735 8.866887 166.628391 8.866887 167.289384C8.866887 168.122237 9.174249 168.836111 9.788974 169.431006S11.140708 170.323348 12.0 170.323348S13.596301 170.025901 14.211026 169.431006S15.133113 168.122237 15.133113 167.289384C15.133113 166.628391 14.875325 165.927735 14.35975 165.187422C14.452289 165.227082 14.581184 165.286572 14.746431 165.365891S15.033964 165.5047 15.113283 165.544359S15.295057 165.623679 15.420646 165.663338S15.668519 165.732743 15.787498 165.752573S16.038676 165.782317 16.184094 165.782317C16.964067 165.782317 17.628366 165.478261 18.176992 164.870145S18.99993 163.528326 18.99993 162.669034C18.99993 161.783301 18.695873 161.026464 18.087758 160.398518S16.75255 159.456602 15.906477 159.456602C14.45229 159.456602 13.242676 160.355553 12.277618 162.153458Z" fill="#010101" />
</svg>
