<svg width="500.000000" height="700.000000" id="card-webheart3">
<radialGradient id="card-webwhitegradient" cx="250.0" cy="350.0" r="500" gradientTransform="matrix(1 0 0 1 0 -.25)" gradientUnits="userSpaceOnUse">
<stop stop-color="#FDFAF4" offset=".15"/>
<stop stop-color="#FDF9F2" offset=".35"/>
<stop stop-color="#FCF7F1" offset=".5"/>
<stop stop-color="#FDFDF8" offset=".75"/>
<stop stop-color="#FFFDFA" offset="1"/>
</radialGradient>
<rect x="0" y="0" rx="25.0" ry="25.0" width="500" height="700.0" fill="url(#card-webwhitegradient)" />
<path d="M249.860724 86.722377C248.003719 79.851444 245.00929 74.791082 240.877437 71.541318S232.172702 66.666667 227.158774 66.666667C221.494889 66.666667 216.643454 68.616527 212.604457 72.516249S206.545961 81.104926 206.545961 86.583101C206.545961 91.597029 207.77623 96.703812 210.236769 101.903435S215.807799 112.116987 219.568245 116.945218S227.158774 126.624884 231.058496 131.499536S238.695446 141.922001 242.270195 148.14299S248.375111 160.538533 249.860724 166.666667C251.532033 160.259981 254.20149 153.830079 257.869081 147.376973S265.320334 135.213561 269.220056 130.246054C273.119777 125.278547 276.926643 120.403895 280.640669 115.622098S287.41876 106.035288 289.832869 101.207057S293.454039 91.782725 293.454039 87.418756C293.454039 81.569174 291.480961 76.648101 287.534819 72.655525C283.588677 68.662948 278.737228 66.666667 272.980501 66.666667C261.931295 66.666667 254.224652 73.351903 249.860724 86.722377Z" fill="#da0a0a" />
<path d="M250.139276 613.277623C251.996281 620.148556 254.99071 625.208918 259.122563 628.458682S267.827298 633.333333 272.841226 633.333333C278.505111 633.333333 283.356546 631.383473 287.395543 627.483751S293.454039 618.895074 293.454039 613.416899C293.454039 608.402971 292.22377 603.296188 289.763231 598.096565S284.192201 587.883013 280.431755 583.054782S272.841226 573.375116 268.941504 568.500464S261.304554 558.077999 257.729805 551.85701S251.624889 539.461467 250.139276 533.333333C248.467967 539.740019 245.79851 546.169921 242.130919 552.623027S234.679666 564.786439 230.779944 569.753946C226.880223 574.721453 223.073357 579.596105 219.359331 584.377902S212.58124 593.964712 210.167131 598.792943S206.545961 608.217275 206.545961 612.581244C206.545961 618.430826 208.519039 623.351899 212.465181 627.344475C216.411323 631.337052 221.262772 633.333333 227.019499 633.333333C238.068705 633.333333 245.775348 626.648097 250.139276 613.277623Z" fill="#da0a0a" />
<path d="M249.860724 320.05571C248.003719 313.184777 245.00929 308.124415 240.877437 304.874652S232.172702 300.0 227.158774 300.0C221.494889 300.0 216.643454 301.949861 212.604457 305.849582S206.545961 314.438259 206.545961 319.916435C206.545961 324.930362 207.77623 330.037145 210.236769 335.236769S215.807799 345.45032 219.568245 350.278552S227.158774 359.958217 231.058496 364.832869S238.695446 375.255334 242.270195 381.476323S248.375111 393.871866 249.860724 400.0C251.532033 393.593315 254.20149 387.163412 257.869081 380.710306S265.320334 368.546894 269.220056 363.579387C273.119777 358.61188 276.926643 353.737228 280.640669 348.955432S287.41876 339.368621 289.832869 334.54039S293.454039 325.116058 293.454039 320.752089C293.454039 314.902507 291.480961 309.981435 287.534819 305.988858C283.588677 301.996281 278.737228 300.0 272.980501 300.0C261.931295 300.0 254.224652 306.685237 249.860724 320.05571Z" fill="#da0a0a" />
<path d="M477.753623 109.163647Q484.157609 105.549517 484.157609 98.574879Q484.157609 94.897343 481.875 92.2343T475.53442 89.571256Q473.125 89.571256 471.413043 90.839372T469.701087 92.995169Q469.701087 93.121981 470.842391 93.946256T472.934783 96.165459T473.88587 99.716184Q473.88587 103.647343 470.525362 105.866546T461.711957 108.085749Q448.143116 108.085749 448.143116 92.995169Q448.143116 86.781401 451.440217 83.040459T461.331522 78.919082H466.023551Q466.911232 78.919082 467.418478 78.158213T467.925725 76.38285Q467.925725 75.241546 467.418478 74.417271T466.023551 73.466184H461.331522Q456.38587 72.958937 453.405797 69.027778T450.425725 59.516908Q450.425725 53.429952 453.849638 50.196256T461.838768 46.96256Q466.150362 46.96256 469.257246 49.435386T472.36413 56.219807Q472.36413 59.009662 471.286232 59.960749T469.193841 61.102053T468.179348 61.419082Q468.179348 62.306763 469.891304 63.574879T474.012681 64.842995Q478.070652 64.842995 480.353261 62.306763T482.63587 55.839372Q482.63587 49.625604 476.802536 46.201691T461.711957 42.777778Q451.820652 42.777778 445.353261 47.089372T438.88587 59.516908Q438.88587 64.842995 442.626812 69.408213T453.342391 75.875604V76.38285Q446.240942 77.14372 441.041667 80.884662T435.842391 92.741546Q435.842391 103.013285 443.324275 107.895531T462.092391 112.777778Q471.349638 112.777778 477.753623 109.163647Z" fill="#da0a0a" />
<path d="M459.935005 141.581693C459.068411 138.37529 457.671025 136.013811 455.742847 134.49727S451.680677 132.222456 449.340868 132.222456C446.697748 132.222456 444.433768 133.132381 442.548921 134.952233S439.721651 138.960242 439.721651 141.516699C439.721651 143.856508 440.295771 146.23965 441.444011 148.666117S444.043799 153.432393 445.798656 155.685545S449.340868 160.202677 451.16072 162.477492S454.724594 167.34126 456.392794 170.244359S459.241726 176.028888 459.935005 178.888656C460.714942 175.898899 461.960676 172.898308 463.672201 169.886889S467.149418 164.210686 468.96927 161.89254C470.789121 159.574393 472.565641 157.299578 474.298836 155.068095S477.461914 150.594295 478.588486 148.341143S480.278349 143.943166 480.278349 141.906667C480.278349 139.176889 479.357588 136.880412 477.516074 135.017228C475.674559 133.154044 473.410572 132.222456 470.724127 132.222456C465.567882 132.222456 461.971484 135.342202 459.935005 141.581693Z" fill="#da0a0a" />
<path d="M22.246377 590.836353Q15.842391 594.450483 15.842391 601.425121Q15.842391 605.102657 18.125 607.7657T24.46558 610.428744Q26.875 610.428744 28.586957 609.160628T30.298913 607.004831Q30.298913 606.878019 29.157609 606.053744T27.065217 603.834541T26.11413 600.283816Q26.11413 596.352657 29.474638 594.133454T38.288043 591.914251Q51.856884 591.914251 51.856884 607.004831Q51.856884 613.218599 48.559783 616.959541T38.668478 621.080918H33.976449Q33.088768 621.080918 32.581522 621.841787T32.074275 623.61715Q32.074275 624.758454 32.581522 625.582729T33.976449 626.533816H38.668478Q43.61413 627.041063 46.594203 630.972222T49.574275 640.483092Q49.574275 646.570048 46.150362 649.803744T38.161232 653.03744Q33.849638 653.03744 30.742754 650.564614T27.63587 643.780193Q27.63587 640.990338 28.713768 640.039251T30.806159 638.897947T31.820652 638.580918Q31.820652 637.693237 30.108696 636.425121T25.987319 635.157005Q21.929348 635.157005 19.646739 637.693237T17.36413 644.160628Q17.36413 650.374396 23.197464 653.798309T38.288043 657.222222Q48.179348 657.222222 54.646739 652.910628T61.11413 640.483092Q61.11413 635.157005 57.373188 630.591787T46.657609 624.124396V623.61715Q53.759058 622.85628 58.958333 619.115338T64.157609 607.258454Q64.157609 596.986715 56.675725 592.104469T37.907609 587.222222Q28.650362 587.222222 22.246377 590.836353Z" fill="#da0a0a" />
<path d="M40.064995 558.418307C40.931589 561.62471 42.328975 563.986189 44.257153 565.50273S48.319323 567.777544 50.659132 567.777544C53.302252 567.777544 55.566232 566.867619 57.451079 565.047767S60.278349 561.039758 60.278349 558.483301C60.278349 556.143492 59.704229 553.76035 58.555989 551.333883S55.956201 546.567607 54.201344 544.314455S50.659132 539.797323 48.83928 537.522508S45.275406 532.65874 43.607206 529.755641S40.758274 523.971112 40.064995 521.111344C39.285058 524.101101 38.039324 527.101692 36.327799 530.113111S32.850582 535.789314 31.03073 538.10746C29.210879 540.425607 27.434359 542.700422 25.701164 544.931905S22.538086 549.405705 21.411514 551.658857S19.721651 556.056834 19.721651 558.093333C19.721651 560.823111 20.642412 563.119588 22.483926 564.982772C24.325441 566.845956 26.589428 567.777544 29.275873 567.777544C34.432118 567.777544 38.028516 564.657798 40.064995 558.418307Z" fill="#da0a0a" />
</svg>
