<svg width="500.000000" height="700.000000" id="card-webspade2">
<radialGradient id="card-webwhitegradient" cx="250.0" cy="350.0" r="500" gradientTransform="matrix(1 0 0 1 0 -.25)" gradientUnits="userSpaceOnUse">
<stop stop-color="#FDFAF4" offset=".15"/>
<stop stop-color="#FDF9F2" offset=".35"/>
<stop stop-color="#FCF7F1" offset=".5"/>
<stop stop-color="#FDFDF8" offset=".75"/>
<stop stop-color="#FFFDFA" offset="1"/>
</radialGradient>
<rect x="0" y="0" rx="25.0" ry="25.0" width="500" height="700.0" fill="url(#card-webwhitegradient)" />
<path d="M247.659574 132.907801C247.186762 137.825064 246.004723 142.174936 244.113475 145.957447C242.222227 149.739957 240.236411 152.624113 238.156028 154.609929S233.451532 158.297872 230.283688 159.716312C227.115844 161.134752 224.680851 162.056738 222.978723 162.48227S219.196213 163.309692 216.737589 163.687943C216.359338 163.782506 216.07565 163.829787 215.886525 163.829787V166.666667H284.113475V163.829787C276.075645 162.411348 269.976355 160.330965 265.815603 157.588652C257.87234 152.293149 253.38061 144.066199 252.340426 132.907801C257.257688 140.472809 263.593376 144.255319 271.347518 144.255319C276.359333 144.255319 280.638298 142.505915 284.184397 139.007092S289.503546 131.25295 289.503546 126.241135C289.503546 121.985816 288.463357 118.108752 286.382979 114.609929C284.302596 111.111106 281.60756 107.919617 278.297872 105.035461S271.583929 99.148936 268.085106 96.028369C264.586284 92.907801 261.134752 88.817972 257.730496 83.758865S251.725773 73.002369 249.929078 66.666667C248.321518 72.907801 245.839248 78.534284 242.48227 83.546099S235.673759 92.624113 232.12766 95.744681S225.15366 101.891248 221.843972 104.822695S215.815603 110.969262 213.687943 114.468085S210.496454 121.891248 210.496454 126.241135C210.496454 131.25295 212.269504 135.50827 215.815603 139.007092S223.640667 144.255319 228.652482 144.255319C236.406624 144.255319 242.742312 140.472809 247.659574 132.907801Z" fill="#010101" />
<path d="M252.340426 567.092199C252.813238 562.174936 253.995277 557.825064 255.886525 554.042553C257.777773 550.260043 259.763589 547.375887 261.843972 545.390071S266.548468 541.702128 269.716312 540.283688C272.884156 538.865248 275.319149 537.943262 277.021277 537.51773S280.803787 536.690308 283.262411 536.312057C283.640662 536.217494 283.92435 536.170213 284.113475 536.170213V533.333333H215.886525V536.170213C223.924355 537.588652 230.023645 539.669035 234.184397 542.411348C242.12766 547.706851 246.61939 555.933801 247.659574 567.092199C242.742312 559.527191 236.406624 555.744681 228.652482 555.744681C223.640667 555.744681 219.361702 557.494085 215.815603 560.992908S210.496454 568.74705 210.496454 573.758865C210.496454 578.014184 211.536643 581.891248 213.617021 585.390071C215.697404 588.888894 218.39244 592.080383 221.702128 594.964539S228.416071 600.851064 231.914894 603.971631C235.413716 607.092199 238.865248 611.182028 242.269504 616.241135S248.274227 626.997631 250.070922 633.333333C251.678482 627.092199 254.160752 621.465716 257.51773 616.453901S264.326241 607.375887 267.87234 604.255319S274.84634 598.108752 278.156028 595.177305S284.184397 589.030738 286.312057 585.531915S289.503546 578.108752 289.503546 573.758865C289.503546 568.74705 287.730496 564.49173 284.184397 560.992908S276.359333 555.744681 271.347518 555.744681C263.593376 555.744681 257.257688 559.527191 252.340426 567.092199Z" fill="#010101" />
<path d="M486.745283 108.023061Q486.613208 105.249476 485.226415 103.532495T480.669811 99.702306Q470.235849 92.702306 464.490566 88.145702T454.122642 76.589099T449.5 60.872117Q449.5 54.532495 452.867925 51.032495T462.311321 47.532495Q467.462264 47.532495 470.830189 50.107966T474.198113 57.174004Q474.198113 59.419287 473.141509 60.938155T470.962264 63.381551T469.839623 64.438155Q469.839623 65.362683 471.622642 66.683438T475.915094 68.004193Q480.009434 68.004193 482.45283 65.428721T484.896226 58.890985Q484.896226 53.607966 481.330189 49.909853T472.283019 44.494759T461.122642 42.777778Q451.216981 42.777778 444.018868 47.66457T436.820755 62.589099Q436.820755 69.853249 440.783019 75.796646T450.226415 85.900419T464.556604 95.740042Q471.556604 100.098532 474.990566 102.740042V103.400419H439.59434Q436.292453 103.400419 434.773585 104.126834T433.254717 108.023061Q433.254717 112.777778 437.877358 112.777778H482.122642Q486.745283 112.777778 486.745283 108.023061Z" fill="#010101" />
<path d="M458.907812 163.134676C458.687169 165.429375 458.135556 167.459296 457.252983 169.22445C456.370409 170.989604 455.443704 172.33553 454.472869 173.262234S452.277459 174.983257 450.799146 175.645189C449.320834 176.307121 448.184515 176.737377 447.390197 176.935956S445.625043 177.322083 444.477697 177.498599C444.301181 177.542727 444.168795 177.564792 444.080537 177.564792V178.888656H475.919463V177.564792C472.168513 176.90286 469.322206 175.932024 467.380541 174.652291C463.673722 172.181081 461.577602 168.341876 461.092188 163.134676C463.386887 166.664977 466.343512 168.430131 469.962075 168.430131C472.300899 168.430131 474.297729 167.613751 475.952559 165.980983S478.434804 162.36242 478.434804 160.023596C478.434804 158.0378 477.949387 156.228522 476.978554 154.595754C476.007718 152.962987 474.750047 151.47364 473.205542 150.127714S470.0724 147.380696 468.439632 145.924446C466.806864 144.468196 465.196166 142.559628 463.607529 140.198735S460.805353 135.179087 459.966903 132.222456C459.216716 135.134956 458.058335 137.760621 456.491761 140.099445S453.314488 144.33581 451.659658 145.79206S448.405157 148.660429 446.860651 150.028424S444.047441 152.896793 443.054543 154.529561S441.565196 157.993669 441.565196 160.023596C441.565196 162.36242 442.392611 164.348216 444.047441 165.980983S447.699101 168.430131 450.037925 168.430131C453.656488 168.430131 456.613113 166.664977 458.907812 163.134676Z" fill="#010101" />
<path d="M13.254717 591.976939Q13.386792 594.750524 14.773585 596.467505T19.330189 600.297694Q29.764151 607.297694 35.509434 611.854298T45.877358 623.410901T50.5 639.127883Q50.5 645.467505 47.132075 648.967505T37.688679 652.467505Q32.537736 652.467505 29.169811 649.892034T25.801887 642.825996Q25.801887 640.580713 26.858491 639.061845T29.037736 636.618449T30.160377 635.561845Q30.160377 634.637317 28.377358 633.316562T24.084906 631.995807Q19.990566 631.995807 17.54717 634.571279T15.103774 641.109015Q15.103774 646.392034 18.669811 650.090147T27.716981 655.505241T38.877358 657.222222Q48.783019 657.222222 55.981132 652.33543T63.179245 637.410901Q63.179245 630.146751 59.216981 624.203354T49.773585 614.099581T35.443396 604.259958Q28.443396 599.901468 25.009434 597.259958V596.599581H60.40566Q63.707547 596.599581 65.226415 595.873166T66.745283 591.976939Q66.745283 587.222222 62.122642 587.222222H17.877358Q13.254717 587.222222 13.254717 591.976939Z" fill="#010101" />
<path d="M41.092188 536.865324C41.312831 534.570625 41.864444 532.540704 42.747017 530.77555C43.629591 529.010396 44.556296 527.66447 45.527131 526.737766S47.722541 525.016743 49.200854 524.354811C50.679166 523.692879 51.815485 523.262623 52.609803 523.064044S54.374957 522.677917 55.522303 522.501401C55.698819 522.457273 55.831205 522.435208 55.919463 522.435208V521.111344H24.080537V522.435208C27.831487 523.09714 30.677794 524.067976 32.619459 525.347709C36.326278 527.818919 38.422398 531.658124 38.907812 536.865324C36.613113 533.335023 33.656488 531.569869 30.037925 531.569869C27.699101 531.569869 25.702271 532.386249 24.047441 534.019017S21.565196 537.63758 21.565196 539.976404C21.565196 541.9622 22.050613 543.771478 23.021446 545.404246C23.992282 547.037013 25.249953 548.52636 26.794458 549.872286S29.9276 552.619304 31.560368 554.075554C33.193136 555.531804 34.803834 557.440372 36.392471 559.801265S39.194647 564.820913 40.033097 567.777544C40.783284 564.865044 41.941665 562.239379 43.508239 559.900555S46.685512 555.66419 48.340342 554.20794S51.594843 551.339571 53.139349 549.971576S55.952559 547.103207 56.945457 545.470439S58.434804 542.006331 58.434804 539.976404C58.434804 537.63758 57.607389 535.651784 55.952559 534.019017S52.300899 531.569869 49.962075 531.569869C46.343512 531.569869 43.386887 533.335023 41.092188 536.865324Z" fill="#010101" />
</svg>
