<svg width="500.000000" height="700.000000" id="card-realclub11">
<radialGradient id="card-realwhitegradient" cx="250.0" cy="350.0" r="500" gradientTransform="matrix(1 0 0 1 0 -.25)" gradientUnits="userSpaceOnUse">
<stop stop-color="#FDFAF4" offset=".15"/>
<stop stop-color="#FDF9F2" offset=".35"/>
<stop stop-color="#FCF7F1" offset=".5"/>
<stop stop-color="#FDFDF8" offset=".75"/>
<stop stop-color="#FFFDFA" offset="1"/>
</radialGradient>
<rect x="0" y="0" rx="25.0" ry="25.0" width="500" height="700.0" stroke="#010101" fill="url(#card-realwhitegradient)" />
<rect x="100.0" y="70.0" width="300.0" height="560.0" stroke="#010101" fill="#fffdfa" />
<path d="M314.164306 241.01108C311.520303 241.01108 310.1983 242.805224 310.1983 246.393516C310.1983 251.114961 312.559017 253.475669 317.280453 253.475669C319.169028 253.475669 320.113314 251.964811 320.113314 248.943091C320.113314 243.655074 318.130312 241.01108 314.164306 241.01108ZM293.767705 206.450173C296.411708 206.450173 297.733711 204.844884 297.733711 201.634309C297.733711 198.046009 295.939567 194.741023 292.351275 191.719295C288.762975 188.697567 285.080255 187.186717 281.303116 187.186717C276.959405 187.186717 274.787535 188.50872 274.787535 191.152723C274.787535 194.552156 277.053824 197.95159 281.586402 201.351023S290.179405 206.450173 293.767705 206.450173ZM291.501416 153.192383C290.745986 155.836386 290.368272 157.630541 290.368272 158.574819C290.368272 159.141391 290.651558 160.65225 291.21813 163.107397C290.084986 163.107397 288.054759 162.58804 285.127479 161.549323S280.075552 159.519105 278.753541 158.574819C283.852691 155.930816 288.101983 154.13666 291.501416 153.192383ZM241.926346 230.812779C241.926346 239.122496 244.192635 247.573884 248.725212 256.166887S258.026431 272.739125 263.031161 280.104564S270.82153 293.230145 271.388102 297.385017H177.903683C177.148252 288.697567 176.770538 282.276434 176.770538 278.121561C176.770538 261.690966 179.084042 246.48785 183.711048 232.512496C188.338045 218.537057 193.814929 207.583318 200.141643 199.651306S212.417365 185.58142 217.988669 181.237709C223.559972 176.893997 227.950907 174.722128 231.161473 174.722128H248.15864C249.669499 173.966697 251.038725 170.567255 252.266289 164.523828C253.493861 158.4804 255.051935 154.703233 256.94051 153.192383C258.451368 158.102666 261.048159 161.596547 264.730878 163.673969C268.413598 165.7514 272.946176 167.545556 278.328612 169.056405S287.913116 172.455839 290.934844 174.722128C293.201133 182.465272 299.291785 195.77972 309.206799 214.665471S324.457025 245.543658 325.212465 250.642808C324.457034 253.475669 322.66289 256.025244 319.830028 258.291533S313.975439 261.690966 310.764873 261.690966C309.44287 261.690966 307.743144 260.935536 305.665722 259.424677S301.699717 257.158388 300.0 257.158388C299.055714 257.158388 298.583569 257.724961 298.583569 258.858105L299.433428 261.40768C300.0 263.107397 300.283286 264.051683 300.283286 264.240541C300.283286 265.940258 298.961283 266.790116 296.31728 266.790116C295.939567 266.790116 293.578847 263.485102 289.235127 256.875102C280.925411 244.032808 269.121813 234.306632 253.824363 227.696632C252.691218 220.142326 250.283286 213.24904 246.600567 207.016745S240.037762 197.668303 237.96034 197.668303C236.260623 197.668303 235.410765 198.895876 235.410765 201.351023C235.410765 202.673026 236.591125 206.686235 238.951841 213.390683S242.492918 224.674904 242.492918 227.13006C242.492918 227.696632 242.30406 228.924204 241.926346 230.812779ZM235.977337 162.824111C232.011331 162.824111 227.384334 163.862828 222.096317 165.940258C216.8083 168.017689 210.764873 171.93649 203.966006 177.696632S190.982068 190.633374 185.410765 199.226377S175.118045 219.528558 171.246459 234.353856C167.374873 249.179153 165.439093 265.751306 165.439093 284.07057C165.439093 292.946859 165.816807 300.87887 166.572238 307.866604H285.269122C284.70255 299.179153 282.86119 291.436009 279.745042 284.637142S273.276686 272.644706 269.688385 269.056405C266.100085 265.468105 262.653456 260.982751 259.348442 255.600315S254.013229 244.410513 253.25779 238.178218C260.623229 241.388785 266.902748 245.307595 272.096317 249.934592S280.925411 258.763686 283.002833 262.540825S287.110482 269.575754 289.093484 272.314196C291.076487 275.052629 293.012266 276.421845 294.90085 276.421845C298.111416 276.421845 300.944278 275.666414 303.399433 274.155556S307.176572 270.756122 307.365439 268.489833C309.254014 269.434119 311.142578 269.906264 313.031161 269.906264C321.90745 269.906264 329.084051 264.240541 334.560907 252.909097C333.427762 245.732524 327.195467 230.198983 315.864023 206.30853S298.866856 166.979068 298.866856 159.99125C298.866856 159.046963 299.433428 153.758955 300.566572 144.127227C288.857422 144.127227 278.375836 147.337794 269.121813 153.758955C264.022663 144.882666 259.773371 140.444507 256.373938 140.444507C251.84136 142.899655 248.583569 145.638077 246.600567 148.659805S242.681785 156.591816 240.793201 163.390683C238.904626 163.012969 237.299348 162.824111 235.977337 162.824111Z" fill="#010101" />
<path d="M185.835694 458.98892C188.479697 458.98892 189.8017 457.194776 189.8017 453.606484C189.8017 448.885039 187.440983 446.524331 182.719547 446.524331C180.830972 446.524331 179.886686 448.035189 179.886686 451.056909C179.886686 456.344926 181.869688 458.98892 185.835694 458.98892ZM206.232295 493.549827C203.588292 493.549827 202.266289 495.155116 202.266289 498.365691C202.266289 501.953991 204.060433 505.258977 207.648725 508.280705C211.237025 511.302433 214.919745 512.813283 218.696884 512.813283C223.040595 512.813283 225.212465 511.49128 225.212465 508.847277C225.212465 505.447844 222.946176 502.04841 218.413598 498.648977S209.820595 493.549827 206.232295 493.549827ZM208.498584 546.807617C209.254014 544.163614 209.631728 542.369459 209.631728 541.425181C209.631728 540.858609 209.348442 539.34775 208.78187 536.892603C209.915014 536.892603 211.945241 537.41196 214.872521 538.450677S219.924448 540.480895 221.246459 541.425181C216.147309 544.069184 211.898017 545.86334 208.498584 546.807617ZM258.073654 469.187221C258.073654 460.877504 255.807365 452.426116 251.274788 443.833113S241.973569 427.260875 236.968839 419.895436S229.17847 406.769855 228.611898 402.614983H322.096317C322.851748 411.302433 323.229462 417.723566 323.229462 421.878439C323.229462 438.309034 320.915958 453.51215 316.288952 467.487504C311.661955 481.462943 306.185071 492.416682 299.858357 500.348694S287.582635 514.41858 282.011331 518.762291C276.440028 523.106003 272.049093 525.277872 268.838527 525.277872H251.84136C250.330501 526.033303 248.961275 529.432745 247.733711 535.476172C246.506139 541.5196 244.948065 545.296767 243.05949 546.807617C241.548632 541.897334 238.951841 538.403453 235.269122 536.326031C231.586402 534.2486 227.053824 532.454444 221.671388 530.943595S212.086884 527.544161 209.065156 525.277872C206.798867 517.534728 200.708215 504.22028 190.793201 485.334529S175.542975 454.456342 174.787535 449.357192C175.542966 446.524331 177.33711 443.974756 180.169972 441.708467S186.024561 438.309034 189.235127 438.309034C190.55713 438.309034 192.256856 439.064464 194.334278 440.575323S198.300283 442.841612 200.0 442.841612C200.944286 442.841612 201.416431 442.275039 201.416431 441.141895L200.566572 438.59232C200.0 436.892603 199.716714 435.948317 199.716714 435.759459C199.716714 434.059742 201.038717 433.209884 203.68272 433.209884C204.060433 433.209884 206.421153 436.514898 210.764873 443.124898C219.074589 455.967192 230.878187 465.693368 246.175637 472.303368C247.308782 479.857674 249.716714 486.75096 253.399433 492.983255S259.962238 502.331697 262.03966 502.331697C263.739377 502.331697 264.589235 501.104124 264.589235 498.648977C264.589235 497.326974 263.408875 493.313765 261.048159 486.609317S257.507082 475.325096 257.507082 472.86994C257.507082 472.303368 257.69594 471.075796 258.073654 469.187221ZM264.022663 537.175889C267.988669 537.175889 272.615666 536.137172 277.903683 534.059742C283.1917 531.982311 289.235127 528.06351 296.033994 522.303368S309.017932 509.366626 314.589235 500.773623S324.881955 480.471442 328.753541 465.646144C332.625127 450.820847 334.560907 434.248694 334.560907 415.92943C334.560907 407.053141 334.183193 399.12113 333.427762 392.133396H214.730878C215.29745 400.820847 217.13881 408.563991 220.254958 415.362858S226.723314 427.355294 230.311615 430.943595C233.899915 434.531895 237.346544 439.017249 240.651558 444.399685S245.986771 455.589487 246.74221 461.821782C239.376771 458.611215 233.097252 454.692405 227.903683 450.065408S219.074589 441.236314 216.997167 437.459175S212.889518 430.424246 210.906516 427.685804C208.923513 424.947371 206.987734 423.578155 205.09915 423.578155C201.888584 423.578155 199.055722 424.333586 196.600567 425.844444S192.823428 429.243878 192.634561 431.510167C190.745986 430.565881 188.857422 430.093736 186.968839 430.093736C178.09255 430.093736 170.915949 435.759459 165.439093 447.090903C166.572238 454.267476 172.804533 469.801017 184.135977 493.69147S201.133144 533.020932 201.133144 540.00875C201.133144 540.953037 200.566572 546.241045 199.433428 555.872773C211.142578 555.872773 221.624164 552.662206 230.878187 546.241045C235.977337 555.117334 240.226629 559.555493 243.626062 559.555493C248.15864 557.100345 251.416431 554.361923 253.399433 551.340195S257.318215 543.408184 259.206799 536.609317C261.095374 536.987031 262.700652 537.175889 264.022663 537.175889Z" fill="#010101" />
<path d="M471.525424 112.777778Q472.711864 112.777778 473.135593 111.3371Q473.220339 111.082863 473.220339 110.574388Q473.220339 109.557439 472.288136 109.218456Q468.050847 107.438795 466.016949 104.13371T463.389831 95.955744T462.79661 82.777778V52.947269Q462.881356 50.828625 463.177966 49.515066T464.661017 47.311676T468.305085 46.421846H468.813559Q469.661017 46.421846 470.042373 46.125235T470.508475 44.642185Q470.508475 43.879473 470.084746 43.328625T468.983051 42.777778Q463.559322 43.032015 458.898305 43.032015Q453.728814 43.032015 448.305085 42.777778Q447.542373 42.777778 447.161017 43.328625T446.779661 44.642185Q446.864407 45.913371 447.330508 46.167608T448.983051 46.421846Q451.440678 46.421846 452.627119 47.311676T454.110169 49.515066T454.491525 52.947269V85.659134Q454.491525 96.591337 458.347458 103.582863T471.186441 112.777778H471.525424Z" fill="#010101" />
<path d="M459.074608 159.488472C459.030542 160.810461 458.975459 161.87907 458.909359 162.694294C458.84326 163.509519 458.678011 164.545079 458.413614 165.800968S457.829735 168.092417 457.455172 168.907641S456.518761 170.637245 455.769636 171.650768S454.139181 173.501552 453.125659 174.162546S450.83421 175.462504 449.291892 176.07943S445.98692 177.181089 444.003937 177.533617V178.855606H475.996063V177.533617C474.01308 177.181087 472.250426 176.685343 470.708108 176.04638S467.876851 174.757441 466.841291 174.096447S464.924408 172.587178 464.197314 171.551618S462.908375 169.601685 462.511778 168.808492S461.795703 166.979739 461.553337 165.701819S461.15674 163.399357 461.090641 162.628195C461.024541 161.857033 460.969459 160.810461 460.925392 159.488472C461.982983 161.427386 462.842276 162.793444 463.50327 163.586637C464.69306 165.084893 466.158266 166.274683 467.898882 167.156006C469.639499 168.03733 471.347072 168.477995 473.021588 168.477995C475.841833 168.477995 478.265475 167.431423 480.292526 165.338272S483.3331 160.72233 483.3331 157.769887C483.3331 154.90558 482.418727 152.459901 480.589974 150.432849S476.546889 147.392276 473.94698 147.392276C473.065657 147.392276 472.250426 147.513458 471.501301 147.755822S470.003045 148.306651 469.253921 148.681214L467.865833 149.375259C469.584418 146.907549 470.44371 144.572031 470.44371 142.368719C470.44371 139.592542 469.419169 137.212963 467.370087 135.22998S462.864307 132.255505 460.0 132.255505S454.678996 133.246997 452.629913 135.22998S449.55629 139.592542 449.55629 142.368719C449.55629 144.572031 450.415582 146.907549 452.134167 149.375259C451.825703 149.24306 451.396055 149.044761 450.845228 148.780364S449.886787 148.317668 449.622389 148.185469S449.016477 147.921071 448.597848 147.788872S447.771605 147.557524 447.375008 147.491425S446.537747 147.392276 446.05302 147.392276C443.453111 147.392276 441.23878 148.405798 439.410026 150.432849S436.6669 154.90558 436.6669 157.769887C436.6669 160.72233 437.680422 163.245121 439.707474 165.338272S444.158167 168.477995 446.978412 168.477995C451.825701 168.477995 455.857747 165.481489 459.074608 159.488472Z" fill="#010101" />
<path d="M28.474576 587.222222Q27.288136 587.222222 26.864407 588.6629Q26.779661 588.917137 26.779661 589.425612Q26.779661 590.442561 27.711864 590.781544Q31.949153 592.561205 33.983051 595.86629T36.610169 604.044256T37.20339 617.222222V647.052731Q37.118644 649.171375 36.822034 650.484934T35.338983 652.688324T31.694915 653.578154H31.186441Q30.338983 653.578154 29.957627 653.874765T29.491525 655.357815Q29.491525 656.120527 29.915254 656.671375T31.016949 657.222222Q36.440678 656.967985 41.101695 656.967985Q46.271186 656.967985 51.694915 657.222222Q52.457627 657.222222 52.838983 656.671375T53.220339 655.357815Q53.135593 654.086629 52.669492 653.832392T51.016949 653.578154Q48.559322 653.578154 47.372881 652.688324T45.889831 650.484934T45.508475 647.052731V614.340866Q45.508475 603.408663 41.652542 596.417137T28.813559 587.222222H28.474576Z" fill="#010101" />
<path d="M40.925392 540.511528C40.969458 539.189539 41.024541 538.12093 41.090641 537.305706C41.15674 536.490481 41.321989 535.454921 41.586386 534.199032S42.170265 531.907583 42.544828 531.092359S43.481239 529.362755 44.230364 528.349232S45.860819 526.498448 46.874341 525.837454S49.16579 524.537496 50.708108 523.92057S54.01308 522.818911 55.996063 522.466383V521.144394H24.003937V522.466383C25.98692 522.818913 27.749574 523.314657 29.291892 523.95362S32.123149 525.242559 33.158709 525.903553S35.075592 527.412822 35.802686 528.448382S37.091625 530.398315 37.488222 531.191508S38.204297 533.020261 38.446663 534.298181S38.84326 536.600643 38.909359 537.371805C38.975459 538.142967 39.030541 539.189539 39.074608 540.511528C38.017017 538.572614 37.157724 537.206556 36.49673 536.413363C35.30694 534.915107 33.841734 533.725317 32.101118 532.843994C30.360501 531.96267 28.652928 531.522005 26.978412 531.522005C24.158167 531.522005 21.734525 532.568577 19.707474 534.661728S16.6669 539.27767 16.6669 542.230113C16.6669 545.09442 17.581273 547.540099 19.410026 549.567151S23.453111 552.607724 26.05302 552.607724C26.934343 552.607724 27.749574 552.486542 28.498699 552.244178S29.996955 551.693349 30.746079 551.318786L32.134167 550.624741C30.415582 553.092451 29.55629 555.427969 29.55629 557.631281C29.55629 560.407458 30.580831 562.787037 32.629913 564.77002S37.135693 567.744495 40.0 567.744495S45.321004 566.753003 47.370087 564.77002S50.44371 560.407458 50.44371 557.631281C50.44371 555.427969 49.584418 553.092451 47.865833 550.624741C48.174297 550.75694 48.603945 550.955239 49.154772 551.219636S50.113213 551.682332 50.377611 551.814531S50.983523 552.078929 51.402152 552.211128S52.228395 552.442476 52.624992 552.508575S53.462253 552.607724 53.94698 552.607724C56.546889 552.607724 58.76122 551.594202 60.589974 549.567151S63.3331 545.09442 63.3331 542.230113C63.3331 539.27767 62.319578 536.754879 60.292526 534.661728S55.841833 531.522005 53.021588 531.522005C48.174299 531.522005 44.142253 534.518511 40.925392 540.511528Z" fill="#010101" />
</svg>
