<svg width="150.000000" height="210.000000" id="card-webclub8">
<radialGradient id="card-webwhitegradient" cx="75.0" cy="105.0" r="150" gradientTransform="matrix(1 0 0 1 0 -.25)" gradientUnits="userSpaceOnUse">
<stop stop-color="#FDFAF4" offset=".15"/>
<stop stop-color="#FDF9F2" offset=".35"/>
<stop stop-color="#FCF7F1" offset=".5"/>
<stop stop-color="#FDFDF8" offset=".75"/>
<stop stop-color="#FFFDFA" offset="1"/>
</radialGradient>
<rect x="0" y="0" rx="7.5" ry="7.5" width="150" height="210.0" stroke="#010101" fill="url(#card-webwhitegradient)" />
<path d="M44.405099 37.528329C44.376771 38.378187 44.34136 39.065157 44.298867 39.589235C44.256374 40.113313 44.150142 40.779037 43.98017 41.586402S43.604816 43.059492 43.364023 43.583569S42.762038 44.695469 42.280453 45.347025S41.232293 46.536827 40.580737 46.961756S39.107647 47.797452 38.116147 48.194051S35.991501 48.902268 34.716714 49.128895V49.978754H55.283286V49.128895C54.008499 48.902266 52.875353 48.583571 51.883853 48.172805S50.063741 47.344193 49.398017 46.919263S48.165722 45.94901 47.6983 45.283286S46.869688 44.029745 46.614731 43.51983S46.154392 42.344191 45.998584 41.522663S45.743626 40.042494 45.701133 39.546742C45.65864 39.05099 45.62323 38.378187 45.594901 37.528329C46.274788 38.774786 46.827195 39.652975 47.252125 40.16289C48.016997 41.126064 48.958925 41.890936 50.077904 42.457507C51.196882 43.024078 52.294619 43.307365 53.371105 43.307365C55.184137 43.307365 56.742208 42.634562 58.045326 41.288952S60.0 38.321531 60.0 36.423513C60.0 34.582154 59.412183 33.009916 58.236544 31.706799S55.637392 29.752125 53.966006 29.752125C53.399435 29.752125 52.875353 29.830028 52.393768 29.985836S51.430593 30.339943 50.949008 30.580737L50.056657 31.026912C51.161473 29.440511 51.713881 27.939092 51.713881 26.522663C51.713881 24.73796 51.055241 23.208215 49.73796 21.933428S46.841358 20.021246 45.0 20.021246S41.57932 20.65864 40.26204 21.933428S38.286119 24.73796 38.286119 26.522663C38.286119 27.939092 38.838527 29.440511 39.943343 31.026912C39.745042 30.941926 39.468837 30.814448 39.114731 30.644476S38.498584 30.347025 38.328612 30.26204S37.939093 30.092068 37.669972 30.007082S37.13881 29.858357 36.883853 29.815864S36.345608 29.752125 36.033994 29.752125C34.362608 29.752125 32.939095 30.403681 31.763456 31.706799S30.0 34.582154 30.0 36.423513C30.0 38.321531 30.651557 39.943341 31.954674 41.288952S34.815863 43.307365 36.628895 43.307365C39.745041 43.307365 42.337096 41.381021 44.405099 37.528329Z" fill="#010101" />
<path d="M45.594901 172.471671C45.623229 171.621813 45.65864 170.934843 45.701133 170.410765C45.743626 169.886687 45.849858 169.220963 46.01983 168.413598S46.395184 166.940508 46.635977 166.416431S47.237962 165.304531 47.719547 164.652975S48.767707 163.463173 49.419263 163.038244S50.892353 162.202548 51.883853 161.805949S54.008499 161.097732 55.283286 160.871105V160.021246H34.716714V160.871105C35.991501 161.097734 37.124647 161.416429 38.116147 161.827195S39.936259 162.655807 40.601983 163.080737S41.834278 164.05099 42.3017 164.716714S43.130312 165.970255 43.385269 166.48017S43.845608 167.655809 44.001416 168.477337S44.256374 169.957506 44.298867 170.453258C44.34136 170.94901 44.37677 171.621813 44.405099 172.471671C43.725212 171.225214 43.172805 170.347025 42.747875 169.83711C41.983003 168.873936 41.041075 168.109064 39.922096 167.542493C38.803118 166.975922 37.705381 166.692635 36.628895 166.692635C34.815863 166.692635 33.257792 167.365438 31.954674 168.711048S30.0 171.678469 30.0 173.576487C30.0 175.417846 30.587817 176.990084 31.763456 178.293201S34.362608 180.247875 36.033994 180.247875C36.600565 180.247875 37.124647 180.169972 37.606232 180.014164S38.569407 179.660057 39.050992 179.419263L39.943343 178.973088C38.838527 180.559489 38.286119 182.060908 38.286119 183.477337C38.286119 185.26204 38.944759 186.791785 40.26204 188.066572S43.158642 189.978754 45.0 189.978754S48.42068 189.34136 49.73796 188.066572S51.713881 185.26204 51.713881 183.477337C51.713881 182.060908 51.161473 180.559489 50.056657 178.973088C50.254958 179.058074 50.531163 179.185552 50.885269 179.355524S51.501416 179.652975 51.671388 179.73796S52.060907 179.907932 52.330028 179.992918S52.86119 180.141643 53.116147 180.184136S53.654392 180.247875 53.966006 180.247875C55.637392 180.247875 57.060905 179.596319 58.236544 178.293201S60.0 175.417846 60.0 173.576487C60.0 171.678469 59.348443 170.056659 58.045326 168.711048S55.184137 166.692635 53.371105 166.692635C50.254959 166.692635 47.662904 168.618979 45.594901 172.471671Z" fill="#010101" />
<path d="M44.405099 84.194995C44.376771 85.044854 44.34136 85.731824 44.298867 86.255902C44.256374 86.77998 44.150142 87.445703 43.98017 88.253069S43.604816 89.726158 43.364023 90.250236S42.762038 91.362136 42.280453 92.013692S41.232293 93.203494 40.580737 93.628423S39.107647 94.464119 38.116147 94.860718S35.991501 95.568934 34.716714 95.795562V96.64542H55.283286V95.795562C54.008499 95.568933 52.875353 95.250237 51.883853 94.839471S50.063741 94.010859 49.398017 93.58593S48.165722 92.615677 47.6983 91.949953S46.869688 90.696412 46.614731 90.186497S46.154392 89.010858 45.998584 88.18933S45.743626 86.709161 45.701133 86.213409C45.65864 85.717657 45.62323 85.044854 45.594901 84.194995C46.274788 85.441453 46.827195 86.319641 47.252125 86.829556C48.016997 87.79273 48.958925 88.557603 50.077904 89.124174C51.196882 89.690745 52.294619 89.974032 53.371105 89.974032C55.184137 89.974032 56.742208 89.301229 58.045326 87.955619S60.0 84.988198 60.0 83.090179C60.0 81.248821 59.412183 79.676583 58.236544 78.373466S55.637392 76.418791 53.966006 76.418791C53.399435 76.418791 52.875353 76.496695 52.393768 76.652502S51.430593 77.00661 50.949008 77.247403L50.056657 77.693579C51.161473 76.107178 51.713881 74.605759 51.713881 73.18933C51.713881 71.404627 51.055241 69.874882 49.73796 68.600094S46.841358 66.687913 45.0 66.687913S41.57932 67.325307 40.26204 68.600094S38.286119 71.404627 38.286119 73.18933C38.286119 74.605759 38.838527 76.107178 39.943343 77.693579C39.745042 77.608593 39.468837 77.481114 39.114731 77.311143S38.498584 77.013692 38.328612 76.928706S37.939093 76.758735 37.669972 76.673749S37.13881 76.525024 36.883853 76.482531S36.345608 76.418791 36.033994 76.418791C34.362608 76.418791 32.939095 77.070348 31.763456 78.373466S30.0 81.248821 30.0 83.090179C30.0 84.988198 30.651557 86.610008 31.954674 87.955619S34.815863 89.974032 36.628895 89.974032C39.745041 89.974032 42.337096 88.047688 44.405099 84.194995Z" fill="#010101" />
<path d="M45.594901 125.805005C45.623229 124.955146 45.65864 124.268176 45.701133 123.744098C45.743626 123.22002 45.849858 122.554297 46.01983 121.746931S46.395184 120.273842 46.635977 119.749764S47.237962 118.637864 47.719547 117.986308S48.767707 116.796506 49.419263 116.371577S50.892353 115.535881 51.883853 115.139282S54.008499 114.431066 55.283286 114.204438V113.35458H34.716714V114.204438C35.991501 114.431067 37.124647 114.749763 38.116147 115.160529S39.936259 115.989141 40.601983 116.41407S41.834278 117.384323 42.3017 118.050047S43.130312 119.303588 43.385269 119.813503S43.845608 120.989142 44.001416 121.81067S44.256374 123.290839 44.298867 123.786591C44.34136 124.282343 44.37677 124.955146 44.405099 125.805005C43.725212 124.558547 43.172805 123.680359 42.747875 123.170444C41.983003 122.20727 41.041075 121.442397 39.922096 120.875826C38.803118 120.309255 37.705381 120.025968 36.628895 120.025968C34.815863 120.025968 33.257792 120.698771 31.954674 122.044381S30.0 125.011802 30.0 126.909821C30.0 128.751179 30.587817 130.323417 31.763456 131.626534S34.362608 133.581209 36.033994 133.581209C36.600565 133.581209 37.124647 133.503305 37.606232 133.347498S38.569407 132.99339 39.050992 132.752597L39.943343 132.306421C38.838527 133.892822 38.286119 135.394241 38.286119 136.81067C38.286119 138.595373 38.944759 140.125118 40.26204 141.399906S43.158642 143.312087 45.0 143.312087S48.42068 142.674693 49.73796 141.399906S51.713881 138.595373 51.713881 136.81067C51.713881 135.394241 51.161473 133.892822 50.056657 132.306421C50.254958 132.391407 50.531163 132.518886 50.885269 132.688857S51.501416 132.986308 51.671388 133.071294S52.060907 133.241265 52.330028 133.326251S52.86119 133.474976 53.116147 133.517469S53.654392 133.581209 53.966006 133.581209C55.637392 133.581209 57.060905 132.929652 58.236544 131.626534S60.0 128.751179 60.0 126.909821C60.0 125.011802 59.348443 123.389992 58.045326 122.044381S55.184137 120.025968 53.371105 120.025968C50.254959 120.025968 47.662904 121.952312 45.594901 125.805005Z" fill="#010101" />
<path d="M104.405099 37.528329C104.376771 38.378187 104.34136 39.065157 104.298867 39.589235C104.256374 40.113313 104.150142 40.779037 103.98017 41.586402S103.604816 43.059492 103.364023 43.583569S102.762038 44.695469 102.280453 45.347025S101.232293 46.536827 100.580737 46.961756S99.107647 47.797452 98.116147 48.194051S95.991501 48.902268 94.716714 49.128895V49.978754H115.283286V49.128895C114.008499 48.902266 112.875353 48.583571 111.883853 48.172805S110.063741 47.344193 109.398017 46.919263S108.165722 45.94901 107.6983 45.283286S106.869688 44.029745 106.614731 43.51983S106.154392 42.344191 105.998584 41.522663S105.743626 40.042494 105.701133 39.546742C105.65864 39.05099 105.62323 38.378187 105.594901 37.528329C106.274788 38.774786 106.827195 39.652975 107.252125 40.16289C108.016997 41.126064 108.958925 41.890936 110.077904 42.457507C111.196882 43.024078 112.294619 43.307365 113.371105 43.307365C115.184137 43.307365 116.742208 42.634562 118.045326 41.288952S120.0 38.321531 120.0 36.423513C120.0 34.582154 119.412183 33.009916 118.236544 31.706799S115.637392 29.752125 113.966006 29.752125C113.399435 29.752125 112.875353 29.830028 112.393768 29.985836S111.430593 30.339943 110.949008 30.580737L110.056657 31.026912C111.161473 29.440511 111.713881 27.939092 111.713881 26.522663C111.713881 24.73796 111.055241 23.208215 109.73796 21.933428S106.841358 20.021246 105.0 20.021246S101.57932 20.65864 100.26204 21.933428S98.286119 24.73796 98.286119 26.522663C98.286119 27.939092 98.838527 29.440511 99.943343 31.026912C99.745042 30.941926 99.468837 30.814448 99.114731 30.644476S98.498584 30.347025 98.328612 30.26204S97.939093 30.092068 97.669972 30.007082S97.13881 29.858357 96.883853 29.815864S96.345608 29.752125 96.033994 29.752125C94.362608 29.752125 92.939095 30.403681 91.763456 31.706799S90.0 34.582154 90.0 36.423513C90.0 38.321531 90.651557 39.943341 91.954674 41.288952S94.815863 43.307365 96.628895 43.307365C99.745041 43.307365 102.337096 41.381021 104.405099 37.528329Z" fill="#010101" />
<path d="M105.594901 172.471671C105.623229 171.621813 105.65864 170.934843 105.701133 170.410765C105.743626 169.886687 105.849858 169.220963 106.01983 168.413598S106.395184 166.940508 106.635977 166.416431S107.237962 165.304531 107.719547 164.652975S108.767707 163.463173 109.419263 163.038244S110.892353 162.202548 111.883853 161.805949S114.008499 161.097732 115.283286 160.871105V160.021246H94.716714V160.871105C95.991501 161.097734 97.124647 161.416429 98.116147 161.827195S99.936259 162.655807 100.601983 163.080737S101.834278 164.05099 102.3017 164.716714S103.130312 165.970255 103.385269 166.48017S103.845608 167.655809 104.001416 168.477337S104.256374 169.957506 104.298867 170.453258C104.34136 170.94901 104.37677 171.621813 104.405099 172.471671C103.725212 171.225214 103.172805 170.347025 102.747875 169.83711C101.983003 168.873936 101.041075 168.109064 99.922096 167.542493C98.803118 166.975922 97.705381 166.692635 96.628895 166.692635C94.815863 166.692635 93.257792 167.365438 91.954674 168.711048S90.0 171.678469 90.0 173.576487C90.0 175.417846 90.587817 176.990084 91.763456 178.293201S94.362608 180.247875 96.033994 180.247875C96.600565 180.247875 97.124647 180.169972 97.606232 180.014164S98.569407 179.660057 99.050992 179.419263L99.943343 178.973088C98.838527 180.559489 98.286119 182.060908 98.286119 183.477337C98.286119 185.26204 98.944759 186.791785 100.26204 188.066572S103.158642 189.978754 105.0 189.978754S108.42068 189.34136 109.73796 188.066572S111.713881 185.26204 111.713881 183.477337C111.713881 182.060908 111.161473 180.559489 110.056657 178.973088C110.254958 179.058074 110.531163 179.185552 110.885269 179.355524S111.501416 179.652975 111.671388 179.73796S112.060907 179.907932 112.330028 179.992918S112.86119 180.141643 113.116147 180.184136S113.654392 180.247875 113.966006 180.247875C115.637392 180.247875 117.060905 179.596319 118.236544 178.293201S120.0 175.417846 120.0 173.576487C120.0 171.678469 119.348443 170.056659 118.045326 168.711048S115.184137 166.692635 113.371105 166.692635C110.254959 166.692635 107.662904 168.618979 105.594901 172.471671Z" fill="#010101" />
<path d="M104.405099 84.194995C104.376771 85.044854 104.34136 85.731824 104.298867 86.255902C104.256374 86.77998 104.150142 87.445703 103.98017 88.253069S103.604816 89.726158 103.364023 90.250236S102.762038 91.362136 102.280453 92.013692S101.232293 93.203494 100.580737 93.628423S99.107647 94.464119 98.116147 94.860718S95.991501 95.568934 94.716714 95.795562V96.64542H115.283286V95.795562C114.008499 95.568933 112.875353 95.250237 111.883853 94.839471S110.063741 94.010859 109.398017 93.58593S108.165722 92.615677 107.6983 91.949953S106.869688 90.696412 106.614731 90.186497S106.154392 89.010858 105.998584 88.18933S105.743626 86.709161 105.701133 86.213409C105.65864 85.717657 105.62323 85.044854 105.594901 84.194995C106.274788 85.441453 106.827195 86.319641 107.252125 86.829556C108.016997 87.79273 108.958925 88.557603 110.077904 89.124174C111.196882 89.690745 112.294619 89.974032 113.371105 89.974032C115.184137 89.974032 116.742208 89.301229 118.045326 87.955619S120.0 84.988198 120.0 83.090179C120.0 81.248821 119.412183 79.676583 118.236544 78.373466S115.637392 76.418791 113.966006 76.418791C113.399435 76.418791 112.875353 76.496695 112.393768 76.652502S111.430593 77.00661 110.949008 77.247403L110.056657 77.693579C111.161473 76.107178 111.713881 74.605759 111.713881 73.18933C111.713881 71.404627 111.055241 69.874882 109.73796 68.600094S106.841358 66.687913 105.0 66.687913S101.57932 67.325307 100.26204 68.600094S98.286119 71.404627 98.286119 73.18933C98.286119 74.605759 98.838527 76.107178 99.943343 77.693579C99.745042 77.608593 99.468837 77.481114 99.114731 77.311143S98.498584 77.013692 98.328612 76.928706S97.939093 76.758735 97.669972 76.673749S97.13881 76.525024 96.883853 76.482531S96.345608 76.418791 96.033994 76.418791C94.362608 76.418791 92.939095 77.070348 91.763456 78.373466S90.0 81.248821 90.0 83.090179C90.0 84.988198 90.651557 86.610008 91.954674 87.955619S94.815863 89.974032 96.628895 89.974032C99.745041 89.974032 102.337096 88.047688 104.405099 84.194995Z" fill="#010101" />
<path d="M105.594901 125.805005C105.623229 124.955146 105.65864 124.268176 105.701133 123.744098C105.743626 123.22002 105.849858 122.554297 106.01983 121.746931S106.395184 120.273842 106.635977 119.749764S107.237962 118.637864 107.719547 117.986308S108.767707 116.796506 109.419263 116.371577S110.892353 115.535881 111.883853 115.139282S114.008499 114.431066 115.283286 114.204438V113.35458H94.716714V114.204438C95.991501 114.431067 97.124647 114.749763 98.116147 115.160529S99.936259 115.989141 100.601983 116.41407S101.834278 117.384323 102.3017 118.050047S103.130312 119.303588 103.385269 119.813503S103.845608 120.989142 104.001416 121.81067S104.256374 123.290839 104.298867 123.786591C104.34136 124.282343 104.37677 124.955146 104.405099 125.805005C103.725212 124.558547 103.172805 123.680359 102.747875 123.170444C101.983003 122.20727 101.041075 121.442397 99.922096 120.875826C98.803118 120.309255 97.705381 120.025968 96.628895 120.025968C94.815863 120.025968 93.257792 120.698771 91.954674 122.044381S90.0 125.011802 90.0 126.909821C90.0 128.751179 90.587817 130.323417 91.763456 131.626534S94.362608 133.581209 96.033994 133.581209C96.600565 133.581209 97.124647 133.503305 97.606232 133.347498S98.569407 132.99339 99.050992 132.752597L99.943343 132.306421C98.838527 133.892822 98.286119 135.394241 98.286119 136.81067C98.286119 138.595373 98.944759 140.125118 100.26204 141.399906S103.158642 143.312087 105.0 143.312087S108.42068 142.674693 109.73796 141.399906S111.713881 138.595373 111.713881 136.81067C111.713881 135.394241 111.161473 133.892822 110.056657 132.306421C110.254958 132.391407 110.531163 132.518886 110.885269 132.688857S111.501416 132.986308 111.671388 133.071294S112.060907 133.241265 112.330028 133.326251S112.86119 133.474976 113.116147 133.517469S113.654392 133.581209 113.966006 133.581209C115.637392 133.581209 117.060905 132.929652 118.236544 131.626534S120.0 128.751179 120.0 126.909821C120.0 125.011802 119.348443 123.389992 118.045326 122.044381S115.184137 120.025968 113.371105 120.025968C110.254959 120.025968 107.662904 121.952312 105.594901 125.805005Z" fill="#010101" />
<path d="M142.180909 33.107879Q143.88 32.382424 144.796364 31.122424T145.712727 28.258788Q145.712727 26.578788 144.586364 25.337879T141.245455 23.142424Q143.078182 22.035152 143.937273 20.889697T144.796364 18.293333Q144.796364 16.804242 143.803636 15.544242T141.169091 13.558788T137.656364 12.833333Q135.747273 12.833333 134.258182 13.520606T131.929091 15.391515T131.089091 18.064242Q131.089091 19.438788 132.043636 20.641515T134.907273 22.798788Q132.387273 23.867879 131.337273 25.051515T130.287273 28.067879Q130.287273 29.633333 131.299091 30.950606T134.124545 33.050606T138.267273 33.833333Q140.481818 33.833333 142.180909 33.107879ZM134.620909 20.297879Q134.067273 19.209697 134.067273 18.026061Q134.067273 16.384242 135.06 15.257879T137.847273 14.131515Q139.565455 14.131515 140.596364 15.124242T141.627273 17.644242Q141.627273 19.05697 140.233636 20.030606T136.205455 22.111515Q135.174545 21.386061 134.620909 20.297879ZM134.869091 31.504242Q133.723636 30.435152 133.723636 28.755152Q133.723636 27.647879 134.43 26.82697T136.262727 25.414242T139.794545 23.753333Q140.978182 24.555152 141.627273 25.662424T142.276364 28.106061Q142.276364 30.091515 141.073636 31.332424T137.923636 32.573333Q136.014545 32.573333 134.869091 31.504242Z" fill="#010101" />
<path d="M137.722382 47.846542C137.709162 48.243138 137.692638 48.563721 137.672808 48.808288C137.652978 49.052856 137.603403 49.363524 137.524084 49.74029S137.348921 50.427725 137.236552 50.672292S136.955628 51.191174 136.730891 51.49523S136.241754 52.050466 135.937698 52.248764S135.250263 52.638751 134.787568 52.823829S133.796076 53.154327 133.201181 53.260085V53.656682H142.798819V53.260085C142.203924 53.154326 141.675128 53.005603 141.212432 52.813914S140.363055 52.427232 140.052387 52.228934S139.477322 51.776154 139.259194 51.465486S138.872513 50.880506 138.753534 50.642548S138.538711 50.093922 138.466001 49.710546S138.347022 49.019807 138.327192 48.788458C138.307362 48.55711 138.290838 48.243138 138.277618 47.846542C138.594895 48.428216 138.852683 48.838033 139.050981 49.075991C139.407918 49.525468 139.84748 49.882405 140.369665 50.146802C140.89185 50.411199 141.404121 50.543398 141.906477 50.543398C142.75255 50.543398 143.479642 50.229427 144.087758 49.601482S144.99993 48.216699 144.99993 47.330966C144.99993 46.471674 144.725618 45.73797 144.176992 45.129855S142.964067 44.217683 142.184094 44.217683C141.919697 44.217683 141.675128 44.254037 141.45039 44.326747S141.000914 44.491995 140.776176 44.604364L140.35975 44.812578C140.875325 44.072265 141.133113 43.371609 141.133113 42.710616C141.133113 41.877763 140.825751 41.163889 140.211026 40.568994S138.859292 39.676652 138.0 39.676652S136.403699 39.974099 135.788974 40.568994S134.866887 41.877763 134.866887 42.710616C134.866887 43.371609 135.124675 44.072265 135.64025 44.812578C135.547711 44.772918 135.418816 44.713428 135.253569 44.634109S134.966036 44.4953 134.886717 44.455641S134.704943 44.376321 134.579354 44.336662S134.331481 44.267257 134.212502 44.247427S133.961324 44.217683 133.815906 44.217683C133.035933 44.217683 132.371634 44.521739 131.823008 45.129855S131.00007 46.471674 131.00007 47.330966C131.00007 48.216699 131.304127 48.973536 131.912242 49.601482S133.24745 50.543398 134.093523 50.543398C135.54771 50.543398 136.757324 49.644447 137.722382 47.846542Z" fill="#010101" />
<path d="M7.819091 176.892121Q6.12 177.617576 5.203636 178.877576T4.287273 181.741212Q4.287273 183.421212 5.413636 184.662121T8.754545 186.857576Q6.921818 187.964848 6.062727 189.110303T5.203636 191.706667Q5.203636 193.195758 6.196364 194.455758T8.830909 196.441212T12.343636 197.166667Q14.252727 197.166667 15.741818 196.479394T18.070909 194.608485T18.910909 191.935758Q18.910909 190.561212 17.956364 189.358485T15.092727 187.201212Q17.612727 186.132121 18.662727 184.948485T19.712727 181.932121Q19.712727 180.366667 18.700909 179.049394T15.875455 176.949394T11.732727 176.166667Q9.518182 176.166667 7.819091 176.892121ZM15.379091 189.702121Q15.932727 190.790303 15.932727 191.973939Q15.932727 193.615758 14.94 194.742121T12.152727 195.868485Q10.434545 195.868485 9.403636 194.875758T8.372727 192.355758Q8.372727 190.94303 9.766364 189.969394T13.794545 187.888485Q14.825455 188.613939 15.379091 189.702121ZM15.130909 178.495758Q16.276364 179.564848 16.276364 181.244848Q16.276364 182.352121 15.57 183.17303T13.737273 184.585758T10.205455 186.246667Q9.021818 185.444848 8.372727 184.337576T7.723636 181.893939Q7.723636 179.908485 8.926364 178.667576T12.076364 177.426667Q13.985455 177.426667 15.130909 178.495758Z" fill="#010101" />
<path d="M12.277618 162.153458C12.290838 161.756862 12.307362 161.436279 12.327192 161.191712C12.347022 160.947144 12.396597 160.636476 12.475916 160.25971S12.651079 159.572275 12.763448 159.327708S13.044372 158.808826 13.269109 158.50477S13.758246 157.949534 14.062302 157.751236S14.749737 157.361249 15.212432 157.176171S16.203924 156.845673 16.798819 156.739915V156.343318H7.201181V156.739915C7.796076 156.845674 8.324872 156.994397 8.787568 157.186086S9.636945 157.572768 9.947613 157.771066S10.522678 158.223846 10.740806 158.534514S11.127487 159.119494 11.246466 159.357452S11.461289 159.906078 11.533999 160.289454S11.652978 160.980193 11.672808 161.211542C11.692638 161.44289 11.709162 161.756862 11.722382 162.153458C11.405105 161.571784 11.147317 161.161967 10.949019 160.924009C10.592082 160.474532 10.15252 160.117595 9.630335 159.853198C9.10815 159.588801 8.595879 159.456602 8.093523 159.456602C7.24745 159.456602 6.520358 159.770573 5.912242 160.398518S5.00007 161.783301 5.00007 162.669034C5.00007 163.528326 5.274382 164.26203 5.823008 164.870145S7.035933 165.782317 7.815906 165.782317C8.080303 165.782317 8.324872 165.745963 8.54961 165.673253S8.999086 165.508005 9.223824 165.395636L9.64025 165.187422C9.124675 165.927735 8.866887 166.628391 8.866887 167.289384C8.866887 168.122237 9.174249 168.836111 9.788974 169.431006S11.140708 170.323348 12.0 170.323348S13.596301 170.025901 14.211026 169.431006S15.133113 168.122237 15.133113 167.289384C15.133113 166.628391 14.875325 165.927735 14.35975 165.187422C14.452289 165.227082 14.581184 165.286572 14.746431 165.365891S15.033964 165.5047 15.113283 165.544359S15.295057 165.623679 15.420646 165.663338S15.668519 165.732743 15.787498 165.752573S16.038676 165.782317 16.184094 165.782317C16.964067 165.782317 17.628366 165.478261 18.176992 164.870145S18.99993 163.528326 18.99993 162.669034C18.99993 161.783301 18.695873 161.026464 18.087758 160.398518S16.75255 159.456602 15.906477 159.456602C14.45229 159.456602 13.242676 160.355553 12.277618 162.153458Z" fill="#010101" />
</svg>
