<svg width="25.000000" height="35.000000" id="card-lightheart13">
<rect x="0" y="0" rx="1.25" ry="1.25" width="25" height="35.0" stroke="#010101" fill="#fffdfa" />
<rect x="5.0" y="3.5" width="15.0" height="28.0" stroke="#010101" fill="#fffdfa" />
<path d="M10.05571 9.801093C10.185701 9.801093 10.355153 9.845197 10.564067 9.933405S11.000464 10.156246 11.246518 10.337304S11.703806 10.780665 11.880223 11.124212S12.144847 11.857732 12.144847 12.294129C12.144847 12.46126 12.265553 12.544825 12.506964 12.544825C12.75766 12.544825 12.883008 12.46126 12.883008 12.294129C12.883008 11.839161 12.968895 11.435261 13.140669 11.08243S13.523677 10.467294 13.774373 10.295522S14.252553 9.9984 14.456825 9.919477C14.661096 9.840554 14.832869 9.801093 14.972145 9.801093C15.352831 9.801093 15.654596 9.903228 15.877437 10.107499S16.211699 10.594964 16.211699 10.957081C16.211699 11.087072 16.142061 11.309913 16.002786 11.625605S15.636026 12.261632 15.320334 12.586608S14.656453 13.074073 14.275766 13.074073C13.913649 13.074073 13.328691 13.004435 12.520891 12.865159C11.703806 13.004435 11.114206 13.074073 10.752089 13.074073C10.464252 13.074073 10.188022 12.978901 9.923398 12.788558S9.452182 12.375372 9.303621 12.120034C9.15506 11.864696 9.036675 11.627927 8.948468 11.409728S8.816156 11.040647 8.816156 10.957081C8.816156 10.594964 8.927577 10.311771 9.150418 10.107499S9.675024 9.801093 10.05571 9.801093ZM11.810585 12.349839C11.8013 12.015577 11.747911 11.713813 11.650418 11.444547S11.436862 10.961723 11.302228 10.803878S11.016713 10.516041 10.849582 10.413906S10.536212 10.242133 10.410864 10.204992S10.176416 10.149282 10.083565 10.149282C9.805014 10.149282 9.575209 10.221241 9.39415 10.365159S9.122563 10.706385 9.122563 10.957081C9.122563 11.031362 9.157382 11.15671 9.227019 11.333126S9.398792 11.702207 9.533426 11.91112S9.860724 12.303414 10.111421 12.46126S10.640669 12.698028 10.947075 12.698028C11.522748 12.698028 11.810585 12.581965 11.810585 12.349839ZM10.445682 14.494686C10.445682 14.253275 11.128134 14.132569 12.493036 14.132569C13.10585 14.132569 13.604921 14.165066 13.990251 14.230062S14.568245 14.378623 14.568245 14.480758C14.568245 14.620034 14.442897 14.689672 14.192201 14.689672C14.164345 14.689672 13.890436 14.666459 13.370474 14.620034S12.562674 14.550396 12.506964 14.550396C12.479109 14.550396 12.207521 14.573609 11.692201 14.620034S10.891365 14.689672 10.835655 14.689672C10.575673 14.689672 10.445682 14.624677 10.445682 14.494686ZM13.62117 9.842875C13.62117 9.443618 13.579387 9.151139 13.495822 8.965438S13.194057 8.56618 12.841226 8.324769V8.004435L13.412256 7.656246V7.154853H12.896936L12.729805 6.639533H12.256267L12.075209 7.154853H11.573816V7.656246L12.130919 8.004435V8.324769C11.805943 8.538325 11.597029 8.740275 11.504178 8.930619S11.364903 9.425048 11.364903 9.842875C10.928506 9.490044 10.47818 9.313627 10.013928 9.313627C9.531104 9.313627 9.120241 9.471473 8.781337 9.787165S8.272981 10.497471 8.272981 10.971009C8.272981 11.351696 8.454039 11.792736 8.816156 12.294129C9.038997 12.600535 9.189879 12.821055 9.268802 12.955689S9.431291 13.322448 9.519499 13.652067S9.656453 14.37398 9.665738 14.828948C9.684308 15.460331 10.631383 15.776023 12.506964 15.776023C14.363969 15.776023 15.306407 15.460331 15.334262 14.828948C15.343547 14.35541 15.401578 13.935261 15.508357 13.568502S15.710306 12.953367 15.793872 12.823377S16.007428 12.512328 16.183844 12.280201C16.545961 11.788094 16.727019 11.351696 16.727019 10.971009C16.727019 10.506757 16.557567 10.114463 16.218663 9.794129C15.879759 9.473794 15.473538 9.313627 15.0 9.313627C14.517177 9.313627 14.057567 9.490044 13.62117 9.842875ZM14.958217 10.149282C14.837512 10.149282 14.691272 10.184101 14.519499 10.253739C14.347726 10.323377 14.157382 10.434797 13.948468 10.588001S13.56546 10.973331 13.426184 11.284379S13.21727 11.955225 13.21727 12.363767C13.21727 12.586608 13.500464 12.698028 14.066852 12.698028C14.382545 12.698028 14.66806 12.619105 14.923398 12.46126S15.371403 12.115392 15.501393 11.897193S15.728876 11.486329 15.793872 11.319198S15.891365 11.031361 15.891365 10.957081C15.891365 10.706385 15.800836 10.509077 15.619777 10.365159S15.218199 10.149282 14.958217 10.149282Z" fill="#da0a0a" />
<path d="M14.94429 25.198907C14.814299 25.198907 14.644847 25.154803 14.435933 25.066595S13.999536 24.843754 13.753482 24.662696S13.296194 24.219335 13.119777 23.875788S12.855153 23.142268 12.855153 22.705871C12.855153 22.53874 12.734447 22.455175 12.493036 22.455175C12.24234 22.455175 12.116992 22.53874 12.116992 22.705871C12.116992 23.160839 12.031105 23.564739 11.859331 23.91757S11.476323 24.532706 11.225627 24.704478S10.747447 25.0016 10.543175 25.080523C10.338904 25.159446 10.167131 25.198907 10.027855 25.198907C9.647169 25.198907 9.345404 25.096772 9.122563 24.892501S8.788301 24.405036 8.788301 24.042919C8.788301 23.912928 8.857939 23.690087 8.997214 23.374395S9.363974 22.738368 9.679666 22.413392S10.343547 21.925927 10.724234 21.925927C11.086351 21.925927 11.671309 21.995565 12.479109 22.134841C13.296194 21.995565 13.885794 21.925927 14.247911 21.925927C14.535748 21.925927 14.811978 22.021099 15.076602 22.211442S15.547818 22.624628 15.696379 22.879966C15.84494 23.135304 15.963325 23.372073 16.051532 23.590272S16.183844 23.959353 16.183844 24.042919C16.183844 24.405036 16.072423 24.688229 15.849582 24.892501S15.324976 25.198907 14.94429 25.198907ZM13.189415 22.650161C13.1987 22.984423 13.252089 23.286187 13.349582 23.555453S13.563138 24.038277 13.697772 24.196122S13.983287 24.483959 14.150418 24.586094S14.463788 24.757867 14.589136 24.795008S14.823584 24.850718 14.916435 24.850718C15.194986 24.850718 15.424791 24.778759 15.60585 24.634841S15.877437 24.293615 15.877437 24.042919C15.877437 23.968638 15.842618 23.84329 15.772981 23.666874S15.601208 23.297793 15.466574 23.08888S15.139276 22.696586 14.888579 22.53874S14.359331 22.301972 14.052925 22.301972C13.477252 22.301972 13.189415 22.418035 13.189415 22.650161ZM14.554318 20.505314C14.554318 20.746725 13.871866 20.867431 12.506964 20.867431C11.89415 20.867431 11.395079 20.834934 11.009749 20.769938S10.431755 20.621377 10.431755 20.519242C10.431755 20.379966 10.557103 20.310328 10.807799 20.310328C10.835655 20.310328 11.109564 20.333541 11.629526 20.379966S12.437326 20.449604 12.493036 20.449604C12.520891 20.449604 12.792479 20.426391 13.307799 20.379966S14.108635 20.310328 14.164345 20.310328C14.424327 20.310328 14.554318 20.375323 14.554318 20.505314ZM11.37883 25.157125C11.37883 25.556382 11.420613 25.848861 11.504178 26.034562S11.805943 26.43382 12.158774 26.675231V26.995565L11.587744 27.343754V27.845147H12.103064L12.270195 28.360467H12.743733L12.924791 27.845147H13.426184V27.343754L12.869081 26.995565V26.675231C13.194057 26.461675 13.402971 26.259725 13.495822 26.069381S13.635097 25.574952 13.635097 25.157125C14.071494 25.509956 14.52182 25.686373 14.986072 25.686373C15.468896 25.686373 15.879759 25.528527 16.218663 25.212835S16.727019 24.502529 16.727019 24.028991C16.727019 23.648304 16.545961 23.207264 16.183844 22.705871C15.961003 22.399465 15.810121 22.178945 15.731198 22.044311S15.568709 21.677552 15.480501 21.347933S15.343547 20.62602 15.334262 20.171052C15.315692 19.539669 14.368617 19.223977 12.493036 19.223977C10.636031 19.223977 9.693593 19.539669 9.665738 20.171052C9.656453 20.64459 9.598422 21.064739 9.491643 21.431498S9.289694 22.046633 9.206128 22.176623S8.992572 22.487672 8.816156 22.719799C8.454039 23.211906 8.272981 23.648304 8.272981 24.028991C8.272981 24.493243 8.442433 24.885537 8.781337 25.205871C9.120241 25.526206 9.526462 25.686373 10.0 25.686373C10.482823 25.686373 10.942433 25.509956 11.37883 25.157125ZM10.041783 24.850718C10.162488 24.850718 10.308728 24.815899 10.480501 24.746261C10.652274 24.676623 10.842618 24.565203 11.051532 24.411999S11.43454 24.026669 11.573816 23.715621S11.78273 23.044775 11.78273 22.636233C11.78273 22.413392 11.499536 22.301972 10.933148 22.301972C10.617455 22.301972 10.33194 22.380895 10.076602 22.53874S9.628597 22.884608 9.498607 23.102807S9.271124 23.513671 9.206128 23.680802S9.108635 23.968639 9.108635 24.042919C9.108635 24.293615 9.199164 24.490923 9.380223 24.634841S9.781801 24.850718 10.041783 24.850718Z" fill="#da0a0a" />
<path d="M24.726027 5.550989Q24.75 5.516362 24.75 5.468417Q24.744673 5.388508 24.718037 5.372527T24.616819 5.356545Q24.462329 5.356545 24.387747 5.300609T24.294521 5.1621T24.270548 4.946347V2.831431Q24.275875 2.69825 24.294521 2.615677T24.387747 2.477169T24.616819 2.421233H24.648782Q24.702055 2.421233 24.723364 2.402588T24.75 2.309361Q24.75 2.261416 24.726027 2.226788T24.65411 2.192161Q24.307839 2.208143 24.025495 2.208143Q23.70586 2.208143 23.359589 2.192161Q23.311644 2.192161 23.287671 2.226788T23.263699 2.309361Q23.269026 2.389269 23.295662 2.405251T23.39688 2.421233Q23.55137 2.421233 23.625951 2.477169T23.719178 2.615677T23.743151 2.831431V3.795662Q23.657915 3.77968 23.55137 3.705099T23.290335 3.497336Q22.992009 3.22032 22.539193 2.682268Q22.443303 2.575723 22.443303 2.511796Q22.443303 2.431887 22.587139 2.42656Q22.624429 2.421233 22.637747 2.39726T22.66172 2.314688Q22.66172 2.266743 22.635084 2.229452T22.56583 2.192161Q22.379376 2.208143 21.979833 2.208143Q21.851979 2.208143 21.606925 2.197489L21.495053 2.192161Q21.447108 2.192161 21.420472 2.226788T21.393836 2.314688Q21.399163 2.389269 21.425799 2.407915T21.500381 2.42656Q21.71347 2.415906 21.902588 2.495814T22.299467 2.783486L23.162481 3.68379Q22.976027 3.912861 22.778919 4.120624T22.304795 4.605403Q22.166286 4.743912 21.974505 4.946347Q21.915906 5.004947 21.894597 5.031583Q21.724125 5.202055 21.625571 5.271309T21.383181 5.356545Q21.372527 5.356545 21.335236 5.359209T21.273973 5.388508T21.25 5.468417Q21.25 5.516362 21.273973 5.550989T21.34589 5.585616Q21.409817 5.580289 21.500381 5.580289Q21.692161 5.569635 21.798706 5.569635H22.13965Q22.842846 4.78653 23.39688 4.14726Q23.567352 3.950152 23.743151 3.93417V4.946347Q23.737823 5.079528 23.719178 5.1621T23.625951 5.300609T23.39688 5.356545H23.364916Q23.311644 5.356545 23.290335 5.37519T23.263699 5.468417Q23.263699 5.516362 23.287671 5.550989T23.359589 5.585616Q23.700533 5.569635 24.020167 5.569635Q24.307839 5.569635 24.65411 5.585616Q24.702055 5.585616 24.726027 5.550989Z" fill="#da0a0a" />
<path d="M22.99675 7.079085C22.953421 6.918765 22.883551 6.800691 22.787142 6.724864S22.584034 6.611123 22.467043 6.611123C22.334887 6.611123 22.221688 6.656619 22.127446 6.747612S21.986083 6.948012 21.986083 7.075835C21.986083 7.192825 22.014789 7.311982 22.072201 7.433306S22.20219 7.67162 22.289933 7.784277S22.467043 8.010134 22.558036 8.123875S22.73623 8.367063 22.81964 8.512218S22.962086 8.801444 22.99675 8.944433C23.035747 8.794945 23.098034 8.644915 23.18361 8.494344S23.357471 8.210534 23.448463 8.094627C23.539456 7.97872 23.628282 7.864979 23.714942 7.753405S23.873096 7.529715 23.929424 7.417057S24.013917 7.197158 24.013917 7.095333C24.013917 6.958844 23.967879 6.844021 23.875804 6.750861C23.783728 6.657702 23.670529 6.611123 23.536206 6.611123C23.278394 6.611123 23.098574 6.76711 22.99675 7.079085Z" fill="#da0a0a" />
<path d="M0.273973 29.449011Q0.25 29.483638 0.25 29.531583Q0.255327 29.611492 0.281963 29.627473T0.383181 29.643455Q0.537671 29.643455 0.612253 29.699391T0.705479 29.8379T0.729452 30.053653V32.168569Q0.724125 32.30175 0.705479 32.384323T0.612253 32.522831T0.383181 32.578767H0.351218Q0.297945 32.578767 0.276636 32.597412T0.25 32.690639Q0.25 32.738584 0.273973 32.773212T0.34589 32.807839Q0.692161 32.791857 0.974505 32.791857Q1.29414 32.791857 1.640411 32.807839Q1.688356 32.807839 1.712329 32.773212T1.736301 32.690639Q1.730974 32.610731 1.704338 32.594749T1.60312 32.578767Q1.44863 32.578767 1.374049 32.522831T1.280822 32.384323T1.256849 32.168569V31.204338Q1.342085 31.22032 1.44863 31.294901T1.709665 31.502664Q2.007991 31.77968 2.460807 32.317732Q2.556697 32.424277 2.556697 32.488204Q2.556697 32.568113 2.412861 32.57344Q2.375571 32.578767 2.362253 32.60274T2.33828 32.685312Q2.33828 32.733257 2.364916 32.770548T2.43417 32.807839Q2.620624 32.791857 3.020167 32.791857Q3.148021 32.791857 3.393075 32.802511L3.504947 32.807839Q3.552892 32.807839 3.579528 32.773212T3.606164 32.685312Q3.600837 32.610731 3.574201 32.592085T3.499619 32.57344Q3.28653 32.584094 3.097412 32.504186T2.700533 32.216514L1.837519 31.31621Q2.023973 31.087139 2.221081 30.879376T2.695205 30.394597Q2.833714 30.256088 3.025495 30.053653Q3.084094 29.995053 3.105403 29.968417Q3.275875 29.797945 3.374429 29.728691T3.616819 29.643455Q3.627473 29.643455 3.664764 29.640791T3.726027 29.611492T3.75 29.531583Q3.75 29.483638 3.726027 29.449011T3.65411 29.414384Q3.590183 29.419711 3.499619 29.419711Q3.307839 29.430365 3.201294 29.430365H2.86035Q2.157154 30.21347 1.60312 30.85274Q1.432648 31.049848 1.256849 31.06583V30.053653Q1.262177 29.920472 1.280822 29.8379T1.374049 29.699391T1.60312 29.643455H1.635084Q1.688356 29.643455 1.709665 29.62481T1.736301 29.531583Q1.736301 29.483638 1.712329 29.449011T1.640411 29.414384Q1.299467 29.430365 0.979833 29.430365Q0.692161 29.430365 0.34589 29.414384Q0.297945 29.414384 0.273973 29.449011Z" fill="#da0a0a" />
<path d="M2.00325 27.920915C2.046579 28.081235 2.116449 28.199309 2.212858 28.275136S2.415966 28.388877 2.532957 28.388877C2.665113 28.388877 2.778312 28.343381 2.872554 28.252388S3.013917 28.051988 3.013917 27.924165C3.013917 27.807175 2.985211 27.688018 2.927799 27.566694S2.79781 27.32838 2.710067 27.215723S2.532957 26.989866 2.441964 26.876125S2.26377 26.632937 2.18036 26.487782S2.037914 26.198556 2.00325 26.055567C1.964253 26.205055 1.901966 26.355085 1.81639 26.505656S1.642529 26.789466 1.551537 26.905373C1.460544 27.02128 1.371718 27.135021 1.285058 27.246595S1.126904 27.470285 1.070576 27.582943S0.986083 27.802842 0.986083 27.904667C0.986083 28.041156 1.032121 28.155979 1.124196 28.249139C1.216272 28.342298 1.329471 28.388877 1.463794 28.388877C1.721606 28.388877 1.901426 28.23289 2.00325 27.920915Z" fill="#da0a0a" />
</svg>
