<svg width="150.000000" height="210.000000" id="card-webdiamond3">
<radialGradient id="card-webwhitegradient" cx="75.0" cy="105.0" r="150" gradientTransform="matrix(1 0 0 1 0 -.25)" gradientUnits="userSpaceOnUse">
<stop stop-color="#FDFAF4" offset=".15"/>
<stop stop-color="#FDF9F2" offset=".35"/>
<stop stop-color="#FCF7F1" offset=".5"/>
<stop stop-color="#FDFDF8" offset=".75"/>
<stop stop-color="#FFFDFA" offset="1"/>
</radialGradient>
<rect x="0" y="0" rx="7.5" ry="7.5" width="150" height="210.0" stroke="#010101" fill="url(#card-webwhitegradient)" />
<path d="M75.041725 20.0C74.374131 21.335188 72.760777 23.734353 70.201669 27.197497C67.642561 30.66064 65.584131 33.254534 64.026426 34.979138C65.973576 37.204449 68.066758 39.847024 70.305981 42.906815C72.545203 45.966619 74.123783 48.331015 75.041725 50.0C77.100138 46.328234 80.744103 41.32128 85.973574 34.979138C80.604993 28.497928 76.961057 23.504868 75.041725 20.0Z" fill="#da0a0a" />
<path d="M74.958275 190.0C75.625869 188.664812 77.239223 186.265647 79.798331 182.802503C82.357439 179.33936 84.415869 176.745466 85.973574 175.020862C84.026424 172.795551 81.933242 170.152976 79.694019 167.093185C77.454797 164.033381 75.876217 161.668985 74.958275 160.0C72.899862 163.671766 69.255897 168.67872 64.026426 175.020862C69.395007 181.502072 73.038943 186.495132 74.958275 190.0Z" fill="#da0a0a" />
<path d="M75.041725 90.0C74.374131 91.335188 72.760777 93.734353 70.201669 97.197497C67.642561 100.66064 65.584131 103.254534 64.026426 104.979138C65.973576 107.204449 68.066758 109.847024 70.305981 112.906815C72.545203 115.966619 74.123783 118.331015 75.041725 120.0C77.100138 116.328234 80.744103 111.32128 85.973574 104.979138C80.604993 98.497928 76.961057 93.504868 75.041725 90.0Z" fill="#da0a0a" />
<path d="M143.326087 32.749094Q145.247283 31.664855 145.247283 29.572464Q145.247283 28.469203 144.5625 27.67029T142.660326 26.871377Q141.9375 26.871377 141.423913 27.251812T140.910326 27.898551Q140.910326 27.936594 141.252717 28.183877T141.880435 28.849638T142.165761 29.914855Q142.165761 31.094203 141.157609 31.759964T138.513587 32.425725Q134.442935 32.425725 134.442935 27.898551Q134.442935 26.03442 135.432065 24.912138T138.399457 23.675725H139.807065Q140.07337 23.675725 140.225543 23.447464T140.377717 22.914855Q140.377717 22.572464 140.225543 22.325181T139.807065 22.039855H138.399457Q136.915761 21.887681 136.021739 20.708333T135.127717 17.855072Q135.127717 16.028986 136.154891 15.058877T138.55163 14.088768Q139.845109 14.088768 140.777174 14.830616T141.709239 16.865942Q141.709239 17.702899 141.38587 17.988225T140.758152 18.330616T140.453804 18.425725Q140.453804 18.692029 140.967391 19.072464T142.203804 19.452899Q143.421196 19.452899 144.105978 18.692029T144.790761 16.751812Q144.790761 14.887681 143.040761 13.860507T138.513587 12.833333Q135.546196 12.833333 133.605978 14.126812T131.665761 17.855072Q131.665761 19.452899 132.788043 20.822464T136.002717 22.762681V22.914855Q133.872283 23.143116 132.3125 24.265399T130.752717 27.822464Q130.752717 30.903986 132.997283 32.368659T138.627717 33.833333Q141.404891 33.833333 143.326087 32.749094Z" fill="#da0a0a" />
<path d="M138.019471 39.666737C137.707931 40.289818 136.95504 41.409417 135.760801 43.025535C134.566563 44.641652 133.605972 45.852124 132.87905 46.656931C133.787711 47.695399 134.764519 48.928588 135.809479 50.356477C136.85444 51.784371 137.591103 52.887745 138.019471 53.666597C138.980054 51.953123 140.680555 49.616568 143.12095 46.656931C140.615637 43.632397 138.915151 41.302325 138.019471 39.666737Z" fill="#da0a0a" />
<path d="M6.673913 177.250906Q4.752717 178.335145 4.752717 180.427536Q4.752717 181.530797 5.4375 182.32971T7.339674 183.128623Q8.0625 183.128623 8.576087 182.748188T9.089674 182.101449Q9.089674 182.063406 8.747283 181.816123T8.119565 181.150362T7.834239 180.085145Q7.834239 178.905797 8.842391 178.240036T11.486413 177.574275Q15.557065 177.574275 15.557065 182.101449Q15.557065 183.96558 14.567935 185.087862T11.600543 186.324275H10.192935Q9.92663 186.324275 9.774457 186.552536T9.622283 187.085145Q9.622283 187.427536 9.774457 187.674819T10.192935 187.960145H11.600543Q13.084239 188.112319 13.978261 189.291667T14.872283 192.144928Q14.872283 193.971014 13.845109 194.941123T11.44837 195.911232Q10.154891 195.911232 9.222826 195.169384T8.290761 193.134058Q8.290761 192.297101 8.61413 192.011775T9.241848 191.669384T9.546196 191.574275Q9.546196 191.307971 9.032609 190.927536T7.796196 190.547101Q6.578804 190.547101 5.894022 191.307971T5.209239 193.248188Q5.209239 195.112319 6.959239 196.139493T11.486413 197.166667Q14.453804 197.166667 16.394022 195.873188T18.334239 192.144928Q18.334239 190.547101 17.211957 189.177536T13.997283 187.237319V187.085145Q16.127717 186.856884 17.6875 185.734601T19.247283 182.177536Q19.247283 179.096014 17.002717 177.631341T11.372283 176.166667Q8.595109 176.166667 6.673913 177.250906Z" fill="#da0a0a" />
<path d="M11.980529 170.333263C12.292069 169.710182 13.04496 168.590583 14.239199 166.974465C15.433437 165.358348 16.394028 164.147876 17.12095 163.343069C16.212289 162.304601 15.235481 161.071412 14.190521 159.643523C13.14556 158.215629 12.408897 157.112255 11.980529 156.333403C11.019946 158.046877 9.319445 160.383432 6.87905 163.343069C9.384363 166.367603 11.084849 168.697675 11.980529 170.333263Z" fill="#da0a0a" />
</svg>
