<svg width="500.000000" height="700.000000" id="card-realspade11">
<radialGradient id="card-realwhitegradient" cx="250.0" cy="350.0" r="500" gradientTransform="matrix(1 0 0 1 0 -.25)" gradientUnits="userSpaceOnUse">
<stop stop-color="#FDFAF4" offset=".15"/>
<stop stop-color="#FDF9F2" offset=".35"/>
<stop stop-color="#FCF7F1" offset=".5"/>
<stop stop-color="#FDFDF8" offset=".75"/>
<stop stop-color="#FFFDFA" offset="1"/>
</radialGradient>
<rect x="0" y="0" rx="25.0" ry="25.0" width="500" height="700.0" stroke="#010101" fill="url(#card-realwhitegradient)" />
<rect x="100.0" y="70.0" width="300.0" height="560.0" stroke="#010101" fill="#fffdfa" />
<path d="M296.099291 206.708747C292.695035 206.708747 288.628851 204.864775 283.900709 201.176832S276.808511 194.131924 276.808511 191.10591C276.808511 188.64728 279.078014 187.417967 283.617021 187.417967C287.399518 187.417967 291.040199 188.930968 294.539007 191.956974S299.787234 198.198109 299.787234 201.602364S298.557921 206.708747 296.099291 206.708747ZM335.248227 253.23357C334.113475 246.235924 327.87234 230.727669 316.524823 206.708747S299.503546 167.086903 299.503546 159.900236C299.503546 154.226478 299.97636 149.120095 300.921986 144.581087C285.981078 144.581087 275.390071 147.701655 269.148936 153.94279C263.664312 145.05391 259.503546 140.609456 256.666667 140.609456C251.560284 143.446336 248.203319 146.09408 246.595745 148.552719S242.955092 156.023158 240.496454 163.58818C238.983452 163.20993 237.47044 163.020804 235.957447 163.020804C231.985816 163.020804 227.304965 164.060994 221.914894 166.141371S210.425532 172.146109 203.617021 177.914421S190.567376 190.869513 184.893617 199.474704S174.444454 219.758392 170.567376 234.510165S164.751773 265.810307 164.751773 284.155556C164.751773 292.855329 165.130023 300.704009 165.886525 307.701655H285.602837C285.413711 299.380151 283.711583 291.862421 280.496454 285.148463S273.829787 273.186279 270.141844 269.403783C266.453901 265.621286 262.907801 260.987697 259.503546 255.503073S254.018922 244.34469 253.262411 238.481797C260.449163 241.318676 266.690298 245.101173 271.985816 249.829314S280.969277 258.860038 283.049645 262.737116S287.163121 270.018449 289.148936 272.949882C291.134752 275.881314 293.073277 277.347045 294.964539 277.347045C299.692681 277.347045 302.056738 274.415612 302.056738 268.552719C303.947991 271.011348 306.122922 272.240662 308.58156 272.240662L314.255319 270.822222C320.118213 269.309221 324.420794 267.370676 327.163121 265.006619C329.905438 262.642554 332.600482 258.718194 335.248227 253.23357ZM317.943262 244.155556C320.591016 244.155556 322.860511 245.006619 324.751773 246.708747S327.588652 250.491243 327.588652 252.949882C327.588652 253.706384 327.304965 254.652009 326.737589 255.786761C324.089835 255.786761 321.867603 255.030259 320.070922 253.517258S317.375887 250.018449 317.375887 247.559811C317.375887 247.181561 317.565012 246.046809 317.943262 244.155556ZM178.652482 287.843499C178.652482 273.848236 180.307328 260.514903 183.617021 247.843499S191.087461 224.581087 196.099291 216.070449S206.548454 200.136634 212.411348 193.800946C218.274241 187.465258 223.758865 182.831669 228.865248 179.900236S238.321504 175.503073 241.914894 175.503073C245.508284 175.881323 247.304965 177.110639 247.304965 179.191017C247.304965 180.325768 247.021277 181.08227 246.453901 181.46052C227.730496 190.916775 213.498723 205.432151 203.758865 225.006619S189.148936 265.432151 189.148936 287.559811C189.148936 292.666194 187.352247 295.219385 183.758865 295.219385C180.35461 295.219385 178.652482 292.760756 178.652482 287.843499Z" fill="#010101" />
<path d="M203.900709 493.291253C207.304965 493.291253 211.371149 495.135225 216.099291 498.823168S223.191489 505.868076 223.191489 508.89409C223.191489 511.35272 220.921986 512.582033 216.382979 512.582033C212.600482 512.582033 208.959801 511.069032 205.460993 508.043026S200.212766 501.801891 200.212766 498.397636S201.442079 493.291253 203.900709 493.291253ZM164.751773 446.76643C165.886525 453.764076 172.12766 469.272331 183.475177 493.291253S200.496454 532.913097 200.496454 540.099764C200.496454 545.773522 200.02364 550.879905 199.078014 555.418913C214.018922 555.418913 224.609929 552.298345 230.851064 546.05721C236.335688 554.94609 240.496454 559.390544 243.333333 559.390544C248.439716 556.553664 251.796681 553.90592 253.404255 551.447281S257.044908 543.976842 259.503546 536.41182C261.016548 536.79007 262.52956 536.979196 264.042553 536.979196C268.014184 536.979196 272.695035 535.939006 278.085106 533.858629S289.574468 527.853891 296.382979 522.085579S309.432624 509.130487 315.106383 500.525296S325.555546 480.241608 329.432624 465.489835S335.248227 434.189693 335.248227 415.844444C335.248227 407.144671 334.869977 399.295991 334.113475 392.298345H214.397163C214.586289 400.619849 216.288417 408.137579 219.503546 414.851537S226.170213 426.813721 229.858156 430.596217C233.546099 434.378714 237.092199 439.012303 240.496454 444.496927S245.981078 455.65531 246.737589 461.518203C239.550837 458.681324 233.309702 454.898827 228.014184 450.170686S219.030723 441.139962 216.950355 437.262884S212.836879 429.981551 210.851064 427.050118C208.865248 424.118686 206.926723 422.652955 205.035461 422.652955C200.307319 422.652955 197.943262 425.584388 197.943262 431.447281C196.052009 428.988652 193.877078 427.759338 191.41844 427.759338L185.744681 429.177778C179.881787 430.690779 175.579206 432.629324 172.836879 434.993381C170.094562 437.357446 167.399518 441.281806 164.751773 446.76643ZM182.056738 455.844444C179.408984 455.844444 177.139489 454.993381 175.248227 453.291253S172.411348 449.508757 172.411348 447.050118C172.411348 446.293616 172.695035 445.347991 173.262411 444.213239C175.910165 444.213239 178.132397 444.969741 179.929078 446.482742S182.624113 449.981551 182.624113 452.440189C182.624113 452.818439 182.434988 453.953191 182.056738 455.844444ZM321.347518 412.156501C321.347518 426.151764 319.692672 439.485097 316.382979 452.156501S308.912539 475.418913 303.900709 483.929551S293.451546 499.863366 287.588652 506.199054C281.725759 512.534742 276.241135 517.168331 271.134752 520.099764S261.678496 524.496927 258.085106 524.496927C254.491716 524.118677 252.695035 522.889361 252.695035 520.808983C252.695035 519.674232 252.978723 518.91773 253.546099 518.53948C272.269504 509.083225 286.501277 494.567849 296.241135 474.993381S310.851064 434.567849 310.851064 412.440189C310.851064 407.333806 312.647753 404.780615 316.241135 404.780615C319.64539 404.780615 321.347518 407.239244 321.347518 412.156501Z" fill="#010101" />
<path d="M471.525424 112.777778Q472.711864 112.777778 473.135593 111.3371Q473.220339 111.082863 473.220339 110.574388Q473.220339 109.557439 472.288136 109.218456Q468.050847 107.438795 466.016949 104.13371T463.389831 95.955744T462.79661 82.777778V52.947269Q462.881356 50.828625 463.177966 49.515066T464.661017 47.311676T468.305085 46.421846H468.813559Q469.661017 46.421846 470.042373 46.125235T470.508475 44.642185Q470.508475 43.879473 470.084746 43.328625T468.983051 42.777778Q463.559322 43.032015 458.898305 43.032015Q453.728814 43.032015 448.305085 42.777778Q447.542373 42.777778 447.161017 43.328625T446.779661 44.642185Q446.864407 45.913371 447.330508 46.167608T448.983051 46.421846Q451.440678 46.421846 452.627119 47.311676T454.110169 49.515066T454.491525 52.947269V85.659134Q454.491525 96.591337 458.347458 103.582863T471.186441 112.777778H471.525424Z" fill="#010101" />
<path d="M458.907812 163.134676C458.687169 165.429375 458.135556 167.459296 457.252983 169.22445C456.370409 170.989604 455.443704 172.33553 454.472869 173.262234S452.277459 174.983257 450.799146 175.645189C449.320834 176.307121 448.184515 176.737377 447.390197 176.935956S445.625043 177.322083 444.477697 177.498599C444.301181 177.542727 444.168795 177.564792 444.080537 177.564792V178.888656H475.919463V177.564792C472.168513 176.90286 469.322206 175.932024 467.380541 174.652291C463.673722 172.181081 461.577602 168.341876 461.092188 163.134676C463.386887 166.664977 466.343512 168.430131 469.962075 168.430131C472.300899 168.430131 474.297729 167.613751 475.952559 165.980983S478.434804 162.36242 478.434804 160.023596C478.434804 158.0378 477.949387 156.228522 476.978554 154.595754C476.007718 152.962987 474.750047 151.47364 473.205542 150.127714S470.0724 147.380696 468.439632 145.924446C466.806864 144.468196 465.196166 142.559628 463.607529 140.198735S460.805353 135.179087 459.966903 132.222456C459.216716 135.134956 458.058335 137.760621 456.491761 140.099445S453.314488 144.33581 451.659658 145.79206S448.405157 148.660429 446.860651 150.028424S444.047441 152.896793 443.054543 154.529561S441.565196 157.993669 441.565196 160.023596C441.565196 162.36242 442.392611 164.348216 444.047441 165.980983S447.699101 168.430131 450.037925 168.430131C453.656488 168.430131 456.613113 166.664977 458.907812 163.134676Z" fill="#010101" />
<path d="M28.474576 587.222222Q27.288136 587.222222 26.864407 588.6629Q26.779661 588.917137 26.779661 589.425612Q26.779661 590.442561 27.711864 590.781544Q31.949153 592.561205 33.983051 595.86629T36.610169 604.044256T37.20339 617.222222V647.052731Q37.118644 649.171375 36.822034 650.484934T35.338983 652.688324T31.694915 653.578154H31.186441Q30.338983 653.578154 29.957627 653.874765T29.491525 655.357815Q29.491525 656.120527 29.915254 656.671375T31.016949 657.222222Q36.440678 656.967985 41.101695 656.967985Q46.271186 656.967985 51.694915 657.222222Q52.457627 657.222222 52.838983 656.671375T53.220339 655.357815Q53.135593 654.086629 52.669492 653.832392T51.016949 653.578154Q48.559322 653.578154 47.372881 652.688324T45.889831 650.484934T45.508475 647.052731V614.340866Q45.508475 603.408663 41.652542 596.417137T28.813559 587.222222H28.474576Z" fill="#010101" />
<path d="M41.092188 536.865324C41.312831 534.570625 41.864444 532.540704 42.747017 530.77555C43.629591 529.010396 44.556296 527.66447 45.527131 526.737766S47.722541 525.016743 49.200854 524.354811C50.679166 523.692879 51.815485 523.262623 52.609803 523.064044S54.374957 522.677917 55.522303 522.501401C55.698819 522.457273 55.831205 522.435208 55.919463 522.435208V521.111344H24.080537V522.435208C27.831487 523.09714 30.677794 524.067976 32.619459 525.347709C36.326278 527.818919 38.422398 531.658124 38.907812 536.865324C36.613113 533.335023 33.656488 531.569869 30.037925 531.569869C27.699101 531.569869 25.702271 532.386249 24.047441 534.019017S21.565196 537.63758 21.565196 539.976404C21.565196 541.9622 22.050613 543.771478 23.021446 545.404246C23.992282 547.037013 25.249953 548.52636 26.794458 549.872286S29.9276 552.619304 31.560368 554.075554C33.193136 555.531804 34.803834 557.440372 36.392471 559.801265S39.194647 564.820913 40.033097 567.777544C40.783284 564.865044 41.941665 562.239379 43.508239 559.900555S46.685512 555.66419 48.340342 554.20794S51.594843 551.339571 53.139349 549.971576S55.952559 547.103207 56.945457 545.470439S58.434804 542.006331 58.434804 539.976404C58.434804 537.63758 57.607389 535.651784 55.952559 534.019017S52.300899 531.569869 49.962075 531.569869C46.343512 531.569869 43.386887 533.335023 41.092188 536.865324Z" fill="#010101" />
</svg>
