<svg width="150.000000" height="210.000000" id="card-webdiamond9">
<radialGradient id="card-webwhitegradient" cx="75.0" cy="105.0" r="150" gradientTransform="matrix(1 0 0 1 0 -.25)" gradientUnits="userSpaceOnUse">
<stop stop-color="#FDFAF4" offset=".15"/>
<stop stop-color="#FDF9F2" offset=".35"/>
<stop stop-color="#FCF7F1" offset=".5"/>
<stop stop-color="#FDFDF8" offset=".75"/>
<stop stop-color="#FFFDFA" offset="1"/>
</radialGradient>
<rect x="0" y="0" rx="7.5" ry="7.5" width="150" height="210.0" stroke="#010101" fill="url(#card-webwhitegradient)" />
<path d="M45.041725 20.0C44.374131 21.335188 42.760777 23.734353 40.201669 27.197497C37.642561 30.66064 35.584131 33.254534 34.026426 34.979138C35.973576 37.204449 38.066758 39.847024 40.305981 42.906815C42.545203 45.966619 44.123783 48.331015 45.041725 50.0C47.100138 46.328234 50.744103 41.32128 55.973574 34.979138C50.604993 28.497928 46.961057 23.504868 45.041725 20.0Z" fill="#da0a0a" />
<path d="M44.958275 190.0C45.625869 188.664812 47.239223 186.265647 49.798331 182.802503C52.357439 179.33936 54.415869 176.745466 55.973574 175.020862C54.026424 172.795551 51.933242 170.152976 49.694019 167.093185C47.454797 164.033381 45.876217 161.668985 44.958275 160.0C42.899862 163.671766 39.255897 168.67872 34.026426 175.020862C39.395007 181.502072 43.038943 186.495132 44.958275 190.0Z" fill="#da0a0a" />
<path d="M45.041725 66.666667C44.374131 68.001854 42.760777 70.40102 40.201669 73.864163C37.642561 77.327306 35.584131 79.921201 34.026426 81.645804C35.973576 83.871116 38.066758 86.51369 40.305981 89.573482C42.545203 92.633286 44.123783 94.997682 45.041725 96.666667C47.100138 92.9949 50.744103 87.987946 55.973574 81.645804C50.604993 75.164594 46.961057 70.171535 45.041725 66.666667Z" fill="#da0a0a" />
<path d="M44.958275 143.333333C45.625869 141.998146 47.239223 139.59898 49.798331 136.135837C52.357439 132.672694 54.415869 130.078799 55.973574 128.354196C54.026424 126.128884 51.933242 123.48631 49.694019 120.426518C47.454797 117.366714 45.876217 115.002318 44.958275 113.333333C42.899862 117.0051 39.255897 122.012054 34.026426 128.354196C39.395007 134.835406 43.038943 139.828465 44.958275 143.333333Z" fill="#da0a0a" />
<path d="M105.041725 20.0C104.374131 21.335188 102.760777 23.734353 100.201669 27.197497C97.642561 30.66064 95.584131 33.254534 94.026426 34.979138C95.973576 37.204449 98.066758 39.847024 100.305981 42.906815C102.545203 45.966619 104.123783 48.331015 105.041725 50.0C107.100138 46.328234 110.744103 41.32128 115.973574 34.979138C110.604993 28.497928 106.961057 23.504868 105.041725 20.0Z" fill="#da0a0a" />
<path d="M104.958275 190.0C105.625869 188.664812 107.239223 186.265647 109.798331 182.802503C112.357439 179.33936 114.415869 176.745466 115.973574 175.020862C114.026424 172.795551 111.933242 170.152976 109.694019 167.093185C107.454797 164.033381 105.876217 161.668985 104.958275 160.0C102.899862 163.671766 99.255897 168.67872 94.026426 175.020862C99.395007 181.502072 103.038943 186.495132 104.958275 190.0Z" fill="#da0a0a" />
<path d="M105.041725 66.666667C104.374131 68.001854 102.760777 70.40102 100.201669 73.864163C97.642561 77.327306 95.584131 79.921201 94.026426 81.645804C95.973576 83.871116 98.066758 86.51369 100.305981 89.573482C102.545203 92.633286 104.123783 94.997682 105.041725 96.666667C107.100138 92.9949 110.744103 87.987946 115.973574 81.645804C110.604993 75.164594 106.961057 70.171535 105.041725 66.666667Z" fill="#da0a0a" />
<path d="M104.958275 143.333333C105.625869 141.998146 107.239223 139.59898 109.798331 136.135837C112.357439 132.672694 114.415869 130.078799 115.973574 128.354196C114.026424 126.128884 111.933242 123.48631 109.694019 120.426518C107.454797 117.366714 105.876217 115.002318 104.958275 113.333333C102.899862 117.0051 99.255897 122.012054 94.026426 128.354196C99.395007 134.835406 103.038943 139.828465 104.958275 143.333333Z" fill="#da0a0a" />
<path d="M75.041725 43.333333C74.374131 44.668521 72.760777 47.067687 70.201669 50.53083C67.642561 53.993973 65.584131 56.587867 64.026426 58.312471C65.973576 60.537783 68.066758 63.180357 70.305981 66.240148C72.545203 69.299952 74.123783 71.664349 75.041725 73.333333C77.100138 69.661567 80.744103 64.654613 85.973574 58.312471C80.604993 51.831261 76.961057 46.838201 75.041725 43.333333Z" fill="#da0a0a" />
<path d="M142.386076 33.833333Q143.14557 33.833333 143.14557 33.149789Q143.14557 32.542194 142.462025 32.352321Q135.512658 30.187764 134.183544 24.567511Q135.436709 25.402954 136.670886 25.744726T139.234177 26.086498Q141.056962 26.086498 142.575949 25.270042T144.968354 23.029536T145.841772 19.7827Q145.841772 17.732068 144.740506 16.156118T141.85443 13.706751T138.056962 12.833333Q134.449367 12.833333 132.303797 15.07384T130.158228 21.187764Q130.158228 24.263713 131.620253 26.921941T135.740506 31.383966T141.816456 33.795359Q142.006329 33.833333 142.386076 33.833333ZM135.968354 23.902954Q134.943038 23.42827 134.031646 22.630802Q133.803797 21.719409 133.803797 21.149789Q133.803797 19.630802 134.202532 17.99789T135.56962 15.206751T138.056962 14.048523Q139.841772 14.048523 141.018987 15.548523T142.196203 19.440928Q142.196203 21.681435 141.018987 23.029536T137.943038 24.377637Q136.993671 24.377637 135.968354 23.902954Z" fill="#da0a0a" />
<path d="M138.019471 39.666737C137.707931 40.289818 136.95504 41.409417 135.760801 43.025535C134.566563 44.641652 133.605972 45.852124 132.87905 46.656931C133.787711 47.695399 134.764519 48.928588 135.809479 50.356477C136.85444 51.784371 137.591103 52.887745 138.019471 53.666597C138.980054 51.953123 140.680555 49.616568 143.12095 46.656931C140.615637 43.632397 138.915151 41.302325 138.019471 39.666737Z" fill="#da0a0a" />
<path d="M7.613924 176.166667Q6.85443 176.166667 6.85443 176.850211Q6.85443 177.457806 7.537975 177.647679Q14.487342 179.812236 15.816456 185.432489Q14.563291 184.597046 13.329114 184.255274T10.765823 183.913502Q8.943038 183.913502 7.424051 184.729958T5.031646 186.970464T4.158228 190.2173Q4.158228 192.267932 5.259494 193.843882T8.14557 196.293249T11.943038 197.166667Q15.550633 197.166667 17.696203 194.92616T19.841772 188.812236Q19.841772 185.736287 18.379747 183.078059T14.259494 178.616034T8.183544 176.204641Q7.993671 176.166667 7.613924 176.166667ZM14.031646 186.097046Q15.056962 186.57173 15.968354 187.369198Q16.196203 188.280591 16.196203 188.850211Q16.196203 190.369198 15.797468 192.00211T14.43038 194.793249T11.943038 195.951477Q10.158228 195.951477 8.981013 194.451477T7.803797 190.559072Q7.803797 188.318565 8.981013 186.970464T12.056962 185.622363Q13.006329 185.622363 14.031646 186.097046Z" fill="#da0a0a" />
<path d="M11.980529 170.333263C12.292069 169.710182 13.04496 168.590583 14.239199 166.974465C15.433437 165.358348 16.394028 164.147876 17.12095 163.343069C16.212289 162.304601 15.235481 161.071412 14.190521 159.643523C13.14556 158.215629 12.408897 157.112255 11.980529 156.333403C11.019946 158.046877 9.319445 160.383432 6.87905 163.343069C9.384363 166.367603 11.084849 168.697675 11.980529 170.333263Z" fill="#da0a0a" />
</svg>
