<svg width="25.000000" height="35.000000" id="card-lightdiamond4">
<rect x="0" y="0" rx="1.25" ry="1.25" width="25" height="35.0" stroke="#010101" fill="#fffdfa" />
<path d="M7.506954 3.333333C7.395688 3.555865 7.126796 3.955726 6.700278 4.532916C6.27376 5.110107 5.930688 5.542422 5.671071 5.829856C5.995596 6.200742 6.34446 6.641171 6.717663 7.151136C7.090867 7.661103 7.353964 8.055169 7.506954 8.333333C7.850023 7.721372 8.45735 6.88688 9.328929 5.829856C8.434166 4.749655 7.826843 3.917478 7.506954 3.333333Z" fill="#da0a0a" />
<path d="M7.493046 31.666667C7.604312 31.444135 7.873204 31.044274 8.299722 30.467084C8.72624 29.889893 9.069312 29.457578 9.328929 29.170144C9.004404 28.799258 8.65554 28.358829 8.282337 27.848864C7.909133 27.338897 7.646036 26.944831 7.493046 26.666667C7.149977 27.278628 6.54265 28.11312 5.671071 29.170144C6.565834 30.250345 7.173157 31.082522 7.493046 31.666667Z" fill="#da0a0a" />
<path d="M17.506954 3.333333C17.395688 3.555865 17.126796 3.955726 16.700278 4.532916C16.27376 5.110107 15.930688 5.542422 15.671071 5.829856C15.995596 6.200742 16.34446 6.641171 16.717663 7.151136C17.090867 7.661103 17.353964 8.055169 17.506954 8.333333C17.850023 7.721372 18.45735 6.88688 19.328929 5.829856C18.434166 4.749655 17.826843 3.917478 17.506954 3.333333Z" fill="#da0a0a" />
<path d="M17.493046 31.666667C17.604312 31.444135 17.873204 31.044274 18.299722 30.467084C18.72624 29.889893 19.069312 29.457578 19.328929 29.170144C19.004404 28.799258 18.65554 28.358829 18.282337 27.848864C17.909133 27.338897 17.646036 26.944831 17.493046 26.666667C17.149977 27.278628 16.54265 28.11312 15.671071 29.170144C16.565834 30.250345 17.173157 31.082522 17.493046 31.666667Z" fill="#da0a0a" />
<path d="M22.599359 5.606838Q22.682692 5.574786 22.689103 5.517094V4.536325H24.221154Q24.323718 4.536325 24.375 4.472222T24.426282 4.311966Q24.426282 4.228632 24.38141 4.17094L22.580128 2.202991Q22.516026 2.138889 22.38141 2.138889Q22.278846 2.138889 22.208333 2.193376T22.13141 2.363248V4.222222H21.746795Q21.657051 4.222222 21.61859 4.244658T21.573718 4.376068Q21.573718 4.446581 21.602564 4.491453T21.695513 4.536325H22.13141V5.517094Q22.13141 5.574786 22.214744 5.606838T22.407051 5.638889T22.599359 5.606838ZM24.054487 4.222222H22.689103V2.702991Z" fill="#da0a0a" />
<path d="M23.003245 6.611123C22.951322 6.71497 22.82584 6.90157 22.6268 7.170922C22.42776 7.440275 22.267662 7.642021 22.146508 7.776155C22.297952 7.949233 22.460753 8.154765 22.634913 8.392746C22.809073 8.630728 22.93185 8.814624 23.003245 8.944433C23.163342 8.658854 23.446759 8.269428 23.853492 7.776155C23.43594 7.272066 23.152525 6.883721 23.003245 6.611123Z" fill="#da0a0a" />
<path d="M2.400641 29.393162Q2.317308 29.425214 2.310897 29.482906V30.463675H0.778846Q0.676282 30.463675 0.625 30.527778T0.573718 30.688034Q0.573718 30.771368 0.61859 30.82906L2.419872 32.797009Q2.483974 32.861111 2.61859 32.861111Q2.721154 32.861111 2.791667 32.806624T2.86859 32.636752V30.777778H3.253205Q3.342949 30.777778 3.38141 30.755342T3.426282 30.623932Q3.426282 30.553419 3.397436 30.508547T3.304487 30.463675H2.86859V29.482906Q2.86859 29.425214 2.785256 29.393162T2.592949 29.361111T2.400641 29.393162ZM0.945513 30.777778H2.310897V32.297009Z" fill="#da0a0a" />
<path d="M1.996755 28.388877C2.048678 28.28503 2.17416 28.09843 2.3732 27.829078C2.57224 27.559725 2.732338 27.357979 2.853492 27.223845C2.702048 27.050767 2.539247 26.845235 2.365087 26.607254C2.190927 26.369272 2.06815 26.185376 1.996755 26.055567C1.836658 26.341146 1.553241 26.730572 1.146508 27.223845C1.56406 27.727934 1.847475 28.116279 1.996755 28.388877Z" fill="#da0a0a" />
</svg>
