<svg width="500.000000" height="700.000000" id="card-realspade3">
<radialGradient id="card-realwhitegradient" cx="250.0" cy="350.0" r="500" gradientTransform="matrix(1 0 0 1 0 -.25)" gradientUnits="userSpaceOnUse">
<stop stop-color="#FDFAF4" offset=".15"/>
<stop stop-color="#FDF9F2" offset=".35"/>
<stop stop-color="#FCF7F1" offset=".5"/>
<stop stop-color="#FDFDF8" offset=".75"/>
<stop stop-color="#FFFDFA" offset="1"/>
</radialGradient>
<rect x="0" y="0" rx="25.0" ry="25.0" width="500" height="700.0" stroke="#010101" fill="url(#card-realwhitegradient)" />
<path d="M247.659574 132.907801C247.186762 137.825064 246.004723 142.174936 244.113475 145.957447C242.222227 149.739957 240.236411 152.624113 238.156028 154.609929S233.451532 158.297872 230.283688 159.716312C227.115844 161.134752 224.680851 162.056738 222.978723 162.48227S219.196213 163.309692 216.737589 163.687943C216.359338 163.782506 216.07565 163.829787 215.886525 163.829787V166.666667H284.113475V163.829787C276.075645 162.411348 269.976355 160.330965 265.815603 157.588652C257.87234 152.293149 253.38061 144.066199 252.340426 132.907801C257.257688 140.472809 263.593376 144.255319 271.347518 144.255319C276.359333 144.255319 280.638298 142.505915 284.184397 139.007092S289.503546 131.25295 289.503546 126.241135C289.503546 121.985816 288.463357 118.108752 286.382979 114.609929C284.302596 111.111106 281.60756 107.919617 278.297872 105.035461S271.583929 99.148936 268.085106 96.028369C264.586284 92.907801 261.134752 88.817972 257.730496 83.758865S251.725773 73.002369 249.929078 66.666667C248.321518 72.907801 245.839248 78.534284 242.48227 83.546099S235.673759 92.624113 232.12766 95.744681S225.15366 101.891248 221.843972 104.822695S215.815603 110.969262 213.687943 114.468085S210.496454 121.891248 210.496454 126.241135C210.496454 131.25295 212.269504 135.50827 215.815603 139.007092S223.640667 144.255319 228.652482 144.255319C236.406624 144.255319 242.742312 140.472809 247.659574 132.907801Z" fill="#010101" />
<path d="M252.340426 567.092199C252.813238 562.174936 253.995277 557.825064 255.886525 554.042553C257.777773 550.260043 259.763589 547.375887 261.843972 545.390071S266.548468 541.702128 269.716312 540.283688C272.884156 538.865248 275.319149 537.943262 277.021277 537.51773S280.803787 536.690308 283.262411 536.312057C283.640662 536.217494 283.92435 536.170213 284.113475 536.170213V533.333333H215.886525V536.170213C223.924355 537.588652 230.023645 539.669035 234.184397 542.411348C242.12766 547.706851 246.61939 555.933801 247.659574 567.092199C242.742312 559.527191 236.406624 555.744681 228.652482 555.744681C223.640667 555.744681 219.361702 557.494085 215.815603 560.992908S210.496454 568.74705 210.496454 573.758865C210.496454 578.014184 211.536643 581.891248 213.617021 585.390071C215.697404 588.888894 218.39244 592.080383 221.702128 594.964539S228.416071 600.851064 231.914894 603.971631C235.413716 607.092199 238.865248 611.182028 242.269504 616.241135S248.274227 626.997631 250.070922 633.333333C251.678482 627.092199 254.160752 621.465716 257.51773 616.453901S264.326241 607.375887 267.87234 604.255319S274.84634 598.108752 278.156028 595.177305S284.184397 589.030738 286.312057 585.531915S289.503546 578.108752 289.503546 573.758865C289.503546 568.74705 287.730496 564.49173 284.184397 560.992908S276.359333 555.744681 271.347518 555.744681C263.593376 555.744681 257.257688 559.527191 252.340426 567.092199Z" fill="#010101" />
<path d="M247.659574 366.241135C247.186762 371.158397 246.004723 375.50827 244.113475 379.29078C242.222227 383.073291 240.236411 385.957447 238.156028 387.943262S233.451532 391.631206 230.283688 393.049645C227.115844 394.468085 224.680851 395.390071 222.978723 395.815603S219.196213 396.643026 216.737589 397.021277C216.359338 397.115839 216.07565 397.163121 215.886525 397.163121V400.0H284.113475V397.163121C276.075645 395.744681 269.976355 393.664298 265.815603 390.921986C257.87234 385.626482 253.38061 377.399532 252.340426 366.241135C257.257688 373.806142 263.593376 377.588652 271.347518 377.588652C276.359333 377.588652 280.638298 375.839248 284.184397 372.340426S289.503546 364.586284 289.503546 359.574468C289.503546 355.319149 288.463357 351.442085 286.382979 347.943262C284.302596 344.44444 281.60756 341.25295 278.297872 338.368794S271.583929 332.48227 268.085106 329.361702C264.586284 326.241135 261.134752 322.151305 257.730496 317.092199S251.725773 306.335702 249.929078 300.0C248.321518 306.241135 245.839248 311.867617 242.48227 316.879433S235.673759 325.957447 232.12766 329.078014S225.15366 335.224582 221.843972 338.156028S215.815603 344.302596 213.687943 347.801418S210.496454 355.224582 210.496454 359.574468C210.496454 364.586284 212.269504 368.841603 215.815603 372.340426S223.640667 377.588652 228.652482 377.588652C236.406624 377.588652 242.742312 373.806142 247.659574 366.241135Z" fill="#010101" />
<path d="M477.753623 109.163647Q484.157609 105.549517 484.157609 98.574879Q484.157609 94.897343 481.875 92.2343T475.53442 89.571256Q473.125 89.571256 471.413043 90.839372T469.701087 92.995169Q469.701087 93.121981 470.842391 93.946256T472.934783 96.165459T473.88587 99.716184Q473.88587 103.647343 470.525362 105.866546T461.711957 108.085749Q448.143116 108.085749 448.143116 92.995169Q448.143116 86.781401 451.440217 83.040459T461.331522 78.919082H466.023551Q466.911232 78.919082 467.418478 78.158213T467.925725 76.38285Q467.925725 75.241546 467.418478 74.417271T466.023551 73.466184H461.331522Q456.38587 72.958937 453.405797 69.027778T450.425725 59.516908Q450.425725 53.429952 453.849638 50.196256T461.838768 46.96256Q466.150362 46.96256 469.257246 49.435386T472.36413 56.219807Q472.36413 59.009662 471.286232 59.960749T469.193841 61.102053T468.179348 61.419082Q468.179348 62.306763 469.891304 63.574879T474.012681 64.842995Q478.070652 64.842995 480.353261 62.306763T482.63587 55.839372Q482.63587 49.625604 476.802536 46.201691T461.711957 42.777778Q451.820652 42.777778 445.353261 47.089372T438.88587 59.516908Q438.88587 64.842995 442.626812 69.408213T453.342391 75.875604V76.38285Q446.240942 77.14372 441.041667 80.884662T435.842391 92.741546Q435.842391 103.013285 443.324275 107.895531T462.092391 112.777778Q471.349638 112.777778 477.753623 109.163647Z" fill="#010101" />
<path d="M458.907812 163.134676C458.687169 165.429375 458.135556 167.459296 457.252983 169.22445C456.370409 170.989604 455.443704 172.33553 454.472869 173.262234S452.277459 174.983257 450.799146 175.645189C449.320834 176.307121 448.184515 176.737377 447.390197 176.935956S445.625043 177.322083 444.477697 177.498599C444.301181 177.542727 444.168795 177.564792 444.080537 177.564792V178.888656H475.919463V177.564792C472.168513 176.90286 469.322206 175.932024 467.380541 174.652291C463.673722 172.181081 461.577602 168.341876 461.092188 163.134676C463.386887 166.664977 466.343512 168.430131 469.962075 168.430131C472.300899 168.430131 474.297729 167.613751 475.952559 165.980983S478.434804 162.36242 478.434804 160.023596C478.434804 158.0378 477.949387 156.228522 476.978554 154.595754C476.007718 152.962987 474.750047 151.47364 473.205542 150.127714S470.0724 147.380696 468.439632 145.924446C466.806864 144.468196 465.196166 142.559628 463.607529 140.198735S460.805353 135.179087 459.966903 132.222456C459.216716 135.134956 458.058335 137.760621 456.491761 140.099445S453.314488 144.33581 451.659658 145.79206S448.405157 148.660429 446.860651 150.028424S444.047441 152.896793 443.054543 154.529561S441.565196 157.993669 441.565196 160.023596C441.565196 162.36242 442.392611 164.348216 444.047441 165.980983S447.699101 168.430131 450.037925 168.430131C453.656488 168.430131 456.613113 166.664977 458.907812 163.134676Z" fill="#010101" />
<path d="M22.246377 590.836353Q15.842391 594.450483 15.842391 601.425121Q15.842391 605.102657 18.125 607.7657T24.46558 610.428744Q26.875 610.428744 28.586957 609.160628T30.298913 607.004831Q30.298913 606.878019 29.157609 606.053744T27.065217 603.834541T26.11413 600.283816Q26.11413 596.352657 29.474638 594.133454T38.288043 591.914251Q51.856884 591.914251 51.856884 607.004831Q51.856884 613.218599 48.559783 616.959541T38.668478 621.080918H33.976449Q33.088768 621.080918 32.581522 621.841787T32.074275 623.61715Q32.074275 624.758454 32.581522 625.582729T33.976449 626.533816H38.668478Q43.61413 627.041063 46.594203 630.972222T49.574275 640.483092Q49.574275 646.570048 46.150362 649.803744T38.161232 653.03744Q33.849638 653.03744 30.742754 650.564614T27.63587 643.780193Q27.63587 640.990338 28.713768 640.039251T30.806159 638.897947T31.820652 638.580918Q31.820652 637.693237 30.108696 636.425121T25.987319 635.157005Q21.929348 635.157005 19.646739 637.693237T17.36413 644.160628Q17.36413 650.374396 23.197464 653.798309T38.288043 657.222222Q48.179348 657.222222 54.646739 652.910628T61.11413 640.483092Q61.11413 635.157005 57.373188 630.591787T46.657609 624.124396V623.61715Q53.759058 622.85628 58.958333 619.115338T64.157609 607.258454Q64.157609 596.986715 56.675725 592.104469T37.907609 587.222222Q28.650362 587.222222 22.246377 590.836353Z" fill="#010101" />
<path d="M41.092188 536.865324C41.312831 534.570625 41.864444 532.540704 42.747017 530.77555C43.629591 529.010396 44.556296 527.66447 45.527131 526.737766S47.722541 525.016743 49.200854 524.354811C50.679166 523.692879 51.815485 523.262623 52.609803 523.064044S54.374957 522.677917 55.522303 522.501401C55.698819 522.457273 55.831205 522.435208 55.919463 522.435208V521.111344H24.080537V522.435208C27.831487 523.09714 30.677794 524.067976 32.619459 525.347709C36.326278 527.818919 38.422398 531.658124 38.907812 536.865324C36.613113 533.335023 33.656488 531.569869 30.037925 531.569869C27.699101 531.569869 25.702271 532.386249 24.047441 534.019017S21.565196 537.63758 21.565196 539.976404C21.565196 541.9622 22.050613 543.771478 23.021446 545.404246C23.992282 547.037013 25.249953 548.52636 26.794458 549.872286S29.9276 552.619304 31.560368 554.075554C33.193136 555.531804 34.803834 557.440372 36.392471 559.801265S39.194647 564.820913 40.033097 567.777544C40.783284 564.865044 41.941665 562.239379 43.508239 559.900555S46.685512 555.66419 48.340342 554.20794S51.594843 551.339571 53.139349 549.971576S55.952559 547.103207 56.945457 545.470439S58.434804 542.006331 58.434804 539.976404C58.434804 537.63758 57.607389 535.651784 55.952559 534.019017S52.300899 531.569869 49.962075 531.569869C46.343512 531.569869 43.386887 533.335023 41.092188 536.865324Z" fill="#010101" />
</svg>
