<svg width="500.000000" height="700.000000" id="card-realdiamond7">
<radialGradient id="card-realwhitegradient" cx="250.0" cy="350.0" r="500" gradientTransform="matrix(1 0 0 1 0 -.25)" gradientUnits="userSpaceOnUse">
<stop stop-color="#FDFAF4" offset=".15"/>
<stop stop-color="#FDF9F2" offset=".35"/>
<stop stop-color="#FCF7F1" offset=".5"/>
<stop stop-color="#FDFDF8" offset=".75"/>
<stop stop-color="#FFFDFA" offset="1"/>
</radialGradient>
<rect x="0" y="0" rx="25.0" ry="25.0" width="500" height="700.0" stroke="#010101" fill="url(#card-realwhitegradient)" />
<path d="M150.139082 66.666667C147.913769 71.117293 142.535925 79.114511 134.005563 90.658322C125.475202 102.202133 118.613769 110.848447 113.421419 116.597126C119.911919 124.014831 126.889193 132.823412 134.353268 143.022717C141.817344 153.222063 147.079277 161.103384 150.139082 166.666667C157.000459 154.427446 169.14701 137.737599 186.578581 116.597126C168.68331 94.993092 156.536857 78.34956 150.139082 66.666667Z" fill="#da0a0a" />
<path d="M149.860918 633.333333C152.086231 628.882707 157.464075 620.885489 165.994437 609.341678C174.524798 597.797867 181.386231 589.151553 186.578581 583.402874C180.088081 575.985169 173.110807 567.176588 165.646732 556.977283C158.182656 546.777937 152.920723 538.896616 149.860918 533.333333C142.999541 545.572554 130.85299 562.262401 113.421419 583.402874C131.31669 605.006908 143.463143 621.65044 149.860918 633.333333Z" fill="#da0a0a" />
<path d="M150.139082 300.0C147.913769 304.450626 142.535925 312.447844 134.005563 323.991655C125.475202 335.535466 118.613769 344.18178 113.421419 349.930459C119.911919 357.348164 126.889193 366.156745 134.353268 376.35605C141.817344 386.555396 147.079277 394.436718 150.139082 400.0C157.000459 387.760779 169.14701 371.070932 186.578581 349.930459C168.68331 328.326426 156.536857 311.682893 150.139082 300.0Z" fill="#da0a0a" />
<path d="M350.139082 66.666667C347.913769 71.117293 342.535925 79.114511 334.005563 90.658322C325.475202 102.202133 318.613769 110.848447 313.421419 116.597126C319.911919 124.014831 326.889193 132.823412 334.353268 143.022717C341.817344 153.222063 347.079277 161.103384 350.139082 166.666667C357.000459 154.427446 369.14701 137.737599 386.578581 116.597126C368.68331 94.993092 356.536857 78.34956 350.139082 66.666667Z" fill="#da0a0a" />
<path d="M349.860918 633.333333C352.086231 628.882707 357.464075 620.885489 365.994437 609.341678C374.524798 597.797867 381.386231 589.151553 386.578581 583.402874C380.088081 575.985169 373.110807 567.176588 365.646732 556.977283C358.182656 546.777937 352.920723 538.896616 349.860918 533.333333C342.999541 545.572554 330.85299 562.262401 313.421419 583.402874C331.31669 605.006908 343.463143 621.65044 349.860918 633.333333Z" fill="#da0a0a" />
<path d="M350.139082 300.0C347.913769 304.450626 342.535925 312.447844 334.005563 323.991655C325.475202 335.535466 318.613769 344.18178 313.421419 349.930459C319.911919 357.348164 326.889193 366.156745 334.353268 376.35605C341.817344 386.555396 347.079277 394.436718 350.139082 400.0C357.000459 387.760779 369.14701 371.070932 386.578581 349.930459C368.68331 328.326426 356.536857 311.682893 350.139082 300.0Z" fill="#da0a0a" />
<path d="M250.139082 183.333333C247.913769 187.783959 242.535925 195.781178 234.005563 207.324988C225.475202 218.868799 218.613769 227.515114 213.421419 233.263792C219.911919 240.681497 226.889193 249.490079 234.353268 259.689383C241.817344 269.88873 247.079277 277.770051 250.139082 283.333333C257.000459 271.094112 269.14701 254.404265 286.578581 233.263792C268.68331 211.659759 256.536857 195.016226 250.139082 183.333333Z" fill="#da0a0a" />
<path d="M471.042435 111.292538Q472.333948 109.807298 472.333948 107.224272Q472.333948 101.541615 465.940959 88.691062T449.215867 57.242722L446.245387 51.947519H468.846863Q472.333948 51.947519 474.077491 52.464125T476.918819 54.917999T478.53321 60.98811Q478.791513 62.02132 479.372694 62.47335T481.50369 62.925379Q483.699262 62.925379 483.699262 60.729807L483.182657 45.619106Q483.182657 42.777778 479.437269 42.777778H440.046125Q436.300738 42.777778 436.300738 45.231652Q436.300738 47.168922 439.142066 51.947519Q443.920664 59.9549 447.98893 69.834973T456.964945 93.275933Q460.968635 104.253793 462.776753 108.644936Q464.714022 112.777778 468.071956 112.777778Q469.750923 112.777778 471.042435 111.292538Z" fill="#da0a0a" />
<path d="M460.064904 132.222456C459.026435 134.299394 456.5168 138.031391 452.536004 143.418449C448.555209 148.805507 445.353239 152.840413 442.930166 155.523103C445.959036 158.984665 449.215065 163.095295 452.698265 167.854923C456.181465 172.61457 458.637009 176.292483 460.064904 178.888656C463.266848 173.177076 468.935182 165.388559 477.069834 155.523103C468.718791 145.441322 463.050503 137.674418 460.064904 132.222456Z" fill="#da0a0a" />
<path d="M28.957565 588.707462Q27.666052 590.192702 27.666052 592.775728Q27.666052 598.458385 34.059041 611.308938T50.784133 642.757278L53.754613 648.052481H31.153137Q27.666052 648.052481 25.922509 647.535875T23.081181 645.082001T21.46679 639.01189Q21.208487 637.97868 20.627306 637.52665T18.49631 637.074621Q16.300738 637.074621 16.300738 639.270193L16.817343 654.380894Q16.817343 657.222222 20.562731 657.222222H59.953875Q63.699262 657.222222 63.699262 654.768348Q63.699262 652.831078 60.857934 648.052481Q56.079336 640.0451 52.01107 630.165027T43.035055 606.724067Q39.031365 595.746207 37.223247 591.355064Q35.285978 587.222222 31.928044 587.222222Q30.249077 587.222222 28.957565 588.707462Z" fill="#da0a0a" />
<path d="M39.935096 567.777544C40.973565 565.700606 43.4832 561.968609 47.463996 556.581551C51.444791 551.194493 54.646761 547.159587 57.069834 544.476897C54.040964 541.015335 50.784935 536.904705 47.301735 532.145077C43.818535 527.38543 41.362991 523.707517 39.935096 521.111344C36.733152 526.822924 31.064818 534.611441 22.930166 544.476897C31.281209 554.558678 36.949497 562.325582 39.935096 567.777544Z" fill="#da0a0a" />
</svg>
