<svg width="150.000000" height="210.000000" id="card-webspade13">
<radialGradient id="card-webwhitegradient" cx="75.0" cy="105.0" r="150" gradientTransform="matrix(1 0 0 1 0 -.25)" gradientUnits="userSpaceOnUse">
<stop stop-color="#FDFAF4" offset=".15"/>
<stop stop-color="#FDF9F2" offset=".35"/>
<stop stop-color="#FCF7F1" offset=".5"/>
<stop stop-color="#FDFDF8" offset=".75"/>
<stop stop-color="#FFFDFA" offset="1"/>
</radialGradient>
<rect x="0" y="0" rx="7.5" ry="7.5" width="150" height="210.0" stroke="#010101" fill="url(#card-webwhitegradient)" />
<rect x="30.0" y="21.0" width="90.0" height="168.0" stroke="#010101" fill="#fffdfa" />
<path d="M60.06383 58.650922C60.858156 58.650922 61.893617 58.920426 63.170213 59.459433S65.836877 60.821135 67.340426 61.927518S70.134749 64.636735 71.212766 66.736028S72.829787 71.218301 72.829787 73.884965C72.829787 74.906241 73.567376 75.416879 75.042553 75.416879C76.574468 75.416879 77.340426 74.906241 77.340426 73.884965C77.340426 71.10482 77.865249 68.636735 78.914894 66.480709S81.255319 62.721841 82.787234 61.672199S85.709217 59.856599 86.957447 59.374326C88.205677 58.892056 89.255319 58.650922 90.106383 58.650922C92.432621 58.650922 94.276596 59.275035 95.638298 60.523262S97.680851 63.501986 97.680851 65.714752C97.680851 66.509078 97.255319 67.870777 96.404255 69.799858S94.163123 73.686386 92.234043 75.672199S88.177302 78.650922 85.851064 78.650922C83.638298 78.650922 80.06383 78.22539 75.12766 77.374326C70.134749 78.22539 66.531915 78.650922 64.319149 78.650922C62.560281 78.650922 60.87234 78.069362 59.255319 76.906241S56.375889 74.381416 55.468085 72.821135C54.560281 71.260854 53.836877 69.814045 53.297872 68.480709S52.489362 66.22539 52.489362 65.714752C52.489362 63.501986 53.170213 61.771492 54.531915 60.523262S57.737591 58.650922 60.06383 58.650922ZM70.787234 74.22539C70.730496 72.182837 70.404255 70.338862 69.808511 68.693475S68.503549 65.743118 67.680851 64.778582S65.93617 63.019713 64.914894 62.395603S63.0 61.34596 62.234043 61.119007S60.801421 60.778582 60.234043 60.778582C58.531915 60.778582 57.12766 61.218298 56.021277 62.09773S54.361702 64.182837 54.361702 65.714752C54.361702 66.168652 54.574468 66.934607 55.0 68.012624S56.049643 70.267943 56.87234 71.544539S58.87234 73.941705 60.404255 74.906241S63.638298 76.35305 65.510638 76.35305C69.028366 76.35305 70.787234 75.64383 70.787234 74.22539ZM62.446809 87.331773C62.446809 85.856599 66.617021 85.119007 74.957447 85.119007C78.702128 85.119007 81.75177 85.317588 84.106383 85.714752S87.638298 86.622556 87.638298 87.246667C87.638298 88.09773 86.87234 88.523262 85.340426 88.523262C85.170213 88.523262 83.496451 88.381418 80.319149 88.09773S75.382979 87.672199 75.042553 87.672199C74.87234 87.672199 73.212766 87.814043 70.06383 88.09773S65.170213 88.523262 64.829787 88.523262C63.241132 88.523262 62.446809 88.126099 62.446809 87.331773ZM81.851064 58.906241C81.851064 56.466522 81.595745 54.679288 81.085106 53.544539S79.241132 51.10482 77.085106 49.629645V47.672199L80.574468 45.544539V42.480709H77.425532L76.404255 39.331773H73.510638L72.404255 42.480709H69.340426V45.544539L72.744681 47.672199V49.629645C70.758868 50.934607 69.482272 52.16865 68.914894 53.331773S68.06383 56.35305 68.06383 58.906241C65.397166 56.750216 62.645387 55.672199 59.808511 55.672199C56.858153 55.672199 54.347515 56.636735 52.276596 58.565816S49.170213 62.906241 49.170213 65.799858C49.170213 68.126096 50.276596 70.821135 52.489362 73.884965C53.851064 75.757305 54.773047 77.10482 55.255319 77.927518S56.24823 80.16865 56.787234 82.182837S57.624113 86.594182 57.680851 89.374326C57.794326 93.232479 63.581557 95.16156 75.042553 95.16156C86.390043 95.16156 92.148936 93.232479 92.319149 89.374326C92.375887 86.480709 92.730496 83.91333 93.382979 81.672199S94.617021 77.91333 95.12766 77.119007S96.432621 75.218301 97.510638 73.799858C99.723404 70.792769 100.829787 68.126096 100.829787 65.799858C100.829787 62.962982 99.794323 60.565816 97.723404 58.608369C95.652485 56.650922 93.170213 55.672199 90.276596 55.672199C87.326238 55.672199 84.517728 56.750216 81.851064 58.906241ZM90.021277 60.778582C89.283688 60.778582 88.390068 60.991348 87.340426 61.416879C86.290783 61.842411 85.12766 62.523262 83.851064 63.459433S81.510638 65.814045 80.659574 67.714752S79.382979 71.814045 79.382979 74.310496C79.382979 75.672199 81.113472 76.35305 84.574468 76.35305C86.503549 76.35305 88.24823 75.87078 89.808511 74.906241S92.546102 72.792769 93.340426 71.459433S94.730494 68.948794 95.12766 67.927518S95.723404 66.16865 95.723404 65.714752C95.723404 64.182837 95.170213 62.97716 94.06383 62.09773S91.609932 60.778582 90.021277 60.778582Z" fill="#010101" />
<path d="M89.93617 151.349078C89.141844 151.349078 88.106383 151.079574 86.829787 150.540567S84.163123 149.178865 82.659574 148.072482S79.865251 145.363265 78.787234 143.263972S77.170213 138.781699 77.170213 136.115035C77.170213 135.093759 76.432624 134.583121 74.957447 134.583121C73.425532 134.583121 72.659574 135.093759 72.659574 136.115035C72.659574 138.89518 72.134751 141.363265 71.085106 143.519291S68.744681 147.278159 67.212766 148.327801S64.290783 150.143401 63.042553 150.625674C61.794323 151.107944 60.744681 151.349078 59.893617 151.349078C57.567379 151.349078 55.723404 150.724965 54.361702 149.476738S52.319149 146.498014 52.319149 144.285248C52.319149 143.490922 52.744681 142.129223 53.595745 140.200142S55.836877 136.313614 57.765957 134.327801S61.822698 131.349078 64.148936 131.349078C66.361702 131.349078 69.93617 131.77461 74.87234 132.625674C79.865251 131.77461 83.468085 131.349078 85.680851 131.349078C87.439719 131.349078 89.12766 131.930638 90.744681 133.093759S93.624111 135.618584 94.531915 137.178865C95.439719 138.739146 96.163123 140.185955 96.702128 141.519291S97.510638 143.77461 97.510638 144.285248C97.510638 146.498014 96.829787 148.228508 95.468085 149.476738S92.262409 151.349078 89.93617 151.349078ZM79.212766 135.77461C79.269504 137.817163 79.595745 139.661138 80.191489 141.306525S81.496451 144.256882 82.319149 145.221418S84.06383 146.980287 85.085106 147.604397S87.0 148.65404 87.765957 148.880993S89.198579 149.221418 89.765957 149.221418C91.468085 149.221418 92.87234 148.781702 93.978723 147.90227S95.638298 145.817163 95.638298 144.285248C95.638298 143.831348 95.425532 143.065393 95.0 141.987376S93.950357 139.732057 93.12766 138.455461S91.12766 136.058295 89.595745 135.093759S86.361702 133.64695 84.489362 133.64695C80.971634 133.64695 79.212766 134.35617 79.212766 135.77461ZM87.553191 122.668227C87.553191 124.143401 83.382979 124.880993 75.042553 124.880993C71.297872 124.880993 68.24823 124.682412 65.893617 124.285248S62.361702 123.377444 62.361702 122.753333C62.361702 121.90227 63.12766 121.476738 64.659574 121.476738C64.829787 121.476738 66.503549 121.618582 69.680851 121.90227S74.617021 122.327801 74.957447 122.327801C75.12766 122.327801 76.787234 122.185957 79.93617 121.90227S84.829787 121.476738 85.170213 121.476738C86.758868 121.476738 87.553191 121.873901 87.553191 122.668227ZM68.148936 151.093759C68.148936 153.533478 68.404255 155.320712 68.914894 156.455461S70.758868 158.89518 72.914894 160.370355V162.327801L69.425532 164.455461V167.519291H72.574468L73.595745 170.668227H76.489362L77.595745 167.519291H80.659574V164.455461L77.255319 162.327801V160.370355C79.241132 159.065393 80.517728 157.83135 81.085106 156.668227S81.93617 153.64695 81.93617 151.093759C84.602834 153.249784 87.354613 154.327801 90.191489 154.327801C93.141847 154.327801 95.652485 153.363265 97.723404 151.434184S100.829787 147.093759 100.829787 144.200142C100.829787 141.873904 99.723404 139.178865 97.510638 136.115035C96.148936 134.242695 95.226953 132.89518 94.744681 132.072482S93.75177 129.83135 93.212766 127.817163S92.375887 123.405818 92.319149 120.625674C92.205674 116.767521 86.418443 114.83844 74.957447 114.83844C63.609957 114.83844 57.851064 116.767521 57.680851 120.625674C57.624113 123.519291 57.269504 126.08667 56.617021 128.327801S55.382979 132.08667 54.87234 132.880993S53.567379 134.781699 52.489362 136.200142C50.276596 139.207231 49.170213 141.873904 49.170213 144.200142C49.170213 147.037018 50.205677 149.434184 52.276596 151.391631C54.347515 153.349078 56.829787 154.327801 59.723404 154.327801C62.673762 154.327801 65.482272 153.249784 68.148936 151.093759ZM59.978723 149.221418C60.716312 149.221418 61.609932 149.008652 62.659574 148.583121C63.709217 148.157589 64.87234 147.476738 66.148936 146.540567S68.489362 144.185955 69.340426 142.285248S70.617021 138.185955 70.617021 135.689504C70.617021 134.327801 68.886528 133.64695 65.425532 133.64695C63.496451 133.64695 61.75177 134.12922 60.191489 135.093759S57.453898 137.207231 56.659574 138.540567S55.269506 141.051206 54.87234 142.072482S54.276596 143.83135 54.276596 144.285248C54.276596 145.817163 54.829787 147.02284 55.93617 147.90227S58.390068 149.221418 59.978723 149.221418Z" fill="#010101" />
<path d="M148.356164 33.305936Q148.5 33.098174 148.5 32.810502Q148.468037 32.33105 148.308219 32.23516T147.700913 32.139269Q146.773973 32.139269 146.326484 31.803653T145.767123 30.972603T145.623288 29.678082V16.988584Q145.655251 16.189498 145.767123 15.694064T146.326484 14.863014T147.700913 14.527397H147.892694Q148.212329 14.527397 148.340183 14.415525T148.5 13.856164Q148.5 13.568493 148.356164 13.360731T147.924658 13.152968Q145.847032 13.248858 144.152968 13.248858Q142.23516 13.248858 140.157534 13.152968Q139.869863 13.152968 139.726027 13.360731T139.582192 13.856164Q139.614155 14.335616 139.773973 14.431507T140.381279 14.527397Q141.308219 14.527397 141.755708 14.863014T142.315068 15.694064T142.458904 16.988584V22.773973Q141.947489 22.678082 141.308219 22.230594T139.742009 20.984018Q137.952055 19.321918 135.23516 16.093607Q134.659817 15.454338 134.659817 15.070776Q134.659817 14.591324 135.522831 14.559361Q135.746575 14.527397 135.826484 14.383562T135.97032 13.888128Q135.97032 13.600457 135.810502 13.376712T135.394977 13.152968Q134.276256 13.248858 131.878995 13.248858Q131.111872 13.248858 129.641553 13.184932L128.97032 13.152968Q128.682648 13.152968 128.522831 13.360731T128.363014 13.888128Q128.394977 14.335616 128.554795 14.447489T129.002283 14.559361Q130.280822 14.495434 131.415525 14.974886T133.796804 16.700913L138.974886 22.10274Q137.856164 23.477169 136.673516 24.723744T133.828767 27.63242Q132.997717 28.46347 131.847032 29.678082Q131.495434 30.02968 131.36758 30.189498Q130.344749 31.212329 129.753425 31.627854T128.299087 32.139269Q128.23516 32.139269 128.011416 32.155251T127.643836 32.33105T127.5 32.810502Q127.5 33.098174 127.643836 33.305936T128.075342 33.513699Q128.458904 33.481735 129.002283 33.481735Q130.152968 33.417808 130.792237 33.417808H132.8379Q137.057078 28.719178 140.381279 24.883562Q141.40411 23.700913 142.458904 23.605023V29.678082Q142.426941 30.477169 142.315068 30.972603T141.755708 31.803653T140.381279 32.139269H140.189498Q139.869863 32.139269 139.742009 32.251142T139.582192 32.810502Q139.582192 33.098174 139.726027 33.305936T140.157534 33.513699Q142.203196 33.417808 144.121005 33.417808Q145.847032 33.417808 147.924658 33.513699Q148.212329 33.513699 148.356164 33.305936Z" fill="#010101" />
<path d="M137.672344 48.940403C137.606151 49.628813 137.440667 50.237789 137.175895 50.767335C136.911123 51.296881 136.633111 51.700659 136.341861 51.97867S135.683238 52.494977 135.239744 52.693557C134.79625 52.892136 134.455355 53.021213 134.217059 53.080787S133.687513 53.196625 133.343309 53.24958C133.290354 53.262818 133.250638 53.269438 133.224161 53.269438V53.666597H142.775839V53.269438C141.650554 53.070858 140.796662 52.779607 140.214162 52.395687C139.102117 51.654324 138.473281 50.502563 138.327656 48.940403C139.016066 49.999493 139.903054 50.529039 140.988623 50.529039C141.69027 50.529039 142.289319 50.284125 142.785768 49.794295S143.530441 48.708726 143.530441 48.007079C143.530441 47.41134 143.384816 46.868557 143.093566 46.378726C142.802315 45.888896 142.425014 45.442092 141.961663 45.038314S141.02172 44.214209 140.53189 43.777334C140.042059 43.340459 139.55885 42.767888 139.082259 42.059621S138.241606 40.553726 137.990071 39.666737C137.765015 40.540487 137.417501 41.328186 136.947528 42.029834S135.994346 43.300743 135.497897 43.737618S134.521547 44.598129 134.058195 45.008527S133.214232 45.869038 132.916363 46.358868S132.469559 47.398101 132.469559 48.007079C132.469559 48.708726 132.717783 49.304465 133.214232 49.794295S134.30973 50.529039 135.011377 50.529039C136.096946 50.529039 136.983934 49.999493 137.672344 48.940403Z" fill="#010101" />
<path d="M1.643836 176.694064Q1.5 176.901826 1.5 177.189498Q1.531963 177.66895 1.691781 177.76484T2.299087 177.860731Q3.226027 177.860731 3.673516 178.196347T4.232877 179.027397T4.376712 180.321918V193.011416Q4.344749 193.810502 4.232877 194.305936T3.673516 195.136986T2.299087 195.472603H2.107306Q1.787671 195.472603 1.659817 195.584475T1.5 196.143836Q1.5 196.431507 1.643836 196.639269T2.075342 196.847032Q4.152968 196.751142 5.847032 196.751142Q7.76484 196.751142 9.842466 196.847032Q10.130137 196.847032 10.273973 196.639269T10.417808 196.143836Q10.385845 195.664384 10.226027 195.568493T9.618721 195.472603Q8.691781 195.472603 8.244292 195.136986T7.684932 194.305936T7.541096 193.011416V187.226027Q8.052511 187.321918 8.691781 187.769406T10.257991 189.015982Q12.047945 190.678082 14.76484 193.906393Q15.340183 194.545662 15.340183 194.929224Q15.340183 195.408676 14.477169 195.440639Q14.253425 195.472603 14.173516 195.616438T14.02968 196.111872Q14.02968 196.399543 14.189498 196.623288T14.605023 196.847032Q15.723744 196.751142 18.121005 196.751142Q18.888128 196.751142 20.358447 196.815068L21.02968 196.847032Q21.317352 196.847032 21.477169 196.639269T21.636986 196.111872Q21.605023 195.664384 21.445205 195.552511T20.997717 195.440639Q19.719178 195.504566 18.584475 195.025114T16.203196 193.299087L11.025114 187.89726Q12.143836 186.522831 13.326484 185.276256T16.171233 182.36758Q17.002283 181.53653 18.152968 180.321918Q18.504566 179.97032 18.63242 179.810502Q19.655251 178.787671 20.246575 178.372146T21.700913 177.860731Q21.76484 177.860731 21.988584 177.844749T22.356164 177.66895T22.5 177.189498Q22.5 176.901826 22.356164 176.694064T21.924658 176.486301Q21.541096 176.518265 20.997717 176.518265Q19.847032 176.582192 19.207763 176.582192H17.1621Q12.942922 181.280822 9.618721 185.116438Q8.59589 186.299087 7.541096 186.394977V180.321918Q7.573059 179.522831 7.684932 179.027397T8.244292 178.196347T9.618721 177.860731H9.810502Q10.130137 177.860731 10.257991 177.748858T10.417808 177.189498Q10.417808 176.901826 10.273973 176.694064T9.842466 176.486301Q7.796804 176.582192 5.878995 176.582192Q4.152968 176.582192 2.075342 176.486301Q1.787671 176.486301 1.643836 176.694064Z" fill="#010101" />
<path d="M12.327656 161.059597C12.393849 160.371187 12.559333 159.762211 12.824105 159.232665C13.088877 158.703119 13.366889 158.299341 13.658139 158.02133S14.316762 157.505023 14.760256 157.306443C15.20375 157.107864 15.544645 156.978787 15.782941 156.919213S16.312487 156.803375 16.656691 156.75042C16.709646 156.737182 16.749362 156.730562 16.775839 156.730562V156.333403H7.224161V156.730562C8.349446 156.929142 9.203338 157.220393 9.785838 157.604313C10.897883 158.345676 11.526719 159.497437 11.672344 161.059597C10.983934 160.000507 10.096946 159.470961 9.011377 159.470961C8.30973 159.470961 7.710681 159.715875 7.214232 160.205705S6.469559 161.291274 6.469559 161.992921C6.469559 162.58866 6.615184 163.131443 6.906434 163.621274C7.197685 164.111104 7.574986 164.557908 8.038337 164.961686S8.97828 165.785791 9.46811 166.222666C9.957941 166.659541 10.44115 167.232112 10.917741 167.940379S11.758394 169.446274 12.009929 170.333263C12.234985 169.459513 12.582499 168.671814 13.052472 167.970166S14.005654 166.699257 14.502103 166.262382S15.478453 165.401871 15.941805 164.991473S16.785768 164.130962 17.083637 163.641132S17.530441 162.601899 17.530441 161.992921C17.530441 161.291274 17.282217 160.695535 16.785768 160.205705S15.69027 159.470961 14.988623 159.470961C13.903054 159.470961 13.016066 160.000507 12.327656 161.059597Z" fill="#010101" />
</svg>
