<svg width="500.000000" height="700.000000" id="card-realspade13">
<radialGradient id="card-realwhitegradient" cx="250.0" cy="350.0" r="500" gradientTransform="matrix(1 0 0 1 0 -.25)" gradientUnits="userSpaceOnUse">
<stop stop-color="#FDFAF4" offset=".15"/>
<stop stop-color="#FDF9F2" offset=".35"/>
<stop stop-color="#FCF7F1" offset=".5"/>
<stop stop-color="#FDFDF8" offset=".75"/>
<stop stop-color="#FFFDFA" offset="1"/>
</radialGradient>
<rect x="0" y="0" rx="25.0" ry="25.0" width="500" height="700.0" stroke="#010101" fill="url(#card-realwhitegradient)" />
<rect x="100.0" y="70.0" width="300.0" height="560.0" stroke="#010101" fill="#fffdfa" />
<path d="M200.212766 195.503073C202.860519 195.503073 206.312057 196.401419 210.567376 198.198109S219.456255 202.737116 224.468085 206.425059S233.782496 215.455783 237.375887 222.453428S242.765957 237.394336 242.765957 246.283215C242.765957 249.68747 245.224587 251.389598 250.141844 251.389598C255.248227 251.389598 257.801418 249.68747 257.801418 246.283215C257.801418 237.016066 259.550828 228.789116 263.049645 221.602364S270.851064 209.072804 275.957447 205.573995S285.69739 199.521995 289.858156 197.914421C294.018922 196.306855 297.51773 195.503073 300.35461 195.503073C308.108738 195.503073 314.255319 197.583451 318.794326 201.744208S325.602837 211.673286 325.602837 219.049173C325.602837 221.696926 324.184397 226.235924 321.347518 232.666194S313.877078 245.621286 307.446809 252.240662S293.92434 262.16974 286.170213 262.16974C278.794326 262.16974 266.879433 260.7513 250.425532 257.914421C233.782496 260.7513 221.77305 262.16974 214.397163 262.16974C208.53427 262.16974 202.907801 260.231207 197.51773 256.354137S187.919631 247.938052 184.893617 242.737116C181.867603 237.53618 179.456255 232.713485 177.659574 228.269031S174.964539 220.7513 174.964539 219.049173C174.964539 211.673286 177.234043 205.904974 181.77305 201.744208S192.458638 195.503073 200.212766 195.503073ZM235.957447 247.417967C235.768321 240.609456 234.680851 234.462875 232.695035 228.978251S228.345163 219.143726 225.602837 215.928605S219.787234 210.065712 216.382979 207.985343S210.0 204.486534 207.446809 203.730024S202.671404 202.595272 200.780142 202.595272C195.106383 202.595272 190.425532 204.060994 186.737589 206.992435S181.205674 213.94279 181.205674 219.049173C181.205674 220.562174 181.914894 223.115357 183.333333 226.708747S186.832142 234.226478 189.574468 238.481797S196.241135 246.47235 201.347518 249.68747S212.12766 254.510165 218.368794 254.510165C230.094553 254.510165 235.957447 252.1461 235.957447 247.417967ZM208.156028 291.10591C208.156028 286.188662 222.056738 283.730024 249.858156 283.730024C262.340426 283.730024 272.505901 284.391961 280.35461 285.715839S292.12766 288.741853 292.12766 290.822222C292.12766 293.659102 289.574468 295.077541 284.468085 295.077541C283.900709 295.077541 278.321504 294.604727 267.730496 293.659102S251.276596 292.240662 250.141844 292.240662C249.574468 292.240662 244.042553 292.713476 233.546099 293.659102S217.234043 295.077541 216.099291 295.077541C210.803773 295.077541 208.156028 293.753663 208.156028 291.10591ZM272.836879 196.354137C272.836879 188.22174 271.985816 182.264293 270.283688 178.481797S264.137106 170.3494 256.950355 165.432151V158.907329L268.58156 151.81513V141.602364H258.085106L254.680851 131.10591H245.035461L241.347518 141.602364H231.134752V151.81513L242.48227 158.907329V165.432151C235.862894 169.782024 231.607574 173.895499 229.716312 177.772577S226.879433 187.843499 226.879433 196.354137C217.990553 189.167385 208.817957 185.573995 199.361702 185.573995C189.527177 185.573995 181.158383 188.789116 174.255319 195.219385S163.900709 209.68747 163.900709 219.332861C163.900709 227.086988 167.588652 236.070449 174.964539 246.283215C179.503546 252.52435 182.576823 257.016066 184.184397 259.758392S187.494099 267.228832 189.29078 273.94279S192.080377 288.647272 192.269504 297.914421C192.647753 310.774931 211.938525 317.205201 250.141844 317.205201C287.966809 317.205201 307.163121 310.774931 307.730496 297.914421C307.919622 288.269031 309.101654 279.711102 311.276596 272.240662S315.390071 259.711102 317.092199 257.063357S321.442071 250.727669 325.035461 245.999527C332.411348 235.975896 336.099291 227.086988 336.099291 219.332861C336.099291 209.876605 332.647745 201.886052 325.744681 195.361229C318.841617 188.836407 310.567376 185.573995 300.921986 185.573995C291.087461 185.573995 281.725759 189.167385 272.836879 196.354137ZM300.070922 202.595272C297.612292 202.595272 294.63356 203.304492 291.134752 204.722931C287.635943 206.141371 283.758865 208.410875 279.503546 211.531442S271.702128 219.380151 268.865248 225.715839S264.609929 239.380151 264.609929 247.701655C264.609929 252.240662 270.378241 254.510165 281.914894 254.510165C288.345163 254.510165 294.160766 252.9026 299.361702 249.68747S308.487007 242.642563 311.134752 238.198109S315.768312 229.829314 317.092199 226.425059S319.078014 220.562165 319.078014 219.049173C319.078014 213.94279 317.234043 209.923868 313.546099 206.992435S305.36644 202.595272 300.070922 202.595272Z" fill="#010101" />
<path d="M299.787234 504.496927C297.139481 504.496927 293.687943 503.598581 289.432624 501.801891S280.543745 497.262884 275.531915 493.574941S266.217504 484.544217 262.624113 477.546572S257.234043 462.605664 257.234043 453.716785C257.234043 450.31253 254.775413 448.610402 249.858156 448.610402C244.751773 448.610402 242.198582 450.31253 242.198582 453.716785C242.198582 462.983934 240.449172 471.210884 236.950355 478.397636S229.148936 490.927196 224.042553 494.426005S214.30261 500.478005 210.141844 502.085579C205.981078 503.693145 202.48227 504.496927 199.64539 504.496927C191.891262 504.496927 185.744681 502.416549 181.205674 498.255792S174.397163 488.326714 174.397163 480.950827C174.397163 478.303074 175.815603 473.764076 178.652482 467.333806S186.122922 454.378714 192.553191 447.759338S206.07566 437.83026 213.829787 437.83026C221.205674 437.83026 233.120567 439.2487 249.574468 442.085579C266.217504 439.2487 278.22695 437.83026 285.602837 437.83026C291.46573 437.83026 297.092199 439.768793 302.48227 443.645863S312.080369 452.061948 315.106383 457.262884C318.132397 462.46382 320.543745 467.286515 322.340426 471.730969S325.035461 479.2487 325.035461 480.950827C325.035461 488.326714 322.765957 494.095026 318.22695 498.255792S307.541362 504.496927 299.787234 504.496927ZM264.042553 452.582033C264.231679 459.390544 265.319149 465.537125 267.304965 471.021749S271.654837 480.856274 274.397163 484.071395S280.212766 489.934288 283.617021 492.014657S290.0 495.513466 292.553191 496.269976S297.328596 497.404728 299.219858 497.404728C304.893617 497.404728 309.574468 495.939006 313.262411 493.007565S318.794326 486.05721 318.794326 480.950827C318.794326 479.437826 318.085106 476.884643 316.666667 473.291253S313.167858 465.773522 310.425532 461.518203S303.758865 453.52765 298.652482 450.31253S287.87234 445.489835 281.631206 445.489835C269.905447 445.489835 264.042553 447.8539 264.042553 452.582033ZM291.843972 408.89409C291.843972 413.811338 277.943262 416.269976 250.141844 416.269976C237.659574 416.269976 227.494099 415.608039 219.64539 414.284161S207.87234 411.258147 207.87234 409.177778C207.87234 406.340898 210.425532 404.922459 215.531915 404.922459C216.099291 404.922459 221.678496 405.395273 232.269504 406.340898S248.723404 407.759338 249.858156 407.759338C250.425532 407.759338 255.957447 407.286524 266.453901 406.340898S282.765957 404.922459 283.900709 404.922459C289.196227 404.922459 291.843972 406.246337 291.843972 408.89409ZM227.163121 503.645863C227.163121 511.77826 228.014184 517.735707 229.716312 521.518203S235.862894 529.6506 243.049645 534.567849V541.092671L231.41844 548.18487V558.397636H241.914894L245.319149 568.89409H254.964539L258.652482 558.397636H268.865248V548.18487L257.51773 541.092671V534.567849C264.137106 530.217976 268.392426 526.104501 270.283688 522.227423S273.120567 512.156501 273.120567 503.645863C282.009447 510.832615 291.182043 514.426005 300.638298 514.426005C310.472823 514.426005 318.841617 511.210884 325.744681 504.780615S336.099291 490.31253 336.099291 480.667139C336.099291 472.913012 332.411348 463.929551 325.035461 453.716785C320.496454 447.47565 317.423177 442.983934 315.815603 440.241608S312.505901 432.771168 310.70922 426.05721S307.919623 411.352728 307.730496 402.085579C307.352247 389.225069 288.061475 382.794799 249.858156 382.794799C212.033191 382.794799 192.836879 389.225069 192.269504 402.085579C192.080378 411.730969 190.898346 420.288898 188.723404 427.759338S184.609929 440.288898 182.907801 442.936643S178.557929 449.272331 174.964539 454.000473C167.588652 464.024104 163.900709 472.913012 163.900709 480.667139C163.900709 490.123395 167.352255 498.113948 174.255319 504.638771C181.158383 511.163593 189.432624 514.426005 199.078014 514.426005C208.912539 514.426005 218.274241 510.832615 227.163121 503.645863ZM199.929078 497.404728C202.387708 497.404728 205.36644 496.695508 208.865248 495.277069C212.364057 493.858629 216.241135 491.589125 220.496454 488.468558S228.297872 480.619849 231.134752 474.284161S235.390071 460.619849 235.390071 452.298345C235.390071 447.759338 229.621759 445.489835 218.085106 445.489835C211.654837 445.489835 205.839234 447.0974 200.638298 450.31253S191.512993 457.357437 188.865248 461.801891S184.231688 470.170686 182.907801 473.574941S180.921986 479.437835 180.921986 480.950827C180.921986 486.05721 182.765957 490.076132 186.453901 493.007565S194.63356 497.404728 199.929078 497.404728Z" fill="#010101" />
<path d="M494.520548 111.019787Q495.0 110.327245 495.0 109.368341Q494.893455 107.770167 494.360731 107.450533T492.336377 107.130898Q489.246575 107.130898 487.754947 106.012177T485.890411 103.242009T485.410959 98.926941V56.628615Q485.517504 53.964992 485.890411 52.313546T487.754947 49.543379T492.336377 48.424658H492.975647Q494.041096 48.424658 494.467275 48.05175T495.0 46.187215Q495.0 45.228311 494.520548 44.535769T493.082192 43.843227Q486.156773 44.162861 480.509893 44.162861Q474.117199 44.162861 467.191781 43.843227Q466.232877 43.843227 465.753425 44.535769T465.273973 46.187215Q465.380518 47.785388 465.913242 48.105023T467.937595 48.424658Q471.027397 48.424658 472.519026 49.543379T474.383562 52.313546T474.863014 56.628615V75.913242Q473.158295 75.593607 471.027397 74.101979T465.806697 69.946728Q459.840183 64.406393 450.783866 53.645358Q448.866058 51.51446 448.866058 50.235921Q448.866058 48.637747 451.74277 48.531202Q452.488584 48.424658 452.754947 47.945205T453.234399 46.29376Q453.234399 45.334855 452.701674 44.589041T451.316591 43.843227Q447.587519 44.162861 439.596651 44.162861Q437.039574 44.162861 432.138508 43.949772L429.901065 43.843227Q428.942161 43.843227 428.409437 44.535769T427.876712 46.29376Q427.983257 47.785388 428.515982 48.158295T430.00761 48.531202Q434.269406 48.318113 438.05175 49.916286T445.989346 55.669711L463.249619 73.675799Q459.520548 78.25723 455.578387 82.412481T446.09589 92.108067Q443.325723 94.878234 439.490107 98.926941Q438.318113 100.098935 437.891933 100.631659Q434.482496 104.041096 432.511416 105.42618T427.663623 107.130898Q427.450533 107.130898 426.704718 107.18417T425.479452 107.770167T425.0 109.368341Q425.0 110.327245 425.479452 111.019787T426.917808 111.712329Q428.196347 111.605784 430.00761 111.605784Q433.843227 111.392694 435.974125 111.392694H442.792998Q456.856925 95.730594 467.937595 82.945205Q471.347032 79.003044 474.863014 78.683409V98.926941Q474.756469 101.590563 474.383562 103.242009T472.519026 106.012177T467.937595 107.130898H467.298326Q466.232877 107.130898 465.806697 107.503805T465.273973 109.368341Q465.273973 110.327245 465.753425 111.019787T467.191781 111.712329Q474.010654 111.392694 480.403349 111.392694Q486.156773 111.392694 493.082192 111.712329Q494.041096 111.712329 494.520548 111.019787Z" fill="#010101" />
<path d="M458.907812 163.134676C458.687169 165.429375 458.135556 167.459296 457.252983 169.22445C456.370409 170.989604 455.443704 172.33553 454.472869 173.262234S452.277459 174.983257 450.799146 175.645189C449.320834 176.307121 448.184515 176.737377 447.390197 176.935956S445.625043 177.322083 444.477697 177.498599C444.301181 177.542727 444.168795 177.564792 444.080537 177.564792V178.888656H475.919463V177.564792C472.168513 176.90286 469.322206 175.932024 467.380541 174.652291C463.673722 172.181081 461.577602 168.341876 461.092188 163.134676C463.386887 166.664977 466.343512 168.430131 469.962075 168.430131C472.300899 168.430131 474.297729 167.613751 475.952559 165.980983S478.434804 162.36242 478.434804 160.023596C478.434804 158.0378 477.949387 156.228522 476.978554 154.595754C476.007718 152.962987 474.750047 151.47364 473.205542 150.127714S470.0724 147.380696 468.439632 145.924446C466.806864 144.468196 465.196166 142.559628 463.607529 140.198735S460.805353 135.179087 459.966903 132.222456C459.216716 135.134956 458.058335 137.760621 456.491761 140.099445S453.314488 144.33581 451.659658 145.79206S448.405157 148.660429 446.860651 150.028424S444.047441 152.896793 443.054543 154.529561S441.565196 157.993669 441.565196 160.023596C441.565196 162.36242 442.392611 164.348216 444.047441 165.980983S447.699101 168.430131 450.037925 168.430131C453.656488 168.430131 456.613113 166.664977 458.907812 163.134676Z" fill="#010101" />
<path d="M5.479452 588.980213Q5.0 589.672755 5.0 590.631659Q5.106545 592.229833 5.639269 592.549467T7.663623 592.869102Q10.753425 592.869102 12.245053 593.987823T14.109589 596.757991T14.589041 601.073059V643.371385Q14.482496 646.035008 14.109589 647.686454T12.245053 650.456621T7.663623 651.575342H7.024353Q5.958904 651.575342 5.532725 651.94825T5.0 653.812785Q5.0 654.771689 5.479452 655.464231T6.917808 656.156773Q13.843227 655.837139 19.490107 655.837139Q25.882801 655.837139 32.808219 656.156773Q33.767123 656.156773 34.246575 655.464231T34.726027 653.812785Q34.619482 652.214612 34.086758 651.894977T32.062405 651.575342Q28.972603 651.575342 27.480974 650.456621T25.616438 647.686454T25.136986 643.371385V624.086758Q26.841705 624.406393 28.972603 625.898021T34.193303 630.053272Q40.159817 635.593607 49.216134 646.354642Q51.133942 648.48554 51.133942 649.764079Q51.133942 651.362253 48.25723 651.468798Q47.511416 651.575342 47.245053 652.054795T46.765601 653.70624Q46.765601 654.665145 47.298326 655.410959T48.683409 656.156773Q52.412481 655.837139 60.403349 655.837139Q62.960426 655.837139 67.861492 656.050228L70.098935 656.156773Q71.057839 656.156773 71.590563 655.464231T72.123288 653.70624Q72.016743 652.214612 71.484018 651.841705T69.99239 651.468798Q65.730594 651.681887 61.94825 650.083714T54.010654 644.330289L36.750381 626.324201Q40.479452 621.74277 44.421613 617.587519T53.90411 607.891933Q56.674277 605.121766 60.509893 601.073059Q61.681887 599.901065 62.108067 599.368341Q65.517504 595.958904 67.488584 594.57382T72.336377 592.869102Q72.549467 592.869102 73.295282 592.81583T74.520548 592.229833T75.0 590.631659Q75.0 589.672755 74.520548 588.980213T73.082192 588.287671Q71.803653 588.394216 69.99239 588.394216Q66.156773 588.607306 64.025875 588.607306H57.207002Q43.143075 604.269406 32.062405 617.054795Q28.652968 620.996956 25.136986 621.316591V601.073059Q25.243531 598.409437 25.616438 596.757991T27.480974 593.987823T32.062405 592.869102H32.701674Q33.767123 592.869102 34.193303 592.496195T34.726027 590.631659Q34.726027 589.672755 34.246575 588.980213T32.808219 588.287671Q25.989346 588.607306 19.596651 588.607306Q13.843227 588.607306 6.917808 588.287671Q5.958904 588.287671 5.479452 588.980213Z" fill="#010101" />
<path d="M41.092188 536.865324C41.312831 534.570625 41.864444 532.540704 42.747017 530.77555C43.629591 529.010396 44.556296 527.66447 45.527131 526.737766S47.722541 525.016743 49.200854 524.354811C50.679166 523.692879 51.815485 523.262623 52.609803 523.064044S54.374957 522.677917 55.522303 522.501401C55.698819 522.457273 55.831205 522.435208 55.919463 522.435208V521.111344H24.080537V522.435208C27.831487 523.09714 30.677794 524.067976 32.619459 525.347709C36.326278 527.818919 38.422398 531.658124 38.907812 536.865324C36.613113 533.335023 33.656488 531.569869 30.037925 531.569869C27.699101 531.569869 25.702271 532.386249 24.047441 534.019017S21.565196 537.63758 21.565196 539.976404C21.565196 541.9622 22.050613 543.771478 23.021446 545.404246C23.992282 547.037013 25.249953 548.52636 26.794458 549.872286S29.9276 552.619304 31.560368 554.075554C33.193136 555.531804 34.803834 557.440372 36.392471 559.801265S39.194647 564.820913 40.033097 567.777544C40.783284 564.865044 41.941665 562.239379 43.508239 559.900555S46.685512 555.66419 48.340342 554.20794S51.594843 551.339571 53.139349 549.971576S55.952559 547.103207 56.945457 545.470439S58.434804 542.006331 58.434804 539.976404C58.434804 537.63758 57.607389 535.651784 55.952559 534.019017S52.300899 531.569869 49.962075 531.569869C46.343512 531.569869 43.386887 533.335023 41.092188 536.865324Z" fill="#010101" />
</svg>
