<svg width="25.000000" height="35.000000" id="card-lightdiamond7">
<rect x="0" y="0" rx="1.25" ry="1.25" width="25" height="35.0" stroke="#010101" fill="#fffdfa" />
<path d="M7.506954 3.333333C7.395688 3.555865 7.126796 3.955726 6.700278 4.532916C6.27376 5.110107 5.930688 5.542422 5.671071 5.829856C5.995596 6.200742 6.34446 6.641171 6.717663 7.151136C7.090867 7.661103 7.353964 8.055169 7.506954 8.333333C7.850023 7.721372 8.45735 6.88688 9.328929 5.829856C8.434166 4.749655 7.826843 3.917478 7.506954 3.333333Z" fill="#da0a0a" />
<path d="M7.493046 31.666667C7.604312 31.444135 7.873204 31.044274 8.299722 30.467084C8.72624 29.889893 9.069312 29.457578 9.328929 29.170144C9.004404 28.799258 8.65554 28.358829 8.282337 27.848864C7.909133 27.338897 7.646036 26.944831 7.493046 26.666667C7.149977 27.278628 6.54265 28.11312 5.671071 29.170144C6.565834 30.250345 7.173157 31.082522 7.493046 31.666667Z" fill="#da0a0a" />
<path d="M7.506954 15.0C7.395688 15.222531 7.126796 15.622392 6.700278 16.199583C6.27376 16.776773 5.930688 17.209089 5.671071 17.496523C5.995596 17.867408 6.34446 18.307837 6.717663 18.817803C7.090867 19.32777 7.353964 19.721836 7.506954 20.0C7.850023 19.388039 8.45735 18.553547 9.328929 17.496523C8.434166 16.416321 7.826843 15.584145 7.506954 15.0Z" fill="#da0a0a" />
<path d="M17.506954 3.333333C17.395688 3.555865 17.126796 3.955726 16.700278 4.532916C16.27376 5.110107 15.930688 5.542422 15.671071 5.829856C15.995596 6.200742 16.34446 6.641171 16.717663 7.151136C17.090867 7.661103 17.353964 8.055169 17.506954 8.333333C17.850023 7.721372 18.45735 6.88688 19.328929 5.829856C18.434166 4.749655 17.826843 3.917478 17.506954 3.333333Z" fill="#da0a0a" />
<path d="M17.493046 31.666667C17.604312 31.444135 17.873204 31.044274 18.299722 30.467084C18.72624 29.889893 19.069312 29.457578 19.328929 29.170144C19.004404 28.799258 18.65554 28.358829 18.282337 27.848864C17.909133 27.338897 17.646036 26.944831 17.493046 26.666667C17.149977 27.278628 16.54265 28.11312 15.671071 29.170144C16.565834 30.250345 17.173157 31.082522 17.493046 31.666667Z" fill="#da0a0a" />
<path d="M17.506954 15.0C17.395688 15.222531 17.126796 15.622392 16.700278 16.199583C16.27376 16.776773 15.930688 17.209089 15.671071 17.496523C15.995596 17.867408 16.34446 18.307837 16.717663 18.817803C17.090867 19.32777 17.353964 19.721836 17.506954 20.0C17.850023 19.388039 18.45735 18.553547 19.328929 17.496523C18.434166 16.416321 17.826843 15.584145 17.506954 15.0Z" fill="#da0a0a" />
<path d="M12.506954 9.166667C12.395688 9.389198 12.126796 9.789059 11.700278 10.366249C11.27376 10.94344 10.930688 11.375756 10.671071 11.66319C10.995596 12.034075 11.34446 12.474504 11.717663 12.984469C12.090867 13.494436 12.353964 13.888503 12.506954 14.166667C12.850023 13.554706 13.45735 12.720213 14.328929 11.66319C13.434166 10.582988 12.826843 9.750811 12.506954 9.166667Z" fill="#da0a0a" />
<path d="M23.552122 5.564627Q23.616697 5.490365 23.616697 5.361214Q23.616697 5.077081 23.297048 4.434553T22.460793 2.862136L22.312269 2.597376H23.442343Q23.616697 2.597376 23.703875 2.623206T23.845941 2.7459T23.926661 3.049405Q23.939576 3.101066 23.968635 3.123667T24.075185 3.146269Q24.184963 3.146269 24.184963 3.03649L24.159133 2.280955Q24.159133 2.138889 23.971863 2.138889H22.002306Q21.815037 2.138889 21.815037 2.261583Q21.815037 2.358446 21.957103 2.597376Q22.196033 2.997745 22.399446 3.491749T22.848247 4.663797Q23.048432 5.21269 23.138838 5.432247Q23.235701 5.638889 23.403598 5.638889Q23.487546 5.638889 23.552122 5.564627Z" fill="#da0a0a" />
<path d="M23.003245 6.611123C22.951322 6.71497 22.82584 6.90157 22.6268 7.170922C22.42776 7.440275 22.267662 7.642021 22.146508 7.776155C22.297952 7.949233 22.460753 8.154765 22.634913 8.392746C22.809073 8.630728 22.93185 8.814624 23.003245 8.944433C23.163342 8.658854 23.446759 8.269428 23.853492 7.776155C23.43594 7.272066 23.152525 6.883721 23.003245 6.611123Z" fill="#da0a0a" />
<path d="M1.447878 29.435373Q1.383303 29.509635 1.383303 29.638786Q1.383303 29.922919 1.702952 30.565447T2.539207 32.137864L2.687731 32.402624H1.557657Q1.383303 32.402624 1.296125 32.376794T1.154059 32.2541T1.073339 31.950595Q1.060424 31.898934 1.031365 31.876333T0.924815 31.853731Q0.815037 31.853731 0.815037 31.96351L0.840867 32.719045Q0.840867 32.861111 1.028137 32.861111H2.997694Q3.184963 32.861111 3.184963 32.738417Q3.184963 32.641554 3.042897 32.402624Q2.803967 32.002255 2.600554 31.508251T2.151753 30.336203Q1.951568 29.78731 1.861162 29.567753Q1.764299 29.361111 1.596402 29.361111Q1.512454 29.361111 1.447878 29.435373Z" fill="#da0a0a" />
<path d="M1.996755 28.388877C2.048678 28.28503 2.17416 28.09843 2.3732 27.829078C2.57224 27.559725 2.732338 27.357979 2.853492 27.223845C2.702048 27.050767 2.539247 26.845235 2.365087 26.607254C2.190927 26.369272 2.06815 26.185376 1.996755 26.055567C1.836658 26.341146 1.553241 26.730572 1.146508 27.223845C1.56406 27.727934 1.847475 28.116279 1.996755 28.388877Z" fill="#da0a0a" />
</svg>
