<svg width="150.000000" height="210.000000" id="card-webclub11">
<radialGradient id="card-webwhitegradient" cx="75.0" cy="105.0" r="150" gradientTransform="matrix(1 0 0 1 0 -.25)" gradientUnits="userSpaceOnUse">
<stop stop-color="#FDFAF4" offset=".15"/>
<stop stop-color="#FDF9F2" offset=".35"/>
<stop stop-color="#FCF7F1" offset=".5"/>
<stop stop-color="#FDFDF8" offset=".75"/>
<stop stop-color="#FFFDFA" offset="1"/>
</radialGradient>
<rect x="0" y="0" rx="7.5" ry="7.5" width="150" height="210.0" stroke="#010101" fill="url(#card-webwhitegradient)" />
<rect x="30.0" y="21.0" width="90.0" height="168.0" stroke="#010101" fill="#fffdfa" />
<path d="M94.249292 72.303324C93.456091 72.303324 93.05949 72.841567 93.05949 73.918055C93.05949 75.334488 93.767705 76.042701 95.184136 76.042701C95.750708 76.042701 96.033994 75.589443 96.033994 74.682927C96.033994 73.096522 95.439093 72.303324 94.249292 72.303324ZM88.130312 61.935052C88.923512 61.935052 89.320113 61.453465 89.320113 60.490293C89.320113 59.413803 88.78187 58.422307 87.705382 57.515788C86.628892 56.60927 85.524076 56.156015 84.390935 56.156015C83.087822 56.156015 82.436261 56.552616 82.436261 57.345817C82.436261 58.365647 83.116147 59.385477 84.475921 60.405307S87.053822 61.935052 88.130312 61.935052ZM87.450425 45.957715C87.223796 46.750916 87.110482 47.289162 87.110482 47.572446C87.110482 47.742417 87.195467 48.195675 87.365439 48.932219C87.025496 48.932219 86.416428 48.776412 85.538244 48.464797S84.022666 47.855732 83.626062 47.572446C85.155807 46.779245 86.430595 46.240998 87.450425 45.957715ZM72.577904 69.243834C72.577904 71.736749 73.25779 74.272165 74.617564 76.850066S77.407929 81.821737 78.909348 84.031369S81.246459 87.969043 81.416431 89.215505H53.371105C53.144476 86.60927 53.031161 84.68293 53.031161 83.436468C53.031161 78.50729 53.725213 73.946355 55.113314 69.753749C56.501414 65.561117 58.144479 62.274995 60.042493 59.895392S63.72521 55.674426 65.396601 54.371313C67.067992 53.068199 68.385272 52.416638 69.348442 52.416638H74.447592C74.90085 52.190009 75.311618 51.170177 75.679887 49.357148C76.048158 47.54412 76.51558 46.41097 77.082153 45.957715C77.53541 47.4308 78.314448 48.478964 79.419263 49.102191C80.524079 49.72542 81.883853 50.263667 83.498584 50.716922S86.373935 51.736752 87.280453 52.416638C87.96034 54.739582 89.787535 58.733916 92.76204 64.399641S97.337108 73.663097 97.563739 75.192842C97.33711 76.042701 96.798867 76.807573 95.949008 77.48746S94.192632 78.50729 93.229462 78.50729C92.832861 78.50729 92.322943 78.280661 91.699717 77.827403S90.509915 77.147517 90.0 77.147517C89.716714 77.147517 89.575071 77.317488 89.575071 77.657432L89.830028 78.422304C90.0 78.932219 90.084986 79.215505 90.084986 79.272162C90.084986 79.782077 89.688385 80.037035 88.895184 80.037035C88.78187 80.037035 88.073654 79.045531 86.770538 77.062531C84.277623 73.209842 80.736544 70.29199 76.147309 68.30899C75.807365 66.042698 75.084986 63.974712 73.98017 62.105024S72.011329 59.300491 71.388102 59.300491C70.878187 59.300491 70.623229 59.668763 70.623229 60.405307C70.623229 60.801908 70.977337 62.005871 71.685552 64.017205S72.747875 67.402471 72.747875 68.139018C72.747875 68.30899 72.691218 68.677261 72.577904 69.243834ZM70.793201 48.847233C69.603399 48.847233 68.2153 49.158848 66.628895 49.782077C65.04249 50.405307 63.229462 51.580947 61.189802 53.30899S57.29462 57.190012 55.623229 59.767913S52.535414 65.858568 51.373938 70.306157C50.212462 74.753746 49.631728 79.725392 49.631728 85.221171C49.631728 87.884058 49.745042 90.263661 49.971671 92.359981H85.580737C85.410765 89.753746 84.858357 87.430803 83.923513 85.391143S81.983006 81.793412 80.906516 80.716922C79.830025 79.640432 78.796037 78.294825 77.804533 76.680094S76.203969 73.323154 75.977337 71.453466C78.186969 72.416636 80.070824 73.592279 81.628895 74.980378S84.277623 77.629106 84.90085 78.762247S86.133144 80.872726 86.728045 81.694259C87.322946 82.515789 87.90368 82.926553 88.470255 82.926553C89.433425 82.926553 90.283283 82.699924 91.01983 82.246667S92.152972 81.226837 92.209632 80.54695C92.776204 80.830236 93.342773 80.971879 93.909348 80.971879C96.572235 80.971879 98.725215 79.272162 100.368272 75.872729C100.028329 73.719757 98.15864 69.059695 94.759207 61.892559S89.660057 50.09372 89.660057 47.997375C89.660057 47.714089 89.830028 46.127686 90.169972 43.238168C86.657227 43.238168 83.512751 44.201338 80.736544 46.127686C79.206799 43.4648 77.932011 42.133352 76.912181 42.133352C75.552408 42.869896 74.575071 43.691423 73.98017 44.597941S72.804535 46.977545 72.23796 49.017205C71.671388 48.903891 71.189805 48.847233 70.793201 48.847233Z" fill="#010101" />
<path d="M55.750708 137.696676C56.543909 137.696676 56.94051 137.158433 56.94051 136.081945C56.94051 134.665512 56.232295 133.957299 54.815864 133.957299C54.249292 133.957299 53.966006 134.410557 53.966006 135.317073C53.966006 136.903478 54.560907 137.696676 55.750708 137.696676ZM61.869688 148.064948C61.076488 148.064948 60.679887 148.546535 60.679887 149.509707C60.679887 150.586197 61.21813 151.577693 62.294618 152.484212C63.371108 153.39073 64.475924 153.843985 65.609065 153.843985C66.912178 153.843985 67.563739 153.447384 67.563739 152.654183C67.563739 151.634353 66.883853 150.614523 65.524079 149.594693S62.946178 148.064948 61.869688 148.064948ZM62.549575 164.042285C62.776204 163.249084 62.889518 162.710838 62.889518 162.427554C62.889518 162.257583 62.804533 161.804325 62.634561 161.067781C62.974504 161.067781 63.583572 161.223588 64.461756 161.535203S65.977334 162.144268 66.373938 162.427554C64.844193 163.220755 63.569405 163.759002 62.549575 164.042285ZM77.422096 140.756166C77.422096 138.263251 76.74221 135.727835 75.382436 133.149934S72.592071 128.178263 71.090652 125.968631S68.753541 122.030957 68.583569 120.784495H96.628895C96.855524 123.39073 96.968839 125.31707 96.968839 126.563532C96.968839 131.49271 96.274787 136.053645 94.886686 140.246251C93.498586 144.438883 91.855521 147.725005 89.957507 150.104608S86.27479 154.325574 84.603399 155.628687C82.932008 156.931801 81.614728 157.583362 80.651558 157.583362H75.552408C75.09915 157.809991 74.688382 158.829823 74.320113 160.642852C73.951842 162.45588 73.48442 163.58903 72.917847 164.042285C72.46459 162.5692 71.685552 161.521036 70.580737 160.897809C69.475921 160.27458 68.116147 159.736333 66.501416 159.283078S63.626065 158.263248 62.719547 157.583362C62.03966 155.260418 60.212465 151.266084 57.23796 145.600359S52.662892 136.336903 52.436261 134.807158C52.66289 133.957299 53.201133 133.192427 54.050992 132.51254S55.807368 131.49271 56.770538 131.49271C57.167139 131.49271 57.677057 131.719339 58.300283 132.172597S59.490085 132.852483 60.0 132.852483C60.283286 132.852483 60.424929 132.682512 60.424929 132.342568L60.169972 131.577696C60.0 131.067781 59.915014 130.784495 59.915014 130.727838C59.915014 130.217923 60.311615 129.962965 61.104816 129.962965C61.21813 129.962965 61.926346 130.954469 63.229462 132.937469C65.722377 136.790158 69.263456 139.70801 73.852691 141.69101C74.192635 143.957302 74.915014 146.025288 76.01983 147.894976S77.988671 150.699509 78.611898 150.699509C79.121813 150.699509 79.376771 150.331237 79.376771 149.594693C79.376771 149.198092 79.022663 147.994129 78.314448 145.982795S77.252125 142.597529 77.252125 141.860982C77.252125 141.69101 77.308782 141.322739 77.422096 140.756166ZM79.206799 161.152767C80.396601 161.152767 81.7847 160.841152 83.371105 160.217923C84.95751 159.594693 86.770538 158.419053 88.810198 156.69101S92.70538 152.809988 94.376771 150.232087S97.464586 144.141432 98.626062 139.693843C99.787538 135.246254 100.368272 130.274608 100.368272 124.778829C100.368272 122.115942 100.254958 119.736339 100.028329 117.640019H64.419263C64.589235 120.246254 65.141643 122.569197 66.076487 124.608857S68.016994 128.206588 69.093484 129.283078C70.169975 130.359568 71.203963 131.705175 72.195467 133.319906S73.796031 136.676846 74.022663 138.546534C71.813031 137.583364 69.929176 136.407721 68.371105 135.019622S65.722377 132.370894 65.09915 131.237753S63.866856 129.127274 63.271955 128.305741C62.677054 127.484211 62.09632 127.073447 61.529745 127.073447C60.566575 127.073447 59.716717 127.300076 58.98017 127.753333S57.847028 128.773163 57.790368 129.45305C57.223796 129.169764 56.657227 129.028121 56.090652 129.028121C53.427765 129.028121 51.274785 130.727838 49.631728 134.127271C49.971671 136.280243 51.84136 140.940305 55.240793 148.107441S60.339943 159.90628 60.339943 162.002625C60.339943 162.285911 60.169972 163.872314 59.830028 166.761832C63.342773 166.761832 66.487249 165.798662 69.263456 163.872314C70.793201 166.5352 72.067989 167.866648 73.087819 167.866648C74.447592 167.130104 75.424929 166.308577 76.01983 165.402059S77.195465 163.022455 77.76204 160.982795C78.328612 161.096109 78.810195 161.152767 79.206799 161.152767Z" fill="#010101" />
<path d="M141.457627 33.833333Q141.813559 33.833333 141.940678 33.40113Q141.966102 33.324859 141.966102 33.172316Q141.966102 32.867232 141.686441 32.765537Q140.415254 32.231638 139.805085 31.240113T139.016949 28.786723T138.838983 24.833333V15.884181Q138.864407 15.248588 138.95339 14.85452T139.398305 14.193503T140.491525 13.926554H140.644068Q140.898305 13.926554 141.012712 13.837571T141.152542 13.392655Q141.152542 13.163842 141.025424 12.998588T140.694915 12.833333Q139.067797 12.909605 137.669492 12.909605Q136.118644 12.909605 134.491525 12.833333Q134.262712 12.833333 134.148305 12.998588T134.033898 13.392655Q134.059322 13.774011 134.199153 13.850282T134.694915 13.926554Q135.432203 13.926554 135.788136 14.193503T136.233051 14.85452T136.347458 15.884181V25.69774Q136.347458 28.977401 137.504237 31.074859T141.355932 33.833333H141.457627Z" fill="#010101" />
<path d="M137.722382 47.846542C137.709162 48.243138 137.692638 48.563721 137.672808 48.808288C137.652978 49.052856 137.603403 49.363524 137.524084 49.74029S137.348921 50.427725 137.236552 50.672292S136.955628 51.191174 136.730891 51.49523S136.241754 52.050466 135.937698 52.248764S135.250263 52.638751 134.787568 52.823829S133.796076 53.154327 133.201181 53.260085V53.656682H142.798819V53.260085C142.203924 53.154326 141.675128 53.005603 141.212432 52.813914S140.363055 52.427232 140.052387 52.228934S139.477322 51.776154 139.259194 51.465486S138.872513 50.880506 138.753534 50.642548S138.538711 50.093922 138.466001 49.710546S138.347022 49.019807 138.327192 48.788458C138.307362 48.55711 138.290838 48.243138 138.277618 47.846542C138.594895 48.428216 138.852683 48.838033 139.050981 49.075991C139.407918 49.525468 139.84748 49.882405 140.369665 50.146802C140.89185 50.411199 141.404121 50.543398 141.906477 50.543398C142.75255 50.543398 143.479642 50.229427 144.087758 49.601482S144.99993 48.216699 144.99993 47.330966C144.99993 46.471674 144.725618 45.73797 144.176992 45.129855S142.964067 44.217683 142.184094 44.217683C141.919697 44.217683 141.675128 44.254037 141.45039 44.326747S141.000914 44.491995 140.776176 44.604364L140.35975 44.812578C140.875325 44.072265 141.133113 43.371609 141.133113 42.710616C141.133113 41.877763 140.825751 41.163889 140.211026 40.568994S138.859292 39.676652 138.0 39.676652S136.403699 39.974099 135.788974 40.568994S134.866887 41.877763 134.866887 42.710616C134.866887 43.371609 135.124675 44.072265 135.64025 44.812578C135.547711 44.772918 135.418816 44.713428 135.253569 44.634109S134.966036 44.4953 134.886717 44.455641S134.704943 44.376321 134.579354 44.336662S134.331481 44.267257 134.212502 44.247427S133.961324 44.217683 133.815906 44.217683C133.035933 44.217683 132.371634 44.521739 131.823008 45.129855S131.00007 46.471674 131.00007 47.330966C131.00007 48.216699 131.304127 48.973536 131.912242 49.601482S133.24745 50.543398 134.093523 50.543398C135.54771 50.543398 136.757324 49.644447 137.722382 47.846542Z" fill="#010101" />
<path d="M8.542373 176.166667Q8.186441 176.166667 8.059322 176.59887Q8.033898 176.675141 8.033898 176.827684Q8.033898 177.132768 8.313559 177.234463Q9.584746 177.768362 10.194915 178.759887T10.983051 181.213277T11.161017 185.166667V194.115819Q11.135593 194.751412 11.04661 195.14548T10.601695 195.806497T9.508475 196.073446H9.355932Q9.101695 196.073446 8.987288 196.162429T8.847458 196.607345Q8.847458 196.836158 8.974576 197.001412T9.305085 197.166667Q10.932203 197.090395 12.330508 197.090395Q13.881356 197.090395 15.508475 197.166667Q15.737288 197.166667 15.851695 197.001412T15.966102 196.607345Q15.940678 196.225989 15.800847 196.149718T15.305085 196.073446Q14.567797 196.073446 14.211864 195.806497T13.766949 195.14548T13.652542 194.115819V184.30226Q13.652542 181.022599 12.495763 178.925141T8.644068 176.166667H8.542373Z" fill="#010101" />
<path d="M12.277618 162.153458C12.290838 161.756862 12.307362 161.436279 12.327192 161.191712C12.347022 160.947144 12.396597 160.636476 12.475916 160.25971S12.651079 159.572275 12.763448 159.327708S13.044372 158.808826 13.269109 158.50477S13.758246 157.949534 14.062302 157.751236S14.749737 157.361249 15.212432 157.176171S16.203924 156.845673 16.798819 156.739915V156.343318H7.201181V156.739915C7.796076 156.845674 8.324872 156.994397 8.787568 157.186086S9.636945 157.572768 9.947613 157.771066S10.522678 158.223846 10.740806 158.534514S11.127487 159.119494 11.246466 159.357452S11.461289 159.906078 11.533999 160.289454S11.652978 160.980193 11.672808 161.211542C11.692638 161.44289 11.709162 161.756862 11.722382 162.153458C11.405105 161.571784 11.147317 161.161967 10.949019 160.924009C10.592082 160.474532 10.15252 160.117595 9.630335 159.853198C9.10815 159.588801 8.595879 159.456602 8.093523 159.456602C7.24745 159.456602 6.520358 159.770573 5.912242 160.398518S5.00007 161.783301 5.00007 162.669034C5.00007 163.528326 5.274382 164.26203 5.823008 164.870145S7.035933 165.782317 7.815906 165.782317C8.080303 165.782317 8.324872 165.745963 8.54961 165.673253S8.999086 165.508005 9.223824 165.395636L9.64025 165.187422C9.124675 165.927735 8.866887 166.628391 8.866887 167.289384C8.866887 168.122237 9.174249 168.836111 9.788974 169.431006S11.140708 170.323348 12.0 170.323348S13.596301 170.025901 14.211026 169.431006S15.133113 168.122237 15.133113 167.289384C15.133113 166.628391 14.875325 165.927735 14.35975 165.187422C14.452289 165.227082 14.581184 165.286572 14.746431 165.365891S15.033964 165.5047 15.113283 165.544359S15.295057 165.623679 15.420646 165.663338S15.668519 165.732743 15.787498 165.752573S16.038676 165.782317 16.184094 165.782317C16.964067 165.782317 17.628366 165.478261 18.176992 164.870145S18.99993 163.528326 18.99993 162.669034C18.99993 161.783301 18.695873 161.026464 18.087758 160.398518S16.75255 159.456602 15.906477 159.456602C14.45229 159.456602 13.242676 160.355553 12.277618 162.153458Z" fill="#010101" />
</svg>
