<svg width="500.000000" height="700.000000" id="card-webdiamond5">
<radialGradient id="card-webwhitegradient" cx="250.0" cy="350.0" r="500" gradientTransform="matrix(1 0 0 1 0 -.25)" gradientUnits="userSpaceOnUse">
<stop stop-color="#FDFAF4" offset=".15"/>
<stop stop-color="#FDF9F2" offset=".35"/>
<stop stop-color="#FCF7F1" offset=".5"/>
<stop stop-color="#FDFDF8" offset=".75"/>
<stop stop-color="#FFFDFA" offset="1"/>
</radialGradient>
<rect x="0" y="0" rx="25.0" ry="25.0" width="500" height="700.0" fill="url(#card-webwhitegradient)" />
<path d="M150.139082 66.666667C147.913769 71.117293 142.535925 79.114511 134.005563 90.658322C125.475202 102.202133 118.613769 110.848447 113.421419 116.597126C119.911919 124.014831 126.889193 132.823412 134.353268 143.022717C141.817344 153.222063 147.079277 161.103384 150.139082 166.666667C157.000459 154.427446 169.14701 137.737599 186.578581 116.597126C168.68331 94.993092 156.536857 78.34956 150.139082 66.666667Z" fill="#da0a0a" />
<path d="M149.860918 633.333333C152.086231 628.882707 157.464075 620.885489 165.994437 609.341678C174.524798 597.797867 181.386231 589.151553 186.578581 583.402874C180.088081 575.985169 173.110807 567.176588 165.646732 556.977283C158.182656 546.777937 152.920723 538.896616 149.860918 533.333333C142.999541 545.572554 130.85299 562.262401 113.421419 583.402874C131.31669 605.006908 143.463143 621.65044 149.860918 633.333333Z" fill="#da0a0a" />
<path d="M350.139082 66.666667C347.913769 71.117293 342.535925 79.114511 334.005563 90.658322C325.475202 102.202133 318.613769 110.848447 313.421419 116.597126C319.911919 124.014831 326.889193 132.823412 334.353268 143.022717C341.817344 153.222063 347.079277 161.103384 350.139082 166.666667C357.000459 154.427446 369.14701 137.737599 386.578581 116.597126C368.68331 94.993092 356.536857 78.34956 350.139082 66.666667Z" fill="#da0a0a" />
<path d="M349.860918 633.333333C352.086231 628.882707 357.464075 620.885489 365.994437 609.341678C374.524798 597.797867 381.386231 589.151553 386.578581 583.402874C380.088081 575.985169 373.110807 567.176588 365.646732 556.977283C358.182656 546.777937 352.920723 538.896616 349.860918 533.333333C342.999541 545.572554 330.85299 562.262401 313.421419 583.402874C331.31669 605.006908 343.463143 621.65044 349.860918 633.333333Z" fill="#da0a0a" />
<path d="M250.139082 300.0C247.913769 304.450626 242.535925 312.447844 234.005563 323.991655C225.475202 335.535466 218.613769 344.18178 213.421419 349.930459C219.911919 357.348164 226.889193 366.156745 234.353268 376.35605C241.817344 386.555396 247.079277 394.436718 250.139082 400.0C257.000459 387.760779 269.14701 371.070932 286.578581 349.930459C268.68331 328.326426 256.536857 311.682893 250.139082 300.0Z" fill="#da0a0a" />
<path d="M478.277778 109.277778Q484.62963 105.777778 484.62963 98.388889Q484.62963 94.37037 482.231481 91.324074T475.814815 88.277778Q473.351852 88.277778 471.601852 89.574074T469.851852 91.777778Q469.851852 91.907407 471.018519 92.944444T473.157407 95.472222T474.12963 98.907407Q474.12963 103.314815 470.953704 105.648148T462.074074 107.981481Q454.944444 107.981481 451.37963 102.925926T447.814815 89.703704Q447.814815 82.185185 451.444444 77.194444T462.722222 72.203704Q466.222222 72.203704 468.75 73.305556T474.12963 76.481481Q475.814815 77.648148 476.916667 78.231481T479.055556 78.814815Q481.12963 78.814815 481.12963 75.185185L481.0 73.62963L476.981481 42.777778H441.333333Q439.518519 42.777778 438.416667 43.944444T437.314815 47.185185Q437.314815 51.981481 442.240741 51.981481H471.018519L473.740741 70.0Q468.037037 66.5 459.740741 66.5Q454.166667 66.5 448.527778 68.962963T439.12963 76.481481T435.37037 89.055556T439.064815 101.953704T448.916667 110.055556T462.333333 112.777778Q471.925926 112.777778 478.277778 109.277778Z" fill="#da0a0a" />
<path d="M460.064904 132.222456C459.026435 134.299394 456.5168 138.031391 452.536004 143.418449C448.555209 148.805507 445.353239 152.840413 442.930166 155.523103C445.959036 158.984665 449.215065 163.095295 452.698265 167.854923C456.181465 172.61457 458.637009 176.292483 460.064904 178.888656C463.266848 173.177076 468.935182 165.388559 477.069834 155.523103C468.718791 145.441322 463.050503 137.674418 460.064904 132.222456Z" fill="#da0a0a" />
<path d="M21.722222 590.722222Q15.37037 594.222222 15.37037 601.611111Q15.37037 605.62963 17.768519 608.675926T24.185185 611.722222Q26.648148 611.722222 28.398148 610.425926T30.148148 608.222222Q30.148148 608.092593 28.981481 607.055556T26.842593 604.527778T25.87037 601.092593Q25.87037 596.685185 29.046296 594.351852T37.925926 592.018519Q45.055556 592.018519 48.62037 597.074074T52.185185 610.296296Q52.185185 617.814815 48.555556 622.805556T37.277778 627.796296Q33.777778 627.796296 31.25 626.694444T25.87037 623.518519Q24.185185 622.351852 23.083333 621.768519T20.944444 621.185185Q18.87037 621.185185 18.87037 624.814815L19.0 626.37037L23.018519 657.222222H58.666667Q60.481481 657.222222 61.583333 656.055556T62.685185 652.814815Q62.685185 648.018519 57.759259 648.018519H28.981481L26.259259 630.0Q31.962963 633.5 40.259259 633.5Q45.833333 633.5 51.472222 631.037037T60.87037 623.518519T64.62963 610.944444T60.935185 598.046296T51.083333 589.944444T37.666667 587.222222Q28.074074 587.222222 21.722222 590.722222Z" fill="#da0a0a" />
<path d="M39.935096 567.777544C40.973565 565.700606 43.4832 561.968609 47.463996 556.581551C51.444791 551.194493 54.646761 547.159587 57.069834 544.476897C54.040964 541.015335 50.784935 536.904705 47.301735 532.145077C43.818535 527.38543 41.362991 523.707517 39.935096 521.111344C36.733152 526.822924 31.064818 534.611441 22.930166 544.476897C31.281209 554.558678 36.949497 562.325582 39.935096 567.777544Z" fill="#da0a0a" />
</svg>
