<svg width="25.000000" height="35.000000" id="card-lightspade8">
<rect x="0" y="0" rx="1.25" ry="1.25" width="25" height="35.0" stroke="#010101" fill="#fffdfa" />
<path d="M7.382979 6.64539C7.359338 6.891253 7.300236 7.108747 7.205674 7.297872C7.111111 7.486998 7.011821 7.631206 6.907801 7.730496S6.672577 7.914894 6.514184 7.985816C6.355792 8.056738 6.234043 8.102837 6.148936 8.124113S5.959811 8.165485 5.836879 8.184397C5.817967 8.189125 5.803782 8.191489 5.794326 8.191489V8.333333H9.205674V8.191489C8.803782 8.120567 8.498818 8.016548 8.29078 7.879433C7.893617 7.614657 7.66903 7.20331 7.617021 6.64539C7.862884 7.02364 8.179669 7.212766 8.567376 7.212766C8.817967 7.212766 9.031915 7.125296 9.20922 6.950355S9.475177 6.562648 9.475177 6.312057C9.475177 6.099291 9.423168 5.905438 9.319149 5.730496C9.21513 5.555555 9.080378 5.395981 8.914894 5.251773S8.579196 4.957447 8.404255 4.801418C8.229314 4.64539 8.056738 4.440899 7.886525 4.187943S7.586289 3.650118 7.496454 3.333333C7.416076 3.64539 7.291962 3.926714 7.124113 4.177305S6.783688 4.631206 6.606383 4.787234S6.257683 5.094562 6.092199 5.241135S5.79078 5.548463 5.684397 5.723404S5.524823 6.094562 5.524823 6.312057C5.524823 6.562648 5.613475 6.775413 5.79078 6.950355S6.182033 7.212766 6.432624 7.212766C6.820331 7.212766 7.137116 7.02364 7.382979 6.64539Z" fill="#010101" />
<path d="M7.617021 28.35461C7.640662 28.108747 7.699764 27.891253 7.794326 27.702128C7.888889 27.513002 7.988179 27.368794 8.092199 27.269504S8.327423 27.085106 8.485816 27.014184C8.644208 26.943262 8.765957 26.897163 8.851064 26.875887S9.040189 26.834515 9.163121 26.815603C9.182033 26.810875 9.196218 26.808511 9.205674 26.808511V26.666667H5.794326V26.808511C6.196218 26.879433 6.501182 26.983452 6.70922 27.120567C7.106383 27.385343 7.33097 27.79669 7.382979 28.35461C7.137116 27.97636 6.820331 27.787234 6.432624 27.787234C6.182033 27.787234 5.968085 27.874704 5.79078 28.049645S5.524823 28.437352 5.524823 28.687943C5.524823 28.900709 5.576832 29.094562 5.680851 29.269504C5.78487 29.444445 5.919622 29.604019 6.085106 29.748227S6.420804 30.042553 6.595745 30.198582C6.770686 30.35461 6.943262 30.559101 7.113475 30.812057S7.413711 31.349882 7.503546 31.666667C7.583924 31.35461 7.708038 31.073286 7.875887 30.822695S8.216312 30.368794 8.393617 30.212766S8.742317 29.905438 8.907801 29.758865S9.20922 29.451537 9.315603 29.276596S9.475177 28.905438 9.475177 28.687943C9.475177 28.437352 9.386525 28.224587 9.20922 28.049645S8.817967 27.787234 8.567376 27.787234C8.179669 27.787234 7.862884 27.97636 7.617021 28.35461Z" fill="#010101" />
<path d="M7.382979 14.423168C7.359338 14.669031 7.300236 14.886525 7.205674 15.07565C7.111111 15.264776 7.011821 15.408983 6.907801 15.508274S6.672577 15.692671 6.514184 15.763593C6.355792 15.834515 6.234043 15.880615 6.148936 15.901891S5.959811 15.943262 5.836879 15.962175C5.817967 15.966903 5.803782 15.969267 5.794326 15.969267V16.111111H9.205674V15.969267C8.803782 15.898345 8.498818 15.794326 8.29078 15.65721C7.893617 15.392435 7.66903 14.981088 7.617021 14.423168C7.862884 14.801418 8.179669 14.990544 8.567376 14.990544C8.817967 14.990544 9.031915 14.903074 9.20922 14.728132S9.475177 14.340425 9.475177 14.089835C9.475177 13.877069 9.423168 13.683215 9.319149 13.508274C9.21513 13.333333 9.080378 13.173759 8.914894 13.029551S8.579196 12.735225 8.404255 12.579196C8.229314 12.423168 8.056738 12.218676 7.886525 11.965721S7.586289 11.427896 7.496454 11.111111C7.416076 11.423168 7.291962 11.704492 7.124113 11.955083S6.783688 12.408983 6.606383 12.565012S6.257683 12.87234 6.092199 13.018913S5.79078 13.326241 5.684397 13.501182S5.524823 13.87234 5.524823 14.089835C5.524823 14.340425 5.613475 14.553191 5.79078 14.728132S6.182033 14.990544 6.432624 14.990544C6.820331 14.990544 7.137116 14.801418 7.382979 14.423168Z" fill="#010101" />
<path d="M7.617021 20.576832C7.640662 20.330969 7.699764 20.113475 7.794326 19.92435C7.888889 19.735224 7.988179 19.591017 8.092199 19.491726S8.327423 19.307329 8.485816 19.236407C8.644208 19.165485 8.765957 19.119385 8.851064 19.098109S9.040189 19.056738 9.163121 19.037825C9.182033 19.033097 9.196218 19.030733 9.205674 19.030733V18.888889H5.794326V19.030733C6.196218 19.101655 6.501182 19.205674 6.70922 19.34279C7.106383 19.607565 7.33097 20.018912 7.382979 20.576832C7.137116 20.198582 6.820331 20.009456 6.432624 20.009456C6.182033 20.009456 5.968085 20.096926 5.79078 20.271868S5.524823 20.659575 5.524823 20.910165C5.524823 21.122931 5.576832 21.316785 5.680851 21.491726C5.78487 21.666667 5.919622 21.826241 6.085106 21.970449S6.420804 22.264775 6.595745 22.420804C6.770686 22.576832 6.943262 22.781324 7.113475 23.034279S7.413711 23.572104 7.503546 23.888889C7.583924 23.576832 7.708038 23.295508 7.875887 23.044917S8.216312 22.591017 8.393617 22.434988S8.742317 22.12766 8.907801 21.981087S9.20922 21.673759 9.315603 21.498818S9.475177 21.12766 9.475177 20.910165C9.475177 20.659575 9.386525 20.446809 9.20922 20.271868S8.817967 20.009456 8.567376 20.009456C8.179669 20.009456 7.862884 20.198582 7.617021 20.576832Z" fill="#010101" />
<path d="M17.382979 6.64539C17.359338 6.891253 17.300236 7.108747 17.205674 7.297872C17.111111 7.486998 17.011821 7.631206 16.907801 7.730496S16.672577 7.914894 16.514184 7.985816C16.355792 8.056738 16.234043 8.102837 16.148936 8.124113S15.959811 8.165485 15.836879 8.184397C15.817967 8.189125 15.803782 8.191489 15.794326 8.191489V8.333333H19.205674V8.191489C18.803782 8.120567 18.498818 8.016548 18.29078 7.879433C17.893617 7.614657 17.66903 7.20331 17.617021 6.64539C17.862884 7.02364 18.179669 7.212766 18.567376 7.212766C18.817967 7.212766 19.031915 7.125296 19.20922 6.950355S19.475177 6.562648 19.475177 6.312057C19.475177 6.099291 19.423168 5.905438 19.319149 5.730496C19.21513 5.555555 19.080378 5.395981 18.914894 5.251773S18.579196 4.957447 18.404255 4.801418C18.229314 4.64539 18.056738 4.440899 17.886525 4.187943S17.586289 3.650118 17.496454 3.333333C17.416076 3.64539 17.291962 3.926714 17.124113 4.177305S16.783688 4.631206 16.606383 4.787234S16.257683 5.094562 16.092199 5.241135S15.79078 5.548463 15.684397 5.723404S15.524823 6.094562 15.524823 6.312057C15.524823 6.562648 15.613475 6.775413 15.79078 6.950355S16.182033 7.212766 16.432624 7.212766C16.820331 7.212766 17.137116 7.02364 17.382979 6.64539Z" fill="#010101" />
<path d="M17.617021 28.35461C17.640662 28.108747 17.699764 27.891253 17.794326 27.702128C17.888889 27.513002 17.988179 27.368794 18.092199 27.269504S18.327423 27.085106 18.485816 27.014184C18.644208 26.943262 18.765957 26.897163 18.851064 26.875887S19.040189 26.834515 19.163121 26.815603C19.182033 26.810875 19.196218 26.808511 19.205674 26.808511V26.666667H15.794326V26.808511C16.196218 26.879433 16.501182 26.983452 16.70922 27.120567C17.106383 27.385343 17.33097 27.79669 17.382979 28.35461C17.137116 27.97636 16.820331 27.787234 16.432624 27.787234C16.182033 27.787234 15.968085 27.874704 15.79078 28.049645S15.524823 28.437352 15.524823 28.687943C15.524823 28.900709 15.576832 29.094562 15.680851 29.269504C15.78487 29.444445 15.919622 29.604019 16.085106 29.748227S16.420804 30.042553 16.595745 30.198582C16.770686 30.35461 16.943262 30.559101 17.113475 30.812057S17.413711 31.349882 17.503546 31.666667C17.583924 31.35461 17.708038 31.073286 17.875887 30.822695S18.216312 30.368794 18.393617 30.212766S18.742317 29.905438 18.907801 29.758865S19.20922 29.451537 19.315603 29.276596S19.475177 28.905438 19.475177 28.687943C19.475177 28.437352 19.386525 28.224587 19.20922 28.049645S18.817967 27.787234 18.567376 27.787234C18.179669 27.787234 17.862884 27.97636 17.617021 28.35461Z" fill="#010101" />
<path d="M17.382979 14.423168C17.359338 14.669031 17.300236 14.886525 17.205674 15.07565C17.111111 15.264776 17.011821 15.408983 16.907801 15.508274S16.672577 15.692671 16.514184 15.763593C16.355792 15.834515 16.234043 15.880615 16.148936 15.901891S15.959811 15.943262 15.836879 15.962175C15.817967 15.966903 15.803782 15.969267 15.794326 15.969267V16.111111H19.205674V15.969267C18.803782 15.898345 18.498818 15.794326 18.29078 15.65721C17.893617 15.392435 17.66903 14.981088 17.617021 14.423168C17.862884 14.801418 18.179669 14.990544 18.567376 14.990544C18.817967 14.990544 19.031915 14.903074 19.20922 14.728132S19.475177 14.340425 19.475177 14.089835C19.475177 13.877069 19.423168 13.683215 19.319149 13.508274C19.21513 13.333333 19.080378 13.173759 18.914894 13.029551S18.579196 12.735225 18.404255 12.579196C18.229314 12.423168 18.056738 12.218676 17.886525 11.965721S17.586289 11.427896 17.496454 11.111111C17.416076 11.423168 17.291962 11.704492 17.124113 11.955083S16.783688 12.408983 16.606383 12.565012S16.257683 12.87234 16.092199 13.018913S15.79078 13.326241 15.684397 13.501182S15.524823 13.87234 15.524823 14.089835C15.524823 14.340425 15.613475 14.553191 15.79078 14.728132S16.182033 14.990544 16.432624 14.990544C16.820331 14.990544 17.137116 14.801418 17.382979 14.423168Z" fill="#010101" />
<path d="M17.617021 20.576832C17.640662 20.330969 17.699764 20.113475 17.794326 19.92435C17.888889 19.735224 17.988179 19.591017 18.092199 19.491726S18.327423 19.307329 18.485816 19.236407C18.644208 19.165485 18.765957 19.119385 18.851064 19.098109S19.040189 19.056738 19.163121 19.037825C19.182033 19.033097 19.196218 19.030733 19.205674 19.030733V18.888889H15.794326V19.030733C16.196218 19.101655 16.501182 19.205674 16.70922 19.34279C17.106383 19.607565 17.33097 20.018912 17.382979 20.576832C17.137116 20.198582 16.820331 20.009456 16.432624 20.009456C16.182033 20.009456 15.968085 20.096926 15.79078 20.271868S15.524823 20.659575 15.524823 20.910165C15.524823 21.122931 15.576832 21.316785 15.680851 21.491726C15.78487 21.666667 15.919622 21.826241 16.085106 21.970449S16.420804 22.264775 16.595745 22.420804C16.770686 22.576832 16.943262 22.781324 17.113475 23.034279S17.413711 23.572104 17.503546 23.888889C17.583924 23.576832 17.708038 23.295508 17.875887 23.044917S18.216312 22.591017 18.393617 22.434988S18.742317 22.12766 18.907801 21.981087S19.20922 21.673759 19.315603 21.498818S19.475177 21.12766 19.475177 20.910165C19.475177 20.659575 19.386525 20.446809 19.20922 20.271868S18.817967 20.009456 18.567376 20.009456C18.179669 20.009456 17.862884 20.198582 17.617021 20.576832Z" fill="#010101" />
<path d="M23.696818 5.51798Q23.98 5.397071 24.132727 5.187071T24.285455 4.709798Q24.285455 4.429798 24.097727 4.22298T23.540909 3.857071Q23.846364 3.672525 23.989545 3.481616T24.132727 3.048889Q24.132727 2.800707 23.967273 2.590707T23.528182 2.259798T22.942727 2.138889Q22.624545 2.138889 22.376364 2.253434T21.988182 2.565253T21.848182 3.010707Q21.848182 3.239798 22.007273 3.440253T22.484545 3.799798Q22.064545 3.97798 21.889545 4.175253T21.714545 4.67798Q21.714545 4.938889 21.883182 5.158434T22.354091 5.508434T23.044545 5.638889Q23.413636 5.638889 23.696818 5.51798ZM22.436818 3.38298Q22.344545 3.201616 22.344545 3.004343Q22.344545 2.730707 22.51 2.54298T22.974545 2.355253Q23.260909 2.355253 23.432727 2.520707T23.604545 2.940707Q23.604545 3.176162 23.372273 3.338434T22.700909 3.685253Q22.529091 3.564343 22.436818 3.38298ZM22.478182 5.250707Q22.287273 5.072525 22.287273 4.792525Q22.287273 4.60798 22.405 4.471162T22.710455 4.235707T23.299091 3.958889Q23.496364 4.092525 23.604545 4.277071T23.712727 4.684343Q23.712727 5.015253 23.512273 5.222071T22.987273 5.428889Q22.669091 5.428889 22.478182 5.250707Z" fill="#010101" />
<path d="M22.945391 8.156734C22.934358 8.271469 22.906778 8.372965 22.862649 8.461222C22.81852 8.54948 22.772185 8.616776 22.723643 8.663112S22.613873 8.749163 22.539957 8.782259C22.466042 8.815356 22.409226 8.836869 22.36951 8.846798S22.281252 8.866104 22.223885 8.87493C22.215059 8.877136 22.20844 8.87824 22.204027 8.87824V8.944433H23.795973V8.87824C23.608426 8.845143 23.46611 8.796601 23.369027 8.732615C23.183686 8.609054 23.07888 8.417094 23.054609 8.156734C23.169344 8.333249 23.317176 8.421507 23.498104 8.421507C23.615045 8.421507 23.714886 8.380688 23.797628 8.299049S23.92174 8.118121 23.92174 8.00118C23.92174 7.90189 23.897469 7.811426 23.848928 7.729788C23.800386 7.648149 23.737502 7.573682 23.660277 7.506386S23.50362 7.369035 23.421982 7.296222C23.340343 7.22341 23.259808 7.127981 23.180376 7.009937S23.040268 6.758954 22.998345 6.611123C22.960836 6.756748 22.902917 6.888031 22.824588 7.004972S22.665724 7.21679 22.582983 7.289603S22.420258 7.433021 22.343033 7.501421S22.202372 7.64484 22.152727 7.726478S22.07826 7.899683 22.07826 8.00118C22.07826 8.118121 22.119631 8.217411 22.202372 8.299049S22.384955 8.421507 22.501896 8.421507C22.682824 8.421507 22.830656 8.333249 22.945391 8.156734Z" fill="#010101" />
<path d="M1.303182 29.48202Q1.02 29.602929 0.867273 29.812929T0.714545 30.290202Q0.714545 30.570202 0.902273 30.77702T1.459091 31.142929Q1.153636 31.327475 1.010455 31.518384T0.867273 31.951111Q0.867273 32.199293 1.032727 32.409293T1.471818 32.740202T2.057273 32.861111Q2.375455 32.861111 2.623636 32.746566T3.011818 32.434747T3.151818 31.989293Q3.151818 31.760202 2.992727 31.559747T2.515455 31.200202Q2.935455 31.02202 3.110455 30.824747T3.285455 30.32202Q3.285455 30.061111 3.116818 29.841566T2.645909 29.491566T1.955455 29.361111Q1.586364 29.361111 1.303182 29.48202ZM2.563182 31.61702Q2.655455 31.798384 2.655455 31.995657Q2.655455 32.269293 2.49 32.45702T2.025455 32.644747Q1.739091 32.644747 1.567273 32.479293T1.395455 32.059293Q1.395455 31.823838 1.627727 31.661566T2.299091 31.314747Q2.470909 31.435657 2.563182 31.61702ZM2.521818 29.749293Q2.712727 29.927475 2.712727 30.207475Q2.712727 30.39202 2.595 30.528838T2.289545 30.764293T1.700909 31.041111Q1.503636 30.907475 1.395455 30.722929T1.287273 30.315657Q1.287273 29.984747 1.487727 29.777929T2.012727 29.571111Q2.330909 29.571111 2.521818 29.749293Z" fill="#010101" />
<path d="M2.054609 26.843266C2.065642 26.728531 2.093222 26.627035 2.137351 26.538778C2.18148 26.45052 2.227815 26.383224 2.276357 26.336888S2.386127 26.250837 2.460043 26.217741C2.533958 26.184644 2.590774 26.163131 2.63049 26.153202S2.718748 26.133896 2.776115 26.12507C2.784941 26.122864 2.79156 26.12176 2.795973 26.12176V26.055567H1.204027V26.12176C1.391574 26.154857 1.53389 26.203399 1.630973 26.267385C1.816314 26.390946 1.92112 26.582906 1.945391 26.843266C1.830656 26.666751 1.682824 26.578493 1.501896 26.578493C1.384955 26.578493 1.285114 26.619312 1.202372 26.700951S1.07826 26.881879 1.07826 26.99882C1.07826 27.09811 1.102531 27.188574 1.151072 27.270212C1.199614 27.351851 1.262498 27.426318 1.339723 27.493614S1.49638 27.630965 1.578018 27.703778C1.659657 27.77659 1.740192 27.872019 1.819624 27.990063S1.959732 28.241046 2.001655 28.388877C2.039164 28.243252 2.097083 28.111969 2.175412 27.995028S2.334276 27.78321 2.417017 27.710397S2.579742 27.566979 2.656967 27.498579S2.797628 27.35516 2.847273 27.273522S2.92174 27.100317 2.92174 26.99882C2.92174 26.881879 2.880369 26.782589 2.797628 26.700951S2.615045 26.578493 2.498104 26.578493C2.317176 26.578493 2.169344 26.666751 2.054609 26.843266Z" fill="#010101" />
</svg>
