<svg width="25.000000" height="35.000000" id="card-lightdiamond2">
<rect x="0" y="0" rx="1.25" ry="1.25" width="25" height="35.0" stroke="#010101" fill="#fffdfa" />
<path d="M12.506954 3.333333C12.395688 3.555865 12.126796 3.955726 11.700278 4.532916C11.27376 5.110107 10.930688 5.542422 10.671071 5.829856C10.995596 6.200742 11.34446 6.641171 11.717663 7.151136C12.090867 7.661103 12.353964 8.055169 12.506954 8.333333C12.850023 7.721372 13.45735 6.88688 14.328929 5.829856C13.434166 4.749655 12.826843 3.917478 12.506954 3.333333Z" fill="#da0a0a" />
<path d="M12.493046 31.666667C12.604312 31.444135 12.873204 31.044274 13.299722 30.467084C13.72624 29.889893 14.069312 29.457578 14.328929 29.170144C14.004404 28.799258 13.65554 28.358829 13.282337 27.848864C12.909133 27.338897 12.646036 26.944831 12.493046 26.666667C12.149977 27.278628 11.54265 28.11312 10.671071 29.170144C11.565834 30.250345 12.173157 31.082522 12.493046 31.666667Z" fill="#da0a0a" />
<path d="M24.337264 5.401153Q24.33066 5.262474 24.261321 5.176625T24.033491 4.985115Q23.511792 4.635115 23.224528 4.407285T22.706132 3.829455T22.475 3.043606Q22.475 2.726625 22.643396 2.551625T23.115566 2.376625Q23.373113 2.376625 23.541509 2.505398T23.709906 2.8587Q23.709906 2.970964 23.657075 3.046908T23.548113 3.169078T23.491981 3.221908Q23.491981 3.268134 23.581132 3.334172T23.795755 3.40021Q24.000472 3.40021 24.122642 3.271436T24.244811 2.944549Q24.244811 2.680398 24.066509 2.495493T23.614151 2.224738T23.056132 2.138889Q22.560849 2.138889 22.200943 2.383229T21.841038 3.129455Q21.841038 3.492662 22.039151 3.789832T22.511321 4.295021T23.22783 4.787002Q23.57783 5.004927 23.749528 5.137002V5.170021H21.979717Q21.814623 5.170021 21.738679 5.206342T21.662736 5.401153Q21.662736 5.638889 21.893868 5.638889H24.106132Q24.337264 5.638889 24.337264 5.401153Z" fill="#da0a0a" />
<path d="M23.003245 6.611123C22.951322 6.71497 22.82584 6.90157 22.6268 7.170922C22.42776 7.440275 22.267662 7.642021 22.146508 7.776155C22.297952 7.949233 22.460753 8.154765 22.634913 8.392746C22.809073 8.630728 22.93185 8.814624 23.003245 8.944433C23.163342 8.658854 23.446759 8.269428 23.853492 7.776155C23.43594 7.272066 23.152525 6.883721 23.003245 6.611123Z" fill="#da0a0a" />
<path d="M0.662736 29.598847Q0.66934 29.737526 0.738679 29.823375T0.966509 30.014885Q1.488208 30.364885 1.775472 30.592715T2.293868 31.170545T2.525 31.956394Q2.525 32.273375 2.356604 32.448375T1.884434 32.623375Q1.626887 32.623375 1.458491 32.494602T1.290094 32.1413Q1.290094 32.029036 1.342925 31.953092T1.451887 31.830922T1.508019 31.778092Q1.508019 31.731866 1.418868 31.665828T1.204245 31.59979Q0.999528 31.59979 0.877358 31.728564T0.755189 32.055451Q0.755189 32.319602 0.933491 32.504507T1.385849 32.775262T1.943868 32.861111Q2.439151 32.861111 2.799057 32.616771T3.158962 31.870545Q3.158962 31.507338 2.960849 31.210168T2.488679 30.704979T1.77217 30.212998Q1.42217 29.995073 1.250472 29.862998V29.829979H3.020283Q3.185377 29.829979 3.261321 29.793658T3.337264 29.598847Q3.337264 29.361111 3.106132 29.361111H0.893868Q0.662736 29.361111 0.662736 29.598847Z" fill="#da0a0a" />
<path d="M1.996755 28.388877C2.048678 28.28503 2.17416 28.09843 2.3732 27.829078C2.57224 27.559725 2.732338 27.357979 2.853492 27.223845C2.702048 27.050767 2.539247 26.845235 2.365087 26.607254C2.190927 26.369272 2.06815 26.185376 1.996755 26.055567C1.836658 26.341146 1.553241 26.730572 1.146508 27.223845C1.56406 27.727934 1.847475 28.116279 1.996755 28.388877Z" fill="#da0a0a" />
</svg>
