<svg width="25.000000" height="35.000000" id="card-lightclub13">
<rect x="0" y="0" rx="1.25" ry="1.25" width="25" height="35.0" stroke="#010101" fill="#fffdfa" />
<rect x="5.0" y="3.5" width="15.0" height="28.0" stroke="#010101" fill="#fffdfa" />
<path d="M9.964589 9.281432C9.851275 9.281432 9.709632 9.3074 9.53966 9.359336S9.17847 9.491536 8.966006 9.600129S8.574126 9.885776 8.427762 10.131291S8.208215 10.660091 8.208215 10.981149C8.208215 11.236106 8.253069 11.462735 8.342776 11.661036S8.543438 12.038751 8.675637 12.199279C8.807838 12.359808 8.942398 12.539223 9.07932 12.737523S9.338999 13.22147 9.447592 13.594463S9.619925 14.408911 9.63881 14.918826C9.657696 15.551499 10.611426 15.867834 12.5 15.867834C14.379136 15.867834 15.332861 15.551499 15.36119 14.918826C15.398961 14.257825 15.495751 13.71486 15.651558 13.289931S15.967894 12.576994 16.133144 12.425908S16.44948 12.081244 16.586402 11.845172S16.791785 11.321092 16.791785 10.981149C16.791785 10.650649 16.718602 10.36264 16.572238 10.117126S16.246459 9.694558 16.033994 9.585965S15.62795 9.399468 15.453258 9.352254S15.12984 9.281432 15.007082 9.281432C14.544381 9.281432 14.081681 9.465568 13.61898 9.83384C13.61898 9.390026 13.576487 9.07605 13.491501 8.891914S13.18933 8.502395 12.839943 8.275766V7.935823L13.42068 7.59588V7.085965H12.896601L12.712465 6.547721H12.287535L12.103399 7.085965H11.57932V7.59588L12.160057 7.935823V8.275766C11.81067 8.492952 11.593484 8.703057 11.508499 8.906078S11.38102 9.418354 11.38102 9.83384C11.258262 9.711083 11.062323 9.588326 10.793201 9.465568S10.247875 9.281432 9.964589 9.281432ZM12.5 11.094463C12.443343 10.990592 12.363078 10.858391 12.259207 10.697863S12.086874 10.42638 12.053824 10.365002S11.987724 10.209194 11.954674 10.081715S11.905099 9.805511 11.905099 9.63554C11.905099 9.078411 12.098678 8.799846 12.485836 8.799846C12.89188 8.799846 13.094901 9.078411 13.094901 9.63554C13.094901 9.805511 13.078376 9.954237 13.045326 10.081715S12.979226 10.305983 12.946176 10.372084S12.844665 10.549138 12.740793 10.704945S12.556657 10.990592 12.5 11.094463ZM9.978754 9.791347C10.441455 9.791347 10.918319 10.029779 11.409348 10.506645S12.178942 11.604378 12.245042 12.369251C12.245042 12.59588 11.38102 12.709194 9.652975 12.709194C9.634089 12.690309 9.525496 12.558108 9.327195 12.312594C9.128895 12.067079 8.977809 11.84281 8.873938 11.639789S8.71813 11.24555 8.71813 11.066135C8.71813 10.688419 8.838527 10.381527 9.07932 10.145455S9.619925 9.791347 9.978754 9.791347ZM9.907932 13.275766C10.181775 13.256881 10.476865 13.235634 10.793201 13.212027C11.109537 13.18842 11.331445 13.171895 11.458924 13.162452S11.725684 13.138845 11.876771 13.119959S12.145892 13.082188 12.230878 13.063302S12.405571 13.016088 12.5 12.978316C12.613314 13.02553 12.750237 13.065663 12.910765 13.098713S13.215297 13.153009 13.342776 13.162452S13.722851 13.18842 14.100567 13.212027S14.808782 13.256881 15.092068 13.275766C14.997639 13.634595 14.936261 14.031196 14.907932 14.465568C14.256374 14.257825 13.453725 14.153953 12.5 14.153953C11.527384 14.153953 10.724745 14.257825 10.092068 14.465568C10.063739 13.993425 10.002361 13.596825 9.907932 13.275766ZM15.021246 9.791347C15.36119 9.791347 15.656279 9.909383 15.906516 10.145455S16.28187 10.688419 16.28187 11.066135C16.28187 11.198335 16.244098 11.3447 16.168555 11.505228S16.017469 11.802679 15.941926 11.915993S15.75779 12.175672 15.616147 12.355087C15.474504 12.534502 15.384797 12.652537 15.347025 12.709194C13.61898 12.709194 12.754958 12.59588 12.754958 12.369251C12.821058 11.604378 13.097262 10.98351 13.583569 10.506645S14.549103 9.791347 15.021246 9.791347ZM12.485836 14.720526C13.807837 14.720526 14.468839 14.843283 14.468839 15.088798C14.468839 15.173783 14.24221 15.239884 13.788952 15.287098S12.906044 15.357919 12.5 15.357919C11.187441 15.357919 10.531161 15.268212 10.531161 15.088798C10.531161 14.843283 11.18272 14.720526 12.485836 14.720526Z" fill="#010101" />
<path d="M15.035411 25.718568C15.148725 25.718568 15.290368 25.6926 15.46034 25.640664S15.82153 25.508464 16.033994 25.399871S16.425874 25.114224 16.572238 24.868709S16.791785 24.339909 16.791785 24.018851C16.791785 23.763894 16.746931 23.537265 16.657224 23.338964S16.456562 22.961249 16.324363 22.800721C16.192162 22.640192 16.057602 22.460777 15.92068 22.262477S15.661001 21.77853 15.552408 21.405537S15.380075 20.591089 15.36119 20.081174C15.342304 19.448501 14.388574 19.132166 12.5 19.132166C10.620864 19.132166 9.667139 19.448501 9.63881 20.081174C9.601039 20.742175 9.504249 21.28514 9.348442 21.710069S9.032106 22.423006 8.866856 22.574092S8.55052 22.918756 8.413598 23.154828S8.208215 23.678908 8.208215 24.018851C8.208215 24.349351 8.281398 24.63736 8.427762 24.882874S8.753541 25.305442 8.966006 25.414035S9.37205 25.600532 9.546742 25.647746S9.87016 25.718568 9.992918 25.718568C10.455619 25.718568 10.918319 25.534432 11.38102 25.16616C11.38102 25.609974 11.423513 25.92395 11.508499 26.108086S11.81067 26.497605 12.160057 26.724234V27.064177L11.57932 27.40412V27.914035H12.103399L12.287535 28.452279H12.712465L12.896601 27.914035H13.42068V27.40412L12.839943 27.064177V26.724234C13.18933 26.507048 13.406516 26.296943 13.491501 26.093922S13.61898 25.581646 13.61898 25.16616C13.741738 25.288917 13.937677 25.411674 14.206799 25.534432S14.752125 25.718568 15.035411 25.718568ZM12.5 23.905537C12.556657 24.009408 12.636922 24.141609 12.740793 24.302137S12.913126 24.57362 12.946176 24.634998S13.012276 24.790806 13.045326 24.918285S13.094901 25.194489 13.094901 25.36446C13.094901 25.921589 12.901322 26.200154 12.514164 26.200154C12.10812 26.200154 11.905099 25.921589 11.905099 25.36446C11.905099 25.194489 11.921624 25.045763 11.954674 24.918285S12.020774 24.694017 12.053824 24.627916S12.155335 24.450862 12.259207 24.295055S12.443343 24.009408 12.5 23.905537ZM15.021246 25.208653C14.558545 25.208653 14.081681 24.970221 13.590652 24.493355S12.821058 23.395622 12.754958 22.630749C12.754958 22.40412 13.61898 22.290806 15.347025 22.290806C15.365911 22.309691 15.474504 22.441892 15.672805 22.687406C15.871105 22.932921 16.022191 23.15719 16.126062 23.360211S16.28187 23.75445 16.28187 23.933865C16.28187 24.311581 16.161473 24.618473 15.92068 24.854545S15.380075 25.208653 15.021246 25.208653ZM15.092068 21.724234C14.818225 21.743119 14.523135 21.764366 14.206799 21.787973C13.890463 21.81158 13.668555 21.828105 13.541076 21.837548S13.274316 21.861155 13.123229 21.880041S12.854108 21.917812 12.769122 21.936698S12.594429 21.983912 12.5 22.021684C12.386686 21.97447 12.249763 21.934337 12.089235 21.901287S11.784703 21.846991 11.657224 21.837548S11.277149 21.81158 10.899433 21.787973S10.191218 21.743119 9.907932 21.724234C10.002361 21.365405 10.063739 20.968804 10.092068 20.534432C10.743626 20.742175 11.546275 20.846047 12.5 20.846047C13.472616 20.846047 14.275255 20.742175 14.907932 20.534432C14.936261 21.006575 14.997639 21.403175 15.092068 21.724234ZM9.978754 25.208653C9.63881 25.208653 9.343721 25.090617 9.093484 24.854545S8.71813 24.311581 8.71813 23.933865C8.71813 23.801665 8.755902 23.6553 8.831445 23.494772S8.982531 23.197321 9.058074 23.084007S9.24221 22.824328 9.383853 22.644913C9.525496 22.465498 9.615203 22.347463 9.652975 22.290806C11.38102 22.290806 12.245042 22.40412 12.245042 22.630749C12.178942 23.395622 11.902738 24.01649 11.416431 24.493355S10.450897 25.208653 9.978754 25.208653ZM12.514164 20.279474C11.192163 20.279474 10.531161 20.156717 10.531161 19.911202C10.531161 19.826217 10.75779 19.760116 11.211048 19.712902S12.093956 19.642081 12.5 19.642081C13.812559 19.642081 14.468839 19.731788 14.468839 19.911202C14.468839 20.156717 13.81728 20.279474 12.514164 20.279474Z" fill="#010101" />
<path d="M24.726027 5.550989Q24.75 5.516362 24.75 5.468417Q24.744673 5.388508 24.718037 5.372527T24.616819 5.356545Q24.462329 5.356545 24.387747 5.300609T24.294521 5.1621T24.270548 4.946347V2.831431Q24.275875 2.69825 24.294521 2.615677T24.387747 2.477169T24.616819 2.421233H24.648782Q24.702055 2.421233 24.723364 2.402588T24.75 2.309361Q24.75 2.261416 24.726027 2.226788T24.65411 2.192161Q24.307839 2.208143 24.025495 2.208143Q23.70586 2.208143 23.359589 2.192161Q23.311644 2.192161 23.287671 2.226788T23.263699 2.309361Q23.269026 2.389269 23.295662 2.405251T23.39688 2.421233Q23.55137 2.421233 23.625951 2.477169T23.719178 2.615677T23.743151 2.831431V3.795662Q23.657915 3.77968 23.55137 3.705099T23.290335 3.497336Q22.992009 3.22032 22.539193 2.682268Q22.443303 2.575723 22.443303 2.511796Q22.443303 2.431887 22.587139 2.42656Q22.624429 2.421233 22.637747 2.39726T22.66172 2.314688Q22.66172 2.266743 22.635084 2.229452T22.56583 2.192161Q22.379376 2.208143 21.979833 2.208143Q21.851979 2.208143 21.606925 2.197489L21.495053 2.192161Q21.447108 2.192161 21.420472 2.226788T21.393836 2.314688Q21.399163 2.389269 21.425799 2.407915T21.500381 2.42656Q21.71347 2.415906 21.902588 2.495814T22.299467 2.783486L23.162481 3.68379Q22.976027 3.912861 22.778919 4.120624T22.304795 4.605403Q22.166286 4.743912 21.974505 4.946347Q21.915906 5.004947 21.894597 5.031583Q21.724125 5.202055 21.625571 5.271309T21.383181 5.356545Q21.372527 5.356545 21.335236 5.359209T21.273973 5.388508T21.25 5.468417Q21.25 5.516362 21.273973 5.550989T21.34589 5.585616Q21.409817 5.580289 21.500381 5.580289Q21.692161 5.569635 21.798706 5.569635H22.13965Q22.842846 4.78653 23.39688 4.14726Q23.567352 3.950152 23.743151 3.93417V4.946347Q23.737823 5.079528 23.719178 5.1621T23.625951 5.300609T23.39688 5.356545H23.364916Q23.311644 5.356545 23.290335 5.37519T23.263699 5.468417Q23.263699 5.516362 23.287671 5.550989T23.359589 5.585616Q23.700533 5.569635 24.020167 5.569635Q24.307839 5.569635 24.65411 5.585616Q24.702055 5.585616 24.726027 5.550989Z" fill="#010101" />
<path d="M22.95373 7.974424C22.951527 8.040523 22.948773 8.093954 22.945468 8.134715C22.942163 8.175476 22.933901 8.227254 22.920681 8.290048S22.891487 8.404621 22.872759 8.445382S22.825938 8.531862 22.788482 8.582538S22.706959 8.675078 22.656283 8.708127S22.54171 8.773125 22.464595 8.803971S22.299346 8.859054 22.200197 8.876681V8.94278H23.799803V8.876681C23.700654 8.859054 23.612521 8.834267 23.535405 8.802319S23.393843 8.737872 23.342065 8.704822S23.24622 8.629359 23.209866 8.577581S23.145419 8.480084 23.125589 8.440425S23.089785 8.348987 23.077667 8.285091S23.057837 8.169968 23.054532 8.13141C23.051227 8.092852 23.048473 8.040523 23.04627 7.974424C23.099149 8.071369 23.142114 8.139672 23.175163 8.179332C23.234653 8.254245 23.307913 8.313734 23.394944 8.3578C23.481975 8.401866 23.567354 8.4239 23.651079 8.4239C23.792092 8.4239 23.913274 8.371571 24.014626 8.266914S24.166655 8.036117 24.166655 7.888494C24.166655 7.745279 24.120936 7.622995 24.029499 7.521642S23.827344 7.369614 23.697349 7.369614C23.653283 7.369614 23.612521 7.375673 23.575065 7.387791S23.500152 7.415333 23.462696 7.434061L23.393292 7.468763C23.479221 7.345377 23.522186 7.228602 23.522186 7.118436C23.522186 6.979627 23.470958 6.860648 23.368504 6.761499S23.143215 6.612775 23.0 6.612775S22.73395 6.66235 22.631496 6.761499S22.477814 6.979627 22.477814 7.118436C22.477814 7.228602 22.520779 7.345377 22.606708 7.468763C22.591285 7.462153 22.569803 7.452238 22.542261 7.439018S22.494339 7.415883 22.481119 7.409273S22.450824 7.396054 22.429892 7.389444S22.38858 7.377876 22.36875 7.374571S22.326887 7.369614 22.302651 7.369614C22.172656 7.369614 22.061939 7.42029 21.970501 7.521642S21.833345 7.745279 21.833345 7.888494C21.833345 8.036117 21.884021 8.162256 21.985374 8.266914S22.207908 8.4239 22.348921 8.4239C22.591285 8.4239 22.792887 8.274074 22.95373 7.974424Z" fill="#010101" />
<path d="M0.273973 29.449011Q0.25 29.483638 0.25 29.531583Q0.255327 29.611492 0.281963 29.627473T0.383181 29.643455Q0.537671 29.643455 0.612253 29.699391T0.705479 29.8379T0.729452 30.053653V32.168569Q0.724125 32.30175 0.705479 32.384323T0.612253 32.522831T0.383181 32.578767H0.351218Q0.297945 32.578767 0.276636 32.597412T0.25 32.690639Q0.25 32.738584 0.273973 32.773212T0.34589 32.807839Q0.692161 32.791857 0.974505 32.791857Q1.29414 32.791857 1.640411 32.807839Q1.688356 32.807839 1.712329 32.773212T1.736301 32.690639Q1.730974 32.610731 1.704338 32.594749T1.60312 32.578767Q1.44863 32.578767 1.374049 32.522831T1.280822 32.384323T1.256849 32.168569V31.204338Q1.342085 31.22032 1.44863 31.294901T1.709665 31.502664Q2.007991 31.77968 2.460807 32.317732Q2.556697 32.424277 2.556697 32.488204Q2.556697 32.568113 2.412861 32.57344Q2.375571 32.578767 2.362253 32.60274T2.33828 32.685312Q2.33828 32.733257 2.364916 32.770548T2.43417 32.807839Q2.620624 32.791857 3.020167 32.791857Q3.148021 32.791857 3.393075 32.802511L3.504947 32.807839Q3.552892 32.807839 3.579528 32.773212T3.606164 32.685312Q3.600837 32.610731 3.574201 32.592085T3.499619 32.57344Q3.28653 32.584094 3.097412 32.504186T2.700533 32.216514L1.837519 31.31621Q2.023973 31.087139 2.221081 30.879376T2.695205 30.394597Q2.833714 30.256088 3.025495 30.053653Q3.084094 29.995053 3.105403 29.968417Q3.275875 29.797945 3.374429 29.728691T3.616819 29.643455Q3.627473 29.643455 3.664764 29.640791T3.726027 29.611492T3.75 29.531583Q3.75 29.483638 3.726027 29.449011T3.65411 29.414384Q3.590183 29.419711 3.499619 29.419711Q3.307839 29.430365 3.201294 29.430365H2.86035Q2.157154 30.21347 1.60312 30.85274Q1.432648 31.049848 1.256849 31.06583V30.053653Q1.262177 29.920472 1.280822 29.8379T1.374049 29.699391T1.60312 29.643455H1.635084Q1.688356 29.643455 1.709665 29.62481T1.736301 29.531583Q1.736301 29.483638 1.712329 29.449011T1.640411 29.414384Q1.299467 29.430365 0.979833 29.430365Q0.692161 29.430365 0.34589 29.414384Q0.297945 29.414384 0.273973 29.449011Z" fill="#010101" />
<path d="M2.04627 27.025576C2.048473 26.959477 2.051227 26.906046 2.054532 26.865285C2.057837 26.824524 2.066099 26.772746 2.079319 26.709952S2.108513 26.595379 2.127241 26.554618S2.174062 26.468138 2.211518 26.417462S2.293041 26.324922 2.343717 26.291873S2.45829 26.226875 2.535405 26.196029S2.700654 26.140946 2.799803 26.123319V26.05722H1.200197V26.123319C1.299346 26.140946 1.387479 26.165733 1.464595 26.197681S1.606157 26.262128 1.657935 26.295178S1.75378 26.370641 1.790134 26.422419S1.854581 26.519916 1.874411 26.559575S1.910215 26.651013 1.922333 26.714909S1.942163 26.830032 1.945468 26.86859C1.948773 26.907148 1.951527 26.959477 1.95373 27.025576C1.900851 26.928631 1.857886 26.860328 1.824837 26.820668C1.765347 26.745755 1.692087 26.686266 1.605056 26.6422C1.518025 26.598134 1.432646 26.5761 1.348921 26.5761C1.207908 26.5761 1.086726 26.628429 0.985374 26.733086S0.833345 26.963883 0.833345 27.111506C0.833345 27.254721 0.879064 27.377005 0.970501 27.478358S1.172656 27.630386 1.302651 27.630386C1.346717 27.630386 1.387479 27.624327 1.424935 27.612209S1.499848 27.584667 1.537304 27.565939L1.606708 27.531237C1.520779 27.654623 1.477814 27.771398 1.477814 27.881564C1.477814 28.020373 1.529042 28.139352 1.631496 28.238501S1.856785 28.387225 2.0 28.387225S2.26605 28.33765 2.368504 28.238501S2.522186 28.020373 2.522186 27.881564C2.522186 27.771398 2.479221 27.654623 2.393292 27.531237C2.408715 27.537847 2.430197 27.547762 2.457739 27.560982S2.505661 27.584117 2.518881 27.590727S2.549176 27.603946 2.570108 27.610556S2.61142 27.622124 2.63125 27.625429S2.673113 27.630386 2.697349 27.630386C2.827344 27.630386 2.938061 27.57971 3.029499 27.478358S3.166655 27.254721 3.166655 27.111506C3.166655 26.963883 3.115979 26.837744 3.014626 26.733086S2.792092 26.5761 2.651079 26.5761C2.408715 26.5761 2.207113 26.725926 2.04627 27.025576Z" fill="#010101" />
</svg>
