<svg width="150.000000" height="210.000000" id="card-webclub1">
<radialGradient id="card-webwhitegradient" cx="75.0" cy="105.0" r="150" gradientTransform="matrix(1 0 0 1 0 -.25)" gradientUnits="userSpaceOnUse">
<stop stop-color="#FDFAF4" offset=".15"/>
<stop stop-color="#FDF9F2" offset=".35"/>
<stop stop-color="#FCF7F1" offset=".5"/>
<stop stop-color="#FDFDF8" offset=".75"/>
<stop stop-color="#FFFDFA" offset="1"/>
</radialGradient>
<rect x="0" y="0" rx="7.5" ry="7.5" width="150" height="210.0" stroke="#010101" fill="url(#card-webwhitegradient)" />
<path d="M50.609065 104.915014C48.512745 105.538243 46.968841 106.487252 45.977337 107.76204S44.490085 110.410768 44.490085 111.883853C44.490085 113.583569 45.09915 115.056654 46.31728 116.303116S48.966008 118.172805 50.609065 118.172805C52.818697 118.172805 55.113314 117.365439 57.492918 115.750708S62.464589 112.223796 65.269122 110.014164S70.722382 106.274788 73.215297 105.424929C72.988668 107.691221 72.875354 109.277618 72.875354 110.184136C72.875354 121.685524 77.124646 130.070822 85.623229 135.339943C88.059493 133.130312 89.64589 131.572241 90.382436 130.665722C87.379606 128.512751 84.84419 126.048161 82.776204 123.271955S79.263459 117.818694 78.441926 115.240793S77.067986 110.609065 76.784703 109.07932S76.359773 106.274788 76.359773 105.254958C78.569405 105.991502 80.82153 107.124646 83.116147 108.654391S87.351272 111.643062 88.937677 113.031161C90.524082 114.419261 92.237958 115.637397 94.07932 116.685552S97.634558 118.25779 99.220963 118.25779C100.97734 118.25779 102.464592 117.66289 103.68272 116.473088C104.900847 115.283286 105.509915 113.810201 105.509915 112.053824C105.509915 108.654391 103.470255 106.274788 99.390935 104.915014C103.470255 103.838524 105.509915 101.543907 105.509915 98.031161C105.509915 96.274785 104.915014 94.787533 103.725212 93.569405S101.118977 91.74221 99.475921 91.74221C97.606232 91.74221 95.651558 92.322946 93.611898 93.484419S89.730875 95.963176 88.087819 97.436261C86.444762 98.909346 84.447595 100.396598 82.096317 101.898017S77.436263 104.405099 75.169972 104.915014C75.963173 102.025496 77.478756 99.050992 79.716714 95.991501S83.951839 90.169972 85.708215 87.705382C87.464592 85.240793 88.342776 82.988669 88.342776 80.949008C88.342776 79.13598 87.747875 77.634561 86.558074 76.444759S83.866853 74.660057 82.053824 74.660057C78.711051 74.660057 76.388099 76.699717 75.084986 80.779037C74.461757 78.682717 73.526915 77.138813 72.280453 76.147309S69.645892 74.660057 68.116147 74.660057C66.416431 74.660057 64.943346 75.254958 63.696884 76.444759C62.450422 77.634561 61.827195 79.050994 61.827195 80.694051C61.827195 83.016994 62.677054 85.467425 64.376771 88.045326C66.076487 90.623227 67.988669 93.385266 70.113314 96.331445S73.668552 102.138807 74.405099 104.915014C72.025496 104.291785 69.645892 103.215297 67.266289 101.685552S62.903686 98.668555 61.31728 97.223796S57.988666 94.490082 56.090652 93.356941S52.450428 91.657224 50.864023 91.657224C49.050994 91.657224 47.535408 92.266289 46.31728 93.484419S44.490085 96.189799 44.490085 97.946176C44.490085 101.288949 46.529745 103.611901 50.609065 104.915014Z" fill="#010101" />
<path d="M148.359165 33.144809Q148.5 32.941381 148.5 32.659712Q148.468703 32.190263 148.312221 32.096374T147.936662 32.002484H147.654993Q146.716095 32.002484 146.277943 31.517387T145.57377 30.422007T145.21386 29.592648L139.73696 16.635867Q139.54918 16.166418 139.54918 15.884749Q139.54918 15.321411 139.987332 15.071038T141.207899 14.664183Q141.73994 14.570293 141.865127 14.476403T141.990313 13.944362Q141.990313 13.568803 141.786885 13.443616T141.145306 13.31843Q139.580477 13.31843 138.657228 13.553154T137.045455 14.492052T135.762295 16.635867L130.504471 29.592648Q130.035022 30.781918 129.59687 31.376552T128.282414 32.002484H128.094635Q127.781669 32.002484 127.656483 32.112022T127.5 32.659712Q127.5 32.941381 127.640835 33.144809T128.063338 33.348236Q130.066319 33.254347 131.505961 33.254347Q133.383756 33.254347 135.386736 33.348236Q135.668405 33.348236 135.80924 33.144809T135.950075 32.659712Q135.918778 32.22156 135.793592 32.112022T135.35544 32.002484Q134.291356 32.002484 133.853204 31.799056T133.415052 31.063587Q133.415052 30.656731 133.790611 29.592648L134.854694 26.995032H142.584948Q143.367362 28.93542 143.4769 29.248385T143.586438 29.592648Q143.961997 30.781918 143.961997 31.12618Q143.961997 31.658222 143.492548 31.830353T141.708644 32.002484H141.520864Q141.207899 32.002484 141.082712 32.112022T140.92623 32.659712Q140.92623 32.941381 141.067064 33.144809T141.489568 33.348236Q143.492548 33.254347 144.900894 33.254347Q145.902385 33.254347 147.936662 33.348236Q148.218331 33.348236 148.359165 33.144809ZM141.990313 25.64928H135.418033L138.578987 17.606061H138.672876Z" fill="#010101" />
<path d="M137.722382 47.846542C137.709162 48.243138 137.692638 48.563721 137.672808 48.808288C137.652978 49.052856 137.603403 49.363524 137.524084 49.74029S137.348921 50.427725 137.236552 50.672292S136.955628 51.191174 136.730891 51.49523S136.241754 52.050466 135.937698 52.248764S135.250263 52.638751 134.787568 52.823829S133.796076 53.154327 133.201181 53.260085V53.656682H142.798819V53.260085C142.203924 53.154326 141.675128 53.005603 141.212432 52.813914S140.363055 52.427232 140.052387 52.228934S139.477322 51.776154 139.259194 51.465486S138.872513 50.880506 138.753534 50.642548S138.538711 50.093922 138.466001 49.710546S138.347022 49.019807 138.327192 48.788458C138.307362 48.55711 138.290838 48.243138 138.277618 47.846542C138.594895 48.428216 138.852683 48.838033 139.050981 49.075991C139.407918 49.525468 139.84748 49.882405 140.369665 50.146802C140.89185 50.411199 141.404121 50.543398 141.906477 50.543398C142.75255 50.543398 143.479642 50.229427 144.087758 49.601482S144.99993 48.216699 144.99993 47.330966C144.99993 46.471674 144.725618 45.73797 144.176992 45.129855S142.964067 44.217683 142.184094 44.217683C141.919697 44.217683 141.675128 44.254037 141.45039 44.326747S141.000914 44.491995 140.776176 44.604364L140.35975 44.812578C140.875325 44.072265 141.133113 43.371609 141.133113 42.710616C141.133113 41.877763 140.825751 41.163889 140.211026 40.568994S138.859292 39.676652 138.0 39.676652S136.403699 39.974099 135.788974 40.568994S134.866887 41.877763 134.866887 42.710616C134.866887 43.371609 135.124675 44.072265 135.64025 44.812578C135.547711 44.772918 135.418816 44.713428 135.253569 44.634109S134.966036 44.4953 134.886717 44.455641S134.704943 44.376321 134.579354 44.336662S134.331481 44.267257 134.212502 44.247427S133.961324 44.217683 133.815906 44.217683C133.035933 44.217683 132.371634 44.521739 131.823008 45.129855S131.00007 46.471674 131.00007 47.330966C131.00007 48.216699 131.304127 48.973536 131.912242 49.601482S133.24745 50.543398 134.093523 50.543398C135.54771 50.543398 136.757324 49.644447 137.722382 47.846542Z" fill="#010101" />
<path d="M1.640835 176.855191Q1.5 177.058619 1.5 177.340288Q1.531297 177.809737 1.687779 177.903626T2.063338 177.997516H2.345007Q3.283905 177.997516 3.722057 178.482613T4.42623 179.577993T4.78614 180.407352L10.26304 193.364133Q10.45082 193.833582 10.45082 194.115251Q10.45082 194.678589 10.012668 194.928962T8.792101 195.335817Q8.26006 195.429707 8.134873 195.523597T8.009687 196.055638Q8.009687 196.431197 8.213115 196.556384T8.854694 196.68157Q10.419523 196.68157 11.342772 196.446846T12.954545 195.507948T14.237705 193.364133L19.495529 180.407352Q19.964978 179.218082 20.40313 178.623448T21.717586 177.997516H21.905365Q22.218331 177.997516 22.343517 177.887978T22.5 177.340288Q22.5 177.058619 22.359165 176.855191T21.936662 176.651764Q19.933681 176.745653 18.494039 176.745653Q16.616244 176.745653 14.613264 176.651764Q14.331595 176.651764 14.19076 176.855191T14.049925 177.340288Q14.081222 177.77844 14.206408 177.887978T14.64456 177.997516Q15.708644 177.997516 16.146796 178.200944T16.584948 178.936413Q16.584948 179.343269 16.209389 180.407352L15.145306 183.004968H7.415052Q6.632638 181.06458 6.5231 180.751615T6.413562 180.407352Q6.038003 179.218082 6.038003 178.87382Q6.038003 178.341778 6.507452 178.169647T8.291356 177.997516H8.479136Q8.792101 177.997516 8.917288 177.887978T9.07377 177.340288Q9.07377 177.058619 8.932936 176.855191T8.510432 176.651764Q6.507452 176.745653 5.099106 176.745653Q4.097615 176.745653 2.063338 176.651764Q1.781669 176.651764 1.640835 176.855191ZM8.009687 184.35072H14.581967L11.421013 192.393939H11.327124Z" fill="#010101" />
<path d="M12.277618 162.153458C12.290838 161.756862 12.307362 161.436279 12.327192 161.191712C12.347022 160.947144 12.396597 160.636476 12.475916 160.25971S12.651079 159.572275 12.763448 159.327708S13.044372 158.808826 13.269109 158.50477S13.758246 157.949534 14.062302 157.751236S14.749737 157.361249 15.212432 157.176171S16.203924 156.845673 16.798819 156.739915V156.343318H7.201181V156.739915C7.796076 156.845674 8.324872 156.994397 8.787568 157.186086S9.636945 157.572768 9.947613 157.771066S10.522678 158.223846 10.740806 158.534514S11.127487 159.119494 11.246466 159.357452S11.461289 159.906078 11.533999 160.289454S11.652978 160.980193 11.672808 161.211542C11.692638 161.44289 11.709162 161.756862 11.722382 162.153458C11.405105 161.571784 11.147317 161.161967 10.949019 160.924009C10.592082 160.474532 10.15252 160.117595 9.630335 159.853198C9.10815 159.588801 8.595879 159.456602 8.093523 159.456602C7.24745 159.456602 6.520358 159.770573 5.912242 160.398518S5.00007 161.783301 5.00007 162.669034C5.00007 163.528326 5.274382 164.26203 5.823008 164.870145S7.035933 165.782317 7.815906 165.782317C8.080303 165.782317 8.324872 165.745963 8.54961 165.673253S8.999086 165.508005 9.223824 165.395636L9.64025 165.187422C9.124675 165.927735 8.866887 166.628391 8.866887 167.289384C8.866887 168.122237 9.174249 168.836111 9.788974 169.431006S11.140708 170.323348 12.0 170.323348S13.596301 170.025901 14.211026 169.431006S15.133113 168.122237 15.133113 167.289384C15.133113 166.628391 14.875325 165.927735 14.35975 165.187422C14.452289 165.227082 14.581184 165.286572 14.746431 165.365891S15.033964 165.5047 15.113283 165.544359S15.295057 165.623679 15.420646 165.663338S15.668519 165.732743 15.787498 165.752573S16.038676 165.782317 16.184094 165.782317C16.964067 165.782317 17.628366 165.478261 18.176992 164.870145S18.99993 163.528326 18.99993 162.669034C18.99993 161.783301 18.695873 161.026464 18.087758 160.398518S16.75255 159.456602 15.906477 159.456602C14.45229 159.456602 13.242676 160.355553 12.277618 162.153458Z" fill="#010101" />
</svg>
