<svg width="500.000000" height="700.000000" id="card-webheart13">
<radialGradient id="card-webwhitegradient" cx="250.0" cy="350.0" r="500" gradientTransform="matrix(1 0 0 1 0 -.25)" gradientUnits="userSpaceOnUse">
<stop stop-color="#FDFAF4" offset=".15"/>
<stop stop-color="#FDF9F2" offset=".35"/>
<stop stop-color="#FCF7F1" offset=".5"/>
<stop stop-color="#FDFDF8" offset=".75"/>
<stop stop-color="#FFFDFA" offset="1"/>
</radialGradient>
<rect x="0" y="0" rx="25.0" ry="25.0" width="500" height="700.0" fill="url(#card-webwhitegradient)" />
<rect x="100.0" y="70.0" width="300.0" height="560.0" stroke="#010101" fill="#fffdfa" />
<path d="M201.114206 196.021851C203.714019 196.021851 207.103064 196.903932 211.281337 198.66809S220.009276 203.124915 224.930362 206.746085S234.076128 215.613299 237.604457 222.484246S242.896936 237.154636 242.896936 245.882575C242.896936 249.225193 245.31105 250.896503 250.139276 250.896503C255.153203 250.896503 257.660167 249.225193 257.660167 245.882575C257.660167 236.783216 259.377903 228.705221 262.81337 221.648592S270.473538 209.34589 275.487465 205.91043S285.051058 199.968007 289.13649 198.389539C293.221922 196.811079 296.657382 196.021851 299.442897 196.021851C307.05663 196.021851 313.091922 198.064561 317.548747 202.149985S324.233983 211.899288 324.233983 219.141628C324.233983 221.741441 322.841226 226.198258 320.05571 232.512102S312.720529 245.232631 306.406685 251.732157S293.129053 261.481461 285.51532 261.481461C278.272981 261.481461 266.573816 260.088703 250.417827 257.303188C234.076128 260.088703 222.284123 261.481461 215.041783 261.481461C209.285042 261.481461 203.760446 259.578026 198.467967 255.771154S189.043649 247.50745 186.072423 242.400681C183.101198 237.293912 180.73351 232.558536 178.969359 228.194553S176.32312 220.812937 176.32312 219.141628C176.32312 211.899288 178.551532 206.235416 183.008357 202.149985S193.500474 196.021851 201.114206 196.021851ZM236.211699 246.996781C236.025998 240.311544 234.958217 234.276252 233.008357 228.890932S228.737242 219.234469 226.044568 216.077561S220.334262 210.32082 216.991643 208.278118S210.724234 204.842659 208.21727 204.099845S203.528329 202.985639 201.671309 202.985639C196.100279 202.985639 191.504178 204.424823 187.883008 207.303188S182.451253 214.1277 182.451253 219.141628C182.451253 220.627235 183.147632 223.134191 184.54039 226.662519S187.97585 234.044135 190.668524 238.222408S197.214485 246.068285 202.228412 249.225193S212.81337 253.960569 218.941504 253.960569C230.454958 253.960569 236.211699 251.639308 236.211699 246.996781ZM208.913649 289.893717C208.913649 285.0655 222.562674 282.651377 249.860724 282.651377C262.116992 282.651377 272.098412 283.30133 279.805014 284.601238S291.364903 287.572464 291.364903 289.615166C291.364903 292.400681 288.857939 293.793439 283.844011 293.793439C283.286908 293.793439 277.808719 293.329185 267.409471 292.400681S251.253482 291.007923 250.139276 291.007923C249.582173 291.007923 244.150418 291.472177 233.844011 292.400681S217.827298 293.793439 216.713092 293.793439C211.513454 293.793439 208.913649 292.49353 208.913649 289.893717ZM272.423398 196.857505C272.423398 188.872352 271.587744 183.02277 269.916435 179.308759S263.881142 171.323606 256.824513 166.495388V160.088703L268.245125 153.124915V143.09706H257.938719L254.5961 132.790653H245.125348L241.504178 143.09706H231.476323V153.124915L242.618384 160.088703V166.495388C236.118858 170.766503 231.940585 174.8055 230.083565 178.61238S227.29805 188.500959 227.29805 196.857505C218.570111 189.800876 209.563593 186.272547 200.278552 186.272547C190.622089 186.272547 182.404819 189.429455 175.626741 195.743299S165.45961 209.949427 165.45961 219.42018C165.45961 227.033912 169.08078 235.85472 176.32312 245.882575C180.779944 252.010709 183.797577 256.421099 185.376045 259.113773S188.625822 266.448954 190.389972 273.041349S193.129061 287.479595 193.314763 296.578954C193.686164 309.206614 212.62766 315.520458 250.139276 315.520458C287.279387 315.520458 306.128134 309.206614 306.685237 296.578954C306.870938 287.108202 308.031568 278.705221 310.167131 271.37004S314.206128 259.067338 315.877437 256.467533S320.148552 250.246558 323.67688 245.604024C330.91922 235.761879 334.54039 227.033912 334.54039 219.42018C334.54039 210.135138 331.151337 202.28926 324.373259 195.882575C317.595181 189.47589 309.470752 186.272547 300.0 186.272547C290.343538 186.272547 281.151337 189.800876 272.423398 196.857505ZM299.164345 202.985639C296.750231 202.985639 293.825432 203.682018 290.389972 205.074776C286.954513 206.467533 283.147632 208.695946 278.969359 211.760012S271.309192 219.466614 268.523677 225.687589S264.345404 239.104497 264.345404 247.275333C264.345404 251.732157 270.009276 253.960569 281.337047 253.960569C287.650891 253.960569 293.361198 252.38211 298.467967 249.225193S307.42805 242.30784 310.027855 237.943856S314.577521 229.726586 315.877437 226.383968S317.827298 220.627227 317.827298 219.141628C317.827298 214.1277 316.016713 210.181544 312.395543 207.303188S304.363983 202.985639 299.164345 202.985639Z" fill="#da0a0a" />
<path d="M298.885794 503.978149C296.285981 503.978149 292.896936 503.096068 288.718663 501.33191S279.990724 496.875085 275.069638 493.253915S265.923872 484.386701 262.395543 477.515754S257.103064 462.845364 257.103064 454.117425C257.103064 450.774807 254.68895 449.103497 249.860724 449.103497C244.846797 449.103497 242.339833 450.774807 242.339833 454.117425C242.339833 463.216784 240.622097 471.294779 237.18663 478.351408S229.526462 490.65411 224.512535 494.08957S214.948942 500.031993 210.86351 501.610461C206.778078 503.188921 203.342618 503.978149 200.557103 503.978149C192.94337 503.978149 186.908078 501.935439 182.451253 497.850015S175.766017 488.100712 175.766017 480.858372C175.766017 478.258559 177.158774 473.801742 179.94429 467.487898S187.279471 454.767369 193.593315 448.267843S206.870947 438.518539 214.48468 438.518539C221.727019 438.518539 233.426184 439.911297 249.582173 442.696812C265.923872 439.911297 277.715877 438.518539 284.958217 438.518539C290.714958 438.518539 296.239554 440.421974 301.532033 444.228846S310.956351 452.49255 313.927577 457.599319C316.898802 462.706088 319.26649 467.441464 321.030641 471.805447S323.67688 479.187063 323.67688 480.858372C323.67688 488.100712 321.448468 493.764584 316.991643 497.850015S306.499526 503.978149 298.885794 503.978149ZM263.788301 453.003219C263.974002 459.688456 265.041783 465.723748 266.991643 471.109068S271.262758 480.765531 273.955432 483.922439S279.665738 489.67918 283.008357 491.721882S289.275766 495.157341 291.78273 495.900155S296.471671 497.014361 298.328691 497.014361C303.899721 497.014361 308.495822 495.575177 312.116992 492.696812S317.548747 485.8723 317.548747 480.858372C317.548747 479.372765 316.852368 476.865809 315.45961 473.337481S312.02415 465.955865 309.331476 461.777592S302.785515 453.931715 297.771588 450.774807S287.18663 446.039431 281.058496 446.039431C269.545042 446.039431 263.788301 448.360692 263.788301 453.003219ZM291.086351 410.106283C291.086351 414.9345 277.437326 417.348623 250.139276 417.348623C237.883008 417.348623 227.901588 416.69867 220.194986 415.398762S208.635097 412.427536 208.635097 410.384834C208.635097 407.599319 211.142061 406.206561 216.155989 406.206561C216.713092 406.206561 222.191281 406.670815 232.590529 407.599319S248.746518 408.992077 249.860724 408.992077C250.417827 408.992077 255.849582 408.527823 266.155989 407.599319S282.172702 406.206561 283.286908 406.206561C288.486546 406.206561 291.086351 407.50647 291.086351 410.106283ZM227.576602 503.142495C227.576602 511.127648 228.412256 516.97723 230.083565 520.691241S236.118858 528.676394 243.175487 533.504612V539.911297L231.754875 546.875085V556.90294H242.061281L245.4039 567.209347H254.874652L258.495822 556.90294H268.523677V546.875085L257.381616 539.911297V533.504612C263.881142 529.233497 268.059415 525.1945 269.916435 521.38762S272.70195 511.499041 272.70195 503.142495C281.429889 510.199124 290.436407 513.727453 299.721448 513.727453C309.377911 513.727453 317.595181 510.570545 324.373259 504.256701S334.54039 490.050573 334.54039 480.57982C334.54039 472.966088 330.91922 464.14528 323.67688 454.117425C319.220056 447.989291 316.202423 443.578901 314.623955 440.886227S311.374178 433.551046 309.610028 426.958651S306.870939 412.520405 306.685237 403.421046C306.313836 390.793386 287.37234 384.479542 249.860724 384.479542C212.720613 384.479542 193.871866 390.793386 193.314763 403.421046C193.129062 412.891798 191.968432 421.294779 189.832869 428.62996S185.793872 440.932662 184.122563 443.532467S179.851448 449.753442 176.32312 454.395976C169.08078 464.238121 165.45961 472.966088 165.45961 480.57982C165.45961 489.864862 168.848663 497.71074 175.626741 504.117425C182.404819 510.52411 190.529248 513.727453 200.0 513.727453C209.656462 513.727453 218.848663 510.199124 227.576602 503.142495ZM200.835655 497.014361C203.249769 497.014361 206.174568 496.317982 209.610028 494.925224C213.045487 493.532467 216.852368 491.304054 221.030641 488.239988S228.690808 480.533386 231.476323 474.312411S235.654596 460.895503 235.654596 452.724667C235.654596 448.267843 229.990724 446.039431 218.662953 446.039431C212.349109 446.039431 206.638802 447.61789 201.532033 450.774807S192.57195 457.69216 189.972145 462.056144S185.422479 470.273414 184.122563 473.616032S182.172702 479.372773 182.172702 480.858372C182.172702 485.8723 183.983287 489.818456 187.604457 492.696812S195.636017 497.014361 200.835655 497.014361Z" fill="#da0a0a" />
<path d="M494.520548 111.019787Q495.0 110.327245 495.0 109.368341Q494.893455 107.770167 494.360731 107.450533T492.336377 107.130898Q489.246575 107.130898 487.754947 106.012177T485.890411 103.242009T485.410959 98.926941V56.628615Q485.517504 53.964992 485.890411 52.313546T487.754947 49.543379T492.336377 48.424658H492.975647Q494.041096 48.424658 494.467275 48.05175T495.0 46.187215Q495.0 45.228311 494.520548 44.535769T493.082192 43.843227Q486.156773 44.162861 480.509893 44.162861Q474.117199 44.162861 467.191781 43.843227Q466.232877 43.843227 465.753425 44.535769T465.273973 46.187215Q465.380518 47.785388 465.913242 48.105023T467.937595 48.424658Q471.027397 48.424658 472.519026 49.543379T474.383562 52.313546T474.863014 56.628615V75.913242Q473.158295 75.593607 471.027397 74.101979T465.806697 69.946728Q459.840183 64.406393 450.783866 53.645358Q448.866058 51.51446 448.866058 50.235921Q448.866058 48.637747 451.74277 48.531202Q452.488584 48.424658 452.754947 47.945205T453.234399 46.29376Q453.234399 45.334855 452.701674 44.589041T451.316591 43.843227Q447.587519 44.162861 439.596651 44.162861Q437.039574 44.162861 432.138508 43.949772L429.901065 43.843227Q428.942161 43.843227 428.409437 44.535769T427.876712 46.29376Q427.983257 47.785388 428.515982 48.158295T430.00761 48.531202Q434.269406 48.318113 438.05175 49.916286T445.989346 55.669711L463.249619 73.675799Q459.520548 78.25723 455.578387 82.412481T446.09589 92.108067Q443.325723 94.878234 439.490107 98.926941Q438.318113 100.098935 437.891933 100.631659Q434.482496 104.041096 432.511416 105.42618T427.663623 107.130898Q427.450533 107.130898 426.704718 107.18417T425.479452 107.770167T425.0 109.368341Q425.0 110.327245 425.479452 111.019787T426.917808 111.712329Q428.196347 111.605784 430.00761 111.605784Q433.843227 111.392694 435.974125 111.392694H442.792998Q456.856925 95.730594 467.937595 82.945205Q471.347032 79.003044 474.863014 78.683409V98.926941Q474.756469 101.590563 474.383562 103.242009T472.519026 106.012177T467.937595 107.130898H467.298326Q466.232877 107.130898 465.806697 107.503805T465.273973 109.368341Q465.273973 110.327245 465.753425 111.019787T467.191781 111.712329Q474.010654 111.392694 480.403349 111.392694Q486.156773 111.392694 493.082192 111.712329Q494.041096 111.712329 494.520548 111.019787Z" fill="#da0a0a" />
<path d="M459.935005 141.581693C459.068411 138.37529 457.671025 136.013811 455.742847 134.49727S451.680677 132.222456 449.340868 132.222456C446.697748 132.222456 444.433768 133.132381 442.548921 134.952233S439.721651 138.960242 439.721651 141.516699C439.721651 143.856508 440.295771 146.23965 441.444011 148.666117S444.043799 153.432393 445.798656 155.685545S449.340868 160.202677 451.16072 162.477492S454.724594 167.34126 456.392794 170.244359S459.241726 176.028888 459.935005 178.888656C460.714942 175.898899 461.960676 172.898308 463.672201 169.886889S467.149418 164.210686 468.96927 161.89254C470.789121 159.574393 472.565641 157.299578 474.298836 155.068095S477.461914 150.594295 478.588486 148.341143S480.278349 143.943166 480.278349 141.906667C480.278349 139.176889 479.357588 136.880412 477.516074 135.017228C475.674559 133.154044 473.410572 132.222456 470.724127 132.222456C465.567882 132.222456 461.971484 135.342202 459.935005 141.581693Z" fill="#da0a0a" />
<path d="M5.479452 588.980213Q5.0 589.672755 5.0 590.631659Q5.106545 592.229833 5.639269 592.549467T7.663623 592.869102Q10.753425 592.869102 12.245053 593.987823T14.109589 596.757991T14.589041 601.073059V643.371385Q14.482496 646.035008 14.109589 647.686454T12.245053 650.456621T7.663623 651.575342H7.024353Q5.958904 651.575342 5.532725 651.94825T5.0 653.812785Q5.0 654.771689 5.479452 655.464231T6.917808 656.156773Q13.843227 655.837139 19.490107 655.837139Q25.882801 655.837139 32.808219 656.156773Q33.767123 656.156773 34.246575 655.464231T34.726027 653.812785Q34.619482 652.214612 34.086758 651.894977T32.062405 651.575342Q28.972603 651.575342 27.480974 650.456621T25.616438 647.686454T25.136986 643.371385V624.086758Q26.841705 624.406393 28.972603 625.898021T34.193303 630.053272Q40.159817 635.593607 49.216134 646.354642Q51.133942 648.48554 51.133942 649.764079Q51.133942 651.362253 48.25723 651.468798Q47.511416 651.575342 47.245053 652.054795T46.765601 653.70624Q46.765601 654.665145 47.298326 655.410959T48.683409 656.156773Q52.412481 655.837139 60.403349 655.837139Q62.960426 655.837139 67.861492 656.050228L70.098935 656.156773Q71.057839 656.156773 71.590563 655.464231T72.123288 653.70624Q72.016743 652.214612 71.484018 651.841705T69.99239 651.468798Q65.730594 651.681887 61.94825 650.083714T54.010654 644.330289L36.750381 626.324201Q40.479452 621.74277 44.421613 617.587519T53.90411 607.891933Q56.674277 605.121766 60.509893 601.073059Q61.681887 599.901065 62.108067 599.368341Q65.517504 595.958904 67.488584 594.57382T72.336377 592.869102Q72.549467 592.869102 73.295282 592.81583T74.520548 592.229833T75.0 590.631659Q75.0 589.672755 74.520548 588.980213T73.082192 588.287671Q71.803653 588.394216 69.99239 588.394216Q66.156773 588.607306 64.025875 588.607306H57.207002Q43.143075 604.269406 32.062405 617.054795Q28.652968 620.996956 25.136986 621.316591V601.073059Q25.243531 598.409437 25.616438 596.757991T27.480974 593.987823T32.062405 592.869102H32.701674Q33.767123 592.869102 34.193303 592.496195T34.726027 590.631659Q34.726027 589.672755 34.246575 588.980213T32.808219 588.287671Q25.989346 588.607306 19.596651 588.607306Q13.843227 588.607306 6.917808 588.287671Q5.958904 588.287671 5.479452 588.980213Z" fill="#da0a0a" />
<path d="M40.064995 558.418307C40.931589 561.62471 42.328975 563.986189 44.257153 565.50273S48.319323 567.777544 50.659132 567.777544C53.302252 567.777544 55.566232 566.867619 57.451079 565.047767S60.278349 561.039758 60.278349 558.483301C60.278349 556.143492 59.704229 553.76035 58.555989 551.333883S55.956201 546.567607 54.201344 544.314455S50.659132 539.797323 48.83928 537.522508S45.275406 532.65874 43.607206 529.755641S40.758274 523.971112 40.064995 521.111344C39.285058 524.101101 38.039324 527.101692 36.327799 530.113111S32.850582 535.789314 31.03073 538.10746C29.210879 540.425607 27.434359 542.700422 25.701164 544.931905S22.538086 549.405705 21.411514 551.658857S19.721651 556.056834 19.721651 558.093333C19.721651 560.823111 20.642412 563.119588 22.483926 564.982772C24.325441 566.845956 26.589428 567.777544 29.275873 567.777544C34.432118 567.777544 38.028516 564.657798 40.064995 558.418307Z" fill="#da0a0a" />
</svg>
