<svg width="500.000000" height="700.000000" id="card-webdiamond9">
<radialGradient id="card-webwhitegradient" cx="250.0" cy="350.0" r="500" gradientTransform="matrix(1 0 0 1 0 -.25)" gradientUnits="userSpaceOnUse">
<stop stop-color="#FDFAF4" offset=".15"/>
<stop stop-color="#FDF9F2" offset=".35"/>
<stop stop-color="#FCF7F1" offset=".5"/>
<stop stop-color="#FDFDF8" offset=".75"/>
<stop stop-color="#FFFDFA" offset="1"/>
</radialGradient>
<rect x="0" y="0" rx="25.0" ry="25.0" width="500" height="700.0" fill="url(#card-webwhitegradient)" />
<path d="M150.139082 66.666667C147.913769 71.117293 142.535925 79.114511 134.005563 90.658322C125.475202 102.202133 118.613769 110.848447 113.421419 116.597126C119.911919 124.014831 126.889193 132.823412 134.353268 143.022717C141.817344 153.222063 147.079277 161.103384 150.139082 166.666667C157.000459 154.427446 169.14701 137.737599 186.578581 116.597126C168.68331 94.993092 156.536857 78.34956 150.139082 66.666667Z" fill="#da0a0a" />
<path d="M149.860918 633.333333C152.086231 628.882707 157.464075 620.885489 165.994437 609.341678C174.524798 597.797867 181.386231 589.151553 186.578581 583.402874C180.088081 575.985169 173.110807 567.176588 165.646732 556.977283C158.182656 546.777937 152.920723 538.896616 149.860918 533.333333C142.999541 545.572554 130.85299 562.262401 113.421419 583.402874C131.31669 605.006908 143.463143 621.65044 149.860918 633.333333Z" fill="#da0a0a" />
<path d="M150.139082 222.222222C147.913769 226.672848 142.535925 234.670066 134.005563 246.213877C125.475202 257.757688 118.613769 266.404002 113.421419 272.152681C119.911919 279.570386 126.889193 288.378968 134.353268 298.578272C141.817344 308.777619 147.079277 316.65894 150.139082 322.222222C157.000459 309.983001 169.14701 293.293154 186.578581 272.152681C168.68331 250.548648 156.536857 233.905115 150.139082 222.222222Z" fill="#da0a0a" />
<path d="M149.860918 477.777778C152.086231 473.327152 157.464075 465.329934 165.994437 453.786123C174.524798 442.242312 181.386231 433.595998 186.578581 427.847319C180.088081 420.429614 173.110807 411.621032 165.646732 401.421728C158.182656 391.222381 152.920723 383.34106 149.860918 377.777778C142.999541 390.016999 130.85299 406.706846 113.421419 427.847319C131.31669 449.451352 143.463143 466.094885 149.860918 477.777778Z" fill="#da0a0a" />
<path d="M350.139082 66.666667C347.913769 71.117293 342.535925 79.114511 334.005563 90.658322C325.475202 102.202133 318.613769 110.848447 313.421419 116.597126C319.911919 124.014831 326.889193 132.823412 334.353268 143.022717C341.817344 153.222063 347.079277 161.103384 350.139082 166.666667C357.000459 154.427446 369.14701 137.737599 386.578581 116.597126C368.68331 94.993092 356.536857 78.34956 350.139082 66.666667Z" fill="#da0a0a" />
<path d="M349.860918 633.333333C352.086231 628.882707 357.464075 620.885489 365.994437 609.341678C374.524798 597.797867 381.386231 589.151553 386.578581 583.402874C380.088081 575.985169 373.110807 567.176588 365.646732 556.977283C358.182656 546.777937 352.920723 538.896616 349.860918 533.333333C342.999541 545.572554 330.85299 562.262401 313.421419 583.402874C331.31669 605.006908 343.463143 621.65044 349.860918 633.333333Z" fill="#da0a0a" />
<path d="M350.139082 222.222222C347.913769 226.672848 342.535925 234.670066 334.005563 246.213877C325.475202 257.757688 318.613769 266.404002 313.421419 272.152681C319.911919 279.570386 326.889193 288.378968 334.353268 298.578272C341.817344 308.777619 347.079277 316.65894 350.139082 322.222222C357.000459 309.983001 369.14701 293.293154 386.578581 272.152681C368.68331 250.548648 356.536857 233.905115 350.139082 222.222222Z" fill="#da0a0a" />
<path d="M349.860918 477.777778C352.086231 473.327152 357.464075 465.329934 365.994437 453.786123C374.524798 442.242312 381.386231 433.595998 386.578581 427.847319C380.088081 420.429614 373.110807 411.621032 365.646732 401.421728C358.182656 391.222381 352.920723 383.34106 349.860918 377.777778C342.999541 390.016999 330.85299 406.706846 313.421419 427.847319C331.31669 449.451352 343.463143 466.094885 349.860918 477.777778Z" fill="#da0a0a" />
<path d="M250.139082 144.444444C247.913769 148.89507 242.535925 156.892289 234.005563 168.4361C225.475202 179.97991 218.613769 188.626225 213.421419 194.374903C219.911919 201.792609 226.889193 210.60119 234.353268 220.800495C241.817344 230.999841 247.079277 238.881162 250.139082 244.444444C257.000459 232.205223 269.14701 215.515376 286.578581 194.374903C268.68331 172.77087 256.536857 156.127337 250.139082 144.444444Z" fill="#da0a0a" />
<path d="M474.620253 112.777778Q477.151899 112.777778 477.151899 110.499297Q477.151899 108.47398 474.873418 107.841069Q451.708861 100.625879 447.278481 81.891702Q451.455696 84.676512 455.56962 85.815752T464.113924 86.954993Q470.189873 86.954993 475.253165 84.233474T483.227848 76.76512T486.139241 65.942335Q486.139241 59.106892 482.468354 53.853727T472.848101 45.68917T460.189873 42.777778Q448.164557 42.777778 441.012658 50.246132T433.860759 70.625879Q433.860759 80.879044 438.734177 89.739803T452.468354 104.613221T472.721519 112.651195Q473.35443 112.777778 474.620253 112.777778ZM453.227848 79.676512Q449.810127 78.094233 446.772152 75.436006Q446.012658 72.398031 446.012658 70.499297Q446.012658 65.436006 447.341772 59.992968T451.898734 50.68917T460.189873 46.828411Q466.139241 46.828411 470.063291 51.828411T473.987342 64.803094Q473.987342 72.271449 470.063291 76.76512T459.810127 81.25879Q456.64557 81.25879 453.227848 79.676512Z" fill="#da0a0a" />
<path d="M460.064904 132.222456C459.026435 134.299394 456.5168 138.031391 452.536004 143.418449C448.555209 148.805507 445.353239 152.840413 442.930166 155.523103C445.959036 158.984665 449.215065 163.095295 452.698265 167.854923C456.181465 172.61457 458.637009 176.292483 460.064904 178.888656C463.266848 173.177076 468.935182 165.388559 477.069834 155.523103C468.718791 145.441322 463.050503 137.674418 460.064904 132.222456Z" fill="#da0a0a" />
<path d="M25.379747 587.222222Q22.848101 587.222222 22.848101 589.500703Q22.848101 591.52602 25.126582 592.158931Q48.291139 599.374121 52.721519 618.108298Q48.544304 615.323488 44.43038 614.184248T35.886076 613.045007Q29.810127 613.045007 24.746835 615.766526T16.772152 623.23488T13.860759 634.057665Q13.860759 640.893108 17.531646 646.146273T27.151899 654.31083T39.810127 657.222222Q51.835443 657.222222 58.987342 649.753868T66.139241 629.374121Q66.139241 619.120956 61.265823 610.260197T47.531646 595.386779T27.278481 587.348805Q26.64557 587.222222 25.379747 587.222222ZM46.772152 620.323488Q50.189873 621.905767 53.227848 624.563994Q53.987342 627.601969 53.987342 629.500703Q53.987342 634.563994 52.658228 640.007032T48.101266 649.31083T39.810127 653.171589Q33.860759 653.171589 29.936709 648.171589T26.012658 635.196906Q26.012658 627.728551 29.936709 623.23488T40.189873 618.74121Q43.35443 618.74121 46.772152 620.323488Z" fill="#da0a0a" />
<path d="M39.935096 567.777544C40.973565 565.700606 43.4832 561.968609 47.463996 556.581551C51.444791 551.194493 54.646761 547.159587 57.069834 544.476897C54.040964 541.015335 50.784935 536.904705 47.301735 532.145077C43.818535 527.38543 41.362991 523.707517 39.935096 521.111344C36.733152 526.822924 31.064818 534.611441 22.930166 544.476897C31.281209 554.558678 36.949497 562.325582 39.935096 567.777544Z" fill="#da0a0a" />
</svg>
