<svg width="25.000000" height="35.000000" id="card-lightspade13">
<rect x="0" y="0" rx="1.25" ry="1.25" width="25" height="35.0" stroke="#010101" fill="#fffdfa" />
<rect x="5.0" y="3.5" width="15.0" height="28.0" stroke="#010101" fill="#fffdfa" />
<path d="M10.010638 9.775154C10.143026 9.775154 10.315603 9.820071 10.528369 9.909905S10.972813 10.136856 11.223404 10.321253S11.689125 10.772789 11.868794 11.122671S12.138298 11.869717 12.138298 12.314161C12.138298 12.484374 12.261229 12.56948 12.507092 12.56948C12.762411 12.56948 12.890071 12.484374 12.890071 12.314161C12.890071 11.850803 12.977541 11.439456 13.152482 11.080118S13.542553 10.45364 13.797872 10.2787S14.28487 9.9761 14.492908 9.895721C14.700946 9.815343 14.875887 9.775154 15.01773 9.775154C15.405437 9.775154 15.712766 9.879173 15.939716 10.08721S16.280142 10.583664 16.280142 10.952459C16.280142 11.084846 16.20922 11.311796 16.067376 11.63331S15.693854 12.281064 15.37234 12.612033S14.696217 13.108487 14.308511 13.108487C13.939716 13.108487 13.343972 13.037565 12.521277 12.895721C11.689125 13.037565 11.088652 13.108487 10.719858 13.108487C10.426713 13.108487 10.14539 13.01156 9.875887 12.817707S9.395982 12.396903 9.244681 12.136856C9.09338 11.876809 8.972813 11.635674 8.882979 11.413452S8.748227 11.037565 8.748227 10.952459C8.748227 10.583664 8.861702 10.295249 9.088652 10.08721S9.622932 9.775154 10.010638 9.775154ZM11.797872 12.370898C11.788416 12.030473 11.734043 11.723144 11.634752 11.448913S11.417258 10.957186 11.280142 10.79643S10.989362 10.503286 10.819149 10.399267S10.5 10.224327 10.37234 10.186501S10.13357 10.129764 10.039007 10.129764C9.755319 10.129764 9.521277 10.20305 9.336879 10.349622S9.060284 10.697139 9.060284 10.952459C9.060284 11.028109 9.095745 11.155768 9.166667 11.335437S9.341607 11.711324 9.478723 11.92409S9.812057 12.323617 10.067376 12.484374S10.606383 12.725508 10.91844 12.725508C11.504728 12.725508 11.797872 12.607305 11.797872 12.370898ZM10.407801 14.555296C10.407801 14.309433 11.102837 14.186501 12.492908 14.186501C13.117021 14.186501 13.625295 14.219598 14.01773 14.285792S14.606383 14.437093 14.606383 14.541111C14.606383 14.682955 14.478723 14.753877 14.223404 14.753877C14.195035 14.753877 13.916075 14.730236 13.386525 14.682955S12.56383 14.612033 12.507092 14.612033C12.478723 14.612033 12.202128 14.635674 11.677305 14.682955S10.861702 14.753877 10.804965 14.753877C10.540189 14.753877 10.407801 14.687683 10.407801 14.555296ZM13.641844 9.817707C13.641844 9.411087 13.599291 9.113215 13.514184 8.92409S13.206855 8.51747 12.847518 8.271608V7.945366L13.429078 7.590757V7.080118H12.904255L12.734043 6.555296H12.251773L12.067376 7.080118H11.556738V7.590757L12.124113 7.945366V8.271608C11.793145 8.489101 11.580379 8.694775 11.485816 8.888629S11.343972 9.392175 11.343972 9.817707C10.899528 9.458369 10.440898 9.2787 9.968085 9.2787C9.476359 9.2787 9.057919 9.439456 8.712766 9.760969S8.195035 10.484374 8.195035 10.966643C8.195035 11.354349 8.379433 11.803522 8.748227 12.314161C8.975177 12.626217 9.128841 12.850803 9.20922 12.98792S9.374705 13.361442 9.464539 13.697139S9.604019 14.432364 9.613475 14.895721C9.632388 15.538747 10.596926 15.86026 12.507092 15.86026C14.39834 15.86026 15.358156 15.538747 15.386525 14.895721C15.395981 14.413452 15.455083 13.985555 15.56383 13.612033S15.769504 12.985555 15.85461 12.853168S16.072104 12.536383 16.251773 12.299976C16.620567 11.798795 16.804965 11.354349 16.804965 10.966643C16.804965 10.49383 16.632387 10.094303 16.287234 9.768061C15.942081 9.44182 15.528369 9.2787 15.046099 9.2787C14.554373 9.2787 14.086288 9.458369 13.641844 9.817707ZM15.003546 10.129764C14.880615 10.129764 14.731678 10.165225 14.556738 10.236147C14.381797 10.307069 14.187943 10.420544 13.975177 10.576572S13.585106 10.969008 13.443262 11.285792S13.230496 11.969008 13.230496 12.385083C13.230496 12.612033 13.518912 12.725508 14.095745 12.725508C14.417258 12.725508 14.708038 12.64513 14.968085 12.484374S15.42435 12.132128 15.556738 11.909905S15.788416 11.491466 15.85461 11.321253S15.953901 11.028108 15.953901 10.952459C15.953901 10.697139 15.861702 10.496193 15.677305 10.349622S15.268322 10.129764 15.003546 10.129764Z" fill="#010101" />
<path d="M14.989362 25.224846C14.856974 25.224846 14.684397 25.179929 14.471631 25.090095S14.027187 24.863144 13.776596 24.678747S13.310875 24.227211 13.131206 23.877329S12.861702 23.130283 12.861702 22.685839C12.861702 22.515626 12.738771 22.43052 12.492908 22.43052C12.237589 22.43052 12.109929 22.515626 12.109929 22.685839C12.109929 23.149197 12.022459 23.560544 11.847518 23.919882S11.457447 24.54636 11.202128 24.7213S10.71513 25.0239 10.507092 25.104279C10.299054 25.184657 10.124113 25.224846 9.98227 25.224846C9.594563 25.224846 9.287234 25.120827 9.060284 24.91279S8.719858 24.416336 8.719858 24.047541C8.719858 23.915154 8.79078 23.688204 8.932624 23.36669S9.306146 22.718936 9.62766 22.387967S10.303783 21.891513 10.691489 21.891513C11.060284 21.891513 11.656028 21.962435 12.478723 22.104279C13.310875 21.962435 13.911348 21.891513 14.280142 21.891513C14.573287 21.891513 14.85461 21.98844 15.124113 22.182293S15.604018 22.603097 15.755319 22.863144C15.90662 23.123191 16.027187 23.364326 16.117021 23.586548S16.251773 23.962435 16.251773 24.047541C16.251773 24.416336 16.138298 24.704751 15.911348 24.91279S15.377068 25.224846 14.989362 25.224846ZM13.202128 22.629102C13.211584 22.969527 13.265957 23.276856 13.365248 23.551087S13.582742 24.042814 13.719858 24.20357S14.010638 24.496714 14.180851 24.600733S14.5 24.775673 14.62766 24.813499S14.86643 24.870236 14.960993 24.870236C15.244681 24.870236 15.478723 24.79695 15.663121 24.650378S15.939716 24.302861 15.939716 24.047541C15.939716 23.971891 15.904255 23.844232 15.833333 23.664563S15.658393 23.288676 15.521277 23.07591S15.187943 22.676383 14.932624 22.515626S14.393617 22.274492 14.08156 22.274492C13.495272 22.274492 13.202128 22.392695 13.202128 22.629102ZM14.592199 20.444704C14.592199 20.690567 13.897163 20.813499 12.507092 20.813499C11.882979 20.813499 11.374705 20.780402 10.98227 20.714208S10.393617 20.562907 10.393617 20.458889C10.393617 20.317045 10.521277 20.246123 10.776596 20.246123C10.804965 20.246123 11.083925 20.269764 11.613475 20.317045S12.43617 20.387967 12.492908 20.387967C12.521277 20.387967 12.797872 20.364326 13.322695 20.317045S14.138298 20.246123 14.195035 20.246123C14.459811 20.246123 14.592199 20.312317 14.592199 20.444704ZM11.358156 25.182293C11.358156 25.588913 11.400709 25.886785 11.485816 26.07591S11.793145 26.48253 12.152482 26.728392V27.054634L11.570922 27.409243V27.919882H12.095745L12.265957 28.444704H12.748227L12.932624 27.919882H13.443262V27.409243L12.875887 27.054634V26.728392C13.206855 26.510899 13.419621 26.305225 13.514184 26.111371S13.656028 25.607825 13.656028 25.182293C14.100472 25.541631 14.559102 25.7213 15.031915 25.7213C15.523641 25.7213 15.942081 25.560544 16.287234 25.239031S16.804965 24.515626 16.804965 24.033357C16.804965 23.645651 16.620567 23.196478 16.251773 22.685839C16.024823 22.373783 15.871159 22.149197 15.79078 22.01208S15.625295 21.638558 15.535461 21.302861S15.395981 20.567636 15.386525 20.104279C15.367612 19.461253 14.403074 19.13974 12.492908 19.13974C10.60166 19.13974 9.641844 19.461253 9.613475 20.104279C9.604019 20.586548 9.544917 21.014445 9.43617 21.387967S9.230496 22.014445 9.14539 22.146832S8.927896 22.463617 8.748227 22.700024C8.379433 23.201205 8.195035 23.645651 8.195035 24.033357C8.195035 24.50617 8.367613 24.905697 8.712766 25.231939C9.057919 25.55818 9.471631 25.7213 9.953901 25.7213C10.445627 25.7213 10.913712 25.541631 11.358156 25.182293ZM9.996454 24.870236C10.119385 24.870236 10.268322 24.834775 10.443262 24.763853C10.618203 24.692931 10.812057 24.579456 11.024823 24.423428S11.414894 24.030992 11.556738 23.714208S11.769504 23.030992 11.769504 22.614917C11.769504 22.387967 11.481088 22.274492 10.904255 22.274492C10.582742 22.274492 10.291962 22.35487 10.031915 22.515626S9.57565 22.867872 9.443262 23.090095S9.211584 23.508534 9.14539 23.678747S9.046099 23.971892 9.046099 24.047541C9.046099 24.302861 9.138298 24.503807 9.322695 24.650378S9.731678 24.870236 9.996454 24.870236Z" fill="#010101" />
<path d="M24.726027 5.550989Q24.75 5.516362 24.75 5.468417Q24.744673 5.388508 24.718037 5.372527T24.616819 5.356545Q24.462329 5.356545 24.387747 5.300609T24.294521 5.1621T24.270548 4.946347V2.831431Q24.275875 2.69825 24.294521 2.615677T24.387747 2.477169T24.616819 2.421233H24.648782Q24.702055 2.421233 24.723364 2.402588T24.75 2.309361Q24.75 2.261416 24.726027 2.226788T24.65411 2.192161Q24.307839 2.208143 24.025495 2.208143Q23.70586 2.208143 23.359589 2.192161Q23.311644 2.192161 23.287671 2.226788T23.263699 2.309361Q23.269026 2.389269 23.295662 2.405251T23.39688 2.421233Q23.55137 2.421233 23.625951 2.477169T23.719178 2.615677T23.743151 2.831431V3.795662Q23.657915 3.77968 23.55137 3.705099T23.290335 3.497336Q22.992009 3.22032 22.539193 2.682268Q22.443303 2.575723 22.443303 2.511796Q22.443303 2.431887 22.587139 2.42656Q22.624429 2.421233 22.637747 2.39726T22.66172 2.314688Q22.66172 2.266743 22.635084 2.229452T22.56583 2.192161Q22.379376 2.208143 21.979833 2.208143Q21.851979 2.208143 21.606925 2.197489L21.495053 2.192161Q21.447108 2.192161 21.420472 2.226788T21.393836 2.314688Q21.399163 2.389269 21.425799 2.407915T21.500381 2.42656Q21.71347 2.415906 21.902588 2.495814T22.299467 2.783486L23.162481 3.68379Q22.976027 3.912861 22.778919 4.120624T22.304795 4.605403Q22.166286 4.743912 21.974505 4.946347Q21.915906 5.004947 21.894597 5.031583Q21.724125 5.202055 21.625571 5.271309T21.383181 5.356545Q21.372527 5.356545 21.335236 5.359209T21.273973 5.388508T21.25 5.468417Q21.25 5.516362 21.273973 5.550989T21.34589 5.585616Q21.409817 5.580289 21.500381 5.580289Q21.692161 5.569635 21.798706 5.569635H22.13965Q22.842846 4.78653 23.39688 4.14726Q23.567352 3.950152 23.743151 3.93417V4.946347Q23.737823 5.079528 23.719178 5.1621T23.625951 5.300609T23.39688 5.356545H23.364916Q23.311644 5.356545 23.290335 5.37519T23.263699 5.468417Q23.263699 5.516362 23.287671 5.550989T23.359589 5.585616Q23.700533 5.569635 24.020167 5.569635Q24.307839 5.569635 24.65411 5.585616Q24.702055 5.585616 24.726027 5.550989Z" fill="#010101" />
<path d="M22.945391 8.156734C22.934358 8.271469 22.906778 8.372965 22.862649 8.461222C22.81852 8.54948 22.772185 8.616776 22.723643 8.663112S22.613873 8.749163 22.539957 8.782259C22.466042 8.815356 22.409226 8.836869 22.36951 8.846798S22.281252 8.866104 22.223885 8.87493C22.215059 8.877136 22.20844 8.87824 22.204027 8.87824V8.944433H23.795973V8.87824C23.608426 8.845143 23.46611 8.796601 23.369027 8.732615C23.183686 8.609054 23.07888 8.417094 23.054609 8.156734C23.169344 8.333249 23.317176 8.421507 23.498104 8.421507C23.615045 8.421507 23.714886 8.380688 23.797628 8.299049S23.92174 8.118121 23.92174 8.00118C23.92174 7.90189 23.897469 7.811426 23.848928 7.729788C23.800386 7.648149 23.737502 7.573682 23.660277 7.506386S23.50362 7.369035 23.421982 7.296222C23.340343 7.22341 23.259808 7.127981 23.180376 7.009937S23.040268 6.758954 22.998345 6.611123C22.960836 6.756748 22.902917 6.888031 22.824588 7.004972S22.665724 7.21679 22.582983 7.289603S22.420258 7.433021 22.343033 7.501421S22.202372 7.64484 22.152727 7.726478S22.07826 7.899683 22.07826 8.00118C22.07826 8.118121 22.119631 8.217411 22.202372 8.299049S22.384955 8.421507 22.501896 8.421507C22.682824 8.421507 22.830656 8.333249 22.945391 8.156734Z" fill="#010101" />
<path d="M0.273973 29.449011Q0.25 29.483638 0.25 29.531583Q0.255327 29.611492 0.281963 29.627473T0.383181 29.643455Q0.537671 29.643455 0.612253 29.699391T0.705479 29.8379T0.729452 30.053653V32.168569Q0.724125 32.30175 0.705479 32.384323T0.612253 32.522831T0.383181 32.578767H0.351218Q0.297945 32.578767 0.276636 32.597412T0.25 32.690639Q0.25 32.738584 0.273973 32.773212T0.34589 32.807839Q0.692161 32.791857 0.974505 32.791857Q1.29414 32.791857 1.640411 32.807839Q1.688356 32.807839 1.712329 32.773212T1.736301 32.690639Q1.730974 32.610731 1.704338 32.594749T1.60312 32.578767Q1.44863 32.578767 1.374049 32.522831T1.280822 32.384323T1.256849 32.168569V31.204338Q1.342085 31.22032 1.44863 31.294901T1.709665 31.502664Q2.007991 31.77968 2.460807 32.317732Q2.556697 32.424277 2.556697 32.488204Q2.556697 32.568113 2.412861 32.57344Q2.375571 32.578767 2.362253 32.60274T2.33828 32.685312Q2.33828 32.733257 2.364916 32.770548T2.43417 32.807839Q2.620624 32.791857 3.020167 32.791857Q3.148021 32.791857 3.393075 32.802511L3.504947 32.807839Q3.552892 32.807839 3.579528 32.773212T3.606164 32.685312Q3.600837 32.610731 3.574201 32.592085T3.499619 32.57344Q3.28653 32.584094 3.097412 32.504186T2.700533 32.216514L1.837519 31.31621Q2.023973 31.087139 2.221081 30.879376T2.695205 30.394597Q2.833714 30.256088 3.025495 30.053653Q3.084094 29.995053 3.105403 29.968417Q3.275875 29.797945 3.374429 29.728691T3.616819 29.643455Q3.627473 29.643455 3.664764 29.640791T3.726027 29.611492T3.75 29.531583Q3.75 29.483638 3.726027 29.449011T3.65411 29.414384Q3.590183 29.419711 3.499619 29.419711Q3.307839 29.430365 3.201294 29.430365H2.86035Q2.157154 30.21347 1.60312 30.85274Q1.432648 31.049848 1.256849 31.06583V30.053653Q1.262177 29.920472 1.280822 29.8379T1.374049 29.699391T1.60312 29.643455H1.635084Q1.688356 29.643455 1.709665 29.62481T1.736301 29.531583Q1.736301 29.483638 1.712329 29.449011T1.640411 29.414384Q1.299467 29.430365 0.979833 29.430365Q0.692161 29.430365 0.34589 29.414384Q0.297945 29.414384 0.273973 29.449011Z" fill="#010101" />
<path d="M2.054609 26.843266C2.065642 26.728531 2.093222 26.627035 2.137351 26.538778C2.18148 26.45052 2.227815 26.383224 2.276357 26.336888S2.386127 26.250837 2.460043 26.217741C2.533958 26.184644 2.590774 26.163131 2.63049 26.153202S2.718748 26.133896 2.776115 26.12507C2.784941 26.122864 2.79156 26.12176 2.795973 26.12176V26.055567H1.204027V26.12176C1.391574 26.154857 1.53389 26.203399 1.630973 26.267385C1.816314 26.390946 1.92112 26.582906 1.945391 26.843266C1.830656 26.666751 1.682824 26.578493 1.501896 26.578493C1.384955 26.578493 1.285114 26.619312 1.202372 26.700951S1.07826 26.881879 1.07826 26.99882C1.07826 27.09811 1.102531 27.188574 1.151072 27.270212C1.199614 27.351851 1.262498 27.426318 1.339723 27.493614S1.49638 27.630965 1.578018 27.703778C1.659657 27.77659 1.740192 27.872019 1.819624 27.990063S1.959732 28.241046 2.001655 28.388877C2.039164 28.243252 2.097083 28.111969 2.175412 27.995028S2.334276 27.78321 2.417017 27.710397S2.579742 27.566979 2.656967 27.498579S2.797628 27.35516 2.847273 27.273522S2.92174 27.100317 2.92174 26.99882C2.92174 26.881879 2.880369 26.782589 2.797628 26.700951S2.615045 26.578493 2.498104 26.578493C2.317176 26.578493 2.169344 26.666751 2.054609 26.843266Z" fill="#010101" />
</svg>
