<svg width="25.000000" height="35.000000" id="card-lightdiamond10">
<rect x="0" y="0" rx="1.25" ry="1.25" width="25" height="35.0" stroke="#010101" fill="#fffdfa" />
<path d="M7.506954 3.333333C7.395688 3.555865 7.126796 3.955726 6.700278 4.532916C6.27376 5.110107 5.930688 5.542422 5.671071 5.829856C5.995596 6.200742 6.34446 6.641171 6.717663 7.151136C7.090867 7.661103 7.353964 8.055169 7.506954 8.333333C7.850023 7.721372 8.45735 6.88688 9.328929 5.829856C8.434166 4.749655 7.826843 3.917478 7.506954 3.333333Z" fill="#da0a0a" />
<path d="M7.493046 31.666667C7.604312 31.444135 7.873204 31.044274 8.299722 30.467084C8.72624 29.889893 9.069312 29.457578 9.328929 29.170144C9.004404 28.799258 8.65554 28.358829 8.282337 27.848864C7.909133 27.338897 7.646036 26.944831 7.493046 26.666667C7.149977 27.278628 6.54265 28.11312 5.671071 29.170144C6.565834 30.250345 7.173157 31.082522 7.493046 31.666667Z" fill="#da0a0a" />
<path d="M7.506954 11.111111C7.395688 11.333642 7.126796 11.733503 6.700278 12.310694C6.27376 12.887884 5.930688 13.3202 5.671071 13.607634C5.995596 13.978519 6.34446 14.418948 6.717663 14.928914C7.090867 15.438881 7.353964 15.832947 7.506954 16.111111C7.850023 15.49915 8.45735 14.664658 9.328929 13.607634C8.434166 12.527432 7.826843 11.695256 7.506954 11.111111Z" fill="#da0a0a" />
<path d="M7.493046 23.888889C7.604312 23.666358 7.873204 23.266497 8.299722 22.689306C8.72624 22.112116 9.069312 21.6798 9.328929 21.392366C9.004404 21.021481 8.65554 20.581052 8.282337 20.071086C7.909133 19.561119 7.646036 19.167053 7.493046 18.888889C7.149977 19.50085 6.54265 20.335342 5.671071 21.392366C6.565834 22.472568 7.173157 23.304744 7.493046 23.888889Z" fill="#da0a0a" />
<path d="M17.506954 3.333333C17.395688 3.555865 17.126796 3.955726 16.700278 4.532916C16.27376 5.110107 15.930688 5.542422 15.671071 5.829856C15.995596 6.200742 16.34446 6.641171 16.717663 7.151136C17.090867 7.661103 17.353964 8.055169 17.506954 8.333333C17.850023 7.721372 18.45735 6.88688 19.328929 5.829856C18.434166 4.749655 17.826843 3.917478 17.506954 3.333333Z" fill="#da0a0a" />
<path d="M17.493046 31.666667C17.604312 31.444135 17.873204 31.044274 18.299722 30.467084C18.72624 29.889893 19.069312 29.457578 19.328929 29.170144C19.004404 28.799258 18.65554 28.358829 18.282337 27.848864C17.909133 27.338897 17.646036 26.944831 17.493046 26.666667C17.149977 27.278628 16.54265 28.11312 15.671071 29.170144C16.565834 30.250345 17.173157 31.082522 17.493046 31.666667Z" fill="#da0a0a" />
<path d="M17.506954 11.111111C17.395688 11.333642 17.126796 11.733503 16.700278 12.310694C16.27376 12.887884 15.930688 13.3202 15.671071 13.607634C15.995596 13.978519 16.34446 14.418948 16.717663 14.928914C17.090867 15.438881 17.353964 15.832947 17.506954 16.111111C17.850023 15.49915 18.45735 14.664658 19.328929 13.607634C18.434166 12.527432 17.826843 11.695256 17.506954 11.111111Z" fill="#da0a0a" />
<path d="M17.493046 23.888889C17.604312 23.666358 17.873204 23.266497 18.299722 22.689306C18.72624 22.112116 19.069312 21.6798 19.328929 21.392366C19.004404 21.021481 18.65554 20.581052 18.282337 20.071086C17.909133 19.561119 17.646036 19.167053 17.493046 18.888889C17.149977 19.50085 16.54265 20.335342 15.671071 21.392366C16.565834 22.472568 17.173157 23.304744 17.493046 23.888889Z" fill="#da0a0a" />
<path d="M12.506954 7.222222C12.395688 7.444754 12.126796 7.844614 11.700278 8.421805C11.27376 8.998996 10.930688 9.431311 10.671071 9.718745C10.995596 10.08963 11.34446 10.530059 11.717663 11.040025C12.090867 11.549992 12.353964 11.944058 12.506954 12.222222C12.850023 11.610261 13.45735 10.775769 14.328929 9.718745C13.434166 8.638544 12.826843 7.806367 12.506954 7.222222Z" fill="#da0a0a" />
<path d="M12.506954 22.777778C12.395688 23.000309 12.126796 23.40017 11.700278 23.977361C11.27376 24.554551 10.930688 24.986867 10.671071 25.274301C10.995596 25.645186 11.34446 26.085615 11.717663 26.59558C12.090867 27.105548 12.353964 27.499614 12.506954 27.777778C12.850023 27.165817 13.45735 26.331324 14.328929 25.274301C13.434166 24.194099 12.826843 23.361922 12.506954 22.777778Z" fill="#da0a0a" />
<path d="M24.725597 5.44798Q24.721355 5.371616 24.706506 5.346162T24.657719 5.320707Q24.420146 5.320707 24.32045 5.292071T24.171966 5.142525T24.123179 4.735253V3.411616Q24.118936 3.112525 24.14227 2.982071T24.224996 2.813434T24.420146 2.775253H24.628022Q24.704385 2.775253 24.704385 2.622525Q24.700143 2.527071 24.678931 2.504798T24.625901 2.482525H24.581356Q24.403176 2.482525 24.233481 2.396616T23.864394 2.189798Q23.838939 2.177071 23.82197 2.177071Q23.754092 2.177071 23.754092 2.323434V4.735253Q23.754092 5.015253 23.709547 5.136162T23.569548 5.288889T23.261975 5.320707H23.219552Q23.185612 5.320707 23.170764 5.346162T23.151673 5.44798Q23.151673 5.600707 23.228036 5.600707Q23.533488 5.581616 23.940756 5.581616Q24.343783 5.581616 24.649234 5.600707Q24.725597 5.600707 24.725597 5.44798ZM22.841963 5.397071Q23.06893 5.155253 23.181354 4.754343T23.293777 3.882525Q23.293777 3.405253 23.181354 3.010707T22.841963 2.377525T22.28409 2.138889Q21.970154 2.138889 21.741065 2.380707T21.39319 3.023434T21.274403 3.882525T21.39319 4.741616T21.741065 5.390707T22.28409 5.638889Q22.614996 5.638889 22.841963 5.397071ZM21.83864 5.008889Q21.681672 4.614343 21.681672 3.882525T21.83864 2.762525T22.279847 2.374343Q22.572572 2.374343 22.72954 2.759343T22.886508 3.882525T22.72954 5.012071T22.279847 5.403434Q21.995608 5.403434 21.83864 5.008889Z" fill="#da0a0a" />
<path d="M23.003245 6.611123C22.951322 6.71497 22.82584 6.90157 22.6268 7.170922C22.42776 7.440275 22.267662 7.642021 22.146508 7.776155C22.297952 7.949233 22.460753 8.154765 22.634913 8.392746C22.809073 8.630728 22.93185 8.814624 23.003245 8.944433C23.163342 8.658854 23.446759 8.269428 23.853492 7.776155C23.43594 7.272066 23.152525 6.883721 23.003245 6.611123Z" fill="#da0a0a" />
<path d="M0.274403 29.55202Q0.278645 29.628384 0.293494 29.653838T0.342281 29.679293Q0.579854 29.679293 0.67955 29.707929T0.828034 29.857475T0.876821 30.264747V31.588384Q0.881064 31.887475 0.85773 32.017929T0.775004 32.186566T0.579854 32.224747H0.371978Q0.295615 32.224747 0.295615 32.377475Q0.299857 32.472929 0.321069 32.495202T0.374099 32.517475H0.418644Q0.596824 32.517475 0.766519 32.603384T1.135606 32.810202Q1.161061 32.822929 1.17803 32.822929Q1.245908 32.822929 1.245908 32.676566V30.264747Q1.245908 29.984747 1.290453 29.863838T1.430452 29.711111T1.738025 29.679293H1.780448Q1.814388 29.679293 1.829236 29.653838T1.848327 29.55202Q1.848327 29.399293 1.771964 29.399293Q1.466512 29.418384 1.059244 29.418384Q0.656217 29.418384 0.350766 29.399293Q0.274403 29.399293 0.274403 29.55202ZM2.158037 29.602929Q1.93107 29.844747 1.818646 30.245657T1.706223 31.117475Q1.706223 31.594747 1.818646 31.989293T2.158037 32.622475T2.71591 32.861111Q3.029846 32.861111 3.258935 32.619293T3.60681 31.976566T3.725597 31.117475T3.60681 30.258384T3.258935 29.609293T2.71591 29.361111Q2.385004 29.361111 2.158037 29.602929ZM3.16136 29.991111Q3.318328 30.385657 3.318328 31.117475T3.16136 32.237475T2.720153 32.625657Q2.427428 32.625657 2.27046 32.240657T2.113492 31.117475T2.27046 29.987929T2.720153 29.596566Q3.004392 29.596566 3.16136 29.991111Z" fill="#da0a0a" />
<path d="M1.996755 28.388877C2.048678 28.28503 2.17416 28.09843 2.3732 27.829078C2.57224 27.559725 2.732338 27.357979 2.853492 27.223845C2.702048 27.050767 2.539247 26.845235 2.365087 26.607254C2.190927 26.369272 2.06815 26.185376 1.996755 26.055567C1.836658 26.341146 1.553241 26.730572 1.146508 27.223845C1.56406 27.727934 1.847475 28.116279 1.996755 28.388877Z" fill="#da0a0a" />
</svg>
