<svg width="500.000000" height="700.000000" id="card-realheart8">
<radialGradient id="card-realwhitegradient" cx="250.0" cy="350.0" r="500" gradientTransform="matrix(1 0 0 1 0 -.25)" gradientUnits="userSpaceOnUse">
<stop stop-color="#FDFAF4" offset=".15"/>
<stop stop-color="#FDF9F2" offset=".35"/>
<stop stop-color="#FCF7F1" offset=".5"/>
<stop stop-color="#FDFDF8" offset=".75"/>
<stop stop-color="#FFFDFA" offset="1"/>
</radialGradient>
<rect x="0" y="0" rx="25.0" ry="25.0" width="500" height="700.0" stroke="#010101" fill="url(#card-realwhitegradient)" />
<path d="M149.860724 86.722377C148.003719 79.851444 145.00929 74.791082 140.877437 71.541318S132.172702 66.666667 127.158774 66.666667C121.494889 66.666667 116.643454 68.616527 112.604457 72.516249S106.545961 81.104926 106.545961 86.583101C106.545961 91.597029 107.77623 96.703812 110.236769 101.903435S115.807799 112.116987 119.568245 116.945218S127.158774 126.624884 131.058496 131.499536S138.695446 141.922001 142.270195 148.14299S148.375111 160.538533 149.860724 166.666667C151.532033 160.259981 154.20149 153.830079 157.869081 147.376973S165.320334 135.213561 169.220056 130.246054C173.119777 125.278547 176.926643 120.403895 180.640669 115.622098S187.41876 106.035288 189.832869 101.207057S193.454039 91.782725 193.454039 87.418756C193.454039 81.569174 191.480961 76.648101 187.534819 72.655525C183.588677 68.662948 178.737228 66.666667 172.980501 66.666667C161.931295 66.666667 154.224652 73.351903 149.860724 86.722377Z" fill="#da0a0a" />
<path d="M150.139276 613.277623C151.996281 620.148556 154.99071 625.208918 159.122563 628.458682S167.827298 633.333333 172.841226 633.333333C178.505111 633.333333 183.356546 631.383473 187.395543 627.483751S193.454039 618.895074 193.454039 613.416899C193.454039 608.402971 192.22377 603.296188 189.763231 598.096565S184.192201 587.883013 180.431755 583.054782S172.841226 573.375116 168.941504 568.500464S161.304554 558.077999 157.729805 551.85701S151.624889 539.461467 150.139276 533.333333C148.467967 539.740019 145.79851 546.169921 142.130919 552.623027S134.679666 564.786439 130.779944 569.753946C126.880223 574.721453 123.073357 579.596105 119.359331 584.377902S112.58124 593.964712 110.167131 598.792943S106.545961 608.217275 106.545961 612.581244C106.545961 618.430826 108.519039 623.351899 112.465181 627.344475C116.411323 631.337052 121.262772 633.333333 127.019499 633.333333C138.068705 633.333333 145.775348 626.648097 150.139276 613.277623Z" fill="#da0a0a" />
<path d="M149.860724 242.277933C148.003719 235.406999 145.00929 230.346637 140.877437 227.096874S132.172702 222.222222 127.158774 222.222222C121.494889 222.222222 116.643454 224.172083 112.604457 228.071804S106.545961 236.660481 106.545961 242.138657C106.545961 247.152584 107.77623 252.259367 110.236769 257.458991S115.807799 267.672543 119.568245 272.500774S127.158774 282.180439 131.058496 287.055091S138.695446 297.477556 142.270195 303.698545S148.375111 316.094089 149.860724 322.222222C151.532033 315.815537 154.20149 309.385634 157.869081 302.932529S165.320334 290.769116 169.220056 285.801609C173.119777 280.834102 176.926643 275.959451 180.640669 271.177654S187.41876 261.590843 189.832869 256.762612S193.454039 247.338281 193.454039 242.974311C193.454039 237.124729 191.480961 232.203657 187.534819 228.21108C183.588677 224.218504 178.737228 222.222222 172.980501 222.222222C161.931295 222.222222 154.224652 228.907459 149.860724 242.277933Z" fill="#da0a0a" />
<path d="M150.139276 457.722067C151.996281 464.593001 154.99071 469.653363 159.122563 472.903126S167.827298 477.777778 172.841226 477.777778C178.505111 477.777778 183.356546 475.827917 187.395543 471.928196S193.454039 463.339519 193.454039 457.861343C193.454039 452.847416 192.22377 447.740633 189.763231 442.541009S184.192201 432.327457 180.431755 427.499226S172.841226 417.819561 168.941504 412.944909S161.304554 402.522444 157.729805 396.301455S151.624889 383.905911 150.139276 377.777778C148.467967 384.184463 145.79851 390.614366 142.130919 397.067471S134.679666 409.230884 130.779944 414.198391C126.880223 419.165898 123.073357 424.040549 119.359331 428.822346S112.58124 438.409157 110.167131 443.237388S106.545961 452.661719 106.545961 457.025689C106.545961 462.875271 108.519039 467.796343 112.465181 471.78892C116.411323 475.781496 121.262772 477.777778 127.019499 477.777778C138.068705 477.777778 145.775348 471.092541 150.139276 457.722067Z" fill="#da0a0a" />
<path d="M349.860724 86.722377C348.003719 79.851444 345.00929 74.791082 340.877437 71.541318S332.172702 66.666667 327.158774 66.666667C321.494889 66.666667 316.643454 68.616527 312.604457 72.516249S306.545961 81.104926 306.545961 86.583101C306.545961 91.597029 307.77623 96.703812 310.236769 101.903435S315.807799 112.116987 319.568245 116.945218S327.158774 126.624884 331.058496 131.499536S338.695446 141.922001 342.270195 148.14299S348.375111 160.538533 349.860724 166.666667C351.532033 160.259981 354.20149 153.830079 357.869081 147.376973S365.320334 135.213561 369.220056 130.246054C373.119777 125.278547 376.926643 120.403895 380.640669 115.622098S387.41876 106.035288 389.832869 101.207057S393.454039 91.782725 393.454039 87.418756C393.454039 81.569174 391.480961 76.648101 387.534819 72.655525C383.588677 68.662948 378.737228 66.666667 372.980501 66.666667C361.931295 66.666667 354.224652 73.351903 349.860724 86.722377Z" fill="#da0a0a" />
<path d="M350.139276 613.277623C351.996281 620.148556 354.99071 625.208918 359.122563 628.458682S367.827298 633.333333 372.841226 633.333333C378.505111 633.333333 383.356546 631.383473 387.395543 627.483751S393.454039 618.895074 393.454039 613.416899C393.454039 608.402971 392.22377 603.296188 389.763231 598.096565S384.192201 587.883013 380.431755 583.054782S372.841226 573.375116 368.941504 568.500464S361.304554 558.077999 357.729805 551.85701S351.624889 539.461467 350.139276 533.333333C348.467967 539.740019 345.79851 546.169921 342.130919 552.623027S334.679666 564.786439 330.779944 569.753946C326.880223 574.721453 323.073357 579.596105 319.359331 584.377902S312.58124 593.964712 310.167131 598.792943S306.545961 608.217275 306.545961 612.581244C306.545961 618.430826 308.519039 623.351899 312.465181 627.344475C316.411323 631.337052 321.262772 633.333333 327.019499 633.333333C338.068705 633.333333 345.775348 626.648097 350.139276 613.277623Z" fill="#da0a0a" />
<path d="M349.860724 242.277933C348.003719 235.406999 345.00929 230.346637 340.877437 227.096874S332.172702 222.222222 327.158774 222.222222C321.494889 222.222222 316.643454 224.172083 312.604457 228.071804S306.545961 236.660481 306.545961 242.138657C306.545961 247.152584 307.77623 252.259367 310.236769 257.458991S315.807799 267.672543 319.568245 272.500774S327.158774 282.180439 331.058496 287.055091S338.695446 297.477556 342.270195 303.698545S348.375111 316.094089 349.860724 322.222222C351.532033 315.815537 354.20149 309.385634 357.869081 302.932529S365.320334 290.769116 369.220056 285.801609C373.119777 280.834102 376.926643 275.959451 380.640669 271.177654S387.41876 261.590843 389.832869 256.762612S393.454039 247.338281 393.454039 242.974311C393.454039 237.124729 391.480961 232.203657 387.534819 228.21108C383.588677 224.218504 378.737228 222.222222 372.980501 222.222222C361.931295 222.222222 354.224652 228.907459 349.860724 242.277933Z" fill="#da0a0a" />
<path d="M350.139276 457.722067C351.996281 464.593001 354.99071 469.653363 359.122563 472.903126S367.827298 477.777778 372.841226 477.777778C378.505111 477.777778 383.356546 475.827917 387.395543 471.928196S393.454039 463.339519 393.454039 457.861343C393.454039 452.847416 392.22377 447.740633 389.763231 442.541009S384.192201 432.327457 380.431755 427.499226S372.841226 417.819561 368.941504 412.944909S361.304554 402.522444 357.729805 396.301455S351.624889 383.905911 350.139276 377.777778C348.467967 384.184463 345.79851 390.614366 342.130919 397.067471S334.679666 409.230884 330.779944 414.198391C326.880223 419.165898 323.073357 424.040549 319.359331 428.822346S312.58124 438.409157 310.167131 443.237388S306.545961 452.661719 306.545961 457.025689C306.545961 462.875271 308.519039 467.796343 312.465181 471.78892C316.411323 475.781496 321.262772 477.777778 327.019499 477.777778C338.068705 477.777778 345.775348 471.092541 350.139276 457.722067Z" fill="#da0a0a" />
<path d="M473.936364 110.359596Q479.6 107.941414 482.654545 103.741414T485.709091 94.19596Q485.709091 88.59596 481.954545 84.459596T470.818182 77.141414Q476.927273 73.450505 479.790909 69.632323T482.654545 60.977778Q482.654545 56.014141 479.345455 51.814141T470.563636 45.19596T458.854545 42.777778Q452.490909 42.777778 447.527273 45.068687T439.763636 51.305051T436.963636 60.214141Q436.963636 64.79596 440.145455 68.805051T449.690909 75.99596Q441.290909 79.559596 437.790909 83.505051T434.290909 93.559596Q434.290909 98.777778 437.663636 103.168687T447.081818 110.168687T460.890909 112.777778Q468.272727 112.777778 473.936364 110.359596ZM448.736364 67.659596Q446.890909 64.032323 446.890909 60.086869Q446.890909 54.614141 450.2 50.859596T459.490909 47.105051Q465.218182 47.105051 468.654545 50.414141T472.090909 58.814141Q472.090909 63.523232 467.445455 66.768687T454.018182 73.705051Q450.581818 71.286869 448.736364 67.659596ZM449.563636 105.014141Q445.745455 101.450505 445.745455 95.850505Q445.745455 92.159596 448.1 89.423232T454.209091 84.714141T465.981818 79.177778Q469.927273 81.850505 472.090909 85.541414T474.254545 93.686869Q474.254545 100.305051 470.245455 104.441414T459.745455 108.577778Q453.381818 108.577778 449.563636 105.014141Z" fill="#da0a0a" />
<path d="M459.935005 141.581693C459.068411 138.37529 457.671025 136.013811 455.742847 134.49727S451.680677 132.222456 449.340868 132.222456C446.697748 132.222456 444.433768 133.132381 442.548921 134.952233S439.721651 138.960242 439.721651 141.516699C439.721651 143.856508 440.295771 146.23965 441.444011 148.666117S444.043799 153.432393 445.798656 155.685545S449.340868 160.202677 451.16072 162.477492S454.724594 167.34126 456.392794 170.244359S459.241726 176.028888 459.935005 178.888656C460.714942 175.898899 461.960676 172.898308 463.672201 169.886889S467.149418 164.210686 468.96927 161.89254C470.789121 159.574393 472.565641 157.299578 474.298836 155.068095S477.461914 150.594295 478.588486 148.341143S480.278349 143.943166 480.278349 141.906667C480.278349 139.176889 479.357588 136.880412 477.516074 135.017228C475.674559 133.154044 473.410572 132.222456 470.724127 132.222456C465.567882 132.222456 461.971484 135.342202 459.935005 141.581693Z" fill="#da0a0a" />
<path d="M26.063636 589.640404Q20.4 592.058586 17.345455 596.258586T14.290909 605.80404Q14.290909 611.40404 18.045455 615.540404T29.181818 622.858586Q23.072727 626.549495 20.209091 630.367677T17.345455 639.022222Q17.345455 643.985859 20.654545 648.185859T29.436364 654.80404T41.145455 657.222222Q47.509091 657.222222 52.472727 654.931313T60.236364 648.694949T63.036364 639.785859Q63.036364 635.20404 59.854545 631.194949T50.309091 624.00404Q58.709091 620.440404 62.209091 616.494949T65.709091 606.440404Q65.709091 601.222222 62.336364 596.831313T52.918182 589.831313T39.109091 587.222222Q31.727273 587.222222 26.063636 589.640404ZM51.263636 632.340404Q53.109091 635.967677 53.109091 639.913131Q53.109091 645.385859 49.8 649.140404T40.509091 652.894949Q34.781818 652.894949 31.345455 649.585859T27.909091 641.185859Q27.909091 636.476768 32.554545 633.231313T45.981818 626.294949Q49.418182 628.713131 51.263636 632.340404ZM50.436364 594.985859Q54.254545 598.549495 54.254545 604.149495Q54.254545 607.840404 51.9 610.576768T45.790909 615.285859T34.018182 620.822222Q30.072727 618.149495 27.909091 614.458586T25.745455 606.313131Q25.745455 599.694949 29.754545 595.558586T40.254545 591.422222Q46.618182 591.422222 50.436364 594.985859Z" fill="#da0a0a" />
<path d="M40.064995 558.418307C40.931589 561.62471 42.328975 563.986189 44.257153 565.50273S48.319323 567.777544 50.659132 567.777544C53.302252 567.777544 55.566232 566.867619 57.451079 565.047767S60.278349 561.039758 60.278349 558.483301C60.278349 556.143492 59.704229 553.76035 58.555989 551.333883S55.956201 546.567607 54.201344 544.314455S50.659132 539.797323 48.83928 537.522508S45.275406 532.65874 43.607206 529.755641S40.758274 523.971112 40.064995 521.111344C39.285058 524.101101 38.039324 527.101692 36.327799 530.113111S32.850582 535.789314 31.03073 538.10746C29.210879 540.425607 27.434359 542.700422 25.701164 544.931905S22.538086 549.405705 21.411514 551.658857S19.721651 556.056834 19.721651 558.093333C19.721651 560.823111 20.642412 563.119588 22.483926 564.982772C24.325441 566.845956 26.589428 567.777544 29.275873 567.777544C34.432118 567.777544 38.028516 564.657798 40.064995 558.418307Z" fill="#da0a0a" />
</svg>
