<svg width="150.000000" height="210.000000" id="card-webheart2">
<radialGradient id="card-webwhitegradient" cx="75.0" cy="105.0" r="150" gradientTransform="matrix(1 0 0 1 0 -.25)" gradientUnits="userSpaceOnUse">
<stop stop-color="#FDFAF4" offset=".15"/>
<stop stop-color="#FDF9F2" offset=".35"/>
<stop stop-color="#FCF7F1" offset=".5"/>
<stop stop-color="#FDFDF8" offset=".75"/>
<stop stop-color="#FFFDFA" offset="1"/>
</radialGradient>
<rect x="0" y="0" rx="7.5" ry="7.5" width="150" height="210.0" stroke="#010101" fill="url(#card-webwhitegradient)" />
<path d="M74.958217 26.016713C74.401116 23.955433 73.502787 22.437325 72.263231 21.462396S69.651811 20.0 68.147632 20.0C66.448467 20.0 64.993036 20.584958 63.781337 21.754875S61.963788 24.331478 61.963788 25.97493C61.963788 27.479109 62.332869 29.011143 63.071031 30.571031S64.74234 33.635096 65.870474 35.083565S68.147632 37.987465 69.317549 39.449861S71.608634 42.5766 72.681058 44.442897S74.512533 48.16156 74.958217 50.0C75.45961 48.077994 76.260447 46.149024 77.360724 44.213092S79.5961 40.564068 80.766017 39.073816C81.935933 37.583564 83.077993 36.121169 84.192201 34.68663S86.225628 31.810586 86.949861 30.362117S88.036212 27.534818 88.036212 26.225627C88.036212 24.470752 87.444288 22.99443 86.260446 21.796657C85.076603 20.598884 83.621169 20.0 81.89415 20.0C78.579389 20.0 76.267396 22.005571 74.958217 26.016713Z" fill="#da0a0a" />
<path d="M75.041783 183.983287C75.598884 186.044567 76.497213 187.562675 77.736769 188.537604S80.348189 190.0 81.852368 190.0C83.551533 190.0 85.006964 189.415042 86.218663 188.245125S88.036212 185.668522 88.036212 184.02507C88.036212 182.520891 87.667131 180.988857 86.928969 179.428969S85.25766 176.364904 84.129526 174.916435S81.852368 172.012535 80.682451 170.550139S78.391366 167.4234 77.318942 165.557103S75.487467 161.83844 75.041783 160.0C74.54039 161.922006 73.739553 163.850976 72.639276 165.786908S70.4039 169.435932 69.233983 170.926184C68.064067 172.416436 66.922007 173.878831 65.807799 175.31337S63.774372 178.189414 63.050139 179.637883S61.963788 182.465182 61.963788 183.774373C61.963788 185.529248 62.555712 187.00557 63.739554 188.203343C64.923397 189.401116 66.378831 190.0 68.10585 190.0C71.420611 190.0 73.732604 187.994429 75.041783 183.983287Z" fill="#da0a0a" />
<path d="M146.023585 32.406918Q145.983962 31.574843 145.567925 31.059748T144.200943 29.910692Q141.070755 27.810692 139.34717 26.443711T136.236792 22.97673T134.85 18.261635Q134.85 16.359748 135.860377 15.309748T138.693396 14.259748Q140.238679 14.259748 141.249057 15.03239T142.259434 17.152201Q142.259434 17.825786 141.942453 18.281447T141.288679 19.014465T140.951887 19.331447Q140.951887 19.608805 141.486792 20.005031T142.774528 20.401258Q144.00283 20.401258 144.735849 19.628616T145.468868 17.667296Q145.468868 16.08239 144.399057 14.972956T141.684906 13.348428T138.336792 12.833333Q135.365094 12.833333 133.20566 14.299371T131.046226 18.77673Q131.046226 20.955975 132.234906 22.738994T135.067925 25.770126T139.366981 28.722013Q141.466981 30.02956 142.49717 30.822013V31.020126H131.878302Q130.887736 31.020126 130.432075 31.23805T129.976415 32.406918Q129.976415 33.833333 131.363208 33.833333H144.636792Q146.023585 33.833333 146.023585 32.406918Z" fill="#da0a0a" />
<path d="M137.980502 42.474508C137.720523 41.512587 137.301308 40.804143 136.722854 40.349181S135.504203 39.666737 134.80226 39.666737C134.009324 39.666737 133.33013 39.939714 132.764676 40.48567S131.916495 41.688073 131.916495 42.45501C131.916495 43.156952 132.088731 43.871895 132.433203 44.599835S133.21314 46.029718 133.739597 46.705663S134.80226 48.060803 135.348216 48.743248S136.417378 50.202378 136.917838 51.073308S137.772518 52.808667 137.980502 53.666597C138.214483 52.76967 138.588203 51.869492 139.10166 50.966067S140.144825 49.263206 140.690781 48.567762C141.236736 47.872318 141.769692 47.189873 142.289651 46.520429S143.238574 45.178289 143.576546 44.502343S144.083505 43.18295 144.083505 42.572C144.083505 41.753067 143.807276 41.064124 143.254822 40.505168C142.702368 39.946213 142.023172 39.666737 141.217238 39.666737C139.670365 39.666737 138.591445 40.60266 137.980502 42.474508Z" fill="#da0a0a" />
<path d="M3.976415 177.593082Q4.016038 178.425157 4.432075 178.940252T5.799057 180.089308Q8.929245 182.189308 10.65283 183.556289T13.763208 187.02327T15.15 191.738365Q15.15 193.640252 14.139623 194.690252T11.306604 195.740252Q9.761321 195.740252 8.750943 194.96761T7.740566 192.847799Q7.740566 192.174214 8.057547 191.718553T8.711321 190.985535T9.048113 190.668553Q9.048113 190.391195 8.513208 189.994969T7.225472 189.598742Q5.99717 189.598742 5.264151 190.371384T4.531132 192.332704Q4.531132 193.91761 5.600943 195.027044T8.315094 196.651572T11.663208 197.166667Q14.634906 197.166667 16.79434 195.700629T18.953774 191.22327Q18.953774 189.044025 17.765094 187.261006T14.932075 184.229874T10.633019 181.277987Q8.533019 179.97044 7.50283 179.177987V178.979874H18.121698Q19.112264 178.979874 19.567925 178.76195T20.023585 177.593082Q20.023585 176.166667 18.636792 176.166667H5.363208Q3.976415 176.166667 3.976415 177.593082Z" fill="#da0a0a" />
<path d="M12.019498 167.525492C12.279477 168.487413 12.698692 169.195857 13.277146 169.650819S14.495797 170.333263 15.19774 170.333263C15.990676 170.333263 16.66987 170.060286 17.235324 169.51433S18.083505 168.311927 18.083505 167.54499C18.083505 166.843048 17.911269 166.128105 17.566797 165.400165S16.78686 163.970282 16.260403 163.294337S15.19774 161.939197 14.651784 161.256752S13.582622 159.797622 13.082162 158.926692S12.227482 157.191333 12.019498 156.333403C11.785517 157.23033 11.411797 158.130508 10.89834 159.033933S9.855175 160.736794 9.309219 161.432238C8.763264 162.127682 8.230308 162.810127 7.710349 163.479571S6.761426 164.821711 6.423454 165.497657S5.916495 166.81705 5.916495 167.428C5.916495 168.246933 6.192724 168.935876 6.745178 169.494832C7.297632 170.053787 7.976828 170.333263 8.782762 170.333263C10.329635 170.333263 11.408555 169.39734 12.019498 167.525492Z" fill="#da0a0a" />
</svg>
