<svg width="150.000000" height="210.000000" id="card-webspade2">
<radialGradient id="card-webwhitegradient" cx="75.0" cy="105.0" r="150" gradientTransform="matrix(1 0 0 1 0 -.25)" gradientUnits="userSpaceOnUse">
<stop stop-color="#FDFAF4" offset=".15"/>
<stop stop-color="#FDF9F2" offset=".35"/>
<stop stop-color="#FCF7F1" offset=".5"/>
<stop stop-color="#FDFDF8" offset=".75"/>
<stop stop-color="#FFFDFA" offset="1"/>
</radialGradient>
<rect x="0" y="0" rx="7.5" ry="7.5" width="150" height="210.0" stroke="#010101" fill="url(#card-webwhitegradient)" />
<path d="M74.297872 39.87234C74.156029 41.347519 73.801417 42.652481 73.234043 43.787234C72.666668 44.921987 72.070923 45.787234 71.446809 46.382979S70.03546 47.489362 69.085106 47.914894C68.134753 48.340426 67.404255 48.617021 66.893617 48.744681S65.758864 48.992908 65.021277 49.106383C64.907801 49.134752 64.822695 49.148936 64.765957 49.148936V50.0H85.234043V49.148936C82.822694 48.723404 80.992906 48.099289 79.744681 47.276596C77.361702 45.687945 76.014183 43.21986 75.702128 39.87234C77.177306 42.141843 79.078013 43.276596 81.404255 43.276596C82.9078 43.276596 84.191489 42.751774 85.255319 41.702128S86.851064 39.375885 86.851064 37.87234C86.851064 36.595745 86.539007 35.432626 85.914894 34.382979C85.290779 33.333332 84.482268 32.375885 83.489362 31.510638S81.475179 29.744681 80.425532 28.808511C79.375885 27.87234 78.340426 26.645391 77.319149 25.12766S75.517732 21.900711 74.978723 20.0C74.496455 21.87234 73.751774 23.560285 72.744681 25.06383S70.702128 27.787234 69.638298 28.723404S67.546098 30.567374 66.553191 31.446809S64.744681 33.290779 64.106383 34.340426S63.148936 36.567374 63.148936 37.87234C63.148936 39.375885 63.680851 40.652481 64.744681 41.702128S67.0922 43.276596 68.595745 43.276596C70.921987 43.276596 72.822694 42.141843 74.297872 39.87234Z" fill="#010101" />
<path d="M75.702128 170.12766C75.843971 168.652481 76.198583 167.347519 76.765957 166.212766C77.333332 165.078013 77.929077 164.212766 78.553191 163.617021S79.96454 162.510638 80.914894 162.085106C81.865247 161.659574 82.595745 161.382979 83.106383 161.255319S84.241136 161.007092 84.978723 160.893617C85.092199 160.865248 85.177305 160.851064 85.234043 160.851064V160.0H64.765957V160.851064C67.177306 161.276596 69.007094 161.900711 70.255319 162.723404C72.638298 164.312055 73.985817 166.78014 74.297872 170.12766C72.822694 167.858157 70.921987 166.723404 68.595745 166.723404C67.0922 166.723404 65.808511 167.248226 64.744681 168.297872S63.148936 170.624115 63.148936 172.12766C63.148936 173.404255 63.460993 174.567374 64.085106 175.617021C64.709221 176.666668 65.517732 177.624115 66.510638 178.489362S68.524821 180.255319 69.574468 181.191489C70.624115 182.12766 71.659574 183.354609 72.680851 184.87234S74.482268 188.099289 75.021277 190.0C75.503545 188.12766 76.248226 186.439715 77.255319 184.93617S79.297872 182.212766 80.361702 181.276596S82.453902 179.432626 83.446809 178.553191S85.255319 176.709221 85.893617 175.659574S86.851064 173.432626 86.851064 172.12766C86.851064 170.624115 86.319149 169.347519 85.255319 168.297872S82.9078 166.723404 81.404255 166.723404C79.078013 166.723404 77.177306 167.858157 75.702128 170.12766Z" fill="#010101" />
<path d="M146.023585 32.406918Q145.983962 31.574843 145.567925 31.059748T144.200943 29.910692Q141.070755 27.810692 139.34717 26.443711T136.236792 22.97673T134.85 18.261635Q134.85 16.359748 135.860377 15.309748T138.693396 14.259748Q140.238679 14.259748 141.249057 15.03239T142.259434 17.152201Q142.259434 17.825786 141.942453 18.281447T141.288679 19.014465T140.951887 19.331447Q140.951887 19.608805 141.486792 20.005031T142.774528 20.401258Q144.00283 20.401258 144.735849 19.628616T145.468868 17.667296Q145.468868 16.08239 144.399057 14.972956T141.684906 13.348428T138.336792 12.833333Q135.365094 12.833333 133.20566 14.299371T131.046226 18.77673Q131.046226 20.955975 132.234906 22.738994T135.067925 25.770126T139.366981 28.722013Q141.466981 30.02956 142.49717 30.822013V31.020126H131.878302Q130.887736 31.020126 130.432075 31.23805T129.976415 32.406918Q129.976415 33.833333 131.363208 33.833333H144.636792Q146.023585 33.833333 146.023585 32.406918Z" fill="#010101" />
<path d="M137.672344 48.940403C137.606151 49.628813 137.440667 50.237789 137.175895 50.767335C136.911123 51.296881 136.633111 51.700659 136.341861 51.97867S135.683238 52.494977 135.239744 52.693557C134.79625 52.892136 134.455355 53.021213 134.217059 53.080787S133.687513 53.196625 133.343309 53.24958C133.290354 53.262818 133.250638 53.269438 133.224161 53.269438V53.666597H142.775839V53.269438C141.650554 53.070858 140.796662 52.779607 140.214162 52.395687C139.102117 51.654324 138.473281 50.502563 138.327656 48.940403C139.016066 49.999493 139.903054 50.529039 140.988623 50.529039C141.69027 50.529039 142.289319 50.284125 142.785768 49.794295S143.530441 48.708726 143.530441 48.007079C143.530441 47.41134 143.384816 46.868557 143.093566 46.378726C142.802315 45.888896 142.425014 45.442092 141.961663 45.038314S141.02172 44.214209 140.53189 43.777334C140.042059 43.340459 139.55885 42.767888 139.082259 42.059621S138.241606 40.553726 137.990071 39.666737C137.765015 40.540487 137.417501 41.328186 136.947528 42.029834S135.994346 43.300743 135.497897 43.737618S134.521547 44.598129 134.058195 45.008527S133.214232 45.869038 132.916363 46.358868S132.469559 47.398101 132.469559 48.007079C132.469559 48.708726 132.717783 49.304465 133.214232 49.794295S134.30973 50.529039 135.011377 50.529039C136.096946 50.529039 136.983934 49.999493 137.672344 48.940403Z" fill="#010101" />
<path d="M3.976415 177.593082Q4.016038 178.425157 4.432075 178.940252T5.799057 180.089308Q8.929245 182.189308 10.65283 183.556289T13.763208 187.02327T15.15 191.738365Q15.15 193.640252 14.139623 194.690252T11.306604 195.740252Q9.761321 195.740252 8.750943 194.96761T7.740566 192.847799Q7.740566 192.174214 8.057547 191.718553T8.711321 190.985535T9.048113 190.668553Q9.048113 190.391195 8.513208 189.994969T7.225472 189.598742Q5.99717 189.598742 5.264151 190.371384T4.531132 192.332704Q4.531132 193.91761 5.600943 195.027044T8.315094 196.651572T11.663208 197.166667Q14.634906 197.166667 16.79434 195.700629T18.953774 191.22327Q18.953774 189.044025 17.765094 187.261006T14.932075 184.229874T10.633019 181.277987Q8.533019 179.97044 7.50283 179.177987V178.979874H18.121698Q19.112264 178.979874 19.567925 178.76195T20.023585 177.593082Q20.023585 176.166667 18.636792 176.166667H5.363208Q3.976415 176.166667 3.976415 177.593082Z" fill="#010101" />
<path d="M12.327656 161.059597C12.393849 160.371187 12.559333 159.762211 12.824105 159.232665C13.088877 158.703119 13.366889 158.299341 13.658139 158.02133S14.316762 157.505023 14.760256 157.306443C15.20375 157.107864 15.544645 156.978787 15.782941 156.919213S16.312487 156.803375 16.656691 156.75042C16.709646 156.737182 16.749362 156.730562 16.775839 156.730562V156.333403H7.224161V156.730562C8.349446 156.929142 9.203338 157.220393 9.785838 157.604313C10.897883 158.345676 11.526719 159.497437 11.672344 161.059597C10.983934 160.000507 10.096946 159.470961 9.011377 159.470961C8.30973 159.470961 7.710681 159.715875 7.214232 160.205705S6.469559 161.291274 6.469559 161.992921C6.469559 162.58866 6.615184 163.131443 6.906434 163.621274C7.197685 164.111104 7.574986 164.557908 8.038337 164.961686S8.97828 165.785791 9.46811 166.222666C9.957941 166.659541 10.44115 167.232112 10.917741 167.940379S11.758394 169.446274 12.009929 170.333263C12.234985 169.459513 12.582499 168.671814 13.052472 167.970166S14.005654 166.699257 14.502103 166.262382S15.478453 165.401871 15.941805 164.991473S16.785768 164.130962 17.083637 163.641132S17.530441 162.601899 17.530441 161.992921C17.530441 161.291274 17.282217 160.695535 16.785768 160.205705S15.69027 159.470961 14.988623 159.470961C13.903054 159.470961 13.016066 160.000507 12.327656 161.059597Z" fill="#010101" />
</svg>
