<svg width="150.000000" height="210.000000" id="card-webspade12">
<radialGradient id="card-webwhitegradient" cx="75.0" cy="105.0" r="150" gradientTransform="matrix(1 0 0 1 0 -.25)" gradientUnits="userSpaceOnUse">
<stop stop-color="#FDFAF4" offset=".15"/>
<stop stop-color="#FDF9F2" offset=".35"/>
<stop stop-color="#FCF7F1" offset=".5"/>
<stop stop-color="#FDFDF8" offset=".75"/>
<stop stop-color="#FFFDFA" offset="1"/>
</radialGradient>
<rect x="0" y="0" rx="7.5" ry="7.5" width="150" height="210.0" stroke="#010101" fill="url(#card-webwhitegradient)" />
<rect x="30.0" y="21.0" width="90.0" height="168.0" stroke="#010101" fill="#fffdfa" />
<path d="M74.914894 83.076454C78.489362 83.076454 81.737591 83.331773 84.659574 83.842411C87.581557 84.35305 89.042553 85.005535 89.042553 85.799858C89.042553 86.707662 88.390071 87.16156 87.085106 87.16156C86.858156 87.16156 85.113472 87.048085 81.851064 86.821135S76.24823 86.480709 74.829787 86.480709C73.354613 86.480709 71.028366 86.594184 67.851064 86.821135C64.673762 87.048085 63.0 87.16156 62.829787 87.16156C61.524826 87.16156 60.87234 86.70766 60.87234 85.799858C60.87234 83.984258 65.553191 83.076454 74.914894 83.076454ZM99.680851 50.22539C100.248227 50.22539 100.744681 50.423971 101.170213 50.821135C101.595745 51.218298 101.808511 51.728939 101.808511 52.35305S101.595745 53.487799 101.170213 53.884965S100.24823 54.480709 99.680851 54.480709C98.319149 54.480709 97.638298 53.77149 97.638298 52.35305C97.638298 50.934607 98.319149 50.22539 99.680851 50.22539ZM88.531915 44.863688C90.007089 44.863688 90.744681 45.572908 90.744681 46.991348S90.007092 49.119007 88.531915 49.119007C87.170213 49.119007 86.489362 48.409788 86.489362 46.991348S87.170213 44.863688 88.531915 44.863688ZM61.382979 44.863688C61.950355 44.863688 62.432621 45.076454 62.829787 45.501986S63.425532 46.423969 63.425532 46.991348C63.425532 48.40979 62.744681 49.119007 61.382979 49.119007C59.964536 49.119007 59.255319 48.409788 59.255319 46.991348S59.964539 44.863688 61.382979 44.863688ZM50.319149 50.22539C51.680851 50.22539 52.361702 50.93461 52.361702 52.35305C52.361702 53.771492 51.680851 54.480709 50.319149 54.480709C48.900706 54.480709 48.191489 53.77149 48.191489 52.35305C48.191489 51.728936 48.404255 51.218301 48.829787 50.821135C49.255319 50.423971 49.75177 50.22539 50.319149 50.22539ZM58.829787 82.650922C58.829787 82.991348 58.432624 84.083543 57.638298 85.927518S56.446809 89.431067 56.446809 90.906241C56.446809 92.267943 58.390068 93.246667 62.276596 93.842411C66.163123 94.438156 70.404255 94.736028 75.0 94.736028C80.219855 94.736028 84.602809 94.381418 88.148936 93.672199C91.695038 92.962979 93.468085 92.04099 93.468085 90.906241C93.468085 89.374326 93.085106 87.700565 92.319149 85.884965S91.170213 82.991348 91.170213 82.650922C91.170213 81.686386 92.234043 79.970071 94.361702 77.501986S97.553191 73.516173 97.553191 72.948794C97.553191 72.608369 97.765957 71.728939 98.191489 70.310496S99.085106 67.019713 99.595745 64.693475S100.446809 59.984258 100.617021 57.544539C103.226953 56.466522 104.531915 54.736028 104.531915 52.35305C104.531915 50.991348 104.06383 49.856599 103.12766 48.948794S101.042553 47.587092 99.680851 47.587092C98.432621 47.587092 97.326238 48.055177 96.361702 48.991348S94.914894 51.048088 94.914894 52.35305C94.914894 52.409787 94.985816 52.93461 95.12766 53.927518S95.340426 55.47362 95.340426 55.587092C95.340426 58.140284 93.524826 61.260854 89.893617 64.948794C89.609929 62.622556 89.468085 60.182837 89.468085 57.629645C89.468085 55.530352 89.666666 53.884965 90.06383 52.693475S90.914894 50.764394 91.425532 50.480709S92.390068 49.77149 92.787234 49.204113S93.382979 47.842411 93.382979 46.821135C93.382979 45.459433 92.914894 44.324684 91.978723 43.416879S89.893617 42.055177 88.531915 42.055177C87.226953 42.055177 86.106383 42.523262 85.170213 43.459433S83.765957 45.516173 83.765957 46.821135C83.765957 46.93461 83.865249 47.530354 84.06383 48.608369S84.361702 50.310496 84.361702 50.480709C84.361702 53.658011 82.801421 58.509075 79.680851 65.033901C78.489362 59.700565 77.893617 55.615433 77.893617 52.778582C77.893617 50.736028 78.191489 48.877875 78.787234 47.204113S79.680851 44.636735 79.680851 44.523262C79.680851 43.16156 79.212766 42.026811 78.276596 41.119007S76.219855 39.757305 74.914894 39.757305S72.517728 40.22539 71.638298 41.16156S70.319149 43.218301 70.319149 44.523262C70.319149 44.80695 70.617021 45.743118 71.212766 47.331773S72.106383 50.736028 72.106383 52.778582C72.106383 55.615458 71.510638 59.700565 70.319149 65.033901C67.255319 58.565816 65.723404 53.714752 65.723404 50.480709C65.723404 50.253759 65.808511 49.658014 65.978723 48.693475S66.234043 47.10482 66.234043 46.821135C66.234043 45.459433 65.765957 44.324684 64.829787 43.416879S62.744681 42.055177 61.382979 42.055177C60.078017 42.055177 58.957447 42.523262 58.021277 43.459433S56.617021 45.516173 56.617021 46.821135C56.617021 47.672199 56.744681 48.338862 57.0 48.821135S57.58156 49.714752 57.978723 50.055177S58.773049 50.80695 59.170213 51.28922C59.567376 51.77149 59.893617 52.551628 60.148936 53.629645S60.531915 56.069365 60.531915 57.714752C60.531915 60.211203 60.390071 62.622556 60.106383 64.948794C56.475174 61.260854 54.659574 58.140284 54.659574 55.587092C54.659574 54.28213 54.801419 53.204113 55.085106 52.35305C55.085106 51.048088 54.617021 49.927518 53.680851 48.991348S51.624111 47.587092 50.319149 47.587092C48.957447 47.587092 47.808511 48.055177 46.87234 48.991348S45.468085 51.048088 45.468085 52.35305C45.468085 54.622556 46.773047 56.35305 49.382979 57.544539C49.723404 61.119007 50.319149 64.423969 51.170213 67.459433S52.446809 72.324684 52.446809 72.948794C52.446809 73.459433 53.510638 74.962982 55.638298 77.459433S58.829787 81.686386 58.829787 82.650922ZM74.914894 42.22539C75.539007 42.22539 76.049643 42.423971 76.446809 42.821135S77.042553 43.728939 77.042553 44.35305S76.843972 45.487799 76.446809 45.884965S75.539004 46.480709 74.914894 46.480709C73.553191 46.480709 72.87234 45.77149 72.87234 44.35305C72.87234 43.785673 73.070922 43.28922 73.468085 42.863688S74.347515 42.22539 74.914894 42.22539ZM59.595745 75.416879C59.595745 74.452343 61.283685 73.757305 64.659574 73.331773C68.035464 72.906241 71.453898 72.693475 74.914894 72.693475C78.205677 72.693475 81.595745 72.920426 85.085106 73.374326S90.319149 74.53745 90.319149 75.501986C90.319149 76.296312 89.58156 76.693475 88.106383 76.693475C86.858153 76.693475 84.758868 76.594184 81.808511 76.395603S76.531915 76.09773 74.829787 76.09773C73.070919 76.09773 70.475174 76.197022 67.042553 76.395603C63.609932 76.594184 61.808511 76.693475 61.638298 76.693475C60.276596 76.693475 59.595745 76.267943 59.595745 75.416879Z" fill="#010101" />
<path d="M75.085106 126.923546C71.510638 126.923546 68.262409 126.668227 65.340426 126.157589C62.418443 125.64695 60.957447 124.994465 60.957447 124.200142C60.957447 123.292338 61.609929 122.83844 62.914894 122.83844C63.141844 122.83844 64.886528 122.951915 68.148936 123.178865S73.75177 123.519291 75.170213 123.519291C76.645387 123.519291 78.971634 123.405816 82.148936 123.178865C85.326238 122.951915 87.0 122.83844 87.170213 122.83844C88.475174 122.83844 89.12766 123.29234 89.12766 124.200142C89.12766 126.015742 84.446809 126.923546 75.085106 126.923546ZM50.319149 159.77461C49.751773 159.77461 49.255319 159.576029 48.829787 159.178865C48.404255 158.781702 48.191489 158.271061 48.191489 157.64695S48.404255 156.512201 48.829787 156.115035S49.75177 155.519291 50.319149 155.519291C51.680851 155.519291 52.361702 156.22851 52.361702 157.64695C52.361702 159.065393 51.680851 159.77461 50.319149 159.77461ZM61.468085 165.136312C59.992911 165.136312 59.255319 164.427092 59.255319 163.008652S59.992908 160.880993 61.468085 160.880993C62.829787 160.880993 63.510638 161.590212 63.510638 163.008652S62.829787 165.136312 61.468085 165.136312ZM88.617021 165.136312C88.049645 165.136312 87.567379 164.923546 87.170213 164.498014S86.574468 163.576031 86.574468 163.008652C86.574468 161.59021 87.255319 160.880993 88.617021 160.880993C90.035464 160.880993 90.744681 161.590212 90.744681 163.008652S90.035461 165.136312 88.617021 165.136312ZM99.680851 159.77461C98.319149 159.77461 97.638298 159.06539 97.638298 157.64695C97.638298 156.228508 98.319149 155.519291 99.680851 155.519291C101.099294 155.519291 101.808511 156.22851 101.808511 157.64695C101.808511 158.271064 101.595745 158.781699 101.170213 159.178865C100.744681 159.576029 100.24823 159.77461 99.680851 159.77461ZM91.170213 127.349078C91.170213 127.008652 91.567376 125.916457 92.361702 124.072482S93.553191 120.568933 93.553191 119.093759C93.553191 117.732057 91.609932 116.753333 87.723404 116.157589C83.836877 115.561844 79.595745 115.263972 75.0 115.263972C69.780145 115.263972 65.397191 115.618582 61.851064 116.327801C58.304962 117.037021 56.531915 117.95901 56.531915 119.093759C56.531915 120.625674 56.914894 122.299435 57.680851 124.115035S58.829787 127.008652 58.829787 127.349078C58.829787 128.313614 57.765957 130.029929 55.638298 132.498014S52.446809 136.483827 52.446809 137.051206C52.446809 137.391631 52.234043 138.271061 51.808511 139.689504S50.914894 142.980287 50.404255 145.306525S49.553191 150.015742 49.382979 152.455461C46.773047 153.533478 45.468085 155.263972 45.468085 157.64695C45.468085 159.008652 45.93617 160.143401 46.87234 161.051206S48.957447 162.412908 50.319149 162.412908C51.567379 162.412908 52.673762 161.944823 53.638298 161.008652S55.085106 158.951912 55.085106 157.64695C55.085106 157.590213 55.014184 157.06539 54.87234 156.072482S54.659574 154.52638 54.659574 154.412908C54.659574 151.859716 56.475174 148.739146 60.106383 145.051206C60.390071 147.377444 60.531915 149.817163 60.531915 152.370355C60.531915 154.469648 60.333334 156.115035 59.93617 157.306525S59.085106 159.235606 58.574468 159.519291S57.609932 160.22851 57.212766 160.795887S56.617021 162.157589 56.617021 163.178865C56.617021 164.540567 57.085106 165.675316 58.021277 166.583121S60.106383 167.944823 61.468085 167.944823C62.773047 167.944823 63.893617 167.476738 64.829787 166.540567S66.234043 164.483827 66.234043 163.178865C66.234043 163.06539 66.134751 162.469646 65.93617 161.391631S65.638298 159.689504 65.638298 159.519291C65.638298 156.341989 67.198579 151.490925 70.319149 144.966099C71.510638 150.299435 72.106383 154.384567 72.106383 157.221418C72.106383 159.263972 71.808511 161.122125 71.212766 162.795887S70.319149 165.363265 70.319149 165.476738C70.319149 166.83844 70.787234 167.973189 71.723404 168.880993S73.780145 170.242695 75.085106 170.242695S77.482272 169.77461 78.361702 168.83844S79.680851 166.781699 79.680851 165.476738C79.680851 165.19305 79.382979 164.256882 78.787234 162.668227S77.893617 159.263972 77.893617 157.221418C77.893617 154.384542 78.489362 150.299435 79.680851 144.966099C82.744681 151.434184 84.276596 156.285248 84.276596 159.519291C84.276596 159.746241 84.191489 160.341986 84.021277 161.306525S83.765957 162.89518 83.765957 163.178865C83.765957 164.540567 84.234043 165.675316 85.170213 166.583121S87.255319 167.944823 88.617021 167.944823C89.921983 167.944823 91.042553 167.476738 91.978723 166.540567S93.382979 164.483827 93.382979 163.178865C93.382979 162.327801 93.255319 161.661138 93.0 161.178865S92.41844 160.285248 92.021277 159.944823S91.226951 159.19305 90.829787 158.71078C90.432624 158.22851 90.106383 157.448372 89.851064 156.370355S89.468085 153.930635 89.468085 152.285248C89.468085 149.788797 89.609929 147.377444 89.893617 145.051206C93.524826 148.739146 95.340426 151.859716 95.340426 154.412908C95.340426 155.71787 95.198581 156.795887 94.914894 157.64695C94.914894 158.951912 95.382979 160.072482 96.319149 161.008652S98.375889 162.412908 99.680851 162.412908C101.042553 162.412908 102.191489 161.944823 103.12766 161.008652S104.531915 158.951912 104.531915 157.64695C104.531915 155.377444 103.226953 153.64695 100.617021 152.455461C100.276596 148.880993 99.680851 145.576031 98.829787 142.540567S97.553191 137.675316 97.553191 137.051206C97.553191 136.540567 96.489362 135.037018 94.361702 132.540567S91.170213 128.313614 91.170213 127.349078ZM75.085106 167.77461C74.460993 167.77461 73.950357 167.576029 73.553191 167.178865S72.957447 166.271061 72.957447 165.64695S73.156028 164.512201 73.553191 164.115035S74.460996 163.519291 75.085106 163.519291C76.446809 163.519291 77.12766 164.22851 77.12766 165.64695C77.12766 166.214327 76.929078 166.71078 76.531915 167.136312S75.652485 167.77461 75.085106 167.77461ZM90.404255 134.583121C90.404255 135.547657 88.716315 136.242695 85.340426 136.668227C81.964536 137.093759 78.546102 137.306525 75.085106 137.306525C71.794323 137.306525 68.404255 137.079574 64.914894 136.625674S59.680851 135.46255 59.680851 134.498014C59.680851 133.703688 60.41844 133.306525 61.893617 133.306525C63.141847 133.306525 65.241132 133.405816 68.191489 133.604397S73.468085 133.90227 75.170213 133.90227C76.929081 133.90227 79.524826 133.802978 82.957447 133.604397C86.390068 133.405816 88.191489 133.306525 88.361702 133.306525C89.723404 133.306525 90.404255 133.732057 90.404255 134.583121Z" fill="#010101" />
<path d="M133.484136 33.561888Q134.273796 33.290443 134.86604 32.883275T136.396005 31.735801Q137.13631 31.11888 137.716216 30.699373T138.962397 29.934391Q139.752056 29.539561 140.837838 29.292793Q143.428907 28.700548 144.613396 27.787505Q146.06933 26.65237 146.871328 24.949667T147.673325 21.32217Q147.673325 18.731101 146.501175 16.806306T143.502938 13.857423T139.80141 12.833333Q137.432432 12.833333 135.606345 13.95613T132.805523 16.917352T131.830787 20.877987Q131.830787 23.641794 133.225029 25.702311T136.914219 28.675872Q137.309048 28.848609 137.925969 28.873286V28.92264Q137.259694 28.996671 136.716804 29.268116Q135.754407 29.736976 134.125734 30.921465Q132.916569 31.785155 132.176263 32.192323T130.720329 32.599491Q130.276146 32.550137 130.066392 32.315707T129.856639 31.735801Q129.856639 31.143557 130.313161 30.637681T131.485311 30.107129Q131.559342 29.712299 131.189189 29.342146T130.078731 28.971994Q129.757932 28.971994 129.350764 29.194085T128.635135 29.86036T128.326675 30.946142Q128.326675 31.686447 128.83255 32.340384T130.115746 33.401488T131.682726 33.833333Q132.694477 33.833333 133.484136 33.561888ZM137.012926 27.35566Q135.877791 26.331571 135.322562 24.628868T134.767333 20.877987Q134.767333 18.977869 135.3349 17.386212T137.049941 14.844497T139.826087 13.894438Q142.293772 13.894438 143.527615 15.979632T144.761457 21.248139Q144.761457 23.172934 144.206228 24.801606T142.540541 27.405014T139.826087 28.379749Q138.148061 28.379749 137.012926 27.35566Z" fill="#010101" />
<path d="M137.672344 48.940403C137.606151 49.628813 137.440667 50.237789 137.175895 50.767335C136.911123 51.296881 136.633111 51.700659 136.341861 51.97867S135.683238 52.494977 135.239744 52.693557C134.79625 52.892136 134.455355 53.021213 134.217059 53.080787S133.687513 53.196625 133.343309 53.24958C133.290354 53.262818 133.250638 53.269438 133.224161 53.269438V53.666597H142.775839V53.269438C141.650554 53.070858 140.796662 52.779607 140.214162 52.395687C139.102117 51.654324 138.473281 50.502563 138.327656 48.940403C139.016066 49.999493 139.903054 50.529039 140.988623 50.529039C141.69027 50.529039 142.289319 50.284125 142.785768 49.794295S143.530441 48.708726 143.530441 48.007079C143.530441 47.41134 143.384816 46.868557 143.093566 46.378726C142.802315 45.888896 142.425014 45.442092 141.961663 45.038314S141.02172 44.214209 140.53189 43.777334C140.042059 43.340459 139.55885 42.767888 139.082259 42.059621S138.241606 40.553726 137.990071 39.666737C137.765015 40.540487 137.417501 41.328186 136.947528 42.029834S135.994346 43.300743 135.497897 43.737618S134.521547 44.598129 134.058195 45.008527S133.214232 45.869038 132.916363 46.358868S132.469559 47.398101 132.469559 48.007079C132.469559 48.708726 132.717783 49.304465 133.214232 49.794295S134.30973 50.529039 135.011377 50.529039C136.096946 50.529039 136.983934 49.999493 137.672344 48.940403Z" fill="#010101" />
<path d="M16.515864 176.438112Q15.726204 176.709557 15.13396 177.116725T13.603995 178.264199Q12.86369 178.88112 12.283784 179.300627T11.037603 180.065609Q10.247944 180.460439 9.162162 180.707207Q6.571093 181.299452 5.386604 182.212495Q3.93067 183.34763 3.128672 185.050333T2.326675 188.67783Q2.326675 191.268899 3.498825 193.193694T6.497062 196.142577T10.19859 197.166667Q12.567568 197.166667 14.393655 196.04387T17.194477 193.082648T18.169213 189.122013Q18.169213 186.358206 16.774971 184.297689T13.085781 181.324128Q12.690952 181.151391 12.074031 181.126714V181.07736Q12.740306 181.003329 13.283196 180.731884Q14.245593 180.263024 15.874266 179.078535Q17.083431 178.214845 17.823737 177.807677T19.279671 177.400509Q19.723854 177.449863 19.933608 177.684293T20.143361 178.264199Q20.143361 178.856443 19.686839 179.362319T18.514689 179.892871Q18.440658 180.287701 18.810811 180.657854T19.921269 181.028006Q20.242068 181.028006 20.649236 180.805915T21.364865 180.13964T21.673325 179.053858Q21.673325 178.313553 21.16745 177.659616T19.884254 176.598512T18.317274 176.166667Q17.305523 176.166667 16.515864 176.438112ZM12.987074 182.64434Q14.122209 183.668429 14.677438 185.371132T15.232667 189.122013Q15.232667 191.022131 14.6651 192.613788T12.950059 195.155503T10.173913 196.105562Q7.706228 196.105562 6.472385 194.020368T5.238543 188.751861Q5.238543 186.827066 5.793772 185.198394T7.459459 182.594986T10.173913 181.620251Q11.851939 181.620251 12.987074 182.64434Z" fill="#010101" />
<path d="M12.327656 161.059597C12.393849 160.371187 12.559333 159.762211 12.824105 159.232665C13.088877 158.703119 13.366889 158.299341 13.658139 158.02133S14.316762 157.505023 14.760256 157.306443C15.20375 157.107864 15.544645 156.978787 15.782941 156.919213S16.312487 156.803375 16.656691 156.75042C16.709646 156.737182 16.749362 156.730562 16.775839 156.730562V156.333403H7.224161V156.730562C8.349446 156.929142 9.203338 157.220393 9.785838 157.604313C10.897883 158.345676 11.526719 159.497437 11.672344 161.059597C10.983934 160.000507 10.096946 159.470961 9.011377 159.470961C8.30973 159.470961 7.710681 159.715875 7.214232 160.205705S6.469559 161.291274 6.469559 161.992921C6.469559 162.58866 6.615184 163.131443 6.906434 163.621274C7.197685 164.111104 7.574986 164.557908 8.038337 164.961686S8.97828 165.785791 9.46811 166.222666C9.957941 166.659541 10.44115 167.232112 10.917741 167.940379S11.758394 169.446274 12.009929 170.333263C12.234985 169.459513 12.582499 168.671814 13.052472 167.970166S14.005654 166.699257 14.502103 166.262382S15.478453 165.401871 15.941805 164.991473S16.785768 164.130962 17.083637 163.641132S17.530441 162.601899 17.530441 161.992921C17.530441 161.291274 17.282217 160.695535 16.785768 160.205705S15.69027 159.470961 14.988623 159.470961C13.903054 159.470961 13.016066 160.000507 12.327656 161.059597Z" fill="#010101" />
</svg>
