<svg width="25.000000" height="35.000000" id="card-lightclub10">
<rect x="0" y="0" rx="1.25" ry="1.25" width="25" height="35.0" stroke="#010101" fill="#fffdfa" />
<path d="M7.40085 6.254721C7.396128 6.396364 7.390227 6.51086 7.383144 6.598206C7.376062 6.685552 7.358357 6.796506 7.330028 6.931067S7.267469 7.176582 7.227337 7.263928S7.127006 7.449245 7.046742 7.557838S6.872049 7.756138 6.763456 7.826959S6.517941 7.966242 6.352691 8.032342S5.998584 8.150378 5.786119 8.188149V8.329792H9.213881V8.188149C9.001416 8.150378 8.812559 8.097262 8.647309 8.028801S8.343957 7.890699 8.233003 7.819877S8.02762 7.658168 7.949717 7.547214S7.811615 7.338291 7.769122 7.253305S7.692399 7.057365 7.666431 6.920444S7.623938 6.673749 7.616856 6.591124C7.609773 6.508498 7.603872 6.396364 7.59915 6.254721C7.712465 6.462464 7.804533 6.608829 7.875354 6.693815C8.002833 6.854344 8.159821 6.981823 8.346317 7.076251C8.532814 7.17068 8.71577 7.217894 8.895184 7.217894C9.197356 7.217894 9.457035 7.10576 9.674221 6.881492S10.0 6.386922 10.0 6.070585C10.0 5.763692 9.90203 5.501653 9.706091 5.284466S9.272899 4.958687 8.994334 4.958687C8.899906 4.958687 8.812559 4.971671 8.732295 4.997639S8.571766 5.056657 8.491501 5.096789L8.342776 5.171152C8.526912 4.906752 8.61898 4.656515 8.61898 4.420444C8.61898 4.122993 8.509207 3.868036 8.28966 3.655571S7.806893 3.336874 7.5 3.336874S6.929887 3.443107 6.71034 3.655571S6.38102 4.122993 6.38102 4.420444C6.38102 4.656515 6.473088 4.906752 6.657224 5.171152C6.624174 5.156988 6.57814 5.135741 6.519122 5.107413S6.416431 5.057838 6.388102 5.043673S6.323182 5.015345 6.278329 5.00118S6.189802 4.976393 6.147309 4.969311S6.057601 4.958687 6.005666 4.958687C5.727101 4.958687 5.489849 5.06728 5.293909 5.284466S5.0 5.763692 5.0 6.070585C5.0 6.386922 5.108593 6.657224 5.325779 6.881492S5.802644 7.217894 6.104816 7.217894C6.624174 7.217894 7.056183 6.896837 7.40085 6.254721Z" fill="#010101" />
<path d="M7.59915 28.745279C7.603872 28.603636 7.609773 28.48914 7.616856 28.401794C7.623938 28.314448 7.641643 28.203494 7.669972 28.068933S7.732531 27.823418 7.772663 27.736072S7.872994 27.550755 7.953258 27.442162S8.127951 27.243862 8.236544 27.173041S8.482059 27.033758 8.647309 26.967658S9.001416 26.849622 9.213881 26.811851V26.670208H5.786119V26.811851C5.998584 26.849622 6.187441 26.902738 6.352691 26.971199S6.656043 27.109301 6.766997 27.180123S6.97238 27.341832 7.050283 27.452786S7.188385 27.661709 7.230878 27.746695S7.307601 27.942635 7.333569 28.079556S7.376062 28.326251 7.383144 28.408876C7.390227 28.491502 7.396128 28.603636 7.40085 28.745279C7.287535 28.537536 7.195467 28.391171 7.124646 28.306185C6.997167 28.145656 6.840179 28.018177 6.653683 27.923749C6.467186 27.82932 6.28423 27.782106 6.104816 27.782106C5.802644 27.782106 5.542965 27.89424 5.325779 28.118508S5.0 28.613078 5.0 28.929415C5.0 29.236308 5.09797 29.498347 5.293909 29.715534S5.727101 30.041313 6.005666 30.041313C6.100094 30.041313 6.187441 30.028329 6.267705 30.002361S6.428234 29.943343 6.508499 29.903211L6.657224 29.828848C6.473088 30.093248 6.38102 30.343485 6.38102 30.579556C6.38102 30.877007 6.490793 31.131964 6.71034 31.344429S7.193107 31.663126 7.5 31.663126S8.070113 31.556893 8.28966 31.344429S8.61898 30.877007 8.61898 30.579556C8.61898 30.343485 8.526912 30.093248 8.342776 29.828848C8.375826 29.843012 8.42186 29.864259 8.480878 29.892587S8.583569 29.942162 8.611898 29.956327S8.676818 29.984655 8.721671 29.99882S8.810198 30.023607 8.852691 30.030689S8.942399 30.041313 8.994334 30.041313C9.272899 30.041313 9.510151 29.93272 9.706091 29.715534S10.0 29.236308 10.0 28.929415C10.0 28.613078 9.891407 28.342776 9.674221 28.118508S9.197356 27.782106 8.895184 27.782106C8.375826 27.782106 7.943817 28.103163 7.59915 28.745279Z" fill="#010101" />
<path d="M7.40085 14.032499C7.396128 14.174142 7.390227 14.288637 7.383144 14.375984C7.376062 14.46333 7.358357 14.574284 7.330028 14.708845S7.267469 14.95436 7.227337 15.041706S7.127006 15.227023 7.046742 15.335615S6.872049 15.533916 6.763456 15.604737S6.517941 15.74402 6.352691 15.81012S5.998584 15.928156 5.786119 15.965927V16.10757H9.213881V15.965927C9.001416 15.928156 8.812559 15.87504 8.647309 15.806579S8.343957 15.668477 8.233003 15.597655S8.02762 15.435946 7.949717 15.324992S7.811615 15.116069 7.769122 15.031083S7.692399 14.835143 7.666431 14.698222S7.623938 14.451527 7.616856 14.368901C7.609773 14.286276 7.603872 14.174142 7.59915 14.032499C7.712465 14.240242 7.804533 14.386607 7.875354 14.471593C8.002833 14.632122 8.159821 14.7596 8.346317 14.854029C8.532814 14.948457 8.71577 14.995672 8.895184 14.995672C9.197356 14.995672 9.457035 14.883538 9.674221 14.65927S10.0 14.1647 10.0 13.848363C10.0 13.54147 9.90203 13.279431 9.706091 13.062244S9.272899 12.736465 8.994334 12.736465C8.899906 12.736465 8.812559 12.749449 8.732295 12.775417S8.571766 12.834435 8.491501 12.874567L8.342776 12.94893C8.526912 12.68453 8.61898 12.434293 8.61898 12.198222C8.61898 11.900771 8.509207 11.645814 8.28966 11.433349S7.806893 11.114652 7.5 11.114652S6.929887 11.220884 6.71034 11.433349S6.38102 11.900771 6.38102 12.198222C6.38102 12.434293 6.473088 12.68453 6.657224 12.94893C6.624174 12.934766 6.57814 12.913519 6.519122 12.88519S6.416431 12.835615 6.388102 12.821451S6.323182 12.793122 6.278329 12.778958S6.189802 12.754171 6.147309 12.747088S6.057601 12.736465 6.005666 12.736465C5.727101 12.736465 5.489849 12.845058 5.293909 13.062244S5.0 13.54147 5.0 13.848363C5.0 14.1647 5.108593 14.435001 5.325779 14.65927S5.802644 14.995672 6.104816 14.995672C6.624174 14.995672 7.056183 14.674615 7.40085 14.032499Z" fill="#010101" />
<path d="M7.59915 20.967501C7.603872 20.825858 7.609773 20.711363 7.616856 20.624016C7.623938 20.53667 7.641643 20.425716 7.669972 20.291155S7.732531 20.04564 7.772663 19.958294S7.872994 19.772977 7.953258 19.664385S8.127951 19.466084 8.236544 19.395263S8.482059 19.25598 8.647309 19.18988S9.001416 19.071844 9.213881 19.034073V18.89243H5.786119V19.034073C5.998584 19.071844 6.187441 19.12496 6.352691 19.193421S6.656043 19.331523 6.766997 19.402345S6.97238 19.564054 7.050283 19.675008S7.188385 19.883931 7.230878 19.968917S7.307601 20.164857 7.333569 20.301778S7.376062 20.548473 7.383144 20.631099C7.390227 20.713724 7.396128 20.825858 7.40085 20.967501C7.287535 20.759758 7.195467 20.613393 7.124646 20.528407C6.997167 20.367878 6.840179 20.2404 6.653683 20.145971C6.467186 20.051543 6.28423 20.004328 6.104816 20.004328C5.802644 20.004328 5.542965 20.116462 5.325779 20.34073S5.0 20.8353 5.0 21.151637C5.0 21.45853 5.09797 21.720569 5.293909 21.937756S5.727101 22.263535 6.005666 22.263535C6.100094 22.263535 6.187441 22.250551 6.267705 22.224583S6.428234 22.165565 6.508499 22.125433L6.657224 22.05107C6.473088 22.31547 6.38102 22.565707 6.38102 22.801778C6.38102 23.099229 6.490793 23.354186 6.71034 23.566651S7.193107 23.885348 7.5 23.885348S8.070113 23.779116 8.28966 23.566651S8.61898 23.099229 8.61898 22.801778C8.61898 22.565707 8.526912 22.31547 8.342776 22.05107C8.375826 22.065234 8.42186 22.086481 8.480878 22.11481S8.583569 22.164385 8.611898 22.178549S8.676818 22.206878 8.721671 22.221042S8.810198 22.245829 8.852691 22.252912S8.942399 22.263535 8.994334 22.263535C9.272899 22.263535 9.510151 22.154942 9.706091 21.937756S10.0 21.45853 10.0 21.151637C10.0 20.8353 9.891407 20.564999 9.674221 20.34073S9.197356 20.004328 8.895184 20.004328C8.375826 20.004328 7.943817 20.325385 7.59915 20.967501Z" fill="#010101" />
<path d="M17.40085 6.254721C17.396128 6.396364 17.390227 6.51086 17.383144 6.598206C17.376062 6.685552 17.358357 6.796506 17.330028 6.931067S17.267469 7.176582 17.227337 7.263928S17.127006 7.449245 17.046742 7.557838S16.872049 7.756138 16.763456 7.826959S16.517941 7.966242 16.352691 8.032342S15.998584 8.150378 15.786119 8.188149V8.329792H19.213881V8.188149C19.001416 8.150378 18.812559 8.097262 18.647309 8.028801S18.343957 7.890699 18.233003 7.819877S18.02762 7.658168 17.949717 7.547214S17.811615 7.338291 17.769122 7.253305S17.692399 7.057365 17.666431 6.920444S17.623938 6.673749 17.616856 6.591124C17.609773 6.508498 17.603872 6.396364 17.59915 6.254721C17.712465 6.462464 17.804533 6.608829 17.875354 6.693815C18.002833 6.854344 18.159821 6.981823 18.346317 7.076251C18.532814 7.17068 18.71577 7.217894 18.895184 7.217894C19.197356 7.217894 19.457035 7.10576 19.674221 6.881492S20.0 6.386922 20.0 6.070585C20.0 5.763692 19.90203 5.501653 19.706091 5.284466S19.272899 4.958687 18.994334 4.958687C18.899906 4.958687 18.812559 4.971671 18.732295 4.997639S18.571766 5.056657 18.491501 5.096789L18.342776 5.171152C18.526912 4.906752 18.61898 4.656515 18.61898 4.420444C18.61898 4.122993 18.509207 3.868036 18.28966 3.655571S17.806893 3.336874 17.5 3.336874S16.929887 3.443107 16.71034 3.655571S16.38102 4.122993 16.38102 4.420444C16.38102 4.656515 16.473088 4.906752 16.657224 5.171152C16.624174 5.156988 16.57814 5.135741 16.519122 5.107413S16.416431 5.057838 16.388102 5.043673S16.323182 5.015345 16.278329 5.00118S16.189802 4.976393 16.147309 4.969311S16.057601 4.958687 16.005666 4.958687C15.727101 4.958687 15.489849 5.06728 15.293909 5.284466S15.0 5.763692 15.0 6.070585C15.0 6.386922 15.108593 6.657224 15.325779 6.881492S15.802644 7.217894 16.104816 7.217894C16.624174 7.217894 17.056183 6.896837 17.40085 6.254721Z" fill="#010101" />
<path d="M17.59915 28.745279C17.603872 28.603636 17.609773 28.48914 17.616856 28.401794C17.623938 28.314448 17.641643 28.203494 17.669972 28.068933S17.732531 27.823418 17.772663 27.736072S17.872994 27.550755 17.953258 27.442162S18.127951 27.243862 18.236544 27.173041S18.482059 27.033758 18.647309 26.967658S19.001416 26.849622 19.213881 26.811851V26.670208H15.786119V26.811851C15.998584 26.849622 16.187441 26.902738 16.352691 26.971199S16.656043 27.109301 16.766997 27.180123S16.97238 27.341832 17.050283 27.452786S17.188385 27.661709 17.230878 27.746695S17.307601 27.942635 17.333569 28.079556S17.376062 28.326251 17.383144 28.408876C17.390227 28.491502 17.396128 28.603636 17.40085 28.745279C17.287535 28.537536 17.195467 28.391171 17.124646 28.306185C16.997167 28.145656 16.840179 28.018177 16.653683 27.923749C16.467186 27.82932 16.28423 27.782106 16.104816 27.782106C15.802644 27.782106 15.542965 27.89424 15.325779 28.118508S15.0 28.613078 15.0 28.929415C15.0 29.236308 15.09797 29.498347 15.293909 29.715534S15.727101 30.041313 16.005666 30.041313C16.100094 30.041313 16.187441 30.028329 16.267705 30.002361S16.428234 29.943343 16.508499 29.903211L16.657224 29.828848C16.473088 30.093248 16.38102 30.343485 16.38102 30.579556C16.38102 30.877007 16.490793 31.131964 16.71034 31.344429S17.193107 31.663126 17.5 31.663126S18.070113 31.556893 18.28966 31.344429S18.61898 30.877007 18.61898 30.579556C18.61898 30.343485 18.526912 30.093248 18.342776 29.828848C18.375826 29.843012 18.42186 29.864259 18.480878 29.892587S18.583569 29.942162 18.611898 29.956327S18.676818 29.984655 18.721671 29.99882S18.810198 30.023607 18.852691 30.030689S18.942399 30.041313 18.994334 30.041313C19.272899 30.041313 19.510151 29.93272 19.706091 29.715534S20.0 29.236308 20.0 28.929415C20.0 28.613078 19.891407 28.342776 19.674221 28.118508S19.197356 27.782106 18.895184 27.782106C18.375826 27.782106 17.943817 28.103163 17.59915 28.745279Z" fill="#010101" />
<path d="M17.40085 14.032499C17.396128 14.174142 17.390227 14.288637 17.383144 14.375984C17.376062 14.46333 17.358357 14.574284 17.330028 14.708845S17.267469 14.95436 17.227337 15.041706S17.127006 15.227023 17.046742 15.335615S16.872049 15.533916 16.763456 15.604737S16.517941 15.74402 16.352691 15.81012S15.998584 15.928156 15.786119 15.965927V16.10757H19.213881V15.965927C19.001416 15.928156 18.812559 15.87504 18.647309 15.806579S18.343957 15.668477 18.233003 15.597655S18.02762 15.435946 17.949717 15.324992S17.811615 15.116069 17.769122 15.031083S17.692399 14.835143 17.666431 14.698222S17.623938 14.451527 17.616856 14.368901C17.609773 14.286276 17.603872 14.174142 17.59915 14.032499C17.712465 14.240242 17.804533 14.386607 17.875354 14.471593C18.002833 14.632122 18.159821 14.7596 18.346317 14.854029C18.532814 14.948457 18.71577 14.995672 18.895184 14.995672C19.197356 14.995672 19.457035 14.883538 19.674221 14.65927S20.0 14.1647 20.0 13.848363C20.0 13.54147 19.90203 13.279431 19.706091 13.062244S19.272899 12.736465 18.994334 12.736465C18.899906 12.736465 18.812559 12.749449 18.732295 12.775417S18.571766 12.834435 18.491501 12.874567L18.342776 12.94893C18.526912 12.68453 18.61898 12.434293 18.61898 12.198222C18.61898 11.900771 18.509207 11.645814 18.28966 11.433349S17.806893 11.114652 17.5 11.114652S16.929887 11.220884 16.71034 11.433349S16.38102 11.900771 16.38102 12.198222C16.38102 12.434293 16.473088 12.68453 16.657224 12.94893C16.624174 12.934766 16.57814 12.913519 16.519122 12.88519S16.416431 12.835615 16.388102 12.821451S16.323182 12.793122 16.278329 12.778958S16.189802 12.754171 16.147309 12.747088S16.057601 12.736465 16.005666 12.736465C15.727101 12.736465 15.489849 12.845058 15.293909 13.062244S15.0 13.54147 15.0 13.848363C15.0 14.1647 15.108593 14.435001 15.325779 14.65927S15.802644 14.995672 16.104816 14.995672C16.624174 14.995672 17.056183 14.674615 17.40085 14.032499Z" fill="#010101" />
<path d="M17.59915 20.967501C17.603872 20.825858 17.609773 20.711363 17.616856 20.624016C17.623938 20.53667 17.641643 20.425716 17.669972 20.291155S17.732531 20.04564 17.772663 19.958294S17.872994 19.772977 17.953258 19.664385S18.127951 19.466084 18.236544 19.395263S18.482059 19.25598 18.647309 19.18988S19.001416 19.071844 19.213881 19.034073V18.89243H15.786119V19.034073C15.998584 19.071844 16.187441 19.12496 16.352691 19.193421S16.656043 19.331523 16.766997 19.402345S16.97238 19.564054 17.050283 19.675008S17.188385 19.883931 17.230878 19.968917S17.307601 20.164857 17.333569 20.301778S17.376062 20.548473 17.383144 20.631099C17.390227 20.713724 17.396128 20.825858 17.40085 20.967501C17.287535 20.759758 17.195467 20.613393 17.124646 20.528407C16.997167 20.367878 16.840179 20.2404 16.653683 20.145971C16.467186 20.051543 16.28423 20.004328 16.104816 20.004328C15.802644 20.004328 15.542965 20.116462 15.325779 20.34073S15.0 20.8353 15.0 21.151637C15.0 21.45853 15.09797 21.720569 15.293909 21.937756S15.727101 22.263535 16.005666 22.263535C16.100094 22.263535 16.187441 22.250551 16.267705 22.224583S16.428234 22.165565 16.508499 22.125433L16.657224 22.05107C16.473088 22.31547 16.38102 22.565707 16.38102 22.801778C16.38102 23.099229 16.490793 23.354186 16.71034 23.566651S17.193107 23.885348 17.5 23.885348S18.070113 23.779116 18.28966 23.566651S18.61898 23.099229 18.61898 22.801778C18.61898 22.565707 18.526912 22.31547 18.342776 22.05107C18.375826 22.065234 18.42186 22.086481 18.480878 22.11481S18.583569 22.164385 18.611898 22.178549S18.676818 22.206878 18.721671 22.221042S18.810198 22.245829 18.852691 22.252912S18.942399 22.263535 18.994334 22.263535C19.272899 22.263535 19.510151 22.154942 19.706091 21.937756S20.0 21.45853 20.0 21.151637C20.0 20.8353 19.891407 20.564999 19.674221 20.34073S19.197356 20.004328 18.895184 20.004328C18.375826 20.004328 17.943817 20.325385 17.59915 20.967501Z" fill="#010101" />
<path d="M12.40085 10.14361C12.396128 10.285253 12.390227 10.399748 12.383144 10.487095C12.376062 10.574441 12.358357 10.685395 12.330028 10.819956S12.267469 11.065471 12.227337 11.152817S12.127006 11.338134 12.046742 11.446726S11.872049 11.645027 11.763456 11.715848S11.517941 11.855131 11.352691 11.921231S10.998584 12.039267 10.786119 12.077038V12.218681H14.213881V12.077038C14.001416 12.039267 13.812559 11.986151 13.647309 11.91769S13.343957 11.779588 13.233003 11.708766S13.02762 11.547057 12.949717 11.436103S12.811615 11.22718 12.769122 11.142194S12.692399 10.946254 12.666431 10.809333S12.623938 10.562638 12.616856 10.480013C12.609773 10.397387 12.603872 10.285253 12.59915 10.14361C12.712465 10.351353 12.804533 10.497718 12.875354 10.582704C13.002833 10.743233 13.159821 10.870712 13.346317 10.96514C13.532814 11.059569 13.71577 11.106783 13.895184 11.106783C14.197356 11.106783 14.457035 10.994649 14.674221 10.770381S15.0 10.275811 15.0 9.959474C15.0 9.652581 14.90203 9.390542 14.706091 9.173355S14.272899 8.847576 13.994334 8.847576C13.899906 8.847576 13.812559 8.86056 13.732295 8.886528S13.571766 8.945546 13.491501 8.985678L13.342776 9.060041C13.526912 8.795641 13.61898 8.545404 13.61898 8.309333C13.61898 8.011882 13.509207 7.756925 13.28966 7.54446S12.806893 7.225763 12.5 7.225763S11.929887 7.331996 11.71034 7.54446S11.38102 8.011882 11.38102 8.309333C11.38102 8.545404 11.473088 8.795641 11.657224 9.060041C11.624174 9.045877 11.57814 9.02463 11.519122 8.996302S11.416431 8.946726 11.388102 8.932562S11.323182 8.904234 11.278329 8.890069S11.189802 8.865282 11.147309 8.8582S11.057601 8.847576 11.005666 8.847576C10.727101 8.847576 10.489849 8.956169 10.293909 9.173355S10.0 9.652581 10.0 9.959474C10.0 10.275811 10.108593 10.546112 10.325779 10.770381S10.802644 11.106783 11.104816 11.106783C11.624174 11.106783 12.056183 10.785726 12.40085 10.14361Z" fill="#010101" />
<path d="M12.40085 25.699166C12.396128 25.840809 12.390227 25.955304 12.383144 26.04265C12.376062 26.129997 12.358357 26.240951 12.330028 26.375511S12.267469 26.621026 12.227337 26.708373S12.127006 26.893689 12.046742 27.002282S11.872049 27.200582 11.763456 27.271404S11.517941 27.410686 11.352691 27.476786S10.998584 27.594822 10.786119 27.632594V27.774237H14.213881V27.632594C14.001416 27.594822 13.812559 27.541706 13.647309 27.473245S13.343957 27.335143 13.233003 27.264322S13.02762 27.102613 12.949717 26.991659S12.811615 26.782735 12.769122 26.697749S12.692399 26.50181 12.666431 26.364888S12.623938 26.118194 12.616856 26.035568C12.609773 25.952943 12.603872 25.840809 12.59915 25.699166C12.712465 25.906909 12.804533 26.053274 12.875354 26.138259C13.002833 26.298788 13.159821 26.426267 13.346317 26.520696C13.532814 26.615124 13.71577 26.662339 13.895184 26.662339C14.197356 26.662339 14.457035 26.550205 14.674221 26.325936S15.0 25.831366 15.0 25.51503C15.0 25.208137 14.90203 24.946097 14.706091 24.728911S14.272899 24.403132 13.994334 24.403132C13.899906 24.403132 13.812559 24.416116 13.732295 24.442084S13.571766 24.501102 13.491501 24.541234L13.342776 24.615596C13.526912 24.351196 13.61898 24.10096 13.61898 23.864888C13.61898 23.567438 13.509207 23.31248 13.28966 23.100016S12.806893 22.781319 12.5 22.781319S11.929887 22.887551 11.71034 23.100016S11.38102 23.567438 11.38102 23.864888C11.38102 24.10096 11.473088 24.351196 11.657224 24.615596C11.624174 24.601432 11.57814 24.580186 11.519122 24.551857S11.416431 24.502282 11.388102 24.488118S11.323182 24.459789 11.278329 24.445625S11.189802 24.420837 11.147309 24.413755S11.057601 24.403132 11.005666 24.403132C10.727101 24.403132 10.489849 24.511725 10.293909 24.728911S10.0 25.208137 10.0 25.51503C10.0 25.831366 10.108593 26.101668 10.325779 26.325936S10.802644 26.662339 11.104816 26.662339C11.624174 26.662339 12.056183 26.341281 12.40085 25.699166Z" fill="#010101" />
<path d="M24.725597 5.44798Q24.721355 5.371616 24.706506 5.346162T24.657719 5.320707Q24.420146 5.320707 24.32045 5.292071T24.171966 5.142525T24.123179 4.735253V3.411616Q24.118936 3.112525 24.14227 2.982071T24.224996 2.813434T24.420146 2.775253H24.628022Q24.704385 2.775253 24.704385 2.622525Q24.700143 2.527071 24.678931 2.504798T24.625901 2.482525H24.581356Q24.403176 2.482525 24.233481 2.396616T23.864394 2.189798Q23.838939 2.177071 23.82197 2.177071Q23.754092 2.177071 23.754092 2.323434V4.735253Q23.754092 5.015253 23.709547 5.136162T23.569548 5.288889T23.261975 5.320707H23.219552Q23.185612 5.320707 23.170764 5.346162T23.151673 5.44798Q23.151673 5.600707 23.228036 5.600707Q23.533488 5.581616 23.940756 5.581616Q24.343783 5.581616 24.649234 5.600707Q24.725597 5.600707 24.725597 5.44798ZM22.841963 5.397071Q23.06893 5.155253 23.181354 4.754343T23.293777 3.882525Q23.293777 3.405253 23.181354 3.010707T22.841963 2.377525T22.28409 2.138889Q21.970154 2.138889 21.741065 2.380707T21.39319 3.023434T21.274403 3.882525T21.39319 4.741616T21.741065 5.390707T22.28409 5.638889Q22.614996 5.638889 22.841963 5.397071ZM21.83864 5.008889Q21.681672 4.614343 21.681672 3.882525T21.83864 2.762525T22.279847 2.374343Q22.572572 2.374343 22.72954 2.759343T22.886508 3.882525T22.72954 5.012071T22.279847 5.403434Q21.995608 5.403434 21.83864 5.008889Z" fill="#010101" />
<path d="M22.95373 7.974424C22.951527 8.040523 22.948773 8.093954 22.945468 8.134715C22.942163 8.175476 22.933901 8.227254 22.920681 8.290048S22.891487 8.404621 22.872759 8.445382S22.825938 8.531862 22.788482 8.582538S22.706959 8.675078 22.656283 8.708127S22.54171 8.773125 22.464595 8.803971S22.299346 8.859054 22.200197 8.876681V8.94278H23.799803V8.876681C23.700654 8.859054 23.612521 8.834267 23.535405 8.802319S23.393843 8.737872 23.342065 8.704822S23.24622 8.629359 23.209866 8.577581S23.145419 8.480084 23.125589 8.440425S23.089785 8.348987 23.077667 8.285091S23.057837 8.169968 23.054532 8.13141C23.051227 8.092852 23.048473 8.040523 23.04627 7.974424C23.099149 8.071369 23.142114 8.139672 23.175163 8.179332C23.234653 8.254245 23.307913 8.313734 23.394944 8.3578C23.481975 8.401866 23.567354 8.4239 23.651079 8.4239C23.792092 8.4239 23.913274 8.371571 24.014626 8.266914S24.166655 8.036117 24.166655 7.888494C24.166655 7.745279 24.120936 7.622995 24.029499 7.521642S23.827344 7.369614 23.697349 7.369614C23.653283 7.369614 23.612521 7.375673 23.575065 7.387791S23.500152 7.415333 23.462696 7.434061L23.393292 7.468763C23.479221 7.345377 23.522186 7.228602 23.522186 7.118436C23.522186 6.979627 23.470958 6.860648 23.368504 6.761499S23.143215 6.612775 23.0 6.612775S22.73395 6.66235 22.631496 6.761499S22.477814 6.979627 22.477814 7.118436C22.477814 7.228602 22.520779 7.345377 22.606708 7.468763C22.591285 7.462153 22.569803 7.452238 22.542261 7.439018S22.494339 7.415883 22.481119 7.409273S22.450824 7.396054 22.429892 7.389444S22.38858 7.377876 22.36875 7.374571S22.326887 7.369614 22.302651 7.369614C22.172656 7.369614 22.061939 7.42029 21.970501 7.521642S21.833345 7.745279 21.833345 7.888494C21.833345 8.036117 21.884021 8.162256 21.985374 8.266914S22.207908 8.4239 22.348921 8.4239C22.591285 8.4239 22.792887 8.274074 22.95373 7.974424Z" fill="#010101" />
<path d="M0.274403 29.55202Q0.278645 29.628384 0.293494 29.653838T0.342281 29.679293Q0.579854 29.679293 0.67955 29.707929T0.828034 29.857475T0.876821 30.264747V31.588384Q0.881064 31.887475 0.85773 32.017929T0.775004 32.186566T0.579854 32.224747H0.371978Q0.295615 32.224747 0.295615 32.377475Q0.299857 32.472929 0.321069 32.495202T0.374099 32.517475H0.418644Q0.596824 32.517475 0.766519 32.603384T1.135606 32.810202Q1.161061 32.822929 1.17803 32.822929Q1.245908 32.822929 1.245908 32.676566V30.264747Q1.245908 29.984747 1.290453 29.863838T1.430452 29.711111T1.738025 29.679293H1.780448Q1.814388 29.679293 1.829236 29.653838T1.848327 29.55202Q1.848327 29.399293 1.771964 29.399293Q1.466512 29.418384 1.059244 29.418384Q0.656217 29.418384 0.350766 29.399293Q0.274403 29.399293 0.274403 29.55202ZM2.158037 29.602929Q1.93107 29.844747 1.818646 30.245657T1.706223 31.117475Q1.706223 31.594747 1.818646 31.989293T2.158037 32.622475T2.71591 32.861111Q3.029846 32.861111 3.258935 32.619293T3.60681 31.976566T3.725597 31.117475T3.60681 30.258384T3.258935 29.609293T2.71591 29.361111Q2.385004 29.361111 2.158037 29.602929ZM3.16136 29.991111Q3.318328 30.385657 3.318328 31.117475T3.16136 32.237475T2.720153 32.625657Q2.427428 32.625657 2.27046 32.240657T2.113492 31.117475T2.27046 29.987929T2.720153 29.596566Q3.004392 29.596566 3.16136 29.991111Z" fill="#010101" />
<path d="M2.04627 27.025576C2.048473 26.959477 2.051227 26.906046 2.054532 26.865285C2.057837 26.824524 2.066099 26.772746 2.079319 26.709952S2.108513 26.595379 2.127241 26.554618S2.174062 26.468138 2.211518 26.417462S2.293041 26.324922 2.343717 26.291873S2.45829 26.226875 2.535405 26.196029S2.700654 26.140946 2.799803 26.123319V26.05722H1.200197V26.123319C1.299346 26.140946 1.387479 26.165733 1.464595 26.197681S1.606157 26.262128 1.657935 26.295178S1.75378 26.370641 1.790134 26.422419S1.854581 26.519916 1.874411 26.559575S1.910215 26.651013 1.922333 26.714909S1.942163 26.830032 1.945468 26.86859C1.948773 26.907148 1.951527 26.959477 1.95373 27.025576C1.900851 26.928631 1.857886 26.860328 1.824837 26.820668C1.765347 26.745755 1.692087 26.686266 1.605056 26.6422C1.518025 26.598134 1.432646 26.5761 1.348921 26.5761C1.207908 26.5761 1.086726 26.628429 0.985374 26.733086S0.833345 26.963883 0.833345 27.111506C0.833345 27.254721 0.879064 27.377005 0.970501 27.478358S1.172656 27.630386 1.302651 27.630386C1.346717 27.630386 1.387479 27.624327 1.424935 27.612209S1.499848 27.584667 1.537304 27.565939L1.606708 27.531237C1.520779 27.654623 1.477814 27.771398 1.477814 27.881564C1.477814 28.020373 1.529042 28.139352 1.631496 28.238501S1.856785 28.387225 2.0 28.387225S2.26605 28.33765 2.368504 28.238501S2.522186 28.020373 2.522186 27.881564C2.522186 27.771398 2.479221 27.654623 2.393292 27.531237C2.408715 27.537847 2.430197 27.547762 2.457739 27.560982S2.505661 27.584117 2.518881 27.590727S2.549176 27.603946 2.570108 27.610556S2.61142 27.622124 2.63125 27.625429S2.673113 27.630386 2.697349 27.630386C2.827344 27.630386 2.938061 27.57971 3.029499 27.478358S3.166655 27.254721 3.166655 27.111506C3.166655 26.963883 3.115979 26.837744 3.014626 26.733086S2.792092 26.5761 2.651079 26.5761C2.408715 26.5761 2.207113 26.725926 2.04627 27.025576Z" fill="#010101" />
</svg>
