<svg width="25.000000" height="35.000000" id="card-lightdiamond9">
<rect x="0" y="0" rx="1.25" ry="1.25" width="25" height="35.0" stroke="#010101" fill="#fffdfa" />
<path d="M7.506954 3.333333C7.395688 3.555865 7.126796 3.955726 6.700278 4.532916C6.27376 5.110107 5.930688 5.542422 5.671071 5.829856C5.995596 6.200742 6.34446 6.641171 6.717663 7.151136C7.090867 7.661103 7.353964 8.055169 7.506954 8.333333C7.850023 7.721372 8.45735 6.88688 9.328929 5.829856C8.434166 4.749655 7.826843 3.917478 7.506954 3.333333Z" fill="#da0a0a" />
<path d="M7.493046 31.666667C7.604312 31.444135 7.873204 31.044274 8.299722 30.467084C8.72624 29.889893 9.069312 29.457578 9.328929 29.170144C9.004404 28.799258 8.65554 28.358829 8.282337 27.848864C7.909133 27.338897 7.646036 26.944831 7.493046 26.666667C7.149977 27.278628 6.54265 28.11312 5.671071 29.170144C6.565834 30.250345 7.173157 31.082522 7.493046 31.666667Z" fill="#da0a0a" />
<path d="M7.506954 11.111111C7.395688 11.333642 7.126796 11.733503 6.700278 12.310694C6.27376 12.887884 5.930688 13.3202 5.671071 13.607634C5.995596 13.978519 6.34446 14.418948 6.717663 14.928914C7.090867 15.438881 7.353964 15.832947 7.506954 16.111111C7.850023 15.49915 8.45735 14.664658 9.328929 13.607634C8.434166 12.527432 7.826843 11.695256 7.506954 11.111111Z" fill="#da0a0a" />
<path d="M7.493046 23.888889C7.604312 23.666358 7.873204 23.266497 8.299722 22.689306C8.72624 22.112116 9.069312 21.6798 9.328929 21.392366C9.004404 21.021481 8.65554 20.581052 8.282337 20.071086C7.909133 19.561119 7.646036 19.167053 7.493046 18.888889C7.149977 19.50085 6.54265 20.335342 5.671071 21.392366C6.565834 22.472568 7.173157 23.304744 7.493046 23.888889Z" fill="#da0a0a" />
<path d="M17.506954 3.333333C17.395688 3.555865 17.126796 3.955726 16.700278 4.532916C16.27376 5.110107 15.930688 5.542422 15.671071 5.829856C15.995596 6.200742 16.34446 6.641171 16.717663 7.151136C17.090867 7.661103 17.353964 8.055169 17.506954 8.333333C17.850023 7.721372 18.45735 6.88688 19.328929 5.829856C18.434166 4.749655 17.826843 3.917478 17.506954 3.333333Z" fill="#da0a0a" />
<path d="M17.493046 31.666667C17.604312 31.444135 17.873204 31.044274 18.299722 30.467084C18.72624 29.889893 19.069312 29.457578 19.328929 29.170144C19.004404 28.799258 18.65554 28.358829 18.282337 27.848864C17.909133 27.338897 17.646036 26.944831 17.493046 26.666667C17.149977 27.278628 16.54265 28.11312 15.671071 29.170144C16.565834 30.250345 17.173157 31.082522 17.493046 31.666667Z" fill="#da0a0a" />
<path d="M17.506954 11.111111C17.395688 11.333642 17.126796 11.733503 16.700278 12.310694C16.27376 12.887884 15.930688 13.3202 15.671071 13.607634C15.995596 13.978519 16.34446 14.418948 16.717663 14.928914C17.090867 15.438881 17.353964 15.832947 17.506954 16.111111C17.850023 15.49915 18.45735 14.664658 19.328929 13.607634C18.434166 12.527432 17.826843 11.695256 17.506954 11.111111Z" fill="#da0a0a" />
<path d="M17.493046 23.888889C17.604312 23.666358 17.873204 23.266497 18.299722 22.689306C18.72624 22.112116 19.069312 21.6798 19.328929 21.392366C19.004404 21.021481 18.65554 20.581052 18.282337 20.071086C17.909133 19.561119 17.646036 19.167053 17.493046 18.888889C17.149977 19.50085 16.54265 20.335342 15.671071 21.392366C16.565834 22.472568 17.173157 23.304744 17.493046 23.888889Z" fill="#da0a0a" />
<path d="M12.506954 7.222222C12.395688 7.444754 12.126796 7.844614 11.700278 8.421805C11.27376 8.998996 10.930688 9.431311 10.671071 9.718745C10.995596 10.08963 11.34446 10.530059 11.717663 11.040025C12.090867 11.549992 12.353964 11.944058 12.506954 12.222222C12.850023 11.610261 13.45735 10.775769 14.328929 9.718745C13.434166 8.638544 12.826843 7.806367 12.506954 7.222222Z" fill="#da0a0a" />
<path d="M23.731013 5.638889Q23.857595 5.638889 23.857595 5.524965Q23.857595 5.423699 23.743671 5.392053Q22.585443 5.031294 22.363924 4.094585Q22.572785 4.233826 22.778481 4.290788T23.205696 4.34775Q23.509494 4.34775 23.762658 4.211674T24.161392 3.838256T24.306962 3.297117Q24.306962 2.955345 24.123418 2.692686T23.642405 2.284459T23.009494 2.138889Q22.408228 2.138889 22.050633 2.512307T21.693038 3.531294Q21.693038 4.043952 21.936709 4.48699T22.623418 5.230661T23.636076 5.63256Q23.667722 5.638889 23.731013 5.638889ZM22.661392 3.983826Q22.490506 3.904712 22.338608 3.7718Q22.300633 3.619902 22.300633 3.524965Q22.300633 3.2718 22.367089 2.999648T22.594937 2.534459T23.009494 2.341421Q23.306962 2.341421 23.503165 2.591421T23.699367 3.240155Q23.699367 3.613572 23.503165 3.838256T22.990506 4.06294Q22.832278 4.06294 22.661392 3.983826Z" fill="#da0a0a" />
<path d="M23.003245 6.611123C22.951322 6.71497 22.82584 6.90157 22.6268 7.170922C22.42776 7.440275 22.267662 7.642021 22.146508 7.776155C22.297952 7.949233 22.460753 8.154765 22.634913 8.392746C22.809073 8.630728 22.93185 8.814624 23.003245 8.944433C23.163342 8.658854 23.446759 8.269428 23.853492 7.776155C23.43594 7.272066 23.152525 6.883721 23.003245 6.611123Z" fill="#da0a0a" />
<path d="M1.268987 29.361111Q1.142405 29.361111 1.142405 29.475035Q1.142405 29.576301 1.256329 29.607947Q2.414557 29.968706 2.636076 30.905415Q2.427215 30.766174 2.221519 30.709212T1.794304 30.65225Q1.490506 30.65225 1.237342 30.788326T0.838608 31.161744T0.693038 31.702883Q0.693038 32.044655 0.876582 32.307314T1.357595 32.715541T1.990506 32.861111Q2.591772 32.861111 2.949367 32.487693T3.306962 31.468706Q3.306962 30.956048 3.063291 30.51301T2.376582 29.769339T1.363924 29.36744Q1.332278 29.361111 1.268987 29.361111ZM2.338608 31.016174Q2.509494 31.095288 2.661392 31.2282Q2.699367 31.380098 2.699367 31.475035Q2.699367 31.7282 2.632911 32.000352T2.405063 32.465541T1.990506 32.658579Q1.693038 32.658579 1.496835 32.408579T1.300633 31.759845Q1.300633 31.386428 1.496835 31.161744T2.009494 30.93706Q2.167722 30.93706 2.338608 31.016174Z" fill="#da0a0a" />
<path d="M1.996755 28.388877C2.048678 28.28503 2.17416 28.09843 2.3732 27.829078C2.57224 27.559725 2.732338 27.357979 2.853492 27.223845C2.702048 27.050767 2.539247 26.845235 2.365087 26.607254C2.190927 26.369272 2.06815 26.185376 1.996755 26.055567C1.836658 26.341146 1.553241 26.730572 1.146508 27.223845C1.56406 27.727934 1.847475 28.116279 1.996755 28.388877Z" fill="#da0a0a" />
</svg>
