<svg width="150.000000" height="210.000000" id="card-webspade11">
<radialGradient id="card-webwhitegradient" cx="75.0" cy="105.0" r="150" gradientTransform="matrix(1 0 0 1 0 -.25)" gradientUnits="userSpaceOnUse">
<stop stop-color="#FDFAF4" offset=".15"/>
<stop stop-color="#FDF9F2" offset=".35"/>
<stop stop-color="#FCF7F1" offset=".5"/>
<stop stop-color="#FDFDF8" offset=".75"/>
<stop stop-color="#FFFDFA" offset="1"/>
</radialGradient>
<rect x="0" y="0" rx="7.5" ry="7.5" width="150" height="210.0" stroke="#010101" fill="url(#card-webwhitegradient)" />
<rect x="30.0" y="21.0" width="90.0" height="168.0" stroke="#010101" fill="#fffdfa" />
<path d="M88.829787 62.012624C87.808511 62.012624 86.588655 61.459433 85.170213 60.35305S83.042553 58.239577 83.042553 57.331773C83.042553 56.594184 83.723404 56.22539 85.085106 56.22539C86.219855 56.22539 87.31206 56.67929 88.361702 57.587092S89.93617 59.459433 89.93617 60.480709S89.567376 62.012624 88.829787 62.012624ZM100.574468 75.970071C100.234043 73.870777 98.361702 69.218301 94.957447 62.012624S89.851064 50.126071 89.851064 47.970071C89.851064 46.267943 89.992908 44.736028 90.276596 43.374326C85.794323 43.374326 82.617021 44.310496 80.744681 46.182837C79.099294 43.516173 77.851064 42.182837 77.0 42.182837C75.468085 43.033901 74.460996 43.828224 73.978723 44.565816S72.886528 46.806948 72.148936 49.076454C71.695036 48.962979 71.241132 48.906241 70.787234 48.906241C69.595745 48.906241 68.191489 49.218298 66.574468 49.842411S63.12766 51.643833 61.085106 53.374326S57.170213 57.260854 55.468085 59.842411S52.333336 65.927518 51.170213 70.35305S49.425532 79.743092 49.425532 85.246667C49.425532 87.856599 49.539007 90.211203 49.765957 92.310496H85.680851C85.624113 89.814045 85.113475 87.558726 84.148936 85.544539S82.148936 81.955884 81.042553 80.821135C79.93617 79.686386 78.87234 78.296309 77.851064 76.650922S76.205677 73.303407 75.978723 71.544539C78.134749 72.395603 80.007089 73.530352 81.595745 74.948794S84.290783 77.658011 84.914894 78.821135S86.148936 81.005535 86.744681 81.884965C87.340426 82.764394 87.921983 83.204113 88.489362 83.204113C89.907804 83.204113 90.617021 82.324684 90.617021 80.565816C91.184397 81.303405 91.836877 81.672199 92.574468 81.672199L94.276596 81.246667C96.035464 80.792766 97.326238 80.211203 98.148936 79.501986C98.971631 78.792766 99.780145 77.615458 100.574468 75.970071ZM95.382979 73.246667C96.177305 73.246667 96.858153 73.501986 97.425532 74.012624S98.276596 75.147373 98.276596 75.884965C98.276596 76.111915 98.191489 76.395603 98.021277 76.736028C97.226951 76.736028 96.560281 76.509078 96.021277 76.055177S95.212766 75.005535 95.212766 74.267943C95.212766 74.154468 95.269504 73.814043 95.382979 73.246667ZM53.595745 86.35305C53.595745 82.154471 54.092198 78.154471 55.085106 74.35305S57.326238 67.374326 58.829787 64.821135S61.964536 60.04099 63.723404 58.140284C65.482272 56.239577 67.12766 54.849501 68.659574 53.970071S71.496451 52.650922 72.574468 52.650922C73.652485 52.764397 74.191489 53.133192 74.191489 53.757305C74.191489 54.09773 74.106383 54.324681 73.93617 54.438156C68.319149 57.275033 64.049617 61.629645 61.12766 67.501986S56.744681 79.629645 56.744681 86.267943C56.744681 87.799858 56.205674 88.565816 55.12766 88.565816C54.106383 88.565816 53.595745 87.828227 53.595745 86.35305Z" fill="#010101" />
<path d="M61.170213 147.987376C62.191489 147.987376 63.411345 148.540567 64.829787 149.64695S66.957447 151.760423 66.957447 152.668227C66.957447 153.405816 66.276596 153.77461 64.914894 153.77461C63.780145 153.77461 62.68794 153.32071 61.638298 152.412908S60.06383 150.540567 60.06383 149.519291S60.432624 147.987376 61.170213 147.987376ZM49.425532 134.029929C49.765957 136.129223 51.638298 140.781699 55.042553 147.987376S60.148936 159.873929 60.148936 162.029929C60.148936 163.732057 60.007092 165.263972 59.723404 166.625674C64.205677 166.625674 67.382979 165.689504 69.255319 163.817163C70.900706 166.483827 72.148936 167.817163 73.0 167.817163C74.531915 166.966099 75.539004 166.171776 76.021277 165.434184S77.113472 163.193052 77.851064 160.923546C78.304964 161.037021 78.758868 161.093759 79.212766 161.093759C80.404255 161.093759 81.808511 160.781702 83.425532 160.157589S86.87234 158.356167 88.914894 156.625674S92.829787 152.739146 94.531915 150.157589S97.666664 144.072482 98.829787 139.64695S100.574468 130.256908 100.574468 124.753333C100.574468 122.143401 100.460993 119.788797 100.234043 117.689504H64.319149C64.375887 120.185955 64.886525 122.441274 65.851064 124.455461S67.851064 128.044116 68.957447 129.178865C70.06383 130.313614 71.12766 131.703691 72.148936 133.349078S73.794323 136.696593 74.021277 138.455461C71.865251 137.604397 69.992911 136.469648 68.404255 135.051206S65.709217 132.341989 65.085106 131.178865S63.851064 128.994465 63.255319 128.115035C62.659574 127.235606 62.078017 126.795887 61.510638 126.795887C60.092196 126.795887 59.382979 127.675316 59.382979 129.434184C58.815603 128.696595 58.163123 128.327801 57.425532 128.327801L55.723404 128.753333C53.964536 129.207234 52.673762 129.788797 51.851064 130.498014C51.028369 131.207234 50.219855 132.384542 49.425532 134.029929ZM54.617021 136.753333C53.822695 136.753333 53.141847 136.498014 52.574468 135.987376S51.723404 134.852627 51.723404 134.115035C51.723404 133.888085 51.808511 133.604397 51.978723 133.263972C52.773049 133.263972 53.439719 133.490922 53.978723 133.944823S54.787234 134.994465 54.787234 135.732057C54.787234 135.845532 54.730496 136.185957 54.617021 136.753333ZM96.404255 123.64695C96.404255 127.845529 95.907802 131.845529 94.914894 135.64695S92.673762 142.625674 91.170213 145.178865S88.035464 149.95901 86.276596 151.859716C84.517728 153.760423 82.87234 155.150499 81.340426 156.029929S78.503549 157.349078 77.425532 157.349078C76.347515 157.235603 75.808511 156.866808 75.808511 156.242695C75.808511 155.90227 75.893617 155.675319 76.06383 155.561844C81.680851 152.724967 85.950383 148.370355 88.87234 142.498014S93.255319 130.370355 93.255319 123.732057C93.255319 122.200142 93.794326 121.434184 94.87234 121.434184C95.893617 121.434184 96.404255 122.171773 96.404255 123.64695Z" fill="#010101" />
<path d="M141.457627 33.833333Q141.813559 33.833333 141.940678 33.40113Q141.966102 33.324859 141.966102 33.172316Q141.966102 32.867232 141.686441 32.765537Q140.415254 32.231638 139.805085 31.240113T139.016949 28.786723T138.838983 24.833333V15.884181Q138.864407 15.248588 138.95339 14.85452T139.398305 14.193503T140.491525 13.926554H140.644068Q140.898305 13.926554 141.012712 13.837571T141.152542 13.392655Q141.152542 13.163842 141.025424 12.998588T140.694915 12.833333Q139.067797 12.909605 137.669492 12.909605Q136.118644 12.909605 134.491525 12.833333Q134.262712 12.833333 134.148305 12.998588T134.033898 13.392655Q134.059322 13.774011 134.199153 13.850282T134.694915 13.926554Q135.432203 13.926554 135.788136 14.193503T136.233051 14.85452T136.347458 15.884181V25.69774Q136.347458 28.977401 137.504237 31.074859T141.355932 33.833333H141.457627Z" fill="#010101" />
<path d="M137.672344 48.940403C137.606151 49.628813 137.440667 50.237789 137.175895 50.767335C136.911123 51.296881 136.633111 51.700659 136.341861 51.97867S135.683238 52.494977 135.239744 52.693557C134.79625 52.892136 134.455355 53.021213 134.217059 53.080787S133.687513 53.196625 133.343309 53.24958C133.290354 53.262818 133.250638 53.269438 133.224161 53.269438V53.666597H142.775839V53.269438C141.650554 53.070858 140.796662 52.779607 140.214162 52.395687C139.102117 51.654324 138.473281 50.502563 138.327656 48.940403C139.016066 49.999493 139.903054 50.529039 140.988623 50.529039C141.69027 50.529039 142.289319 50.284125 142.785768 49.794295S143.530441 48.708726 143.530441 48.007079C143.530441 47.41134 143.384816 46.868557 143.093566 46.378726C142.802315 45.888896 142.425014 45.442092 141.961663 45.038314S141.02172 44.214209 140.53189 43.777334C140.042059 43.340459 139.55885 42.767888 139.082259 42.059621S138.241606 40.553726 137.990071 39.666737C137.765015 40.540487 137.417501 41.328186 136.947528 42.029834S135.994346 43.300743 135.497897 43.737618S134.521547 44.598129 134.058195 45.008527S133.214232 45.869038 132.916363 46.358868S132.469559 47.398101 132.469559 48.007079C132.469559 48.708726 132.717783 49.304465 133.214232 49.794295S134.30973 50.529039 135.011377 50.529039C136.096946 50.529039 136.983934 49.999493 137.672344 48.940403Z" fill="#010101" />
<path d="M8.542373 176.166667Q8.186441 176.166667 8.059322 176.59887Q8.033898 176.675141 8.033898 176.827684Q8.033898 177.132768 8.313559 177.234463Q9.584746 177.768362 10.194915 178.759887T10.983051 181.213277T11.161017 185.166667V194.115819Q11.135593 194.751412 11.04661 195.14548T10.601695 195.806497T9.508475 196.073446H9.355932Q9.101695 196.073446 8.987288 196.162429T8.847458 196.607345Q8.847458 196.836158 8.974576 197.001412T9.305085 197.166667Q10.932203 197.090395 12.330508 197.090395Q13.881356 197.090395 15.508475 197.166667Q15.737288 197.166667 15.851695 197.001412T15.966102 196.607345Q15.940678 196.225989 15.800847 196.149718T15.305085 196.073446Q14.567797 196.073446 14.211864 195.806497T13.766949 195.14548T13.652542 194.115819V184.30226Q13.652542 181.022599 12.495763 178.925141T8.644068 176.166667H8.542373Z" fill="#010101" />
<path d="M12.327656 161.059597C12.393849 160.371187 12.559333 159.762211 12.824105 159.232665C13.088877 158.703119 13.366889 158.299341 13.658139 158.02133S14.316762 157.505023 14.760256 157.306443C15.20375 157.107864 15.544645 156.978787 15.782941 156.919213S16.312487 156.803375 16.656691 156.75042C16.709646 156.737182 16.749362 156.730562 16.775839 156.730562V156.333403H7.224161V156.730562C8.349446 156.929142 9.203338 157.220393 9.785838 157.604313C10.897883 158.345676 11.526719 159.497437 11.672344 161.059597C10.983934 160.000507 10.096946 159.470961 9.011377 159.470961C8.30973 159.470961 7.710681 159.715875 7.214232 160.205705S6.469559 161.291274 6.469559 161.992921C6.469559 162.58866 6.615184 163.131443 6.906434 163.621274C7.197685 164.111104 7.574986 164.557908 8.038337 164.961686S8.97828 165.785791 9.46811 166.222666C9.957941 166.659541 10.44115 167.232112 10.917741 167.940379S11.758394 169.446274 12.009929 170.333263C12.234985 169.459513 12.582499 168.671814 13.052472 167.970166S14.005654 166.699257 14.502103 166.262382S15.478453 165.401871 15.941805 164.991473S16.785768 164.130962 17.083637 163.641132S17.530441 162.601899 17.530441 161.992921C17.530441 161.291274 17.282217 160.695535 16.785768 160.205705S15.69027 159.470961 14.988623 159.470961C13.903054 159.470961 13.016066 160.000507 12.327656 161.059597Z" fill="#010101" />
</svg>
