<svg width="500.000000" height="700.000000" id="card-realheart11">
<radialGradient id="card-realwhitegradient" cx="250.0" cy="350.0" r="500" gradientTransform="matrix(1 0 0 1 0 -.25)" gradientUnits="userSpaceOnUse">
<stop stop-color="#FDFAF4" offset=".15"/>
<stop stop-color="#FDF9F2" offset=".35"/>
<stop stop-color="#FCF7F1" offset=".5"/>
<stop stop-color="#FDFDF8" offset=".75"/>
<stop stop-color="#FFFDFA" offset="1"/>
</radialGradient>
<rect x="0" y="0" rx="25.0" ry="25.0" width="500" height="700.0" stroke="#010101" fill="url(#card-realwhitegradient)" />
<rect x="100.0" y="70.0" width="300.0" height="560.0" stroke="#010101" fill="#fffdfa" />
<path d="M295.264624 207.024636C291.922006 207.024636 287.929443 205.214051 283.286908 201.592881S276.32312 194.675528 276.32312 191.704302C276.32312 189.290188 278.551532 188.083132 283.008357 188.083132C286.722368 188.083132 290.297131 189.568739 293.732591 192.539957S298.885794 198.66809 298.885794 202.010709S297.678738 207.024636 295.264624 207.024636ZM333.704735 252.707088C332.590529 245.836141 326.462396 230.608675 315.320334 207.024636S298.607242 168.12018 298.607242 161.063634C298.607242 155.492603 299.071496 150.478675 300.0 146.021851C285.32961 146.021851 274.930362 149.085918 268.802228 155.214051C263.416908 146.486113 259.331476 142.122129 256.545961 142.122129C251.532033 144.907645 248.23585 147.50745 246.657382 149.921572S243.082646 157.256753 240.668524 164.684803C239.182916 164.313402 237.697298 164.1277 236.211699 164.1277C232.311978 164.1277 227.715877 165.149057 222.423398 167.191767S211.142061 173.087784 204.456825 178.751656S191.643454 191.472185 186.072423 199.921572S175.812451 219.838007 172.005571 234.322686S166.295265 265.056113 166.295265 283.069205C166.295265 291.611461 166.666666 299.318035 167.409471 306.188982H284.958217C284.772516 298.018146 283.101206 290.63653 279.94429 284.044135S273.398329 272.298536 269.777159 268.584525C266.155989 264.870514 262.674095 260.32082 259.331476 254.9355S253.946156 243.979149 253.203343 238.222408C260.259972 241.007923 266.388106 244.721934 271.587744 249.364469S280.408552 258.231684 282.451253 262.038564S286.490251 269.188063 288.440111 272.066419C290.389972 274.944776 292.293398 276.383968 294.150418 276.383968C298.792953 276.383968 301.114206 273.505611 301.114206 267.74887C302.971217 270.162985 305.106769 271.37004 307.520891 271.37004L313.091922 269.977283C318.848663 268.491675 323.073343 266.58823 325.766017 264.266976C328.458682 261.945714 331.10493 258.092408 333.704735 252.707088ZM316.713092 243.793439C319.312905 243.793439 321.541309 244.629093 323.398329 246.300402S326.183844 250.014413 326.183844 252.428536C326.183844 253.171341 325.905292 254.099845 325.348189 255.214051C322.748376 255.214051 320.566379 254.471246 318.802228 252.985639S316.155989 249.55018 316.155989 247.136057C316.155989 246.764656 316.34169 245.65045 316.713092 243.793439ZM179.94429 286.690374C179.94429 272.948508 181.569173 259.856586 184.818942 247.414608S192.154123 224.573383 197.075209 216.216837S207.335181 200.571517 213.091922 194.350542C218.848663 188.129567 224.233983 183.579873 229.247911 180.701517S238.532953 176.383968 242.061281 176.383968C245.58961 176.755369 247.35376 177.962427 247.35376 180.005138C247.35376 181.119344 247.075209 181.862149 246.518106 182.23355C228.133705 191.518592 214.15961 205.771154 204.5961 224.99121S190.250696 264.684803 190.250696 286.411823C190.250696 291.425751 188.486538 293.932714 184.958217 293.932714C181.615599 293.932714 179.94429 291.5186 179.94429 286.690374Z" fill="#da0a0a" />
<path d="M204.735376 492.975364C208.077994 492.975364 212.070557 494.785949 216.713092 498.407119S223.67688 505.324472 223.67688 508.295698C223.67688 510.709812 221.448468 511.916868 216.991643 511.916868C213.277632 511.916868 209.702869 510.431261 206.267409 507.460043S201.114206 501.33191 201.114206 497.989291S202.321262 492.975364 204.735376 492.975364ZM166.295265 447.292912C167.409471 454.163859 173.537604 469.391325 184.679666 492.975364S201.392758 531.87982 201.392758 538.936366C201.392758 544.507397 200.928504 549.521325 200.0 553.978149C214.67039 553.978149 225.069638 550.914082 231.197772 544.785949C236.583092 553.513887 240.668524 557.877871 243.454039 557.877871C248.467967 555.092355 251.76415 552.49255 253.342618 550.078428S256.917354 542.743247 259.331476 535.315197C260.817084 535.686598 262.302702 535.8723 263.788301 535.8723C267.688022 535.8723 272.284123 534.850943 277.576602 532.808233S288.857939 526.912216 295.543175 521.248344S308.356546 508.527815 313.927577 500.078428S324.187549 480.161993 327.994429 465.677314S333.704735 434.943887 333.704735 416.930795C333.704735 408.388539 333.333334 400.681965 332.590529 393.811018H215.041783C215.227484 401.981854 216.898794 409.36347 220.05571 415.955865S226.601671 427.701464 230.222841 431.415475C233.844011 435.129486 237.325905 439.67918 240.668524 445.0645S246.053844 456.020851 246.796657 461.777592C239.740028 458.992077 233.611894 455.278066 228.412256 450.635531S219.591448 441.768316 217.548747 437.961436S213.509749 430.811937 211.559889 427.933581C209.610028 425.055224 207.706602 423.616032 205.849582 423.616032C201.207047 423.616032 198.885794 426.494389 198.885794 432.25113C197.028783 429.837015 194.893231 428.62996 192.479109 428.62996L186.908078 430.022717C181.151337 431.508325 176.926657 433.41177 174.233983 435.733024C171.541318 438.054286 168.89507 441.907592 166.295265 447.292912ZM183.286908 456.206561C180.687095 456.206561 178.458691 455.370907 176.601671 453.699598S173.816156 449.985587 173.816156 447.571464C173.816156 446.828659 174.094708 445.900155 174.651811 444.785949C177.251624 444.785949 179.433621 445.528754 181.197772 447.014361S183.844011 450.44982 183.844011 452.863943C183.844011 453.235344 183.65831 454.34955 183.286908 456.206561ZM320.05571 413.309626C320.05571 427.051492 318.430827 440.143414 315.181058 452.585392S307.845877 475.426617 302.924791 483.783163S292.664819 499.428483 286.908078 505.649458C281.151337 511.870433 275.766017 516.420127 270.752089 519.298483S261.467047 523.616032 257.938719 523.616032C254.41039 523.244631 252.64624 522.037573 252.64624 519.994862C252.64624 518.880656 252.924791 518.137851 253.481894 517.76645C271.866295 508.481408 285.84039 494.228846 295.4039 475.00879S309.749304 435.315197 309.749304 413.588177C309.749304 408.574249 311.513462 406.067286 315.041783 406.067286C318.384401 406.067286 320.05571 408.4814 320.05571 413.309626Z" fill="#da0a0a" />
<path d="M471.525424 112.777778Q472.711864 112.777778 473.135593 111.3371Q473.220339 111.082863 473.220339 110.574388Q473.220339 109.557439 472.288136 109.218456Q468.050847 107.438795 466.016949 104.13371T463.389831 95.955744T462.79661 82.777778V52.947269Q462.881356 50.828625 463.177966 49.515066T464.661017 47.311676T468.305085 46.421846H468.813559Q469.661017 46.421846 470.042373 46.125235T470.508475 44.642185Q470.508475 43.879473 470.084746 43.328625T468.983051 42.777778Q463.559322 43.032015 458.898305 43.032015Q453.728814 43.032015 448.305085 42.777778Q447.542373 42.777778 447.161017 43.328625T446.779661 44.642185Q446.864407 45.913371 447.330508 46.167608T448.983051 46.421846Q451.440678 46.421846 452.627119 47.311676T454.110169 49.515066T454.491525 52.947269V85.659134Q454.491525 96.591337 458.347458 103.582863T471.186441 112.777778H471.525424Z" fill="#da0a0a" />
<path d="M459.935005 141.581693C459.068411 138.37529 457.671025 136.013811 455.742847 134.49727S451.680677 132.222456 449.340868 132.222456C446.697748 132.222456 444.433768 133.132381 442.548921 134.952233S439.721651 138.960242 439.721651 141.516699C439.721651 143.856508 440.295771 146.23965 441.444011 148.666117S444.043799 153.432393 445.798656 155.685545S449.340868 160.202677 451.16072 162.477492S454.724594 167.34126 456.392794 170.244359S459.241726 176.028888 459.935005 178.888656C460.714942 175.898899 461.960676 172.898308 463.672201 169.886889S467.149418 164.210686 468.96927 161.89254C470.789121 159.574393 472.565641 157.299578 474.298836 155.068095S477.461914 150.594295 478.588486 148.341143S480.278349 143.943166 480.278349 141.906667C480.278349 139.176889 479.357588 136.880412 477.516074 135.017228C475.674559 133.154044 473.410572 132.222456 470.724127 132.222456C465.567882 132.222456 461.971484 135.342202 459.935005 141.581693Z" fill="#da0a0a" />
<path d="M28.474576 587.222222Q27.288136 587.222222 26.864407 588.6629Q26.779661 588.917137 26.779661 589.425612Q26.779661 590.442561 27.711864 590.781544Q31.949153 592.561205 33.983051 595.86629T36.610169 604.044256T37.20339 617.222222V647.052731Q37.118644 649.171375 36.822034 650.484934T35.338983 652.688324T31.694915 653.578154H31.186441Q30.338983 653.578154 29.957627 653.874765T29.491525 655.357815Q29.491525 656.120527 29.915254 656.671375T31.016949 657.222222Q36.440678 656.967985 41.101695 656.967985Q46.271186 656.967985 51.694915 657.222222Q52.457627 657.222222 52.838983 656.671375T53.220339 655.357815Q53.135593 654.086629 52.669492 653.832392T51.016949 653.578154Q48.559322 653.578154 47.372881 652.688324T45.889831 650.484934T45.508475 647.052731V614.340866Q45.508475 603.408663 41.652542 596.417137T28.813559 587.222222H28.474576Z" fill="#da0a0a" />
<path d="M40.064995 558.418307C40.931589 561.62471 42.328975 563.986189 44.257153 565.50273S48.319323 567.777544 50.659132 567.777544C53.302252 567.777544 55.566232 566.867619 57.451079 565.047767S60.278349 561.039758 60.278349 558.483301C60.278349 556.143492 59.704229 553.76035 58.555989 551.333883S55.956201 546.567607 54.201344 544.314455S50.659132 539.797323 48.83928 537.522508S45.275406 532.65874 43.607206 529.755641S40.758274 523.971112 40.064995 521.111344C39.285058 524.101101 38.039324 527.101692 36.327799 530.113111S32.850582 535.789314 31.03073 538.10746C29.210879 540.425607 27.434359 542.700422 25.701164 544.931905S22.538086 549.405705 21.411514 551.658857S19.721651 556.056834 19.721651 558.093333C19.721651 560.823111 20.642412 563.119588 22.483926 564.982772C24.325441 566.845956 26.589428 567.777544 29.275873 567.777544C34.432118 567.777544 38.028516 564.657798 40.064995 558.418307Z" fill="#da0a0a" />
</svg>
