<svg width="500.000000" height="700.000000" id="card-realheart7">
<radialGradient id="card-realwhitegradient" cx="250.0" cy="350.0" r="500" gradientTransform="matrix(1 0 0 1 0 -.25)" gradientUnits="userSpaceOnUse">
<stop stop-color="#FDFAF4" offset=".15"/>
<stop stop-color="#FDF9F2" offset=".35"/>
<stop stop-color="#FCF7F1" offset=".5"/>
<stop stop-color="#FDFDF8" offset=".75"/>
<stop stop-color="#FFFDFA" offset="1"/>
</radialGradient>
<rect x="0" y="0" rx="25.0" ry="25.0" width="500" height="700.0" stroke="#010101" fill="url(#card-realwhitegradient)" />
<path d="M149.860724 86.722377C148.003719 79.851444 145.00929 74.791082 140.877437 71.541318S132.172702 66.666667 127.158774 66.666667C121.494889 66.666667 116.643454 68.616527 112.604457 72.516249S106.545961 81.104926 106.545961 86.583101C106.545961 91.597029 107.77623 96.703812 110.236769 101.903435S115.807799 112.116987 119.568245 116.945218S127.158774 126.624884 131.058496 131.499536S138.695446 141.922001 142.270195 148.14299S148.375111 160.538533 149.860724 166.666667C151.532033 160.259981 154.20149 153.830079 157.869081 147.376973S165.320334 135.213561 169.220056 130.246054C173.119777 125.278547 176.926643 120.403895 180.640669 115.622098S187.41876 106.035288 189.832869 101.207057S193.454039 91.782725 193.454039 87.418756C193.454039 81.569174 191.480961 76.648101 187.534819 72.655525C183.588677 68.662948 178.737228 66.666667 172.980501 66.666667C161.931295 66.666667 154.224652 73.351903 149.860724 86.722377Z" fill="#da0a0a" />
<path d="M150.139276 613.277623C151.996281 620.148556 154.99071 625.208918 159.122563 628.458682S167.827298 633.333333 172.841226 633.333333C178.505111 633.333333 183.356546 631.383473 187.395543 627.483751S193.454039 618.895074 193.454039 613.416899C193.454039 608.402971 192.22377 603.296188 189.763231 598.096565S184.192201 587.883013 180.431755 583.054782S172.841226 573.375116 168.941504 568.500464S161.304554 558.077999 157.729805 551.85701S151.624889 539.461467 150.139276 533.333333C148.467967 539.740019 145.79851 546.169921 142.130919 552.623027S134.679666 564.786439 130.779944 569.753946C126.880223 574.721453 123.073357 579.596105 119.359331 584.377902S112.58124 593.964712 110.167131 598.792943S106.545961 608.217275 106.545961 612.581244C106.545961 618.430826 108.519039 623.351899 112.465181 627.344475C116.411323 631.337052 121.262772 633.333333 127.019499 633.333333C138.068705 633.333333 145.775348 626.648097 150.139276 613.277623Z" fill="#da0a0a" />
<path d="M149.860724 320.05571C148.003719 313.184777 145.00929 308.124415 140.877437 304.874652S132.172702 300.0 127.158774 300.0C121.494889 300.0 116.643454 301.949861 112.604457 305.849582S106.545961 314.438259 106.545961 319.916435C106.545961 324.930362 107.77623 330.037145 110.236769 335.236769S115.807799 345.45032 119.568245 350.278552S127.158774 359.958217 131.058496 364.832869S138.695446 375.255334 142.270195 381.476323S148.375111 393.871866 149.860724 400.0C151.532033 393.593315 154.20149 387.163412 157.869081 380.710306S165.320334 368.546894 169.220056 363.579387C173.119777 358.61188 176.926643 353.737228 180.640669 348.955432S187.41876 339.368621 189.832869 334.54039S193.454039 325.116058 193.454039 320.752089C193.454039 314.902507 191.480961 309.981435 187.534819 305.988858C183.588677 301.996281 178.737228 300.0 172.980501 300.0C161.931295 300.0 154.224652 306.685237 149.860724 320.05571Z" fill="#da0a0a" />
<path d="M349.860724 86.722377C348.003719 79.851444 345.00929 74.791082 340.877437 71.541318S332.172702 66.666667 327.158774 66.666667C321.494889 66.666667 316.643454 68.616527 312.604457 72.516249S306.545961 81.104926 306.545961 86.583101C306.545961 91.597029 307.77623 96.703812 310.236769 101.903435S315.807799 112.116987 319.568245 116.945218S327.158774 126.624884 331.058496 131.499536S338.695446 141.922001 342.270195 148.14299S348.375111 160.538533 349.860724 166.666667C351.532033 160.259981 354.20149 153.830079 357.869081 147.376973S365.320334 135.213561 369.220056 130.246054C373.119777 125.278547 376.926643 120.403895 380.640669 115.622098S387.41876 106.035288 389.832869 101.207057S393.454039 91.782725 393.454039 87.418756C393.454039 81.569174 391.480961 76.648101 387.534819 72.655525C383.588677 68.662948 378.737228 66.666667 372.980501 66.666667C361.931295 66.666667 354.224652 73.351903 349.860724 86.722377Z" fill="#da0a0a" />
<path d="M350.139276 613.277623C351.996281 620.148556 354.99071 625.208918 359.122563 628.458682S367.827298 633.333333 372.841226 633.333333C378.505111 633.333333 383.356546 631.383473 387.395543 627.483751S393.454039 618.895074 393.454039 613.416899C393.454039 608.402971 392.22377 603.296188 389.763231 598.096565S384.192201 587.883013 380.431755 583.054782S372.841226 573.375116 368.941504 568.500464S361.304554 558.077999 357.729805 551.85701S351.624889 539.461467 350.139276 533.333333C348.467967 539.740019 345.79851 546.169921 342.130919 552.623027S334.679666 564.786439 330.779944 569.753946C326.880223 574.721453 323.073357 579.596105 319.359331 584.377902S312.58124 593.964712 310.167131 598.792943S306.545961 608.217275 306.545961 612.581244C306.545961 618.430826 308.519039 623.351899 312.465181 627.344475C316.411323 631.337052 321.262772 633.333333 327.019499 633.333333C338.068705 633.333333 345.775348 626.648097 350.139276 613.277623Z" fill="#da0a0a" />
<path d="M349.860724 320.05571C348.003719 313.184777 345.00929 308.124415 340.877437 304.874652S332.172702 300.0 327.158774 300.0C321.494889 300.0 316.643454 301.949861 312.604457 305.849582S306.545961 314.438259 306.545961 319.916435C306.545961 324.930362 307.77623 330.037145 310.236769 335.236769S315.807799 345.45032 319.568245 350.278552S327.158774 359.958217 331.058496 364.832869S338.695446 375.255334 342.270195 381.476323S348.375111 393.871866 349.860724 400.0C351.532033 393.593315 354.20149 387.163412 357.869081 380.710306S365.320334 368.546894 369.220056 363.579387C373.119777 358.61188 376.926643 353.737228 380.640669 348.955432S387.41876 339.368621 389.832869 334.54039S393.454039 325.116058 393.454039 320.752089C393.454039 314.902507 391.480961 309.981435 387.534819 305.988858C383.588677 301.996281 378.737228 300.0 372.980501 300.0C361.931295 300.0 354.224652 306.685237 349.860724 320.05571Z" fill="#da0a0a" />
<path d="M249.860724 203.389044C248.003719 196.51811 245.00929 191.457748 240.877437 188.207985S232.172702 183.333333 227.158774 183.333333C221.494889 183.333333 216.643454 185.283194 212.604457 189.182916S206.545961 197.771592 206.545961 203.249768C206.545961 208.263695 207.77623 213.370478 210.236769 218.570102S215.807799 228.783654 219.568245 233.611885S227.158774 243.291551 231.058496 248.166202S238.695446 258.588668 242.270195 264.809656S248.375111 277.2052 249.860724 283.333333C251.532033 276.926648 254.20149 270.496746 257.869081 264.04364S265.320334 251.880227 269.220056 246.912721C273.119777 241.945214 276.926643 237.070562 280.640669 232.288765S287.41876 222.701955 289.832869 217.873723S293.454039 208.449392 293.454039 204.085422C293.454039 198.23584 291.480961 193.314768 287.534819 189.322191C283.588677 185.329615 278.737228 183.333333 272.980501 183.333333C261.931295 183.333333 254.224652 190.01857 249.860724 203.389044Z" fill="#da0a0a" />
<path d="M471.042435 111.292538Q472.333948 109.807298 472.333948 107.224272Q472.333948 101.541615 465.940959 88.691062T449.215867 57.242722L446.245387 51.947519H468.846863Q472.333948 51.947519 474.077491 52.464125T476.918819 54.917999T478.53321 60.98811Q478.791513 62.02132 479.372694 62.47335T481.50369 62.925379Q483.699262 62.925379 483.699262 60.729807L483.182657 45.619106Q483.182657 42.777778 479.437269 42.777778H440.046125Q436.300738 42.777778 436.300738 45.231652Q436.300738 47.168922 439.142066 51.947519Q443.920664 59.9549 447.98893 69.834973T456.964945 93.275933Q460.968635 104.253793 462.776753 108.644936Q464.714022 112.777778 468.071956 112.777778Q469.750923 112.777778 471.042435 111.292538Z" fill="#da0a0a" />
<path d="M459.935005 141.581693C459.068411 138.37529 457.671025 136.013811 455.742847 134.49727S451.680677 132.222456 449.340868 132.222456C446.697748 132.222456 444.433768 133.132381 442.548921 134.952233S439.721651 138.960242 439.721651 141.516699C439.721651 143.856508 440.295771 146.23965 441.444011 148.666117S444.043799 153.432393 445.798656 155.685545S449.340868 160.202677 451.16072 162.477492S454.724594 167.34126 456.392794 170.244359S459.241726 176.028888 459.935005 178.888656C460.714942 175.898899 461.960676 172.898308 463.672201 169.886889S467.149418 164.210686 468.96927 161.89254C470.789121 159.574393 472.565641 157.299578 474.298836 155.068095S477.461914 150.594295 478.588486 148.341143S480.278349 143.943166 480.278349 141.906667C480.278349 139.176889 479.357588 136.880412 477.516074 135.017228C475.674559 133.154044 473.410572 132.222456 470.724127 132.222456C465.567882 132.222456 461.971484 135.342202 459.935005 141.581693Z" fill="#da0a0a" />
<path d="M28.957565 588.707462Q27.666052 590.192702 27.666052 592.775728Q27.666052 598.458385 34.059041 611.308938T50.784133 642.757278L53.754613 648.052481H31.153137Q27.666052 648.052481 25.922509 647.535875T23.081181 645.082001T21.46679 639.01189Q21.208487 637.97868 20.627306 637.52665T18.49631 637.074621Q16.300738 637.074621 16.300738 639.270193L16.817343 654.380894Q16.817343 657.222222 20.562731 657.222222H59.953875Q63.699262 657.222222 63.699262 654.768348Q63.699262 652.831078 60.857934 648.052481Q56.079336 640.0451 52.01107 630.165027T43.035055 606.724067Q39.031365 595.746207 37.223247 591.355064Q35.285978 587.222222 31.928044 587.222222Q30.249077 587.222222 28.957565 588.707462Z" fill="#da0a0a" />
<path d="M40.064995 558.418307C40.931589 561.62471 42.328975 563.986189 44.257153 565.50273S48.319323 567.777544 50.659132 567.777544C53.302252 567.777544 55.566232 566.867619 57.451079 565.047767S60.278349 561.039758 60.278349 558.483301C60.278349 556.143492 59.704229 553.76035 58.555989 551.333883S55.956201 546.567607 54.201344 544.314455S50.659132 539.797323 48.83928 537.522508S45.275406 532.65874 43.607206 529.755641S40.758274 523.971112 40.064995 521.111344C39.285058 524.101101 38.039324 527.101692 36.327799 530.113111S32.850582 535.789314 31.03073 538.10746C29.210879 540.425607 27.434359 542.700422 25.701164 544.931905S22.538086 549.405705 21.411514 551.658857S19.721651 556.056834 19.721651 558.093333C19.721651 560.823111 20.642412 563.119588 22.483926 564.982772C24.325441 566.845956 26.589428 567.777544 29.275873 567.777544C34.432118 567.777544 38.028516 564.657798 40.064995 558.418307Z" fill="#da0a0a" />
</svg>
