<svg width="25.000000" height="35.000000" id="card-lightheart12">
<rect x="0" y="0" rx="1.25" ry="1.25" width="25" height="35.0" stroke="#010101" fill="#fffdfa" />
<rect x="5.0" y="3.5" width="15.0" height="28.0" stroke="#010101" fill="#fffdfa" />
<path d="M12.486072 13.798307C13.071031 13.798307 13.6026 13.84009 14.08078 13.923655C14.55896 14.007221 14.79805 14.113999 14.79805 14.243989C14.79805 14.392551 14.691272 14.466831 14.477716 14.466831C14.440576 14.466831 14.15506 14.448261 13.62117 14.41112S12.704272 14.35541 12.472145 14.35541C12.230734 14.35541 11.850046 14.37398 11.330084 14.41112C10.810121 14.448261 10.536212 14.466831 10.508357 14.466831C10.294801 14.466831 10.188022 14.39255 10.188022 14.243989C10.188022 13.946868 10.954039 13.798307 12.486072 13.798307ZM16.538997 8.422262C16.631848 8.422262 16.713092 8.45476 16.78273 8.519755C16.852368 8.584751 16.887187 8.668317 16.887187 8.770452S16.852368 8.956152 16.78273 9.021148S16.631848 9.118641 16.538997 9.118641C16.316156 9.118641 16.204735 9.002578 16.204735 8.770452C16.204735 8.538325 16.316156 8.422262 16.538997 8.422262ZM14.714485 7.544825C14.955896 7.544825 15.076602 7.660888 15.076602 7.893015S14.955896 8.241204 14.714485 8.241204C14.491643 8.241204 14.380223 8.125141 14.380223 7.893015S14.491643 7.544825 14.714485 7.544825ZM10.271588 7.544825C10.364438 7.544825 10.443361 7.579644 10.508357 7.649282S10.60585 7.800164 10.60585 7.893015C10.60585 8.125141 10.494429 8.241204 10.271588 8.241204C10.039461 8.241204 9.923398 8.125141 9.923398 7.893015S10.039461 7.544825 10.271588 7.544825ZM8.461003 8.422262C8.683844 8.422262 8.795265 8.538326 8.795265 8.770452C8.795265 9.002579 8.683844 9.118641 8.461003 9.118641C8.228876 9.118641 8.112813 9.002578 8.112813 8.770452C8.112813 8.668316 8.147632 8.584751 8.21727 8.519755C8.286908 8.45476 8.368152 8.422262 8.461003 8.422262ZM9.85376 13.728669C9.85376 13.784379 9.788765 13.963116 9.658774 14.264881S9.463788 14.838233 9.463788 15.079644C9.463788 15.302485 9.781801 15.462652 10.417827 15.560145C11.053854 15.657639 11.747911 15.706385 12.5 15.706385C13.354224 15.706385 14.07149 15.648353 14.651811 15.53229C15.232127 15.416227 15.522284 15.265345 15.522284 15.079644C15.522284 14.828948 15.45961 14.555038 15.334262 14.257917S15.14624 13.784379 15.14624 13.728669C15.14624 13.570824 15.320334 13.28995 15.668524 12.886051S16.190808 12.233776 16.190808 12.140925C16.190808 12.085215 16.225627 11.941297 16.295265 11.709171S16.441504 11.170637 16.52507 10.78995S16.664345 10.019292 16.692201 9.620034C17.119313 9.443618 17.332869 9.160424 17.332869 8.770452C17.332869 8.547611 17.256267 8.36191 17.103064 8.213349S16.761838 7.990508 16.538997 7.990508C16.334726 7.990508 16.153667 8.067109 15.995822 8.220313S15.759053 8.556896 15.759053 8.770452C15.759053 8.779737 15.770659 8.865624 15.793872 9.028112S15.828691 9.28113 15.828691 9.2997C15.828691 9.717527 15.53157 10.228205 14.937326 10.831733C14.890901 10.451047 14.867688 10.051789 14.867688 9.633962C14.867688 9.290414 14.900186 9.021148 14.965181 8.826162S15.104457 8.51047 15.188022 8.464045S15.345868 8.347982 15.410864 8.255132S15.508357 8.03229 15.508357 7.865159C15.508357 7.642318 15.431755 7.456618 15.278552 7.308056S14.937326 7.085215 14.714485 7.085215C14.500929 7.085215 14.317549 7.161817 14.164345 7.31502S13.93454 7.651604 13.93454 7.865159C13.93454 7.883729 13.950789 7.981222 13.983287 8.157639S14.032033 8.43619 14.032033 8.464045C14.032033 8.984008 13.776695 9.777879 13.266017 10.845661C13.071031 9.972866 12.973538 9.304338 12.973538 8.84009C12.973538 8.505828 13.022284 8.201743 13.119777 7.927833S13.266017 7.507684 13.266017 7.489115C13.266017 7.266274 13.189415 7.080573 13.036212 6.932012S12.699628 6.709171 12.486072 6.709171S12.093779 6.785772 11.949861 6.938976S11.733983 7.275559 11.733983 7.489115C11.733983 7.53554 11.78273 7.688743 11.880223 7.948725S12.026462 8.505828 12.026462 8.84009C12.026462 9.304342 11.928969 9.972866 11.733983 10.845661C11.232591 9.787165 10.981894 8.993293 10.981894 8.464045C10.981894 8.426905 10.995822 8.329412 11.023677 8.171566S11.06546 7.911584 11.06546 7.865159C11.06546 7.642318 10.988858 7.456618 10.835655 7.308056S10.494429 7.085215 10.271588 7.085215C10.058032 7.085215 9.874652 7.161817 9.721448 7.31502S9.491643 7.651604 9.491643 7.865159C9.491643 8.004435 9.512535 8.113534 9.554318 8.192457S9.649489 8.338697 9.714485 8.394407S9.844475 8.517434 9.909471 8.596357C9.974466 8.67528 10.027855 8.802949 10.069638 8.979366S10.132312 9.378623 10.132312 9.647889C10.132312 10.056431 10.109099 10.451047 10.062674 10.831733C9.46843 10.228205 9.171309 9.717527 9.171309 9.2997C9.171309 9.086144 9.194522 8.909728 9.240947 8.770452C9.240947 8.556896 9.164345 8.373516 9.011142 8.220313S8.674558 7.990508 8.461003 7.990508C8.238162 7.990508 8.050139 8.067109 7.896936 8.220313S7.667131 8.556896 7.667131 8.770452C7.667131 9.141854 7.880687 9.425048 8.307799 9.620034C8.36351 10.204992 8.461003 10.745846 8.600279 11.242597S8.809192 12.03879 8.809192 12.140925C8.809192 12.224491 8.983287 12.470545 9.331476 12.879087S9.85376 13.570824 9.85376 13.728669ZM12.486072 7.11307C12.588208 7.11307 12.671773 7.145568 12.736769 7.210563S12.834262 7.359125 12.834262 7.46126S12.801764 7.64696 12.736769 7.711956S12.588208 7.809449 12.486072 7.809449C12.263231 7.809449 12.151811 7.693386 12.151811 7.46126C12.151811 7.368409 12.184308 7.287165 12.249304 7.217527S12.393221 7.11307 12.486072 7.11307ZM9.979109 12.544825C9.979109 12.38698 10.255338 12.273237 10.807799 12.2036C11.36026 12.133962 11.919684 12.099143 12.486072 12.099143C13.024606 12.099143 13.579387 12.136283 14.150418 12.210563S15.006964 12.400907 15.006964 12.558753C15.006964 12.688743 14.886258 12.753739 14.644847 12.753739C14.440575 12.753739 14.097029 12.73749 13.614206 12.704992S12.750696 12.656246 12.472145 12.656246C12.184308 12.656246 11.759517 12.672495 11.197772 12.704992C10.636026 12.73749 10.341226 12.753739 10.31337 12.753739C10.090529 12.753739 9.979109 12.684101 9.979109 12.544825Z" fill="#da0a0a" />
<path d="M12.513928 21.201693C11.928969 21.201693 11.3974 21.15991 10.91922 21.076345C10.44104 20.992779 10.20195 20.886001 10.20195 20.756011C10.20195 20.607449 10.308728 20.533169 10.522284 20.533169C10.559424 20.533169 10.84494 20.551739 11.37883 20.58888S12.295728 20.64459 12.527855 20.64459C12.769266 20.64459 13.149954 20.62602 13.669916 20.58888C14.189879 20.551739 14.463788 20.533169 14.491643 20.533169C14.705199 20.533169 14.811978 20.60745 14.811978 20.756011C14.811978 21.053132 14.045961 21.201693 12.513928 21.201693ZM8.461003 26.577738C8.368152 26.577738 8.286908 26.54524 8.21727 26.480245C8.147632 26.415249 8.112813 26.331683 8.112813 26.229548S8.147632 26.043848 8.21727 25.978852S8.368152 25.881359 8.461003 25.881359C8.683844 25.881359 8.795265 25.997422 8.795265 26.229548C8.795265 26.461675 8.683844 26.577738 8.461003 26.577738ZM10.285515 27.455175C10.044104 27.455175 9.923398 27.339112 9.923398 27.106985S10.044104 26.758796 10.285515 26.758796C10.508357 26.758796 10.619777 26.874859 10.619777 27.106985S10.508357 27.455175 10.285515 27.455175ZM14.728412 27.455175C14.635562 27.455175 14.556639 27.420356 14.491643 27.350718S14.39415 27.199836 14.39415 27.106985C14.39415 26.874859 14.505571 26.758796 14.728412 26.758796C14.960539 26.758796 15.076602 26.874859 15.076602 27.106985S14.960539 27.455175 14.728412 27.455175ZM16.538997 26.577738C16.316156 26.577738 16.204735 26.461674 16.204735 26.229548C16.204735 25.997421 16.316156 25.881359 16.538997 25.881359C16.771124 25.881359 16.887187 25.997422 16.887187 26.229548C16.887187 26.331684 16.852368 26.415249 16.78273 26.480245C16.713092 26.54524 16.631848 26.577738 16.538997 26.577738ZM15.14624 21.271331C15.14624 21.215621 15.211235 21.036884 15.341226 20.735119S15.536212 20.161767 15.536212 19.920356C15.536212 19.697515 15.218199 19.537348 14.582173 19.439855C13.946146 19.342361 13.252089 19.293615 12.5 19.293615C11.645776 19.293615 10.92851 19.351647 10.348189 19.46771C9.767873 19.583773 9.477716 19.734655 9.477716 19.920356C9.477716 20.171052 9.54039 20.444962 9.665738 20.742083S9.85376 21.215621 9.85376 21.271331C9.85376 21.429176 9.679666 21.71005 9.331476 22.113949S8.809192 22.766224 8.809192 22.859075C8.809192 22.914785 8.774373 23.058703 8.704735 23.290829S8.558496 23.829363 8.47493 24.21005S8.335655 24.980708 8.307799 25.379966C7.880687 25.556382 7.667131 25.839576 7.667131 26.229548C7.667131 26.452389 7.743733 26.63809 7.896936 26.786651S8.238162 27.009492 8.461003 27.009492C8.665274 27.009492 8.846333 26.932891 9.004178 26.779687S9.240947 26.443104 9.240947 26.229548C9.240947 26.220263 9.229341 26.134376 9.206128 25.971888S9.171309 25.71887 9.171309 25.7003C9.171309 25.282473 9.46843 24.771795 10.062674 24.168267C10.109099 24.548953 10.132312 24.948211 10.132312 25.366038C10.132312 25.709586 10.099814 25.978852 10.034819 26.173838S9.895543 26.48953 9.811978 26.535955S9.654132 26.652018 9.589136 26.744868S9.491643 26.96771 9.491643 27.134841C9.491643 27.357682 9.568245 27.543382 9.721448 27.691944S10.062674 27.914785 10.285515 27.914785C10.499071 27.914785 10.682451 27.838183 10.835655 27.68498S11.06546 27.348396 11.06546 27.134841C11.06546 27.116271 11.049211 27.018778 11.016713 26.842361S10.967967 26.56381 10.967967 26.535955C10.967967 26.015992 11.223305 25.222121 11.733983 24.154339C11.928969 25.027134 12.026462 25.695662 12.026462 26.15991C12.026462 26.494172 11.977716 26.798257 11.880223 27.072167S11.733983 27.492316 11.733983 27.510885C11.733983 27.733726 11.810585 27.919427 11.963788 28.067988S12.300372 28.290829 12.513928 28.290829S12.906221 28.214228 13.050139 28.061024S13.266017 27.724441 13.266017 27.510885C13.266017 27.46446 13.21727 27.311257 13.119777 27.051275S12.973538 26.494172 12.973538 26.15991C12.973538 25.695658 13.071031 25.027134 13.266017 24.154339C13.767409 25.212835 14.018106 26.006707 14.018106 26.535955C14.018106 26.573095 14.004178 26.670588 13.976323 26.828434S13.93454 27.088416 13.93454 27.134841C13.93454 27.357682 14.011142 27.543382 14.164345 27.691944S14.505571 27.914785 14.728412 27.914785C14.941968 27.914785 15.125348 27.838183 15.278552 27.68498S15.508357 27.348396 15.508357 27.134841C15.508357 26.995565 15.487465 26.886466 15.445682 26.807543S15.350511 26.661303 15.285515 26.605593S15.155525 26.482566 15.090529 26.403643C15.025534 26.32472 14.972145 26.197051 14.930362 26.020634S14.867688 25.621377 14.867688 25.352111C14.867688 24.943569 14.890901 24.548953 14.937326 24.168267C15.53157 24.771795 15.828691 25.282473 15.828691 25.7003C15.828691 25.913856 15.805478 26.090272 15.759053 26.229548C15.759053 26.443104 15.835655 26.626484 15.988858 26.779687S16.325442 27.009492 16.538997 27.009492C16.761838 27.009492 16.949861 26.932891 17.103064 26.779687S17.332869 26.443104 17.332869 26.229548C17.332869 25.858146 17.119313 25.574952 16.692201 25.379966C16.63649 24.795008 16.538997 24.254154 16.399721 23.757403S16.190808 22.96121 16.190808 22.859075C16.190808 22.775509 16.016713 22.529455 15.668524 22.120913S15.14624 21.429176 15.14624 21.271331ZM12.513928 27.88693C12.411792 27.88693 12.328227 27.854432 12.263231 27.789437S12.165738 27.640875 12.165738 27.53874S12.198236 27.35304 12.263231 27.288044S12.411792 27.190551 12.513928 27.190551C12.736769 27.190551 12.848189 27.306614 12.848189 27.53874C12.848189 27.631591 12.815692 27.712835 12.750696 27.782473S12.606779 27.88693 12.513928 27.88693ZM15.020891 22.455175C15.020891 22.61302 14.744662 22.726763 14.192201 22.7964C13.63974 22.866038 13.080316 22.900857 12.513928 22.900857C11.975394 22.900857 11.420613 22.863717 10.849582 22.789437S9.993036 22.599093 9.993036 22.441247C9.993036 22.311257 10.113742 22.246261 10.355153 22.246261C10.559425 22.246261 10.902971 22.26251 11.385794 22.295008S12.249304 22.343754 12.527855 22.343754C12.815692 22.343754 13.240483 22.327505 13.802228 22.295008C14.363974 22.26251 14.658774 22.246261 14.68663 22.246261C14.909471 22.246261 15.020891 22.315899 15.020891 22.455175Z" fill="#da0a0a" />
<path d="M22.247356 5.593648Q22.378966 5.548407 22.477673 5.480546T22.732667 5.2893Q22.856052 5.18648 22.952703 5.116562T23.1604 4.989065Q23.292009 4.92326 23.472973 4.882132Q23.904818 4.783425 24.102233 4.631251Q24.344888 4.442062 24.478555 4.158278T24.612221 3.553695Q24.612221 3.12185 24.416863 2.801051T23.917156 2.30957T23.300235 2.138889Q22.905405 2.138889 22.601058 2.326022T22.134254 2.819559T21.971798 3.479664Q21.971798 3.940299 22.204172 4.283719T22.819036 4.779312Q22.884841 4.808102 22.987662 4.812214V4.82044Q22.876616 4.832778 22.786134 4.878019Q22.625734 4.956163 22.354289 5.153577Q22.152761 5.297526 22.029377 5.365387T21.786722 5.433248Q21.712691 5.425023 21.677732 5.385951T21.642773 5.2893Q21.642773 5.190593 21.71886 5.10628T21.914219 5.017855Q21.926557 4.95205 21.864865 4.890358T21.679788 4.828666Q21.626322 4.828666 21.558461 4.865681T21.439189 4.976727T21.387779 5.15769Q21.387779 5.281075 21.472092 5.390064T21.685958 5.566915T21.947121 5.638889Q22.115746 5.638889 22.247356 5.593648ZM22.835488 4.559277Q22.646298 4.388595 22.55376 4.104811T22.461222 3.479664Q22.461222 3.162978 22.555817 2.897702T22.841657 2.474083T23.304348 2.31574Q23.715629 2.31574 23.921269 2.663272T24.12691 3.541357Q24.12691 3.862156 24.034371 4.133601T23.756757 4.567502T23.304348 4.729958Q23.024677 4.729958 22.835488 4.559277Z" fill="#da0a0a" />
<path d="M22.99675 7.079085C22.953421 6.918765 22.883551 6.800691 22.787142 6.724864S22.584034 6.611123 22.467043 6.611123C22.334887 6.611123 22.221688 6.656619 22.127446 6.747612S21.986083 6.948012 21.986083 7.075835C21.986083 7.192825 22.014789 7.311982 22.072201 7.433306S22.20219 7.67162 22.289933 7.784277S22.467043 8.010134 22.558036 8.123875S22.73623 8.367063 22.81964 8.512218S22.962086 8.801444 22.99675 8.944433C23.035747 8.794945 23.098034 8.644915 23.18361 8.494344S23.357471 8.210534 23.448463 8.094627C23.539456 7.97872 23.628282 7.864979 23.714942 7.753405S23.873096 7.529715 23.929424 7.417057S24.013917 7.197158 24.013917 7.095333C24.013917 6.958844 23.967879 6.844021 23.875804 6.750861C23.783728 6.657702 23.670529 6.611123 23.536206 6.611123C23.278394 6.611123 23.098574 6.76711 22.99675 7.079085Z" fill="#da0a0a" />
<path d="M2.752644 29.406352Q2.621034 29.451593 2.522327 29.519454T2.267333 29.7107Q2.143948 29.81352 2.047297 29.883438T1.8396 30.010935Q1.707991 30.07674 1.527027 30.117868Q1.095182 30.216575 0.897767 30.368749Q0.655112 30.557938 0.521445 30.841722T0.387779 31.446305Q0.387779 31.87815 0.583137 32.198949T1.082844 32.69043T1.699765 32.861111Q2.094595 32.861111 2.398942 32.673978T2.865746 32.180441T3.028202 31.520336Q3.028202 31.059701 2.795828 30.716281T2.180964 30.220688Q2.115159 30.191898 2.012338 30.187786V30.17956Q2.123384 30.167222 2.213866 30.121981Q2.374266 30.043837 2.645711 29.846423Q2.847239 29.702474 2.970623 29.634613T3.213278 29.566752Q3.287309 29.574977 3.322268 29.614049T3.357227 29.7107Q3.357227 29.809407 3.28114 29.89372T3.085781 29.982145Q3.073443 30.04795 3.135135 30.109642T3.320212 30.171334Q3.373678 30.171334 3.441539 30.134319T3.560811 30.023273T3.612221 29.84231Q3.612221 29.718925 3.527908 29.609936T3.314042 29.433085T3.052879 29.361111Q2.884254 29.361111 2.752644 29.406352ZM2.164512 30.440723Q2.353702 30.611405 2.44624 30.895189T2.538778 31.520336Q2.538778 31.837022 2.444183 32.102298T2.158343 32.525917T1.695652 32.68426Q1.284371 32.68426 1.078731 32.336728T0.87309 31.458643Q0.87309 31.137844 0.965629 30.866399T1.243243 30.432498T1.695652 30.270042Q1.975323 30.270042 2.164512 30.440723Z" fill="#da0a0a" />
<path d="M2.00325 27.920915C2.046579 28.081235 2.116449 28.199309 2.212858 28.275136S2.415966 28.388877 2.532957 28.388877C2.665113 28.388877 2.778312 28.343381 2.872554 28.252388S3.013917 28.051988 3.013917 27.924165C3.013917 27.807175 2.985211 27.688018 2.927799 27.566694S2.79781 27.32838 2.710067 27.215723S2.532957 26.989866 2.441964 26.876125S2.26377 26.632937 2.18036 26.487782S2.037914 26.198556 2.00325 26.055567C1.964253 26.205055 1.901966 26.355085 1.81639 26.505656S1.642529 26.789466 1.551537 26.905373C1.460544 27.02128 1.371718 27.135021 1.285058 27.246595S1.126904 27.470285 1.070576 27.582943S0.986083 27.802842 0.986083 27.904667C0.986083 28.041156 1.032121 28.155979 1.124196 28.249139C1.216272 28.342298 1.329471 28.388877 1.463794 28.388877C1.721606 28.388877 1.901426 28.23289 2.00325 27.920915Z" fill="#da0a0a" />
</svg>
