<svg width="25.000000" height="35.000000" id="card-lightclub3">
<rect x="0" y="0" rx="1.25" ry="1.25" width="25" height="35.0" stroke="#010101" fill="#fffdfa" />
<path d="M12.40085 6.254721C12.396128 6.396364 12.390227 6.51086 12.383144 6.598206C12.376062 6.685552 12.358357 6.796506 12.330028 6.931067S12.267469 7.176582 12.227337 7.263928S12.127006 7.449245 12.046742 7.557838S11.872049 7.756138 11.763456 7.826959S11.517941 7.966242 11.352691 8.032342S10.998584 8.150378 10.786119 8.188149V8.329792H14.213881V8.188149C14.001416 8.150378 13.812559 8.097262 13.647309 8.028801S13.343957 7.890699 13.233003 7.819877S13.02762 7.658168 12.949717 7.547214S12.811615 7.338291 12.769122 7.253305S12.692399 7.057365 12.666431 6.920444S12.623938 6.673749 12.616856 6.591124C12.609773 6.508498 12.603872 6.396364 12.59915 6.254721C12.712465 6.462464 12.804533 6.608829 12.875354 6.693815C13.002833 6.854344 13.159821 6.981823 13.346317 7.076251C13.532814 7.17068 13.71577 7.217894 13.895184 7.217894C14.197356 7.217894 14.457035 7.10576 14.674221 6.881492S15.0 6.386922 15.0 6.070585C15.0 5.763692 14.90203 5.501653 14.706091 5.284466S14.272899 4.958687 13.994334 4.958687C13.899906 4.958687 13.812559 4.971671 13.732295 4.997639S13.571766 5.056657 13.491501 5.096789L13.342776 5.171152C13.526912 4.906752 13.61898 4.656515 13.61898 4.420444C13.61898 4.122993 13.509207 3.868036 13.28966 3.655571S12.806893 3.336874 12.5 3.336874S11.929887 3.443107 11.71034 3.655571S11.38102 4.122993 11.38102 4.420444C11.38102 4.656515 11.473088 4.906752 11.657224 5.171152C11.624174 5.156988 11.57814 5.135741 11.519122 5.107413S11.416431 5.057838 11.388102 5.043673S11.323182 5.015345 11.278329 5.00118S11.189802 4.976393 11.147309 4.969311S11.057601 4.958687 11.005666 4.958687C10.727101 4.958687 10.489849 5.06728 10.293909 5.284466S10.0 5.763692 10.0 6.070585C10.0 6.386922 10.108593 6.657224 10.325779 6.881492S10.802644 7.217894 11.104816 7.217894C11.624174 7.217894 12.056183 6.896837 12.40085 6.254721Z" fill="#010101" />
<path d="M12.59915 28.745279C12.603872 28.603636 12.609773 28.48914 12.616856 28.401794C12.623938 28.314448 12.641643 28.203494 12.669972 28.068933S12.732531 27.823418 12.772663 27.736072S12.872994 27.550755 12.953258 27.442162S13.127951 27.243862 13.236544 27.173041S13.482059 27.033758 13.647309 26.967658S14.001416 26.849622 14.213881 26.811851V26.670208H10.786119V26.811851C10.998584 26.849622 11.187441 26.902738 11.352691 26.971199S11.656043 27.109301 11.766997 27.180123S11.97238 27.341832 12.050283 27.452786S12.188385 27.661709 12.230878 27.746695S12.307601 27.942635 12.333569 28.079556S12.376062 28.326251 12.383144 28.408876C12.390227 28.491502 12.396128 28.603636 12.40085 28.745279C12.287535 28.537536 12.195467 28.391171 12.124646 28.306185C11.997167 28.145656 11.840179 28.018177 11.653683 27.923749C11.467186 27.82932 11.28423 27.782106 11.104816 27.782106C10.802644 27.782106 10.542965 27.89424 10.325779 28.118508S10.0 28.613078 10.0 28.929415C10.0 29.236308 10.09797 29.498347 10.293909 29.715534S10.727101 30.041313 11.005666 30.041313C11.100094 30.041313 11.187441 30.028329 11.267705 30.002361S11.428234 29.943343 11.508499 29.903211L11.657224 29.828848C11.473088 30.093248 11.38102 30.343485 11.38102 30.579556C11.38102 30.877007 11.490793 31.131964 11.71034 31.344429S12.193107 31.663126 12.5 31.663126S13.070113 31.556893 13.28966 31.344429S13.61898 30.877007 13.61898 30.579556C13.61898 30.343485 13.526912 30.093248 13.342776 29.828848C13.375826 29.843012 13.42186 29.864259 13.480878 29.892587S13.583569 29.942162 13.611898 29.956327S13.676818 29.984655 13.721671 29.99882S13.810198 30.023607 13.852691 30.030689S13.942399 30.041313 13.994334 30.041313C14.272899 30.041313 14.510151 29.93272 14.706091 29.715534S15.0 29.236308 15.0 28.929415C15.0 28.613078 14.891407 28.342776 14.674221 28.118508S14.197356 27.782106 13.895184 27.782106C13.375826 27.782106 12.943817 28.103163 12.59915 28.745279Z" fill="#010101" />
<path d="M12.40085 17.921388C12.396128 18.063031 12.390227 18.177526 12.383144 18.264873C12.376062 18.352219 12.358357 18.463173 12.330028 18.597734S12.267469 18.843249 12.227337 18.930595S12.127006 19.115911 12.046742 19.224504S11.872049 19.422805 11.763456 19.493626S11.517941 19.632909 11.352691 19.699008S10.998584 19.817045 10.786119 19.854816V19.996459H14.213881V19.854816C14.001416 19.817044 13.812559 19.763928 13.647309 19.695467S13.343957 19.557365 13.233003 19.486544S13.02762 19.324835 12.949717 19.213881S12.811615 19.004958 12.769122 18.919972S12.692399 18.724032 12.666431 18.58711S12.623938 18.340416 12.616856 18.25779C12.609773 18.175165 12.603872 18.063031 12.59915 17.921388C12.712465 18.129131 12.804533 18.275496 12.875354 18.360482C13.002833 18.521011 13.159821 18.648489 13.346317 18.742918C13.532814 18.837346 13.71577 18.884561 13.895184 18.884561C14.197356 18.884561 14.457035 18.772427 14.674221 18.548159S15.0 18.053589 15.0 17.737252C15.0 17.430359 14.90203 17.168319 14.706091 16.951133S14.272899 16.625354 13.994334 16.625354C13.899906 16.625354 13.812559 16.638338 13.732295 16.664306S13.571766 16.723324 13.491501 16.763456L13.342776 16.837819C13.526912 16.573419 13.61898 16.323182 13.61898 16.08711C13.61898 15.78966 13.509207 15.534703 13.28966 15.322238S12.806893 15.003541 12.5 15.003541S11.929887 15.109773 11.71034 15.322238S11.38102 15.78966 11.38102 16.08711C11.38102 16.323182 11.473088 16.573419 11.657224 16.837819C11.624174 16.823654 11.57814 16.802408 11.519122 16.774079S11.416431 16.724504 11.388102 16.71034S11.323182 16.682011 11.278329 16.667847S11.189802 16.643059 11.147309 16.635977S11.057601 16.625354 11.005666 16.625354C10.727101 16.625354 10.489849 16.733947 10.293909 16.951133S10.0 17.430359 10.0 17.737252C10.0 18.053589 10.108593 18.32389 10.325779 18.548159S10.802644 18.884561 11.104816 18.884561C11.624174 18.884561 12.056183 18.563504 12.40085 17.921388Z" fill="#010101" />
<path d="M23.887681 5.458182Q24.20788 5.277476 24.20788 4.928744Q24.20788 4.744867 24.09375 4.611715T23.776721 4.478563Q23.65625 4.478563 23.570652 4.541969T23.485054 4.649758Q23.485054 4.656099 23.54212 4.697313T23.646739 4.808273T23.694293 4.985809Q23.694293 5.182367 23.526268 5.293327T23.085598 5.404287Q22.407156 5.404287 22.407156 4.649758Q22.407156 4.33907 22.572011 4.152023T23.066576 3.945954H23.301178Q23.345562 3.945954 23.370924 3.907911T23.396286 3.819143Q23.396286 3.762077 23.370924 3.720864T23.301178 3.673309H23.066576Q22.819293 3.647947 22.67029 3.451389T22.521286 2.975845Q22.521286 2.671498 22.692482 2.509813T23.091938 2.348128Q23.307518 2.348128 23.462862 2.471769T23.618207 2.81099Q23.618207 2.950483 23.564312 2.998037T23.459692 3.055103T23.408967 3.070954Q23.408967 3.115338 23.494565 3.178744T23.700634 3.24215Q23.903533 3.24215 24.017663 3.115338T24.131793 2.791969Q24.131793 2.48128 23.840127 2.310085T23.085598 2.138889Q22.591033 2.138889 22.267663 2.354469T21.944293 2.975845Q21.944293 3.24215 22.131341 3.470411T22.66712 3.79378V3.819143Q22.312047 3.857186 22.052083 4.044233T21.79212 4.637077Q21.79212 5.150664 22.166214 5.394777T23.10462 5.638889Q23.567482 5.638889 23.887681 5.458182Z" fill="#010101" />
<path d="M22.95373 7.974424C22.951527 8.040523 22.948773 8.093954 22.945468 8.134715C22.942163 8.175476 22.933901 8.227254 22.920681 8.290048S22.891487 8.404621 22.872759 8.445382S22.825938 8.531862 22.788482 8.582538S22.706959 8.675078 22.656283 8.708127S22.54171 8.773125 22.464595 8.803971S22.299346 8.859054 22.200197 8.876681V8.94278H23.799803V8.876681C23.700654 8.859054 23.612521 8.834267 23.535405 8.802319S23.393843 8.737872 23.342065 8.704822S23.24622 8.629359 23.209866 8.577581S23.145419 8.480084 23.125589 8.440425S23.089785 8.348987 23.077667 8.285091S23.057837 8.169968 23.054532 8.13141C23.051227 8.092852 23.048473 8.040523 23.04627 7.974424C23.099149 8.071369 23.142114 8.139672 23.175163 8.179332C23.234653 8.254245 23.307913 8.313734 23.394944 8.3578C23.481975 8.401866 23.567354 8.4239 23.651079 8.4239C23.792092 8.4239 23.913274 8.371571 24.014626 8.266914S24.166655 8.036117 24.166655 7.888494C24.166655 7.745279 24.120936 7.622995 24.029499 7.521642S23.827344 7.369614 23.697349 7.369614C23.653283 7.369614 23.612521 7.375673 23.575065 7.387791S23.500152 7.415333 23.462696 7.434061L23.393292 7.468763C23.479221 7.345377 23.522186 7.228602 23.522186 7.118436C23.522186 6.979627 23.470958 6.860648 23.368504 6.761499S23.143215 6.612775 23.0 6.612775S22.73395 6.66235 22.631496 6.761499S22.477814 6.979627 22.477814 7.118436C22.477814 7.228602 22.520779 7.345377 22.606708 7.468763C22.591285 7.462153 22.569803 7.452238 22.542261 7.439018S22.494339 7.415883 22.481119 7.409273S22.450824 7.396054 22.429892 7.389444S22.38858 7.377876 22.36875 7.374571S22.326887 7.369614 22.302651 7.369614C22.172656 7.369614 22.061939 7.42029 21.970501 7.521642S21.833345 7.745279 21.833345 7.888494C21.833345 8.036117 21.884021 8.162256 21.985374 8.266914S22.207908 8.4239 22.348921 8.4239C22.591285 8.4239 22.792887 8.274074 22.95373 7.974424Z" fill="#010101" />
<path d="M1.112319 29.541818Q0.79212 29.722524 0.79212 30.071256Q0.79212 30.255133 0.90625 30.388285T1.223279 30.521437Q1.34375 30.521437 1.429348 30.458031T1.514946 30.350242Q1.514946 30.343901 1.45788 30.302687T1.353261 30.191727T1.305707 30.014191Q1.305707 29.817633 1.473732 29.706673T1.914402 29.595713Q2.592844 29.595713 2.592844 30.350242Q2.592844 30.66093 2.427989 30.847977T1.933424 31.054046H1.698822Q1.654438 31.054046 1.629076 31.092089T1.603714 31.180857Q1.603714 31.237923 1.629076 31.279136T1.698822 31.326691H1.933424Q2.180707 31.352053 2.32971 31.548611T2.478714 32.024155Q2.478714 32.328502 2.307518 32.490187T1.908062 32.651872Q1.692482 32.651872 1.537138 32.528231T1.381793 32.18901Q1.381793 32.049517 1.435688 32.001963T1.540308 31.944897T1.591033 31.929046Q1.591033 31.884662 1.505435 31.821256T1.299366 31.75785Q1.096467 31.75785 0.982337 31.884662T0.868207 32.208031Q0.868207 32.51872 1.159873 32.689915T1.914402 32.861111Q2.408967 32.861111 2.732337 32.645531T3.055707 32.024155Q3.055707 31.75785 2.868659 31.529589T2.33288 31.20622V31.180857Q2.687953 31.142814 2.947917 30.955767T3.20788 30.362923Q3.20788 29.849336 2.833786 29.605223T1.89538 29.361111Q1.432518 29.361111 1.112319 29.541818Z" fill="#010101" />
<path d="M2.04627 27.025576C2.048473 26.959477 2.051227 26.906046 2.054532 26.865285C2.057837 26.824524 2.066099 26.772746 2.079319 26.709952S2.108513 26.595379 2.127241 26.554618S2.174062 26.468138 2.211518 26.417462S2.293041 26.324922 2.343717 26.291873S2.45829 26.226875 2.535405 26.196029S2.700654 26.140946 2.799803 26.123319V26.05722H1.200197V26.123319C1.299346 26.140946 1.387479 26.165733 1.464595 26.197681S1.606157 26.262128 1.657935 26.295178S1.75378 26.370641 1.790134 26.422419S1.854581 26.519916 1.874411 26.559575S1.910215 26.651013 1.922333 26.714909S1.942163 26.830032 1.945468 26.86859C1.948773 26.907148 1.951527 26.959477 1.95373 27.025576C1.900851 26.928631 1.857886 26.860328 1.824837 26.820668C1.765347 26.745755 1.692087 26.686266 1.605056 26.6422C1.518025 26.598134 1.432646 26.5761 1.348921 26.5761C1.207908 26.5761 1.086726 26.628429 0.985374 26.733086S0.833345 26.963883 0.833345 27.111506C0.833345 27.254721 0.879064 27.377005 0.970501 27.478358S1.172656 27.630386 1.302651 27.630386C1.346717 27.630386 1.387479 27.624327 1.424935 27.612209S1.499848 27.584667 1.537304 27.565939L1.606708 27.531237C1.520779 27.654623 1.477814 27.771398 1.477814 27.881564C1.477814 28.020373 1.529042 28.139352 1.631496 28.238501S1.856785 28.387225 2.0 28.387225S2.26605 28.33765 2.368504 28.238501S2.522186 28.020373 2.522186 27.881564C2.522186 27.771398 2.479221 27.654623 2.393292 27.531237C2.408715 27.537847 2.430197 27.547762 2.457739 27.560982S2.505661 27.584117 2.518881 27.590727S2.549176 27.603946 2.570108 27.610556S2.61142 27.622124 2.63125 27.625429S2.673113 27.630386 2.697349 27.630386C2.827344 27.630386 2.938061 27.57971 3.029499 27.478358S3.166655 27.254721 3.166655 27.111506C3.166655 26.963883 3.115979 26.837744 3.014626 26.733086S2.792092 26.5761 2.651079 26.5761C2.408715 26.5761 2.207113 26.725926 2.04627 27.025576Z" fill="#010101" />
</svg>
