<svg width="150.000000" height="210.000000" id="card-webclub3">
<radialGradient id="card-webwhitegradient" cx="75.0" cy="105.0" r="150" gradientTransform="matrix(1 0 0 1 0 -.25)" gradientUnits="userSpaceOnUse">
<stop stop-color="#FDFAF4" offset=".15"/>
<stop stop-color="#FDF9F2" offset=".35"/>
<stop stop-color="#FCF7F1" offset=".5"/>
<stop stop-color="#FDFDF8" offset=".75"/>
<stop stop-color="#FFFDFA" offset="1"/>
</radialGradient>
<rect x="0" y="0" rx="7.5" ry="7.5" width="150" height="210.0" stroke="#010101" fill="url(#card-webwhitegradient)" />
<path d="M74.405099 37.528329C74.376771 38.378187 74.34136 39.065157 74.298867 39.589235C74.256374 40.113313 74.150142 40.779037 73.98017 41.586402S73.604816 43.059492 73.364023 43.583569S72.762038 44.695469 72.280453 45.347025S71.232293 46.536827 70.580737 46.961756S69.107647 47.797452 68.116147 48.194051S65.991501 48.902268 64.716714 49.128895V49.978754H85.283286V49.128895C84.008499 48.902266 82.875353 48.583571 81.883853 48.172805S80.063741 47.344193 79.398017 46.919263S78.165722 45.94901 77.6983 45.283286S76.869688 44.029745 76.614731 43.51983S76.154392 42.344191 75.998584 41.522663S75.743626 40.042494 75.701133 39.546742C75.65864 39.05099 75.62323 38.378187 75.594901 37.528329C76.274788 38.774786 76.827195 39.652975 77.252125 40.16289C78.016997 41.126064 78.958925 41.890936 80.077904 42.457507C81.196882 43.024078 82.294619 43.307365 83.371105 43.307365C85.184137 43.307365 86.742208 42.634562 88.045326 41.288952S90.0 38.321531 90.0 36.423513C90.0 34.582154 89.412183 33.009916 88.236544 31.706799S85.637392 29.752125 83.966006 29.752125C83.399435 29.752125 82.875353 29.830028 82.393768 29.985836S81.430593 30.339943 80.949008 30.580737L80.056657 31.026912C81.161473 29.440511 81.713881 27.939092 81.713881 26.522663C81.713881 24.73796 81.055241 23.208215 79.73796 21.933428S76.841358 20.021246 75.0 20.021246S71.57932 20.65864 70.26204 21.933428S68.286119 24.73796 68.286119 26.522663C68.286119 27.939092 68.838527 29.440511 69.943343 31.026912C69.745042 30.941926 69.468837 30.814448 69.114731 30.644476S68.498584 30.347025 68.328612 30.26204S67.939093 30.092068 67.669972 30.007082S67.13881 29.858357 66.883853 29.815864S66.345608 29.752125 66.033994 29.752125C64.362608 29.752125 62.939095 30.403681 61.763456 31.706799S60.0 34.582154 60.0 36.423513C60.0 38.321531 60.651557 39.943341 61.954674 41.288952S64.815863 43.307365 66.628895 43.307365C69.745041 43.307365 72.337096 41.381021 74.405099 37.528329Z" fill="#010101" />
<path d="M75.594901 172.471671C75.623229 171.621813 75.65864 170.934843 75.701133 170.410765C75.743626 169.886687 75.849858 169.220963 76.01983 168.413598S76.395184 166.940508 76.635977 166.416431S77.237962 165.304531 77.719547 164.652975S78.767707 163.463173 79.419263 163.038244S80.892353 162.202548 81.883853 161.805949S84.008499 161.097732 85.283286 160.871105V160.021246H64.716714V160.871105C65.991501 161.097734 67.124647 161.416429 68.116147 161.827195S69.936259 162.655807 70.601983 163.080737S71.834278 164.05099 72.3017 164.716714S73.130312 165.970255 73.385269 166.48017S73.845608 167.655809 74.001416 168.477337S74.256374 169.957506 74.298867 170.453258C74.34136 170.94901 74.37677 171.621813 74.405099 172.471671C73.725212 171.225214 73.172805 170.347025 72.747875 169.83711C71.983003 168.873936 71.041075 168.109064 69.922096 167.542493C68.803118 166.975922 67.705381 166.692635 66.628895 166.692635C64.815863 166.692635 63.257792 167.365438 61.954674 168.711048S60.0 171.678469 60.0 173.576487C60.0 175.417846 60.587817 176.990084 61.763456 178.293201S64.362608 180.247875 66.033994 180.247875C66.600565 180.247875 67.124647 180.169972 67.606232 180.014164S68.569407 179.660057 69.050992 179.419263L69.943343 178.973088C68.838527 180.559489 68.286119 182.060908 68.286119 183.477337C68.286119 185.26204 68.944759 186.791785 70.26204 188.066572S73.158642 189.978754 75.0 189.978754S78.42068 189.34136 79.73796 188.066572S81.713881 185.26204 81.713881 183.477337C81.713881 182.060908 81.161473 180.559489 80.056657 178.973088C80.254958 179.058074 80.531163 179.185552 80.885269 179.355524S81.501416 179.652975 81.671388 179.73796S82.060907 179.907932 82.330028 179.992918S82.86119 180.141643 83.116147 180.184136S83.654392 180.247875 83.966006 180.247875C85.637392 180.247875 87.060905 179.596319 88.236544 178.293201S90.0 175.417846 90.0 173.576487C90.0 171.678469 89.348443 170.056659 88.045326 168.711048S85.184137 166.692635 83.371105 166.692635C80.254959 166.692635 77.662904 168.618979 75.594901 172.471671Z" fill="#010101" />
<path d="M74.405099 107.528329C74.376771 108.378187 74.34136 109.065157 74.298867 109.589235C74.256374 110.113313 74.150142 110.779037 73.98017 111.586402S73.604816 113.059492 73.364023 113.583569S72.762038 114.695469 72.280453 115.347025S71.232293 116.536827 70.580737 116.961756S69.107647 117.797452 68.116147 118.194051S65.991501 118.902268 64.716714 119.128895V119.978754H85.283286V119.128895C84.008499 118.902266 82.875353 118.583571 81.883853 118.172805S80.063741 117.344193 79.398017 116.919263S78.165722 115.94901 77.6983 115.283286S76.869688 114.029745 76.614731 113.51983S76.154392 112.344191 75.998584 111.522663S75.743626 110.042494 75.701133 109.546742C75.65864 109.05099 75.62323 108.378187 75.594901 107.528329C76.274788 108.774786 76.827195 109.652975 77.252125 110.16289C78.016997 111.126064 78.958925 111.890936 80.077904 112.457507C81.196882 113.024078 82.294619 113.307365 83.371105 113.307365C85.184137 113.307365 86.742208 112.634562 88.045326 111.288952S90.0 108.321531 90.0 106.423513C90.0 104.582154 89.412183 103.009916 88.236544 101.706799S85.637392 99.752125 83.966006 99.752125C83.399435 99.752125 82.875353 99.830028 82.393768 99.985836S81.430593 100.339943 80.949008 100.580737L80.056657 101.026912C81.161473 99.440511 81.713881 97.939092 81.713881 96.522663C81.713881 94.73796 81.055241 93.208215 79.73796 91.933428S76.841358 90.021246 75.0 90.021246S71.57932 90.65864 70.26204 91.933428S68.286119 94.73796 68.286119 96.522663C68.286119 97.939092 68.838527 99.440511 69.943343 101.026912C69.745042 100.941926 69.468837 100.814448 69.114731 100.644476S68.498584 100.347025 68.328612 100.26204S67.939093 100.092068 67.669972 100.007082S67.13881 99.858357 66.883853 99.815864S66.345608 99.752125 66.033994 99.752125C64.362608 99.752125 62.939095 100.403681 61.763456 101.706799S60.0 104.582154 60.0 106.423513C60.0 108.321531 60.651557 109.943341 61.954674 111.288952S64.815863 113.307365 66.628895 113.307365C69.745041 113.307365 72.337096 111.381021 74.405099 107.528329Z" fill="#010101" />
<path d="M143.326087 32.749094Q145.247283 31.664855 145.247283 29.572464Q145.247283 28.469203 144.5625 27.67029T142.660326 26.871377Q141.9375 26.871377 141.423913 27.251812T140.910326 27.898551Q140.910326 27.936594 141.252717 28.183877T141.880435 28.849638T142.165761 29.914855Q142.165761 31.094203 141.157609 31.759964T138.513587 32.425725Q134.442935 32.425725 134.442935 27.898551Q134.442935 26.03442 135.432065 24.912138T138.399457 23.675725H139.807065Q140.07337 23.675725 140.225543 23.447464T140.377717 22.914855Q140.377717 22.572464 140.225543 22.325181T139.807065 22.039855H138.399457Q136.915761 21.887681 136.021739 20.708333T135.127717 17.855072Q135.127717 16.028986 136.154891 15.058877T138.55163 14.088768Q139.845109 14.088768 140.777174 14.830616T141.709239 16.865942Q141.709239 17.702899 141.38587 17.988225T140.758152 18.330616T140.453804 18.425725Q140.453804 18.692029 140.967391 19.072464T142.203804 19.452899Q143.421196 19.452899 144.105978 18.692029T144.790761 16.751812Q144.790761 14.887681 143.040761 13.860507T138.513587 12.833333Q135.546196 12.833333 133.605978 14.126812T131.665761 17.855072Q131.665761 19.452899 132.788043 20.822464T136.002717 22.762681V22.914855Q133.872283 23.143116 132.3125 24.265399T130.752717 27.822464Q130.752717 30.903986 132.997283 32.368659T138.627717 33.833333Q141.404891 33.833333 143.326087 32.749094Z" fill="#010101" />
<path d="M137.722382 47.846542C137.709162 48.243138 137.692638 48.563721 137.672808 48.808288C137.652978 49.052856 137.603403 49.363524 137.524084 49.74029S137.348921 50.427725 137.236552 50.672292S136.955628 51.191174 136.730891 51.49523S136.241754 52.050466 135.937698 52.248764S135.250263 52.638751 134.787568 52.823829S133.796076 53.154327 133.201181 53.260085V53.656682H142.798819V53.260085C142.203924 53.154326 141.675128 53.005603 141.212432 52.813914S140.363055 52.427232 140.052387 52.228934S139.477322 51.776154 139.259194 51.465486S138.872513 50.880506 138.753534 50.642548S138.538711 50.093922 138.466001 49.710546S138.347022 49.019807 138.327192 48.788458C138.307362 48.55711 138.290838 48.243138 138.277618 47.846542C138.594895 48.428216 138.852683 48.838033 139.050981 49.075991C139.407918 49.525468 139.84748 49.882405 140.369665 50.146802C140.89185 50.411199 141.404121 50.543398 141.906477 50.543398C142.75255 50.543398 143.479642 50.229427 144.087758 49.601482S144.99993 48.216699 144.99993 47.330966C144.99993 46.471674 144.725618 45.73797 144.176992 45.129855S142.964067 44.217683 142.184094 44.217683C141.919697 44.217683 141.675128 44.254037 141.45039 44.326747S141.000914 44.491995 140.776176 44.604364L140.35975 44.812578C140.875325 44.072265 141.133113 43.371609 141.133113 42.710616C141.133113 41.877763 140.825751 41.163889 140.211026 40.568994S138.859292 39.676652 138.0 39.676652S136.403699 39.974099 135.788974 40.568994S134.866887 41.877763 134.866887 42.710616C134.866887 43.371609 135.124675 44.072265 135.64025 44.812578C135.547711 44.772918 135.418816 44.713428 135.253569 44.634109S134.966036 44.4953 134.886717 44.455641S134.704943 44.376321 134.579354 44.336662S134.331481 44.267257 134.212502 44.247427S133.961324 44.217683 133.815906 44.217683C133.035933 44.217683 132.371634 44.521739 131.823008 45.129855S131.00007 46.471674 131.00007 47.330966C131.00007 48.216699 131.304127 48.973536 131.912242 49.601482S133.24745 50.543398 134.093523 50.543398C135.54771 50.543398 136.757324 49.644447 137.722382 47.846542Z" fill="#010101" />
<path d="M6.673913 177.250906Q4.752717 178.335145 4.752717 180.427536Q4.752717 181.530797 5.4375 182.32971T7.339674 183.128623Q8.0625 183.128623 8.576087 182.748188T9.089674 182.101449Q9.089674 182.063406 8.747283 181.816123T8.119565 181.150362T7.834239 180.085145Q7.834239 178.905797 8.842391 178.240036T11.486413 177.574275Q15.557065 177.574275 15.557065 182.101449Q15.557065 183.96558 14.567935 185.087862T11.600543 186.324275H10.192935Q9.92663 186.324275 9.774457 186.552536T9.622283 187.085145Q9.622283 187.427536 9.774457 187.674819T10.192935 187.960145H11.600543Q13.084239 188.112319 13.978261 189.291667T14.872283 192.144928Q14.872283 193.971014 13.845109 194.941123T11.44837 195.911232Q10.154891 195.911232 9.222826 195.169384T8.290761 193.134058Q8.290761 192.297101 8.61413 192.011775T9.241848 191.669384T9.546196 191.574275Q9.546196 191.307971 9.032609 190.927536T7.796196 190.547101Q6.578804 190.547101 5.894022 191.307971T5.209239 193.248188Q5.209239 195.112319 6.959239 196.139493T11.486413 197.166667Q14.453804 197.166667 16.394022 195.873188T18.334239 192.144928Q18.334239 190.547101 17.211957 189.177536T13.997283 187.237319V187.085145Q16.127717 186.856884 17.6875 185.734601T19.247283 182.177536Q19.247283 179.096014 17.002717 177.631341T11.372283 176.166667Q8.595109 176.166667 6.673913 177.250906Z" fill="#010101" />
<path d="M12.277618 162.153458C12.290838 161.756862 12.307362 161.436279 12.327192 161.191712C12.347022 160.947144 12.396597 160.636476 12.475916 160.25971S12.651079 159.572275 12.763448 159.327708S13.044372 158.808826 13.269109 158.50477S13.758246 157.949534 14.062302 157.751236S14.749737 157.361249 15.212432 157.176171S16.203924 156.845673 16.798819 156.739915V156.343318H7.201181V156.739915C7.796076 156.845674 8.324872 156.994397 8.787568 157.186086S9.636945 157.572768 9.947613 157.771066S10.522678 158.223846 10.740806 158.534514S11.127487 159.119494 11.246466 159.357452S11.461289 159.906078 11.533999 160.289454S11.652978 160.980193 11.672808 161.211542C11.692638 161.44289 11.709162 161.756862 11.722382 162.153458C11.405105 161.571784 11.147317 161.161967 10.949019 160.924009C10.592082 160.474532 10.15252 160.117595 9.630335 159.853198C9.10815 159.588801 8.595879 159.456602 8.093523 159.456602C7.24745 159.456602 6.520358 159.770573 5.912242 160.398518S5.00007 161.783301 5.00007 162.669034C5.00007 163.528326 5.274382 164.26203 5.823008 164.870145S7.035933 165.782317 7.815906 165.782317C8.080303 165.782317 8.324872 165.745963 8.54961 165.673253S8.999086 165.508005 9.223824 165.395636L9.64025 165.187422C9.124675 165.927735 8.866887 166.628391 8.866887 167.289384C8.866887 168.122237 9.174249 168.836111 9.788974 169.431006S11.140708 170.323348 12.0 170.323348S13.596301 170.025901 14.211026 169.431006S15.133113 168.122237 15.133113 167.289384C15.133113 166.628391 14.875325 165.927735 14.35975 165.187422C14.452289 165.227082 14.581184 165.286572 14.746431 165.365891S15.033964 165.5047 15.113283 165.544359S15.295057 165.623679 15.420646 165.663338S15.668519 165.732743 15.787498 165.752573S16.038676 165.782317 16.184094 165.782317C16.964067 165.782317 17.628366 165.478261 18.176992 164.870145S18.99993 163.528326 18.99993 162.669034C18.99993 161.783301 18.695873 161.026464 18.087758 160.398518S16.75255 159.456602 15.906477 159.456602C14.45229 159.456602 13.242676 160.355553 12.277618 162.153458Z" fill="#010101" />
</svg>
