<svg width="150.000000" height="210.000000" id="card-webdiamond10">
<radialGradient id="card-webwhitegradient" cx="75.0" cy="105.0" r="150" gradientTransform="matrix(1 0 0 1 0 -.25)" gradientUnits="userSpaceOnUse">
<stop stop-color="#FDFAF4" offset=".15"/>
<stop stop-color="#FDF9F2" offset=".35"/>
<stop stop-color="#FCF7F1" offset=".5"/>
<stop stop-color="#FDFDF8" offset=".75"/>
<stop stop-color="#FFFDFA" offset="1"/>
</radialGradient>
<rect x="0" y="0" rx="7.5" ry="7.5" width="150" height="210.0" stroke="#010101" fill="url(#card-webwhitegradient)" />
<path d="M45.041725 20.0C44.374131 21.335188 42.760777 23.734353 40.201669 27.197497C37.642561 30.66064 35.584131 33.254534 34.026426 34.979138C35.973576 37.204449 38.066758 39.847024 40.305981 42.906815C42.545203 45.966619 44.123783 48.331015 45.041725 50.0C47.100138 46.328234 50.744103 41.32128 55.973574 34.979138C50.604993 28.497928 46.961057 23.504868 45.041725 20.0Z" fill="#da0a0a" />
<path d="M44.958275 190.0C45.625869 188.664812 47.239223 186.265647 49.798331 182.802503C52.357439 179.33936 54.415869 176.745466 55.973574 175.020862C54.026424 172.795551 51.933242 170.152976 49.694019 167.093185C47.454797 164.033381 45.876217 161.668985 44.958275 160.0C42.899862 163.671766 39.255897 168.67872 34.026426 175.020862C39.395007 181.502072 43.038943 186.495132 44.958275 190.0Z" fill="#da0a0a" />
<path d="M45.041725 66.666667C44.374131 68.001854 42.760777 70.40102 40.201669 73.864163C37.642561 77.327306 35.584131 79.921201 34.026426 81.645804C35.973576 83.871116 38.066758 86.51369 40.305981 89.573482C42.545203 92.633286 44.123783 94.997682 45.041725 96.666667C47.100138 92.9949 50.744103 87.987946 55.973574 81.645804C50.604993 75.164594 46.961057 70.171535 45.041725 66.666667Z" fill="#da0a0a" />
<path d="M44.958275 143.333333C45.625869 141.998146 47.239223 139.59898 49.798331 136.135837C52.357439 132.672694 54.415869 130.078799 55.973574 128.354196C54.026424 126.128884 51.933242 123.48631 49.694019 120.426518C47.454797 117.366714 45.876217 115.002318 44.958275 113.333333C42.899862 117.0051 39.255897 122.012054 34.026426 128.354196C39.395007 134.835406 43.038943 139.828465 44.958275 143.333333Z" fill="#da0a0a" />
<path d="M105.041725 20.0C104.374131 21.335188 102.760777 23.734353 100.201669 27.197497C97.642561 30.66064 95.584131 33.254534 94.026426 34.979138C95.973576 37.204449 98.066758 39.847024 100.305981 42.906815C102.545203 45.966619 104.123783 48.331015 105.041725 50.0C107.100138 46.328234 110.744103 41.32128 115.973574 34.979138C110.604993 28.497928 106.961057 23.504868 105.041725 20.0Z" fill="#da0a0a" />
<path d="M104.958275 190.0C105.625869 188.664812 107.239223 186.265647 109.798331 182.802503C112.357439 179.33936 114.415869 176.745466 115.973574 175.020862C114.026424 172.795551 111.933242 170.152976 109.694019 167.093185C107.454797 164.033381 105.876217 161.668985 104.958275 160.0C102.899862 163.671766 99.255897 168.67872 94.026426 175.020862C99.395007 181.502072 103.038943 186.495132 104.958275 190.0Z" fill="#da0a0a" />
<path d="M105.041725 66.666667C104.374131 68.001854 102.760777 70.40102 100.201669 73.864163C97.642561 77.327306 95.584131 79.921201 94.026426 81.645804C95.973576 83.871116 98.066758 86.51369 100.305981 89.573482C102.545203 92.633286 104.123783 94.997682 105.041725 96.666667C107.100138 92.9949 110.744103 87.987946 115.973574 81.645804C110.604993 75.164594 106.961057 70.171535 105.041725 66.666667Z" fill="#da0a0a" />
<path d="M104.958275 143.333333C105.625869 141.998146 107.239223 139.59898 109.798331 136.135837C112.357439 132.672694 114.415869 130.078799 115.973574 128.354196C114.026424 126.128884 111.933242 123.48631 109.694019 120.426518C107.454797 117.366714 105.876217 115.002318 104.958275 113.333333C102.899862 117.0051 99.255897 122.012054 94.026426 128.354196C99.395007 134.835406 103.038943 139.828465 104.958275 143.333333Z" fill="#da0a0a" />
<path d="M75.041725 43.333333C74.374131 44.668521 72.760777 47.067687 70.201669 50.53083C67.642561 53.993973 65.584131 56.587867 64.026426 58.312471C65.973576 60.537783 68.066758 63.180357 70.305981 66.240148C72.545203 69.299952 74.123783 71.664349 75.041725 73.333333C77.100138 69.661567 80.744103 64.654613 85.973574 58.312471C80.604993 51.831261 76.961057 46.838201 75.041725 43.333333Z" fill="#da0a0a" />
<path d="M75.041725 136.666667C74.374131 138.001854 72.760777 140.40102 70.201669 143.864163C67.642561 147.327306 65.584131 149.921201 64.026426 151.645804C65.973576 153.871116 68.066758 156.51369 70.305981 159.573482C72.545203 162.633286 74.123783 164.997682 75.041725 166.666667C77.100138 162.9949 80.744103 157.987946 85.973574 151.645804C80.604993 145.164594 76.961057 140.171535 75.041725 136.666667Z" fill="#da0a0a" />
<path d="M148.353582 32.687879Q148.328128 32.229697 148.239038 32.07697T147.946314 31.924242Q146.520874 31.924242 145.922698 31.752424T145.031798 30.855152T144.739073 28.411515V20.469697Q144.713619 18.675152 144.853617 17.892424T145.349976 16.880606T146.520874 16.651515H147.768134Q148.226311 16.651515 148.226311 15.735152Q148.200857 15.162424 148.073585 15.028788T147.755407 14.895152H147.488137Q146.419056 14.895152 145.400885 14.379697T143.186361 13.138788Q143.033636 13.062424 142.931818 13.062424Q142.52455 13.062424 142.52455 13.940606V28.411515Q142.52455 30.091515 142.25728 30.81697T141.417288 31.733333T139.571852 31.924242H139.317309Q139.113675 31.924242 139.024585 32.07697T138.910041 32.687879Q138.910041 33.604242 139.368218 33.604242Q141.200927 33.489697 143.644539 33.489697Q146.062696 33.489697 147.895405 33.604242Q148.353582 33.604242 148.353582 32.687879ZM137.051778 32.382424Q138.413583 30.931515 139.088121 28.526061T139.76266 23.295152Q139.76266 20.431515 139.088121 18.064242T137.051778 14.265152T133.704539 12.833333Q131.820921 12.833333 130.44639 14.284242T128.359138 18.140606T127.646418 23.295152T128.359138 28.449697T130.44639 32.344242T133.704539 33.833333Q135.689973 33.833333 137.051778 32.382424ZM131.031838 30.053333Q130.090029 27.686061 130.090029 23.295152T131.031838 16.575152T133.679084 14.246061Q135.435431 14.246061 136.377239 16.556061T137.319048 23.295152T136.377239 30.072424T133.679084 32.420606Q131.973647 32.420606 131.031838 30.053333Z" fill="#da0a0a" />
<path d="M138.019471 39.666737C137.707931 40.289818 136.95504 41.409417 135.760801 43.025535C134.566563 44.641652 133.605972 45.852124 132.87905 46.656931C133.787711 47.695399 134.764519 48.928588 135.809479 50.356477C136.85444 51.784371 137.591103 52.887745 138.019471 53.666597C138.980054 51.953123 140.680555 49.616568 143.12095 46.656931C140.615637 43.632397 138.915151 41.302325 138.019471 39.666737Z" fill="#da0a0a" />
<path d="M1.646418 177.312121Q1.671872 177.770303 1.760962 177.92303T2.053686 178.075758Q3.479126 178.075758 4.077302 178.247576T4.968203 179.144848T5.260927 181.588485V189.530303Q5.286381 191.324848 5.146383 192.107576T4.650024 193.119394T3.479126 193.348485H2.231866Q1.773689 193.348485 1.773689 194.264848Q1.799143 194.837576 1.926415 194.971212T2.244593 195.104848H2.511863Q3.580944 195.104848 4.599115 195.620303T6.813639 196.861212Q6.966364 196.937576 7.068182 196.937576Q7.47545 196.937576 7.47545 196.059394V181.588485Q7.47545 179.908485 7.74272 179.18303T8.582712 178.266667T10.428148 178.075758H10.682691Q10.886325 178.075758 10.975415 177.92303T11.089959 177.312121Q11.089959 176.395758 10.631782 176.395758Q8.799073 176.510303 6.355461 176.510303Q3.937304 176.510303 2.104595 176.395758Q1.646418 176.395758 1.646418 177.312121ZM12.948222 177.617576Q11.586417 179.068485 10.911879 181.473939T10.23734 186.704848Q10.23734 189.568485 10.911879 191.935758T12.948222 195.734848T16.295461 197.166667Q18.179079 197.166667 19.55361 195.715758T21.640862 191.859394T22.353582 186.704848T21.640862 181.550303T19.55361 177.655758T16.295461 176.166667Q14.310027 176.166667 12.948222 177.617576ZM18.968162 179.946667Q19.909971 182.313939 19.909971 186.704848T18.968162 193.424848T16.320916 195.753939Q14.564569 195.753939 13.622761 193.443939T12.680952 186.704848T13.622761 179.927576T16.320916 177.579394Q18.026353 177.579394 18.968162 179.946667Z" fill="#da0a0a" />
<path d="M11.980529 170.333263C12.292069 169.710182 13.04496 168.590583 14.239199 166.974465C15.433437 165.358348 16.394028 164.147876 17.12095 163.343069C16.212289 162.304601 15.235481 161.071412 14.190521 159.643523C13.14556 158.215629 12.408897 157.112255 11.980529 156.333403C11.019946 158.046877 9.319445 160.383432 6.87905 163.343069C9.384363 166.367603 11.084849 168.697675 11.980529 170.333263Z" fill="#da0a0a" />
</svg>
