<svg width="25.000000" height="35.000000" id="card-lightdiamond8">
<rect x="0" y="0" rx="1.25" ry="1.25" width="25" height="35.0" stroke="#010101" fill="#fffdfa" />
<path d="M7.506954 3.333333C7.395688 3.555865 7.126796 3.955726 6.700278 4.532916C6.27376 5.110107 5.930688 5.542422 5.671071 5.829856C5.995596 6.200742 6.34446 6.641171 6.717663 7.151136C7.090867 7.661103 7.353964 8.055169 7.506954 8.333333C7.850023 7.721372 8.45735 6.88688 9.328929 5.829856C8.434166 4.749655 7.826843 3.917478 7.506954 3.333333Z" fill="#da0a0a" />
<path d="M7.493046 31.666667C7.604312 31.444135 7.873204 31.044274 8.299722 30.467084C8.72624 29.889893 9.069312 29.457578 9.328929 29.170144C9.004404 28.799258 8.65554 28.358829 8.282337 27.848864C7.909133 27.338897 7.646036 26.944831 7.493046 26.666667C7.149977 27.278628 6.54265 28.11312 5.671071 29.170144C6.565834 30.250345 7.173157 31.082522 7.493046 31.666667Z" fill="#da0a0a" />
<path d="M7.506954 11.111111C7.395688 11.333642 7.126796 11.733503 6.700278 12.310694C6.27376 12.887884 5.930688 13.3202 5.671071 13.607634C5.995596 13.978519 6.34446 14.418948 6.717663 14.928914C7.090867 15.438881 7.353964 15.832947 7.506954 16.111111C7.850023 15.49915 8.45735 14.664658 9.328929 13.607634C8.434166 12.527432 7.826843 11.695256 7.506954 11.111111Z" fill="#da0a0a" />
<path d="M7.493046 23.888889C7.604312 23.666358 7.873204 23.266497 8.299722 22.689306C8.72624 22.112116 9.069312 21.6798 9.328929 21.392366C9.004404 21.021481 8.65554 20.581052 8.282337 20.071086C7.909133 19.561119 7.646036 19.167053 7.493046 18.888889C7.149977 19.50085 6.54265 20.335342 5.671071 21.392366C6.565834 22.472568 7.173157 23.304744 7.493046 23.888889Z" fill="#da0a0a" />
<path d="M17.506954 3.333333C17.395688 3.555865 17.126796 3.955726 16.700278 4.532916C16.27376 5.110107 15.930688 5.542422 15.671071 5.829856C15.995596 6.200742 16.34446 6.641171 16.717663 7.151136C17.090867 7.661103 17.353964 8.055169 17.506954 8.333333C17.850023 7.721372 18.45735 6.88688 19.328929 5.829856C18.434166 4.749655 17.826843 3.917478 17.506954 3.333333Z" fill="#da0a0a" />
<path d="M17.493046 31.666667C17.604312 31.444135 17.873204 31.044274 18.299722 30.467084C18.72624 29.889893 19.069312 29.457578 19.328929 29.170144C19.004404 28.799258 18.65554 28.358829 18.282337 27.848864C17.909133 27.338897 17.646036 26.944831 17.493046 26.666667C17.149977 27.278628 16.54265 28.11312 15.671071 29.170144C16.565834 30.250345 17.173157 31.082522 17.493046 31.666667Z" fill="#da0a0a" />
<path d="M17.506954 11.111111C17.395688 11.333642 17.126796 11.733503 16.700278 12.310694C16.27376 12.887884 15.930688 13.3202 15.671071 13.607634C15.995596 13.978519 16.34446 14.418948 16.717663 14.928914C17.090867 15.438881 17.353964 15.832947 17.506954 16.111111C17.850023 15.49915 18.45735 14.664658 19.328929 13.607634C18.434166 12.527432 17.826843 11.695256 17.506954 11.111111Z" fill="#da0a0a" />
<path d="M17.493046 23.888889C17.604312 23.666358 17.873204 23.266497 18.299722 22.689306C18.72624 22.112116 19.069312 21.6798 19.328929 21.392366C19.004404 21.021481 18.65554 20.581052 18.282337 20.071086C17.909133 19.561119 17.646036 19.167053 17.493046 18.888889C17.149977 19.50085 16.54265 20.335342 15.671071 21.392366C16.565834 22.472568 17.173157 23.304744 17.493046 23.888889Z" fill="#da0a0a" />
<path d="M23.696818 5.51798Q23.98 5.397071 24.132727 5.187071T24.285455 4.709798Q24.285455 4.429798 24.097727 4.22298T23.540909 3.857071Q23.846364 3.672525 23.989545 3.481616T24.132727 3.048889Q24.132727 2.800707 23.967273 2.590707T23.528182 2.259798T22.942727 2.138889Q22.624545 2.138889 22.376364 2.253434T21.988182 2.565253T21.848182 3.010707Q21.848182 3.239798 22.007273 3.440253T22.484545 3.799798Q22.064545 3.97798 21.889545 4.175253T21.714545 4.67798Q21.714545 4.938889 21.883182 5.158434T22.354091 5.508434T23.044545 5.638889Q23.413636 5.638889 23.696818 5.51798ZM22.436818 3.38298Q22.344545 3.201616 22.344545 3.004343Q22.344545 2.730707 22.51 2.54298T22.974545 2.355253Q23.260909 2.355253 23.432727 2.520707T23.604545 2.940707Q23.604545 3.176162 23.372273 3.338434T22.700909 3.685253Q22.529091 3.564343 22.436818 3.38298ZM22.478182 5.250707Q22.287273 5.072525 22.287273 4.792525Q22.287273 4.60798 22.405 4.471162T22.710455 4.235707T23.299091 3.958889Q23.496364 4.092525 23.604545 4.277071T23.712727 4.684343Q23.712727 5.015253 23.512273 5.222071T22.987273 5.428889Q22.669091 5.428889 22.478182 5.250707Z" fill="#da0a0a" />
<path d="M23.003245 6.611123C22.951322 6.71497 22.82584 6.90157 22.6268 7.170922C22.42776 7.440275 22.267662 7.642021 22.146508 7.776155C22.297952 7.949233 22.460753 8.154765 22.634913 8.392746C22.809073 8.630728 22.93185 8.814624 23.003245 8.944433C23.163342 8.658854 23.446759 8.269428 23.853492 7.776155C23.43594 7.272066 23.152525 6.883721 23.003245 6.611123Z" fill="#da0a0a" />
<path d="M1.303182 29.48202Q1.02 29.602929 0.867273 29.812929T0.714545 30.290202Q0.714545 30.570202 0.902273 30.77702T1.459091 31.142929Q1.153636 31.327475 1.010455 31.518384T0.867273 31.951111Q0.867273 32.199293 1.032727 32.409293T1.471818 32.740202T2.057273 32.861111Q2.375455 32.861111 2.623636 32.746566T3.011818 32.434747T3.151818 31.989293Q3.151818 31.760202 2.992727 31.559747T2.515455 31.200202Q2.935455 31.02202 3.110455 30.824747T3.285455 30.32202Q3.285455 30.061111 3.116818 29.841566T2.645909 29.491566T1.955455 29.361111Q1.586364 29.361111 1.303182 29.48202ZM2.563182 31.61702Q2.655455 31.798384 2.655455 31.995657Q2.655455 32.269293 2.49 32.45702T2.025455 32.644747Q1.739091 32.644747 1.567273 32.479293T1.395455 32.059293Q1.395455 31.823838 1.627727 31.661566T2.299091 31.314747Q2.470909 31.435657 2.563182 31.61702ZM2.521818 29.749293Q2.712727 29.927475 2.712727 30.207475Q2.712727 30.39202 2.595 30.528838T2.289545 30.764293T1.700909 31.041111Q1.503636 30.907475 1.395455 30.722929T1.287273 30.315657Q1.287273 29.984747 1.487727 29.777929T2.012727 29.571111Q2.330909 29.571111 2.521818 29.749293Z" fill="#da0a0a" />
<path d="M1.996755 28.388877C2.048678 28.28503 2.17416 28.09843 2.3732 27.829078C2.57224 27.559725 2.732338 27.357979 2.853492 27.223845C2.702048 27.050767 2.539247 26.845235 2.365087 26.607254C2.190927 26.369272 2.06815 26.185376 1.996755 26.055567C1.836658 26.341146 1.553241 26.730572 1.146508 27.223845C1.56406 27.727934 1.847475 28.116279 1.996755 28.388877Z" fill="#da0a0a" />
</svg>
