<svg width="25.000000" height="35.000000" id="card-lightclub12">
<rect x="0" y="0" rx="1.25" ry="1.25" width="25" height="35.0" stroke="#010101" fill="#fffdfa" />
<rect x="5.0" y="3.5" width="15.0" height="28.0" stroke="#010101" fill="#fffdfa" />
<path d="M12.507082 12.59588C11.987724 12.59588 11.503778 12.612405 11.055241 12.645455C10.606704 12.678505 10.344664 12.69503 10.269122 12.69503C10.155807 12.69503 10.084986 12.687948 10.056657 12.673783S10.014164 12.624208 10.014164 12.567551C10.014164 12.378694 10.304533 12.23469 10.885269 12.13554S12.001888 11.986815 12.492918 11.986815C12.99339 11.986815 13.531633 12.03639 14.107649 12.13554C14.683664 12.23469 14.971671 12.378694 14.971671 12.567551C14.971671 12.614765 14.957507 12.647816 14.929178 12.666701S14.830028 12.69503 14.716714 12.69503C14.707271 12.69503 14.423984 12.678505 13.866856 12.645455S12.856469 12.59588 12.507082 12.59588ZM10.1983 13.233274C10.944288 13.138845 11.709164 13.09163 12.492918 13.09163C13.314448 13.09163 14.07932 13.138845 14.787535 13.233274C14.674221 13.327702 14.617564 13.511839 14.617564 13.785681C14.617564 13.965096 14.645892 14.073689 14.70255 14.11146C14.126534 14.007589 13.38999 13.955653 12.492918 13.955653C11.586402 13.955653 10.849858 14.007589 10.283286 14.11146C10.339943 14.073689 10.368272 13.965096 10.368272 13.785681C10.368272 13.511839 10.311615 13.327703 10.1983 13.233274ZM10.184136 14.848004C10.184136 14.583604 10.953729 14.451404 12.492918 14.451404S14.8017 14.583604 14.8017 14.848004C14.8017 15.084077 14.032106 15.202112 12.492918 15.202112S10.184136 15.084076 10.184136 14.848004ZM12.492918 7.043472C12.72899 7.043472 12.847025 7.156786 12.847025 7.383415C12.847025 7.628929 12.72899 7.751687 12.492918 7.751687C12.266289 7.751687 12.152975 7.62893 12.152975 7.383415C12.152975 7.156786 12.266289 7.043472 12.492918 7.043472ZM12.988669 8.785681C12.988669 8.464623 13.038244 8.167173 13.137394 7.89333S13.286119 7.46368 13.286119 7.425908C13.286119 7.208723 13.208215 7.022225 13.052408 6.866418S12.710103 6.632707 12.492918 6.632707S12.091596 6.710611 11.94051 6.866418S11.713881 7.208723 11.713881 7.425908C11.713881 7.46368 11.765817 7.617126 11.869688 7.886248S12.025496 8.455181 12.025496 8.785681C12.025496 9.248383 11.921624 9.93299 11.713881 10.839506C11.203966 9.763019 10.949008 8.950936 10.949008 8.403245C10.949008 8.346588 10.963173 8.240356 10.991501 8.084548S11.033994 7.831952 11.033994 7.79418C11.033994 7.576994 10.958451 7.390497 10.807365 7.23469C10.656279 7.078883 10.472143 7.000979 10.254958 7.000979C10.028329 7.000979 9.83711 7.078883 9.681303 7.23469S9.447592 7.576994 9.447592 7.79418C9.447592 7.964152 9.480642 8.098713 9.546742 8.197863S9.688385 8.372555 9.773371 8.424492S9.933899 8.601545 10.0 8.799846S10.09915 9.271989 10.09915 9.621376C10.09915 9.86689 10.075543 10.26349 10.028329 10.811177C9.414542 10.178504 9.107649 9.663868 9.107649 9.267268L9.121813 9.139789C9.131256 9.054803 9.143059 8.967456 9.157224 8.877749S9.17847 8.733745 9.17847 8.71486C9.17847 8.507116 9.100567 8.32298 8.944759 8.162452S8.607177 7.921659 8.399433 7.921659C8.182248 7.921659 7.99339 7.999562 7.832861 8.15537S7.592068 8.497674 7.592068 8.71486C7.592068 9.102017 7.809254 9.394747 8.243626 9.593047C8.262512 9.970762 8.432483 10.820621 8.753541 12.142622C8.753541 12.227608 8.930595 12.487286 9.284703 12.921659S9.815864 13.639317 9.815864 13.771517C9.815864 13.856503 9.749764 14.035918 9.617564 14.309761S9.419263 14.810232 9.419263 14.989647V15.216276C9.419263 15.433462 9.761568 15.582187 10.446176 15.662452C11.130783 15.742716 11.817752 15.782849 12.507082 15.782849C13.271955 15.782849 13.975453 15.737995 14.617564 15.648288C15.259678 15.55858 15.580737 15.414577 15.580737 15.216276V14.989647C15.580737 14.791347 15.516997 14.555275 15.389518 14.281432S15.1983 13.837618 15.1983 13.771517C15.1983 13.573217 15.351746 13.304095 15.65864 12.964152S16.161473 12.350366 16.246459 12.142622C16.567517 10.839506 16.737489 9.989647 16.756374 9.593047C17.190746 9.394747 17.407932 9.102017 17.407932 8.71486C17.407932 8.497674 17.327668 8.311177 17.167139 8.15537C17.00661 7.999562 16.822475 7.921659 16.614731 7.921659C16.397545 7.921659 16.211048 7.999562 16.055241 8.15537S15.82153 8.497674 15.82153 8.71486C15.82153 8.724303 15.833333 8.81401 15.856941 8.983982S15.892351 9.248383 15.892351 9.267268C15.892351 9.682754 15.59018 10.197391 14.985836 10.811177C14.938621 10.395691 14.915014 9.999091 14.915014 9.621376C14.915014 9.281432 14.948064 9.009949 15.014164 8.806928S15.155807 8.476428 15.240793 8.424492S15.401322 8.294652 15.467422 8.190781S15.566572 7.954708 15.566572 7.79418C15.566572 7.576994 15.486308 7.390497 15.325779 7.23469S14.976392 7.000979 14.759207 7.000979C14.542021 7.000979 14.355524 7.078883 14.199717 7.23469S13.966006 7.576994 13.966006 7.79418L14.008499 8.063302C14.036827 8.242717 14.050992 8.356031 14.050992 8.403245C14.050992 8.941489 13.796034 9.753575 13.286119 10.839506C13.087819 9.980204 12.988669 9.295596 12.988669 8.785681ZM8.399433 8.374917C8.484419 8.374917 8.562323 8.407967 8.633144 8.474067C8.703966 8.540167 8.739377 8.620431 8.739377 8.71486C8.739377 8.818731 8.706327 8.906078 8.640227 8.9769S8.493863 9.083132 8.399433 9.083132C8.163361 9.083132 8.045326 8.960375 8.045326 8.71486C8.045326 8.488231 8.163362 8.374917 8.399433 8.374917ZM10.254958 7.468401C10.349386 7.468401 10.42965 7.503812 10.495751 7.574633S10.594901 7.728079 10.594901 7.822509S10.561851 7.999562 10.495751 8.070384S10.349387 8.176616 10.254958 8.176616C10.009443 8.176616 9.886686 8.05858 9.886686 7.822509S10.009443 7.468401 10.254958 7.468401ZM14.759207 7.468401C14.995279 7.468401 15.113314 7.586437 15.113314 7.822509S14.995279 8.176616 14.759207 8.176616C14.532578 8.176616 14.419263 8.05858 14.419263 7.822509S14.532578 7.468401 14.759207 7.468401ZM16.614731 8.374917C16.850803 8.374917 16.968839 8.488231 16.968839 8.71486C16.968839 8.960374 16.850803 9.083132 16.614731 9.083132C16.388102 9.083132 16.274788 8.960375 16.274788 8.71486C16.274788 8.620431 16.310198 8.540167 16.38102 8.474067C16.451841 8.407967 16.529745 8.374917 16.614731 8.374917ZM12.492918 9.281432C12.577904 9.800791 12.672333 10.209194 12.776204 10.506645S12.974504 11.014198 13.05949 11.136956S13.196412 11.358864 13.215297 11.434407C13.262512 11.377749 13.342776 11.28332 13.456091 11.151121S13.640227 10.929213 13.668555 10.881999S13.75118 10.752159 13.831445 10.634123S13.975449 10.400412 14.022663 10.287098S14.131256 10.022697 14.206799 9.83384S14.362606 9.427796 14.447592 9.182282C14.428706 9.314482 14.419263 9.451404 14.419263 9.593047C14.419263 10.036861 14.499528 10.72147 14.660057 11.646871C15.169972 11.3447 15.665722 10.863113 16.147309 10.202112C15.92068 11.325813 15.745987 11.953769 15.623229 12.085965C15.604344 12.10485 15.585458 12.119015 15.566572 12.128458C14.792256 11.684643 13.767705 11.462735 12.492918 11.462735C11.208687 11.462735 10.184136 11.684643 9.419263 12.128458C9.249292 12.0718 9.060435 11.429686 8.852691 10.202112C9.343721 10.881999 9.834749 11.363585 10.325779 11.646871C10.486307 10.825342 10.566572 10.1785 10.566572 9.706361C10.566572 9.583604 10.557129 9.408911 10.538244 9.182282C10.679887 9.616655 10.823891 9.982565 10.970255 10.280016C11.116619 10.577466 11.234656 10.778128 11.324363 10.881999S11.501416 11.08502 11.586402 11.179449S11.732766 11.358864 11.770538 11.434407C11.817753 11.349421 11.87441 11.252632 11.94051 11.144038S12.049103 10.957541 12.067989 10.910327S12.119925 10.771045 12.167139 10.634123S12.261568 10.32723 12.308782 10.124208S12.417375 9.640261 12.492918 9.281432Z" fill="#010101" />
<path d="M12.492918 22.40412C13.012276 22.40412 13.496222 22.387595 13.944759 22.354545C14.393296 22.321495 14.655336 22.30497 14.730878 22.30497C14.844193 22.30497 14.915014 22.312052 14.943343 22.326217S14.985836 22.375792 14.985836 22.432449C14.985836 22.621306 14.695467 22.76531 14.114731 22.86446S12.998112 23.013185 12.507082 23.013185C12.00661 23.013185 11.468367 22.96361 10.892351 22.86446C10.316336 22.76531 10.028329 22.621306 10.028329 22.432449C10.028329 22.385235 10.042493 22.352184 10.070822 22.333299S10.169972 22.30497 10.283286 22.30497C10.292729 22.30497 10.576016 22.321495 11.133144 22.354545S12.143531 22.40412 12.492918 22.40412ZM14.8017 21.766726C14.055712 21.861155 13.290836 21.90837 12.507082 21.90837C11.685552 21.90837 10.92068 21.861155 10.212465 21.766726C10.325779 21.672298 10.382436 21.488161 10.382436 21.214319C10.382436 21.034904 10.354108 20.926311 10.29745 20.88854C10.873466 20.992411 11.61001 21.044347 12.507082 21.044347C13.413598 21.044347 14.150142 20.992411 14.716714 20.88854C14.660057 20.926311 14.631728 21.034904 14.631728 21.214319C14.631728 21.488161 14.688385 21.672297 14.8017 21.766726ZM14.815864 20.151996C14.815864 20.416396 14.046271 20.548596 12.507082 20.548596S10.1983 20.416396 10.1983 20.151996C10.1983 19.915923 10.967894 19.797888 12.507082 19.797888S14.815864 19.915924 14.815864 20.151996ZM12.507082 27.956528C12.27101 27.956528 12.152975 27.843214 12.152975 27.616585C12.152975 27.371071 12.27101 27.248313 12.507082 27.248313C12.733711 27.248313 12.847025 27.37107 12.847025 27.616585C12.847025 27.843214 12.733711 27.956528 12.507082 27.956528ZM12.011331 26.214319C12.011331 26.535377 11.961756 26.832827 11.862606 27.10667S11.713881 27.53632 11.713881 27.574092C11.713881 27.791277 11.791785 27.977775 11.947592 28.133582S12.289897 28.367293 12.507082 28.367293S12.908404 28.289389 13.05949 28.133582S13.286119 27.791277 13.286119 27.574092C13.286119 27.53632 13.234183 27.382874 13.130312 27.113752S12.974504 26.544819 12.974504 26.214319C12.974504 25.751617 13.078376 25.06701 13.286119 24.160494C13.796034 25.236981 14.050992 26.049064 14.050992 26.596755C14.050992 26.653412 14.036827 26.759644 14.008499 26.915452S13.966006 27.168048 13.966006 27.20582C13.966006 27.423006 14.041549 27.609503 14.192635 27.76531C14.343721 27.921117 14.527857 27.999021 14.745042 27.999021C14.971671 27.999021 15.16289 27.921117 15.318697 27.76531S15.552408 27.423006 15.552408 27.20582C15.552408 27.035848 15.519358 26.901287 15.453258 26.802137S15.311615 26.627445 15.226629 26.575508S15.066101 26.398455 15.0 26.200154S14.90085 25.728011 14.90085 25.378624C14.90085 25.13311 14.924457 24.73651 14.971671 24.188823C15.585458 24.821496 15.892351 25.336132 15.892351 25.732732L15.878187 25.860211C15.868744 25.945197 15.856941 26.032544 15.842776 26.122251S15.82153 26.266255 15.82153 26.28514C15.82153 26.492884 15.899433 26.67702 16.055241 26.837548S16.392823 27.078341 16.600567 27.078341C16.817752 27.078341 17.00661 27.000438 17.167139 26.84463S17.407932 26.502326 17.407932 26.28514C17.407932 25.897983 17.190746 25.605253 16.756374 25.406953C16.737488 25.029238 16.567517 24.179379 16.246459 22.857378C16.246459 22.772392 16.069405 22.512714 15.715297 22.078341S15.184136 21.360683 15.184136 21.228483C15.184136 21.143497 15.250236 20.964082 15.382436 20.690239S15.580737 20.189768 15.580737 20.010353V19.783724C15.580737 19.566538 15.238432 19.417813 14.553824 19.337548C13.869217 19.257284 13.182248 19.217151 12.492918 19.217151C11.728045 19.217151 11.024547 19.262005 10.382436 19.351712C9.740322 19.44142 9.419263 19.585423 9.419263 19.783724V20.010353C9.419263 20.208653 9.483003 20.444725 9.610482 20.718568S9.8017 21.162382 9.8017 21.228483C9.8017 21.426783 9.648254 21.695905 9.34136 22.035848S8.838527 22.649634 8.753541 22.857378C8.432483 24.160494 8.262511 25.010353 8.243626 25.406953C7.809254 25.605253 7.592068 25.897983 7.592068 26.28514C7.592068 26.502326 7.672332 26.688823 7.832861 26.84463C7.99339 27.000438 8.177525 27.078341 8.385269 27.078341C8.602455 27.078341 8.788952 27.000438 8.944759 26.84463S9.17847 26.502326 9.17847 26.28514C9.17847 26.275697 9.166667 26.18599 9.143059 26.016018S9.107649 25.751617 9.107649 25.732732C9.107649 25.317246 9.40982 24.802609 10.014164 24.188823C10.061379 24.604309 10.084986 25.000909 10.084986 25.378624C10.084986 25.718568 10.051936 25.990051 9.985836 26.193072S9.844193 26.523572 9.759207 26.575508S9.598678 26.705348 9.532578 26.809219S9.433428 27.045292 9.433428 27.20582C9.433428 27.423006 9.513692 27.609503 9.674221 27.76531S10.023608 27.999021 10.240793 27.999021C10.457979 27.999021 10.644476 27.921117 10.800283 27.76531S11.033994 27.423006 11.033994 27.20582L10.991501 26.936698C10.963173 26.757283 10.949008 26.643969 10.949008 26.596755C10.949008 26.058511 11.203966 25.246425 11.713881 24.160494C11.912181 25.019796 12.011331 25.704404 12.011331 26.214319ZM16.600567 26.625083C16.515581 26.625083 16.437677 26.592033 16.366856 26.525933C16.296034 26.459833 16.260623 26.379569 16.260623 26.28514C16.260623 26.181269 16.293673 26.093922 16.359773 26.0231S16.506137 25.916868 16.600567 25.916868C16.836639 25.916868 16.954674 26.039625 16.954674 26.28514C16.954674 26.511769 16.836638 26.625083 16.600567 26.625083ZM14.745042 27.531599C14.650614 27.531599 14.57035 27.496188 14.504249 27.425367S14.405099 27.271921 14.405099 27.177491S14.438149 27.000438 14.504249 26.929616S14.650613 26.823384 14.745042 26.823384C14.990557 26.823384 15.113314 26.94142 15.113314 27.177491S14.990557 27.531599 14.745042 27.531599ZM10.240793 27.531599C10.004721 27.531599 9.886686 27.413563 9.886686 27.177491S10.004721 26.823384 10.240793 26.823384C10.467422 26.823384 10.580737 26.94142 10.580737 27.177491S10.467422 27.531599 10.240793 27.531599ZM8.385269 26.625083C8.149197 26.625083 8.031161 26.511769 8.031161 26.28514C8.031161 26.039626 8.149197 25.916868 8.385269 25.916868C8.611898 25.916868 8.725212 26.039625 8.725212 26.28514C8.725212 26.379569 8.689802 26.459833 8.61898 26.525933C8.548159 26.592033 8.470255 26.625083 8.385269 26.625083ZM12.507082 25.718568C12.422096 25.199209 12.327667 24.790806 12.223796 24.493355S12.025496 23.985802 11.94051 23.863044S11.803588 23.641136 11.784703 23.565593C11.737488 23.622251 11.657224 23.71668 11.543909 23.848879S11.359773 24.070787 11.331445 24.118001S11.24882 24.247841 11.168555 24.365877S11.024551 24.599588 10.977337 24.712902S10.868744 24.977303 10.793201 25.16616S10.637394 25.572204 10.552408 25.817718C10.571294 25.685518 10.580737 25.548596 10.580737 25.406953C10.580737 24.963139 10.500472 24.27853 10.339943 23.353129C9.830028 23.6553 9.334278 24.136887 8.852691 24.797888C9.07932 23.674187 9.254013 23.046231 9.376771 22.914035C9.395656 22.89515 9.414542 22.880985 9.433428 22.871542C10.207744 23.315357 11.232295 23.537265 12.507082 23.537265C13.791313 23.537265 14.815864 23.315357 15.580737 22.871542C15.750708 22.9282 15.939565 23.570314 16.147309 24.797888C15.656279 24.118001 15.165251 23.636415 14.674221 23.353129C14.513693 24.174658 14.433428 24.8215 14.433428 25.293639C14.433428 25.416396 14.442871 25.591089 14.461756 25.817718C14.320113 25.383345 14.176109 25.017435 14.029745 24.719984C13.883381 24.422534 13.765344 24.221872 13.675637 24.118001S13.498584 23.91498 13.413598 23.820551S13.267234 23.641136 13.229462 23.565593C13.182247 23.650579 13.12559 23.747368 13.05949 23.855962S12.950897 24.042459 12.932011 24.089673S12.880075 24.228955 12.832861 24.365877S12.738432 24.67277 12.691218 24.875792S12.582625 25.359739 12.507082 25.718568Z" fill="#010101" />
<path d="M22.247356 5.593648Q22.378966 5.548407 22.477673 5.480546T22.732667 5.2893Q22.856052 5.18648 22.952703 5.116562T23.1604 4.989065Q23.292009 4.92326 23.472973 4.882132Q23.904818 4.783425 24.102233 4.631251Q24.344888 4.442062 24.478555 4.158278T24.612221 3.553695Q24.612221 3.12185 24.416863 2.801051T23.917156 2.30957T23.300235 2.138889Q22.905405 2.138889 22.601058 2.326022T22.134254 2.819559T21.971798 3.479664Q21.971798 3.940299 22.204172 4.283719T22.819036 4.779312Q22.884841 4.808102 22.987662 4.812214V4.82044Q22.876616 4.832778 22.786134 4.878019Q22.625734 4.956163 22.354289 5.153577Q22.152761 5.297526 22.029377 5.365387T21.786722 5.433248Q21.712691 5.425023 21.677732 5.385951T21.642773 5.2893Q21.642773 5.190593 21.71886 5.10628T21.914219 5.017855Q21.926557 4.95205 21.864865 4.890358T21.679788 4.828666Q21.626322 4.828666 21.558461 4.865681T21.439189 4.976727T21.387779 5.15769Q21.387779 5.281075 21.472092 5.390064T21.685958 5.566915T21.947121 5.638889Q22.115746 5.638889 22.247356 5.593648ZM22.835488 4.559277Q22.646298 4.388595 22.55376 4.104811T22.461222 3.479664Q22.461222 3.162978 22.555817 2.897702T22.841657 2.474083T23.304348 2.31574Q23.715629 2.31574 23.921269 2.663272T24.12691 3.541357Q24.12691 3.862156 24.034371 4.133601T23.756757 4.567502T23.304348 4.729958Q23.024677 4.729958 22.835488 4.559277Z" fill="#010101" />
<path d="M22.95373 7.974424C22.951527 8.040523 22.948773 8.093954 22.945468 8.134715C22.942163 8.175476 22.933901 8.227254 22.920681 8.290048S22.891487 8.404621 22.872759 8.445382S22.825938 8.531862 22.788482 8.582538S22.706959 8.675078 22.656283 8.708127S22.54171 8.773125 22.464595 8.803971S22.299346 8.859054 22.200197 8.876681V8.94278H23.799803V8.876681C23.700654 8.859054 23.612521 8.834267 23.535405 8.802319S23.393843 8.737872 23.342065 8.704822S23.24622 8.629359 23.209866 8.577581S23.145419 8.480084 23.125589 8.440425S23.089785 8.348987 23.077667 8.285091S23.057837 8.169968 23.054532 8.13141C23.051227 8.092852 23.048473 8.040523 23.04627 7.974424C23.099149 8.071369 23.142114 8.139672 23.175163 8.179332C23.234653 8.254245 23.307913 8.313734 23.394944 8.3578C23.481975 8.401866 23.567354 8.4239 23.651079 8.4239C23.792092 8.4239 23.913274 8.371571 24.014626 8.266914S24.166655 8.036117 24.166655 7.888494C24.166655 7.745279 24.120936 7.622995 24.029499 7.521642S23.827344 7.369614 23.697349 7.369614C23.653283 7.369614 23.612521 7.375673 23.575065 7.387791S23.500152 7.415333 23.462696 7.434061L23.393292 7.468763C23.479221 7.345377 23.522186 7.228602 23.522186 7.118436C23.522186 6.979627 23.470958 6.860648 23.368504 6.761499S23.143215 6.612775 23.0 6.612775S22.73395 6.66235 22.631496 6.761499S22.477814 6.979627 22.477814 7.118436C22.477814 7.228602 22.520779 7.345377 22.606708 7.468763C22.591285 7.462153 22.569803 7.452238 22.542261 7.439018S22.494339 7.415883 22.481119 7.409273S22.450824 7.396054 22.429892 7.389444S22.38858 7.377876 22.36875 7.374571S22.326887 7.369614 22.302651 7.369614C22.172656 7.369614 22.061939 7.42029 21.970501 7.521642S21.833345 7.745279 21.833345 7.888494C21.833345 8.036117 21.884021 8.162256 21.985374 8.266914S22.207908 8.4239 22.348921 8.4239C22.591285 8.4239 22.792887 8.274074 22.95373 7.974424Z" fill="#010101" />
<path d="M2.752644 29.406352Q2.621034 29.451593 2.522327 29.519454T2.267333 29.7107Q2.143948 29.81352 2.047297 29.883438T1.8396 30.010935Q1.707991 30.07674 1.527027 30.117868Q1.095182 30.216575 0.897767 30.368749Q0.655112 30.557938 0.521445 30.841722T0.387779 31.446305Q0.387779 31.87815 0.583137 32.198949T1.082844 32.69043T1.699765 32.861111Q2.094595 32.861111 2.398942 32.673978T2.865746 32.180441T3.028202 31.520336Q3.028202 31.059701 2.795828 30.716281T2.180964 30.220688Q2.115159 30.191898 2.012338 30.187786V30.17956Q2.123384 30.167222 2.213866 30.121981Q2.374266 30.043837 2.645711 29.846423Q2.847239 29.702474 2.970623 29.634613T3.213278 29.566752Q3.287309 29.574977 3.322268 29.614049T3.357227 29.7107Q3.357227 29.809407 3.28114 29.89372T3.085781 29.982145Q3.073443 30.04795 3.135135 30.109642T3.320212 30.171334Q3.373678 30.171334 3.441539 30.134319T3.560811 30.023273T3.612221 29.84231Q3.612221 29.718925 3.527908 29.609936T3.314042 29.433085T3.052879 29.361111Q2.884254 29.361111 2.752644 29.406352ZM2.164512 30.440723Q2.353702 30.611405 2.44624 30.895189T2.538778 31.520336Q2.538778 31.837022 2.444183 32.102298T2.158343 32.525917T1.695652 32.68426Q1.284371 32.68426 1.078731 32.336728T0.87309 31.458643Q0.87309 31.137844 0.965629 30.866399T1.243243 30.432498T1.695652 30.270042Q1.975323 30.270042 2.164512 30.440723Z" fill="#010101" />
<path d="M2.04627 27.025576C2.048473 26.959477 2.051227 26.906046 2.054532 26.865285C2.057837 26.824524 2.066099 26.772746 2.079319 26.709952S2.108513 26.595379 2.127241 26.554618S2.174062 26.468138 2.211518 26.417462S2.293041 26.324922 2.343717 26.291873S2.45829 26.226875 2.535405 26.196029S2.700654 26.140946 2.799803 26.123319V26.05722H1.200197V26.123319C1.299346 26.140946 1.387479 26.165733 1.464595 26.197681S1.606157 26.262128 1.657935 26.295178S1.75378 26.370641 1.790134 26.422419S1.854581 26.519916 1.874411 26.559575S1.910215 26.651013 1.922333 26.714909S1.942163 26.830032 1.945468 26.86859C1.948773 26.907148 1.951527 26.959477 1.95373 27.025576C1.900851 26.928631 1.857886 26.860328 1.824837 26.820668C1.765347 26.745755 1.692087 26.686266 1.605056 26.6422C1.518025 26.598134 1.432646 26.5761 1.348921 26.5761C1.207908 26.5761 1.086726 26.628429 0.985374 26.733086S0.833345 26.963883 0.833345 27.111506C0.833345 27.254721 0.879064 27.377005 0.970501 27.478358S1.172656 27.630386 1.302651 27.630386C1.346717 27.630386 1.387479 27.624327 1.424935 27.612209S1.499848 27.584667 1.537304 27.565939L1.606708 27.531237C1.520779 27.654623 1.477814 27.771398 1.477814 27.881564C1.477814 28.020373 1.529042 28.139352 1.631496 28.238501S1.856785 28.387225 2.0 28.387225S2.26605 28.33765 2.368504 28.238501S2.522186 28.020373 2.522186 27.881564C2.522186 27.771398 2.479221 27.654623 2.393292 27.531237C2.408715 27.537847 2.430197 27.547762 2.457739 27.560982S2.505661 27.584117 2.518881 27.590727S2.549176 27.603946 2.570108 27.610556S2.61142 27.622124 2.63125 27.625429S2.673113 27.630386 2.697349 27.630386C2.827344 27.630386 2.938061 27.57971 3.029499 27.478358S3.166655 27.254721 3.166655 27.111506C3.166655 26.963883 3.115979 26.837744 3.014626 26.733086S2.792092 26.5761 2.651079 26.5761C2.408715 26.5761 2.207113 26.725926 2.04627 27.025576Z" fill="#010101" />
</svg>
