<svg width="150.000000" height="210.000000" id="card-webheart3">
<radialGradient id="card-webwhitegradient" cx="75.0" cy="105.0" r="150" gradientTransform="matrix(1 0 0 1 0 -.25)" gradientUnits="userSpaceOnUse">
<stop stop-color="#FDFAF4" offset=".15"/>
<stop stop-color="#FDF9F2" offset=".35"/>
<stop stop-color="#FCF7F1" offset=".5"/>
<stop stop-color="#FDFDF8" offset=".75"/>
<stop stop-color="#FFFDFA" offset="1"/>
</radialGradient>
<rect x="0" y="0" rx="7.5" ry="7.5" width="150" height="210.0" stroke="#010101" fill="url(#card-webwhitegradient)" />
<path d="M74.958217 26.016713C74.401116 23.955433 73.502787 22.437325 72.263231 21.462396S69.651811 20.0 68.147632 20.0C66.448467 20.0 64.993036 20.584958 63.781337 21.754875S61.963788 24.331478 61.963788 25.97493C61.963788 27.479109 62.332869 29.011143 63.071031 30.571031S64.74234 33.635096 65.870474 35.083565S68.147632 37.987465 69.317549 39.449861S71.608634 42.5766 72.681058 44.442897S74.512533 48.16156 74.958217 50.0C75.45961 48.077994 76.260447 46.149024 77.360724 44.213092S79.5961 40.564068 80.766017 39.073816C81.935933 37.583564 83.077993 36.121169 84.192201 34.68663S86.225628 31.810586 86.949861 30.362117S88.036212 27.534818 88.036212 26.225627C88.036212 24.470752 87.444288 22.99443 86.260446 21.796657C85.076603 20.598884 83.621169 20.0 81.89415 20.0C78.579389 20.0 76.267396 22.005571 74.958217 26.016713Z" fill="#da0a0a" />
<path d="M75.041783 183.983287C75.598884 186.044567 76.497213 187.562675 77.736769 188.537604S80.348189 190.0 81.852368 190.0C83.551533 190.0 85.006964 189.415042 86.218663 188.245125S88.036212 185.668522 88.036212 184.02507C88.036212 182.520891 87.667131 180.988857 86.928969 179.428969S85.25766 176.364904 84.129526 174.916435S81.852368 172.012535 80.682451 170.550139S78.391366 167.4234 77.318942 165.557103S75.487467 161.83844 75.041783 160.0C74.54039 161.922006 73.739553 163.850976 72.639276 165.786908S70.4039 169.435932 69.233983 170.926184C68.064067 172.416436 66.922007 173.878831 65.807799 175.31337S63.774372 178.189414 63.050139 179.637883S61.963788 182.465182 61.963788 183.774373C61.963788 185.529248 62.555712 187.00557 63.739554 188.203343C64.923397 189.401116 66.378831 190.0 68.10585 190.0C71.420611 190.0 73.732604 187.994429 75.041783 183.983287Z" fill="#da0a0a" />
<path d="M74.958217 96.016713C74.401116 93.955433 73.502787 92.437325 72.263231 91.462396S69.651811 90.0 68.147632 90.0C66.448467 90.0 64.993036 90.584958 63.781337 91.754875S61.963788 94.331478 61.963788 95.97493C61.963788 97.479109 62.332869 99.011143 63.071031 100.571031S64.74234 103.635096 65.870474 105.083565S68.147632 107.987465 69.317549 109.449861S71.608634 112.5766 72.681058 114.442897S74.512533 118.16156 74.958217 120.0C75.45961 118.077994 76.260447 116.149024 77.360724 114.213092S79.5961 110.564068 80.766017 109.073816C81.935933 107.583564 83.077993 106.121169 84.192201 104.68663S86.225628 101.810586 86.949861 100.362117S88.036212 97.534818 88.036212 96.225627C88.036212 94.470752 87.444288 92.99443 86.260446 91.796657C85.076603 90.598884 83.621169 90.0 81.89415 90.0C78.579389 90.0 76.267396 92.005571 74.958217 96.016713Z" fill="#da0a0a" />
<path d="M143.326087 32.749094Q145.247283 31.664855 145.247283 29.572464Q145.247283 28.469203 144.5625 27.67029T142.660326 26.871377Q141.9375 26.871377 141.423913 27.251812T140.910326 27.898551Q140.910326 27.936594 141.252717 28.183877T141.880435 28.849638T142.165761 29.914855Q142.165761 31.094203 141.157609 31.759964T138.513587 32.425725Q134.442935 32.425725 134.442935 27.898551Q134.442935 26.03442 135.432065 24.912138T138.399457 23.675725H139.807065Q140.07337 23.675725 140.225543 23.447464T140.377717 22.914855Q140.377717 22.572464 140.225543 22.325181T139.807065 22.039855H138.399457Q136.915761 21.887681 136.021739 20.708333T135.127717 17.855072Q135.127717 16.028986 136.154891 15.058877T138.55163 14.088768Q139.845109 14.088768 140.777174 14.830616T141.709239 16.865942Q141.709239 17.702899 141.38587 17.988225T140.758152 18.330616T140.453804 18.425725Q140.453804 18.692029 140.967391 19.072464T142.203804 19.452899Q143.421196 19.452899 144.105978 18.692029T144.790761 16.751812Q144.790761 14.887681 143.040761 13.860507T138.513587 12.833333Q135.546196 12.833333 133.605978 14.126812T131.665761 17.855072Q131.665761 19.452899 132.788043 20.822464T136.002717 22.762681V22.914855Q133.872283 23.143116 132.3125 24.265399T130.752717 27.822464Q130.752717 30.903986 132.997283 32.368659T138.627717 33.833333Q141.404891 33.833333 143.326087 32.749094Z" fill="#da0a0a" />
<path d="M137.980502 42.474508C137.720523 41.512587 137.301308 40.804143 136.722854 40.349181S135.504203 39.666737 134.80226 39.666737C134.009324 39.666737 133.33013 39.939714 132.764676 40.48567S131.916495 41.688073 131.916495 42.45501C131.916495 43.156952 132.088731 43.871895 132.433203 44.599835S133.21314 46.029718 133.739597 46.705663S134.80226 48.060803 135.348216 48.743248S136.417378 50.202378 136.917838 51.073308S137.772518 52.808667 137.980502 53.666597C138.214483 52.76967 138.588203 51.869492 139.10166 50.966067S140.144825 49.263206 140.690781 48.567762C141.236736 47.872318 141.769692 47.189873 142.289651 46.520429S143.238574 45.178289 143.576546 44.502343S144.083505 43.18295 144.083505 42.572C144.083505 41.753067 143.807276 41.064124 143.254822 40.505168C142.702368 39.946213 142.023172 39.666737 141.217238 39.666737C139.670365 39.666737 138.591445 40.60266 137.980502 42.474508Z" fill="#da0a0a" />
<path d="M6.673913 177.250906Q4.752717 178.335145 4.752717 180.427536Q4.752717 181.530797 5.4375 182.32971T7.339674 183.128623Q8.0625 183.128623 8.576087 182.748188T9.089674 182.101449Q9.089674 182.063406 8.747283 181.816123T8.119565 181.150362T7.834239 180.085145Q7.834239 178.905797 8.842391 178.240036T11.486413 177.574275Q15.557065 177.574275 15.557065 182.101449Q15.557065 183.96558 14.567935 185.087862T11.600543 186.324275H10.192935Q9.92663 186.324275 9.774457 186.552536T9.622283 187.085145Q9.622283 187.427536 9.774457 187.674819T10.192935 187.960145H11.600543Q13.084239 188.112319 13.978261 189.291667T14.872283 192.144928Q14.872283 193.971014 13.845109 194.941123T11.44837 195.911232Q10.154891 195.911232 9.222826 195.169384T8.290761 193.134058Q8.290761 192.297101 8.61413 192.011775T9.241848 191.669384T9.546196 191.574275Q9.546196 191.307971 9.032609 190.927536T7.796196 190.547101Q6.578804 190.547101 5.894022 191.307971T5.209239 193.248188Q5.209239 195.112319 6.959239 196.139493T11.486413 197.166667Q14.453804 197.166667 16.394022 195.873188T18.334239 192.144928Q18.334239 190.547101 17.211957 189.177536T13.997283 187.237319V187.085145Q16.127717 186.856884 17.6875 185.734601T19.247283 182.177536Q19.247283 179.096014 17.002717 177.631341T11.372283 176.166667Q8.595109 176.166667 6.673913 177.250906Z" fill="#da0a0a" />
<path d="M12.019498 167.525492C12.279477 168.487413 12.698692 169.195857 13.277146 169.650819S14.495797 170.333263 15.19774 170.333263C15.990676 170.333263 16.66987 170.060286 17.235324 169.51433S18.083505 168.311927 18.083505 167.54499C18.083505 166.843048 17.911269 166.128105 17.566797 165.400165S16.78686 163.970282 16.260403 163.294337S15.19774 161.939197 14.651784 161.256752S13.582622 159.797622 13.082162 158.926692S12.227482 157.191333 12.019498 156.333403C11.785517 157.23033 11.411797 158.130508 10.89834 159.033933S9.855175 160.736794 9.309219 161.432238C8.763264 162.127682 8.230308 162.810127 7.710349 163.479571S6.761426 164.821711 6.423454 165.497657S5.916495 166.81705 5.916495 167.428C5.916495 168.246933 6.192724 168.935876 6.745178 169.494832C7.297632 170.053787 7.976828 170.333263 8.782762 170.333263C10.329635 170.333263 11.408555 169.39734 12.019498 167.525492Z" fill="#da0a0a" />
</svg>
