<svg width="500.000000" height="700.000000" id="card-webdiamond8">
<radialGradient id="card-webwhitegradient" cx="250.0" cy="350.0" r="500" gradientTransform="matrix(1 0 0 1 0 -.25)" gradientUnits="userSpaceOnUse">
<stop stop-color="#FDFAF4" offset=".15"/>
<stop stop-color="#FDF9F2" offset=".35"/>
<stop stop-color="#FCF7F1" offset=".5"/>
<stop stop-color="#FDFDF8" offset=".75"/>
<stop stop-color="#FFFDFA" offset="1"/>
</radialGradient>
<rect x="0" y="0" rx="25.0" ry="25.0" width="500" height="700.0" fill="url(#card-webwhitegradient)" />
<path d="M150.139082 66.666667C147.913769 71.117293 142.535925 79.114511 134.005563 90.658322C125.475202 102.202133 118.613769 110.848447 113.421419 116.597126C119.911919 124.014831 126.889193 132.823412 134.353268 143.022717C141.817344 153.222063 147.079277 161.103384 150.139082 166.666667C157.000459 154.427446 169.14701 137.737599 186.578581 116.597126C168.68331 94.993092 156.536857 78.34956 150.139082 66.666667Z" fill="#da0a0a" />
<path d="M149.860918 633.333333C152.086231 628.882707 157.464075 620.885489 165.994437 609.341678C174.524798 597.797867 181.386231 589.151553 186.578581 583.402874C180.088081 575.985169 173.110807 567.176588 165.646732 556.977283C158.182656 546.777937 152.920723 538.896616 149.860918 533.333333C142.999541 545.572554 130.85299 562.262401 113.421419 583.402874C131.31669 605.006908 143.463143 621.65044 149.860918 633.333333Z" fill="#da0a0a" />
<path d="M150.139082 222.222222C147.913769 226.672848 142.535925 234.670066 134.005563 246.213877C125.475202 257.757688 118.613769 266.404002 113.421419 272.152681C119.911919 279.570386 126.889193 288.378968 134.353268 298.578272C141.817344 308.777619 147.079277 316.65894 150.139082 322.222222C157.000459 309.983001 169.14701 293.293154 186.578581 272.152681C168.68331 250.548648 156.536857 233.905115 150.139082 222.222222Z" fill="#da0a0a" />
<path d="M149.860918 477.777778C152.086231 473.327152 157.464075 465.329934 165.994437 453.786123C174.524798 442.242312 181.386231 433.595998 186.578581 427.847319C180.088081 420.429614 173.110807 411.621032 165.646732 401.421728C158.182656 391.222381 152.920723 383.34106 149.860918 377.777778C142.999541 390.016999 130.85299 406.706846 113.421419 427.847319C131.31669 449.451352 143.463143 466.094885 149.860918 477.777778Z" fill="#da0a0a" />
<path d="M350.139082 66.666667C347.913769 71.117293 342.535925 79.114511 334.005563 90.658322C325.475202 102.202133 318.613769 110.848447 313.421419 116.597126C319.911919 124.014831 326.889193 132.823412 334.353268 143.022717C341.817344 153.222063 347.079277 161.103384 350.139082 166.666667C357.000459 154.427446 369.14701 137.737599 386.578581 116.597126C368.68331 94.993092 356.536857 78.34956 350.139082 66.666667Z" fill="#da0a0a" />
<path d="M349.860918 633.333333C352.086231 628.882707 357.464075 620.885489 365.994437 609.341678C374.524798 597.797867 381.386231 589.151553 386.578581 583.402874C380.088081 575.985169 373.110807 567.176588 365.646732 556.977283C358.182656 546.777937 352.920723 538.896616 349.860918 533.333333C342.999541 545.572554 330.85299 562.262401 313.421419 583.402874C331.31669 605.006908 343.463143 621.65044 349.860918 633.333333Z" fill="#da0a0a" />
<path d="M350.139082 222.222222C347.913769 226.672848 342.535925 234.670066 334.005563 246.213877C325.475202 257.757688 318.613769 266.404002 313.421419 272.152681C319.911919 279.570386 326.889193 288.378968 334.353268 298.578272C341.817344 308.777619 347.079277 316.65894 350.139082 322.222222C357.000459 309.983001 369.14701 293.293154 386.578581 272.152681C368.68331 250.548648 356.536857 233.905115 350.139082 222.222222Z" fill="#da0a0a" />
<path d="M349.860918 477.777778C352.086231 473.327152 357.464075 465.329934 365.994437 453.786123C374.524798 442.242312 381.386231 433.595998 386.578581 427.847319C380.088081 420.429614 373.110807 411.621032 365.646732 401.421728C358.182656 391.222381 352.920723 383.34106 349.860918 377.777778C342.999541 390.016999 330.85299 406.706846 313.421419 427.847319C331.31669 449.451352 343.463143 466.094885 349.860918 477.777778Z" fill="#da0a0a" />
<path d="M473.936364 110.359596Q479.6 107.941414 482.654545 103.741414T485.709091 94.19596Q485.709091 88.59596 481.954545 84.459596T470.818182 77.141414Q476.927273 73.450505 479.790909 69.632323T482.654545 60.977778Q482.654545 56.014141 479.345455 51.814141T470.563636 45.19596T458.854545 42.777778Q452.490909 42.777778 447.527273 45.068687T439.763636 51.305051T436.963636 60.214141Q436.963636 64.79596 440.145455 68.805051T449.690909 75.99596Q441.290909 79.559596 437.790909 83.505051T434.290909 93.559596Q434.290909 98.777778 437.663636 103.168687T447.081818 110.168687T460.890909 112.777778Q468.272727 112.777778 473.936364 110.359596ZM448.736364 67.659596Q446.890909 64.032323 446.890909 60.086869Q446.890909 54.614141 450.2 50.859596T459.490909 47.105051Q465.218182 47.105051 468.654545 50.414141T472.090909 58.814141Q472.090909 63.523232 467.445455 66.768687T454.018182 73.705051Q450.581818 71.286869 448.736364 67.659596ZM449.563636 105.014141Q445.745455 101.450505 445.745455 95.850505Q445.745455 92.159596 448.1 89.423232T454.209091 84.714141T465.981818 79.177778Q469.927273 81.850505 472.090909 85.541414T474.254545 93.686869Q474.254545 100.305051 470.245455 104.441414T459.745455 108.577778Q453.381818 108.577778 449.563636 105.014141Z" fill="#da0a0a" />
<path d="M460.064904 132.222456C459.026435 134.299394 456.5168 138.031391 452.536004 143.418449C448.555209 148.805507 445.353239 152.840413 442.930166 155.523103C445.959036 158.984665 449.215065 163.095295 452.698265 167.854923C456.181465 172.61457 458.637009 176.292483 460.064904 178.888656C463.266848 173.177076 468.935182 165.388559 477.069834 155.523103C468.718791 145.441322 463.050503 137.674418 460.064904 132.222456Z" fill="#da0a0a" />
<path d="M26.063636 589.640404Q20.4 592.058586 17.345455 596.258586T14.290909 605.80404Q14.290909 611.40404 18.045455 615.540404T29.181818 622.858586Q23.072727 626.549495 20.209091 630.367677T17.345455 639.022222Q17.345455 643.985859 20.654545 648.185859T29.436364 654.80404T41.145455 657.222222Q47.509091 657.222222 52.472727 654.931313T60.236364 648.694949T63.036364 639.785859Q63.036364 635.20404 59.854545 631.194949T50.309091 624.00404Q58.709091 620.440404 62.209091 616.494949T65.709091 606.440404Q65.709091 601.222222 62.336364 596.831313T52.918182 589.831313T39.109091 587.222222Q31.727273 587.222222 26.063636 589.640404ZM51.263636 632.340404Q53.109091 635.967677 53.109091 639.913131Q53.109091 645.385859 49.8 649.140404T40.509091 652.894949Q34.781818 652.894949 31.345455 649.585859T27.909091 641.185859Q27.909091 636.476768 32.554545 633.231313T45.981818 626.294949Q49.418182 628.713131 51.263636 632.340404ZM50.436364 594.985859Q54.254545 598.549495 54.254545 604.149495Q54.254545 607.840404 51.9 610.576768T45.790909 615.285859T34.018182 620.822222Q30.072727 618.149495 27.909091 614.458586T25.745455 606.313131Q25.745455 599.694949 29.754545 595.558586T40.254545 591.422222Q46.618182 591.422222 50.436364 594.985859Z" fill="#da0a0a" />
<path d="M39.935096 567.777544C40.973565 565.700606 43.4832 561.968609 47.463996 556.581551C51.444791 551.194493 54.646761 547.159587 57.069834 544.476897C54.040964 541.015335 50.784935 536.904705 47.301735 532.145077C43.818535 527.38543 41.362991 523.707517 39.935096 521.111344C36.733152 526.822924 31.064818 534.611441 22.930166 544.476897C31.281209 554.558678 36.949497 562.325582 39.935096 567.777544Z" fill="#da0a0a" />
</svg>
