<svg width="500.000000" height="700.000000" id="card-realdiamond10">
<radialGradient id="card-realwhitegradient" cx="250.0" cy="350.0" r="500" gradientTransform="matrix(1 0 0 1 0 -.25)" gradientUnits="userSpaceOnUse">
<stop stop-color="#FDFAF4" offset=".15"/>
<stop stop-color="#FDF9F2" offset=".35"/>
<stop stop-color="#FCF7F1" offset=".5"/>
<stop stop-color="#FDFDF8" offset=".75"/>
<stop stop-color="#FFFDFA" offset="1"/>
</radialGradient>
<rect x="0" y="0" rx="25.0" ry="25.0" width="500" height="700.0" stroke="#010101" fill="url(#card-realwhitegradient)" />
<path d="M150.139082 66.666667C147.913769 71.117293 142.535925 79.114511 134.005563 90.658322C125.475202 102.202133 118.613769 110.848447 113.421419 116.597126C119.911919 124.014831 126.889193 132.823412 134.353268 143.022717C141.817344 153.222063 147.079277 161.103384 150.139082 166.666667C157.000459 154.427446 169.14701 137.737599 186.578581 116.597126C168.68331 94.993092 156.536857 78.34956 150.139082 66.666667Z" fill="#da0a0a" />
<path d="M149.860918 633.333333C152.086231 628.882707 157.464075 620.885489 165.994437 609.341678C174.524798 597.797867 181.386231 589.151553 186.578581 583.402874C180.088081 575.985169 173.110807 567.176588 165.646732 556.977283C158.182656 546.777937 152.920723 538.896616 149.860918 533.333333C142.999541 545.572554 130.85299 562.262401 113.421419 583.402874C131.31669 605.006908 143.463143 621.65044 149.860918 633.333333Z" fill="#da0a0a" />
<path d="M150.139082 222.222222C147.913769 226.672848 142.535925 234.670066 134.005563 246.213877C125.475202 257.757688 118.613769 266.404002 113.421419 272.152681C119.911919 279.570386 126.889193 288.378968 134.353268 298.578272C141.817344 308.777619 147.079277 316.65894 150.139082 322.222222C157.000459 309.983001 169.14701 293.293154 186.578581 272.152681C168.68331 250.548648 156.536857 233.905115 150.139082 222.222222Z" fill="#da0a0a" />
<path d="M149.860918 477.777778C152.086231 473.327152 157.464075 465.329934 165.994437 453.786123C174.524798 442.242312 181.386231 433.595998 186.578581 427.847319C180.088081 420.429614 173.110807 411.621032 165.646732 401.421728C158.182656 391.222381 152.920723 383.34106 149.860918 377.777778C142.999541 390.016999 130.85299 406.706846 113.421419 427.847319C131.31669 449.451352 143.463143 466.094885 149.860918 477.777778Z" fill="#da0a0a" />
<path d="M350.139082 66.666667C347.913769 71.117293 342.535925 79.114511 334.005563 90.658322C325.475202 102.202133 318.613769 110.848447 313.421419 116.597126C319.911919 124.014831 326.889193 132.823412 334.353268 143.022717C341.817344 153.222063 347.079277 161.103384 350.139082 166.666667C357.000459 154.427446 369.14701 137.737599 386.578581 116.597126C368.68331 94.993092 356.536857 78.34956 350.139082 66.666667Z" fill="#da0a0a" />
<path d="M349.860918 633.333333C352.086231 628.882707 357.464075 620.885489 365.994437 609.341678C374.524798 597.797867 381.386231 589.151553 386.578581 583.402874C380.088081 575.985169 373.110807 567.176588 365.646732 556.977283C358.182656 546.777937 352.920723 538.896616 349.860918 533.333333C342.999541 545.572554 330.85299 562.262401 313.421419 583.402874C331.31669 605.006908 343.463143 621.65044 349.860918 633.333333Z" fill="#da0a0a" />
<path d="M350.139082 222.222222C347.913769 226.672848 342.535925 234.670066 334.005563 246.213877C325.475202 257.757688 318.613769 266.404002 313.421419 272.152681C319.911919 279.570386 326.889193 288.378968 334.353268 298.578272C341.817344 308.777619 347.079277 316.65894 350.139082 322.222222C357.000459 309.983001 369.14701 293.293154 386.578581 272.152681C368.68331 250.548648 356.536857 233.905115 350.139082 222.222222Z" fill="#da0a0a" />
<path d="M349.860918 477.777778C352.086231 473.327152 357.464075 465.329934 365.994437 453.786123C374.524798 442.242312 381.386231 433.595998 386.578581 427.847319C380.088081 420.429614 373.110807 411.621032 365.646732 401.421728C358.182656 391.222381 352.920723 383.34106 349.860918 377.777778C342.999541 390.016999 330.85299 406.706846 313.421419 427.847319C331.31669 449.451352 343.463143 466.094885 349.860918 477.777778Z" fill="#da0a0a" />
<path d="M250.139082 144.444444C247.913769 148.89507 242.535925 156.892289 234.005563 168.4361C225.475202 179.97991 218.613769 188.626225 213.421419 194.374903C219.911919 201.792609 226.889193 210.60119 234.353268 220.800495C241.817344 230.999841 247.079277 238.881162 250.139082 244.444444C257.000459 232.205223 269.14701 215.515376 286.578581 194.374903C268.68331 172.77087 256.536857 156.127337 250.139082 144.444444Z" fill="#da0a0a" />
<path d="M250.139082 455.555556C247.913769 460.006181 242.535925 468.0034 234.005563 479.547211C225.475202 491.091021 218.613769 499.737336 213.421419 505.486015C219.911919 512.90372 226.889193 521.712301 234.353268 531.911606C241.817344 542.110952 247.079277 549.992273 250.139082 555.555556C257.000459 543.316334 269.14701 526.626487 286.578581 505.486015C268.68331 483.881981 256.536857 467.238448 250.139082 455.555556Z" fill="#da0a0a" />
<path d="M494.511942 108.959596Q494.427094 107.432323 494.130127 106.923232T493.154379 106.414141Q488.402912 106.414141 486.408992 105.841414T483.439325 102.850505T482.463577 94.705051V68.232323Q482.37873 62.250505 482.845392 59.641414T484.49992 56.268687T488.402912 55.505051H492.560446Q494.087703 55.505051 494.087703 52.450505Q494.002856 50.541414 493.578618 50.09596T492.518022 49.650505H491.627122Q488.063521 49.650505 484.669616 47.932323T477.287871 43.79596Q476.778786 43.541414 476.439395 43.541414Q475.081833 43.541414 475.081833 46.468687V94.705051Q475.081833 100.305051 474.190933 102.723232T471.390961 105.777778T465.239507 106.414141H464.391031Q463.71225 106.414141 463.415283 106.923232T463.033468 108.959596Q463.033468 112.014141 464.560726 112.014141Q470.669756 111.632323 478.815129 111.632323Q486.875654 111.632323 492.984684 112.014141Q494.511942 112.014141 494.511942 108.959596ZM456.83926 107.941414Q461.378609 103.105051 463.627071 95.086869T465.875533 77.650505Q465.875533 68.105051 463.627071 60.214141T456.83926 47.550505T445.681796 42.777778Q439.403071 42.777778 434.821298 47.614141T427.863792 60.468687T425.488058 77.650505T427.863792 94.832323T434.821298 107.814141T445.681796 112.777778Q452.299912 112.777778 456.83926 107.941414ZM436.772794 100.177778Q433.633432 92.286869 433.633432 77.650505T436.772794 55.250505T445.596948 47.486869Q451.451435 47.486869 454.590798 55.186869T457.73016 77.650505T454.590798 100.241414T445.596948 108.068687Q439.912157 108.068687 436.772794 100.177778Z" fill="#da0a0a" />
<path d="M460.064904 132.222456C459.026435 134.299394 456.5168 138.031391 452.536004 143.418449C448.555209 148.805507 445.353239 152.840413 442.930166 155.523103C445.959036 158.984665 449.215065 163.095295 452.698265 167.854923C456.181465 172.61457 458.637009 176.292483 460.064904 178.888656C463.266848 173.177076 468.935182 165.388559 477.069834 155.523103C468.718791 145.441322 463.050503 137.674418 460.064904 132.222456Z" fill="#da0a0a" />
<path d="M5.488058 591.040404Q5.572906 592.567677 5.869873 593.076768T6.845621 593.585859Q11.597088 593.585859 13.591008 594.158586T16.560675 597.149495T17.536423 605.294949V631.767677Q17.62127 637.749495 17.154608 640.358586T15.50008 643.731313T11.597088 644.494949H7.439554Q5.912297 644.494949 5.912297 647.549495Q5.997144 649.458586 6.421382 649.90404T7.481978 650.349495H8.372878Q11.936479 650.349495 15.330384 652.067677T22.712129 656.20404Q23.221214 656.458586 23.560605 656.458586Q24.918167 656.458586 24.918167 653.531313V605.294949Q24.918167 599.694949 25.809067 597.276768T28.609039 594.222222T34.760493 593.585859H35.608969Q36.28775 593.585859 36.584717 593.076768T36.966532 591.040404Q36.966532 587.985859 35.439274 587.985859Q29.330244 588.367677 21.184871 588.367677Q13.124346 588.367677 7.015316 587.985859Q5.488058 587.985859 5.488058 591.040404ZM43.16074 592.058586Q38.621391 596.894949 36.372929 604.913131T34.124467 622.349495Q34.124467 631.894949 36.372929 639.785859T43.16074 652.449495T54.318204 657.222222Q60.596929 657.222222 65.178702 652.385859T72.136208 639.531313T74.511942 622.349495T72.136208 605.167677T65.178702 592.185859T54.318204 587.222222Q47.700088 587.222222 43.16074 592.058586ZM63.227206 599.822222Q66.366568 607.713131 66.366568 622.349495T63.227206 644.749495T54.403052 652.513131Q48.548565 652.513131 45.409202 644.813131T42.26984 622.349495T45.409202 599.758586T54.403052 591.931313Q60.087843 591.931313 63.227206 599.822222Z" fill="#da0a0a" />
<path d="M39.935096 567.777544C40.973565 565.700606 43.4832 561.968609 47.463996 556.581551C51.444791 551.194493 54.646761 547.159587 57.069834 544.476897C54.040964 541.015335 50.784935 536.904705 47.301735 532.145077C43.818535 527.38543 41.362991 523.707517 39.935096 521.111344C36.733152 526.822924 31.064818 534.611441 22.930166 544.476897C31.281209 554.558678 36.949497 562.325582 39.935096 567.777544Z" fill="#da0a0a" />
</svg>
