<svg width="500.000000" height="700.000000" id="card-realspade10">
<radialGradient id="card-realwhitegradient" cx="250.0" cy="350.0" r="500" gradientTransform="matrix(1 0 0 1 0 -.25)" gradientUnits="userSpaceOnUse">
<stop stop-color="#FDFAF4" offset=".15"/>
<stop stop-color="#FDF9F2" offset=".35"/>
<stop stop-color="#FCF7F1" offset=".5"/>
<stop stop-color="#FDFDF8" offset=".75"/>
<stop stop-color="#FFFDFA" offset="1"/>
</radialGradient>
<rect x="0" y="0" rx="25.0" ry="25.0" width="500" height="700.0" stroke="#010101" fill="url(#card-realwhitegradient)" />
<path d="M147.659574 132.907801C147.186762 137.825064 146.004723 142.174936 144.113475 145.957447C142.222227 149.739957 140.236411 152.624113 138.156028 154.609929S133.451532 158.297872 130.283688 159.716312C127.115844 161.134752 124.680851 162.056738 122.978723 162.48227S119.196213 163.309692 116.737589 163.687943C116.359338 163.782506 116.07565 163.829787 115.886525 163.829787V166.666667H184.113475V163.829787C176.075645 162.411348 169.976355 160.330965 165.815603 157.588652C157.87234 152.293149 153.38061 144.066199 152.340426 132.907801C157.257688 140.472809 163.593376 144.255319 171.347518 144.255319C176.359333 144.255319 180.638298 142.505915 184.184397 139.007092S189.503546 131.25295 189.503546 126.241135C189.503546 121.985816 188.463357 118.108752 186.382979 114.609929C184.302596 111.111106 181.60756 107.919617 178.297872 105.035461S171.583929 99.148936 168.085106 96.028369C164.586284 92.907801 161.134752 88.817972 157.730496 83.758865S151.725773 73.002369 149.929078 66.666667C148.321518 72.907801 145.839248 78.534284 142.48227 83.546099S135.673759 92.624113 132.12766 95.744681S125.15366 101.891248 121.843972 104.822695S115.815603 110.969262 113.687943 114.468085S110.496454 121.891248 110.496454 126.241135C110.496454 131.25295 112.269504 135.50827 115.815603 139.007092S123.640667 144.255319 128.652482 144.255319C136.406624 144.255319 142.742312 140.472809 147.659574 132.907801Z" fill="#010101" />
<path d="M152.340426 567.092199C152.813238 562.174936 153.995277 557.825064 155.886525 554.042553C157.777773 550.260043 159.763589 547.375887 161.843972 545.390071S166.548468 541.702128 169.716312 540.283688C172.884156 538.865248 175.319149 537.943262 177.021277 537.51773S180.803787 536.690308 183.262411 536.312057C183.640662 536.217494 183.92435 536.170213 184.113475 536.170213V533.333333H115.886525V536.170213C123.924355 537.588652 130.023645 539.669035 134.184397 542.411348C142.12766 547.706851 146.61939 555.933801 147.659574 567.092199C142.742312 559.527191 136.406624 555.744681 128.652482 555.744681C123.640667 555.744681 119.361702 557.494085 115.815603 560.992908S110.496454 568.74705 110.496454 573.758865C110.496454 578.014184 111.536643 581.891248 113.617021 585.390071C115.697404 588.888894 118.39244 592.080383 121.702128 594.964539S128.416071 600.851064 131.914894 603.971631C135.413716 607.092199 138.865248 611.182028 142.269504 616.241135S148.274227 626.997631 150.070922 633.333333C151.678482 627.092199 154.160752 621.465716 157.51773 616.453901S164.326241 607.375887 167.87234 604.255319S174.84634 598.108752 178.156028 595.177305S184.184397 589.030738 186.312057 585.531915S189.503546 578.108752 189.503546 573.758865C189.503546 568.74705 187.730496 564.49173 184.184397 560.992908S176.359333 555.744681 171.347518 555.744681C163.593376 555.744681 157.257688 559.527191 152.340426 567.092199Z" fill="#010101" />
<path d="M147.659574 288.463357C147.186762 293.380619 146.004723 297.730492 144.113475 301.513002C142.222227 305.295513 140.236411 308.179669 138.156028 310.165485S133.451532 313.853428 130.283688 315.271868C127.115844 316.690307 124.680851 317.612293 122.978723 318.037825S119.196213 318.865248 116.737589 319.243499C116.359338 319.338062 116.07565 319.385343 115.886525 319.385343V322.222222H184.113475V319.385343C176.075645 317.966903 169.976355 315.88652 165.815603 313.144208C157.87234 307.848704 153.38061 299.621754 152.340426 288.463357C157.257688 296.028364 163.593376 299.810875 171.347518 299.810875C176.359333 299.810875 180.638298 298.06147 184.184397 294.562648S189.503546 286.808506 189.503546 281.79669C189.503546 277.541371 188.463357 273.664307 186.382979 270.165485C184.302596 266.666662 181.60756 263.475173 178.297872 260.591017S171.583929 254.704492 168.085106 251.583924C164.586284 248.463357 161.134752 244.373527 157.730496 239.314421S151.725773 228.557924 149.929078 222.222222C148.321518 228.463357 145.839248 234.089839 142.48227 239.101655S135.673759 248.179669 132.12766 251.300236S125.15366 257.446804 121.843972 260.378251S115.815603 266.524818 113.687943 270.023641S110.496454 277.446804 110.496454 281.79669C110.496454 286.808506 112.269504 291.063825 115.815603 294.562648S123.640667 299.810875 128.652482 299.810875C136.406624 299.810875 142.742312 296.028364 147.659574 288.463357Z" fill="#010101" />
<path d="M152.340426 411.536643C152.813238 406.619381 153.995277 402.269508 155.886525 398.486998C157.777773 394.704487 159.763589 391.820331 161.843972 389.834515S166.548468 386.146572 169.716312 384.728132C172.884156 383.309693 175.319149 382.387707 177.021277 381.962175S180.803787 381.134752 183.262411 380.756501C183.640662 380.661938 183.92435 380.614657 184.113475 380.614657V377.777778H115.886525V380.614657C123.924355 382.033097 130.023645 384.11348 134.184397 386.855792C142.12766 392.151296 146.61939 400.378246 147.659574 411.536643C142.742312 403.971636 136.406624 400.189125 128.652482 400.189125C123.640667 400.189125 119.361702 401.93853 115.815603 405.437352S110.496454 413.191494 110.496454 418.20331C110.496454 422.458629 111.536643 426.335693 113.617021 429.834515C115.697404 433.333338 118.39244 436.524827 121.702128 439.408983S128.416071 445.295508 131.914894 448.416076C135.413716 451.536643 138.865248 455.626473 142.269504 460.685579S148.274227 471.442076 150.070922 477.777778C151.678482 471.536643 154.160752 465.910161 157.51773 460.898345S164.326241 451.820331 167.87234 448.699764S174.84634 442.553196 178.156028 439.621749S184.184397 433.475182 186.312057 429.976359S189.503546 422.553196 189.503546 418.20331C189.503546 413.191494 187.730496 408.936175 184.184397 405.437352S176.359333 400.189125 171.347518 400.189125C163.593376 400.189125 157.257688 403.971636 152.340426 411.536643Z" fill="#010101" />
<path d="M347.659574 132.907801C347.186762 137.825064 346.004723 142.174936 344.113475 145.957447C342.222227 149.739957 340.236411 152.624113 338.156028 154.609929S333.451532 158.297872 330.283688 159.716312C327.115844 161.134752 324.680851 162.056738 322.978723 162.48227S319.196213 163.309692 316.737589 163.687943C316.359338 163.782506 316.07565 163.829787 315.886525 163.829787V166.666667H384.113475V163.829787C376.075645 162.411348 369.976355 160.330965 365.815603 157.588652C357.87234 152.293149 353.38061 144.066199 352.340426 132.907801C357.257688 140.472809 363.593376 144.255319 371.347518 144.255319C376.359333 144.255319 380.638298 142.505915 384.184397 139.007092S389.503546 131.25295 389.503546 126.241135C389.503546 121.985816 388.463357 118.108752 386.382979 114.609929C384.302596 111.111106 381.60756 107.919617 378.297872 105.035461S371.583929 99.148936 368.085106 96.028369C364.586284 92.907801 361.134752 88.817972 357.730496 83.758865S351.725773 73.002369 349.929078 66.666667C348.321518 72.907801 345.839248 78.534284 342.48227 83.546099S335.673759 92.624113 332.12766 95.744681S325.15366 101.891248 321.843972 104.822695S315.815603 110.969262 313.687943 114.468085S310.496454 121.891248 310.496454 126.241135C310.496454 131.25295 312.269504 135.50827 315.815603 139.007092S323.640667 144.255319 328.652482 144.255319C336.406624 144.255319 342.742312 140.472809 347.659574 132.907801Z" fill="#010101" />
<path d="M352.340426 567.092199C352.813238 562.174936 353.995277 557.825064 355.886525 554.042553C357.777773 550.260043 359.763589 547.375887 361.843972 545.390071S366.548468 541.702128 369.716312 540.283688C372.884156 538.865248 375.319149 537.943262 377.021277 537.51773S380.803787 536.690308 383.262411 536.312057C383.640662 536.217494 383.92435 536.170213 384.113475 536.170213V533.333333H315.886525V536.170213C323.924355 537.588652 330.023645 539.669035 334.184397 542.411348C342.12766 547.706851 346.61939 555.933801 347.659574 567.092199C342.742312 559.527191 336.406624 555.744681 328.652482 555.744681C323.640667 555.744681 319.361702 557.494085 315.815603 560.992908S310.496454 568.74705 310.496454 573.758865C310.496454 578.014184 311.536643 581.891248 313.617021 585.390071C315.697404 588.888894 318.39244 592.080383 321.702128 594.964539S328.416071 600.851064 331.914894 603.971631C335.413716 607.092199 338.865248 611.182028 342.269504 616.241135S348.274227 626.997631 350.070922 633.333333C351.678482 627.092199 354.160752 621.465716 357.51773 616.453901S364.326241 607.375887 367.87234 604.255319S374.84634 598.108752 378.156028 595.177305S384.184397 589.030738 386.312057 585.531915S389.503546 578.108752 389.503546 573.758865C389.503546 568.74705 387.730496 564.49173 384.184397 560.992908S376.359333 555.744681 371.347518 555.744681C363.593376 555.744681 357.257688 559.527191 352.340426 567.092199Z" fill="#010101" />
<path d="M347.659574 288.463357C347.186762 293.380619 346.004723 297.730492 344.113475 301.513002C342.222227 305.295513 340.236411 308.179669 338.156028 310.165485S333.451532 313.853428 330.283688 315.271868C327.115844 316.690307 324.680851 317.612293 322.978723 318.037825S319.196213 318.865248 316.737589 319.243499C316.359338 319.338062 316.07565 319.385343 315.886525 319.385343V322.222222H384.113475V319.385343C376.075645 317.966903 369.976355 315.88652 365.815603 313.144208C357.87234 307.848704 353.38061 299.621754 352.340426 288.463357C357.257688 296.028364 363.593376 299.810875 371.347518 299.810875C376.359333 299.810875 380.638298 298.06147 384.184397 294.562648S389.503546 286.808506 389.503546 281.79669C389.503546 277.541371 388.463357 273.664307 386.382979 270.165485C384.302596 266.666662 381.60756 263.475173 378.297872 260.591017S371.583929 254.704492 368.085106 251.583924C364.586284 248.463357 361.134752 244.373527 357.730496 239.314421S351.725773 228.557924 349.929078 222.222222C348.321518 228.463357 345.839248 234.089839 342.48227 239.101655S335.673759 248.179669 332.12766 251.300236S325.15366 257.446804 321.843972 260.378251S315.815603 266.524818 313.687943 270.023641S310.496454 277.446804 310.496454 281.79669C310.496454 286.808506 312.269504 291.063825 315.815603 294.562648S323.640667 299.810875 328.652482 299.810875C336.406624 299.810875 342.742312 296.028364 347.659574 288.463357Z" fill="#010101" />
<path d="M352.340426 411.536643C352.813238 406.619381 353.995277 402.269508 355.886525 398.486998C357.777773 394.704487 359.763589 391.820331 361.843972 389.834515S366.548468 386.146572 369.716312 384.728132C372.884156 383.309693 375.319149 382.387707 377.021277 381.962175S380.803787 381.134752 383.262411 380.756501C383.640662 380.661938 383.92435 380.614657 384.113475 380.614657V377.777778H315.886525V380.614657C323.924355 382.033097 330.023645 384.11348 334.184397 386.855792C342.12766 392.151296 346.61939 400.378246 347.659574 411.536643C342.742312 403.971636 336.406624 400.189125 328.652482 400.189125C323.640667 400.189125 319.361702 401.93853 315.815603 405.437352S310.496454 413.191494 310.496454 418.20331C310.496454 422.458629 311.536643 426.335693 313.617021 429.834515C315.697404 433.333338 318.39244 436.524827 321.702128 439.408983S328.416071 445.295508 331.914894 448.416076C335.413716 451.536643 338.865248 455.626473 342.269504 460.685579S348.274227 471.442076 350.070922 477.777778C351.678482 471.536643 354.160752 465.910161 357.51773 460.898345S364.326241 451.820331 367.87234 448.699764S374.84634 442.553196 378.156028 439.621749S384.184397 433.475182 386.312057 429.976359S389.503546 422.553196 389.503546 418.20331C389.503546 413.191494 387.730496 408.936175 384.184397 405.437352S376.359333 400.189125 371.347518 400.189125C363.593376 400.189125 357.257688 403.971636 352.340426 411.536643Z" fill="#010101" />
<path d="M247.659574 210.685579C247.186762 215.602842 246.004723 219.952714 244.113475 223.735225C242.222227 227.517735 240.236411 230.401891 238.156028 232.387707S233.451532 236.07565 230.283688 237.49409C227.115844 238.91253 224.680851 239.834515 222.978723 240.260047S219.196213 241.08747 216.737589 241.465721C216.359338 241.560284 216.07565 241.607565 215.886525 241.607565V244.444444H284.113475V241.607565C276.075645 240.189125 269.976355 238.108742 265.815603 235.36643C257.87234 230.070927 253.38061 221.843976 252.340426 210.685579C257.257688 218.250586 263.593376 222.033097 271.347518 222.033097C276.359333 222.033097 280.638298 220.283693 284.184397 216.78487S289.503546 209.030728 289.503546 204.018913C289.503546 199.763593 288.463357 195.88653 286.382979 192.387707C284.302596 188.888884 281.60756 185.697395 278.297872 182.813239S271.583929 176.926714 268.085106 173.806147C264.586284 170.685579 261.134752 166.595749 257.730496 161.536643S251.725773 150.780147 249.929078 144.444444C248.321518 150.685579 245.839248 156.312061 242.48227 161.323877S235.673759 170.401891 232.12766 173.522459S225.15366 179.669026 221.843972 182.600473S215.815603 188.74704 213.687943 192.245863S210.496454 199.669026 210.496454 204.018913C210.496454 209.030728 212.269504 213.286047 215.815603 216.78487S223.640667 222.033097 228.652482 222.033097C236.406624 222.033097 242.742312 218.250586 247.659574 210.685579Z" fill="#010101" />
<path d="M247.659574 521.79669C247.186762 526.713953 246.004723 531.063825 244.113475 534.846336C242.222227 538.628846 240.236411 541.513002 238.156028 543.498818S233.451532 547.186761 230.283688 548.605201C227.115844 550.023641 224.680851 550.945626 222.978723 551.371158S219.196213 552.198581 216.737589 552.576832C216.359338 552.671395 216.07565 552.718676 215.886525 552.718676V555.555556H284.113475V552.718676C276.075645 551.300236 269.976355 549.219853 265.815603 546.477541C257.87234 541.182038 253.38061 532.955087 252.340426 521.79669C257.257688 529.361697 263.593376 533.144208 271.347518 533.144208C276.359333 533.144208 280.638298 531.394804 284.184397 527.895981S289.503546 520.141839 289.503546 515.130024C289.503546 510.874704 288.463357 506.997641 286.382979 503.498818C284.302596 499.999995 281.60756 496.808506 278.297872 493.92435S271.583929 488.037825 268.085106 484.917258C264.586284 481.79669 261.134752 477.706861 257.730496 472.647754S251.725773 461.891258 249.929078 455.555556C248.321518 461.79669 245.839248 467.423173 242.48227 472.434988S235.673759 481.513002 232.12766 484.63357S225.15366 490.780137 221.843972 493.711584S215.815603 499.858151 213.687943 503.356974S210.496454 510.780137 210.496454 515.130024C210.496454 520.141839 212.269504 524.397158 215.815603 527.895981S223.640667 533.144208 228.652482 533.144208C236.406624 533.144208 242.742312 529.361697 247.659574 521.79669Z" fill="#010101" />
<path d="M494.511942 108.959596Q494.427094 107.432323 494.130127 106.923232T493.154379 106.414141Q488.402912 106.414141 486.408992 105.841414T483.439325 102.850505T482.463577 94.705051V68.232323Q482.37873 62.250505 482.845392 59.641414T484.49992 56.268687T488.402912 55.505051H492.560446Q494.087703 55.505051 494.087703 52.450505Q494.002856 50.541414 493.578618 50.09596T492.518022 49.650505H491.627122Q488.063521 49.650505 484.669616 47.932323T477.287871 43.79596Q476.778786 43.541414 476.439395 43.541414Q475.081833 43.541414 475.081833 46.468687V94.705051Q475.081833 100.305051 474.190933 102.723232T471.390961 105.777778T465.239507 106.414141H464.391031Q463.71225 106.414141 463.415283 106.923232T463.033468 108.959596Q463.033468 112.014141 464.560726 112.014141Q470.669756 111.632323 478.815129 111.632323Q486.875654 111.632323 492.984684 112.014141Q494.511942 112.014141 494.511942 108.959596ZM456.83926 107.941414Q461.378609 103.105051 463.627071 95.086869T465.875533 77.650505Q465.875533 68.105051 463.627071 60.214141T456.83926 47.550505T445.681796 42.777778Q439.403071 42.777778 434.821298 47.614141T427.863792 60.468687T425.488058 77.650505T427.863792 94.832323T434.821298 107.814141T445.681796 112.777778Q452.299912 112.777778 456.83926 107.941414ZM436.772794 100.177778Q433.633432 92.286869 433.633432 77.650505T436.772794 55.250505T445.596948 47.486869Q451.451435 47.486869 454.590798 55.186869T457.73016 77.650505T454.590798 100.241414T445.596948 108.068687Q439.912157 108.068687 436.772794 100.177778Z" fill="#010101" />
<path d="M458.907812 163.134676C458.687169 165.429375 458.135556 167.459296 457.252983 169.22445C456.370409 170.989604 455.443704 172.33553 454.472869 173.262234S452.277459 174.983257 450.799146 175.645189C449.320834 176.307121 448.184515 176.737377 447.390197 176.935956S445.625043 177.322083 444.477697 177.498599C444.301181 177.542727 444.168795 177.564792 444.080537 177.564792V178.888656H475.919463V177.564792C472.168513 176.90286 469.322206 175.932024 467.380541 174.652291C463.673722 172.181081 461.577602 168.341876 461.092188 163.134676C463.386887 166.664977 466.343512 168.430131 469.962075 168.430131C472.300899 168.430131 474.297729 167.613751 475.952559 165.980983S478.434804 162.36242 478.434804 160.023596C478.434804 158.0378 477.949387 156.228522 476.978554 154.595754C476.007718 152.962987 474.750047 151.47364 473.205542 150.127714S470.0724 147.380696 468.439632 145.924446C466.806864 144.468196 465.196166 142.559628 463.607529 140.198735S460.805353 135.179087 459.966903 132.222456C459.216716 135.134956 458.058335 137.760621 456.491761 140.099445S453.314488 144.33581 451.659658 145.79206S448.405157 148.660429 446.860651 150.028424S444.047441 152.896793 443.054543 154.529561S441.565196 157.993669 441.565196 160.023596C441.565196 162.36242 442.392611 164.348216 444.047441 165.980983S447.699101 168.430131 450.037925 168.430131C453.656488 168.430131 456.613113 166.664977 458.907812 163.134676Z" fill="#010101" />
<path d="M5.488058 591.040404Q5.572906 592.567677 5.869873 593.076768T6.845621 593.585859Q11.597088 593.585859 13.591008 594.158586T16.560675 597.149495T17.536423 605.294949V631.767677Q17.62127 637.749495 17.154608 640.358586T15.50008 643.731313T11.597088 644.494949H7.439554Q5.912297 644.494949 5.912297 647.549495Q5.997144 649.458586 6.421382 649.90404T7.481978 650.349495H8.372878Q11.936479 650.349495 15.330384 652.067677T22.712129 656.20404Q23.221214 656.458586 23.560605 656.458586Q24.918167 656.458586 24.918167 653.531313V605.294949Q24.918167 599.694949 25.809067 597.276768T28.609039 594.222222T34.760493 593.585859H35.608969Q36.28775 593.585859 36.584717 593.076768T36.966532 591.040404Q36.966532 587.985859 35.439274 587.985859Q29.330244 588.367677 21.184871 588.367677Q13.124346 588.367677 7.015316 587.985859Q5.488058 587.985859 5.488058 591.040404ZM43.16074 592.058586Q38.621391 596.894949 36.372929 604.913131T34.124467 622.349495Q34.124467 631.894949 36.372929 639.785859T43.16074 652.449495T54.318204 657.222222Q60.596929 657.222222 65.178702 652.385859T72.136208 639.531313T74.511942 622.349495T72.136208 605.167677T65.178702 592.185859T54.318204 587.222222Q47.700088 587.222222 43.16074 592.058586ZM63.227206 599.822222Q66.366568 607.713131 66.366568 622.349495T63.227206 644.749495T54.403052 652.513131Q48.548565 652.513131 45.409202 644.813131T42.26984 622.349495T45.409202 599.758586T54.403052 591.931313Q60.087843 591.931313 63.227206 599.822222Z" fill="#010101" />
<path d="M41.092188 536.865324C41.312831 534.570625 41.864444 532.540704 42.747017 530.77555C43.629591 529.010396 44.556296 527.66447 45.527131 526.737766S47.722541 525.016743 49.200854 524.354811C50.679166 523.692879 51.815485 523.262623 52.609803 523.064044S54.374957 522.677917 55.522303 522.501401C55.698819 522.457273 55.831205 522.435208 55.919463 522.435208V521.111344H24.080537V522.435208C27.831487 523.09714 30.677794 524.067976 32.619459 525.347709C36.326278 527.818919 38.422398 531.658124 38.907812 536.865324C36.613113 533.335023 33.656488 531.569869 30.037925 531.569869C27.699101 531.569869 25.702271 532.386249 24.047441 534.019017S21.565196 537.63758 21.565196 539.976404C21.565196 541.9622 22.050613 543.771478 23.021446 545.404246C23.992282 547.037013 25.249953 548.52636 26.794458 549.872286S29.9276 552.619304 31.560368 554.075554C33.193136 555.531804 34.803834 557.440372 36.392471 559.801265S39.194647 564.820913 40.033097 567.777544C40.783284 564.865044 41.941665 562.239379 43.508239 559.900555S46.685512 555.66419 48.340342 554.20794S51.594843 551.339571 53.139349 549.971576S55.952559 547.103207 56.945457 545.470439S58.434804 542.006331 58.434804 539.976404C58.434804 537.63758 57.607389 535.651784 55.952559 534.019017S52.300899 531.569869 49.962075 531.569869C46.343512 531.569869 43.386887 533.335023 41.092188 536.865324Z" fill="#010101" />
</svg>
