<svg width="25.000000" height="35.000000" id="card-lightspade11">
<rect x="0" y="0" rx="1.25" ry="1.25" width="25" height="35.0" stroke="#010101" fill="#fffdfa" />
<rect x="5.0" y="3.5" width="15.0" height="28.0" stroke="#010101" fill="#fffdfa" />
<path d="M14.804965 10.335437C14.634752 10.335437 14.431443 10.243239 14.195035 10.058842S13.840426 9.706596 13.840426 9.555296C13.840426 9.432364 13.953901 9.370898 14.180851 9.370898C14.369976 9.370898 14.55201 9.446548 14.72695 9.597849S14.989362 9.909905 14.989362 10.080118S14.927896 10.335437 14.804965 10.335437ZM16.762411 12.661678C16.705674 12.311796 16.393617 11.536383 15.826241 10.335437S14.975177 8.354345 14.975177 7.995012C14.975177 7.711324 14.998818 7.456005 15.046099 7.229054C14.299054 7.229054 13.769504 7.385083 13.457447 7.697139C13.183216 7.252696 12.975177 7.030473 12.833333 7.030473C12.578014 7.172317 12.410166 7.304704 12.329787 7.427636S12.147755 7.801158 12.024823 8.179409C11.949173 8.160497 11.873522 8.15104 11.797872 8.15104C11.599291 8.15104 11.365248 8.20305 11.095745 8.307069S10.521277 8.607305 10.180851 8.895721S9.528369 9.543476 9.244681 9.973735S8.722223 10.98792 8.528369 11.725508S8.237589 13.290515 8.237589 14.207778C8.237589 14.642766 8.256501 15.0352 8.294326 15.385083H14.280142C14.270686 14.969008 14.185579 14.593121 14.024823 14.257423S13.691489 13.659314 13.507092 13.470189C13.322695 13.281064 13.14539 13.049385 12.975177 12.775154S12.700946 12.217235 12.663121 11.92409C13.022458 12.065934 13.334515 12.255059 13.599291 12.491466S14.048464 12.943002 14.152482 13.136856S14.358156 13.500922 14.457447 13.647494C14.556738 13.794066 14.653664 13.867352 14.748227 13.867352C14.984634 13.867352 15.102837 13.720781 15.102837 13.427636C15.1974 13.550567 15.306146 13.612033 15.429078 13.612033L15.712766 13.541111C16.005911 13.465461 16.22104 13.368534 16.358156 13.250331C16.495272 13.132128 16.630024 12.93591 16.762411 12.661678ZM15.897163 12.207778C16.029551 12.207778 16.143026 12.250331 16.237589 12.335437S16.379433 12.524562 16.379433 12.647494C16.379433 12.685319 16.365248 12.7326 16.336879 12.789338C16.204492 12.789338 16.09338 12.751513 16.003546 12.675863S15.868794 12.500922 15.868794 12.377991C15.868794 12.359078 15.878251 12.30234 15.897163 12.207778ZM8.932624 14.392175C8.932624 13.692412 9.015366 13.025745 9.180851 12.392175S9.554373 11.229054 9.804965 10.803522S10.327423 10.006832 10.620567 9.690047C10.913712 9.373263 11.187943 9.141583 11.443262 8.995012S11.916075 8.775154 12.095745 8.775154C12.275414 8.794066 12.365248 8.855532 12.365248 8.959551C12.365248 9.016288 12.351064 9.054114 12.322695 9.073026C11.386525 9.545839 10.674936 10.271608 10.187943 11.250331S9.457447 13.271608 9.457447 14.377991C9.457447 14.63331 9.367612 14.760969 9.187943 14.760969C9.01773 14.760969 8.932624 14.638038 8.932624 14.392175Z" fill="#010101" />
<path d="M10.195035 24.664563C10.365248 24.664563 10.568557 24.756761 10.804965 24.941158S11.159574 25.293404 11.159574 25.444704C11.159574 25.567636 11.046099 25.629102 10.819149 25.629102C10.630024 25.629102 10.44799 25.553452 10.27305 25.402151S10.010638 25.090095 10.010638 24.919882S10.072104 24.664563 10.195035 24.664563ZM8.237589 22.338322C8.294326 22.688204 8.606383 23.463617 9.173759 24.664563S10.024823 26.645655 10.024823 27.004988C10.024823 27.288676 10.001182 27.543995 9.953901 27.770946C10.700946 27.770946 11.230496 27.614917 11.542553 27.302861C11.816784 27.747304 12.024823 27.969527 12.166667 27.969527C12.421986 27.827683 12.589834 27.695296 12.670213 27.572364S12.852245 27.198842 12.975177 26.820591C13.050827 26.839503 13.126478 26.84896 13.202128 26.84896C13.400709 26.84896 13.634752 26.79695 13.904255 26.692931S14.478723 26.392695 14.819149 26.104279S15.471631 25.456524 15.755319 25.026265S16.277777 24.01208 16.471631 23.274492S16.762411 21.709485 16.762411 20.792222C16.762411 20.357234 16.743499 19.9648 16.705674 19.614917H10.719858C10.729314 20.030992 10.814421 20.406879 10.975177 20.742577S11.308511 21.340686 11.492908 21.529811C11.677305 21.718936 11.85461 21.950615 12.024823 22.224846S12.299054 22.782765 12.336879 23.07591C11.977542 22.934066 11.665485 22.744941 11.400709 22.508534S10.951536 22.056998 10.847518 21.863144S10.641844 21.499078 10.542553 21.352506C10.443262 21.205934 10.346336 21.132648 10.251773 21.132648C10.015366 21.132648 9.897163 21.279219 9.897163 21.572364C9.8026 21.449433 9.693854 21.387967 9.570922 21.387967L9.287234 21.458889C8.994089 21.534539 8.77896 21.631466 8.641844 21.749669C8.504728 21.867872 8.369976 22.06409 8.237589 22.338322ZM9.102837 22.792222C8.970449 22.792222 8.856974 22.749669 8.762411 22.664563S8.620567 22.475438 8.620567 22.352506C8.620567 22.314681 8.634752 22.2674 8.663121 22.210662C8.795508 22.210662 8.90662 22.248487 8.996454 22.324137S9.131206 22.499078 9.131206 22.622009C9.131206 22.640922 9.121749 22.69766 9.102837 22.792222ZM16.067376 20.607825C16.067376 21.307588 15.984634 21.974255 15.819149 22.607825S15.445627 23.770946 15.195035 24.196478S14.672577 24.993168 14.379433 25.309953C14.086288 25.626737 13.812057 25.858417 13.556738 26.004988S13.083925 26.224846 12.904255 26.224846C12.724586 26.205934 12.634752 26.144468 12.634752 26.040449C12.634752 25.983712 12.648936 25.945886 12.677305 25.926974C13.613475 25.454161 14.325064 24.728392 14.812057 23.749669S15.542553 21.728392 15.542553 20.622009C15.542553 20.36669 15.632388 20.239031 15.812057 20.239031C15.98227 20.239031 16.067376 20.361962 16.067376 20.607825Z" fill="#010101" />
<path d="M23.576271 5.638889Q23.635593 5.638889 23.65678 5.566855Q23.661017 5.554143 23.661017 5.528719Q23.661017 5.477872 23.614407 5.460923Q23.402542 5.37194 23.300847 5.206685T23.169492 4.797787T23.139831 4.138889V2.647363Q23.144068 2.541431 23.158898 2.475753T23.233051 2.365584T23.415254 2.321092H23.440678Q23.483051 2.321092 23.502119 2.306262T23.525424 2.232109Q23.525424 2.193974 23.504237 2.166431T23.449153 2.138889Q23.177966 2.151601 22.944915 2.151601Q22.686441 2.151601 22.415254 2.138889Q22.377119 2.138889 22.358051 2.166431T22.338983 2.232109Q22.34322 2.295669 22.366525 2.30838T22.449153 2.321092Q22.572034 2.321092 22.631356 2.365584T22.705508 2.475753T22.724576 2.647363V4.282957Q22.724576 4.829567 22.917373 5.179143T23.559322 5.638889H23.576271Z" fill="#010101" />
<path d="M22.945391 8.156734C22.934358 8.271469 22.906778 8.372965 22.862649 8.461222C22.81852 8.54948 22.772185 8.616776 22.723643 8.663112S22.613873 8.749163 22.539957 8.782259C22.466042 8.815356 22.409226 8.836869 22.36951 8.846798S22.281252 8.866104 22.223885 8.87493C22.215059 8.877136 22.20844 8.87824 22.204027 8.87824V8.944433H23.795973V8.87824C23.608426 8.845143 23.46611 8.796601 23.369027 8.732615C23.183686 8.609054 23.07888 8.417094 23.054609 8.156734C23.169344 8.333249 23.317176 8.421507 23.498104 8.421507C23.615045 8.421507 23.714886 8.380688 23.797628 8.299049S23.92174 8.118121 23.92174 8.00118C23.92174 7.90189 23.897469 7.811426 23.848928 7.729788C23.800386 7.648149 23.737502 7.573682 23.660277 7.506386S23.50362 7.369035 23.421982 7.296222C23.340343 7.22341 23.259808 7.127981 23.180376 7.009937S23.040268 6.758954 22.998345 6.611123C22.960836 6.756748 22.902917 6.888031 22.824588 7.004972S22.665724 7.21679 22.582983 7.289603S22.420258 7.433021 22.343033 7.501421S22.202372 7.64484 22.152727 7.726478S22.07826 7.899683 22.07826 8.00118C22.07826 8.118121 22.119631 8.217411 22.202372 8.299049S22.384955 8.421507 22.501896 8.421507C22.682824 8.421507 22.830656 8.333249 22.945391 8.156734Z" fill="#010101" />
<path d="M1.423729 29.361111Q1.364407 29.361111 1.34322 29.433145Q1.338983 29.445857 1.338983 29.471281Q1.338983 29.522128 1.385593 29.539077Q1.597458 29.62806 1.699153 29.793315T1.830508 30.202213T1.860169 30.861111V32.352637Q1.855932 32.458569 1.841102 32.524247T1.766949 32.634416T1.584746 32.678908H1.559322Q1.516949 32.678908 1.497881 32.693738T1.474576 32.767891Q1.474576 32.806026 1.495763 32.833569T1.550847 32.861111Q1.822034 32.848399 2.055085 32.848399Q2.313559 32.848399 2.584746 32.861111Q2.622881 32.861111 2.641949 32.833569T2.661017 32.767891Q2.65678 32.704331 2.633475 32.69162T2.550847 32.678908Q2.427966 32.678908 2.368644 32.634416T2.294492 32.524247T2.275424 32.352637V30.717043Q2.275424 30.170433 2.082627 29.820857T1.440678 29.361111H1.423729Z" fill="#010101" />
<path d="M2.054609 26.843266C2.065642 26.728531 2.093222 26.627035 2.137351 26.538778C2.18148 26.45052 2.227815 26.383224 2.276357 26.336888S2.386127 26.250837 2.460043 26.217741C2.533958 26.184644 2.590774 26.163131 2.63049 26.153202S2.718748 26.133896 2.776115 26.12507C2.784941 26.122864 2.79156 26.12176 2.795973 26.12176V26.055567H1.204027V26.12176C1.391574 26.154857 1.53389 26.203399 1.630973 26.267385C1.816314 26.390946 1.92112 26.582906 1.945391 26.843266C1.830656 26.666751 1.682824 26.578493 1.501896 26.578493C1.384955 26.578493 1.285114 26.619312 1.202372 26.700951S1.07826 26.881879 1.07826 26.99882C1.07826 27.09811 1.102531 27.188574 1.151072 27.270212C1.199614 27.351851 1.262498 27.426318 1.339723 27.493614S1.49638 27.630965 1.578018 27.703778C1.659657 27.77659 1.740192 27.872019 1.819624 27.990063S1.959732 28.241046 2.001655 28.388877C2.039164 28.243252 2.097083 28.111969 2.175412 27.995028S2.334276 27.78321 2.417017 27.710397S2.579742 27.566979 2.656967 27.498579S2.797628 27.35516 2.847273 27.273522S2.92174 27.100317 2.92174 26.99882C2.92174 26.881879 2.880369 26.782589 2.797628 26.700951S2.615045 26.578493 2.498104 26.578493C2.317176 26.578493 2.169344 26.666751 2.054609 26.843266Z" fill="#010101" />
</svg>
