<svg width="500.000000" height="700.000000" id="card-webdiamond6">
<radialGradient id="card-webwhitegradient" cx="250.0" cy="350.0" r="500" gradientTransform="matrix(1 0 0 1 0 -.25)" gradientUnits="userSpaceOnUse">
<stop stop-color="#FDFAF4" offset=".15"/>
<stop stop-color="#FDF9F2" offset=".35"/>
<stop stop-color="#FCF7F1" offset=".5"/>
<stop stop-color="#FDFDF8" offset=".75"/>
<stop stop-color="#FFFDFA" offset="1"/>
</radialGradient>
<rect x="0" y="0" rx="25.0" ry="25.0" width="500" height="700.0" fill="url(#card-webwhitegradient)" />
<path d="M150.139082 66.666667C147.913769 71.117293 142.535925 79.114511 134.005563 90.658322C125.475202 102.202133 118.613769 110.848447 113.421419 116.597126C119.911919 124.014831 126.889193 132.823412 134.353268 143.022717C141.817344 153.222063 147.079277 161.103384 150.139082 166.666667C157.000459 154.427446 169.14701 137.737599 186.578581 116.597126C168.68331 94.993092 156.536857 78.34956 150.139082 66.666667Z" fill="#da0a0a" />
<path d="M149.860918 633.333333C152.086231 628.882707 157.464075 620.885489 165.994437 609.341678C174.524798 597.797867 181.386231 589.151553 186.578581 583.402874C180.088081 575.985169 173.110807 567.176588 165.646732 556.977283C158.182656 546.777937 152.920723 538.896616 149.860918 533.333333C142.999541 545.572554 130.85299 562.262401 113.421419 583.402874C131.31669 605.006908 143.463143 621.65044 149.860918 633.333333Z" fill="#da0a0a" />
<path d="M150.139082 300.0C147.913769 304.450626 142.535925 312.447844 134.005563 323.991655C125.475202 335.535466 118.613769 344.18178 113.421419 349.930459C119.911919 357.348164 126.889193 366.156745 134.353268 376.35605C141.817344 386.555396 147.079277 394.436718 150.139082 400.0C157.000459 387.760779 169.14701 371.070932 186.578581 349.930459C168.68331 328.326426 156.536857 311.682893 150.139082 300.0Z" fill="#da0a0a" />
<path d="M350.139082 66.666667C347.913769 71.117293 342.535925 79.114511 334.005563 90.658322C325.475202 102.202133 318.613769 110.848447 313.421419 116.597126C319.911919 124.014831 326.889193 132.823412 334.353268 143.022717C341.817344 153.222063 347.079277 161.103384 350.139082 166.666667C357.000459 154.427446 369.14701 137.737599 386.578581 116.597126C368.68331 94.993092 356.536857 78.34956 350.139082 66.666667Z" fill="#da0a0a" />
<path d="M349.860918 633.333333C352.086231 628.882707 357.464075 620.885489 365.994437 609.341678C374.524798 597.797867 381.386231 589.151553 386.578581 583.402874C380.088081 575.985169 373.110807 567.176588 365.646732 556.977283C358.182656 546.777937 352.920723 538.896616 349.860918 533.333333C342.999541 545.572554 330.85299 562.262401 313.421419 583.402874C331.31669 605.006908 343.463143 621.65044 349.860918 633.333333Z" fill="#da0a0a" />
<path d="M350.139082 300.0C347.913769 304.450626 342.535925 312.447844 334.005563 323.991655C325.475202 335.535466 318.613769 344.18178 313.421419 349.930459C319.911919 357.348164 326.889193 366.156745 334.353268 376.35605C341.817344 386.555396 347.079277 394.436718 350.139082 400.0C357.000459 387.760779 369.14701 371.070932 386.578581 349.930459C368.68331 328.326426 356.536857 311.682893 350.139082 300.0Z" fill="#da0a0a" />
<path d="M478.987342 105.309423Q486.139241 97.841069 486.139241 84.929677Q486.139241 74.676512 481.265823 65.815752T467.531646 50.942335T447.278481 42.90436Q446.64557 42.777778 445.379747 42.777778Q442.848101 42.777778 442.848101 45.056259Q442.848101 47.081575 445.126582 47.714487Q468.291139 54.929677 472.721519 73.663854Q468.544304 70.879044 464.43038 69.739803T455.886076 68.600563Q449.810127 68.600563 444.746835 71.322082T436.772152 78.790436T433.860759 89.613221Q433.860759 96.448664 437.531646 101.701828T447.151899 109.866385T459.810127 112.777778Q471.835443 112.777778 478.987342 105.309423ZM449.936709 103.727145Q446.012658 98.727145 446.012658 90.752461Q446.012658 83.284107 449.936709 78.790436T460.189873 74.296765Q463.35443 74.296765 466.772152 75.879044T473.227848 80.11955Q473.987342 83.157525 473.987342 85.056259Q473.987342 90.11955 472.658228 95.562588T468.101266 104.866385T459.810127 108.727145Q453.860759 108.727145 449.936709 103.727145Z" fill="#da0a0a" />
<path d="M460.064904 132.222456C459.026435 134.299394 456.5168 138.031391 452.536004 143.418449C448.555209 148.805507 445.353239 152.840413 442.930166 155.523103C445.959036 158.984665 449.215065 163.095295 452.698265 167.854923C456.181465 172.61457 458.637009 176.292483 460.064904 178.888656C463.266848 173.177076 468.935182 165.388559 477.069834 155.523103C468.718791 145.441322 463.050503 137.674418 460.064904 132.222456Z" fill="#da0a0a" />
<path d="M21.012658 594.690577Q13.860759 602.158931 13.860759 615.070323Q13.860759 625.323488 18.734177 634.184248T32.468354 649.057665T52.721519 657.09564Q53.35443 657.222222 54.620253 657.222222Q57.151899 657.222222 57.151899 654.943741Q57.151899 652.918425 54.873418 652.285513Q31.708861 645.070323 27.278481 626.336146Q31.455696 629.120956 35.56962 630.260197T44.113924 631.399437Q50.189873 631.399437 55.253165 628.677918T63.227848 621.209564T66.139241 610.386779Q66.139241 603.551336 62.468354 598.298172T52.848101 590.133615T40.189873 587.222222Q28.164557 587.222222 21.012658 594.690577ZM50.063291 596.272855Q53.987342 601.272855 53.987342 609.247539Q53.987342 616.715893 50.063291 621.209564T39.810127 625.703235Q36.64557 625.703235 33.227848 624.120956T26.772152 619.88045Q26.012658 616.842475 26.012658 614.943741Q26.012658 609.88045 27.341772 604.437412T31.898734 595.133615T40.189873 591.272855Q46.139241 591.272855 50.063291 596.272855Z" fill="#da0a0a" />
<path d="M39.935096 567.777544C40.973565 565.700606 43.4832 561.968609 47.463996 556.581551C51.444791 551.194493 54.646761 547.159587 57.069834 544.476897C54.040964 541.015335 50.784935 536.904705 47.301735 532.145077C43.818535 527.38543 41.362991 523.707517 39.935096 521.111344C36.733152 526.822924 31.064818 534.611441 22.930166 544.476897C31.281209 554.558678 36.949497 562.325582 39.935096 567.777544Z" fill="#da0a0a" />
</svg>
