<svg width="25.000000" height="35.000000" id="card-lightheart5">
<rect x="0" y="0" rx="1.25" ry="1.25" width="25" height="35.0" stroke="#010101" fill="#fffdfa" />
<path d="M7.493036 4.336119C7.400186 3.992572 7.250464 3.739554 7.043872 3.577066S6.608635 3.333333 6.357939 3.333333C6.074744 3.333333 5.832173 3.430826 5.630223 3.625812S5.327298 4.055246 5.327298 4.329155C5.327298 4.579851 5.388811 4.835191 5.511838 5.095172S5.79039 5.605849 5.978412 5.847261S6.357939 6.331244 6.552925 6.574977S6.934772 7.0961 7.11351 7.407149S7.418756 8.026927 7.493036 8.333333C7.576602 8.012999 7.710075 7.691504 7.893454 7.368849S8.266017 6.760678 8.461003 6.512303C8.655989 6.263927 8.846332 6.020195 9.032033 5.781105S9.370938 5.301764 9.491643 5.060353S9.672702 4.589136 9.672702 4.370938C9.672702 4.078459 9.574048 3.832405 9.376741 3.632776C9.179434 3.433147 8.936861 3.333333 8.649025 3.333333C8.096565 3.333333 7.711233 3.667595 7.493036 4.336119Z" fill="#da0a0a" />
<path d="M7.506964 30.663881C7.599814 31.007428 7.749536 31.260446 7.956128 31.422934S8.391365 31.666667 8.642061 31.666667C8.925256 31.666667 9.167827 31.569174 9.369777 31.374188S9.672702 30.944754 9.672702 30.670845C9.672702 30.420149 9.611189 30.164809 9.488162 29.904828S9.20961 29.394151 9.021588 29.152739S8.642061 28.668756 8.447075 28.425023S8.065228 27.9039 7.88649 27.592851S7.581244 26.973073 7.506964 26.666667C7.423398 26.987001 7.289925 27.308496 7.106546 27.631151S6.733983 28.239322 6.538997 28.487697C6.344011 28.736073 6.153668 28.979805 5.967967 29.218895S5.629062 29.698236 5.508357 29.939647S5.327298 30.410864 5.327298 30.629062C5.327298 30.921541 5.425952 31.167595 5.623259 31.367224C5.820566 31.566853 6.063139 31.666667 6.350975 31.666667C6.903435 31.666667 7.288767 31.332405 7.506964 30.663881Z" fill="#da0a0a" />
<path d="M17.493036 4.336119C17.400186 3.992572 17.250464 3.739554 17.043872 3.577066S16.608635 3.333333 16.357939 3.333333C16.074744 3.333333 15.832173 3.430826 15.630223 3.625812S15.327298 4.055246 15.327298 4.329155C15.327298 4.579851 15.388811 4.835191 15.511838 5.095172S15.79039 5.605849 15.978412 5.847261S16.357939 6.331244 16.552925 6.574977S16.934772 7.0961 17.11351 7.407149S17.418756 8.026927 17.493036 8.333333C17.576602 8.012999 17.710075 7.691504 17.893454 7.368849S18.266017 6.760678 18.461003 6.512303C18.655989 6.263927 18.846332 6.020195 19.032033 5.781105S19.370938 5.301764 19.491643 5.060353S19.672702 4.589136 19.672702 4.370938C19.672702 4.078459 19.574048 3.832405 19.376741 3.632776C19.179434 3.433147 18.936861 3.333333 18.649025 3.333333C18.096565 3.333333 17.711233 3.667595 17.493036 4.336119Z" fill="#da0a0a" />
<path d="M17.506964 30.663881C17.599814 31.007428 17.749536 31.260446 17.956128 31.422934S18.391365 31.666667 18.642061 31.666667C18.925256 31.666667 19.167827 31.569174 19.369777 31.374188S19.672702 30.944754 19.672702 30.670845C19.672702 30.420149 19.611189 30.164809 19.488162 29.904828S19.20961 29.394151 19.021588 29.152739S18.642061 28.668756 18.447075 28.425023S18.065228 27.9039 17.88649 27.592851S17.581244 26.973073 17.506964 26.666667C17.423398 26.987001 17.289925 27.308496 17.106546 27.631151S16.733983 28.239322 16.538997 28.487697C16.344011 28.736073 16.153668 28.979805 15.967967 29.218895S15.629062 29.698236 15.508357 29.939647S15.327298 30.410864 15.327298 30.629062C15.327298 30.921541 15.425952 31.167595 15.623259 31.367224C15.820566 31.566853 16.063139 31.666667 16.350975 31.666667C16.903435 31.666667 17.288767 31.332405 17.506964 30.663881Z" fill="#da0a0a" />
<path d="M12.493036 16.002786C12.400186 15.659239 12.250464 15.406221 12.043872 15.243733S11.608635 15.0 11.357939 15.0C11.074744 15.0 10.832173 15.097493 10.630223 15.292479S10.327298 15.721913 10.327298 15.995822C10.327298 16.246518 10.388811 16.501857 10.511838 16.761838S10.79039 17.272516 10.978412 17.513928S11.357939 17.997911 11.552925 18.241643S11.934772 18.762767 12.11351 19.073816S12.418756 19.693593 12.493036 20.0C12.576602 19.679666 12.710075 19.358171 12.893454 19.035515S13.266017 18.427345 13.461003 18.178969C13.655989 17.930594 13.846332 17.686861 14.032033 17.447772S14.370938 16.968431 14.491643 16.727019S14.672702 16.255803 14.672702 16.037604C14.672702 15.745125 14.574048 15.499072 14.376741 15.299443C14.179434 15.099814 13.936861 15.0 13.649025 15.0C13.096565 15.0 12.711233 15.334262 12.493036 16.002786Z" fill="#da0a0a" />
<path d="M23.913889 5.463889Q24.231481 5.288889 24.231481 4.919444Q24.231481 4.718519 24.111574 4.566204T23.790741 4.413889Q23.667593 4.413889 23.580093 4.478704T23.492593 4.588889Q23.492593 4.59537 23.550926 4.647222T23.65787 4.773611T23.706481 4.94537Q23.706481 5.165741 23.547685 5.282407T23.103704 5.399074Q22.747222 5.399074 22.568981 5.146296T22.390741 4.485185Q22.390741 4.109259 22.572222 3.859722T23.136111 3.610185Q23.311111 3.610185 23.4375 3.665278T23.706481 3.824074Q23.790741 3.882407 23.845833 3.911574T23.952778 3.940741Q24.056481 3.940741 24.056481 3.759259L24.05 3.681481L23.849074 2.138889H22.066667Q21.975926 2.138889 21.920833 2.197222T21.865741 2.359259Q21.865741 2.599074 22.112037 2.599074H23.550926L23.687037 3.5Q23.401852 3.325 22.987037 3.325Q22.708333 3.325 22.426389 3.448148T21.956481 3.824074T21.768519 4.452778T21.953241 5.097685T22.445833 5.502778T23.116667 5.638889Q23.596296 5.638889 23.913889 5.463889Z" fill="#da0a0a" />
<path d="M22.99675 7.079085C22.953421 6.918765 22.883551 6.800691 22.787142 6.724864S22.584034 6.611123 22.467043 6.611123C22.334887 6.611123 22.221688 6.656619 22.127446 6.747612S21.986083 6.948012 21.986083 7.075835C21.986083 7.192825 22.014789 7.311982 22.072201 7.433306S22.20219 7.67162 22.289933 7.784277S22.467043 8.010134 22.558036 8.123875S22.73623 8.367063 22.81964 8.512218S22.962086 8.801444 22.99675 8.944433C23.035747 8.794945 23.098034 8.644915 23.18361 8.494344S23.357471 8.210534 23.448463 8.094627C23.539456 7.97872 23.628282 7.864979 23.714942 7.753405S23.873096 7.529715 23.929424 7.417057S24.013917 7.197158 24.013917 7.095333C24.013917 6.958844 23.967879 6.844021 23.875804 6.750861C23.783728 6.657702 23.670529 6.611123 23.536206 6.611123C23.278394 6.611123 23.098574 6.76711 22.99675 7.079085Z" fill="#da0a0a" />
<path d="M1.086111 29.536111Q0.768519 29.711111 0.768519 30.080556Q0.768519 30.281481 0.888426 30.433796T1.209259 30.586111Q1.332407 30.586111 1.419907 30.521296T1.507407 30.411111Q1.507407 30.40463 1.449074 30.352778T1.34213 30.226389T1.293519 30.05463Q1.293519 29.834259 1.452315 29.717593T1.896296 29.600926Q2.252778 29.600926 2.431019 29.853704T2.609259 30.514815Q2.609259 30.890741 2.427778 31.140278T1.863889 31.389815Q1.688889 31.389815 1.5625 31.334722T1.293519 31.175926Q1.209259 31.117593 1.154167 31.088426T1.047222 31.059259Q0.943519 31.059259 0.943519 31.240741L0.95 31.318519L1.150926 32.861111H2.933333Q3.024074 32.861111 3.079167 32.802778T3.134259 32.640741Q3.134259 32.400926 2.887963 32.400926H1.449074L1.312963 31.5Q1.598148 31.675 2.012963 31.675Q2.291667 31.675 2.573611 31.551852T3.043519 31.175926T3.231481 30.547222T3.046759 29.902315T2.554167 29.497222T1.883333 29.361111Q1.403704 29.361111 1.086111 29.536111Z" fill="#da0a0a" />
<path d="M2.00325 27.920915C2.046579 28.081235 2.116449 28.199309 2.212858 28.275136S2.415966 28.388877 2.532957 28.388877C2.665113 28.388877 2.778312 28.343381 2.872554 28.252388S3.013917 28.051988 3.013917 27.924165C3.013917 27.807175 2.985211 27.688018 2.927799 27.566694S2.79781 27.32838 2.710067 27.215723S2.532957 26.989866 2.441964 26.876125S2.26377 26.632937 2.18036 26.487782S2.037914 26.198556 2.00325 26.055567C1.964253 26.205055 1.901966 26.355085 1.81639 26.505656S1.642529 26.789466 1.551537 26.905373C1.460544 27.02128 1.371718 27.135021 1.285058 27.246595S1.126904 27.470285 1.070576 27.582943S0.986083 27.802842 0.986083 27.904667C0.986083 28.041156 1.032121 28.155979 1.124196 28.249139C1.216272 28.342298 1.329471 28.388877 1.463794 28.388877C1.721606 28.388877 1.901426 28.23289 2.00325 27.920915Z" fill="#da0a0a" />
</svg>
