<svg width="25.000000" height="35.000000" id="card-lightspade2">
<rect x="0" y="0" rx="1.25" ry="1.25" width="25" height="35.0" stroke="#010101" fill="#fffdfa" />
<path d="M12.382979 6.64539C12.359338 6.891253 12.300236 7.108747 12.205674 7.297872C12.111111 7.486998 12.011821 7.631206 11.907801 7.730496S11.672577 7.914894 11.514184 7.985816C11.355792 8.056738 11.234043 8.102837 11.148936 8.124113S10.959811 8.165485 10.836879 8.184397C10.817967 8.189125 10.803782 8.191489 10.794326 8.191489V8.333333H14.205674V8.191489C13.803782 8.120567 13.498818 8.016548 13.29078 7.879433C12.893617 7.614657 12.66903 7.20331 12.617021 6.64539C12.862884 7.02364 13.179669 7.212766 13.567376 7.212766C13.817967 7.212766 14.031915 7.125296 14.20922 6.950355S14.475177 6.562648 14.475177 6.312057C14.475177 6.099291 14.423168 5.905438 14.319149 5.730496C14.21513 5.555555 14.080378 5.395981 13.914894 5.251773S13.579196 4.957447 13.404255 4.801418C13.229314 4.64539 13.056738 4.440899 12.886525 4.187943S12.586289 3.650118 12.496454 3.333333C12.416076 3.64539 12.291962 3.926714 12.124113 4.177305S11.783688 4.631206 11.606383 4.787234S11.257683 5.094562 11.092199 5.241135S10.79078 5.548463 10.684397 5.723404S10.524823 6.094562 10.524823 6.312057C10.524823 6.562648 10.613475 6.775413 10.79078 6.950355S11.182033 7.212766 11.432624 7.212766C11.820331 7.212766 12.137116 7.02364 12.382979 6.64539Z" fill="#010101" />
<path d="M12.617021 28.35461C12.640662 28.108747 12.699764 27.891253 12.794326 27.702128C12.888889 27.513002 12.988179 27.368794 13.092199 27.269504S13.327423 27.085106 13.485816 27.014184C13.644208 26.943262 13.765957 26.897163 13.851064 26.875887S14.040189 26.834515 14.163121 26.815603C14.182033 26.810875 14.196218 26.808511 14.205674 26.808511V26.666667H10.794326V26.808511C11.196218 26.879433 11.501182 26.983452 11.70922 27.120567C12.106383 27.385343 12.33097 27.79669 12.382979 28.35461C12.137116 27.97636 11.820331 27.787234 11.432624 27.787234C11.182033 27.787234 10.968085 27.874704 10.79078 28.049645S10.524823 28.437352 10.524823 28.687943C10.524823 28.900709 10.576832 29.094562 10.680851 29.269504C10.78487 29.444445 10.919622 29.604019 11.085106 29.748227S11.420804 30.042553 11.595745 30.198582C11.770686 30.35461 11.943262 30.559101 12.113475 30.812057S12.413711 31.349882 12.503546 31.666667C12.583924 31.35461 12.708038 31.073286 12.875887 30.822695S13.216312 30.368794 13.393617 30.212766S13.742317 29.905438 13.907801 29.758865S14.20922 29.451537 14.315603 29.276596S14.475177 28.905438 14.475177 28.687943C14.475177 28.437352 14.386525 28.224587 14.20922 28.049645S13.817967 27.787234 13.567376 27.787234C13.179669 27.787234 12.862884 27.97636 12.617021 28.35461Z" fill="#010101" />
<path d="M24.337264 5.401153Q24.33066 5.262474 24.261321 5.176625T24.033491 4.985115Q23.511792 4.635115 23.224528 4.407285T22.706132 3.829455T22.475 3.043606Q22.475 2.726625 22.643396 2.551625T23.115566 2.376625Q23.373113 2.376625 23.541509 2.505398T23.709906 2.8587Q23.709906 2.970964 23.657075 3.046908T23.548113 3.169078T23.491981 3.221908Q23.491981 3.268134 23.581132 3.334172T23.795755 3.40021Q24.000472 3.40021 24.122642 3.271436T24.244811 2.944549Q24.244811 2.680398 24.066509 2.495493T23.614151 2.224738T23.056132 2.138889Q22.560849 2.138889 22.200943 2.383229T21.841038 3.129455Q21.841038 3.492662 22.039151 3.789832T22.511321 4.295021T23.22783 4.787002Q23.57783 5.004927 23.749528 5.137002V5.170021H21.979717Q21.814623 5.170021 21.738679 5.206342T21.662736 5.401153Q21.662736 5.638889 21.893868 5.638889H24.106132Q24.337264 5.638889 24.337264 5.401153Z" fill="#010101" />
<path d="M22.945391 8.156734C22.934358 8.271469 22.906778 8.372965 22.862649 8.461222C22.81852 8.54948 22.772185 8.616776 22.723643 8.663112S22.613873 8.749163 22.539957 8.782259C22.466042 8.815356 22.409226 8.836869 22.36951 8.846798S22.281252 8.866104 22.223885 8.87493C22.215059 8.877136 22.20844 8.87824 22.204027 8.87824V8.944433H23.795973V8.87824C23.608426 8.845143 23.46611 8.796601 23.369027 8.732615C23.183686 8.609054 23.07888 8.417094 23.054609 8.156734C23.169344 8.333249 23.317176 8.421507 23.498104 8.421507C23.615045 8.421507 23.714886 8.380688 23.797628 8.299049S23.92174 8.118121 23.92174 8.00118C23.92174 7.90189 23.897469 7.811426 23.848928 7.729788C23.800386 7.648149 23.737502 7.573682 23.660277 7.506386S23.50362 7.369035 23.421982 7.296222C23.340343 7.22341 23.259808 7.127981 23.180376 7.009937S23.040268 6.758954 22.998345 6.611123C22.960836 6.756748 22.902917 6.888031 22.824588 7.004972S22.665724 7.21679 22.582983 7.289603S22.420258 7.433021 22.343033 7.501421S22.202372 7.64484 22.152727 7.726478S22.07826 7.899683 22.07826 8.00118C22.07826 8.118121 22.119631 8.217411 22.202372 8.299049S22.384955 8.421507 22.501896 8.421507C22.682824 8.421507 22.830656 8.333249 22.945391 8.156734Z" fill="#010101" />
<path d="M0.662736 29.598847Q0.66934 29.737526 0.738679 29.823375T0.966509 30.014885Q1.488208 30.364885 1.775472 30.592715T2.293868 31.170545T2.525 31.956394Q2.525 32.273375 2.356604 32.448375T1.884434 32.623375Q1.626887 32.623375 1.458491 32.494602T1.290094 32.1413Q1.290094 32.029036 1.342925 31.953092T1.451887 31.830922T1.508019 31.778092Q1.508019 31.731866 1.418868 31.665828T1.204245 31.59979Q0.999528 31.59979 0.877358 31.728564T0.755189 32.055451Q0.755189 32.319602 0.933491 32.504507T1.385849 32.775262T1.943868 32.861111Q2.439151 32.861111 2.799057 32.616771T3.158962 31.870545Q3.158962 31.507338 2.960849 31.210168T2.488679 30.704979T1.77217 30.212998Q1.42217 29.995073 1.250472 29.862998V29.829979H3.020283Q3.185377 29.829979 3.261321 29.793658T3.337264 29.598847Q3.337264 29.361111 3.106132 29.361111H0.893868Q0.662736 29.361111 0.662736 29.598847Z" fill="#010101" />
<path d="M2.054609 26.843266C2.065642 26.728531 2.093222 26.627035 2.137351 26.538778C2.18148 26.45052 2.227815 26.383224 2.276357 26.336888S2.386127 26.250837 2.460043 26.217741C2.533958 26.184644 2.590774 26.163131 2.63049 26.153202S2.718748 26.133896 2.776115 26.12507C2.784941 26.122864 2.79156 26.12176 2.795973 26.12176V26.055567H1.204027V26.12176C1.391574 26.154857 1.53389 26.203399 1.630973 26.267385C1.816314 26.390946 1.92112 26.582906 1.945391 26.843266C1.830656 26.666751 1.682824 26.578493 1.501896 26.578493C1.384955 26.578493 1.285114 26.619312 1.202372 26.700951S1.07826 26.881879 1.07826 26.99882C1.07826 27.09811 1.102531 27.188574 1.151072 27.270212C1.199614 27.351851 1.262498 27.426318 1.339723 27.493614S1.49638 27.630965 1.578018 27.703778C1.659657 27.77659 1.740192 27.872019 1.819624 27.990063S1.959732 28.241046 2.001655 28.388877C2.039164 28.243252 2.097083 28.111969 2.175412 27.995028S2.334276 27.78321 2.417017 27.710397S2.579742 27.566979 2.656967 27.498579S2.797628 27.35516 2.847273 27.273522S2.92174 27.100317 2.92174 26.99882C2.92174 26.881879 2.880369 26.782589 2.797628 26.700951S2.615045 26.578493 2.498104 26.578493C2.317176 26.578493 2.169344 26.666751 2.054609 26.843266Z" fill="#010101" />
</svg>
