<svg width="150.000000" height="210.000000" id="card-webdiamond8">
<radialGradient id="card-webwhitegradient" cx="75.0" cy="105.0" r="150" gradientTransform="matrix(1 0 0 1 0 -.25)" gradientUnits="userSpaceOnUse">
<stop stop-color="#FDFAF4" offset=".15"/>
<stop stop-color="#FDF9F2" offset=".35"/>
<stop stop-color="#FCF7F1" offset=".5"/>
<stop stop-color="#FDFDF8" offset=".75"/>
<stop stop-color="#FFFDFA" offset="1"/>
</radialGradient>
<rect x="0" y="0" rx="7.5" ry="7.5" width="150" height="210.0" stroke="#010101" fill="url(#card-webwhitegradient)" />
<path d="M45.041725 20.0C44.374131 21.335188 42.760777 23.734353 40.201669 27.197497C37.642561 30.66064 35.584131 33.254534 34.026426 34.979138C35.973576 37.204449 38.066758 39.847024 40.305981 42.906815C42.545203 45.966619 44.123783 48.331015 45.041725 50.0C47.100138 46.328234 50.744103 41.32128 55.973574 34.979138C50.604993 28.497928 46.961057 23.504868 45.041725 20.0Z" fill="#da0a0a" />
<path d="M44.958275 190.0C45.625869 188.664812 47.239223 186.265647 49.798331 182.802503C52.357439 179.33936 54.415869 176.745466 55.973574 175.020862C54.026424 172.795551 51.933242 170.152976 49.694019 167.093185C47.454797 164.033381 45.876217 161.668985 44.958275 160.0C42.899862 163.671766 39.255897 168.67872 34.026426 175.020862C39.395007 181.502072 43.038943 186.495132 44.958275 190.0Z" fill="#da0a0a" />
<path d="M45.041725 66.666667C44.374131 68.001854 42.760777 70.40102 40.201669 73.864163C37.642561 77.327306 35.584131 79.921201 34.026426 81.645804C35.973576 83.871116 38.066758 86.51369 40.305981 89.573482C42.545203 92.633286 44.123783 94.997682 45.041725 96.666667C47.100138 92.9949 50.744103 87.987946 55.973574 81.645804C50.604993 75.164594 46.961057 70.171535 45.041725 66.666667Z" fill="#da0a0a" />
<path d="M44.958275 143.333333C45.625869 141.998146 47.239223 139.59898 49.798331 136.135837C52.357439 132.672694 54.415869 130.078799 55.973574 128.354196C54.026424 126.128884 51.933242 123.48631 49.694019 120.426518C47.454797 117.366714 45.876217 115.002318 44.958275 113.333333C42.899862 117.0051 39.255897 122.012054 34.026426 128.354196C39.395007 134.835406 43.038943 139.828465 44.958275 143.333333Z" fill="#da0a0a" />
<path d="M105.041725 20.0C104.374131 21.335188 102.760777 23.734353 100.201669 27.197497C97.642561 30.66064 95.584131 33.254534 94.026426 34.979138C95.973576 37.204449 98.066758 39.847024 100.305981 42.906815C102.545203 45.966619 104.123783 48.331015 105.041725 50.0C107.100138 46.328234 110.744103 41.32128 115.973574 34.979138C110.604993 28.497928 106.961057 23.504868 105.041725 20.0Z" fill="#da0a0a" />
<path d="M104.958275 190.0C105.625869 188.664812 107.239223 186.265647 109.798331 182.802503C112.357439 179.33936 114.415869 176.745466 115.973574 175.020862C114.026424 172.795551 111.933242 170.152976 109.694019 167.093185C107.454797 164.033381 105.876217 161.668985 104.958275 160.0C102.899862 163.671766 99.255897 168.67872 94.026426 175.020862C99.395007 181.502072 103.038943 186.495132 104.958275 190.0Z" fill="#da0a0a" />
<path d="M105.041725 66.666667C104.374131 68.001854 102.760777 70.40102 100.201669 73.864163C97.642561 77.327306 95.584131 79.921201 94.026426 81.645804C95.973576 83.871116 98.066758 86.51369 100.305981 89.573482C102.545203 92.633286 104.123783 94.997682 105.041725 96.666667C107.100138 92.9949 110.744103 87.987946 115.973574 81.645804C110.604993 75.164594 106.961057 70.171535 105.041725 66.666667Z" fill="#da0a0a" />
<path d="M104.958275 143.333333C105.625869 141.998146 107.239223 139.59898 109.798331 136.135837C112.357439 132.672694 114.415869 130.078799 115.973574 128.354196C114.026424 126.128884 111.933242 123.48631 109.694019 120.426518C107.454797 117.366714 105.876217 115.002318 104.958275 113.333333C102.899862 117.0051 99.255897 122.012054 94.026426 128.354196C99.395007 134.835406 103.038943 139.828465 104.958275 143.333333Z" fill="#da0a0a" />
<path d="M142.180909 33.107879Q143.88 32.382424 144.796364 31.122424T145.712727 28.258788Q145.712727 26.578788 144.586364 25.337879T141.245455 23.142424Q143.078182 22.035152 143.937273 20.889697T144.796364 18.293333Q144.796364 16.804242 143.803636 15.544242T141.169091 13.558788T137.656364 12.833333Q135.747273 12.833333 134.258182 13.520606T131.929091 15.391515T131.089091 18.064242Q131.089091 19.438788 132.043636 20.641515T134.907273 22.798788Q132.387273 23.867879 131.337273 25.051515T130.287273 28.067879Q130.287273 29.633333 131.299091 30.950606T134.124545 33.050606T138.267273 33.833333Q140.481818 33.833333 142.180909 33.107879ZM134.620909 20.297879Q134.067273 19.209697 134.067273 18.026061Q134.067273 16.384242 135.06 15.257879T137.847273 14.131515Q139.565455 14.131515 140.596364 15.124242T141.627273 17.644242Q141.627273 19.05697 140.233636 20.030606T136.205455 22.111515Q135.174545 21.386061 134.620909 20.297879ZM134.869091 31.504242Q133.723636 30.435152 133.723636 28.755152Q133.723636 27.647879 134.43 26.82697T136.262727 25.414242T139.794545 23.753333Q140.978182 24.555152 141.627273 25.662424T142.276364 28.106061Q142.276364 30.091515 141.073636 31.332424T137.923636 32.573333Q136.014545 32.573333 134.869091 31.504242Z" fill="#da0a0a" />
<path d="M138.019471 39.666737C137.707931 40.289818 136.95504 41.409417 135.760801 43.025535C134.566563 44.641652 133.605972 45.852124 132.87905 46.656931C133.787711 47.695399 134.764519 48.928588 135.809479 50.356477C136.85444 51.784371 137.591103 52.887745 138.019471 53.666597C138.980054 51.953123 140.680555 49.616568 143.12095 46.656931C140.615637 43.632397 138.915151 41.302325 138.019471 39.666737Z" fill="#da0a0a" />
<path d="M7.819091 176.892121Q6.12 177.617576 5.203636 178.877576T4.287273 181.741212Q4.287273 183.421212 5.413636 184.662121T8.754545 186.857576Q6.921818 187.964848 6.062727 189.110303T5.203636 191.706667Q5.203636 193.195758 6.196364 194.455758T8.830909 196.441212T12.343636 197.166667Q14.252727 197.166667 15.741818 196.479394T18.070909 194.608485T18.910909 191.935758Q18.910909 190.561212 17.956364 189.358485T15.092727 187.201212Q17.612727 186.132121 18.662727 184.948485T19.712727 181.932121Q19.712727 180.366667 18.700909 179.049394T15.875455 176.949394T11.732727 176.166667Q9.518182 176.166667 7.819091 176.892121ZM15.379091 189.702121Q15.932727 190.790303 15.932727 191.973939Q15.932727 193.615758 14.94 194.742121T12.152727 195.868485Q10.434545 195.868485 9.403636 194.875758T8.372727 192.355758Q8.372727 190.94303 9.766364 189.969394T13.794545 187.888485Q14.825455 188.613939 15.379091 189.702121ZM15.130909 178.495758Q16.276364 179.564848 16.276364 181.244848Q16.276364 182.352121 15.57 183.17303T13.737273 184.585758T10.205455 186.246667Q9.021818 185.444848 8.372727 184.337576T7.723636 181.893939Q7.723636 179.908485 8.926364 178.667576T12.076364 177.426667Q13.985455 177.426667 15.130909 178.495758Z" fill="#da0a0a" />
<path d="M11.980529 170.333263C12.292069 169.710182 13.04496 168.590583 14.239199 166.974465C15.433437 165.358348 16.394028 164.147876 17.12095 163.343069C16.212289 162.304601 15.235481 161.071412 14.190521 159.643523C13.14556 158.215629 12.408897 157.112255 11.980529 156.333403C11.019946 158.046877 9.319445 160.383432 6.87905 163.343069C9.384363 166.367603 11.084849 168.697675 11.980529 170.333263Z" fill="#da0a0a" />
</svg>
