<svg width="150.000000" height="210.000000" id="card-webheart10">
<radialGradient id="card-webwhitegradient" cx="75.0" cy="105.0" r="150" gradientTransform="matrix(1 0 0 1 0 -.25)" gradientUnits="userSpaceOnUse">
<stop stop-color="#FDFAF4" offset=".15"/>
<stop stop-color="#FDF9F2" offset=".35"/>
<stop stop-color="#FCF7F1" offset=".5"/>
<stop stop-color="#FDFDF8" offset=".75"/>
<stop stop-color="#FFFDFA" offset="1"/>
</radialGradient>
<rect x="0" y="0" rx="7.5" ry="7.5" width="150" height="210.0" stroke="#010101" fill="url(#card-webwhitegradient)" />
<path d="M44.958217 26.016713C44.401116 23.955433 43.502787 22.437325 42.263231 21.462396S39.651811 20.0 38.147632 20.0C36.448467 20.0 34.993036 20.584958 33.781337 21.754875S31.963788 24.331478 31.963788 25.97493C31.963788 27.479109 32.332869 29.011143 33.071031 30.571031S34.74234 33.635096 35.870474 35.083565S38.147632 37.987465 39.317549 39.449861S41.608634 42.5766 42.681058 44.442897S44.512533 48.16156 44.958217 50.0C45.45961 48.077994 46.260447 46.149024 47.360724 44.213092S49.5961 40.564068 50.766017 39.073816C51.935933 37.583564 53.077993 36.121169 54.192201 34.68663S56.225628 31.810586 56.949861 30.362117S58.036212 27.534818 58.036212 26.225627C58.036212 24.470752 57.444288 22.99443 56.260446 21.796657C55.076603 20.598884 53.621169 20.0 51.89415 20.0C48.579389 20.0 46.267396 22.005571 44.958217 26.016713Z" fill="#da0a0a" />
<path d="M45.041783 183.983287C45.598884 186.044567 46.497213 187.562675 47.736769 188.537604S50.348189 190.0 51.852368 190.0C53.551533 190.0 55.006964 189.415042 56.218663 188.245125S58.036212 185.668522 58.036212 184.02507C58.036212 182.520891 57.667131 180.988857 56.928969 179.428969S55.25766 176.364904 54.129526 174.916435S51.852368 172.012535 50.682451 170.550139S48.391366 167.4234 47.318942 165.557103S45.487467 161.83844 45.041783 160.0C44.54039 161.922006 43.739553 163.850976 42.639276 165.786908S40.4039 169.435932 39.233983 170.926184C38.064067 172.416436 36.922007 173.878831 35.807799 175.31337S33.774372 178.189414 33.050139 179.637883S31.963788 182.465182 31.963788 183.774373C31.963788 185.529248 32.555712 187.00557 33.739554 188.203343C34.923397 189.401116 36.378831 190.0 38.10585 190.0C41.420611 190.0 43.732604 187.994429 45.041783 183.983287Z" fill="#da0a0a" />
<path d="M44.958217 72.68338C44.401116 70.6221 43.502787 69.103991 42.263231 68.129062S39.651811 66.666667 38.147632 66.666667C36.448467 66.666667 34.993036 67.251625 33.781337 68.421541S31.963788 70.998144 31.963788 72.641597C31.963788 74.145775 32.332869 75.67781 33.071031 77.237697S34.74234 80.301763 35.870474 81.750232S38.147632 84.654132 39.317549 86.116527S41.608634 89.243267 42.681058 91.109564S44.512533 94.828227 44.958217 96.666667C45.45961 94.744661 46.260447 92.81569 47.360724 90.879759S49.5961 87.230735 50.766017 85.740483C51.935933 84.250231 53.077993 82.787835 54.192201 81.353296S56.225628 78.477253 56.949861 77.028784S58.036212 74.201484 58.036212 72.892293C58.036212 71.137419 57.444288 69.661097 56.260446 68.463324C55.076603 67.265551 53.621169 66.666667 51.89415 66.666667C48.579389 66.666667 46.267396 68.672238 44.958217 72.68338Z" fill="#da0a0a" />
<path d="M45.041783 137.31662C45.598884 139.3779 46.497213 140.896009 47.736769 141.870938S50.348189 143.333333 51.852368 143.333333C53.551533 143.333333 55.006964 142.748375 56.218663 141.578459S58.036212 139.001856 58.036212 137.358403C58.036212 135.854225 57.667131 134.32219 56.928969 132.762303S55.25766 129.698237 54.129526 128.249768S51.852368 125.345868 50.682451 123.883473S48.391366 120.756733 47.318942 118.890436S45.487467 115.171773 45.041783 113.333333C44.54039 115.255339 43.739553 117.18431 42.639276 119.120241S40.4039 122.769265 39.233983 124.259517C38.064067 125.749769 36.922007 127.212165 35.807799 128.646704S33.774372 131.522747 33.050139 132.971216S31.963788 135.798516 31.963788 137.107707C31.963788 138.862581 32.555712 140.338903 33.739554 141.536676C34.923397 142.734449 36.378831 143.333333 38.10585 143.333333C41.420611 143.333333 43.732604 141.327762 45.041783 137.31662Z" fill="#da0a0a" />
<path d="M104.958217 26.016713C104.401116 23.955433 103.502787 22.437325 102.263231 21.462396S99.651811 20.0 98.147632 20.0C96.448467 20.0 94.993036 20.584958 93.781337 21.754875S91.963788 24.331478 91.963788 25.97493C91.963788 27.479109 92.332869 29.011143 93.071031 30.571031S94.74234 33.635096 95.870474 35.083565S98.147632 37.987465 99.317549 39.449861S101.608634 42.5766 102.681058 44.442897S104.512533 48.16156 104.958217 50.0C105.45961 48.077994 106.260447 46.149024 107.360724 44.213092S109.5961 40.564068 110.766017 39.073816C111.935933 37.583564 113.077993 36.121169 114.192201 34.68663S116.225628 31.810586 116.949861 30.362117S118.036212 27.534818 118.036212 26.225627C118.036212 24.470752 117.444288 22.99443 116.260446 21.796657C115.076603 20.598884 113.621169 20.0 111.89415 20.0C108.579389 20.0 106.267396 22.005571 104.958217 26.016713Z" fill="#da0a0a" />
<path d="M105.041783 183.983287C105.598884 186.044567 106.497213 187.562675 107.736769 188.537604S110.348189 190.0 111.852368 190.0C113.551533 190.0 115.006964 189.415042 116.218663 188.245125S118.036212 185.668522 118.036212 184.02507C118.036212 182.520891 117.667131 180.988857 116.928969 179.428969S115.25766 176.364904 114.129526 174.916435S111.852368 172.012535 110.682451 170.550139S108.391366 167.4234 107.318942 165.557103S105.487467 161.83844 105.041783 160.0C104.54039 161.922006 103.739553 163.850976 102.639276 165.786908S100.4039 169.435932 99.233983 170.926184C98.064067 172.416436 96.922007 173.878831 95.807799 175.31337S93.774372 178.189414 93.050139 179.637883S91.963788 182.465182 91.963788 183.774373C91.963788 185.529248 92.555712 187.00557 93.739554 188.203343C94.923397 189.401116 96.378831 190.0 98.10585 190.0C101.420611 190.0 103.732604 187.994429 105.041783 183.983287Z" fill="#da0a0a" />
<path d="M104.958217 72.68338C104.401116 70.6221 103.502787 69.103991 102.263231 68.129062S99.651811 66.666667 98.147632 66.666667C96.448467 66.666667 94.993036 67.251625 93.781337 68.421541S91.963788 70.998144 91.963788 72.641597C91.963788 74.145775 92.332869 75.67781 93.071031 77.237697S94.74234 80.301763 95.870474 81.750232S98.147632 84.654132 99.317549 86.116527S101.608634 89.243267 102.681058 91.109564S104.512533 94.828227 104.958217 96.666667C105.45961 94.744661 106.260447 92.81569 107.360724 90.879759S109.5961 87.230735 110.766017 85.740483C111.935933 84.250231 113.077993 82.787835 114.192201 81.353296S116.225628 78.477253 116.949861 77.028784S118.036212 74.201484 118.036212 72.892293C118.036212 71.137419 117.444288 69.661097 116.260446 68.463324C115.076603 67.265551 113.621169 66.666667 111.89415 66.666667C108.579389 66.666667 106.267396 68.672238 104.958217 72.68338Z" fill="#da0a0a" />
<path d="M105.041783 137.31662C105.598884 139.3779 106.497213 140.896009 107.736769 141.870938S110.348189 143.333333 111.852368 143.333333C113.551533 143.333333 115.006964 142.748375 116.218663 141.578459S118.036212 139.001856 118.036212 137.358403C118.036212 135.854225 117.667131 134.32219 116.928969 132.762303S115.25766 129.698237 114.129526 128.249768S111.852368 125.345868 110.682451 123.883473S108.391366 120.756733 107.318942 118.890436S105.487467 115.171773 105.041783 113.333333C104.54039 115.255339 103.739553 117.18431 102.639276 119.120241S100.4039 122.769265 99.233983 124.259517C98.064067 125.749769 96.922007 127.212165 95.807799 128.646704S93.774372 131.522747 93.050139 132.971216S91.963788 135.798516 91.963788 137.107707C91.963788 138.862581 92.555712 140.338903 93.739554 141.536676C94.923397 142.734449 96.378831 143.333333 98.10585 143.333333C101.420611 143.333333 103.732604 141.327762 105.041783 137.31662Z" fill="#da0a0a" />
<path d="M74.958217 49.350046C74.401116 47.288766 73.502787 45.770658 72.263231 44.795729S69.651811 43.333333 68.147632 43.333333C66.448467 43.333333 64.993036 43.918292 63.781337 45.088208S61.963788 47.664811 61.963788 49.308264C61.963788 50.812442 62.332869 52.344477 63.071031 53.904364S64.74234 56.968429 65.870474 58.416899S68.147632 61.320799 69.317549 62.783194S71.608634 65.909934 72.681058 67.77623S74.512533 71.494893 74.958217 73.333333C75.45961 71.411328 76.260447 69.482357 77.360724 67.546425S79.5961 63.897402 80.766017 62.407149C81.935933 60.916897 83.077993 59.454502 84.192201 58.019963S86.225628 55.14392 86.949861 53.69545S88.036212 50.868151 88.036212 49.55896C88.036212 47.804085 87.444288 46.327764 86.260446 45.129991C85.076603 43.932218 83.621169 43.333333 81.89415 43.333333C78.579389 43.333333 76.267396 45.338904 74.958217 49.350046Z" fill="#da0a0a" />
<path d="M74.958217 142.68338C74.401116 140.6221 73.502787 139.103991 72.263231 138.129062S69.651811 136.666667 68.147632 136.666667C66.448467 136.666667 64.993036 137.251625 63.781337 138.421541S61.963788 140.998144 61.963788 142.641597C61.963788 144.145775 62.332869 145.67781 63.071031 147.237697S64.74234 150.301763 65.870474 151.750232S68.147632 154.654132 69.317549 156.116527S71.608634 159.243267 72.681058 161.109564S74.512533 164.828227 74.958217 166.666667C75.45961 164.744661 76.260447 162.81569 77.360724 160.879759S79.5961 157.230735 80.766017 155.740483C81.935933 154.250231 83.077993 152.787835 84.192201 151.353296S86.225628 148.477253 86.949861 147.028784S88.036212 144.201484 88.036212 142.892293C88.036212 141.137419 87.444288 139.661097 86.260446 138.463324C85.076603 137.265551 83.621169 136.666667 81.89415 136.666667C78.579389 136.666667 76.267396 138.672238 74.958217 142.68338Z" fill="#da0a0a" />
<path d="M148.353582 32.687879Q148.328128 32.229697 148.239038 32.07697T147.946314 31.924242Q146.520874 31.924242 145.922698 31.752424T145.031798 30.855152T144.739073 28.411515V20.469697Q144.713619 18.675152 144.853617 17.892424T145.349976 16.880606T146.520874 16.651515H147.768134Q148.226311 16.651515 148.226311 15.735152Q148.200857 15.162424 148.073585 15.028788T147.755407 14.895152H147.488137Q146.419056 14.895152 145.400885 14.379697T143.186361 13.138788Q143.033636 13.062424 142.931818 13.062424Q142.52455 13.062424 142.52455 13.940606V28.411515Q142.52455 30.091515 142.25728 30.81697T141.417288 31.733333T139.571852 31.924242H139.317309Q139.113675 31.924242 139.024585 32.07697T138.910041 32.687879Q138.910041 33.604242 139.368218 33.604242Q141.200927 33.489697 143.644539 33.489697Q146.062696 33.489697 147.895405 33.604242Q148.353582 33.604242 148.353582 32.687879ZM137.051778 32.382424Q138.413583 30.931515 139.088121 28.526061T139.76266 23.295152Q139.76266 20.431515 139.088121 18.064242T137.051778 14.265152T133.704539 12.833333Q131.820921 12.833333 130.44639 14.284242T128.359138 18.140606T127.646418 23.295152T128.359138 28.449697T130.44639 32.344242T133.704539 33.833333Q135.689973 33.833333 137.051778 32.382424ZM131.031838 30.053333Q130.090029 27.686061 130.090029 23.295152T131.031838 16.575152T133.679084 14.246061Q135.435431 14.246061 136.377239 16.556061T137.319048 23.295152T136.377239 30.072424T133.679084 32.420606Q131.973647 32.420606 131.031838 30.053333Z" fill="#da0a0a" />
<path d="M137.980502 42.474508C137.720523 41.512587 137.301308 40.804143 136.722854 40.349181S135.504203 39.666737 134.80226 39.666737C134.009324 39.666737 133.33013 39.939714 132.764676 40.48567S131.916495 41.688073 131.916495 42.45501C131.916495 43.156952 132.088731 43.871895 132.433203 44.599835S133.21314 46.029718 133.739597 46.705663S134.80226 48.060803 135.348216 48.743248S136.417378 50.202378 136.917838 51.073308S137.772518 52.808667 137.980502 53.666597C138.214483 52.76967 138.588203 51.869492 139.10166 50.966067S140.144825 49.263206 140.690781 48.567762C141.236736 47.872318 141.769692 47.189873 142.289651 46.520429S143.238574 45.178289 143.576546 44.502343S144.083505 43.18295 144.083505 42.572C144.083505 41.753067 143.807276 41.064124 143.254822 40.505168C142.702368 39.946213 142.023172 39.666737 141.217238 39.666737C139.670365 39.666737 138.591445 40.60266 137.980502 42.474508Z" fill="#da0a0a" />
<path d="M1.646418 177.312121Q1.671872 177.770303 1.760962 177.92303T2.053686 178.075758Q3.479126 178.075758 4.077302 178.247576T4.968203 179.144848T5.260927 181.588485V189.530303Q5.286381 191.324848 5.146383 192.107576T4.650024 193.119394T3.479126 193.348485H2.231866Q1.773689 193.348485 1.773689 194.264848Q1.799143 194.837576 1.926415 194.971212T2.244593 195.104848H2.511863Q3.580944 195.104848 4.599115 195.620303T6.813639 196.861212Q6.966364 196.937576 7.068182 196.937576Q7.47545 196.937576 7.47545 196.059394V181.588485Q7.47545 179.908485 7.74272 179.18303T8.582712 178.266667T10.428148 178.075758H10.682691Q10.886325 178.075758 10.975415 177.92303T11.089959 177.312121Q11.089959 176.395758 10.631782 176.395758Q8.799073 176.510303 6.355461 176.510303Q3.937304 176.510303 2.104595 176.395758Q1.646418 176.395758 1.646418 177.312121ZM12.948222 177.617576Q11.586417 179.068485 10.911879 181.473939T10.23734 186.704848Q10.23734 189.568485 10.911879 191.935758T12.948222 195.734848T16.295461 197.166667Q18.179079 197.166667 19.55361 195.715758T21.640862 191.859394T22.353582 186.704848T21.640862 181.550303T19.55361 177.655758T16.295461 176.166667Q14.310027 176.166667 12.948222 177.617576ZM18.968162 179.946667Q19.909971 182.313939 19.909971 186.704848T18.968162 193.424848T16.320916 195.753939Q14.564569 195.753939 13.622761 193.443939T12.680952 186.704848T13.622761 179.927576T16.320916 177.579394Q18.026353 177.579394 18.968162 179.946667Z" fill="#da0a0a" />
<path d="M12.019498 167.525492C12.279477 168.487413 12.698692 169.195857 13.277146 169.650819S14.495797 170.333263 15.19774 170.333263C15.990676 170.333263 16.66987 170.060286 17.235324 169.51433S18.083505 168.311927 18.083505 167.54499C18.083505 166.843048 17.911269 166.128105 17.566797 165.400165S16.78686 163.970282 16.260403 163.294337S15.19774 161.939197 14.651784 161.256752S13.582622 159.797622 13.082162 158.926692S12.227482 157.191333 12.019498 156.333403C11.785517 157.23033 11.411797 158.130508 10.89834 159.033933S9.855175 160.736794 9.309219 161.432238C8.763264 162.127682 8.230308 162.810127 7.710349 163.479571S6.761426 164.821711 6.423454 165.497657S5.916495 166.81705 5.916495 167.428C5.916495 168.246933 6.192724 168.935876 6.745178 169.494832C7.297632 170.053787 7.976828 170.333263 8.782762 170.333263C10.329635 170.333263 11.408555 169.39734 12.019498 167.525492Z" fill="#da0a0a" />
</svg>
