<svg width="150.000000" height="210.000000" id="card-webdiamond5">
<radialGradient id="card-webwhitegradient" cx="75.0" cy="105.0" r="150" gradientTransform="matrix(1 0 0 1 0 -.25)" gradientUnits="userSpaceOnUse">
<stop stop-color="#FDFAF4" offset=".15"/>
<stop stop-color="#FDF9F2" offset=".35"/>
<stop stop-color="#FCF7F1" offset=".5"/>
<stop stop-color="#FDFDF8" offset=".75"/>
<stop stop-color="#FFFDFA" offset="1"/>
</radialGradient>
<rect x="0" y="0" rx="7.5" ry="7.5" width="150" height="210.0" stroke="#010101" fill="url(#card-webwhitegradient)" />
<path d="M45.041725 20.0C44.374131 21.335188 42.760777 23.734353 40.201669 27.197497C37.642561 30.66064 35.584131 33.254534 34.026426 34.979138C35.973576 37.204449 38.066758 39.847024 40.305981 42.906815C42.545203 45.966619 44.123783 48.331015 45.041725 50.0C47.100138 46.328234 50.744103 41.32128 55.973574 34.979138C50.604993 28.497928 46.961057 23.504868 45.041725 20.0Z" fill="#da0a0a" />
<path d="M44.958275 190.0C45.625869 188.664812 47.239223 186.265647 49.798331 182.802503C52.357439 179.33936 54.415869 176.745466 55.973574 175.020862C54.026424 172.795551 51.933242 170.152976 49.694019 167.093185C47.454797 164.033381 45.876217 161.668985 44.958275 160.0C42.899862 163.671766 39.255897 168.67872 34.026426 175.020862C39.395007 181.502072 43.038943 186.495132 44.958275 190.0Z" fill="#da0a0a" />
<path d="M105.041725 20.0C104.374131 21.335188 102.760777 23.734353 100.201669 27.197497C97.642561 30.66064 95.584131 33.254534 94.026426 34.979138C95.973576 37.204449 98.066758 39.847024 100.305981 42.906815C102.545203 45.966619 104.123783 48.331015 105.041725 50.0C107.100138 46.328234 110.744103 41.32128 115.973574 34.979138C110.604993 28.497928 106.961057 23.504868 105.041725 20.0Z" fill="#da0a0a" />
<path d="M104.958275 190.0C105.625869 188.664812 107.239223 186.265647 109.798331 182.802503C112.357439 179.33936 114.415869 176.745466 115.973574 175.020862C114.026424 172.795551 111.933242 170.152976 109.694019 167.093185C107.454797 164.033381 105.876217 161.668985 104.958275 160.0C102.899862 163.671766 99.255897 168.67872 94.026426 175.020862C99.395007 181.502072 103.038943 186.495132 104.958275 190.0Z" fill="#da0a0a" />
<path d="M75.041725 90.0C74.374131 91.335188 72.760777 93.734353 70.201669 97.197497C67.642561 100.66064 65.584131 103.254534 64.026426 104.979138C65.973576 107.204449 68.066758 109.847024 70.305981 112.906815C72.545203 115.966619 74.123783 118.331015 75.041725 120.0C77.100138 116.328234 80.744103 111.32128 85.973574 104.979138C80.604993 98.497928 76.961057 93.504868 75.041725 90.0Z" fill="#da0a0a" />
<path d="M143.483333 32.783333Q145.388889 31.733333 145.388889 29.516667Q145.388889 28.311111 144.669444 27.397222T142.744444 26.483333Q142.005556 26.483333 141.480556 26.872222T140.955556 27.533333Q140.955556 27.572222 141.305556 27.883333T141.947222 28.641667T142.238889 29.672222Q142.238889 30.994444 141.286111 31.694444T138.622222 32.394444Q136.483333 32.394444 135.413889 30.877778T134.344444 26.911111Q134.344444 24.655556 135.433333 23.158333T138.816667 21.661111Q139.866667 21.661111 140.625 21.991667T142.238889 22.944444Q142.744444 23.294444 143.075 23.469444T143.716667 23.644444Q144.338889 23.644444 144.338889 22.555556L144.3 22.088889L143.094444 12.833333H132.4Q131.855556 12.833333 131.525 13.183333T131.194444 14.155556Q131.194444 15.594444 132.672222 15.594444H141.305556L142.122222 21.0Q140.411111 19.95 137.922222 19.95Q136.25 19.95 134.558333 20.688889T131.738889 22.944444T130.611111 26.716667T131.719444 30.586111T134.675 33.016667T138.7 33.833333Q141.577778 33.833333 143.483333 32.783333Z" fill="#da0a0a" />
<path d="M138.019471 39.666737C137.707931 40.289818 136.95504 41.409417 135.760801 43.025535C134.566563 44.641652 133.605972 45.852124 132.87905 46.656931C133.787711 47.695399 134.764519 48.928588 135.809479 50.356477C136.85444 51.784371 137.591103 52.887745 138.019471 53.666597C138.980054 51.953123 140.680555 49.616568 143.12095 46.656931C140.615637 43.632397 138.915151 41.302325 138.019471 39.666737Z" fill="#da0a0a" />
<path d="M6.516667 177.216667Q4.611111 178.266667 4.611111 180.483333Q4.611111 181.688889 5.330556 182.602778T7.255556 183.516667Q7.994444 183.516667 8.519444 183.127778T9.044444 182.466667Q9.044444 182.427778 8.694444 182.116667T8.052778 181.358333T7.761111 180.327778Q7.761111 179.005556 8.713889 178.305556T11.377778 177.605556Q13.516667 177.605556 14.586111 179.122222T15.655556 183.088889Q15.655556 185.344444 14.566667 186.841667T11.183333 188.338889Q10.133333 188.338889 9.375 188.008333T7.761111 187.055556Q7.255556 186.705556 6.925 186.530556T6.283333 186.355556Q5.661111 186.355556 5.661111 187.444444L5.7 187.911111L6.905556 197.166667H17.6Q18.144444 197.166667 18.475 196.816667T18.805556 195.844444Q18.805556 194.405556 17.327778 194.405556H8.694444L7.877778 189.0Q9.588889 190.05 12.077778 190.05Q13.75 190.05 15.441667 189.311111T18.261111 187.055556T19.388889 183.283333T18.280556 179.413889T15.325 176.983333T11.3 176.166667Q8.422222 176.166667 6.516667 177.216667Z" fill="#da0a0a" />
<path d="M11.980529 170.333263C12.292069 169.710182 13.04496 168.590583 14.239199 166.974465C15.433437 165.358348 16.394028 164.147876 17.12095 163.343069C16.212289 162.304601 15.235481 161.071412 14.190521 159.643523C13.14556 158.215629 12.408897 157.112255 11.980529 156.333403C11.019946 158.046877 9.319445 160.383432 6.87905 163.343069C9.384363 166.367603 11.084849 168.697675 11.980529 170.333263Z" fill="#da0a0a" />
</svg>
