<svg width="25.000000" height="35.000000" id="card-lightheart4">
<rect x="0" y="0" rx="1.25" ry="1.25" width="25" height="35.0" stroke="#010101" fill="#fffdfa" />
<path d="M7.493036 4.336119C7.400186 3.992572 7.250464 3.739554 7.043872 3.577066S6.608635 3.333333 6.357939 3.333333C6.074744 3.333333 5.832173 3.430826 5.630223 3.625812S5.327298 4.055246 5.327298 4.329155C5.327298 4.579851 5.388811 4.835191 5.511838 5.095172S5.79039 5.605849 5.978412 5.847261S6.357939 6.331244 6.552925 6.574977S6.934772 7.0961 7.11351 7.407149S7.418756 8.026927 7.493036 8.333333C7.576602 8.012999 7.710075 7.691504 7.893454 7.368849S8.266017 6.760678 8.461003 6.512303C8.655989 6.263927 8.846332 6.020195 9.032033 5.781105S9.370938 5.301764 9.491643 5.060353S9.672702 4.589136 9.672702 4.370938C9.672702 4.078459 9.574048 3.832405 9.376741 3.632776C9.179434 3.433147 8.936861 3.333333 8.649025 3.333333C8.096565 3.333333 7.711233 3.667595 7.493036 4.336119Z" fill="#da0a0a" />
<path d="M7.506964 30.663881C7.599814 31.007428 7.749536 31.260446 7.956128 31.422934S8.391365 31.666667 8.642061 31.666667C8.925256 31.666667 9.167827 31.569174 9.369777 31.374188S9.672702 30.944754 9.672702 30.670845C9.672702 30.420149 9.611189 30.164809 9.488162 29.904828S9.20961 29.394151 9.021588 29.152739S8.642061 28.668756 8.447075 28.425023S8.065228 27.9039 7.88649 27.592851S7.581244 26.973073 7.506964 26.666667C7.423398 26.987001 7.289925 27.308496 7.106546 27.631151S6.733983 28.239322 6.538997 28.487697C6.344011 28.736073 6.153668 28.979805 5.967967 29.218895S5.629062 29.698236 5.508357 29.939647S5.327298 30.410864 5.327298 30.629062C5.327298 30.921541 5.425952 31.167595 5.623259 31.367224C5.820566 31.566853 6.063139 31.666667 6.350975 31.666667C6.903435 31.666667 7.288767 31.332405 7.506964 30.663881Z" fill="#da0a0a" />
<path d="M17.493036 4.336119C17.400186 3.992572 17.250464 3.739554 17.043872 3.577066S16.608635 3.333333 16.357939 3.333333C16.074744 3.333333 15.832173 3.430826 15.630223 3.625812S15.327298 4.055246 15.327298 4.329155C15.327298 4.579851 15.388811 4.835191 15.511838 5.095172S15.79039 5.605849 15.978412 5.847261S16.357939 6.331244 16.552925 6.574977S16.934772 7.0961 17.11351 7.407149S17.418756 8.026927 17.493036 8.333333C17.576602 8.012999 17.710075 7.691504 17.893454 7.368849S18.266017 6.760678 18.461003 6.512303C18.655989 6.263927 18.846332 6.020195 19.032033 5.781105S19.370938 5.301764 19.491643 5.060353S19.672702 4.589136 19.672702 4.370938C19.672702 4.078459 19.574048 3.832405 19.376741 3.632776C19.179434 3.433147 18.936861 3.333333 18.649025 3.333333C18.096565 3.333333 17.711233 3.667595 17.493036 4.336119Z" fill="#da0a0a" />
<path d="M17.506964 30.663881C17.599814 31.007428 17.749536 31.260446 17.956128 31.422934S18.391365 31.666667 18.642061 31.666667C18.925256 31.666667 19.167827 31.569174 19.369777 31.374188S19.672702 30.944754 19.672702 30.670845C19.672702 30.420149 19.611189 30.164809 19.488162 29.904828S19.20961 29.394151 19.021588 29.152739S18.642061 28.668756 18.447075 28.425023S18.065228 27.9039 17.88649 27.592851S17.581244 26.973073 17.506964 26.666667C17.423398 26.987001 17.289925 27.308496 17.106546 27.631151S16.733983 28.239322 16.538997 28.487697C16.344011 28.736073 16.153668 28.979805 15.967967 29.218895S15.629062 29.698236 15.508357 29.939647S15.327298 30.410864 15.327298 30.629062C15.327298 30.921541 15.425952 31.167595 15.623259 31.367224C15.820566 31.566853 16.063139 31.666667 16.350975 31.666667C16.903435 31.666667 17.288767 31.332405 17.506964 30.663881Z" fill="#da0a0a" />
<path d="M22.599359 5.606838Q22.682692 5.574786 22.689103 5.517094V4.536325H24.221154Q24.323718 4.536325 24.375 4.472222T24.426282 4.311966Q24.426282 4.228632 24.38141 4.17094L22.580128 2.202991Q22.516026 2.138889 22.38141 2.138889Q22.278846 2.138889 22.208333 2.193376T22.13141 2.363248V4.222222H21.746795Q21.657051 4.222222 21.61859 4.244658T21.573718 4.376068Q21.573718 4.446581 21.602564 4.491453T21.695513 4.536325H22.13141V5.517094Q22.13141 5.574786 22.214744 5.606838T22.407051 5.638889T22.599359 5.606838ZM24.054487 4.222222H22.689103V2.702991Z" fill="#da0a0a" />
<path d="M22.99675 7.079085C22.953421 6.918765 22.883551 6.800691 22.787142 6.724864S22.584034 6.611123 22.467043 6.611123C22.334887 6.611123 22.221688 6.656619 22.127446 6.747612S21.986083 6.948012 21.986083 7.075835C21.986083 7.192825 22.014789 7.311982 22.072201 7.433306S22.20219 7.67162 22.289933 7.784277S22.467043 8.010134 22.558036 8.123875S22.73623 8.367063 22.81964 8.512218S22.962086 8.801444 22.99675 8.944433C23.035747 8.794945 23.098034 8.644915 23.18361 8.494344S23.357471 8.210534 23.448463 8.094627C23.539456 7.97872 23.628282 7.864979 23.714942 7.753405S23.873096 7.529715 23.929424 7.417057S24.013917 7.197158 24.013917 7.095333C24.013917 6.958844 23.967879 6.844021 23.875804 6.750861C23.783728 6.657702 23.670529 6.611123 23.536206 6.611123C23.278394 6.611123 23.098574 6.76711 22.99675 7.079085Z" fill="#da0a0a" />
<path d="M2.400641 29.393162Q2.317308 29.425214 2.310897 29.482906V30.463675H0.778846Q0.676282 30.463675 0.625 30.527778T0.573718 30.688034Q0.573718 30.771368 0.61859 30.82906L2.419872 32.797009Q2.483974 32.861111 2.61859 32.861111Q2.721154 32.861111 2.791667 32.806624T2.86859 32.636752V30.777778H3.253205Q3.342949 30.777778 3.38141 30.755342T3.426282 30.623932Q3.426282 30.553419 3.397436 30.508547T3.304487 30.463675H2.86859V29.482906Q2.86859 29.425214 2.785256 29.393162T2.592949 29.361111T2.400641 29.393162ZM0.945513 30.777778H2.310897V32.297009Z" fill="#da0a0a" />
<path d="M2.00325 27.920915C2.046579 28.081235 2.116449 28.199309 2.212858 28.275136S2.415966 28.388877 2.532957 28.388877C2.665113 28.388877 2.778312 28.343381 2.872554 28.252388S3.013917 28.051988 3.013917 27.924165C3.013917 27.807175 2.985211 27.688018 2.927799 27.566694S2.79781 27.32838 2.710067 27.215723S2.532957 26.989866 2.441964 26.876125S2.26377 26.632937 2.18036 26.487782S2.037914 26.198556 2.00325 26.055567C1.964253 26.205055 1.901966 26.355085 1.81639 26.505656S1.642529 26.789466 1.551537 26.905373C1.460544 27.02128 1.371718 27.135021 1.285058 27.246595S1.126904 27.470285 1.070576 27.582943S0.986083 27.802842 0.986083 27.904667C0.986083 28.041156 1.032121 28.155979 1.124196 28.249139C1.216272 28.342298 1.329471 28.388877 1.463794 28.388877C1.721606 28.388877 1.901426 28.23289 2.00325 27.920915Z" fill="#da0a0a" />
</svg>
