<svg width="500.000000" height="700.000000" id="card-realspade5">
<radialGradient id="card-realwhitegradient" cx="250.0" cy="350.0" r="500" gradientTransform="matrix(1 0 0 1 0 -.25)" gradientUnits="userSpaceOnUse">
<stop stop-color="#FDFAF4" offset=".15"/>
<stop stop-color="#FDF9F2" offset=".35"/>
<stop stop-color="#FCF7F1" offset=".5"/>
<stop stop-color="#FDFDF8" offset=".75"/>
<stop stop-color="#FFFDFA" offset="1"/>
</radialGradient>
<rect x="0" y="0" rx="25.0" ry="25.0" width="500" height="700.0" stroke="#010101" fill="url(#card-realwhitegradient)" />
<path d="M147.659574 132.907801C147.186762 137.825064 146.004723 142.174936 144.113475 145.957447C142.222227 149.739957 140.236411 152.624113 138.156028 154.609929S133.451532 158.297872 130.283688 159.716312C127.115844 161.134752 124.680851 162.056738 122.978723 162.48227S119.196213 163.309692 116.737589 163.687943C116.359338 163.782506 116.07565 163.829787 115.886525 163.829787V166.666667H184.113475V163.829787C176.075645 162.411348 169.976355 160.330965 165.815603 157.588652C157.87234 152.293149 153.38061 144.066199 152.340426 132.907801C157.257688 140.472809 163.593376 144.255319 171.347518 144.255319C176.359333 144.255319 180.638298 142.505915 184.184397 139.007092S189.503546 131.25295 189.503546 126.241135C189.503546 121.985816 188.463357 118.108752 186.382979 114.609929C184.302596 111.111106 181.60756 107.919617 178.297872 105.035461S171.583929 99.148936 168.085106 96.028369C164.586284 92.907801 161.134752 88.817972 157.730496 83.758865S151.725773 73.002369 149.929078 66.666667C148.321518 72.907801 145.839248 78.534284 142.48227 83.546099S135.673759 92.624113 132.12766 95.744681S125.15366 101.891248 121.843972 104.822695S115.815603 110.969262 113.687943 114.468085S110.496454 121.891248 110.496454 126.241135C110.496454 131.25295 112.269504 135.50827 115.815603 139.007092S123.640667 144.255319 128.652482 144.255319C136.406624 144.255319 142.742312 140.472809 147.659574 132.907801Z" fill="#010101" />
<path d="M152.340426 567.092199C152.813238 562.174936 153.995277 557.825064 155.886525 554.042553C157.777773 550.260043 159.763589 547.375887 161.843972 545.390071S166.548468 541.702128 169.716312 540.283688C172.884156 538.865248 175.319149 537.943262 177.021277 537.51773S180.803787 536.690308 183.262411 536.312057C183.640662 536.217494 183.92435 536.170213 184.113475 536.170213V533.333333H115.886525V536.170213C123.924355 537.588652 130.023645 539.669035 134.184397 542.411348C142.12766 547.706851 146.61939 555.933801 147.659574 567.092199C142.742312 559.527191 136.406624 555.744681 128.652482 555.744681C123.640667 555.744681 119.361702 557.494085 115.815603 560.992908S110.496454 568.74705 110.496454 573.758865C110.496454 578.014184 111.536643 581.891248 113.617021 585.390071C115.697404 588.888894 118.39244 592.080383 121.702128 594.964539S128.416071 600.851064 131.914894 603.971631C135.413716 607.092199 138.865248 611.182028 142.269504 616.241135S148.274227 626.997631 150.070922 633.333333C151.678482 627.092199 154.160752 621.465716 157.51773 616.453901S164.326241 607.375887 167.87234 604.255319S174.84634 598.108752 178.156028 595.177305S184.184397 589.030738 186.312057 585.531915S189.503546 578.108752 189.503546 573.758865C189.503546 568.74705 187.730496 564.49173 184.184397 560.992908S176.359333 555.744681 171.347518 555.744681C163.593376 555.744681 157.257688 559.527191 152.340426 567.092199Z" fill="#010101" />
<path d="M347.659574 132.907801C347.186762 137.825064 346.004723 142.174936 344.113475 145.957447C342.222227 149.739957 340.236411 152.624113 338.156028 154.609929S333.451532 158.297872 330.283688 159.716312C327.115844 161.134752 324.680851 162.056738 322.978723 162.48227S319.196213 163.309692 316.737589 163.687943C316.359338 163.782506 316.07565 163.829787 315.886525 163.829787V166.666667H384.113475V163.829787C376.075645 162.411348 369.976355 160.330965 365.815603 157.588652C357.87234 152.293149 353.38061 144.066199 352.340426 132.907801C357.257688 140.472809 363.593376 144.255319 371.347518 144.255319C376.359333 144.255319 380.638298 142.505915 384.184397 139.007092S389.503546 131.25295 389.503546 126.241135C389.503546 121.985816 388.463357 118.108752 386.382979 114.609929C384.302596 111.111106 381.60756 107.919617 378.297872 105.035461S371.583929 99.148936 368.085106 96.028369C364.586284 92.907801 361.134752 88.817972 357.730496 83.758865S351.725773 73.002369 349.929078 66.666667C348.321518 72.907801 345.839248 78.534284 342.48227 83.546099S335.673759 92.624113 332.12766 95.744681S325.15366 101.891248 321.843972 104.822695S315.815603 110.969262 313.687943 114.468085S310.496454 121.891248 310.496454 126.241135C310.496454 131.25295 312.269504 135.50827 315.815603 139.007092S323.640667 144.255319 328.652482 144.255319C336.406624 144.255319 342.742312 140.472809 347.659574 132.907801Z" fill="#010101" />
<path d="M352.340426 567.092199C352.813238 562.174936 353.995277 557.825064 355.886525 554.042553C357.777773 550.260043 359.763589 547.375887 361.843972 545.390071S366.548468 541.702128 369.716312 540.283688C372.884156 538.865248 375.319149 537.943262 377.021277 537.51773S380.803787 536.690308 383.262411 536.312057C383.640662 536.217494 383.92435 536.170213 384.113475 536.170213V533.333333H315.886525V536.170213C323.924355 537.588652 330.023645 539.669035 334.184397 542.411348C342.12766 547.706851 346.61939 555.933801 347.659574 567.092199C342.742312 559.527191 336.406624 555.744681 328.652482 555.744681C323.640667 555.744681 319.361702 557.494085 315.815603 560.992908S310.496454 568.74705 310.496454 573.758865C310.496454 578.014184 311.536643 581.891248 313.617021 585.390071C315.697404 588.888894 318.39244 592.080383 321.702128 594.964539S328.416071 600.851064 331.914894 603.971631C335.413716 607.092199 338.865248 611.182028 342.269504 616.241135S348.274227 626.997631 350.070922 633.333333C351.678482 627.092199 354.160752 621.465716 357.51773 616.453901S364.326241 607.375887 367.87234 604.255319S374.84634 598.108752 378.156028 595.177305S384.184397 589.030738 386.312057 585.531915S389.503546 578.108752 389.503546 573.758865C389.503546 568.74705 387.730496 564.49173 384.184397 560.992908S376.359333 555.744681 371.347518 555.744681C363.593376 555.744681 357.257688 559.527191 352.340426 567.092199Z" fill="#010101" />
<path d="M247.659574 366.241135C247.186762 371.158397 246.004723 375.50827 244.113475 379.29078C242.222227 383.073291 240.236411 385.957447 238.156028 387.943262S233.451532 391.631206 230.283688 393.049645C227.115844 394.468085 224.680851 395.390071 222.978723 395.815603S219.196213 396.643026 216.737589 397.021277C216.359338 397.115839 216.07565 397.163121 215.886525 397.163121V400.0H284.113475V397.163121C276.075645 395.744681 269.976355 393.664298 265.815603 390.921986C257.87234 385.626482 253.38061 377.399532 252.340426 366.241135C257.257688 373.806142 263.593376 377.588652 271.347518 377.588652C276.359333 377.588652 280.638298 375.839248 284.184397 372.340426S289.503546 364.586284 289.503546 359.574468C289.503546 355.319149 288.463357 351.442085 286.382979 347.943262C284.302596 344.44444 281.60756 341.25295 278.297872 338.368794S271.583929 332.48227 268.085106 329.361702C264.586284 326.241135 261.134752 322.151305 257.730496 317.092199S251.725773 306.335702 249.929078 300.0C248.321518 306.241135 245.839248 311.867617 242.48227 316.879433S235.673759 325.957447 232.12766 329.078014S225.15366 335.224582 221.843972 338.156028S215.815603 344.302596 213.687943 347.801418S210.496454 355.224582 210.496454 359.574468C210.496454 364.586284 212.269504 368.841603 215.815603 372.340426S223.640667 377.588652 228.652482 377.588652C236.406624 377.588652 242.742312 373.806142 247.659574 366.241135Z" fill="#010101" />
<path d="M478.277778 109.277778Q484.62963 105.777778 484.62963 98.388889Q484.62963 94.37037 482.231481 91.324074T475.814815 88.277778Q473.351852 88.277778 471.601852 89.574074T469.851852 91.777778Q469.851852 91.907407 471.018519 92.944444T473.157407 95.472222T474.12963 98.907407Q474.12963 103.314815 470.953704 105.648148T462.074074 107.981481Q454.944444 107.981481 451.37963 102.925926T447.814815 89.703704Q447.814815 82.185185 451.444444 77.194444T462.722222 72.203704Q466.222222 72.203704 468.75 73.305556T474.12963 76.481481Q475.814815 77.648148 476.916667 78.231481T479.055556 78.814815Q481.12963 78.814815 481.12963 75.185185L481.0 73.62963L476.981481 42.777778H441.333333Q439.518519 42.777778 438.416667 43.944444T437.314815 47.185185Q437.314815 51.981481 442.240741 51.981481H471.018519L473.740741 70.0Q468.037037 66.5 459.740741 66.5Q454.166667 66.5 448.527778 68.962963T439.12963 76.481481T435.37037 89.055556T439.064815 101.953704T448.916667 110.055556T462.333333 112.777778Q471.925926 112.777778 478.277778 109.277778Z" fill="#010101" />
<path d="M458.907812 163.134676C458.687169 165.429375 458.135556 167.459296 457.252983 169.22445C456.370409 170.989604 455.443704 172.33553 454.472869 173.262234S452.277459 174.983257 450.799146 175.645189C449.320834 176.307121 448.184515 176.737377 447.390197 176.935956S445.625043 177.322083 444.477697 177.498599C444.301181 177.542727 444.168795 177.564792 444.080537 177.564792V178.888656H475.919463V177.564792C472.168513 176.90286 469.322206 175.932024 467.380541 174.652291C463.673722 172.181081 461.577602 168.341876 461.092188 163.134676C463.386887 166.664977 466.343512 168.430131 469.962075 168.430131C472.300899 168.430131 474.297729 167.613751 475.952559 165.980983S478.434804 162.36242 478.434804 160.023596C478.434804 158.0378 477.949387 156.228522 476.978554 154.595754C476.007718 152.962987 474.750047 151.47364 473.205542 150.127714S470.0724 147.380696 468.439632 145.924446C466.806864 144.468196 465.196166 142.559628 463.607529 140.198735S460.805353 135.179087 459.966903 132.222456C459.216716 135.134956 458.058335 137.760621 456.491761 140.099445S453.314488 144.33581 451.659658 145.79206S448.405157 148.660429 446.860651 150.028424S444.047441 152.896793 443.054543 154.529561S441.565196 157.993669 441.565196 160.023596C441.565196 162.36242 442.392611 164.348216 444.047441 165.980983S447.699101 168.430131 450.037925 168.430131C453.656488 168.430131 456.613113 166.664977 458.907812 163.134676Z" fill="#010101" />
<path d="M21.722222 590.722222Q15.37037 594.222222 15.37037 601.611111Q15.37037 605.62963 17.768519 608.675926T24.185185 611.722222Q26.648148 611.722222 28.398148 610.425926T30.148148 608.222222Q30.148148 608.092593 28.981481 607.055556T26.842593 604.527778T25.87037 601.092593Q25.87037 596.685185 29.046296 594.351852T37.925926 592.018519Q45.055556 592.018519 48.62037 597.074074T52.185185 610.296296Q52.185185 617.814815 48.555556 622.805556T37.277778 627.796296Q33.777778 627.796296 31.25 626.694444T25.87037 623.518519Q24.185185 622.351852 23.083333 621.768519T20.944444 621.185185Q18.87037 621.185185 18.87037 624.814815L19.0 626.37037L23.018519 657.222222H58.666667Q60.481481 657.222222 61.583333 656.055556T62.685185 652.814815Q62.685185 648.018519 57.759259 648.018519H28.981481L26.259259 630.0Q31.962963 633.5 40.259259 633.5Q45.833333 633.5 51.472222 631.037037T60.87037 623.518519T64.62963 610.944444T60.935185 598.046296T51.083333 589.944444T37.666667 587.222222Q28.074074 587.222222 21.722222 590.722222Z" fill="#010101" />
<path d="M41.092188 536.865324C41.312831 534.570625 41.864444 532.540704 42.747017 530.77555C43.629591 529.010396 44.556296 527.66447 45.527131 526.737766S47.722541 525.016743 49.200854 524.354811C50.679166 523.692879 51.815485 523.262623 52.609803 523.064044S54.374957 522.677917 55.522303 522.501401C55.698819 522.457273 55.831205 522.435208 55.919463 522.435208V521.111344H24.080537V522.435208C27.831487 523.09714 30.677794 524.067976 32.619459 525.347709C36.326278 527.818919 38.422398 531.658124 38.907812 536.865324C36.613113 533.335023 33.656488 531.569869 30.037925 531.569869C27.699101 531.569869 25.702271 532.386249 24.047441 534.019017S21.565196 537.63758 21.565196 539.976404C21.565196 541.9622 22.050613 543.771478 23.021446 545.404246C23.992282 547.037013 25.249953 548.52636 26.794458 549.872286S29.9276 552.619304 31.560368 554.075554C33.193136 555.531804 34.803834 557.440372 36.392471 559.801265S39.194647 564.820913 40.033097 567.777544C40.783284 564.865044 41.941665 562.239379 43.508239 559.900555S46.685512 555.66419 48.340342 554.20794S51.594843 551.339571 53.139349 549.971576S55.952559 547.103207 56.945457 545.470439S58.434804 542.006331 58.434804 539.976404C58.434804 537.63758 57.607389 535.651784 55.952559 534.019017S52.300899 531.569869 49.962075 531.569869C46.343512 531.569869 43.386887 533.335023 41.092188 536.865324Z" fill="#010101" />
</svg>
