<svg width="150.000000" height="210.000000" id="card-webdiamond1">
<radialGradient id="card-webwhitegradient" cx="75.0" cy="105.0" r="150" gradientTransform="matrix(1 0 0 1 0 -.25)" gradientUnits="userSpaceOnUse">
<stop stop-color="#FDFAF4" offset=".15"/>
<stop stop-color="#FDF9F2" offset=".35"/>
<stop stop-color="#FCF7F1" offset=".5"/>
<stop stop-color="#FDFDF8" offset=".75"/>
<stop stop-color="#FFFDFA" offset="1"/>
</radialGradient>
<rect x="0" y="0" rx="7.5" ry="7.5" width="150" height="210.0" stroke="#010101" fill="url(#card-webwhitegradient)" />
<path d="M75.0 75.0L62.732962 88.435327L75.0 100.869263L87.433936 88.435327ZM45.208623 104.791377L58.560501 117.55911L70.994437 104.791377L58.560501 92.357441ZM75.0 135.0L87.433936 121.314325L75.0 108.79694L62.399166 121.314325ZM104.791377 104.791377L91.522949 92.357441L79.089013 104.791377L91.522949 117.141864Z" fill="#da0a0a" />
<path d="M148.359165 33.144809Q148.5 32.941381 148.5 32.659712Q148.468703 32.190263 148.312221 32.096374T147.936662 32.002484H147.654993Q146.716095 32.002484 146.277943 31.517387T145.57377 30.422007T145.21386 29.592648L139.73696 16.635867Q139.54918 16.166418 139.54918 15.884749Q139.54918 15.321411 139.987332 15.071038T141.207899 14.664183Q141.73994 14.570293 141.865127 14.476403T141.990313 13.944362Q141.990313 13.568803 141.786885 13.443616T141.145306 13.31843Q139.580477 13.31843 138.657228 13.553154T137.045455 14.492052T135.762295 16.635867L130.504471 29.592648Q130.035022 30.781918 129.59687 31.376552T128.282414 32.002484H128.094635Q127.781669 32.002484 127.656483 32.112022T127.5 32.659712Q127.5 32.941381 127.640835 33.144809T128.063338 33.348236Q130.066319 33.254347 131.505961 33.254347Q133.383756 33.254347 135.386736 33.348236Q135.668405 33.348236 135.80924 33.144809T135.950075 32.659712Q135.918778 32.22156 135.793592 32.112022T135.35544 32.002484Q134.291356 32.002484 133.853204 31.799056T133.415052 31.063587Q133.415052 30.656731 133.790611 29.592648L134.854694 26.995032H142.584948Q143.367362 28.93542 143.4769 29.248385T143.586438 29.592648Q143.961997 30.781918 143.961997 31.12618Q143.961997 31.658222 143.492548 31.830353T141.708644 32.002484H141.520864Q141.207899 32.002484 141.082712 32.112022T140.92623 32.659712Q140.92623 32.941381 141.067064 33.144809T141.489568 33.348236Q143.492548 33.254347 144.900894 33.254347Q145.902385 33.254347 147.936662 33.348236Q148.218331 33.348236 148.359165 33.144809ZM141.990313 25.64928H135.418033L138.578987 17.606061H138.672876Z" fill="#da0a0a" />
<path d="M138.019471 39.666737C137.707931 40.289818 136.95504 41.409417 135.760801 43.025535C134.566563 44.641652 133.605972 45.852124 132.87905 46.656931C133.787711 47.695399 134.764519 48.928588 135.809479 50.356477C136.85444 51.784371 137.591103 52.887745 138.019471 53.666597C138.980054 51.953123 140.680555 49.616568 143.12095 46.656931C140.615637 43.632397 138.915151 41.302325 138.019471 39.666737Z" fill="#da0a0a" />
<path d="M1.640835 176.855191Q1.5 177.058619 1.5 177.340288Q1.531297 177.809737 1.687779 177.903626T2.063338 177.997516H2.345007Q3.283905 177.997516 3.722057 178.482613T4.42623 179.577993T4.78614 180.407352L10.26304 193.364133Q10.45082 193.833582 10.45082 194.115251Q10.45082 194.678589 10.012668 194.928962T8.792101 195.335817Q8.26006 195.429707 8.134873 195.523597T8.009687 196.055638Q8.009687 196.431197 8.213115 196.556384T8.854694 196.68157Q10.419523 196.68157 11.342772 196.446846T12.954545 195.507948T14.237705 193.364133L19.495529 180.407352Q19.964978 179.218082 20.40313 178.623448T21.717586 177.997516H21.905365Q22.218331 177.997516 22.343517 177.887978T22.5 177.340288Q22.5 177.058619 22.359165 176.855191T21.936662 176.651764Q19.933681 176.745653 18.494039 176.745653Q16.616244 176.745653 14.613264 176.651764Q14.331595 176.651764 14.19076 176.855191T14.049925 177.340288Q14.081222 177.77844 14.206408 177.887978T14.64456 177.997516Q15.708644 177.997516 16.146796 178.200944T16.584948 178.936413Q16.584948 179.343269 16.209389 180.407352L15.145306 183.004968H7.415052Q6.632638 181.06458 6.5231 180.751615T6.413562 180.407352Q6.038003 179.218082 6.038003 178.87382Q6.038003 178.341778 6.507452 178.169647T8.291356 177.997516H8.479136Q8.792101 177.997516 8.917288 177.887978T9.07377 177.340288Q9.07377 177.058619 8.932936 176.855191T8.510432 176.651764Q6.507452 176.745653 5.099106 176.745653Q4.097615 176.745653 2.063338 176.651764Q1.781669 176.651764 1.640835 176.855191ZM8.009687 184.35072H14.581967L11.421013 192.393939H11.327124Z" fill="#da0a0a" />
<path d="M11.980529 170.333263C12.292069 169.710182 13.04496 168.590583 14.239199 166.974465C15.433437 165.358348 16.394028 164.147876 17.12095 163.343069C16.212289 162.304601 15.235481 161.071412 14.190521 159.643523C13.14556 158.215629 12.408897 157.112255 11.980529 156.333403C11.019946 158.046877 9.319445 160.383432 6.87905 163.343069C9.384363 166.367603 11.084849 168.697675 11.980529 170.333263Z" fill="#da0a0a" />
</svg>
