<svg width="500.000000" height="700.000000" id="card-webdiamond3">
<radialGradient id="card-webwhitegradient" cx="250.0" cy="350.0" r="500" gradientTransform="matrix(1 0 0 1 0 -.25)" gradientUnits="userSpaceOnUse">
<stop stop-color="#FDFAF4" offset=".15"/>
<stop stop-color="#FDF9F2" offset=".35"/>
<stop stop-color="#FCF7F1" offset=".5"/>
<stop stop-color="#FDFDF8" offset=".75"/>
<stop stop-color="#FFFDFA" offset="1"/>
</radialGradient>
<rect x="0" y="0" rx="25.0" ry="25.0" width="500" height="700.0" fill="url(#card-webwhitegradient)" />
<path d="M250.139082 66.666667C247.913769 71.117293 242.535925 79.114511 234.005563 90.658322C225.475202 102.202133 218.613769 110.848447 213.421419 116.597126C219.911919 124.014831 226.889193 132.823412 234.353268 143.022717C241.817344 153.222063 247.079277 161.103384 250.139082 166.666667C257.000459 154.427446 269.14701 137.737599 286.578581 116.597126C268.68331 94.993092 256.536857 78.34956 250.139082 66.666667Z" fill="#da0a0a" />
<path d="M249.860918 633.333333C252.086231 628.882707 257.464075 620.885489 265.994437 609.341678C274.524798 597.797867 281.386231 589.151553 286.578581 583.402874C280.088081 575.985169 273.110807 567.176588 265.646732 556.977283C258.182656 546.777937 252.920723 538.896616 249.860918 533.333333C242.999541 545.572554 230.85299 562.262401 213.421419 583.402874C231.31669 605.006908 243.463143 621.65044 249.860918 633.333333Z" fill="#da0a0a" />
<path d="M250.139082 300.0C247.913769 304.450626 242.535925 312.447844 234.005563 323.991655C225.475202 335.535466 218.613769 344.18178 213.421419 349.930459C219.911919 357.348164 226.889193 366.156745 234.353268 376.35605C241.817344 386.555396 247.079277 394.436718 250.139082 400.0C257.000459 387.760779 269.14701 371.070932 286.578581 349.930459C268.68331 328.326426 256.536857 311.682893 250.139082 300.0Z" fill="#da0a0a" />
<path d="M477.753623 109.163647Q484.157609 105.549517 484.157609 98.574879Q484.157609 94.897343 481.875 92.2343T475.53442 89.571256Q473.125 89.571256 471.413043 90.839372T469.701087 92.995169Q469.701087 93.121981 470.842391 93.946256T472.934783 96.165459T473.88587 99.716184Q473.88587 103.647343 470.525362 105.866546T461.711957 108.085749Q448.143116 108.085749 448.143116 92.995169Q448.143116 86.781401 451.440217 83.040459T461.331522 78.919082H466.023551Q466.911232 78.919082 467.418478 78.158213T467.925725 76.38285Q467.925725 75.241546 467.418478 74.417271T466.023551 73.466184H461.331522Q456.38587 72.958937 453.405797 69.027778T450.425725 59.516908Q450.425725 53.429952 453.849638 50.196256T461.838768 46.96256Q466.150362 46.96256 469.257246 49.435386T472.36413 56.219807Q472.36413 59.009662 471.286232 59.960749T469.193841 61.102053T468.179348 61.419082Q468.179348 62.306763 469.891304 63.574879T474.012681 64.842995Q478.070652 64.842995 480.353261 62.306763T482.63587 55.839372Q482.63587 49.625604 476.802536 46.201691T461.711957 42.777778Q451.820652 42.777778 445.353261 47.089372T438.88587 59.516908Q438.88587 64.842995 442.626812 69.408213T453.342391 75.875604V76.38285Q446.240942 77.14372 441.041667 80.884662T435.842391 92.741546Q435.842391 103.013285 443.324275 107.895531T462.092391 112.777778Q471.349638 112.777778 477.753623 109.163647Z" fill="#da0a0a" />
<path d="M460.064904 132.222456C459.026435 134.299394 456.5168 138.031391 452.536004 143.418449C448.555209 148.805507 445.353239 152.840413 442.930166 155.523103C445.959036 158.984665 449.215065 163.095295 452.698265 167.854923C456.181465 172.61457 458.637009 176.292483 460.064904 178.888656C463.266848 173.177076 468.935182 165.388559 477.069834 155.523103C468.718791 145.441322 463.050503 137.674418 460.064904 132.222456Z" fill="#da0a0a" />
<path d="M22.246377 590.836353Q15.842391 594.450483 15.842391 601.425121Q15.842391 605.102657 18.125 607.7657T24.46558 610.428744Q26.875 610.428744 28.586957 609.160628T30.298913 607.004831Q30.298913 606.878019 29.157609 606.053744T27.065217 603.834541T26.11413 600.283816Q26.11413 596.352657 29.474638 594.133454T38.288043 591.914251Q51.856884 591.914251 51.856884 607.004831Q51.856884 613.218599 48.559783 616.959541T38.668478 621.080918H33.976449Q33.088768 621.080918 32.581522 621.841787T32.074275 623.61715Q32.074275 624.758454 32.581522 625.582729T33.976449 626.533816H38.668478Q43.61413 627.041063 46.594203 630.972222T49.574275 640.483092Q49.574275 646.570048 46.150362 649.803744T38.161232 653.03744Q33.849638 653.03744 30.742754 650.564614T27.63587 643.780193Q27.63587 640.990338 28.713768 640.039251T30.806159 638.897947T31.820652 638.580918Q31.820652 637.693237 30.108696 636.425121T25.987319 635.157005Q21.929348 635.157005 19.646739 637.693237T17.36413 644.160628Q17.36413 650.374396 23.197464 653.798309T38.288043 657.222222Q48.179348 657.222222 54.646739 652.910628T61.11413 640.483092Q61.11413 635.157005 57.373188 630.591787T46.657609 624.124396V623.61715Q53.759058 622.85628 58.958333 619.115338T64.157609 607.258454Q64.157609 596.986715 56.675725 592.104469T37.907609 587.222222Q28.650362 587.222222 22.246377 590.836353Z" fill="#da0a0a" />
<path d="M39.935096 567.777544C40.973565 565.700606 43.4832 561.968609 47.463996 556.581551C51.444791 551.194493 54.646761 547.159587 57.069834 544.476897C54.040964 541.015335 50.784935 536.904705 47.301735 532.145077C43.818535 527.38543 41.362991 523.707517 39.935096 521.111344C36.733152 526.822924 31.064818 534.611441 22.930166 544.476897C31.281209 554.558678 36.949497 562.325582 39.935096 567.777544Z" fill="#da0a0a" />
</svg>
