<svg width="500.000000" height="700.000000" id="card-realspade8">
<radialGradient id="card-realwhitegradient" cx="250.0" cy="350.0" r="500" gradientTransform="matrix(1 0 0 1 0 -.25)" gradientUnits="userSpaceOnUse">
<stop stop-color="#FDFAF4" offset=".15"/>
<stop stop-color="#FDF9F2" offset=".35"/>
<stop stop-color="#FCF7F1" offset=".5"/>
<stop stop-color="#FDFDF8" offset=".75"/>
<stop stop-color="#FFFDFA" offset="1"/>
</radialGradient>
<rect x="0" y="0" rx="25.0" ry="25.0" width="500" height="700.0" stroke="#010101" fill="url(#card-realwhitegradient)" />
<path d="M147.659574 132.907801C147.186762 137.825064 146.004723 142.174936 144.113475 145.957447C142.222227 149.739957 140.236411 152.624113 138.156028 154.609929S133.451532 158.297872 130.283688 159.716312C127.115844 161.134752 124.680851 162.056738 122.978723 162.48227S119.196213 163.309692 116.737589 163.687943C116.359338 163.782506 116.07565 163.829787 115.886525 163.829787V166.666667H184.113475V163.829787C176.075645 162.411348 169.976355 160.330965 165.815603 157.588652C157.87234 152.293149 153.38061 144.066199 152.340426 132.907801C157.257688 140.472809 163.593376 144.255319 171.347518 144.255319C176.359333 144.255319 180.638298 142.505915 184.184397 139.007092S189.503546 131.25295 189.503546 126.241135C189.503546 121.985816 188.463357 118.108752 186.382979 114.609929C184.302596 111.111106 181.60756 107.919617 178.297872 105.035461S171.583929 99.148936 168.085106 96.028369C164.586284 92.907801 161.134752 88.817972 157.730496 83.758865S151.725773 73.002369 149.929078 66.666667C148.321518 72.907801 145.839248 78.534284 142.48227 83.546099S135.673759 92.624113 132.12766 95.744681S125.15366 101.891248 121.843972 104.822695S115.815603 110.969262 113.687943 114.468085S110.496454 121.891248 110.496454 126.241135C110.496454 131.25295 112.269504 135.50827 115.815603 139.007092S123.640667 144.255319 128.652482 144.255319C136.406624 144.255319 142.742312 140.472809 147.659574 132.907801Z" fill="#010101" />
<path d="M152.340426 567.092199C152.813238 562.174936 153.995277 557.825064 155.886525 554.042553C157.777773 550.260043 159.763589 547.375887 161.843972 545.390071S166.548468 541.702128 169.716312 540.283688C172.884156 538.865248 175.319149 537.943262 177.021277 537.51773S180.803787 536.690308 183.262411 536.312057C183.640662 536.217494 183.92435 536.170213 184.113475 536.170213V533.333333H115.886525V536.170213C123.924355 537.588652 130.023645 539.669035 134.184397 542.411348C142.12766 547.706851 146.61939 555.933801 147.659574 567.092199C142.742312 559.527191 136.406624 555.744681 128.652482 555.744681C123.640667 555.744681 119.361702 557.494085 115.815603 560.992908S110.496454 568.74705 110.496454 573.758865C110.496454 578.014184 111.536643 581.891248 113.617021 585.390071C115.697404 588.888894 118.39244 592.080383 121.702128 594.964539S128.416071 600.851064 131.914894 603.971631C135.413716 607.092199 138.865248 611.182028 142.269504 616.241135S148.274227 626.997631 150.070922 633.333333C151.678482 627.092199 154.160752 621.465716 157.51773 616.453901S164.326241 607.375887 167.87234 604.255319S174.84634 598.108752 178.156028 595.177305S184.184397 589.030738 186.312057 585.531915S189.503546 578.108752 189.503546 573.758865C189.503546 568.74705 187.730496 564.49173 184.184397 560.992908S176.359333 555.744681 171.347518 555.744681C163.593376 555.744681 157.257688 559.527191 152.340426 567.092199Z" fill="#010101" />
<path d="M147.659574 288.463357C147.186762 293.380619 146.004723 297.730492 144.113475 301.513002C142.222227 305.295513 140.236411 308.179669 138.156028 310.165485S133.451532 313.853428 130.283688 315.271868C127.115844 316.690307 124.680851 317.612293 122.978723 318.037825S119.196213 318.865248 116.737589 319.243499C116.359338 319.338062 116.07565 319.385343 115.886525 319.385343V322.222222H184.113475V319.385343C176.075645 317.966903 169.976355 315.88652 165.815603 313.144208C157.87234 307.848704 153.38061 299.621754 152.340426 288.463357C157.257688 296.028364 163.593376 299.810875 171.347518 299.810875C176.359333 299.810875 180.638298 298.06147 184.184397 294.562648S189.503546 286.808506 189.503546 281.79669C189.503546 277.541371 188.463357 273.664307 186.382979 270.165485C184.302596 266.666662 181.60756 263.475173 178.297872 260.591017S171.583929 254.704492 168.085106 251.583924C164.586284 248.463357 161.134752 244.373527 157.730496 239.314421S151.725773 228.557924 149.929078 222.222222C148.321518 228.463357 145.839248 234.089839 142.48227 239.101655S135.673759 248.179669 132.12766 251.300236S125.15366 257.446804 121.843972 260.378251S115.815603 266.524818 113.687943 270.023641S110.496454 277.446804 110.496454 281.79669C110.496454 286.808506 112.269504 291.063825 115.815603 294.562648S123.640667 299.810875 128.652482 299.810875C136.406624 299.810875 142.742312 296.028364 147.659574 288.463357Z" fill="#010101" />
<path d="M152.340426 411.536643C152.813238 406.619381 153.995277 402.269508 155.886525 398.486998C157.777773 394.704487 159.763589 391.820331 161.843972 389.834515S166.548468 386.146572 169.716312 384.728132C172.884156 383.309693 175.319149 382.387707 177.021277 381.962175S180.803787 381.134752 183.262411 380.756501C183.640662 380.661938 183.92435 380.614657 184.113475 380.614657V377.777778H115.886525V380.614657C123.924355 382.033097 130.023645 384.11348 134.184397 386.855792C142.12766 392.151296 146.61939 400.378246 147.659574 411.536643C142.742312 403.971636 136.406624 400.189125 128.652482 400.189125C123.640667 400.189125 119.361702 401.93853 115.815603 405.437352S110.496454 413.191494 110.496454 418.20331C110.496454 422.458629 111.536643 426.335693 113.617021 429.834515C115.697404 433.333338 118.39244 436.524827 121.702128 439.408983S128.416071 445.295508 131.914894 448.416076C135.413716 451.536643 138.865248 455.626473 142.269504 460.685579S148.274227 471.442076 150.070922 477.777778C151.678482 471.536643 154.160752 465.910161 157.51773 460.898345S164.326241 451.820331 167.87234 448.699764S174.84634 442.553196 178.156028 439.621749S184.184397 433.475182 186.312057 429.976359S189.503546 422.553196 189.503546 418.20331C189.503546 413.191494 187.730496 408.936175 184.184397 405.437352S176.359333 400.189125 171.347518 400.189125C163.593376 400.189125 157.257688 403.971636 152.340426 411.536643Z" fill="#010101" />
<path d="M347.659574 132.907801C347.186762 137.825064 346.004723 142.174936 344.113475 145.957447C342.222227 149.739957 340.236411 152.624113 338.156028 154.609929S333.451532 158.297872 330.283688 159.716312C327.115844 161.134752 324.680851 162.056738 322.978723 162.48227S319.196213 163.309692 316.737589 163.687943C316.359338 163.782506 316.07565 163.829787 315.886525 163.829787V166.666667H384.113475V163.829787C376.075645 162.411348 369.976355 160.330965 365.815603 157.588652C357.87234 152.293149 353.38061 144.066199 352.340426 132.907801C357.257688 140.472809 363.593376 144.255319 371.347518 144.255319C376.359333 144.255319 380.638298 142.505915 384.184397 139.007092S389.503546 131.25295 389.503546 126.241135C389.503546 121.985816 388.463357 118.108752 386.382979 114.609929C384.302596 111.111106 381.60756 107.919617 378.297872 105.035461S371.583929 99.148936 368.085106 96.028369C364.586284 92.907801 361.134752 88.817972 357.730496 83.758865S351.725773 73.002369 349.929078 66.666667C348.321518 72.907801 345.839248 78.534284 342.48227 83.546099S335.673759 92.624113 332.12766 95.744681S325.15366 101.891248 321.843972 104.822695S315.815603 110.969262 313.687943 114.468085S310.496454 121.891248 310.496454 126.241135C310.496454 131.25295 312.269504 135.50827 315.815603 139.007092S323.640667 144.255319 328.652482 144.255319C336.406624 144.255319 342.742312 140.472809 347.659574 132.907801Z" fill="#010101" />
<path d="M352.340426 567.092199C352.813238 562.174936 353.995277 557.825064 355.886525 554.042553C357.777773 550.260043 359.763589 547.375887 361.843972 545.390071S366.548468 541.702128 369.716312 540.283688C372.884156 538.865248 375.319149 537.943262 377.021277 537.51773S380.803787 536.690308 383.262411 536.312057C383.640662 536.217494 383.92435 536.170213 384.113475 536.170213V533.333333H315.886525V536.170213C323.924355 537.588652 330.023645 539.669035 334.184397 542.411348C342.12766 547.706851 346.61939 555.933801 347.659574 567.092199C342.742312 559.527191 336.406624 555.744681 328.652482 555.744681C323.640667 555.744681 319.361702 557.494085 315.815603 560.992908S310.496454 568.74705 310.496454 573.758865C310.496454 578.014184 311.536643 581.891248 313.617021 585.390071C315.697404 588.888894 318.39244 592.080383 321.702128 594.964539S328.416071 600.851064 331.914894 603.971631C335.413716 607.092199 338.865248 611.182028 342.269504 616.241135S348.274227 626.997631 350.070922 633.333333C351.678482 627.092199 354.160752 621.465716 357.51773 616.453901S364.326241 607.375887 367.87234 604.255319S374.84634 598.108752 378.156028 595.177305S384.184397 589.030738 386.312057 585.531915S389.503546 578.108752 389.503546 573.758865C389.503546 568.74705 387.730496 564.49173 384.184397 560.992908S376.359333 555.744681 371.347518 555.744681C363.593376 555.744681 357.257688 559.527191 352.340426 567.092199Z" fill="#010101" />
<path d="M347.659574 288.463357C347.186762 293.380619 346.004723 297.730492 344.113475 301.513002C342.222227 305.295513 340.236411 308.179669 338.156028 310.165485S333.451532 313.853428 330.283688 315.271868C327.115844 316.690307 324.680851 317.612293 322.978723 318.037825S319.196213 318.865248 316.737589 319.243499C316.359338 319.338062 316.07565 319.385343 315.886525 319.385343V322.222222H384.113475V319.385343C376.075645 317.966903 369.976355 315.88652 365.815603 313.144208C357.87234 307.848704 353.38061 299.621754 352.340426 288.463357C357.257688 296.028364 363.593376 299.810875 371.347518 299.810875C376.359333 299.810875 380.638298 298.06147 384.184397 294.562648S389.503546 286.808506 389.503546 281.79669C389.503546 277.541371 388.463357 273.664307 386.382979 270.165485C384.302596 266.666662 381.60756 263.475173 378.297872 260.591017S371.583929 254.704492 368.085106 251.583924C364.586284 248.463357 361.134752 244.373527 357.730496 239.314421S351.725773 228.557924 349.929078 222.222222C348.321518 228.463357 345.839248 234.089839 342.48227 239.101655S335.673759 248.179669 332.12766 251.300236S325.15366 257.446804 321.843972 260.378251S315.815603 266.524818 313.687943 270.023641S310.496454 277.446804 310.496454 281.79669C310.496454 286.808506 312.269504 291.063825 315.815603 294.562648S323.640667 299.810875 328.652482 299.810875C336.406624 299.810875 342.742312 296.028364 347.659574 288.463357Z" fill="#010101" />
<path d="M352.340426 411.536643C352.813238 406.619381 353.995277 402.269508 355.886525 398.486998C357.777773 394.704487 359.763589 391.820331 361.843972 389.834515S366.548468 386.146572 369.716312 384.728132C372.884156 383.309693 375.319149 382.387707 377.021277 381.962175S380.803787 381.134752 383.262411 380.756501C383.640662 380.661938 383.92435 380.614657 384.113475 380.614657V377.777778H315.886525V380.614657C323.924355 382.033097 330.023645 384.11348 334.184397 386.855792C342.12766 392.151296 346.61939 400.378246 347.659574 411.536643C342.742312 403.971636 336.406624 400.189125 328.652482 400.189125C323.640667 400.189125 319.361702 401.93853 315.815603 405.437352S310.496454 413.191494 310.496454 418.20331C310.496454 422.458629 311.536643 426.335693 313.617021 429.834515C315.697404 433.333338 318.39244 436.524827 321.702128 439.408983S328.416071 445.295508 331.914894 448.416076C335.413716 451.536643 338.865248 455.626473 342.269504 460.685579S348.274227 471.442076 350.070922 477.777778C351.678482 471.536643 354.160752 465.910161 357.51773 460.898345S364.326241 451.820331 367.87234 448.699764S374.84634 442.553196 378.156028 439.621749S384.184397 433.475182 386.312057 429.976359S389.503546 422.553196 389.503546 418.20331C389.503546 413.191494 387.730496 408.936175 384.184397 405.437352S376.359333 400.189125 371.347518 400.189125C363.593376 400.189125 357.257688 403.971636 352.340426 411.536643Z" fill="#010101" />
<path d="M473.936364 110.359596Q479.6 107.941414 482.654545 103.741414T485.709091 94.19596Q485.709091 88.59596 481.954545 84.459596T470.818182 77.141414Q476.927273 73.450505 479.790909 69.632323T482.654545 60.977778Q482.654545 56.014141 479.345455 51.814141T470.563636 45.19596T458.854545 42.777778Q452.490909 42.777778 447.527273 45.068687T439.763636 51.305051T436.963636 60.214141Q436.963636 64.79596 440.145455 68.805051T449.690909 75.99596Q441.290909 79.559596 437.790909 83.505051T434.290909 93.559596Q434.290909 98.777778 437.663636 103.168687T447.081818 110.168687T460.890909 112.777778Q468.272727 112.777778 473.936364 110.359596ZM448.736364 67.659596Q446.890909 64.032323 446.890909 60.086869Q446.890909 54.614141 450.2 50.859596T459.490909 47.105051Q465.218182 47.105051 468.654545 50.414141T472.090909 58.814141Q472.090909 63.523232 467.445455 66.768687T454.018182 73.705051Q450.581818 71.286869 448.736364 67.659596ZM449.563636 105.014141Q445.745455 101.450505 445.745455 95.850505Q445.745455 92.159596 448.1 89.423232T454.209091 84.714141T465.981818 79.177778Q469.927273 81.850505 472.090909 85.541414T474.254545 93.686869Q474.254545 100.305051 470.245455 104.441414T459.745455 108.577778Q453.381818 108.577778 449.563636 105.014141Z" fill="#010101" />
<path d="M458.907812 163.134676C458.687169 165.429375 458.135556 167.459296 457.252983 169.22445C456.370409 170.989604 455.443704 172.33553 454.472869 173.262234S452.277459 174.983257 450.799146 175.645189C449.320834 176.307121 448.184515 176.737377 447.390197 176.935956S445.625043 177.322083 444.477697 177.498599C444.301181 177.542727 444.168795 177.564792 444.080537 177.564792V178.888656H475.919463V177.564792C472.168513 176.90286 469.322206 175.932024 467.380541 174.652291C463.673722 172.181081 461.577602 168.341876 461.092188 163.134676C463.386887 166.664977 466.343512 168.430131 469.962075 168.430131C472.300899 168.430131 474.297729 167.613751 475.952559 165.980983S478.434804 162.36242 478.434804 160.023596C478.434804 158.0378 477.949387 156.228522 476.978554 154.595754C476.007718 152.962987 474.750047 151.47364 473.205542 150.127714S470.0724 147.380696 468.439632 145.924446C466.806864 144.468196 465.196166 142.559628 463.607529 140.198735S460.805353 135.179087 459.966903 132.222456C459.216716 135.134956 458.058335 137.760621 456.491761 140.099445S453.314488 144.33581 451.659658 145.79206S448.405157 148.660429 446.860651 150.028424S444.047441 152.896793 443.054543 154.529561S441.565196 157.993669 441.565196 160.023596C441.565196 162.36242 442.392611 164.348216 444.047441 165.980983S447.699101 168.430131 450.037925 168.430131C453.656488 168.430131 456.613113 166.664977 458.907812 163.134676Z" fill="#010101" />
<path d="M26.063636 589.640404Q20.4 592.058586 17.345455 596.258586T14.290909 605.80404Q14.290909 611.40404 18.045455 615.540404T29.181818 622.858586Q23.072727 626.549495 20.209091 630.367677T17.345455 639.022222Q17.345455 643.985859 20.654545 648.185859T29.436364 654.80404T41.145455 657.222222Q47.509091 657.222222 52.472727 654.931313T60.236364 648.694949T63.036364 639.785859Q63.036364 635.20404 59.854545 631.194949T50.309091 624.00404Q58.709091 620.440404 62.209091 616.494949T65.709091 606.440404Q65.709091 601.222222 62.336364 596.831313T52.918182 589.831313T39.109091 587.222222Q31.727273 587.222222 26.063636 589.640404ZM51.263636 632.340404Q53.109091 635.967677 53.109091 639.913131Q53.109091 645.385859 49.8 649.140404T40.509091 652.894949Q34.781818 652.894949 31.345455 649.585859T27.909091 641.185859Q27.909091 636.476768 32.554545 633.231313T45.981818 626.294949Q49.418182 628.713131 51.263636 632.340404ZM50.436364 594.985859Q54.254545 598.549495 54.254545 604.149495Q54.254545 607.840404 51.9 610.576768T45.790909 615.285859T34.018182 620.822222Q30.072727 618.149495 27.909091 614.458586T25.745455 606.313131Q25.745455 599.694949 29.754545 595.558586T40.254545 591.422222Q46.618182 591.422222 50.436364 594.985859Z" fill="#010101" />
<path d="M41.092188 536.865324C41.312831 534.570625 41.864444 532.540704 42.747017 530.77555C43.629591 529.010396 44.556296 527.66447 45.527131 526.737766S47.722541 525.016743 49.200854 524.354811C50.679166 523.692879 51.815485 523.262623 52.609803 523.064044S54.374957 522.677917 55.522303 522.501401C55.698819 522.457273 55.831205 522.435208 55.919463 522.435208V521.111344H24.080537V522.435208C27.831487 523.09714 30.677794 524.067976 32.619459 525.347709C36.326278 527.818919 38.422398 531.658124 38.907812 536.865324C36.613113 533.335023 33.656488 531.569869 30.037925 531.569869C27.699101 531.569869 25.702271 532.386249 24.047441 534.019017S21.565196 537.63758 21.565196 539.976404C21.565196 541.9622 22.050613 543.771478 23.021446 545.404246C23.992282 547.037013 25.249953 548.52636 26.794458 549.872286S29.9276 552.619304 31.560368 554.075554C33.193136 555.531804 34.803834 557.440372 36.392471 559.801265S39.194647 564.820913 40.033097 567.777544C40.783284 564.865044 41.941665 562.239379 43.508239 559.900555S46.685512 555.66419 48.340342 554.20794S51.594843 551.339571 53.139349 549.971576S55.952559 547.103207 56.945457 545.470439S58.434804 542.006331 58.434804 539.976404C58.434804 537.63758 57.607389 535.651784 55.952559 534.019017S52.300899 531.569869 49.962075 531.569869C46.343512 531.569869 43.386887 533.335023 41.092188 536.865324Z" fill="#010101" />
</svg>
