<svg width="150.000000" height="210.000000" id="card-webdiamond13">
<radialGradient id="card-webwhitegradient" cx="75.0" cy="105.0" r="150" gradientTransform="matrix(1 0 0 1 0 -.25)" gradientUnits="userSpaceOnUse">
<stop stop-color="#FDFAF4" offset=".15"/>
<stop stop-color="#FDF9F2" offset=".35"/>
<stop stop-color="#FCF7F1" offset=".5"/>
<stop stop-color="#FDFDF8" offset=".75"/>
<stop stop-color="#FFFDFA" offset="1"/>
</radialGradient>
<rect x="0" y="0" rx="7.5" ry="7.5" width="150" height="210.0" stroke="#010101" fill="url(#card-webwhitegradient)" />
<rect x="30.0" y="21.0" width="90.0" height="168.0" stroke="#010101" fill="#fffdfa" />
<path d="M60.062587 55.897571C59.394993 55.897571 58.560501 56.050561 57.55911 56.356541S55.431154 57.135401 54.179416 57.775178S51.870651 59.458074 51.008345 60.904525S49.714882 64.01996 49.714882 65.911479C49.714882 67.413565 49.979138 68.748753 50.50765 69.917042S51.68985 72.142358 52.468707 73.088113C53.247566 74.033868 54.040331 75.090895 54.84701 76.259184S56.37691 79.110369 57.01669 81.307863S58.031992 86.106194 58.143255 89.110366C58.25452 92.837768 63.873438 94.701465 75.0 94.701465C86.07096 94.701465 91.689847 92.837768 91.856745 89.110366C92.079277 85.216066 92.649513 82.017181 93.567455 79.513704S95.431152 75.313429 96.404729 74.423301S98.268426 72.392706 99.075104 71.001882S100.285118 67.914261 100.285118 65.911479C100.285118 63.964333 99.853964 62.267526 98.991655 60.821076S97.072323 58.33151 95.820584 57.691729S93.42837 56.592978 92.399166 56.314817S90.493744 55.897571 89.770515 55.897571C87.044503 55.897571 84.318501 56.982411 81.59249 59.152091C81.59249 56.537351 81.342142 54.687557 80.841446 53.602717S79.061199 51.307863 77.002782 49.972675V47.969893L80.4242 45.967112V42.962939H77.336579L76.251739 39.791868H73.748261L72.663421 42.962939H69.5758V45.967112L72.997218 47.969893V49.972675C70.938801 51.252227 69.659249 52.490063 69.158554 53.686166S68.40751 56.704249 68.40751 59.152091C67.684283 58.428864 66.529903 57.70564 64.944367 56.982411S61.731572 55.897571 60.062587 55.897571ZM75.0 66.579073C74.666203 65.967112 74.193324 65.188249 73.581363 64.242494S72.566061 62.643048 72.371349 62.281437S71.981919 61.363496 71.787204 60.612452S71.495132 58.985192 71.495132 57.983802C71.495132 54.701468 72.635608 53.060297 74.916551 53.060297C77.308765 53.060297 78.504868 54.701468 78.504868 57.983802C78.504868 58.985192 78.40751 59.861409 78.212796 60.612452S77.823366 61.933729 77.628651 62.323162S77.030598 63.366277 76.418637 64.284219S75.333797 65.967115 75.0 66.579073ZM60.146036 58.901743C62.872047 58.901743 65.681499 60.306469 68.574409 63.11593S73.108481 69.583245 73.497914 74.089504C73.497914 75.424692 68.40751 76.092286 58.226704 76.092286C58.115438 75.98102 57.475661 75.202158 56.307371 73.755707C55.139082 72.309256 54.248954 70.987971 53.636996 69.791868S52.719054 67.469201 52.719054 66.412174C52.719054 64.186859 53.428373 62.378797 54.84701 60.987974S58.031992 58.901743 60.146036 58.901743ZM59.72879 79.430255C61.342139 79.31899 63.08067 79.193816 64.944367 79.054733C66.808064 78.915651 68.115438 78.818294 68.866481 78.762661S70.438106 78.623579 71.328234 78.512313S72.913769 78.289782 73.414465 78.178516S74.443669 77.900353 75.0 77.677821C75.667594 77.955985 76.474273 78.192425 77.420028 78.38714S79.214186 78.707028 79.965229 78.762661S82.204448 78.915651 84.429764 79.054733S88.602225 79.31899 90.27121 79.430255C89.714882 81.544299 89.353268 83.880878 89.18637 86.439991C85.347705 85.216066 80.618887 84.604108 75.0 84.604108C69.269816 84.604108 64.541057 85.216068 60.81363 86.439991C60.646732 83.658352 60.285118 81.321774 59.72879 79.430255ZM89.853964 58.901743C91.856745 58.901743 93.595268 59.597153 95.069541 60.987974S97.280946 64.186859 97.280946 66.412174C97.280946 67.191034 97.058414 68.053345 96.613352 68.999101S95.723224 70.751535 95.278164 71.419128S94.193324 72.949028 93.358832 74.006055C92.524339 75.063081 91.99583 75.758489 91.773296 76.092286C81.59249 76.092286 76.502086 75.424692 76.502086 74.089504C76.891516 69.583245 78.518779 65.92539 81.383866 63.11593S87.072325 58.901743 89.853964 58.901743ZM74.916551 87.942077C82.705143 87.942077 86.599444 88.665304 86.599444 90.111757C86.599444 90.612452 85.264256 91.001885 82.59388 91.280046S77.392214 91.697293 75.0 91.697293C67.267035 91.697293 63.400556 91.168781 63.400556 90.111757C63.400556 88.665306 67.239221 87.942077 74.916551 87.942077Z" fill="#da0a0a" />
<path d="M89.937413 154.102429C90.605007 154.102429 91.439499 153.949439 92.44089 153.643459S94.568846 152.864599 95.820584 152.224822S98.129349 150.541926 98.991655 149.095475S100.285118 145.98004 100.285118 144.088521C100.285118 142.586435 100.020862 141.251247 99.49235 140.082958S98.31015 137.857642 97.531293 136.911887C96.752434 135.966132 95.959669 134.909105 95.15299 133.740816S93.62309 130.889631 92.98331 128.692137S91.968008 123.893806 91.856745 120.889634C91.74548 117.162232 86.126562 115.298535 75.0 115.298535C63.92904 115.298535 58.310153 117.162232 58.143255 120.889634C57.920723 124.783934 57.350487 127.982819 56.432545 130.486296S54.568848 134.686571 53.595271 135.576699S51.731574 137.607294 50.924896 138.998118S49.714882 142.085739 49.714882 144.088521C49.714882 146.035667 50.146036 147.732474 51.008345 149.178924S52.927677 151.66849 54.179416 152.308271S56.57163 153.407022 57.600834 153.685183S59.506256 154.102429 60.229485 154.102429C62.955497 154.102429 65.681499 153.017589 68.40751 150.847909C68.40751 153.462649 68.657858 155.312443 69.158554 156.397283S70.938801 158.692137 72.997218 160.027325V162.030107L69.5758 164.032888V167.037061H72.663421L73.748261 170.208132H76.251739L77.336579 167.037061H80.4242V164.032888L77.002782 162.030107V160.027325C79.061199 158.747773 80.340751 157.509937 80.841446 156.313834S81.59249 153.295751 81.59249 150.847909C82.315717 151.571136 83.470097 152.29436 85.055633 153.017589S88.268428 154.102429 89.937413 154.102429ZM75.0 143.420927C75.333797 144.032888 75.806676 144.811751 76.418637 145.757506S77.433939 147.356952 77.628651 147.718563S78.018081 148.636504 78.212796 149.387548S78.504868 151.014808 78.504868 152.016198C78.504868 155.298532 77.364392 156.939703 75.083449 156.939703C72.691235 156.939703 71.495132 155.298532 71.495132 152.016198C71.495132 151.014808 71.59249 150.138591 71.787204 149.387548S72.176634 148.066271 72.371349 147.676838S72.969402 146.633723 73.581363 145.715781S74.666203 144.032885 75.0 143.420927ZM89.853964 151.098257C87.127953 151.098257 84.318501 149.693531 81.425591 146.88407S76.891519 140.416755 76.502086 135.910496C76.502086 134.575308 81.59249 133.907714 91.773296 133.907714C91.884562 134.01898 92.524339 134.797842 93.692629 136.244293C94.860918 137.690744 95.751046 139.012029 96.363004 140.208132S97.280946 142.530799 97.280946 143.587826C97.280946 145.813141 96.571627 147.621203 95.15299 149.012026S91.968008 151.098257 89.853964 151.098257ZM90.27121 130.569745C88.657861 130.68101 86.91933 130.806184 85.055633 130.945267C83.191936 131.084349 81.884562 131.181706 81.133519 131.237339S79.561894 131.376421 78.671766 131.487687S77.086231 131.710218 76.585535 131.821484S75.556331 132.099647 75.0 132.322179C74.332406 132.044015 73.525727 131.807575 72.579972 131.61286S70.785814 131.292972 70.034771 131.237339S67.795552 131.084349 65.570236 130.945267S61.397775 130.68101 59.72879 130.569745C60.285118 128.455701 60.646732 126.119122 60.81363 123.560009C64.652295 124.783934 69.381113 125.395892 75.0 125.395892C80.730184 125.395892 85.458943 124.783932 89.18637 123.560009C89.353268 126.341648 89.714882 128.678226 90.27121 130.569745ZM60.146036 151.098257C58.143255 151.098257 56.404732 150.402847 54.930459 149.012026S52.719054 145.813141 52.719054 143.587826C52.719054 142.808966 52.941586 141.946655 53.386648 141.000899S54.276776 139.248465 54.721836 138.580872S55.806676 137.050972 56.641168 135.993945C57.475661 134.936919 58.00417 134.241511 58.226704 133.907714C68.40751 133.907714 73.497914 134.575308 73.497914 135.910496C73.108484 140.416755 71.481221 144.07461 68.616134 146.88407S62.927675 151.098257 60.146036 151.098257ZM75.083449 122.057923C67.294857 122.057923 63.400556 121.334696 63.400556 119.888243C63.400556 119.387548 64.735744 118.998115 67.40612 118.719954S72.607786 118.302707 75.0 118.302707C82.732965 118.302707 86.599444 118.831219 86.599444 119.888243C86.599444 121.334694 82.760779 122.057923 75.083449 122.057923Z" fill="#da0a0a" />
<path d="M148.356164 33.305936Q148.5 33.098174 148.5 32.810502Q148.468037 32.33105 148.308219 32.23516T147.700913 32.139269Q146.773973 32.139269 146.326484 31.803653T145.767123 30.972603T145.623288 29.678082V16.988584Q145.655251 16.189498 145.767123 15.694064T146.326484 14.863014T147.700913 14.527397H147.892694Q148.212329 14.527397 148.340183 14.415525T148.5 13.856164Q148.5 13.568493 148.356164 13.360731T147.924658 13.152968Q145.847032 13.248858 144.152968 13.248858Q142.23516 13.248858 140.157534 13.152968Q139.869863 13.152968 139.726027 13.360731T139.582192 13.856164Q139.614155 14.335616 139.773973 14.431507T140.381279 14.527397Q141.308219 14.527397 141.755708 14.863014T142.315068 15.694064T142.458904 16.988584V22.773973Q141.947489 22.678082 141.308219 22.230594T139.742009 20.984018Q137.952055 19.321918 135.23516 16.093607Q134.659817 15.454338 134.659817 15.070776Q134.659817 14.591324 135.522831 14.559361Q135.746575 14.527397 135.826484 14.383562T135.97032 13.888128Q135.97032 13.600457 135.810502 13.376712T135.394977 13.152968Q134.276256 13.248858 131.878995 13.248858Q131.111872 13.248858 129.641553 13.184932L128.97032 13.152968Q128.682648 13.152968 128.522831 13.360731T128.363014 13.888128Q128.394977 14.335616 128.554795 14.447489T129.002283 14.559361Q130.280822 14.495434 131.415525 14.974886T133.796804 16.700913L138.974886 22.10274Q137.856164 23.477169 136.673516 24.723744T133.828767 27.63242Q132.997717 28.46347 131.847032 29.678082Q131.495434 30.02968 131.36758 30.189498Q130.344749 31.212329 129.753425 31.627854T128.299087 32.139269Q128.23516 32.139269 128.011416 32.155251T127.643836 32.33105T127.5 32.810502Q127.5 33.098174 127.643836 33.305936T128.075342 33.513699Q128.458904 33.481735 129.002283 33.481735Q130.152968 33.417808 130.792237 33.417808H132.8379Q137.057078 28.719178 140.381279 24.883562Q141.40411 23.700913 142.458904 23.605023V29.678082Q142.426941 30.477169 142.315068 30.972603T141.755708 31.803653T140.381279 32.139269H140.189498Q139.869863 32.139269 139.742009 32.251142T139.582192 32.810502Q139.582192 33.098174 139.726027 33.305936T140.157534 33.513699Q142.203196 33.417808 144.121005 33.417808Q145.847032 33.417808 147.924658 33.513699Q148.212329 33.513699 148.356164 33.305936Z" fill="#da0a0a" />
<path d="M138.019471 39.666737C137.707931 40.289818 136.95504 41.409417 135.760801 43.025535C134.566563 44.641652 133.605972 45.852124 132.87905 46.656931C133.787711 47.695399 134.764519 48.928588 135.809479 50.356477C136.85444 51.784371 137.591103 52.887745 138.019471 53.666597C138.980054 51.953123 140.680555 49.616568 143.12095 46.656931C140.615637 43.632397 138.915151 41.302325 138.019471 39.666737Z" fill="#da0a0a" />
<path d="M1.643836 176.694064Q1.5 176.901826 1.5 177.189498Q1.531963 177.66895 1.691781 177.76484T2.299087 177.860731Q3.226027 177.860731 3.673516 178.196347T4.232877 179.027397T4.376712 180.321918V193.011416Q4.344749 193.810502 4.232877 194.305936T3.673516 195.136986T2.299087 195.472603H2.107306Q1.787671 195.472603 1.659817 195.584475T1.5 196.143836Q1.5 196.431507 1.643836 196.639269T2.075342 196.847032Q4.152968 196.751142 5.847032 196.751142Q7.76484 196.751142 9.842466 196.847032Q10.130137 196.847032 10.273973 196.639269T10.417808 196.143836Q10.385845 195.664384 10.226027 195.568493T9.618721 195.472603Q8.691781 195.472603 8.244292 195.136986T7.684932 194.305936T7.541096 193.011416V187.226027Q8.052511 187.321918 8.691781 187.769406T10.257991 189.015982Q12.047945 190.678082 14.76484 193.906393Q15.340183 194.545662 15.340183 194.929224Q15.340183 195.408676 14.477169 195.440639Q14.253425 195.472603 14.173516 195.616438T14.02968 196.111872Q14.02968 196.399543 14.189498 196.623288T14.605023 196.847032Q15.723744 196.751142 18.121005 196.751142Q18.888128 196.751142 20.358447 196.815068L21.02968 196.847032Q21.317352 196.847032 21.477169 196.639269T21.636986 196.111872Q21.605023 195.664384 21.445205 195.552511T20.997717 195.440639Q19.719178 195.504566 18.584475 195.025114T16.203196 193.299087L11.025114 187.89726Q12.143836 186.522831 13.326484 185.276256T16.171233 182.36758Q17.002283 181.53653 18.152968 180.321918Q18.504566 179.97032 18.63242 179.810502Q19.655251 178.787671 20.246575 178.372146T21.700913 177.860731Q21.76484 177.860731 21.988584 177.844749T22.356164 177.66895T22.5 177.189498Q22.5 176.901826 22.356164 176.694064T21.924658 176.486301Q21.541096 176.518265 20.997717 176.518265Q19.847032 176.582192 19.207763 176.582192H17.1621Q12.942922 181.280822 9.618721 185.116438Q8.59589 186.299087 7.541096 186.394977V180.321918Q7.573059 179.522831 7.684932 179.027397T8.244292 178.196347T9.618721 177.860731H9.810502Q10.130137 177.860731 10.257991 177.748858T10.417808 177.189498Q10.417808 176.901826 10.273973 176.694064T9.842466 176.486301Q7.796804 176.582192 5.878995 176.582192Q4.152968 176.582192 2.075342 176.486301Q1.787671 176.486301 1.643836 176.694064Z" fill="#da0a0a" />
<path d="M11.980529 170.333263C12.292069 169.710182 13.04496 168.590583 14.239199 166.974465C15.433437 165.358348 16.394028 164.147876 17.12095 163.343069C16.212289 162.304601 15.235481 161.071412 14.190521 159.643523C13.14556 158.215629 12.408897 157.112255 11.980529 156.333403C11.019946 158.046877 9.319445 160.383432 6.87905 163.343069C9.384363 166.367603 11.084849 168.697675 11.980529 170.333263Z" fill="#da0a0a" />
</svg>
