<svg width="500.000000" height="700.000000" id="card-realheart5">
<radialGradient id="card-realwhitegradient" cx="250.0" cy="350.0" r="500" gradientTransform="matrix(1 0 0 1 0 -.25)" gradientUnits="userSpaceOnUse">
<stop stop-color="#FDFAF4" offset=".15"/>
<stop stop-color="#FDF9F2" offset=".35"/>
<stop stop-color="#FCF7F1" offset=".5"/>
<stop stop-color="#FDFDF8" offset=".75"/>
<stop stop-color="#FFFDFA" offset="1"/>
</radialGradient>
<rect x="0" y="0" rx="25.0" ry="25.0" width="500" height="700.0" stroke="#010101" fill="url(#card-realwhitegradient)" />
<path d="M149.860724 86.722377C148.003719 79.851444 145.00929 74.791082 140.877437 71.541318S132.172702 66.666667 127.158774 66.666667C121.494889 66.666667 116.643454 68.616527 112.604457 72.516249S106.545961 81.104926 106.545961 86.583101C106.545961 91.597029 107.77623 96.703812 110.236769 101.903435S115.807799 112.116987 119.568245 116.945218S127.158774 126.624884 131.058496 131.499536S138.695446 141.922001 142.270195 148.14299S148.375111 160.538533 149.860724 166.666667C151.532033 160.259981 154.20149 153.830079 157.869081 147.376973S165.320334 135.213561 169.220056 130.246054C173.119777 125.278547 176.926643 120.403895 180.640669 115.622098S187.41876 106.035288 189.832869 101.207057S193.454039 91.782725 193.454039 87.418756C193.454039 81.569174 191.480961 76.648101 187.534819 72.655525C183.588677 68.662948 178.737228 66.666667 172.980501 66.666667C161.931295 66.666667 154.224652 73.351903 149.860724 86.722377Z" fill="#da0a0a" />
<path d="M150.139276 613.277623C151.996281 620.148556 154.99071 625.208918 159.122563 628.458682S167.827298 633.333333 172.841226 633.333333C178.505111 633.333333 183.356546 631.383473 187.395543 627.483751S193.454039 618.895074 193.454039 613.416899C193.454039 608.402971 192.22377 603.296188 189.763231 598.096565S184.192201 587.883013 180.431755 583.054782S172.841226 573.375116 168.941504 568.500464S161.304554 558.077999 157.729805 551.85701S151.624889 539.461467 150.139276 533.333333C148.467967 539.740019 145.79851 546.169921 142.130919 552.623027S134.679666 564.786439 130.779944 569.753946C126.880223 574.721453 123.073357 579.596105 119.359331 584.377902S112.58124 593.964712 110.167131 598.792943S106.545961 608.217275 106.545961 612.581244C106.545961 618.430826 108.519039 623.351899 112.465181 627.344475C116.411323 631.337052 121.262772 633.333333 127.019499 633.333333C138.068705 633.333333 145.775348 626.648097 150.139276 613.277623Z" fill="#da0a0a" />
<path d="M349.860724 86.722377C348.003719 79.851444 345.00929 74.791082 340.877437 71.541318S332.172702 66.666667 327.158774 66.666667C321.494889 66.666667 316.643454 68.616527 312.604457 72.516249S306.545961 81.104926 306.545961 86.583101C306.545961 91.597029 307.77623 96.703812 310.236769 101.903435S315.807799 112.116987 319.568245 116.945218S327.158774 126.624884 331.058496 131.499536S338.695446 141.922001 342.270195 148.14299S348.375111 160.538533 349.860724 166.666667C351.532033 160.259981 354.20149 153.830079 357.869081 147.376973S365.320334 135.213561 369.220056 130.246054C373.119777 125.278547 376.926643 120.403895 380.640669 115.622098S387.41876 106.035288 389.832869 101.207057S393.454039 91.782725 393.454039 87.418756C393.454039 81.569174 391.480961 76.648101 387.534819 72.655525C383.588677 68.662948 378.737228 66.666667 372.980501 66.666667C361.931295 66.666667 354.224652 73.351903 349.860724 86.722377Z" fill="#da0a0a" />
<path d="M350.139276 613.277623C351.996281 620.148556 354.99071 625.208918 359.122563 628.458682S367.827298 633.333333 372.841226 633.333333C378.505111 633.333333 383.356546 631.383473 387.395543 627.483751S393.454039 618.895074 393.454039 613.416899C393.454039 608.402971 392.22377 603.296188 389.763231 598.096565S384.192201 587.883013 380.431755 583.054782S372.841226 573.375116 368.941504 568.500464S361.304554 558.077999 357.729805 551.85701S351.624889 539.461467 350.139276 533.333333C348.467967 539.740019 345.79851 546.169921 342.130919 552.623027S334.679666 564.786439 330.779944 569.753946C326.880223 574.721453 323.073357 579.596105 319.359331 584.377902S312.58124 593.964712 310.167131 598.792943S306.545961 608.217275 306.545961 612.581244C306.545961 618.430826 308.519039 623.351899 312.465181 627.344475C316.411323 631.337052 321.262772 633.333333 327.019499 633.333333C338.068705 633.333333 345.775348 626.648097 350.139276 613.277623Z" fill="#da0a0a" />
<path d="M249.860724 320.05571C248.003719 313.184777 245.00929 308.124415 240.877437 304.874652S232.172702 300.0 227.158774 300.0C221.494889 300.0 216.643454 301.949861 212.604457 305.849582S206.545961 314.438259 206.545961 319.916435C206.545961 324.930362 207.77623 330.037145 210.236769 335.236769S215.807799 345.45032 219.568245 350.278552S227.158774 359.958217 231.058496 364.832869S238.695446 375.255334 242.270195 381.476323S248.375111 393.871866 249.860724 400.0C251.532033 393.593315 254.20149 387.163412 257.869081 380.710306S265.320334 368.546894 269.220056 363.579387C273.119777 358.61188 276.926643 353.737228 280.640669 348.955432S287.41876 339.368621 289.832869 334.54039S293.454039 325.116058 293.454039 320.752089C293.454039 314.902507 291.480961 309.981435 287.534819 305.988858C283.588677 301.996281 278.737228 300.0 272.980501 300.0C261.931295 300.0 254.224652 306.685237 249.860724 320.05571Z" fill="#da0a0a" />
<path d="M478.277778 109.277778Q484.62963 105.777778 484.62963 98.388889Q484.62963 94.37037 482.231481 91.324074T475.814815 88.277778Q473.351852 88.277778 471.601852 89.574074T469.851852 91.777778Q469.851852 91.907407 471.018519 92.944444T473.157407 95.472222T474.12963 98.907407Q474.12963 103.314815 470.953704 105.648148T462.074074 107.981481Q454.944444 107.981481 451.37963 102.925926T447.814815 89.703704Q447.814815 82.185185 451.444444 77.194444T462.722222 72.203704Q466.222222 72.203704 468.75 73.305556T474.12963 76.481481Q475.814815 77.648148 476.916667 78.231481T479.055556 78.814815Q481.12963 78.814815 481.12963 75.185185L481.0 73.62963L476.981481 42.777778H441.333333Q439.518519 42.777778 438.416667 43.944444T437.314815 47.185185Q437.314815 51.981481 442.240741 51.981481H471.018519L473.740741 70.0Q468.037037 66.5 459.740741 66.5Q454.166667 66.5 448.527778 68.962963T439.12963 76.481481T435.37037 89.055556T439.064815 101.953704T448.916667 110.055556T462.333333 112.777778Q471.925926 112.777778 478.277778 109.277778Z" fill="#da0a0a" />
<path d="M459.935005 141.581693C459.068411 138.37529 457.671025 136.013811 455.742847 134.49727S451.680677 132.222456 449.340868 132.222456C446.697748 132.222456 444.433768 133.132381 442.548921 134.952233S439.721651 138.960242 439.721651 141.516699C439.721651 143.856508 440.295771 146.23965 441.444011 148.666117S444.043799 153.432393 445.798656 155.685545S449.340868 160.202677 451.16072 162.477492S454.724594 167.34126 456.392794 170.244359S459.241726 176.028888 459.935005 178.888656C460.714942 175.898899 461.960676 172.898308 463.672201 169.886889S467.149418 164.210686 468.96927 161.89254C470.789121 159.574393 472.565641 157.299578 474.298836 155.068095S477.461914 150.594295 478.588486 148.341143S480.278349 143.943166 480.278349 141.906667C480.278349 139.176889 479.357588 136.880412 477.516074 135.017228C475.674559 133.154044 473.410572 132.222456 470.724127 132.222456C465.567882 132.222456 461.971484 135.342202 459.935005 141.581693Z" fill="#da0a0a" />
<path d="M21.722222 590.722222Q15.37037 594.222222 15.37037 601.611111Q15.37037 605.62963 17.768519 608.675926T24.185185 611.722222Q26.648148 611.722222 28.398148 610.425926T30.148148 608.222222Q30.148148 608.092593 28.981481 607.055556T26.842593 604.527778T25.87037 601.092593Q25.87037 596.685185 29.046296 594.351852T37.925926 592.018519Q45.055556 592.018519 48.62037 597.074074T52.185185 610.296296Q52.185185 617.814815 48.555556 622.805556T37.277778 627.796296Q33.777778 627.796296 31.25 626.694444T25.87037 623.518519Q24.185185 622.351852 23.083333 621.768519T20.944444 621.185185Q18.87037 621.185185 18.87037 624.814815L19.0 626.37037L23.018519 657.222222H58.666667Q60.481481 657.222222 61.583333 656.055556T62.685185 652.814815Q62.685185 648.018519 57.759259 648.018519H28.981481L26.259259 630.0Q31.962963 633.5 40.259259 633.5Q45.833333 633.5 51.472222 631.037037T60.87037 623.518519T64.62963 610.944444T60.935185 598.046296T51.083333 589.944444T37.666667 587.222222Q28.074074 587.222222 21.722222 590.722222Z" fill="#da0a0a" />
<path d="M40.064995 558.418307C40.931589 561.62471 42.328975 563.986189 44.257153 565.50273S48.319323 567.777544 50.659132 567.777544C53.302252 567.777544 55.566232 566.867619 57.451079 565.047767S60.278349 561.039758 60.278349 558.483301C60.278349 556.143492 59.704229 553.76035 58.555989 551.333883S55.956201 546.567607 54.201344 544.314455S50.659132 539.797323 48.83928 537.522508S45.275406 532.65874 43.607206 529.755641S40.758274 523.971112 40.064995 521.111344C39.285058 524.101101 38.039324 527.101692 36.327799 530.113111S32.850582 535.789314 31.03073 538.10746C29.210879 540.425607 27.434359 542.700422 25.701164 544.931905S22.538086 549.405705 21.411514 551.658857S19.721651 556.056834 19.721651 558.093333C19.721651 560.823111 20.642412 563.119588 22.483926 564.982772C24.325441 566.845956 26.589428 567.777544 29.275873 567.777544C34.432118 567.777544 38.028516 564.657798 40.064995 558.418307Z" fill="#da0a0a" />
</svg>
