<svg width="500.000000" height="700.000000" id="card-realspade12">
<radialGradient id="card-realwhitegradient" cx="250.0" cy="350.0" r="500" gradientTransform="matrix(1 0 0 1 0 -.25)" gradientUnits="userSpaceOnUse">
<stop stop-color="#FDFAF4" offset=".15"/>
<stop stop-color="#FDF9F2" offset=".35"/>
<stop stop-color="#FCF7F1" offset=".5"/>
<stop stop-color="#FDFDF8" offset=".75"/>
<stop stop-color="#FFFDFA" offset="1"/>
</radialGradient>
<rect x="0" y="0" rx="25.0" ry="25.0" width="500" height="700.0" stroke="#010101" fill="url(#card-realwhitegradient)" />
<rect x="100.0" y="70.0" width="300.0" height="560.0" stroke="#010101" fill="#fffdfa" />
<path d="M249.716312 276.921513C261.631206 276.921513 272.458638 277.772577 282.198582 279.474704C291.938525 281.176832 296.808511 283.351783 296.808511 285.999527C296.808511 289.025541 294.633569 290.538534 290.283688 290.538534C289.527186 290.538534 283.711574 290.160285 272.836879 289.403783S254.160766 288.269031 249.432624 288.269031C244.515376 288.269031 236.76122 288.64728 226.170213 289.403783C215.579206 290.160285 210.0 290.538534 209.432624 290.538534C205.082752 290.538534 202.907801 289.025533 202.907801 285.999527C202.907801 279.947527 218.510638 276.921513 249.716312 276.921513ZM332.269504 167.417967C334.160757 167.417967 335.815603 168.079904 337.234043 169.403783C338.652482 170.727661 339.361702 172.429797 339.361702 174.510165S338.652482 178.292662 337.234043 179.616548S334.160766 181.602364 332.269504 181.602364C327.730496 181.602364 325.460993 179.238299 325.460993 174.510165C325.460993 169.782024 327.730496 167.417967 332.269504 167.417967ZM295.106383 149.545626C300.023631 149.545626 302.48227 151.909692 302.48227 156.637825S300.02364 163.730024 295.106383 163.730024C290.567376 163.730024 288.297872 161.365958 288.297872 156.637825S290.567376 149.545626 295.106383 149.545626ZM204.609929 149.545626C206.501183 149.545626 208.108738 150.254846 209.432624 151.673286S211.41844 154.746563 211.41844 156.637825C211.41844 161.365967 209.148936 163.730024 204.609929 163.730024C199.881787 163.730024 197.51773 161.365958 197.51773 156.637825S199.881796 149.545626 204.609929 149.545626ZM167.730496 167.417967C172.269504 167.417967 174.539007 169.782032 174.539007 174.510165C174.539007 179.238307 172.269504 181.602364 167.730496 181.602364C163.002355 181.602364 160.638298 179.238299 160.638298 174.510165C160.638298 172.429788 161.347518 170.727669 162.765957 169.403783C164.184397 168.079904 165.839234 167.417967 167.730496 167.417967ZM196.099291 275.503073C196.099291 276.637825 194.775413 280.278478 192.12766 286.425059S188.156028 298.103556 188.156028 303.020804C188.156028 307.559811 194.63356 310.822222 207.588652 312.808038C220.543745 314.793853 234.680851 315.786761 250.0 315.786761C267.399518 315.786761 282.009362 314.604727 293.829787 312.240662C305.650128 309.876597 311.560284 306.8033 311.560284 303.020804C311.560284 297.914421 310.283688 292.335215 307.730496 286.283215S303.900709 276.637825 303.900709 275.503073C303.900709 272.287953 307.446809 266.566903 314.539007 258.339953S325.177305 245.05391 325.177305 243.162648C325.177305 242.027896 325.886525 239.096463 327.304965 234.368322S330.283688 223.399045 331.985816 215.644917S334.822695 199.947527 335.390071 191.81513C344.089844 188.22174 348.439716 182.453428 348.439716 174.510165C348.439716 169.971158 346.879433 166.188662 343.758865 163.162648S336.808511 158.623641 332.269504 158.623641C328.108738 158.623641 324.420794 160.183924 321.205674 163.304492S316.382979 170.160293 316.382979 174.510165C316.382979 174.699291 316.619385 176.448699 317.092199 179.758392S317.801418 184.912066 317.801418 185.290307C317.801418 193.800946 311.749418 204.202846 299.64539 216.495981C298.699765 208.741853 298.22695 200.609456 298.22695 192.098818C298.22695 185.101173 298.888888 179.616548 300.212766 175.644917S303.049645 169.214648 304.751773 168.269031S307.966894 165.904965 309.29078 164.013712S311.276596 159.474704 311.276596 156.070449C311.276596 151.531442 309.716312 147.748946 306.595745 144.722931S299.64539 140.183924 295.106383 140.183924C290.756511 140.183924 287.021277 141.744208 283.900709 144.864775S279.219858 151.720577 279.219858 156.070449C279.219858 156.448699 279.550828 158.434514 280.212766 162.027896S281.205674 167.701655 281.205674 168.269031C281.205674 178.860038 276.004738 195.030251 265.602837 216.779669C261.631206 199.001882 259.64539 185.384775 259.64539 175.928605C259.64539 169.120095 260.638298 162.926251 262.624113 157.347045S265.602837 148.789116 265.602837 148.410875C265.602837 143.871868 264.042553 140.089371 260.921986 137.063357S254.066184 132.52435 249.716312 132.52435S241.725759 134.084634 238.794326 137.205201S234.397163 144.061002 234.397163 148.410875C234.397163 149.3565 235.390071 152.477059 237.375887 157.772577S240.35461 169.120095 240.35461 175.928605C240.35461 185.384861 238.368794 199.001882 234.397163 216.779669C224.184397 195.219385 219.078014 179.049173 219.078014 168.269031C219.078014 167.512529 219.361702 165.526713 219.929078 162.311584S220.780142 157.016066 220.780142 156.070449C220.780142 151.531442 219.219858 147.748946 216.099291 144.722931S209.148936 140.183924 204.609929 140.183924C200.260057 140.183924 196.524823 141.744208 193.404255 144.864775S188.723404 151.720577 188.723404 156.070449C188.723404 158.907329 189.148936 161.129541 190.0 162.737116S191.938533 165.715839 193.262411 166.850591S195.910165 169.3565 197.234043 170.964066C198.557921 172.571632 199.64539 175.172095 200.496454 178.765485S201.77305 186.897882 201.77305 192.382506C201.77305 200.704009 201.300235 208.741853 200.35461 216.495981C188.250582 204.202846 182.198582 193.800946 182.198582 185.290307C182.198582 180.940435 182.671396 177.347045 183.617021 174.510165C183.617021 170.160293 182.056738 166.425059 178.93617 163.304492S172.080369 158.623641 167.730496 158.623641C163.191489 158.623641 159.361702 160.183924 156.241135 163.304492S151.560284 170.160293 151.560284 174.510165C151.560284 182.075187 155.910156 187.843499 164.609929 191.81513C165.744681 203.730024 167.730496 214.746563 170.567376 224.864775S174.822695 241.082279 174.822695 243.162648C174.822695 244.864775 178.368794 249.876605 185.460993 258.198109S196.099291 272.287953 196.099291 275.503073ZM249.716312 140.7513C251.796689 140.7513 253.498809 141.413238 254.822695 142.737116S256.808511 145.76313 256.808511 147.843499S256.146573 151.625995 254.822695 152.949882S251.796681 154.935697 249.716312 154.935697C245.177305 154.935697 242.907801 152.571632 242.907801 147.843499C242.907801 145.952245 243.569739 144.2974 244.893617 142.87896S247.82505 140.7513 249.716312 140.7513ZM198.652482 251.389598C198.652482 248.174478 204.27895 245.857683 215.531915 244.439243C226.784879 243.020804 238.17966 242.311584 249.716312 242.311584C260.685589 242.311584 271.985816 243.068086 283.617021 244.581087S301.06383 248.458165 301.06383 251.673286C301.06383 254.321039 298.6052 255.644917 293.687943 255.644917C289.527177 255.644917 282.52956 255.313947 272.695035 254.652009S255.106383 253.659102 249.432624 253.659102C243.56973 253.659102 234.917248 253.990072 223.475177 254.652009C212.033106 255.313947 206.028369 255.644917 205.460993 255.644917C200.921986 255.644917 198.652482 254.226478 198.652482 251.389598Z" fill="#010101" />
<path d="M250.283688 423.078487C238.368794 423.078487 227.541362 422.227423 217.801418 420.525296C208.061475 418.823168 203.191489 416.648217 203.191489 414.000473C203.191489 410.974459 205.366431 409.461466 209.716312 409.461466C210.472814 409.461466 216.288426 409.839715 227.163121 410.596217S245.839234 411.730969 250.567376 411.730969C255.484624 411.730969 263.23878 411.35272 273.829787 410.596217C284.420794 409.839715 290.0 409.461466 290.567376 409.461466C294.917248 409.461466 297.092199 410.974467 297.092199 414.000473C297.092199 420.052473 281.489362 423.078487 250.283688 423.078487ZM167.730496 532.582033C165.839243 532.582033 164.184397 531.920096 162.765957 530.596217C161.347518 529.272339 160.638298 527.570203 160.638298 525.489835S161.347518 521.707338 162.765957 520.383452S165.839234 518.397636 167.730496 518.397636C172.269504 518.397636 174.539007 520.761701 174.539007 525.489835C174.539007 530.217976 172.269504 532.582033 167.730496 532.582033ZM204.893617 550.454374C199.976369 550.454374 197.51773 548.090308 197.51773 543.362175S199.97636 536.269976 204.893617 536.269976C209.432624 536.269976 211.702128 538.634042 211.702128 543.362175S209.432624 550.454374 204.893617 550.454374ZM295.390071 550.454374C293.498817 550.454374 291.891262 549.745154 290.567376 548.326714S288.58156 545.253437 288.58156 543.362175C288.58156 538.634033 290.851064 536.269976 295.390071 536.269976C300.118213 536.269976 302.48227 538.634042 302.48227 543.362175S300.118204 550.454374 295.390071 550.454374ZM332.269504 532.582033C327.730496 532.582033 325.460993 530.217968 325.460993 525.489835C325.460993 520.761693 327.730496 518.397636 332.269504 518.397636C336.997645 518.397636 339.361702 520.761701 339.361702 525.489835C339.361702 527.570212 338.652482 529.272331 337.234043 530.596217C335.815603 531.920096 334.160766 532.582033 332.269504 532.582033ZM303.900709 424.496927C303.900709 423.362175 305.224587 419.721522 307.87234 413.574941S311.843972 401.896444 311.843972 396.979196C311.843972 392.440189 305.36644 389.177778 292.411348 387.191962C279.456255 385.206147 265.319149 384.213239 250.0 384.213239C232.600482 384.213239 217.990638 385.395273 206.170213 387.759338C194.349872 390.123403 188.439716 393.1967 188.439716 396.979196C188.439716 402.085579 189.716312 407.664785 192.269504 413.716785S196.099291 423.362175 196.099291 424.496927C196.099291 427.712047 192.553191 433.433097 185.460993 441.660047S174.822695 454.94609 174.822695 456.837352C174.822695 457.972104 174.113475 460.903537 172.695035 465.631678S169.716312 476.600955 168.014184 484.355083S165.177305 500.052473 164.609929 508.18487C155.910156 511.77826 151.560284 517.546572 151.560284 525.489835C151.560284 530.028842 153.120567 533.811338 156.241135 536.837352S163.191489 541.376359 167.730496 541.376359C171.891262 541.376359 175.579206 539.816076 178.794326 536.695508S183.617021 529.839707 183.617021 525.489835C183.617021 525.300709 183.380615 523.551301 182.907801 520.241608S182.198582 515.087934 182.198582 514.709693C182.198582 506.199054 188.250582 495.797154 200.35461 483.504019C201.300235 491.258147 201.77305 499.390544 201.77305 507.901182C201.77305 514.898827 201.111112 520.383452 199.787234 524.355083S196.950355 530.785352 195.248227 531.730969S192.033106 534.095035 190.70922 535.986288S188.723404 540.525296 188.723404 543.929551C188.723404 548.468558 190.283688 552.251054 193.404255 555.277069S200.35461 559.816076 204.893617 559.816076C209.243489 559.816076 212.978723 558.255792 216.099291 555.135225S220.780142 548.279423 220.780142 543.929551C220.780142 543.551301 220.449172 541.565486 219.787234 537.972104S218.794326 532.298345 218.794326 531.730969C218.794326 521.139962 223.995262 504.969749 234.397163 483.220331C238.368794 500.998118 240.35461 514.615225 240.35461 524.071395C240.35461 530.879905 239.361702 537.073749 237.375887 542.652955S234.397163 551.210884 234.397163 551.589125C234.397163 556.128132 235.957447 559.910629 239.078014 562.936643S245.933816 567.47565 250.283688 567.47565S258.274241 565.915366 261.205674 562.794799S265.602837 555.938998 265.602837 551.589125C265.602837 550.6435 264.609929 547.522941 262.624113 542.227423S259.64539 530.879905 259.64539 524.071395C259.64539 514.615139 261.631206 500.998118 265.602837 483.220331C275.815603 504.780615 280.921986 520.950827 280.921986 531.730969C280.921986 532.487471 280.638298 534.473287 280.070922 537.688416S279.219858 542.983934 279.219858 543.929551C279.219858 548.468558 280.780142 552.251054 283.900709 555.277069S290.851064 559.816076 295.390071 559.816076C299.739943 559.816076 303.475177 558.255792 306.595745 555.135225S311.276596 548.279423 311.276596 543.929551C311.276596 541.092671 310.851064 538.870459 310.0 537.262884S308.061467 534.284161 306.737589 533.149409S304.089835 530.6435 302.765957 529.035934C301.442079 527.428368 300.35461 524.827905 299.503546 521.234515S298.22695 513.102118 298.22695 507.617494C298.22695 499.295991 298.699765 491.258147 299.64539 483.504019C311.749418 495.797154 317.801418 506.199054 317.801418 514.709693C317.801418 519.059565 317.328604 522.652955 316.382979 525.489835C316.382979 529.839707 317.943262 533.574941 321.06383 536.695508S327.919631 541.376359 332.269504 541.376359C336.808511 541.376359 340.638298 539.816076 343.758865 536.695508S348.439716 529.839707 348.439716 525.489835C348.439716 517.924813 344.089844 512.156501 335.390071 508.18487C334.255319 496.269976 332.269504 485.253437 329.432624 475.135225S325.177305 458.917721 325.177305 456.837352C325.177305 455.135225 321.631206 450.123395 314.539007 441.801891S303.900709 427.712047 303.900709 424.496927ZM250.283688 559.2487C248.203311 559.2487 246.501191 558.586762 245.177305 557.262884S243.191489 554.23687 243.191489 552.156501S243.853427 548.374005 245.177305 547.050118S248.203319 545.064303 250.283688 545.064303C254.822695 545.064303 257.092199 547.428368 257.092199 552.156501C257.092199 554.047755 256.430261 555.7026 255.106383 557.12104S252.17495 559.2487 250.283688 559.2487ZM301.347518 448.610402C301.347518 451.825522 295.72105 454.142317 284.468085 455.560757C273.215121 456.979196 261.82034 457.688416 250.283688 457.688416C239.314411 457.688416 228.014184 456.931914 216.382979 455.418913S198.93617 451.541835 198.93617 448.326714C198.93617 445.678961 201.3948 444.355083 206.312057 444.355083C210.472823 444.355083 217.47044 444.686053 227.304965 445.347991S244.893617 446.340898 250.567376 446.340898C256.43027 446.340898 265.082752 446.009928 276.524823 445.347991C287.966894 444.686053 293.971631 444.355083 294.539007 444.355083C299.078014 444.355083 301.347518 445.773522 301.347518 448.610402Z" fill="#010101" />
<path d="M444.947121 111.87296Q447.579318 110.968142 449.553467 109.610915T454.653349 105.786003Q457.121034 103.729599 459.054054 102.331244T463.207991 99.781303Q465.840188 98.465204 469.459459 97.642643Q478.096357 95.668495 482.044653 92.625016Q486.897767 88.841233 489.571093 83.165557T492.244418 71.0739Q492.244418 62.437002 488.33725 56.021021T478.343126 46.191409T466.0047 42.777778Q458.108108 42.777778 452.021152 46.520433T442.685076 56.391174T439.435958 69.593289Q439.435958 78.80598 444.083431 85.67437T456.380729 95.586238Q457.696827 96.162032 459.753231 96.244288V96.4088Q457.532315 96.655569 455.722679 97.560386Q452.514689 99.123254 447.085781 103.07155Q443.055229 105.950516 440.587544 107.307743T435.73443 108.664969Q434.253819 108.500457 433.554642 107.719023T432.855464 105.786003Q432.855464 103.811855 434.377203 102.125604T438.284371 100.357096Q438.53114 99.040998 437.297297 97.807155T433.59577 96.573312Q432.526439 96.573312 431.169213 97.313618T428.783784 99.534535T427.755582 103.153806Q427.755582 105.621491 429.441833 107.80128T433.719154 111.338295T438.942421 112.777778Q442.314924 112.777778 444.947121 111.87296ZM456.709753 91.185533Q452.925969 87.771902 451.075206 82.096227T449.224442 69.593289Q449.224442 63.259564 451.116334 57.954041T456.833137 49.481656T466.086957 46.314793Q474.312573 46.314793 478.425382 53.265439T482.53819 70.827131Q482.53819 77.243113 480.687427 82.67202T475.135135 91.350046T466.086957 94.599164Q460.493537 94.599164 456.709753 91.185533Z" fill="#010101" />
<path d="M458.907812 163.134676C458.687169 165.429375 458.135556 167.459296 457.252983 169.22445C456.370409 170.989604 455.443704 172.33553 454.472869 173.262234S452.277459 174.983257 450.799146 175.645189C449.320834 176.307121 448.184515 176.737377 447.390197 176.935956S445.625043 177.322083 444.477697 177.498599C444.301181 177.542727 444.168795 177.564792 444.080537 177.564792V178.888656H475.919463V177.564792C472.168513 176.90286 469.322206 175.932024 467.380541 174.652291C463.673722 172.181081 461.577602 168.341876 461.092188 163.134676C463.386887 166.664977 466.343512 168.430131 469.962075 168.430131C472.300899 168.430131 474.297729 167.613751 475.952559 165.980983S478.434804 162.36242 478.434804 160.023596C478.434804 158.0378 477.949387 156.228522 476.978554 154.595754C476.007718 152.962987 474.750047 151.47364 473.205542 150.127714S470.0724 147.380696 468.439632 145.924446C466.806864 144.468196 465.196166 142.559628 463.607529 140.198735S460.805353 135.179087 459.966903 132.222456C459.216716 135.134956 458.058335 137.760621 456.491761 140.099445S453.314488 144.33581 451.659658 145.79206S448.405157 148.660429 446.860651 150.028424S444.047441 152.896793 443.054543 154.529561S441.565196 157.993669 441.565196 160.023596C441.565196 162.36242 442.392611 164.348216 444.047441 165.980983S447.699101 168.430131 450.037925 168.430131C453.656488 168.430131 456.613113 166.664977 458.907812 163.134676Z" fill="#010101" />
<path d="M55.052879 588.12704Q52.420682 589.031858 50.446533 590.389085T45.346651 594.213997Q42.878966 596.270401 40.945946 597.668756T36.792009 600.218697Q34.159812 601.534796 30.540541 602.357357Q21.903643 604.331505 17.955347 607.374984Q13.102233 611.158767 10.428907 616.834443T7.755582 628.9261Q7.755582 637.562998 11.66275 643.978979T21.656874 653.808591T33.9953 657.222222Q41.891892 657.222222 47.978848 653.479567T57.314924 643.608826T60.564042 630.406711Q60.564042 621.19402 55.916569 614.32563T43.619271 604.413762Q42.303173 603.837968 40.246769 603.755712V603.5912Q42.467685 603.344431 44.277321 602.439614Q47.485311 600.876746 52.914219 596.92845Q56.944771 594.049484 59.412456 592.692257T64.26557 591.335031Q65.746181 591.499543 66.445358 592.280977T67.144536 594.213997Q67.144536 596.188145 65.622797 597.874396T61.715629 599.642904Q61.46886 600.959002 62.702703 602.192845T66.40423 603.426688Q67.473561 603.426688 68.830787 602.686382T71.216216 600.465465T72.244418 596.846194Q72.244418 594.378509 70.558167 592.19872T66.280846 588.661705T61.057579 587.222222Q57.685076 587.222222 55.052879 588.12704ZM43.290247 608.814467Q47.074031 612.228098 48.924794 617.903773T50.775558 630.406711Q50.775558 636.740436 48.883666 642.045959T43.166863 650.518344T33.913043 653.685207Q25.687427 653.685207 21.574618 646.734561T17.46181 629.172869Q17.46181 622.756887 19.312573 617.32798T24.864865 608.649954T33.913043 605.400836Q39.506463 605.400836 43.290247 608.814467Z" fill="#010101" />
<path d="M41.092188 536.865324C41.312831 534.570625 41.864444 532.540704 42.747017 530.77555C43.629591 529.010396 44.556296 527.66447 45.527131 526.737766S47.722541 525.016743 49.200854 524.354811C50.679166 523.692879 51.815485 523.262623 52.609803 523.064044S54.374957 522.677917 55.522303 522.501401C55.698819 522.457273 55.831205 522.435208 55.919463 522.435208V521.111344H24.080537V522.435208C27.831487 523.09714 30.677794 524.067976 32.619459 525.347709C36.326278 527.818919 38.422398 531.658124 38.907812 536.865324C36.613113 533.335023 33.656488 531.569869 30.037925 531.569869C27.699101 531.569869 25.702271 532.386249 24.047441 534.019017S21.565196 537.63758 21.565196 539.976404C21.565196 541.9622 22.050613 543.771478 23.021446 545.404246C23.992282 547.037013 25.249953 548.52636 26.794458 549.872286S29.9276 552.619304 31.560368 554.075554C33.193136 555.531804 34.803834 557.440372 36.392471 559.801265S39.194647 564.820913 40.033097 567.777544C40.783284 564.865044 41.941665 562.239379 43.508239 559.900555S46.685512 555.66419 48.340342 554.20794S51.594843 551.339571 53.139349 549.971576S55.952559 547.103207 56.945457 545.470439S58.434804 542.006331 58.434804 539.976404C58.434804 537.63758 57.607389 535.651784 55.952559 534.019017S52.300899 531.569869 49.962075 531.569869C46.343512 531.569869 43.386887 533.335023 41.092188 536.865324Z" fill="#010101" />
</svg>
