<svg width="25.000000" height="35.000000" id="card-lightspade6">
<rect x="0" y="0" rx="1.25" ry="1.25" width="25" height="35.0" stroke="#010101" fill="#fffdfa" />
<path d="M7.382979 6.64539C7.359338 6.891253 7.300236 7.108747 7.205674 7.297872C7.111111 7.486998 7.011821 7.631206 6.907801 7.730496S6.672577 7.914894 6.514184 7.985816C6.355792 8.056738 6.234043 8.102837 6.148936 8.124113S5.959811 8.165485 5.836879 8.184397C5.817967 8.189125 5.803782 8.191489 5.794326 8.191489V8.333333H9.205674V8.191489C8.803782 8.120567 8.498818 8.016548 8.29078 7.879433C7.893617 7.614657 7.66903 7.20331 7.617021 6.64539C7.862884 7.02364 8.179669 7.212766 8.567376 7.212766C8.817967 7.212766 9.031915 7.125296 9.20922 6.950355S9.475177 6.562648 9.475177 6.312057C9.475177 6.099291 9.423168 5.905438 9.319149 5.730496C9.21513 5.555555 9.080378 5.395981 8.914894 5.251773S8.579196 4.957447 8.404255 4.801418C8.229314 4.64539 8.056738 4.440899 7.886525 4.187943S7.586289 3.650118 7.496454 3.333333C7.416076 3.64539 7.291962 3.926714 7.124113 4.177305S6.783688 4.631206 6.606383 4.787234S6.257683 5.094562 6.092199 5.241135S5.79078 5.548463 5.684397 5.723404S5.524823 6.094562 5.524823 6.312057C5.524823 6.562648 5.613475 6.775413 5.79078 6.950355S6.182033 7.212766 6.432624 7.212766C6.820331 7.212766 7.137116 7.02364 7.382979 6.64539Z" fill="#010101" />
<path d="M7.617021 28.35461C7.640662 28.108747 7.699764 27.891253 7.794326 27.702128C7.888889 27.513002 7.988179 27.368794 8.092199 27.269504S8.327423 27.085106 8.485816 27.014184C8.644208 26.943262 8.765957 26.897163 8.851064 26.875887S9.040189 26.834515 9.163121 26.815603C9.182033 26.810875 9.196218 26.808511 9.205674 26.808511V26.666667H5.794326V26.808511C6.196218 26.879433 6.501182 26.983452 6.70922 27.120567C7.106383 27.385343 7.33097 27.79669 7.382979 28.35461C7.137116 27.97636 6.820331 27.787234 6.432624 27.787234C6.182033 27.787234 5.968085 27.874704 5.79078 28.049645S5.524823 28.437352 5.524823 28.687943C5.524823 28.900709 5.576832 29.094562 5.680851 29.269504C5.78487 29.444445 5.919622 29.604019 6.085106 29.748227S6.420804 30.042553 6.595745 30.198582C6.770686 30.35461 6.943262 30.559101 7.113475 30.812057S7.413711 31.349882 7.503546 31.666667C7.583924 31.35461 7.708038 31.073286 7.875887 30.822695S8.216312 30.368794 8.393617 30.212766S8.742317 29.905438 8.907801 29.758865S9.20922 29.451537 9.315603 29.276596S9.475177 28.905438 9.475177 28.687943C9.475177 28.437352 9.386525 28.224587 9.20922 28.049645S8.817967 27.787234 8.567376 27.787234C8.179669 27.787234 7.862884 27.97636 7.617021 28.35461Z" fill="#010101" />
<path d="M7.382979 18.312057C7.359338 18.55792 7.300236 18.775413 7.205674 18.964539C7.111111 19.153665 7.011821 19.297872 6.907801 19.397163S6.672577 19.58156 6.514184 19.652482C6.355792 19.723404 6.234043 19.769504 6.148936 19.79078S5.959811 19.832151 5.836879 19.851064C5.817967 19.855792 5.803782 19.858156 5.794326 19.858156V20.0H9.205674V19.858156C8.803782 19.787234 8.498818 19.683215 8.29078 19.546099C7.893617 19.281324 7.66903 18.869977 7.617021 18.312057C7.862884 18.690307 8.179669 18.879433 8.567376 18.879433C8.817967 18.879433 9.031915 18.791962 9.20922 18.617021S9.475177 18.229314 9.475177 17.978723C9.475177 17.765957 9.423168 17.572104 9.319149 17.397163C9.21513 17.222222 9.080378 17.062648 8.914894 16.91844S8.579196 16.624113 8.404255 16.468085C8.229314 16.312057 8.056738 16.107565 7.886525 15.85461S7.586289 15.316785 7.496454 15.0C7.416076 15.312057 7.291962 15.593381 7.124113 15.843972S6.783688 16.297872 6.606383 16.453901S6.257683 16.761229 6.092199 16.907801S5.79078 17.21513 5.684397 17.390071S5.524823 17.761229 5.524823 17.978723C5.524823 18.229314 5.613475 18.44208 5.79078 18.617021S6.182033 18.879433 6.432624 18.879433C6.820331 18.879433 7.137116 18.690307 7.382979 18.312057Z" fill="#010101" />
<path d="M17.382979 6.64539C17.359338 6.891253 17.300236 7.108747 17.205674 7.297872C17.111111 7.486998 17.011821 7.631206 16.907801 7.730496S16.672577 7.914894 16.514184 7.985816C16.355792 8.056738 16.234043 8.102837 16.148936 8.124113S15.959811 8.165485 15.836879 8.184397C15.817967 8.189125 15.803782 8.191489 15.794326 8.191489V8.333333H19.205674V8.191489C18.803782 8.120567 18.498818 8.016548 18.29078 7.879433C17.893617 7.614657 17.66903 7.20331 17.617021 6.64539C17.862884 7.02364 18.179669 7.212766 18.567376 7.212766C18.817967 7.212766 19.031915 7.125296 19.20922 6.950355S19.475177 6.562648 19.475177 6.312057C19.475177 6.099291 19.423168 5.905438 19.319149 5.730496C19.21513 5.555555 19.080378 5.395981 18.914894 5.251773S18.579196 4.957447 18.404255 4.801418C18.229314 4.64539 18.056738 4.440899 17.886525 4.187943S17.586289 3.650118 17.496454 3.333333C17.416076 3.64539 17.291962 3.926714 17.124113 4.177305S16.783688 4.631206 16.606383 4.787234S16.257683 5.094562 16.092199 5.241135S15.79078 5.548463 15.684397 5.723404S15.524823 6.094562 15.524823 6.312057C15.524823 6.562648 15.613475 6.775413 15.79078 6.950355S16.182033 7.212766 16.432624 7.212766C16.820331 7.212766 17.137116 7.02364 17.382979 6.64539Z" fill="#010101" />
<path d="M17.617021 28.35461C17.640662 28.108747 17.699764 27.891253 17.794326 27.702128C17.888889 27.513002 17.988179 27.368794 18.092199 27.269504S18.327423 27.085106 18.485816 27.014184C18.644208 26.943262 18.765957 26.897163 18.851064 26.875887S19.040189 26.834515 19.163121 26.815603C19.182033 26.810875 19.196218 26.808511 19.205674 26.808511V26.666667H15.794326V26.808511C16.196218 26.879433 16.501182 26.983452 16.70922 27.120567C17.106383 27.385343 17.33097 27.79669 17.382979 28.35461C17.137116 27.97636 16.820331 27.787234 16.432624 27.787234C16.182033 27.787234 15.968085 27.874704 15.79078 28.049645S15.524823 28.437352 15.524823 28.687943C15.524823 28.900709 15.576832 29.094562 15.680851 29.269504C15.78487 29.444445 15.919622 29.604019 16.085106 29.748227S16.420804 30.042553 16.595745 30.198582C16.770686 30.35461 16.943262 30.559101 17.113475 30.812057S17.413711 31.349882 17.503546 31.666667C17.583924 31.35461 17.708038 31.073286 17.875887 30.822695S18.216312 30.368794 18.393617 30.212766S18.742317 29.905438 18.907801 29.758865S19.20922 29.451537 19.315603 29.276596S19.475177 28.905438 19.475177 28.687943C19.475177 28.437352 19.386525 28.224587 19.20922 28.049645S18.817967 27.787234 18.567376 27.787234C18.179669 27.787234 17.862884 27.97636 17.617021 28.35461Z" fill="#010101" />
<path d="M17.382979 18.312057C17.359338 18.55792 17.300236 18.775413 17.205674 18.964539C17.111111 19.153665 17.011821 19.297872 16.907801 19.397163S16.672577 19.58156 16.514184 19.652482C16.355792 19.723404 16.234043 19.769504 16.148936 19.79078S15.959811 19.832151 15.836879 19.851064C15.817967 19.855792 15.803782 19.858156 15.794326 19.858156V20.0H19.205674V19.858156C18.803782 19.787234 18.498818 19.683215 18.29078 19.546099C17.893617 19.281324 17.66903 18.869977 17.617021 18.312057C17.862884 18.690307 18.179669 18.879433 18.567376 18.879433C18.817967 18.879433 19.031915 18.791962 19.20922 18.617021S19.475177 18.229314 19.475177 17.978723C19.475177 17.765957 19.423168 17.572104 19.319149 17.397163C19.21513 17.222222 19.080378 17.062648 18.914894 16.91844S18.579196 16.624113 18.404255 16.468085C18.229314 16.312057 18.056738 16.107565 17.886525 15.85461S17.586289 15.316785 17.496454 15.0C17.416076 15.312057 17.291962 15.593381 17.124113 15.843972S16.783688 16.297872 16.606383 16.453901S16.257683 16.761229 16.092199 16.907801S15.79078 17.21513 15.684397 17.390071S15.524823 17.761229 15.524823 17.978723C15.524823 18.229314 15.613475 18.44208 15.79078 18.617021S16.182033 18.879433 16.432624 18.879433C16.820331 18.879433 17.137116 18.690307 17.382979 18.312057Z" fill="#010101" />
<path d="M23.949367 5.265471Q24.306962 4.892053 24.306962 4.246484Q24.306962 3.733826 24.063291 3.290788T23.376582 2.547117T22.363924 2.145218Q22.332278 2.138889 22.268987 2.138889Q22.142405 2.138889 22.142405 2.252813Q22.142405 2.354079 22.256329 2.385724Q23.414557 2.746484 23.636076 3.683193Q23.427215 3.543952 23.221519 3.48699T22.794304 3.430028Q22.490506 3.430028 22.237342 3.566104T21.838608 3.939522T21.693038 4.480661Q21.693038 4.822433 21.876582 5.085091T22.357595 5.493319T22.990506 5.638889Q23.591772 5.638889 23.949367 5.265471ZM22.496835 5.186357Q22.300633 4.936357 22.300633 4.537623Q22.300633 4.164205 22.496835 3.939522T23.009494 3.714838Q23.167722 3.714838 23.338608 3.793952T23.661392 4.005977Q23.699367 4.157876 23.699367 4.252813Q23.699367 4.505977 23.632911 4.778129T23.405063 5.243319T22.990506 5.436357Q22.693038 5.436357 22.496835 5.186357Z" fill="#010101" />
<path d="M22.945391 8.156734C22.934358 8.271469 22.906778 8.372965 22.862649 8.461222C22.81852 8.54948 22.772185 8.616776 22.723643 8.663112S22.613873 8.749163 22.539957 8.782259C22.466042 8.815356 22.409226 8.836869 22.36951 8.846798S22.281252 8.866104 22.223885 8.87493C22.215059 8.877136 22.20844 8.87824 22.204027 8.87824V8.944433H23.795973V8.87824C23.608426 8.845143 23.46611 8.796601 23.369027 8.732615C23.183686 8.609054 23.07888 8.417094 23.054609 8.156734C23.169344 8.333249 23.317176 8.421507 23.498104 8.421507C23.615045 8.421507 23.714886 8.380688 23.797628 8.299049S23.92174 8.118121 23.92174 8.00118C23.92174 7.90189 23.897469 7.811426 23.848928 7.729788C23.800386 7.648149 23.737502 7.573682 23.660277 7.506386S23.50362 7.369035 23.421982 7.296222C23.340343 7.22341 23.259808 7.127981 23.180376 7.009937S23.040268 6.758954 22.998345 6.611123C22.960836 6.756748 22.902917 6.888031 22.824588 7.004972S22.665724 7.21679 22.582983 7.289603S22.420258 7.433021 22.343033 7.501421S22.202372 7.64484 22.152727 7.726478S22.07826 7.899683 22.07826 8.00118C22.07826 8.118121 22.119631 8.217411 22.202372 8.299049S22.384955 8.421507 22.501896 8.421507C22.682824 8.421507 22.830656 8.333249 22.945391 8.156734Z" fill="#010101" />
<path d="M1.050633 29.734529Q0.693038 30.107947 0.693038 30.753516Q0.693038 31.266174 0.936709 31.709212T1.623418 32.452883T2.636076 32.854782Q2.667722 32.861111 2.731013 32.861111Q2.857595 32.861111 2.857595 32.747187Q2.857595 32.645921 2.743671 32.614276Q1.585443 32.253516 1.363924 31.316807Q1.572785 31.456048 1.778481 31.51301T2.205696 31.569972Q2.509494 31.569972 2.762658 31.433896T3.161392 31.060478T3.306962 30.519339Q3.306962 30.177567 3.123418 29.914909T2.642405 29.506681T2.009494 29.361111Q1.408228 29.361111 1.050633 29.734529ZM2.503165 29.813643Q2.699367 30.063643 2.699367 30.462377Q2.699367 30.835795 2.503165 31.060478T1.990506 31.285162Q1.832278 31.285162 1.661392 31.206048T1.338608 30.994023Q1.300633 30.842124 1.300633 30.747187Q1.300633 30.494023 1.367089 30.221871T1.594937 29.756681T2.009494 29.563643Q2.306962 29.563643 2.503165 29.813643Z" fill="#010101" />
<path d="M2.054609 26.843266C2.065642 26.728531 2.093222 26.627035 2.137351 26.538778C2.18148 26.45052 2.227815 26.383224 2.276357 26.336888S2.386127 26.250837 2.460043 26.217741C2.533958 26.184644 2.590774 26.163131 2.63049 26.153202S2.718748 26.133896 2.776115 26.12507C2.784941 26.122864 2.79156 26.12176 2.795973 26.12176V26.055567H1.204027V26.12176C1.391574 26.154857 1.53389 26.203399 1.630973 26.267385C1.816314 26.390946 1.92112 26.582906 1.945391 26.843266C1.830656 26.666751 1.682824 26.578493 1.501896 26.578493C1.384955 26.578493 1.285114 26.619312 1.202372 26.700951S1.07826 26.881879 1.07826 26.99882C1.07826 27.09811 1.102531 27.188574 1.151072 27.270212C1.199614 27.351851 1.262498 27.426318 1.339723 27.493614S1.49638 27.630965 1.578018 27.703778C1.659657 27.77659 1.740192 27.872019 1.819624 27.990063S1.959732 28.241046 2.001655 28.388877C2.039164 28.243252 2.097083 28.111969 2.175412 27.995028S2.334276 27.78321 2.417017 27.710397S2.579742 27.566979 2.656967 27.498579S2.797628 27.35516 2.847273 27.273522S2.92174 27.100317 2.92174 26.99882C2.92174 26.881879 2.880369 26.782589 2.797628 26.700951S2.615045 26.578493 2.498104 26.578493C2.317176 26.578493 2.169344 26.666751 2.054609 26.843266Z" fill="#010101" />
</svg>
