<svg width="150.000000" height="210.000000" id="card-webheart1">
<radialGradient id="card-webwhitegradient" cx="75.0" cy="105.0" r="150" gradientTransform="matrix(1 0 0 1 0 -.25)" gradientUnits="userSpaceOnUse">
<stop stop-color="#FDFAF4" offset=".15"/>
<stop stop-color="#FDF9F2" offset=".35"/>
<stop stop-color="#FCF7F1" offset=".5"/>
<stop stop-color="#FDFDF8" offset=".75"/>
<stop stop-color="#FFFDFA" offset="1"/>
</radialGradient>
<rect x="0" y="0" rx="7.5" ry="7.5" width="150" height="210.0" stroke="#010101" fill="url(#card-webwhitegradient)" />
<path d="M99.693593 86.866295C99.693593 87.980499 99.331477 88.997214 98.607242 89.916435S97.520891 91.37883 97.520891 91.545961C97.520891 92.214485 97.896936 92.869078 98.649025 93.509749S100.167134 94.470752 100.947075 94.470752C101.78273 94.470752 102.479106 94.13649 103.036212 93.467967S103.871866 91.991641 103.871866 91.044568C103.871866 87.70195 102.298053 84.428967 99.150418 81.225627C96.002783 78.022287 92.785513 76.420613 89.498607 76.420613C86.545964 76.420613 83.25905 77.924791 79.637883 80.933148V78.342618C77.74373 76.22563 75.849585 75.167131 73.955432 75.167131C71.949861 75.167131 70.264621 75.974931 68.899721 77.590529S66.852368 81.211696 66.852368 83.607242C66.852368 84.721446 67.103064 86.309189 67.604457 88.370474C64.651813 90.320331 61.782727 91.295265 58.997214 91.295265C57.381618 91.295265 55.974928 90.738161 54.777159 89.623955S52.980501 87.200557 52.980501 85.696379C52.980501 84.303618 53.454039 83.286911 54.401114 82.64624S55.821727 81.323123 55.821727 80.598886C55.821727 78.98329 55.376045 77.646242 54.48468 76.587744S52.479109 75.0 51.142061 75.0C49.693596 75.0 48.495819 75.515321 47.548747 76.545961S46.128134 78.871864 46.128134 80.431755C46.128134 83.941504 47.938721 86.894148 51.559889 89.289694C55.181056 91.68524 58.746518 92.883008 62.256267 92.883008C63.537602 92.883008 65.571033 92.270195 68.356546 91.044568C69.08078 92.883008 70.779944 96.504175 73.454039 101.908078C73.62117 101.072423 73.704735 100.515318 73.704735 100.236769C73.704735 99.846796 73.690808 99.582173 73.662953 99.442897S73.537604 99.02507 73.370474 98.607242S73.008357 97.757657 72.785515 97.311978S72.186629 96.002783 71.657382 94.721448S70.529248 91.991641 69.860724 90.376045C70.696379 89.986072 72.743733 88.760448 76.002786 86.699164S82.33983 82.869084 85.236769 81.392758C88.133708 79.916432 90.334262 79.178273 91.83844 79.178273C93.955429 79.178273 95.793869 79.94429 97.35376 81.476323C98.913652 83.008354 99.693593 84.805011 99.693593 86.866295ZM69.108635 87.618384C68.718663 86.281337 68.523677 85.194986 68.523677 84.359331C68.523677 82.632309 69.02507 81.114209 70.027855 79.805014S72.172705 77.841226 73.454039 77.841226C74.178273 77.841226 74.818939 78.133705 75.376045 78.718663S76.211699 79.986075 76.211699 80.766017C76.211699 81.991646 75.45961 83.272981 73.955432 84.610028S70.835657 86.949861 69.108635 87.618384ZM73.62117 104.331476C70.612813 99.094705 66.935933 96.476323 62.590529 96.476323C60.027852 96.476323 57.827298 97.506961 55.988858 99.568245S53.231198 104.108632 53.231198 107.005571C53.231198 109.233986 53.732591 111.225627 54.735376 112.980501S56.977713 116.128136 58.454039 117.158774S61.532031 119.192198 63.259053 120.167131C64.986075 121.142064 66.587741 121.977719 68.064067 122.674095C69.540393 123.370473 70.779944 124.220056 71.78273 125.222841S73.286908 127.311978 73.286908 128.481894C73.286908 129.763228 72.799443 130.835657 71.824513 131.699164S69.665741 132.994429 68.272981 132.994429C64.540387 132.994429 62.311981 130.431752 61.587744 125.306407C61.03064 124.582172 60.278549 124.220056 59.331476 124.220056C58.272978 124.220056 57.409471 124.512535 56.740947 125.097493S55.738162 126.448471 55.738162 127.395543C55.738162 129.456827 57.075209 131.239554 59.749304 132.743733S65.543173 135.0 69.108635 135.0C75.961003 135.0 81.935933 132.465184 87.033426 127.395543C92.130919 122.325903 94.679666 116.364903 94.679666 109.512535C94.679666 105.111418 93.607245 101.47632 91.462396 98.607242S86.601669 94.303621 83.314763 94.303621C77.855156 94.303621 75.125348 97.451256 75.125348 103.746518Z" fill="#da0a0a" />
<path d="M148.359165 33.144809Q148.5 32.941381 148.5 32.659712Q148.468703 32.190263 148.312221 32.096374T147.936662 32.002484H147.654993Q146.716095 32.002484 146.277943 31.517387T145.57377 30.422007T145.21386 29.592648L139.73696 16.635867Q139.54918 16.166418 139.54918 15.884749Q139.54918 15.321411 139.987332 15.071038T141.207899 14.664183Q141.73994 14.570293 141.865127 14.476403T141.990313 13.944362Q141.990313 13.568803 141.786885 13.443616T141.145306 13.31843Q139.580477 13.31843 138.657228 13.553154T137.045455 14.492052T135.762295 16.635867L130.504471 29.592648Q130.035022 30.781918 129.59687 31.376552T128.282414 32.002484H128.094635Q127.781669 32.002484 127.656483 32.112022T127.5 32.659712Q127.5 32.941381 127.640835 33.144809T128.063338 33.348236Q130.066319 33.254347 131.505961 33.254347Q133.383756 33.254347 135.386736 33.348236Q135.668405 33.348236 135.80924 33.144809T135.950075 32.659712Q135.918778 32.22156 135.793592 32.112022T135.35544 32.002484Q134.291356 32.002484 133.853204 31.799056T133.415052 31.063587Q133.415052 30.656731 133.790611 29.592648L134.854694 26.995032H142.584948Q143.367362 28.93542 143.4769 29.248385T143.586438 29.592648Q143.961997 30.781918 143.961997 31.12618Q143.961997 31.658222 143.492548 31.830353T141.708644 32.002484H141.520864Q141.207899 32.002484 141.082712 32.112022T140.92623 32.659712Q140.92623 32.941381 141.067064 33.144809T141.489568 33.348236Q143.492548 33.254347 144.900894 33.254347Q145.902385 33.254347 147.936662 33.348236Q148.218331 33.348236 148.359165 33.144809ZM141.990313 25.64928H135.418033L138.578987 17.606061H138.672876Z" fill="#da0a0a" />
<path d="M137.980502 42.474508C137.720523 41.512587 137.301308 40.804143 136.722854 40.349181S135.504203 39.666737 134.80226 39.666737C134.009324 39.666737 133.33013 39.939714 132.764676 40.48567S131.916495 41.688073 131.916495 42.45501C131.916495 43.156952 132.088731 43.871895 132.433203 44.599835S133.21314 46.029718 133.739597 46.705663S134.80226 48.060803 135.348216 48.743248S136.417378 50.202378 136.917838 51.073308S137.772518 52.808667 137.980502 53.666597C138.214483 52.76967 138.588203 51.869492 139.10166 50.966067S140.144825 49.263206 140.690781 48.567762C141.236736 47.872318 141.769692 47.189873 142.289651 46.520429S143.238574 45.178289 143.576546 44.502343S144.083505 43.18295 144.083505 42.572C144.083505 41.753067 143.807276 41.064124 143.254822 40.505168C142.702368 39.946213 142.023172 39.666737 141.217238 39.666737C139.670365 39.666737 138.591445 40.60266 137.980502 42.474508Z" fill="#da0a0a" />
<path d="M1.640835 176.855191Q1.5 177.058619 1.5 177.340288Q1.531297 177.809737 1.687779 177.903626T2.063338 177.997516H2.345007Q3.283905 177.997516 3.722057 178.482613T4.42623 179.577993T4.78614 180.407352L10.26304 193.364133Q10.45082 193.833582 10.45082 194.115251Q10.45082 194.678589 10.012668 194.928962T8.792101 195.335817Q8.26006 195.429707 8.134873 195.523597T8.009687 196.055638Q8.009687 196.431197 8.213115 196.556384T8.854694 196.68157Q10.419523 196.68157 11.342772 196.446846T12.954545 195.507948T14.237705 193.364133L19.495529 180.407352Q19.964978 179.218082 20.40313 178.623448T21.717586 177.997516H21.905365Q22.218331 177.997516 22.343517 177.887978T22.5 177.340288Q22.5 177.058619 22.359165 176.855191T21.936662 176.651764Q19.933681 176.745653 18.494039 176.745653Q16.616244 176.745653 14.613264 176.651764Q14.331595 176.651764 14.19076 176.855191T14.049925 177.340288Q14.081222 177.77844 14.206408 177.887978T14.64456 177.997516Q15.708644 177.997516 16.146796 178.200944T16.584948 178.936413Q16.584948 179.343269 16.209389 180.407352L15.145306 183.004968H7.415052Q6.632638 181.06458 6.5231 180.751615T6.413562 180.407352Q6.038003 179.218082 6.038003 178.87382Q6.038003 178.341778 6.507452 178.169647T8.291356 177.997516H8.479136Q8.792101 177.997516 8.917288 177.887978T9.07377 177.340288Q9.07377 177.058619 8.932936 176.855191T8.510432 176.651764Q6.507452 176.745653 5.099106 176.745653Q4.097615 176.745653 2.063338 176.651764Q1.781669 176.651764 1.640835 176.855191ZM8.009687 184.35072H14.581967L11.421013 192.393939H11.327124Z" fill="#da0a0a" />
<path d="M12.019498 167.525492C12.279477 168.487413 12.698692 169.195857 13.277146 169.650819S14.495797 170.333263 15.19774 170.333263C15.990676 170.333263 16.66987 170.060286 17.235324 169.51433S18.083505 168.311927 18.083505 167.54499C18.083505 166.843048 17.911269 166.128105 17.566797 165.400165S16.78686 163.970282 16.260403 163.294337S15.19774 161.939197 14.651784 161.256752S13.582622 159.797622 13.082162 158.926692S12.227482 157.191333 12.019498 156.333403C11.785517 157.23033 11.411797 158.130508 10.89834 159.033933S9.855175 160.736794 9.309219 161.432238C8.763264 162.127682 8.230308 162.810127 7.710349 163.479571S6.761426 164.821711 6.423454 165.497657S5.916495 166.81705 5.916495 167.428C5.916495 168.246933 6.192724 168.935876 6.745178 169.494832C7.297632 170.053787 7.976828 170.333263 8.782762 170.333263C10.329635 170.333263 11.408555 169.39734 12.019498 167.525492Z" fill="#da0a0a" />
</svg>
