<svg width="500.000000" height="700.000000" id="card-realheart10">
<radialGradient id="card-realwhitegradient" cx="250.0" cy="350.0" r="500" gradientTransform="matrix(1 0 0 1 0 -.25)" gradientUnits="userSpaceOnUse">
<stop stop-color="#FDFAF4" offset=".15"/>
<stop stop-color="#FDF9F2" offset=".35"/>
<stop stop-color="#FCF7F1" offset=".5"/>
<stop stop-color="#FDFDF8" offset=".75"/>
<stop stop-color="#FFFDFA" offset="1"/>
</radialGradient>
<rect x="0" y="0" rx="25.0" ry="25.0" width="500" height="700.0" stroke="#010101" fill="url(#card-realwhitegradient)" />
<path d="M149.860724 86.722377C148.003719 79.851444 145.00929 74.791082 140.877437 71.541318S132.172702 66.666667 127.158774 66.666667C121.494889 66.666667 116.643454 68.616527 112.604457 72.516249S106.545961 81.104926 106.545961 86.583101C106.545961 91.597029 107.77623 96.703812 110.236769 101.903435S115.807799 112.116987 119.568245 116.945218S127.158774 126.624884 131.058496 131.499536S138.695446 141.922001 142.270195 148.14299S148.375111 160.538533 149.860724 166.666667C151.532033 160.259981 154.20149 153.830079 157.869081 147.376973S165.320334 135.213561 169.220056 130.246054C173.119777 125.278547 176.926643 120.403895 180.640669 115.622098S187.41876 106.035288 189.832869 101.207057S193.454039 91.782725 193.454039 87.418756C193.454039 81.569174 191.480961 76.648101 187.534819 72.655525C183.588677 68.662948 178.737228 66.666667 172.980501 66.666667C161.931295 66.666667 154.224652 73.351903 149.860724 86.722377Z" fill="#da0a0a" />
<path d="M150.139276 613.277623C151.996281 620.148556 154.99071 625.208918 159.122563 628.458682S167.827298 633.333333 172.841226 633.333333C178.505111 633.333333 183.356546 631.383473 187.395543 627.483751S193.454039 618.895074 193.454039 613.416899C193.454039 608.402971 192.22377 603.296188 189.763231 598.096565S184.192201 587.883013 180.431755 583.054782S172.841226 573.375116 168.941504 568.500464S161.304554 558.077999 157.729805 551.85701S151.624889 539.461467 150.139276 533.333333C148.467967 539.740019 145.79851 546.169921 142.130919 552.623027S134.679666 564.786439 130.779944 569.753946C126.880223 574.721453 123.073357 579.596105 119.359331 584.377902S112.58124 593.964712 110.167131 598.792943S106.545961 608.217275 106.545961 612.581244C106.545961 618.430826 108.519039 623.351899 112.465181 627.344475C116.411323 631.337052 121.262772 633.333333 127.019499 633.333333C138.068705 633.333333 145.775348 626.648097 150.139276 613.277623Z" fill="#da0a0a" />
<path d="M149.860724 242.277933C148.003719 235.406999 145.00929 230.346637 140.877437 227.096874S132.172702 222.222222 127.158774 222.222222C121.494889 222.222222 116.643454 224.172083 112.604457 228.071804S106.545961 236.660481 106.545961 242.138657C106.545961 247.152584 107.77623 252.259367 110.236769 257.458991S115.807799 267.672543 119.568245 272.500774S127.158774 282.180439 131.058496 287.055091S138.695446 297.477556 142.270195 303.698545S148.375111 316.094089 149.860724 322.222222C151.532033 315.815537 154.20149 309.385634 157.869081 302.932529S165.320334 290.769116 169.220056 285.801609C173.119777 280.834102 176.926643 275.959451 180.640669 271.177654S187.41876 261.590843 189.832869 256.762612S193.454039 247.338281 193.454039 242.974311C193.454039 237.124729 191.480961 232.203657 187.534819 228.21108C183.588677 224.218504 178.737228 222.222222 172.980501 222.222222C161.931295 222.222222 154.224652 228.907459 149.860724 242.277933Z" fill="#da0a0a" />
<path d="M150.139276 457.722067C151.996281 464.593001 154.99071 469.653363 159.122563 472.903126S167.827298 477.777778 172.841226 477.777778C178.505111 477.777778 183.356546 475.827917 187.395543 471.928196S193.454039 463.339519 193.454039 457.861343C193.454039 452.847416 192.22377 447.740633 189.763231 442.541009S184.192201 432.327457 180.431755 427.499226S172.841226 417.819561 168.941504 412.944909S161.304554 402.522444 157.729805 396.301455S151.624889 383.905911 150.139276 377.777778C148.467967 384.184463 145.79851 390.614366 142.130919 397.067471S134.679666 409.230884 130.779944 414.198391C126.880223 419.165898 123.073357 424.040549 119.359331 428.822346S112.58124 438.409157 110.167131 443.237388S106.545961 452.661719 106.545961 457.025689C106.545961 462.875271 108.519039 467.796343 112.465181 471.78892C116.411323 475.781496 121.262772 477.777778 127.019499 477.777778C138.068705 477.777778 145.775348 471.092541 150.139276 457.722067Z" fill="#da0a0a" />
<path d="M349.860724 86.722377C348.003719 79.851444 345.00929 74.791082 340.877437 71.541318S332.172702 66.666667 327.158774 66.666667C321.494889 66.666667 316.643454 68.616527 312.604457 72.516249S306.545961 81.104926 306.545961 86.583101C306.545961 91.597029 307.77623 96.703812 310.236769 101.903435S315.807799 112.116987 319.568245 116.945218S327.158774 126.624884 331.058496 131.499536S338.695446 141.922001 342.270195 148.14299S348.375111 160.538533 349.860724 166.666667C351.532033 160.259981 354.20149 153.830079 357.869081 147.376973S365.320334 135.213561 369.220056 130.246054C373.119777 125.278547 376.926643 120.403895 380.640669 115.622098S387.41876 106.035288 389.832869 101.207057S393.454039 91.782725 393.454039 87.418756C393.454039 81.569174 391.480961 76.648101 387.534819 72.655525C383.588677 68.662948 378.737228 66.666667 372.980501 66.666667C361.931295 66.666667 354.224652 73.351903 349.860724 86.722377Z" fill="#da0a0a" />
<path d="M350.139276 613.277623C351.996281 620.148556 354.99071 625.208918 359.122563 628.458682S367.827298 633.333333 372.841226 633.333333C378.505111 633.333333 383.356546 631.383473 387.395543 627.483751S393.454039 618.895074 393.454039 613.416899C393.454039 608.402971 392.22377 603.296188 389.763231 598.096565S384.192201 587.883013 380.431755 583.054782S372.841226 573.375116 368.941504 568.500464S361.304554 558.077999 357.729805 551.85701S351.624889 539.461467 350.139276 533.333333C348.467967 539.740019 345.79851 546.169921 342.130919 552.623027S334.679666 564.786439 330.779944 569.753946C326.880223 574.721453 323.073357 579.596105 319.359331 584.377902S312.58124 593.964712 310.167131 598.792943S306.545961 608.217275 306.545961 612.581244C306.545961 618.430826 308.519039 623.351899 312.465181 627.344475C316.411323 631.337052 321.262772 633.333333 327.019499 633.333333C338.068705 633.333333 345.775348 626.648097 350.139276 613.277623Z" fill="#da0a0a" />
<path d="M349.860724 242.277933C348.003719 235.406999 345.00929 230.346637 340.877437 227.096874S332.172702 222.222222 327.158774 222.222222C321.494889 222.222222 316.643454 224.172083 312.604457 228.071804S306.545961 236.660481 306.545961 242.138657C306.545961 247.152584 307.77623 252.259367 310.236769 257.458991S315.807799 267.672543 319.568245 272.500774S327.158774 282.180439 331.058496 287.055091S338.695446 297.477556 342.270195 303.698545S348.375111 316.094089 349.860724 322.222222C351.532033 315.815537 354.20149 309.385634 357.869081 302.932529S365.320334 290.769116 369.220056 285.801609C373.119777 280.834102 376.926643 275.959451 380.640669 271.177654S387.41876 261.590843 389.832869 256.762612S393.454039 247.338281 393.454039 242.974311C393.454039 237.124729 391.480961 232.203657 387.534819 228.21108C383.588677 224.218504 378.737228 222.222222 372.980501 222.222222C361.931295 222.222222 354.224652 228.907459 349.860724 242.277933Z" fill="#da0a0a" />
<path d="M350.139276 457.722067C351.996281 464.593001 354.99071 469.653363 359.122563 472.903126S367.827298 477.777778 372.841226 477.777778C378.505111 477.777778 383.356546 475.827917 387.395543 471.928196S393.454039 463.339519 393.454039 457.861343C393.454039 452.847416 392.22377 447.740633 389.763231 442.541009S384.192201 432.327457 380.431755 427.499226S372.841226 417.819561 368.941504 412.944909S361.304554 402.522444 357.729805 396.301455S351.624889 383.905911 350.139276 377.777778C348.467967 384.184463 345.79851 390.614366 342.130919 397.067471S334.679666 409.230884 330.779944 414.198391C326.880223 419.165898 323.073357 424.040549 319.359331 428.822346S312.58124 438.409157 310.167131 443.237388S306.545961 452.661719 306.545961 457.025689C306.545961 462.875271 308.519039 467.796343 312.465181 471.78892C316.411323 475.781496 321.262772 477.777778 327.019499 477.777778C338.068705 477.777778 345.775348 471.092541 350.139276 457.722067Z" fill="#da0a0a" />
<path d="M249.860724 164.500155C248.003719 157.629222 245.00929 152.568859 240.877437 149.319096S232.172702 144.444444 227.158774 144.444444C221.494889 144.444444 216.643454 146.394305 212.604457 150.294027S206.545961 158.882703 206.545961 164.360879C206.545961 169.374807 207.77623 174.481589 210.236769 179.681213S215.807799 189.894765 219.568245 194.722996S227.158774 204.402662 231.058496 209.277314S238.695446 219.699779 242.270195 225.920768S248.375111 238.316311 249.860724 244.444444C251.532033 238.037759 254.20149 231.607857 257.869081 225.154751S265.320334 212.991339 269.220056 208.023832C273.119777 203.056325 276.926643 198.181673 280.640669 193.399876S287.41876 183.813066 289.832869 178.984834S293.454039 169.560503 293.454039 165.196534C293.454039 159.346951 291.480961 154.425879 287.534819 150.433302C283.588677 146.440726 278.737228 144.444444 272.980501 144.444444C261.931295 144.444444 254.224652 151.129681 249.860724 164.500155Z" fill="#da0a0a" />
<path d="M249.860724 475.611266C248.003719 468.740333 245.00929 463.679971 240.877437 460.430207S232.172702 455.555556 227.158774 455.555556C221.494889 455.555556 216.643454 457.505416 212.604457 461.405138S206.545961 469.993815 206.545961 475.47199C206.545961 480.485918 207.77623 485.5927 210.236769 490.792324S215.807799 501.005876 219.568245 505.834107S227.158774 515.513773 231.058496 520.388425S238.695446 530.81089 242.270195 537.031879S248.375111 549.427422 249.860724 555.555556C251.532033 549.14887 254.20149 542.718968 257.869081 536.265862S265.320334 524.10245 269.220056 519.134943C273.119777 514.167436 276.926643 509.292784 280.640669 504.510987S287.41876 494.924177 289.832869 490.095946S293.454039 480.671614 293.454039 476.307645C293.454039 470.458063 291.480961 465.53699 287.534819 461.544413C283.588677 457.551837 278.737228 455.555556 272.980501 455.555556C261.931295 455.555556 254.224652 462.240792 249.860724 475.611266Z" fill="#da0a0a" />
<path d="M494.511942 108.959596Q494.427094 107.432323 494.130127 106.923232T493.154379 106.414141Q488.402912 106.414141 486.408992 105.841414T483.439325 102.850505T482.463577 94.705051V68.232323Q482.37873 62.250505 482.845392 59.641414T484.49992 56.268687T488.402912 55.505051H492.560446Q494.087703 55.505051 494.087703 52.450505Q494.002856 50.541414 493.578618 50.09596T492.518022 49.650505H491.627122Q488.063521 49.650505 484.669616 47.932323T477.287871 43.79596Q476.778786 43.541414 476.439395 43.541414Q475.081833 43.541414 475.081833 46.468687V94.705051Q475.081833 100.305051 474.190933 102.723232T471.390961 105.777778T465.239507 106.414141H464.391031Q463.71225 106.414141 463.415283 106.923232T463.033468 108.959596Q463.033468 112.014141 464.560726 112.014141Q470.669756 111.632323 478.815129 111.632323Q486.875654 111.632323 492.984684 112.014141Q494.511942 112.014141 494.511942 108.959596ZM456.83926 107.941414Q461.378609 103.105051 463.627071 95.086869T465.875533 77.650505Q465.875533 68.105051 463.627071 60.214141T456.83926 47.550505T445.681796 42.777778Q439.403071 42.777778 434.821298 47.614141T427.863792 60.468687T425.488058 77.650505T427.863792 94.832323T434.821298 107.814141T445.681796 112.777778Q452.299912 112.777778 456.83926 107.941414ZM436.772794 100.177778Q433.633432 92.286869 433.633432 77.650505T436.772794 55.250505T445.596948 47.486869Q451.451435 47.486869 454.590798 55.186869T457.73016 77.650505T454.590798 100.241414T445.596948 108.068687Q439.912157 108.068687 436.772794 100.177778Z" fill="#da0a0a" />
<path d="M459.935005 141.581693C459.068411 138.37529 457.671025 136.013811 455.742847 134.49727S451.680677 132.222456 449.340868 132.222456C446.697748 132.222456 444.433768 133.132381 442.548921 134.952233S439.721651 138.960242 439.721651 141.516699C439.721651 143.856508 440.295771 146.23965 441.444011 148.666117S444.043799 153.432393 445.798656 155.685545S449.340868 160.202677 451.16072 162.477492S454.724594 167.34126 456.392794 170.244359S459.241726 176.028888 459.935005 178.888656C460.714942 175.898899 461.960676 172.898308 463.672201 169.886889S467.149418 164.210686 468.96927 161.89254C470.789121 159.574393 472.565641 157.299578 474.298836 155.068095S477.461914 150.594295 478.588486 148.341143S480.278349 143.943166 480.278349 141.906667C480.278349 139.176889 479.357588 136.880412 477.516074 135.017228C475.674559 133.154044 473.410572 132.222456 470.724127 132.222456C465.567882 132.222456 461.971484 135.342202 459.935005 141.581693Z" fill="#da0a0a" />
<path d="M5.488058 591.040404Q5.572906 592.567677 5.869873 593.076768T6.845621 593.585859Q11.597088 593.585859 13.591008 594.158586T16.560675 597.149495T17.536423 605.294949V631.767677Q17.62127 637.749495 17.154608 640.358586T15.50008 643.731313T11.597088 644.494949H7.439554Q5.912297 644.494949 5.912297 647.549495Q5.997144 649.458586 6.421382 649.90404T7.481978 650.349495H8.372878Q11.936479 650.349495 15.330384 652.067677T22.712129 656.20404Q23.221214 656.458586 23.560605 656.458586Q24.918167 656.458586 24.918167 653.531313V605.294949Q24.918167 599.694949 25.809067 597.276768T28.609039 594.222222T34.760493 593.585859H35.608969Q36.28775 593.585859 36.584717 593.076768T36.966532 591.040404Q36.966532 587.985859 35.439274 587.985859Q29.330244 588.367677 21.184871 588.367677Q13.124346 588.367677 7.015316 587.985859Q5.488058 587.985859 5.488058 591.040404ZM43.16074 592.058586Q38.621391 596.894949 36.372929 604.913131T34.124467 622.349495Q34.124467 631.894949 36.372929 639.785859T43.16074 652.449495T54.318204 657.222222Q60.596929 657.222222 65.178702 652.385859T72.136208 639.531313T74.511942 622.349495T72.136208 605.167677T65.178702 592.185859T54.318204 587.222222Q47.700088 587.222222 43.16074 592.058586ZM63.227206 599.822222Q66.366568 607.713131 66.366568 622.349495T63.227206 644.749495T54.403052 652.513131Q48.548565 652.513131 45.409202 644.813131T42.26984 622.349495T45.409202 599.758586T54.403052 591.931313Q60.087843 591.931313 63.227206 599.822222Z" fill="#da0a0a" />
<path d="M40.064995 558.418307C40.931589 561.62471 42.328975 563.986189 44.257153 565.50273S48.319323 567.777544 50.659132 567.777544C53.302252 567.777544 55.566232 566.867619 57.451079 565.047767S60.278349 561.039758 60.278349 558.483301C60.278349 556.143492 59.704229 553.76035 58.555989 551.333883S55.956201 546.567607 54.201344 544.314455S50.659132 539.797323 48.83928 537.522508S45.275406 532.65874 43.607206 529.755641S40.758274 523.971112 40.064995 521.111344C39.285058 524.101101 38.039324 527.101692 36.327799 530.113111S32.850582 535.789314 31.03073 538.10746C29.210879 540.425607 27.434359 542.700422 25.701164 544.931905S22.538086 549.405705 21.411514 551.658857S19.721651 556.056834 19.721651 558.093333C19.721651 560.823111 20.642412 563.119588 22.483926 564.982772C24.325441 566.845956 26.589428 567.777544 29.275873 567.777544C34.432118 567.777544 38.028516 564.657798 40.064995 558.418307Z" fill="#da0a0a" />
</svg>
