<svg width="25.000000" height="35.000000" id="card-lightspade4">
<rect x="0" y="0" rx="1.25" ry="1.25" width="25" height="35.0" stroke="#010101" fill="#fffdfa" />
<path d="M7.382979 6.64539C7.359338 6.891253 7.300236 7.108747 7.205674 7.297872C7.111111 7.486998 7.011821 7.631206 6.907801 7.730496S6.672577 7.914894 6.514184 7.985816C6.355792 8.056738 6.234043 8.102837 6.148936 8.124113S5.959811 8.165485 5.836879 8.184397C5.817967 8.189125 5.803782 8.191489 5.794326 8.191489V8.333333H9.205674V8.191489C8.803782 8.120567 8.498818 8.016548 8.29078 7.879433C7.893617 7.614657 7.66903 7.20331 7.617021 6.64539C7.862884 7.02364 8.179669 7.212766 8.567376 7.212766C8.817967 7.212766 9.031915 7.125296 9.20922 6.950355S9.475177 6.562648 9.475177 6.312057C9.475177 6.099291 9.423168 5.905438 9.319149 5.730496C9.21513 5.555555 9.080378 5.395981 8.914894 5.251773S8.579196 4.957447 8.404255 4.801418C8.229314 4.64539 8.056738 4.440899 7.886525 4.187943S7.586289 3.650118 7.496454 3.333333C7.416076 3.64539 7.291962 3.926714 7.124113 4.177305S6.783688 4.631206 6.606383 4.787234S6.257683 5.094562 6.092199 5.241135S5.79078 5.548463 5.684397 5.723404S5.524823 6.094562 5.524823 6.312057C5.524823 6.562648 5.613475 6.775413 5.79078 6.950355S6.182033 7.212766 6.432624 7.212766C6.820331 7.212766 7.137116 7.02364 7.382979 6.64539Z" fill="#010101" />
<path d="M7.617021 28.35461C7.640662 28.108747 7.699764 27.891253 7.794326 27.702128C7.888889 27.513002 7.988179 27.368794 8.092199 27.269504S8.327423 27.085106 8.485816 27.014184C8.644208 26.943262 8.765957 26.897163 8.851064 26.875887S9.040189 26.834515 9.163121 26.815603C9.182033 26.810875 9.196218 26.808511 9.205674 26.808511V26.666667H5.794326V26.808511C6.196218 26.879433 6.501182 26.983452 6.70922 27.120567C7.106383 27.385343 7.33097 27.79669 7.382979 28.35461C7.137116 27.97636 6.820331 27.787234 6.432624 27.787234C6.182033 27.787234 5.968085 27.874704 5.79078 28.049645S5.524823 28.437352 5.524823 28.687943C5.524823 28.900709 5.576832 29.094562 5.680851 29.269504C5.78487 29.444445 5.919622 29.604019 6.085106 29.748227S6.420804 30.042553 6.595745 30.198582C6.770686 30.35461 6.943262 30.559101 7.113475 30.812057S7.413711 31.349882 7.503546 31.666667C7.583924 31.35461 7.708038 31.073286 7.875887 30.822695S8.216312 30.368794 8.393617 30.212766S8.742317 29.905438 8.907801 29.758865S9.20922 29.451537 9.315603 29.276596S9.475177 28.905438 9.475177 28.687943C9.475177 28.437352 9.386525 28.224587 9.20922 28.049645S8.817967 27.787234 8.567376 27.787234C8.179669 27.787234 7.862884 27.97636 7.617021 28.35461Z" fill="#010101" />
<path d="M17.382979 6.64539C17.359338 6.891253 17.300236 7.108747 17.205674 7.297872C17.111111 7.486998 17.011821 7.631206 16.907801 7.730496S16.672577 7.914894 16.514184 7.985816C16.355792 8.056738 16.234043 8.102837 16.148936 8.124113S15.959811 8.165485 15.836879 8.184397C15.817967 8.189125 15.803782 8.191489 15.794326 8.191489V8.333333H19.205674V8.191489C18.803782 8.120567 18.498818 8.016548 18.29078 7.879433C17.893617 7.614657 17.66903 7.20331 17.617021 6.64539C17.862884 7.02364 18.179669 7.212766 18.567376 7.212766C18.817967 7.212766 19.031915 7.125296 19.20922 6.950355S19.475177 6.562648 19.475177 6.312057C19.475177 6.099291 19.423168 5.905438 19.319149 5.730496C19.21513 5.555555 19.080378 5.395981 18.914894 5.251773S18.579196 4.957447 18.404255 4.801418C18.229314 4.64539 18.056738 4.440899 17.886525 4.187943S17.586289 3.650118 17.496454 3.333333C17.416076 3.64539 17.291962 3.926714 17.124113 4.177305S16.783688 4.631206 16.606383 4.787234S16.257683 5.094562 16.092199 5.241135S15.79078 5.548463 15.684397 5.723404S15.524823 6.094562 15.524823 6.312057C15.524823 6.562648 15.613475 6.775413 15.79078 6.950355S16.182033 7.212766 16.432624 7.212766C16.820331 7.212766 17.137116 7.02364 17.382979 6.64539Z" fill="#010101" />
<path d="M17.617021 28.35461C17.640662 28.108747 17.699764 27.891253 17.794326 27.702128C17.888889 27.513002 17.988179 27.368794 18.092199 27.269504S18.327423 27.085106 18.485816 27.014184C18.644208 26.943262 18.765957 26.897163 18.851064 26.875887S19.040189 26.834515 19.163121 26.815603C19.182033 26.810875 19.196218 26.808511 19.205674 26.808511V26.666667H15.794326V26.808511C16.196218 26.879433 16.501182 26.983452 16.70922 27.120567C17.106383 27.385343 17.33097 27.79669 17.382979 28.35461C17.137116 27.97636 16.820331 27.787234 16.432624 27.787234C16.182033 27.787234 15.968085 27.874704 15.79078 28.049645S15.524823 28.437352 15.524823 28.687943C15.524823 28.900709 15.576832 29.094562 15.680851 29.269504C15.78487 29.444445 15.919622 29.604019 16.085106 29.748227S16.420804 30.042553 16.595745 30.198582C16.770686 30.35461 16.943262 30.559101 17.113475 30.812057S17.413711 31.349882 17.503546 31.666667C17.583924 31.35461 17.708038 31.073286 17.875887 30.822695S18.216312 30.368794 18.393617 30.212766S18.742317 29.905438 18.907801 29.758865S19.20922 29.451537 19.315603 29.276596S19.475177 28.905438 19.475177 28.687943C19.475177 28.437352 19.386525 28.224587 19.20922 28.049645S18.817967 27.787234 18.567376 27.787234C18.179669 27.787234 17.862884 27.97636 17.617021 28.35461Z" fill="#010101" />
<path d="M22.599359 5.606838Q22.682692 5.574786 22.689103 5.517094V4.536325H24.221154Q24.323718 4.536325 24.375 4.472222T24.426282 4.311966Q24.426282 4.228632 24.38141 4.17094L22.580128 2.202991Q22.516026 2.138889 22.38141 2.138889Q22.278846 2.138889 22.208333 2.193376T22.13141 2.363248V4.222222H21.746795Q21.657051 4.222222 21.61859 4.244658T21.573718 4.376068Q21.573718 4.446581 21.602564 4.491453T21.695513 4.536325H22.13141V5.517094Q22.13141 5.574786 22.214744 5.606838T22.407051 5.638889T22.599359 5.606838ZM24.054487 4.222222H22.689103V2.702991Z" fill="#010101" />
<path d="M22.945391 8.156734C22.934358 8.271469 22.906778 8.372965 22.862649 8.461222C22.81852 8.54948 22.772185 8.616776 22.723643 8.663112S22.613873 8.749163 22.539957 8.782259C22.466042 8.815356 22.409226 8.836869 22.36951 8.846798S22.281252 8.866104 22.223885 8.87493C22.215059 8.877136 22.20844 8.87824 22.204027 8.87824V8.944433H23.795973V8.87824C23.608426 8.845143 23.46611 8.796601 23.369027 8.732615C23.183686 8.609054 23.07888 8.417094 23.054609 8.156734C23.169344 8.333249 23.317176 8.421507 23.498104 8.421507C23.615045 8.421507 23.714886 8.380688 23.797628 8.299049S23.92174 8.118121 23.92174 8.00118C23.92174 7.90189 23.897469 7.811426 23.848928 7.729788C23.800386 7.648149 23.737502 7.573682 23.660277 7.506386S23.50362 7.369035 23.421982 7.296222C23.340343 7.22341 23.259808 7.127981 23.180376 7.009937S23.040268 6.758954 22.998345 6.611123C22.960836 6.756748 22.902917 6.888031 22.824588 7.004972S22.665724 7.21679 22.582983 7.289603S22.420258 7.433021 22.343033 7.501421S22.202372 7.64484 22.152727 7.726478S22.07826 7.899683 22.07826 8.00118C22.07826 8.118121 22.119631 8.217411 22.202372 8.299049S22.384955 8.421507 22.501896 8.421507C22.682824 8.421507 22.830656 8.333249 22.945391 8.156734Z" fill="#010101" />
<path d="M2.400641 29.393162Q2.317308 29.425214 2.310897 29.482906V30.463675H0.778846Q0.676282 30.463675 0.625 30.527778T0.573718 30.688034Q0.573718 30.771368 0.61859 30.82906L2.419872 32.797009Q2.483974 32.861111 2.61859 32.861111Q2.721154 32.861111 2.791667 32.806624T2.86859 32.636752V30.777778H3.253205Q3.342949 30.777778 3.38141 30.755342T3.426282 30.623932Q3.426282 30.553419 3.397436 30.508547T3.304487 30.463675H2.86859V29.482906Q2.86859 29.425214 2.785256 29.393162T2.592949 29.361111T2.400641 29.393162ZM0.945513 30.777778H2.310897V32.297009Z" fill="#010101" />
<path d="M2.054609 26.843266C2.065642 26.728531 2.093222 26.627035 2.137351 26.538778C2.18148 26.45052 2.227815 26.383224 2.276357 26.336888S2.386127 26.250837 2.460043 26.217741C2.533958 26.184644 2.590774 26.163131 2.63049 26.153202S2.718748 26.133896 2.776115 26.12507C2.784941 26.122864 2.79156 26.12176 2.795973 26.12176V26.055567H1.204027V26.12176C1.391574 26.154857 1.53389 26.203399 1.630973 26.267385C1.816314 26.390946 1.92112 26.582906 1.945391 26.843266C1.830656 26.666751 1.682824 26.578493 1.501896 26.578493C1.384955 26.578493 1.285114 26.619312 1.202372 26.700951S1.07826 26.881879 1.07826 26.99882C1.07826 27.09811 1.102531 27.188574 1.151072 27.270212C1.199614 27.351851 1.262498 27.426318 1.339723 27.493614S1.49638 27.630965 1.578018 27.703778C1.659657 27.77659 1.740192 27.872019 1.819624 27.990063S1.959732 28.241046 2.001655 28.388877C2.039164 28.243252 2.097083 28.111969 2.175412 27.995028S2.334276 27.78321 2.417017 27.710397S2.579742 27.566979 2.656967 27.498579S2.797628 27.35516 2.847273 27.273522S2.92174 27.100317 2.92174 26.99882C2.92174 26.881879 2.880369 26.782589 2.797628 26.700951S2.615045 26.578493 2.498104 26.578493C2.317176 26.578493 2.169344 26.666751 2.054609 26.843266Z" fill="#010101" />
</svg>
