<svg version="1.1" xmlns="http://www.w3.org/2000/svg">
 <defs>
  <font id="Untitled1" horiz-adv-x="800">
   <font-face font-family="Untitled1" font-weight="400" ascent="800" bbox="21 -30 791 720" cap-height="704" descent="-200" panose-1="2 0 5 3 0 0 0 0 0 0" underline-position="-100" underline-thickness="50" unicode-range="U+0001-0071" units-per-em="1000"/>
   <glyph d="M21 303c0 9.33333 3 17 9 23s14 9 24 9c12.6667 0 23 -6.33333 31 -19c-4.66667 -14 -7 -24.6667 -7 -32c0 -16 5.33333 -29.3333 16 -40s24 -16 40 -16c23.3333 0 41.6667 11 55 33c6.66667 10 12.3333 38.8333 17 86.5s14.6667 83.1667 30 106.5 c14 20.6667 32.8333 37.3333 56.5 50c23.6667 12.6667 47.8333 19 72.5 19c27.3333 0 51 -8.66667 71 -26c20 -17.3333 30 -38.3333 30 -63c0 -17.3333 -5.66667 -39 -17 -65c37.3333 30.6667 73.6667 46 109 46h8c6.66667 14.6667 16.5 28 29.5 40s25.3333 21.1667 37 27.5 s22 14.3333 31 24c9 9.66667 13.5 20.5 13.5 32.5s-6.33333 22.3333 -19 31h10c20.6667 0 37.3333 -5.66667 50 -17s19 -26 19 -44s-6 -31.8333 -18 -41.5s-25.6667 -15.3333 -41 -17s-30.8333 -5.33333 -46.5 -11s-26.1667 -13.8333 -31.5 -24.5 c40.6667 -6.66667 76.6667 -25 108 -55s47.6667 -62 49 -96c12 -12.6667 19.3333 -28.6667 22 -48h-22c-3.33333 -27.3333 -12.8333 -49.1667 -28.5 -65.5s-35.5 -24.5 -59.5 -24.5c-19.3333 0 -34.3333 5.16667 -45 15.5s-16 24.8333 -16 43.5c0 8 0.666667 18.3333 2 31 c14.6667 -12.6667 29.3333 -19 44 -19c26.6667 0 43.3333 14.3333 50 43c-41.3333 17.3333 -74.6667 39.8333 -100 67.5s-38 55.8333 -38 84.5v2c-22 -0.666667 -42.1667 -6.16667 -60.5 -16.5c-18.3333 -10.3333 -31.1667 -23.1667 -38.5 -38.5 c24.6667 -13.3333 41.6667 -26.1667 51 -38.5c9.33333 -12.3333 14 -28.1667 14 -47.5c0 -36.6667 -18.1667 -67.8333 -54.5 -93.5c-36.3333 -25.6667 -80.1667 -38.5 -131.5 -38.5c-41.3333 0 -88.1667 11.1667 -140.5 33.5c-52.3333 22.3333 -96.1667 47.8333 -131.5 76.5 c-35.3333 28.6667 -53 52.6667 -53 72zM708 278v4c0 28 -12 53.5 -36 76.5s-50.6667 34.8333 -80 35.5c-1.33333 -8 -2 -12.6667 -2 -14c0 -17.3333 8.33333 -33.8333 25 -49.5s32.5 -27.1667 47.5 -34.5s30.1667 -13.3333 45.5 -18z" glyph-name="zero" />
   <glyph d="M85 563c0 -13.3333 4.33333 -25.5 13 -36.5s13 -17.5 13 -19.5c0 -8 -4.5 -15.8333 -13.5 -23.5s-18.1667 -11.5 -27.5 -11.5c-10 0 -18.3333 4 -25 12s-10 17.6667 -10 29c0 40 18.8333 79.1667 56.5 117.5c37.6667 38.3333 76.1667 57.5 115.5 57.5 c35.3333 0 74.6667 -18 118 -54v31c22.6667 25.3333 45.3333 38 68 38c24 0 44.1667 -9.66667 60.5 -29s24.5 -43.3333 24.5 -72c0 -13.3333 -3 -32.3333 -9 -57c35.3333 -23.3333 69.6667 -35 103 -35c19.3333 0 36.1667 6.66667 50.5 20s21.5 29 21.5 47 c0 16.6667 -5.66667 28.8333 -17 36.5s-17 15.8333 -17 24.5c0 19.3333 5.33333 35.3333 16 48s24 19 40 19c17.3333 0 31.6667 -6.16667 43 -18.5s17 -27.8333 17 -46.5c0 -42 -21.6667 -77.3333 -65 -106c-43.3333 -28.6667 -86 -43 -128 -43 c-15.3333 0 -39.6667 7.33333 -73 22c-8.66667 -22 -29 -65.3333 -61 -130c-2 10 -3 16.6667 -3 20c0 4.66667 0.166667 7.83333 0.5 9.5s1.5 5 3.5 10s4.33333 10.1667 7 15.5s7.16667 15.6667 13.5 31s13.5 32.6667 21.5 52c-10 4.66667 -34.5 19.3333 -73.5 44 s-75.8333 45.8333 -110.5 63.5c-34.6667 17.6667 -61 26.5 -79 26.5c-25.3333 0 -47.3333 -9.16667 -66 -27.5c-18.6667 -18.3333 -28 -39.8333 -28 -64.5zM451 554c4.66667 16 7 29 7 39c0 20.6667 -6 38.8333 -18 54.5s-25.6667 23.5 -41 23.5 c-8.66667 0 -16.3333 -3.5 -23 -10.5s-10 -15.1667 -10 -24.5c0 -14.6667 9 -30 27 -46s37.3333 -28 58 -36zM397 354c36 62.6667 80 94 132 94c30.6667 0 57 -12.3333 79 -37s33 -54.3333 33 -89c0 -26.6667 -6 -50.5 -18 -71.5s-26.8333 -37.6667 -44.5 -50 s-36.8333 -24.3333 -57.5 -36c-20.6667 -11.6667 -39.8333 -21.6667 -57.5 -30c-17.6667 -8.33333 -32.5 -18.5 -44.5 -30.5s-18 -25 -18 -39c0 -15.3333 5.83333 -28.1667 17.5 -38.5s25.8333 -15.5 42.5 -15.5c44.6667 0 71.3333 30.6667 80 92 c6.66667 8.66667 15.6667 13 27 13c12.6667 0 23 -3.5 31 -10.5s12 -16.1667 12 -27.5c0 -24.6667 -16 -46 -48 -64s-69.3333 -27 -112 -27c-82 0 -153.5 30.3333 -214.5 91c-61 60.6667 -91.5 132 -91.5 214c0 52.6667 12.8333 96.1667 38.5 130.5s58.1667 51.5 97.5 51.5 c65.3333 0 98 -37.6667 98 -113z" glyph-name="one" horiz-adv-x="760" />
   <glyph d="M392 705l147 -161l-147 -149l-149 149zM749 348l-160 -153l-149 153l149 149zM392 -14l-149 164l149 150l151 -150zM35 348l159 149l149 -149l-149 -148z" glyph-name="two" horiz-adv-x="784" />
   <glyph d="M678 340c24.6667 -7.33333 42.8333 -18.5 54.5 -33.5s17.5 -31.1667 17.5 -48.5c0 -20 -7.16667 -37.3333 -21.5 -52s-31.1667 -22 -50.5 -22c-26 0 -53 9.5 -81 28.5s-58.5 41.5 -91.5 67.5s-64.1667 44 -93.5 54c2.66667 -26.6667 4 -45.3333 4 -56 c0 -135.333 -50 -234 -150 -296c-28.6667 26 -47.3333 44.3333 -56 55c35.3333 25.3333 65.1667 54.3333 89.5 87s41.3333 64.1667 51 94.5s16.1667 54.5 19.5 72.5s5 33 5 45c-26 -8.66667 -52.5 -22 -79.5 -40s-49.8333 -35.1667 -68.5 -51.5 c-18.6667 -16.3333 -38.8333 -30.6667 -60.5 -43s-41.8333 -18.5 -60.5 -18.5c-20.6667 0 -38.1667 7 -52.5 21c-14.3333 14 -21.5 31.3333 -21.5 52c0 40 24 68 72 84c-48 12.6667 -72 39.6667 -72 81c0 20.6667 7 38.1667 21 52.5s30.6667 21.5 50 21.5 c22 0 45 -6.83333 69 -20.5s45.6667 -29.1667 65 -46.5c19.3333 -17.3333 42.8333 -34.8333 70.5 -52.5s54.8333 -29.5 81.5 -35.5c-9.33333 34 -27.1667 69 -53.5 105s-49.8333 68.5 -70.5 97.5c-20.6667 29 -31 55.5 -31 79.5c0 21.3333 7 39 21 53s31.6667 21 53 21 c39.3333 0 66.6667 -24 82 -72c7.33333 24.6667 18.3333 42.8333 33 54.5s31 17.5 49 17.5c20 0 37.3333 -7 52 -21c14.6667 -14 22 -30.6667 22 -50c0 -27.3333 -10 -56.1667 -30 -86.5c-20 -30.3333 -42.5 -62.8333 -67.5 -97.5s-41.8333 -68.3333 -50.5 -101 c28 7.33333 56 20 84 38s51.3333 35.5 70 52.5s39.1667 32.1667 61.5 45.5s42.8333 20 61.5 20c21.3333 0 39.1667 -7.16667 53.5 -21.5s21.5 -31.8333 21.5 -52.5c0 -39.3333 -24 -66.6667 -72 -82z" glyph-name="three" horiz-adv-x="782" />
   <glyph d="M579 465c8 0 18 -1.83333 30 -5.5s25.5 -9.33333 40.5 -17s27.6667 -20.1667 38 -37.5s15.5 -37.3333 15.5 -60c0 -18 -3.16667 -34 -9.5 -48s-14.1667 -26.6667 -23.5 -38c-9.33333 -11.3333 -18.8333 -24 -28.5 -38s-18.3333 -34.1667 -26 -60.5 s-12.1667 -57.5 -13.5 -93.5c-1.33333 -44.6667 -68.6667 -67 -202 -67c-132.667 0 -200 22.3333 -202 67c-2.66667 46.6667 -9.5 85 -20.5 115s-22.3333 50.3333 -34 61s-22.3333 24.3333 -32 41s-14.5 37 -14.5 61c0 23.3333 5.16667 43.6667 15.5 61s23 29.8333 38 37.5 s28.6667 13.1667 41 16.5s22.8333 5 31.5 5c32.6667 0 65.3333 -13 98 -39c0 31.3333 3 53.5 9 66.5s21.3333 27.5 46 43.5v24l-41 24v36h37l13 38h30l13 -38h37v-36l-41 -24v-24c24.6667 -15.3333 40 -30.1667 46 -44.5s9 -36.1667 9 -65.5 c8.66667 8.66667 22.5 17.3333 41.5 26s38.5 13 58.5 13zM400 337c4 7.33333 9.66667 16.6667 17 28s12.1667 19.1667 14.5 23.5s4.66667 11 7 20s3.5 19.5 3.5 31.5c0 39.3333 -13.6667 59 -41 59c-28.6667 0 -43 -19.6667 -43 -59c0 -12 1.16667 -22.5 3.5 -31.5 s4.66667 -15.8333 7 -20.5s7.16667 -12.5 14.5 -23.5s13 -20.1667 17 -27.5zM578 429c-32.6667 0 -66.3333 -16.8333 -101 -50.5s-54.3333 -77.5 -59 -131.5c0 -16 61 -24 183 -24c1.33333 1.33333 9 10.6667 23 28c14 17.3333 24.6667 33.1667 32 47.5s11 27.8333 11 40.5 c0 26.6667 -8.5 48.3333 -25.5 65s-38.1667 25 -63.5 25zM583 183c-19.3333 1.33333 -40.1667 2.83333 -62.5 4.5c-22.3333 1.66667 -38 2.83333 -47 3.5s-18.8333 1.66667 -29.5 3s-19 2.66667 -25 4s-12.3333 3.33333 -19 6c-8 -3.33333 -17.6667 -6.16667 -29 -8.5 s-21.5 -3.83333 -30.5 -4.5s-26.8333 -1.83333 -53.5 -3.5s-50 -3.16667 -70 -4.5c6.66667 -25.3333 11 -53.3333 13 -84c46 14.6667 102.667 22 170 22c68.6667 0 125.333 -7.33333 170 -22c2 33.3333 6.33333 61.3333 13 84zM222 429c-24 0 -44.8333 -8.33333 -62.5 -25 s-26.5 -38.3333 -26.5 -65c0 -9.33333 2.66667 -19.6667 8 -31s10.6667 -21 16 -29s13 -18.3333 23 -31c10 -12.6667 16.3333 -21 19 -25c122 0 183 8 183 24c-4.66667 54 -24.1667 97.8333 -58.5 131.5s-68.1667 50.5 -101.5 50.5zM401 81 c-93.3333 0 -140 -8.66667 -140 -26c0 -6 16 -10.6667 48 -14s62.3333 -5 91 -5c92.6667 0 139 6.33333 139 19c0 17.3333 -46 26 -138 26z" glyph-name="four" />
   <glyph d="M400 225c36.6667 0 70.8333 -1.16667 102.5 -3.5c31.6667 -2.33333 50.1667 -3.5 55.5 -3.5c8 0 13 0.5 15 1.5s3 3.5 3 7.5c0 13.3333 -20.5 23.5 -61.5 30.5s-78.8333 10.5 -113.5 10.5c-35.3333 0 -73.3333 -3.5 -114 -10.5c-40.6667 -7 -61 -17.1667 -61 -30.5 c0 -3.33333 1 -5.66667 3 -7s7 -2 15 -2c0.666667 0 20.6667 1.16667 60 3.5s71.3333 3.5 96 3.5zM563 180c-52.6667 6.66667 -106.667 10 -162 10c-58 0 -112 -3.33333 -162 -10c8 -6.66667 12 -19.6667 12 -39c0 -12.6667 -2 -20.3333 -6 -23 c40.6667 7.33333 92.6667 11 156 11c64 0 116 -3.66667 156 -11c-4 2.66667 -6 10.3333 -6 23c0 19.3333 4 32.3333 12 39zM564 66c0 18.6667 -54.3333 28 -163 28s-163 -9.33333 -163 -28c0 -16.6667 54.3333 -25 163 -25s163 8.33333 163 25zM401 617 c-16.6667 0 -25 -8 -25 -24c0 -17.3333 8.33333 -26 25 -26c16 0 24 8.66667 24 26c0 16 -8 24 -24 24zM366 494c0 22.6667 -3.5 43.6667 -10.5 63s-10.5 30.3333 -10.5 33c0 15.3333 5.5 28.5 16.5 39.5s24.1667 16.5 39.5 16.5s28.3333 -5.5 39 -16.5 s16 -24.1667 16 -39.5c0 -2.66667 -3.66667 -13.5 -11 -32.5s-11 -40.1667 -11 -63.5c0 -32.6667 7.33333 -81 22 -145c36 76 54 133.333 54 172c0 4 -1 11.5 -3 22.5s-3 17.8333 -3 20.5c0 15.3333 5.33333 28.5 16 39.5c10.6667 11 23.6667 16.5 39 16.5 c16 0 29.5 -5.5 40.5 -16.5s16.5 -24.1667 16.5 -39.5c0 -12 -2.33333 -21.5 -7 -28.5s-10 -12.3333 -16 -16s-11.3333 -12.5 -16 -26.5s-7 -33.3333 -7 -58c0 -17.3333 1.66667 -45.3333 5 -84c43.3333 44.6667 65 81 65 109l-1 9c-0.666667 6 -1.5 12.1667 -2.5 18.5 s-1.5 10.1667 -1.5 11.5c0 14.6667 5.5 27.6667 16.5 39s23.8333 17 38.5 17c15.3333 0 28.6667 -5.5 40 -16.5s17 -24.1667 17 -39.5c0 -27.3333 -15.3333 -48 -46 -62c-1.33333 -26.6667 -13.3333 -86.6667 -36 -180c0 -6 -12.5 -24.3333 -37.5 -55 s-37.5 -50.6667 -37.5 -60c0 -6 4.66667 -18.6667 14 -38s14 -35.3333 14 -48v-16c0 -15.3333 -24.1667 -25.8333 -72.5 -31.5c-48.3333 -5.66667 -96.8333 -8.5 -145.5 -8.5c-54 0 -103.667 3.16667 -149 9.5c-45.3333 6.33333 -68 16.5 -68 30.5v16 c0 14 4.5 30.6667 13.5 50s13.5 31.3333 13.5 36c0 14 -10.8333 33 -32.5 57s-35.5 43.3333 -41.5 58c-22.6667 92 -34.6667 152 -36 180c-30.6667 14 -46 34.6667 -46 62c0 15.3333 5.66667 28.5 17 39.5c11.3333 11 24.3333 16.5 39 16.5c15.3333 0 28.5 -5.5 39.5 -16.5 s16.5 -24.1667 16.5 -39.5c0 -0.666667 -0.833333 -7 -2.5 -19s-2.5 -18.6667 -2.5 -20c0 -29.3333 21.3333 -65.6667 64 -109c3.33333 29.3333 5 57.3333 5 84c0 24 -2.33333 43.1667 -7 57.5s-10 23.3333 -16 27s-11.3333 9.16667 -16 16.5s-7 16.6667 -7 28 c0 15.3333 5.66667 28.5 17 39.5s24.6667 16.5 40 16.5c15.3333 0 28.5 -5.5 39.5 -16.5s16.5 -24.1667 16.5 -39.5l-3 -19c-2 -12.6667 -3 -20.6667 -3 -24c0 -38 18 -95.3333 54 -172c14 60.6667 21 109 21 145zM690 523c-6 0 -11.5 -2.33333 -16.5 -7 c-5 -4.66667 -7.5 -10.3333 -7.5 -17c0 -7.33333 2.33333 -13.5 7 -18.5s10.3333 -7.5 17 -7.5c16.6667 0 25 8.66667 25 26c0 16 -8.33333 24 -25 24zM559 587c-6.66667 0 -12.3333 -2.5 -17 -7.5s-7 -10.8333 -7 -17.5s2.33333 -12.5 7 -17.5s10.3333 -7.5 17 -7.5 c17.3333 0 26 8.33333 26 25s-8.66667 25 -26 25zM241 587c-16.6667 0 -25 -8.33333 -25 -25s8.33333 -25 25 -25c16 0 24 8.33333 24 25s-8 25 -24 25zM110 523c-16.6667 0 -25 -8 -25 -24c0 -17.3333 8.33333 -26 25 -26c16 0 24 8.66667 24 26 c0 6.66667 -2.5 12.3333 -7.5 17c-5 4.66667 -10.5 7 -16.5 7zM401 459c-6 -36.6667 -12.6667 -65.5 -20 -86.5s-14 -35.8333 -20 -44.5s-9.66667 -15.6667 -11 -21c-3.33333 4 -9 10.6667 -17 20s-13 15.6667 -15 19s-5.83333 9.16667 -11.5 17.5s-10.1667 16.5 -13.5 24.5 s-7.66667 18.6667 -13 32s-11 28.6667 -17 46c1.33333 -9.33333 2 -19 2 -29c0 -31.3333 -5.66667 -79.6667 -17 -145c-36 21.3333 -71 55.3333 -105 102c16 -79.3333 28.3333 -123.667 37 -133c1.33333 -1.33333 2.66667 -2.33333 4 -3c54.6667 31.3333 127 47 217 47 c90.6667 0 163 -15.6667 217 -47c12 4 25.3333 49.3333 40 136c-34.6667 -48 -69.3333 -82 -104 -102c-11.3333 58 -17 103.667 -17 137c0 8.66667 0.666667 21 2 37c-10 -30.6667 -20.1667 -56.5 -30.5 -77.5c-10.3333 -21 -18.6667 -35.1667 -25 -42.5 s-12.5 -14.3333 -18.5 -21s-10.3333 -12.6667 -13 -18c-3.33333 6 -7.33333 12.8333 -12 20.5s-7.66667 13.1667 -9 16.5s-3.66667 9.83333 -7 19.5s-6.66667 21.6667 -10 36s-7.66667 34.1667 -13 59.5z" glyph-name="five" />
   <glyph d="M286 388v-177h228v177h-228zM168 0l-19 19v69l102 103v200l-88 77v91l29 28h90l17 -17v-26h29v26l17 17h110l17 -17v-26h28v26l18 17h90l29 -28v-91l-88 -77v-200l102 -103v-69l-19 -19h-464zM184 79v-39h432v39h-432zM282 178l-66 -64h368l-66 64h-236zM362 545v-26 l-15 -14h-65l-15 14v28h-56l-13 -14v-56l68 -55h268l68 55v56l-13 14h-56v-28l-15 -14h-65l-15 14v26h-76z" glyph-name="six" />
   <glyph d="M400 271c-46.6667 0 -83 2 -109 6c4.66667 -9.33333 7 -17.3333 7 -24c0 -10 -2 -18.3333 -6 -25c19.3333 6 55.3333 9 108 9c53.3333 0 89.3333 -3 108 -9c-4 6.66667 -6 15 -6 25c0 8 2 16 6 24c-30.6667 -4 -66.6667 -6 -108 -6zM400 633c-8 0 -15.1667 -3 -21.5 -9 s-9.5 -12.6667 -9.5 -20c0 -8.66667 3 -15.8333 9 -21.5s13.3333 -8.5 22 -8.5s16 2.83333 22 8.5s9 12.8333 9 21.5c0 8 -3.16667 14.8333 -9.5 20.5s-13.5 8.5 -21.5 8.5zM400 208c-32.6667 0 -57.8333 -1.16667 -75.5 -3.5s-29.1667 -5.16667 -34.5 -8.5s-8 -8 -8 -14 s6 -9.83333 18 -11.5s31.3333 -2.5 58 -2.5h20h22c78 0 117 4.66667 117 14c0 10.6667 -7.66667 17.6667 -23 21s-46.6667 5 -94 5zM398 535c-29.3333 -3.33333 -62.5 -20.6667 -99.5 -52c-37 -31.3333 -56.8333 -62.3333 -59.5 -93c4 -27.3333 8.5 -46 13.5 -56 s18.5 -18.1667 40.5 -24.5s57.3333 -9.5 106 -9.5c30 0 54.6667 1.16667 74 3.5s34.5 5.16667 45.5 8.5s19.3333 9.5 25 18.5s9.5 17 11.5 24s4 18.8333 6 35.5c-2.66667 30.6667 -22.8333 61.6667 -60.5 93c-37.6667 31.3333 -71.8333 48.6667 -102.5 52zM382 349v44h-34 v39h34v43h36v-43h34v-39h-34v-44h-36zM400 109c12 -22.6667 36.6667 -39.3333 74 -50c37.3333 -10.6667 76.6667 -16.6667 118 -18c2 0 11.3333 -1.33333 28 -4s25.3333 -4 26 -4c14 0 21 6.66667 21 20c0 9.33333 -6.83333 16.3333 -20.5 21s-41.8333 8.33333 -84.5 11 c-29.3333 2 -54.6667 6.33333 -76 13s-36.1667 13.5 -44.5 20.5s-16.1667 13.1667 -23.5 18.5s-14 8 -20 8s-12.5 -2.83333 -19.5 -8.5s-14.3333 -12 -22 -19s-21.3333 -13.8333 -41 -20.5s-43.1667 -10.6667 -70.5 -12c-30 0 -53.5 -1.5 -70.5 -4.5 s-28.1667 -6.66667 -33.5 -11s-8 -9.83333 -8 -16.5c2 -13.3333 9 -20 21 -20c0.666667 0 9.16667 1.33333 25.5 4s25.5 4 27.5 4c43.3333 0 83.3333 5.5 120 16.5s61 28.1667 73 51.5zM537 258c0 -7.33333 3.33333 -21 10 -41s10 -32.3333 10 -37 c0 -22.6667 -23.6667 -37 -71 -43c36 -12.6667 68 -19 96 -19c2.66667 0 12.6667 0.5 30 1.5s27 1.5 29 1.5c32.6667 0 60 -21 82 -63c-2 -2.66667 -6.66667 -10 -14 -22s-12.8333 -20.5 -16.5 -25.5s-9.16667 -11 -16.5 -18s-14.6667 -12.1667 -22 -15.5 c-2.66667 12 -19.8333 19.8333 -51.5 23.5c-31.6667 3.66667 -68.3333 9.16667 -110 16.5c-41.6667 7.33333 -72.5 21 -92.5 41c-16.6667 -16.6667 -39.8333 -29.3333 -69.5 -38c-29.6667 -8.66667 -57.1667 -13.5 -82.5 -14.5c-25.3333 -1 -48.1667 -3.66667 -68.5 -8 s-31.5 -11.1667 -33.5 -20.5c-7.33333 2 -15 7.5 -23 16.5s-17.3333 21.5 -28 37.5l-18 27c22 42 49.3333 63 82 63c0.666667 0 10.1667 -0.5 28.5 -1.5s28.5 -1.5 30.5 -1.5c27.3333 0 59.3333 6.33333 96 19c-47.3333 6 -71 20.3333 -71 43c0 4 3.33333 16.5 10 37.5 c6.66667 21 10 34.1667 10 39.5c0 2 -5 8.33333 -15 19s-20 25.3333 -30 44s-15 39.3333 -15 62c0 42 19.1667 80.5 57.5 115.5c38.3333 35 68.8333 53.5 91.5 55.5c-14.6667 18 -22 36.6667 -22 56s6.5 34.3333 19.5 45s29.8333 16 50.5 16c20 0 36.5 -5.5 49.5 -16.5 s19.5 -25.8333 19.5 -44.5c0 -20.6667 -7 -39.3333 -21 -56c21.3333 -2.66667 51.5 -21.3333 90.5 -56c39 -34.6667 58.5 -73 58.5 -115c0 -37.3333 -20 -78.6667 -60 -124z" glyph-name="seven" />
   <glyph d="M173 236c9.33333 0 14 -6.33333 14 -19c0 -16.6667 -8.33333 -25 -25 -25c-6.66667 0 -10 5.33333 -10 16c0 18.6667 7 28 21 28zM245 358c-9.33333 0 -14 5.66667 -14 17c0 12.6667 6.33333 24.3333 19 35c12.6667 10.6667 25.6667 16 39 16 c15.3333 0 23 -4.66667 23 -14c0 -12 -8 -24 -24 -36s-30.3333 -18 -43 -18zM253 546c2.66667 -9.33333 4 -15.6667 4 -19c0 -2 -1 -7.33333 -3 -16c4 0 11.1667 1.83333 21.5 5.5s17.8333 7.16667 22.5 10.5c-18 9.33333 -33 15.6667 -45 19zM428 272 c0 -29.3333 -8 -59.1667 -24 -89.5s-32.8333 -58.5 -50.5 -84.5s-27.5 -46.3333 -29.5 -61h330c2.66667 30.6667 4 53.3333 4 68c0 58 -8.16667 111.667 -24.5 161c-16.3333 49.3333 -35.6667 88 -58 116s-43.3333 49.6667 -63 65c-19.6667 15.3333 -35.1667 23 -46.5 23 h-60c-5.33333 2.66667 -10.1667 14.6667 -14.5 36c-4.33333 21.3333 -9.83333 34.6667 -16.5 40c-5.33333 -17.3333 -14.5 -29.6667 -27.5 -37c-13 -7.33333 -29 -13.6667 -48 -19s-33.8333 -12 -44.5 -20c-8 -27.3333 -29.5 -74.3333 -64.5 -141s-53.8333 -109 -56.5 -127 c2.66667 -10 9 -19 19 -27s20.6667 -12 32 -12c4.66667 0 10.6667 2.66667 18 8s14 8 20 8c3.33333 0 5 -2 5 -6l-3 -9c-2 -6 -3 -9.33333 -3 -10c0 -6 4.66667 -9 14 -9c1.33333 0 9.66667 11.6667 25 35c29.3333 45.3333 71 79.6667 125 103c4 26.6667 12.5 51 25.5 73 s23.1667 33 30.5 33c6 0 9 -4.33333 9 -13c0 -4.66667 -4.16667 -18.8333 -12.5 -42.5s-12.5 -39.8333 -12.5 -48.5c0 -2 0.666667 -6.33333 2 -13zM449 512c14 0 30.3333 -3.66667 49 -11c18.6667 -7.33333 40 -21.1667 64 -41.5s45.8333 -45.6667 65.5 -76 s36.3333 -71.6667 50 -124c13.6667 -52.3333 20.5 -110.833 20.5 -175.5c0 -31.3333 -1.33333 -59.3333 -4 -84h-419c2 30.6667 8.5 58 19.5 82s22.8333 42.3333 35.5 55c12.6667 12.6667 24.8333 28.5 36.5 47.5s18.8333 39.5 21.5 61.5 c-26 -11.3333 -48.1667 -25.1667 -66.5 -41.5s-31.1667 -31.1667 -38.5 -44.5s-14.5 -24.8333 -21.5 -34.5c-7 -9.66667 -13.8333 -14.5 -20.5 -14.5c-11.3333 0 -21.3333 2.66667 -30 8s-13.3333 12 -14 20c-6.66667 -3.33333 -13.3333 -5 -20 -5 c-31.3333 0 -56.6667 20 -76 60c4 25.3333 26 80.1667 66 164.5s60 138.833 60 163.5c0 3.33333 -2 22 -6 56c41.3333 0 78.3333 -11.3333 111 -34c18 31.3333 33 47 45 47c16 -8.66667 27.5 -18.3333 34.5 -29s13.8333 -28 20.5 -52c6.66667 1.33333 12.3333 2 17 2z" glyph-name="eight" />
   <glyph d="M364 273c0 -8 -4.83333 -15.6667 -14.5 -23c-9.66667 -7.33333 -21.5 -15.5 -35.5 -24.5s-28 -20.1667 -42 -33.5s-25.8333 -33 -35.5 -59s-14.5 -57 -14.5 -93h357c0 30 -3.5 56.8333 -10.5 80.5c-7 23.6667 -15.8333 42 -26.5 55s-22.1667 24.6667 -34.5 35 c-12.3333 10.3333 -23.8333 18.1667 -34.5 23.5s-19.5 11.3333 -26.5 18c-7 6.66667 -10.5 13.6667 -10.5 21c0 6.66667 3 12.1667 9 16.5s12.8333 8 20.5 11s14.5 9.33333 20.5 19s9 22.1667 9 37.5s-3.66667 28.6667 -11 40s-15.3333 19.5 -24 24.5 s-16.6667 10.3333 -24 16s-11 10.8333 -11 15.5c0 10 3.33333 20.5 10 31.5s10 19.8333 10 26.5c0 12 -4.66667 22.1667 -14 30.5s-20 12.5 -32 12.5c-11.3333 0 -21.5 -4.16667 -30.5 -12.5s-13.5 -17.8333 -13.5 -28.5c0 -6.66667 3.33333 -15.8333 10 -27.5 s10 -22.5 10 -32.5c0 -4.66667 -3.66667 -9.83333 -11 -15.5s-15.1667 -11.1667 -23.5 -16.5s-16.1667 -13.6667 -23.5 -25s-11 -24.3333 -11 -39c0 -15.3333 4.83333 -28.6667 14.5 -40s19.3333 -20.3333 29 -27s14.5 -12.3333 14.5 -17zM187 0 c-0.666667 8 -1 23.3333 -1 46c0 58 10.6667 103.833 32 137.5s55 62.1667 101 85.5c-16 5.33333 -29.3333 16.3333 -40 33s-16 35.3333 -16 56c0 44.6667 22.6667 76.6667 68 96c-10.6667 19.3333 -16 38.3333 -16 57c0 22.6667 8.5 41.1667 25.5 55.5 s37.1667 21.5 60.5 21.5s43.5 -7.33333 60.5 -22s25.5 -33 25.5 -55c0 -18 -6 -37 -18 -57c46 -18.6667 69 -50.6667 69 -96c0 -21.3333 -5.5 -40.1667 -16.5 -56.5s-24.5 -27.1667 -40.5 -32.5c46 -24 79.8333 -52.6667 101.5 -86s32.5 -79 32.5 -137 c0 -22 -0.333333 -37.3333 -1 -46h-427z" glyph-name="nine" />




   <glyph d="M576 429c-9.33333 0 -21.5 -3.16667 -36.5 -9.5s-31.3333 -16 -49 -29s-32.8333 -31.8333 -45.5 -56.5s-19 -52.6667 -19 -84c0 -12 -8.66667 -18 -26 -18c-18 0 -27 6 -27 18c0 32.6667 -6.16667 61.6667 -18.5 87s-27.5 44.1667 -45.5 56.5s-34.3333 21.3333 -49 27 c-14.6667 5.66667 -27 8.5 -37 8.5c-27.3333 0 -49 -7.33333 -65 -22s-24 -35 -24 -61c0 -9.33333 5 -25.3333 15 -48s26.3333 -45.6667 49 -69s47.6667 -35 75 -35c26 0 68 5 126 15c58.6667 -10 101 -15 127 -15c20.6667 0 40.5 6.83333 59.5 20.5 s33.8333 29.6667 44.5 48c10.6667 18.3333 19.1667 35.3333 25.5 51s9.5 26.5 9.5 32.5c0 26 -8 46.3333 -24 61s-37.6667 22 -65 22zM450 246c0.666667 24 4.5 45.6667 11.5 65s15.3333 34.6667 25 46s20.5 20.6667 32.5 28s22.5 12.3333 31.5 15s16.8333 4 23.5 4 c20 0 36.5 -5.16667 49.5 -15.5s19.5 -24.5 19.5 -42.5c0 -5.33333 -2.5 -14.3333 -7.5 -27s-12.3333 -26.5 -22 -41.5s-23.5 -28.1667 -41.5 -39.5s-38 -17 -60 -17c-41.3333 0 -62 8.33333 -62 25zM548 92c0 17.3333 -49 26 -147 26c-44 0 -79.8333 -2.33333 -107.5 -7 s-41.5 -10.6667 -41.5 -18c0 -10 9 -15 27 -15c2 0 21.6667 1.66667 59 5s58 5 62 5c2 0 21.5 -1.66667 58.5 -5s57.5 -5 61.5 -5c18.6667 0 28 4.66667 28 14zM320 426c0 28.6667 3 49.6667 9 63s21.6667 28.6667 47 46v23l-41 25v36h37l12 37h34l13 -37h36v-36l-40 -25 v-23c23.3333 -15.3333 38.3333 -29.8333 45 -43.5s10 -35.5 10 -65.5c31.3333 25.3333 63.6667 38 97 38c34.6667 0 64.1667 -11.3333 88.5 -34s36.5 -51 36.5 -85c0 -27.3333 -13 -59 -39 -95c-16 -22 -26.8333 -37.8333 -32.5 -47.5s-11.6667 -26.3333 -18 -50 s-9.83333 -51.8333 -10.5 -84.5c-1.33333 -45.3333 -69.3333 -68 -204 -68c-133.333 0 -201 22.6667 -203 68c-0.666667 34 -4.83333 64.1667 -12.5 90.5s-14.5 44.1667 -20.5 53.5s-15.3333 22.3333 -28 39c-26 35.3333 -39 66.6667 -39 94 c0 33.3333 12.1667 61.5 36.5 84.5c24.3333 23 53.5 34.5 87.5 34.5c34.6667 0 67.6667 -12.6667 99 -38zM224 404c8.66667 0 19.1667 -2.5 31.5 -7.5c12.3333 -5 26 -13 41 -24s27.5 -27.6667 37.5 -50s15 -48.1667 15 -77.5c0 -16 -20.3333 -24 -61 -24 c-22.6667 0 -43.1667 5.66667 -61.5 17s-32.1667 24.8333 -41.5 40.5s-16.3333 29.5 -21 41.5s-7 20.6667 -7 26c0 18 6.5 32.1667 19.5 42.5s28.8333 15.5 47.5 15.5z" glyph-name="colon" />
   <glyph d="M401 136c-42 0 -80.1667 -3 -114.5 -9c-34.3333 -6 -51.5 -13.6667 -51.5 -23c0 -10.6667 7.66667 -16 23 -16c2.66667 0 23.1667 1.33333 61.5 4s65.8333 4 82.5 4c17.3333 0 44.6667 -1.33333 82 -4c37.3333 -2.66667 57 -4 59 -4c15.3333 0 23 5.33333 23 16 c0 21.3333 -55 32 -165 32zM110 522c-6.66667 0 -12.5 -2.33333 -17.5 -7c-5 -4.66667 -7.5 -10.6667 -7.5 -18s2.5 -13.3333 7.5 -18s10.8333 -7 17.5 -7c16 0 24 8.33333 24 25c0 16.6667 -8 25 -24 25zM241 585c-17.3333 0 -26 -8.33333 -26 -25s8.66667 -25 26 -25 c16 0 24 8.33333 24 25s-8 25 -24 25zM560 585c-6.66667 0 -12.3333 -2.5 -17 -7.5s-7 -10.8333 -7 -17.5c0 -16.6667 8 -25 24 -25c16.6667 0 25 8.33333 25 25s-8.33333 25 -25 25zM690 522c-16 0 -24 -8.33333 -24 -25c0 -16.6667 8 -25 24 -25 c16.6667 0 25 8.33333 25 25c0 7.33333 -2.5 13.3333 -7.5 18c-5 4.66667 -10.8333 7 -17.5 7zM590 141c0 -4 4.66667 -16.8333 14 -38.5s14 -41.1667 14 -58.5c0 -16 -22.8333 -27.5 -68.5 -34.5c-45.6667 -7 -95.5 -10.5 -149.5 -10.5 c-61.3333 0 -112.833 4.16667 -154.5 12.5c-41.6667 8.33333 -62.5 19.1667 -62.5 32.5c0 18 4.5 37.6667 13.5 59s13.5 34 13.5 38c0 11.3333 -12.5 31.5 -37.5 60.5s-37.5 46.8333 -37.5 53.5c0 4 -2.5 14.3333 -7.5 31s-10.5 38.6667 -16.5 66s-10 55.3333 -12 84 c-30.6667 12.6667 -46 33 -46 61c0 16 5.5 29.3333 16.5 40s24.5 16 40.5 16c14.6667 0 27.6667 -5.5 39 -16.5s17 -24.1667 17 -39.5c0 -0.666667 -0.833333 -6.83333 -2.5 -18.5s-2.5 -18.1667 -2.5 -19.5c0 -30 21.3333 -66.6667 64 -110c3.33333 27.3333 5 56 5 86 c0 24.6667 -2.33333 44 -7 58s-10 22.6667 -16 26s-11.3333 8.33333 -16 15s-7 16 -7 28c0 16 5.5 29.3333 16.5 40s24.5 16 40.5 16c15.3333 0 28.5 -5.5 39.5 -16.5s16.5 -24.1667 16.5 -39.5c0 -1.33333 -1.16667 -8.33333 -3.5 -21s-3.5 -20 -3.5 -22 c0 -37.3333 18.3333 -94.3333 55 -171c14 62.6667 21 110.667 21 144c0 24 -3.5 45.8333 -10.5 65.5s-10.5 30.1667 -10.5 31.5c0 16 5.5 29.3333 16.5 40s24.1667 16 39.5 16s28.1667 -5.5 38.5 -16.5s15.5 -24.1667 15.5 -39.5c0 -3.33333 -3.5 -14.3333 -10.5 -33 s-10.5 -40 -10.5 -64c0 -33.3333 7 -81.3333 21 -144c36 76 54 133 54 171c0 2.66667 -1 9.66667 -3 21s-3 18.6667 -3 22c0 16 5.5 29.3333 16.5 40s24.5 16 40.5 16c15.3333 0 28.5 -5.5 39.5 -16.5s16.5 -24.1667 16.5 -39.5c0 -10 -1.5 -17.8333 -4.5 -23.5 s-6.83333 -10.5 -11.5 -14.5s-9.33333 -8.83333 -14 -14.5c-4.66667 -5.66667 -8.5 -14.8333 -11.5 -27.5s-4.5 -28.6667 -4.5 -48c0 -29.3333 1.66667 -57.6667 5 -85c42.6667 43.3333 64 80 64 110c0 15.3333 -1.66667 28 -5 38c0 15.3333 5.5 28.5 16.5 39.5 s24.1667 16.5 39.5 16.5c16 0 29.5 -5.5 40.5 -16.5s16.5 -24.1667 16.5 -39.5c0 -26.6667 -15.3333 -47 -46 -61c-4 -42 -11 -80.8333 -21 -116.5s-15 -57.1667 -15 -64.5c0 -6 -12.5 -23.6667 -37.5 -53s-37.5 -49.6667 -37.5 -61zM401 616 c-7.33333 0 -13.3333 -2.33333 -18 -7s-7 -10.6667 -7 -18s2.33333 -13.3333 7 -18s10.6667 -7 18 -7c16 0 24 8.33333 24 25c0 6.66667 -2.33333 12.5 -7 17.5s-10.3333 7.5 -17 7.5zM581 226c0 11.3333 -19.8333 19.5 -59.5 24.5c-39.6667 5 -79.8333 7.5 -120.5 7.5 c-38.6667 0 -78.5 -2.66667 -119.5 -8s-61.5 -13.6667 -61.5 -25c0 -9.33333 8.66667 -14 26 -14c14.6667 0 39.3333 1.16667 74 3.5s62 3.5 82 3.5c20.6667 0 51.1667 -1.16667 91.5 -3.5c40.3333 -2.33333 61.5 -3.5 63.5 -3.5c16 0 24 5 24 15z" glyph-name="semicolon" />
   <glyph d="M169 0l-19 19v71l101 100v199l-78 77v89l28 28h71l18 -17v-25h38v25l17 17h111l17 -17v-25h38v25l17 17h72l28 -28v-89l-78 -77v-199l101 -100v-71l-20 -19h-462zM287 213v-34h227v34h-227zM287 393v-34h227v34h-227z" glyph-name="less" />
   <glyph d="M351 231c-34 0 -51 -5.33333 -51 -16c0 -11.3333 33.3333 -17 100 -17s100 5.66667 100 17c0 10.6667 -17 16 -51 16h-98zM400 261c42.6667 0 70 1 82 3s18 6.33333 18 13c0 10.6667 -17 16 -51 16h-110c-26 0 -39 -5.33333 -39 -16c0 -6.66667 6.66667 -11 20 -13 s40 -3 80 -3zM264 245c0 1.33333 -5 8.33333 -15 21c-10 12.6667 -20.1667 29.3333 -30.5 50s-15.5 41 -15.5 61c0 44 16.3333 81.6667 49 113c32.6667 31.3333 66 51 100 59c-14.6667 18 -22 36.6667 -22 56s6.5 34.3333 19.5 45s29.8333 16 50.5 16 c20 0 36.6667 -5.5 50 -16.5s20 -25.8333 20 -44.5s-7.33333 -37.3333 -22 -56c37.3333 -9.33333 71.5 -28.8333 102.5 -58.5c31 -29.6667 46.5 -67.5 46.5 -113.5c0 -38.6667 -20 -81 -60 -127c0 -4 3.16667 -16.1667 9.5 -36.5s9.83333 -33.8333 10.5 -40.5 c0 -23.3333 -23.6667 -37 -71 -41c34.6667 -13.3333 67 -20 97 -20l59 3c20 0 35.8333 -5.33333 47.5 -16s23.1667 -26.6667 34.5 -48c-2 -2.66667 -7.83333 -12 -17.5 -28s-18.3333 -28 -26 -36s-16.5 -13.6667 -26.5 -17c-2 10.6667 -13 18.1667 -33 22.5 c-20 4.33333 -42.8333 6.83333 -68.5 7.5s-53.3333 5.16667 -83 13.5c-29.6667 8.33333 -52.8333 20.8333 -69.5 37.5c-20.6667 -21.3333 -51.8333 -35.5 -93.5 -42.5s-78.1667 -12 -109.5 -15s-48.3333 -10.8333 -51 -23.5c-10 4 -18.6667 10.1667 -26 18.5 c-7.33333 8.33333 -15.5 19.5 -24.5 33.5s-15.5 23.6667 -19.5 29c10.6667 20.6667 22 36.5 34 47.5s28 16.5 48 16.5c35.3333 -2 55 -3 59 -3c30.6667 0 63 6.66667 97 20c-47.3333 4 -71 17.6667 -71 41c0 4.66667 3.5 16.5 10.5 35.5s10.5 31.1667 10.5 36.5zM418 343v46 h35v38h-35v43h-36v-43h-35v-38h35v-46h36zM400 625c-7.33333 0 -13.5 -2.33333 -18.5 -7s-7.5 -10.3333 -7.5 -17s2.5 -12.5 7.5 -17.5s11.1667 -7.5 18.5 -7.5c16.6667 0 25 8.33333 25 25c0 16 -8.33333 24 -25 24z" glyph-name="equal" />
   <glyph d="M237 356c12 0 26.3333 6.5 43 19.5s25 24.8333 25 35.5c0 8.66667 -8 13 -24 13c-13.3333 0 -26.1667 -5.33333 -38.5 -16s-18.5 -22 -18.5 -34s4.33333 -18 13 -18zM99 192c4 24.6667 26 79.3333 66 164s60 139.667 60 165c0 20 -1.66667 38 -5 54 c52.6667 0 90 -11 112 -33c19.3333 31.3333 34 47 44 47c18 -10 29.8333 -19.3333 35.5 -28s12.8333 -26.3333 21.5 -53c5.33333 1.33333 10.6667 2 16 2c14 0 30.5 -3.66667 49.5 -11s40.5 -21.1667 64.5 -41.5s46 -45.6667 66 -76s36.8333 -71.5 50.5 -123.5 s20.5 -110.333 20.5 -175c0 -30.6667 -1.33333 -58.3333 -4 -83h-422c0.666667 29.3333 6.66667 55.8333 18 79.5s23.5 42.1667 36.5 55.5c13 13.3333 25.5 29.6667 37.5 49s19.3333 39.3333 22 60c-25.3333 -10 -47.3333 -23.3333 -66 -40s-31.6667 -31.8333 -39 -45.5 s-14.5 -25.6667 -21.5 -36c-7 -10.3333 -13.8333 -15.5 -20.5 -15.5c-16.6667 0 -25 10.3333 -25 31c-6.66667 -8.66667 -14.3333 -13 -23 -13l-20 5c-20.6667 5.33333 -35.8333 12.1667 -45.5 20.5c-9.66667 8.33333 -19.1667 22.1667 -28.5 41.5zM160 224 c-9.33333 0 -17.3333 -3 -24 -9s-10 -13.3333 -10 -22c0 -2.66667 1 -6 3 -10c9.33333 0 17.1667 2.66667 23.5 8s9.5 12.3333 9.5 21c0 1.33333 -0.666667 5.33333 -2 12zM651 70c0 49.3333 -5.83333 96.3333 -17.5 141s-26.3333 82 -44 112s-36.8333 56.1667 -57.5 78.5 c-20.6667 22.3333 -40 38.6667 -58 49s-33.3333 15.5 -46 15.5c-12.6667 -1.33333 -19 -5.66667 -19 -13c0 -4 1 -6.66667 3 -8c66 -33.3333 116.167 -84.5 150.5 -153.5s51.5 -142.5 51.5 -220.5c0 -18 6.33333 -27 19 -27c12 0 18 8.66667 18 26z" glyph-name="greater" />
   <glyph d="M468 454c46 -19.3333 69 -51 69 -95c0 -20.6667 -5.33333 -39.5 -16 -56.5c-10.6667 -17 -24 -28.1667 -40 -33.5c46 -23.3333 79.6667 -51.6667 101 -85s32 -79 32 -137c0 -23.3333 -0.333333 -39 -1 -47h-427c-0.666667 8 -1 23.6667 -1 47 c0 57.3333 10.8333 103 32.5 137s55.5 62.3333 101.5 85c-16.6667 5.33333 -30.3333 16.3333 -41 33s-16 35.6667 -16 57c0 44.6667 23 76.3333 69 95c-12 20 -18 39 -18 57c0 22 8.66667 40.3333 26 55s37.6667 22 61 22s43.3333 -7.33333 60 -22s25 -33 25 -55 c0 -19.3333 -5.66667 -38.3333 -17 -57z" glyph-name="question" />
   <glyph d="M406 705l46 -218l203 123l7 -8l-124 -192l220 -54v-12l-217 -49l117 -195l-9 -8l-188 119l-55 -225h-12l-46 216l-200 -118l-8 8l120 189l-225 53v10l225 51l-120 203l8 7l188 -121l58 221h12zM351 468l49 -107v309zM453 466l-43 -108l220 220zM524 395l-108 -46h303z M517 295l-103 39l214 -213zM447 223l-47 108v-309zM348 223l43 111l-224 -224zM277 295l103 49l-313 -3zM279 395l107 -39l-216 217z" glyph-name="C" horiz-adv-x="792" />
   <glyph d="M466 345l192 -174c2 -0.666667 3 -2 3 -4c0 -3.33333 -1.66667 -5 -5 -5c-0.666667 0 -1.66667 0.333333 -3 1l-246 80l-54 -254c-1.33333 -3.33333 -3 -5 -5 -5s-3.66667 1.66667 -5 5l-54 254l-246 -80l-3 -1c-3.33333 0 -5 1.66667 -5 5c0 2 1 3.33333 3 4l192 174 l-192 173c-2 2 -3 3.66667 -3 5c0 3.33333 1.66667 5 5 5c0.666667 0 1.66667 -0.333333 3 -1l246 -80l54 253c0.666667 4 2.33333 6 5 6s4.33333 -2 5 -6l54 -253l249 81c3.33333 0 5 -1.66667 5 -5c0 -1.33333 -1 -3 -3 -5z" glyph-name="D" horiz-adv-x="695" />
   <glyph d="M490 456l242 44h3c4 0 6 -2 6 -6c0 -2 -1.33333 -4 -4 -6l-203 -142l203 -142c2.66667 -2 4 -4.33333 4 -7c0 -3.33333 -2 -5 -6 -5h-3l-242 48l43 -237l1 -4c0 -4 -1.66667 -6 -5 -6c-2 0 -4.33333 1.33333 -7 4l-136 195l-137 -196c-2 -2 -4 -3 -6 -3 c-4 0 -6 1.66667 -6 5l0.5 1c0.333333 0.666667 0.5 1.33333 0.5 2l43 239l-236 -39h-3c-4.66667 0 -7 2 -7 6c0 2 1.66667 4 5 6l198 133l-196 141c-2.66667 2.66667 -4 5 -4 7c0 4 2 6 6 6h3l234 -44l-43 233c-0.666667 1.33333 -1 2.66667 -1 4s0.5 2.5 1.5 3.5 s2.5 1.5 4.5 1.5s4 -1.33333 6 -4l137 -194l132 191c3.33333 3.33333 6 5 8 5c5.33333 0 8 -2 8 -6c0 -1.33333 -0.333333 -2.66667 -1 -4z" glyph-name="E" horiz-adv-x="776" />
   <glyph d="M531 699l-14 -218l217 16l-167 -147l167 -146l-217 15l14 -226l-148 169l-145 -169l14 226l-217 -15l168 146l-168 147l217 -16l-14 218l145 -169z" glyph-name="F" horiz-adv-x="768" />
   <glyph d="M583 672l-49 -175l174 44l-125 -130l174 -50l-174 -54l125 -131l-174 46l49 -175l-140 129l-50 -177l-45 177l-131 -129l45 175l-176 -46l131 131l-182 54l182 50l-131 130l176 -44l-45 175l131 -131l45 179l50 -179z" glyph-name="G" horiz-adv-x="792" />
   <glyph d="M364 693h33v-269l96 250l35 -14l-106 -248l188 193l27 -27l-193 -189l248 107l14 -35l-250 -99h269v-33h-269l250 -97l-14 -36l-248 110l193 -191l-27 -27l-188 197l106 -251l-35 -14l-96 254v-274h-33v274l-97 -254l-36 14l106 251l-187 -197l-27 27l195 191l-250 -110 l-14 36l254 97h-273v33h273l-254 99l14 35l250 -107l-195 189l27 27l187 -193l-106 248l36 14l97 -250v269z" glyph-name="H" horiz-adv-x="759" />
   <glyph d="M264 295c-74 -105.333 -131 -158 -171 -158c-14.6667 0 -28 6.33333 -40 19s-18 27 -18 43c0 14.6667 7 27.8333 21 39.5s29.8333 20.6667 47.5 27s39.1667 11.8333 64.5 16.5s44.3333 7.66667 57 9s25.6667 2.66667 39 4zM443 398 c32.6667 47.3333 64.8333 85.5 96.5 114.5c31.6667 29 56.8333 43.5 75.5 43.5c14.6667 0 27.8333 -6.33333 39.5 -19s17.5 -27 17.5 -43c0 -14.6667 -7 -27.8333 -21 -39.5s-29.8333 -20.6667 -47.5 -27s-39.1667 -11.8333 -64.5 -16.5s-44.3333 -7.66667 -57 -9 s-25.6667 -2.66667 -39 -4zM264 398c-14.6667 1.33333 -29.1667 2.83333 -43.5 4.5s-33.5 5 -57.5 10s-44.6667 10.6667 -62 17s-32.6667 15.1667 -46 26.5c-13.3333 11.3333 -20 24 -20 38c0 16 6 30.3333 18 43s25.3333 19 40 19c18 0 42 -13.6667 72 -41 c30 -27.3333 63 -66.3333 99 -117zM443 295c14.6667 -1.33333 29.1667 -2.83333 43.5 -4.5s33.5 -5 57.5 -10s44.8333 -10.6667 62.5 -17s33 -15.1667 46 -26.5s19.5 -24 19.5 -38c0 -16 -6 -30.3333 -18 -43s-25.3333 -19 -40 -19c-18.6667 0 -43.6667 14.5 -75 43.5 c-31.3333 29 -63.3333 67.1667 -96 114.5zM354 431c23.3333 0 43.3333 -8.16667 60 -24.5s25 -36.1667 25 -59.5s-8.33333 -43.3333 -25 -60s-37 -25 -61 -25c-23.3333 0 -43.1667 8.33333 -59.5 25s-24.5 37 -24.5 61c0 22.6667 8.33333 42.1667 25 58.5 s36.6667 24.5 60 24.5zM354 450c-38.6667 81.3333 -58 147.333 -58 198c0 16.6667 5.33333 30.1667 16 40.5s24.3333 15.5 41 15.5c17.3333 0 31.3333 -5.16667 42 -15.5s16 -24.1667 16 -41.5c0 -48.6667 -19 -114.333 -57 -197zM354 243c38 -82.6667 57 -148.333 57 -197 c0 -17.3333 -5.16667 -31.1667 -15.5 -41.5s-24.1667 -15.5 -41.5 -15.5s-31.3333 5.16667 -42 15.5s-16 24.1667 -16 41.5c0 49.3333 19.3333 115 58 197z" glyph-name="I" horiz-adv-x="707" />
   <glyph d="M293 57c0 17.3333 6 45.8333 18 85.5s18 64.8333 18 75.5c0 8.66667 -1.5 14.3333 -4.5 17s-8.5 5.33333 -16.5 8s-15.6667 7.33333 -23 14c-7.33333 6 -13 9 -17 9c-8.66667 -0.666667 -20 -7.83333 -34 -21.5c-14 -13.6667 -27.3333 -28.5 -40 -44.5 s-28.5 -30.5 -47.5 -43.5s-37.1667 -19.5 -54.5 -19.5c-15.3333 0 -28.6667 5.5 -40 16.5s-17 23.8333 -17 38.5c0 24 11 43.3333 33 58c22 14.6667 46 24 72 28s50 9.33333 72 16s33 15 33 25c0 0.666667 -0.5 3.33333 -1.5 8s-1.5 10.6667 -1.5 18 c0 6.66667 0.5 12.3333 1.5 17s1.5 7.66667 1.5 9c0 10 -11 18.3333 -33 25s-46 12 -72 16s-50 13.3333 -72 28s-33 34 -33 58c0 14.6667 5.66667 27.5 17 38.5s24.6667 16.5 40 16.5c17.3333 0 35.5 -6.66667 54.5 -20s35.1667 -28.1667 48.5 -44.5 s26.8333 -31.1667 40.5 -44.5s24.5 -20 32.5 -20c3.33333 0 9.5 3.5 18.5 10.5s16.5 11.5 22.5 13.5c8 2.66667 13.1667 5.33333 15.5 8s3.5 7.66667 3.5 15c0 8.66667 -5.83333 34.5 -17.5 77.5s-17.5 71.1667 -17.5 84.5c0 18.6667 6 35.1667 18 49.5s26 21.5 42 21.5 c17.3333 0 31.8333 -6.83333 43.5 -20.5s17.5 -30.8333 17.5 -51.5s-6.16667 -49.5 -18.5 -86.5s-18.5 -61.1667 -18.5 -72.5c0 -7.33333 1 -12.5 3 -15.5s4.5 -5 7.5 -6s7.66667 -3 14 -6s12.5 -7.16667 18.5 -12.5c8 -6 14 -9 18 -9c8 0 19 6.66667 33 20 s27.6667 28.1667 41 44.5c13.3333 16.3333 29.3333 31.1667 48 44.5s36.6667 20 54 20c15.3333 0 28.8333 -5.5 40.5 -16.5s17.5 -23.8333 17.5 -38.5c0 -24.6667 -11 -44.1667 -33 -58.5s-46 -23.5 -72 -27.5s-50 -9.5 -72 -16.5s-33 -15.8333 -33 -26.5 c0 -0.666667 0.5 -3.16667 1.5 -7.5s1.5 -9.83333 1.5 -16.5c0 -7.33333 -0.5 -13 -1.5 -17s-1.5 -6.33333 -1.5 -7c0 -11.3333 11 -20.5 33 -27.5s46 -12.5 72 -16.5s50 -13.1667 72 -27.5c22 -14.3333 33 -33.5 33 -57.5c0 -14.6667 -5.83333 -27.5 -17.5 -38.5 s-25.1667 -16.5 -40.5 -16.5c-17.3333 0 -35.3333 6.66667 -54 20s-34.6667 28.1667 -48 44.5c-13.3333 16.3333 -27 31.1667 -41 44.5c-14 13.3333 -25 20 -33 20c-2.66667 0 -9.5 -3.66667 -20.5 -11c-11 -7.33333 -18.1667 -11.6667 -21.5 -13 c-7.33333 -2 -12.3333 -4.66667 -15 -8s-4 -9 -4 -17c0 -12.6667 6.16667 -36.8333 18.5 -72.5s18.5 -64.5 18.5 -86.5c0 -20.6667 -5.83333 -37.8333 -17.5 -51.5c-11.6667 -13.6667 -26.5 -20.5 -44.5 -20.5c-15.3333 0 -29 7.16667 -41 21.5 c-12 14.3333 -18 30.8333 -18 49.5zM354 419c-20 0 -37.1667 -7.16667 -51.5 -21.5s-21.5 -31.8333 -21.5 -52.5s7.16667 -38.1667 21.5 -52.5s31.5 -21.5 51.5 -21.5s37.1667 7.16667 51.5 21.5s21.5 31.5 21.5 51.5c0 21.3333 -7 39.1667 -21 53.5s-31.3333 21.5 -52 21.5 z" glyph-name="J" horiz-adv-x="708" />
   <glyph d="M568 138c-19.3333 0 -37.3333 7 -54 21c-16.6667 14 -31.1667 30.1667 -43.5 48.5s-29.1667 39.3333 -50.5 63c-21.3333 23.6667 -44.3333 42.5 -69 56.5c0 -36 11.1667 -82 33.5 -138s33.5 -92 33.5 -108c0 -38 -25.6667 -66 -77 -84c-51.3333 18 -77 46 -77 84 c0 18 11.1667 54.3333 33.5 109s33.5 100.333 33.5 137c-24 -13.3333 -46.6667 -31.6667 -68 -55c-21.3333 -23.3333 -38 -44.3333 -50 -63s-26.5 -35.1667 -43.5 -49.5s-35.5 -21.5 -55.5 -21.5c-23.3333 0 -48.3333 11 -75 33c-2.66667 13.3333 -4 25.6667 -4 37 c0 28 10 49.3333 30 64s43 23.5 69 26.5s57.6667 8.16667 95 15.5c37.3333 7.33333 67.6667 17.6667 91 31c-20.6667 12 -45.1667 21.3333 -73.5 28c-28.3333 6.66667 -54.1667 11.5 -77.5 14.5s-45.5 7.16667 -66.5 12.5s-37.5 14.6667 -49.5 28s-18 31.6667 -18 55 c0 11.3333 1.33333 23.6667 4 37c26.6667 22 51.6667 33 75 33c20 0 38.5 -7 55.5 -21s31.3333 -30.5 43 -49.5s28.1667 -40.1667 49.5 -63.5c21.3333 -23.3333 44.3333 -42 69 -56c0 36.6667 -11.1667 83 -33.5 139s-33.5 92 -33.5 108c0 23.3333 8.5 41.8333 25.5 55.5 s34.1667 23.1667 51.5 28.5c51.3333 -18 77 -46 77 -84c0 -18 -11.1667 -54.3333 -33.5 -109c-22.3333 -54.6667 -33.5 -100.667 -33.5 -138c23.3333 13.3333 45.6667 31.6667 67 55s38.3333 44.5 51 63.5s27.6667 35.6667 45 50c17.3333 14.3333 35.3333 21.5 54 21.5 c23.3333 0 48.3333 -11 75 -33c2.66667 -13.3333 4 -25.6667 4 -37c0 -28 -10.1667 -49.3333 -30.5 -64s-43.8333 -23.5 -70.5 -26.5s-58.3333 -8.33333 -95 -16s-66.3333 -18.1667 -89 -31.5c20 -11.3333 44.1667 -20.3333 72.5 -27s54.1667 -11.5 77.5 -14.5 c23.3333 -3 45.6667 -7.16667 67 -12.5s38 -14.6667 50 -28c12 -13.3333 18 -31.6667 18 -55c0 -11.3333 -1.33333 -23.6667 -4 -37c-26.6667 -22 -51.6667 -33 -75 -33z" glyph-name="K" horiz-adv-x="682" />
   <glyph d="M328 390l-65 143c-10.6667 24.6667 -16 47 -16 67c0 21.3333 8 40.3333 24 57s42.3333 33.6667 79 51c37.3333 -17.3333 64 -34.3333 80 -51s24 -35.6667 24 -57c0 -20 -5.33333 -42.3333 -16 -67l-65 -143l99 125c27.3333 34 60 51 98 51c20.6667 0 52 -11 94 -33 c1.33333 -26.6667 2 -43.6667 2 -51c0 -68.6667 -36.3333 -107 -109 -115l-162 -19l162 -19c72.6667 -8 109 -46.6667 109 -116c0 -8 -0.666667 -24.6667 -2 -50c-43.3333 -22.6667 -72.6667 -34 -88 -34c-17.3333 0 -36.1667 5 -56.5 15 c-20.3333 10 -36.1667 22.3333 -47.5 37l-99 124l65 -142c11.3333 -25.3333 17 -46.3333 17 -63c0 -23.3333 -8 -43.8333 -24 -61.5c-16 -17.6667 -43 -34.8333 -81 -51.5c-37.3333 17.3333 -63.8333 34.5 -79.5 51.5c-15.6667 17 -23.5 36.8333 -23.5 59.5 c0 19.3333 5.33333 41 16 65l65 142l-99 -124c-10.6667 -14 -26.3333 -26.1667 -47 -36.5s-39 -15.5 -55 -15.5c-18.6667 0 -48.6667 11.3333 -90 34c-1.33333 25.3333 -2 42.3333 -2 51c0 68.6667 36.3333 107 109 115l162 19l-162 19c-72.6667 8 -109 46.3333 -109 115 c0 7.33333 0.666667 24.3333 2 51c43.3333 22 75 33 95 33c37.3333 0 69.6667 -17 97 -51zM351 371c-6.66667 0 -12.1667 -2.16667 -16.5 -6.5s-6.5 -9.5 -6.5 -15.5c0 -6.66667 2.16667 -12.1667 6.5 -16.5s9.5 -6.5 15.5 -6.5c6.66667 0 12.1667 2.16667 16.5 6.5 s6.5 9.83333 6.5 16.5c0 6 -2.16667 11.1667 -6.5 15.5s-9.5 6.5 -15.5 6.5zM359 390l54 153c5.33333 17.3333 8 33.3333 8 48c0 24 -5.66667 43.5 -17 58.5s-29.3333 26.8333 -54 35.5c-46.6667 -17.3333 -70 -48.6667 -70 -94c0 -16 2.66667 -32 8 -48l54 -153h17z M315 318l-9 14l-161 -27c-26.6667 -4.66667 -48 -15.8333 -64 -33.5c-16 -17.6667 -24 -39.1667 -24 -64.5c0 -4.66667 0.666667 -14.3333 2 -29c25.3333 -18 49.3333 -27 72 -27c27.3333 0 53.3333 14.3333 78 43zM386 318l106 -124c24 -28.6667 50 -43 78 -43 c22.6667 0 46.6667 9 72 27c1.33333 14.6667 2 24.3333 2 29c0 25.3333 -8 46.8333 -24 64.5c-16 17.6667 -37.3333 28.8333 -64 33.5l-161 27z" glyph-name="L" horiz-adv-x="701" />
   <glyph d="M420 131c0 4 0.666667 8.5 2 13.5s2 8.16667 2 9.5c0 6.66667 -3.66667 10 -11 10s-11 -3.33333 -11 -10c0 -1.33333 0.666667 -4.5 2 -9.5s2 -9.5 2 -13.5c0 -10.6667 -2.16667 -23.3333 -6.5 -38s-11 -30.8333 -20 -48.5c-9 -17.6667 -22.8333 -32.5 -41.5 -44.5 s-40.3333 -18 -65 -18c-38.6667 0 -73.5 14.6667 -104.5 44c-31 29.3333 -46.5 62 -46.5 98s14 67.5 42 94.5s55.3333 41.8333 82 44.5c8.66667 0 13 3.33333 13 10c0 8 -3.66667 12 -11 12c-2 0 -4.83333 -1.5 -8.5 -4.5s-10.8333 -6 -21.5 -9s-26 -4.5 -46 -4.5 c-40 0 -72.8333 12 -98.5 36s-38.5 55 -38.5 93c0 41.3333 13 76.8333 39 106.5c26 29.6667 57.3333 44.5 94 44.5c25.3333 0 52 -8.5 80 -25.5s45.3333 -35.5 52 -55.5c2 -6.66667 5.66667 -10 11 -10c2.66667 0 5.16667 1.16667 7.5 3.5s3.5 4.83333 3.5 7.5 c0 2 -4 7.33333 -12 16s-16.1667 22 -24.5 40s-12.5 39.3333 -12.5 64c0 37.3333 13.1667 68.1667 39.5 92.5s59.8333 36.5 100.5 36.5s74.1667 -12.1667 100.5 -36.5c26.3333 -24.3333 39.5 -55.1667 39.5 -92.5c0 -20.6667 -4.33333 -41.8333 -13 -63.5 c-8.66667 -21.6667 -18.6667 -37.1667 -30 -46.5c-4 -3.33333 -6 -6.66667 -6 -10c0 -7.33333 4 -11 12 -11c1.33333 0 4.16667 3.16667 8.5 9.5s10.1667 13.8333 17.5 22.5s16.1667 17.5 26.5 26.5s23.3333 16.6667 39 23s32.5 9.5 50.5 9.5 c36.6667 0 68 -14.8333 94 -44.5c26 -29.6667 39 -65.1667 39 -106.5c0 -38 -12.8333 -69 -38.5 -93s-58.1667 -36 -97.5 -36c-24.6667 0 -43.6667 3 -57 9l-20 9c-7.33333 0 -11 -4 -11 -12c0 -6.66667 4.33333 -10 13 -10c12 -1.33333 27 -6.66667 45 -16 c18 -9.33333 35.6667 -25.1667 53 -47.5s26 -47.5 26 -75.5c0 -36.6667 -15.5 -69.5 -46.5 -98.5s-66.1667 -43.5 -105.5 -43.5c-24.6667 0 -46.3333 6 -65 18s-32.5 26.8333 -41.5 44.5c-9 17.6667 -15.5 33.8333 -19.5 48.5s-6 27.3333 -6 38zM415 444 c-33.3333 0 -61.5 -11.1667 -84.5 -33.5s-34.5 -49.8333 -34.5 -82.5s11.3333 -60.5 34 -83.5s50.3333 -34.5 83 -34.5c32 0 59.5 11.5 82.5 34.5s34.5 50.5 34.5 82.5s-11.3333 59.5 -34 82.5c-22.6667 23 -49.6667 34.5 -81 34.5z" glyph-name="M" horiz-adv-x="826" />
   <glyph d="M407 163c-12 -60.6667 -28.3333 -104.333 -49 -131c-25.3333 -32 -58.6667 -48 -100 -48c-36 0 -66.6667 12.6667 -92 38c-25.3333 25.3333 -38 56 -38 92c0 11.3333 1.5 22.3333 4.5 33s6.66667 20.1667 11 28.5s10.3333 16.6667 18 25s14.1667 15.1667 19.5 20.5 s12.8333 11.3333 22.5 18s16.6667 11.3333 21 14s10.8333 6.33333 19.5 11s13.3333 7.33333 14 8c-27.3333 -4 -50 -6 -68 -6c-46.6667 0 -84.1667 12.1667 -112.5 36.5s-42.5 56.8333 -42.5 97.5c0 35.3333 12.6667 65.6667 38 91c25.3333 25.3333 55.6667 38 91 38 c24 0 46.8333 -5.83333 68.5 -17.5c21.6667 -11.6667 49.1667 -33.1667 82.5 -64.5c-24.6667 54.6667 -37 96.6667 -37 126c0 36.6667 12.6667 67.8333 38 93.5s56 38.5 92 38.5s66.5 -12.8333 91.5 -38.5s37.5 -56.8333 37.5 -93.5c0 -29.3333 -12.3333 -71.3333 -37 -126 c32.6667 30.6667 60 52 82 64s45 18 69 18c35.3333 0 65.6667 -12.8333 91 -38.5c25.3333 -25.6667 38 -55.8333 38 -90.5c0 -40.6667 -14.1667 -73.1667 -42.5 -97.5s-65.8333 -36.5 -112.5 -36.5c-18 0 -40.6667 2 -68 6l13 -7c8.66667 -4.66667 14.5 -8 17.5 -10 s8.83333 -5.83333 17.5 -11.5s15.3333 -10.6667 20 -15s10.8333 -10 18.5 -17s13.5 -13.8333 17.5 -20.5s8.33333 -14 13 -22s8 -16.6667 10 -26s3 -19 3 -29c0 -36 -12.6667 -66.6667 -38 -92c-25.3333 -25.3333 -56 -38 -92 -38c-75.3333 0 -124.667 57 -148 171 c-1.33333 4 -2 6.66667 -2 8zM384 452l14 95c0.666667 8.66667 3.66667 13 9 13c6 0 9.33333 -4.33333 10 -13l14 -95l33 -13c26 38 39 74.3333 39 109c0 32 -9 58.3333 -27 79s-40.6667 31 -68 31c-28 0 -51 -10.3333 -69 -31s-27 -47 -27 -79c0 -34 13 -70.3333 39 -109z M503 411l23 -28l94 16l4 1h2c6.66667 0 10 -2.66667 10 -8c0 -4.66667 -3.33333 -8.33333 -10 -11l-86 -43l-2 -35c25.3333 -8 46.3333 -12 63 -12c37.3333 0 68.6667 10.1667 94 30.5s38 45.5 38 75.5c0 25.3333 -9.16667 47 -27.5 65s-40.5 27 -66.5 27 c-50 0 -95.3333 -26 -136 -78zM432 191c0.666667 -48 12.6667 -87 36 -117s51.3333 -45 84 -45c25.3333 0 47 9 65 27s27 39.6667 27 65c0 19.3333 -4.5 37.1667 -13.5 53.5s-20.6667 30 -35 41s-27.1667 19.6667 -38.5 26s-22.6667 11.5 -34 15.5l-19 -30l44 -85 c2.66667 -4.66667 4 -7.66667 4 -9c0 -5.33333 -2.66667 -8 -8 -8c-3.33333 0 -7 2 -11 6l-67 69zM312 411c-40 52 -85.3333 78 -136 78c-26 0 -48.3333 -9 -67 -27s-28 -39.6667 -28 -65c0 -30 12.6667 -55.1667 38 -75.5c25.3333 -20.3333 57 -30.5 95 -30.5 c16.6667 0 37.6667 4 63 12l-2 35l-86 43c-6.66667 2.66667 -10 6.33333 -10 11c0 5.33333 3.33333 8 10 8c0.666667 0 2.66667 -0.333333 6 -1l94 -16zM292 257c-10.6667 -4 -21.3333 -8.66667 -32 -14c-10.6667 -5.33333 -23.5 -13.5 -38.5 -24.5s-27.1667 -25 -36.5 -42 s-14 -35.5 -14 -55.5c0 -25.3333 9 -47 27 -65s39.6667 -27 65 -27c34 0 62.3333 14.6667 85 44s34.3333 68.6667 35 118l-34 9l-67 -69c-5.33333 -4 -9 -6 -11 -6c-5.33333 0 -8 2.66667 -8 8c0 1.33333 1.33333 4.33333 4 9l46 92z" glyph-name="N" horiz-adv-x="815" />
   <glyph d="M399 704c96.6667 0 180 -35.3333 250 -106s105 -155 105 -253c0 -99.3333 -35 -184 -105 -254s-154.667 -105 -254 -105s-184.167 35 -254.5 105c-70.3333 70 -105.5 154.333 -105.5 253c0 100.667 35.3333 185.833 106 255.5c70.6667 69.6667 156.667 104.5 258 104.5z M394 695l-68 -164c22 8 44.6667 12 68 12c24 0 47 -4 69 -12zM394 -4l69 164c-20.6667 -8.66667 -43.3333 -13 -68 -13c-25.3333 0 -48.3333 4.33333 -69 13zM642 592l-165 -67c20 -8.66667 39 -22 57 -40s31.3333 -37 40 -57zM147 98l165 67c-20 8.66667 -39 22 -57 40 s-31.3333 37.3333 -40 58zM744 345l-164 69c8 -21.3333 12 -44.3333 12 -69s-4 -47.6667 -12 -69zM45 345l164 -69c-8 21.3333 -12 44.3333 -12 69s4 47.6667 12 69zM147 592l68 -164c8.66667 20 22 39 40 57s37 31.3333 57 40zM642 98l-68 165 c-8.66667 -20.6667 -22 -40 -40 -58s-37 -31.3333 -57 -40zM396 517c-48.6667 0 -89.6667 -16.6667 -123 -50c-33.3333 -33.3333 -50 -74 -50 -122c0 -47.3333 16.8333 -87.8333 50.5 -121.5c33.6667 -33.6667 74.1667 -50.5 121.5 -50.5s87.6667 16.8333 121 50.5 c33.3333 33.6667 50 73.8333 50 120.5s-16.8333 87.1667 -50.5 121.5c-33.6667 34.3333 -73.5 51.5 -119.5 51.5z" glyph-name="P" horiz-adv-x="789" />
   <glyph d="M338 385c-54.6667 120.667 -82 203.333 -82 248c0 38 32.6667 66 98 84c32 -10 54.6667 -21.6667 68 -35s20 -30.6667 20 -52c0 -50 -24.3333 -131.667 -73 -245c56.6667 76.6667 100.167 129.5 130.5 158.5c30.3333 29 57.5 43.5 81.5 43.5 c20.6667 0 48.6667 -16.3333 84 -49c4.66667 -24.6667 7 -43.3333 7 -56c0 -32.6667 -21.3333 -58.1667 -64 -76.5s-117 -34.1667 -223 -47.5c114.667 -12 191.5 -25.8333 230.5 -41.5s58.5 -40.5 58.5 -74.5c0 -18.6667 -3 -39.6667 -9 -63 c-33.3333 -28.6667 -58.6667 -43 -76 -43c-25.3333 0 -55 15.1667 -89 45.5s-77.6667 80.5 -131 150.5c54.6667 -120 82 -202.667 82 -248c0 -20 -7.83333 -36.6667 -23.5 -50s-40.5 -24.6667 -74.5 -34c-32.6667 10.6667 -55.5 22.3333 -68.5 35s-19.5 29.6667 -19.5 51 c0 51.3333 24.3333 133.333 73 246c-56 -76.6667 -99.3333 -129.5 -130 -158.5s-58 -43.5 -82 -43.5c-20.6667 0 -48.6667 16.3333 -84 49c-4.66667 24.6667 -7 43.3333 -7 56c0 32.6667 21.5 58.1667 64.5 76.5s117.167 33.8333 222.5 46.5 c-116 13.3333 -193.167 27.6667 -231.5 43c-38.3333 15.3333 -57.5 40 -57.5 74c0 19.3333 3 40.3333 9 63c33.3333 28.6667 58.6667 43 76 43c25.3333 0 54.8333 -15.1667 88.5 -45.5c33.6667 -30.3333 77.5 -80.5 131.5 -150.5zM354 390v304 c-28 -3.33333 -47.3333 -10.1667 -58 -20.5s-16 -27.1667 -16 -50.5c0 -26.6667 5.16667 -56.1667 15.5 -88.5c10.3333 -32.3333 29.8333 -80.5 58.5 -144.5zM381 374l264 152c-20 26 -38.3333 39 -55 39c-20.6667 0 -46.3333 -12.8333 -77 -38.5 c-30.6667 -25.6667 -74.6667 -76.5 -132 -152.5zM381 343l264 -153c8.66667 18 13 34 13 48c0 47.3333 -92.3333 82.3333 -277 105zM353 327v-305c28 4 47.3333 11.1667 58 21.5s16 27.1667 16 50.5c0 26.6667 -5.16667 56.1667 -15.5 88.5s-29.8333 80.5 -58.5 144.5z M326 343l-264 -153c20 -25.3333 38.3333 -38 55 -38c22 0 47.8333 12.5 77.5 37.5s73.5 76.1667 131.5 153.5zM326 374l-264 152c-8.66667 -17.3333 -13 -33 -13 -47c0 -48.6667 92.3333 -83.6667 277 -105z" glyph-name="Q" horiz-adv-x="707" />



   <glyph d="M754 345c0 -20.6667 -3.66667 -38.5 -11 -53.5s-18 -26.5 -32 -34.5s-24.1667 -13.1667 -30.5 -15.5s-15.1667 -5.16667 -26.5 -8.5c17.3333 -28.6667 26 -52.3333 26 -71c0 -19.3333 -10.5 -41.3333 -31.5 -66s-45.8333 -37 -74.5 -37c-14.6667 0 -37.6667 8 -69 24 c-18.6667 -64.6667 -55.6667 -97 -111 -97c-52.6667 0 -89.3333 32.3333 -110 97c-31.3333 -16 -54.3333 -24 -69 -24c-28 0 -52.6667 11.8333 -74 35.5c-21.3333 23.6667 -32 46.1667 -32 67.5c0 18.6667 8.66667 42.3333 26 71 c-11.3333 3.33333 -20.1667 6.16667 -26.5 8.5s-16.5 7.5 -30.5 15.5s-24.6667 19.5 -32 34.5s-11 32.8333 -11 53.5s3.66667 38.5 11 53.5s18 26.5 32 34.5s24.1667 13.1667 30.5 15.5s15.1667 5.16667 26.5 8.5c-17.3333 28.6667 -26 52.6667 -26 72 c0 19.3333 10.3333 41.3333 31 66c20.6667 24.6667 45.6667 37 75 37c15.3333 0 38.3333 -8.33333 69 -25c20 64.6667 57 97 111 97c53.3333 0 90 -32.3333 110 -97c30.6667 16.6667 53.6667 25 69 25c28 0 52.6667 -12 74 -36s32 -46.3333 32 -67 c0 -19.3333 -8.66667 -43.3333 -26 -72c11.3333 -2.66667 20.3333 -5.33333 27 -8s16.8333 -8 30.5 -16s24.1667 -19.5 31.5 -34.5s11 -32.8333 11 -53.5zM396 435c-25.3333 0 -47 -8.83333 -65 -26.5s-27 -38.8333 -27 -63.5s9 -45.8333 27 -63.5s39.3333 -26.5 64 -26.5 s45.8333 8.83333 63.5 26.5s26.5 38.8333 26.5 63.5s-8.83333 45.8333 -26.5 63.5s-38.5 26.5 -62.5 26.5zM421 228l25 -109c0.666667 -3.33333 1 -8 1 -14c0 -15.3333 -5.16667 -28.6667 -15.5 -40c-10.3333 -11.3333 -22.5 -17 -36.5 -17 c-14.6667 0 -27.1667 5.66667 -37.5 17c-10.3333 11.3333 -15.5 24.6667 -15.5 40c0 6 0.333333 10.6667 1 14l25 109l-11 2l-41 -106c-3.33333 -10 -5 -19.3333 -5 -28c0 -22.6667 8.16667 -42 24.5 -58s35.8333 -24 58.5 -24c23.3333 0 43.1667 8 59.5 24 s24.5 35.3333 24.5 58c0 8.66667 -1.66667 18 -5 28l-41 106zM330 244l-60 -95c-12 -19.3333 -28.6667 -29 -50 -29c-14 0 -25.8333 4.83333 -35.5 14.5c-9.66667 9.66667 -14.5 21.8333 -14.5 36.5c0 21.3333 9.33333 38 28 50l95 60l-6 9l-104 -46 c-32 -14.6667 -48 -39 -48 -73c0 -23.3333 8.33333 -43.1667 25 -59.5s36.6667 -24.5 60 -24.5c35.3333 0 60 15.6667 74 47l46 103zM278 319l-110 -25c-6.66667 -1.33333 -11.3333 -2 -14 -2c-15.3333 0 -28.6667 5.16667 -40 15.5s-17 22.8333 -17 37.5 s5.66667 27.1667 17 37.5s24.6667 15.5 40 15.5c2.66667 0 7.33333 -0.666667 14 -2l110 -25l2 12l-106 40c-7.33333 3.33333 -16.6667 5 -28 5c-22.6667 0 -42 -8.16667 -58 -24.5s-24 -35.8333 -24 -58.5s8 -42.1667 24 -58.5s35.3333 -24.5 58 -24.5 c8.66667 0 18 1.66667 28 5l106 40zM293 409l-95 60c-19.3333 12 -29 28.6667 -29 50c0 14 5 26 15 36s22 15 36 15c22 0 39 -9.66667 51 -29l59 -95l10 7l-46 103c-14 32 -38.6667 48 -74 48c-22.6667 0 -42.3333 -8.33333 -59 -25s-25 -36.3333 -25 -59 c0 -35.3333 15.6667 -60 47 -74l104 -46zM368 462l-25 110c-0.666667 2.66667 -1 7 -1 13c0 15.3333 5.16667 28.6667 15.5 40s22.5 17 36.5 17c14.6667 0 27.1667 -5.66667 37.5 -17s15.5 -24.6667 15.5 -40c0 -6 -0.333333 -10.3333 -1 -13l-25 -110l11 -2l41 106 c3.33333 10 5 19.3333 5 28c0 22.6667 -8.16667 42 -24.5 58s-35.8333 24 -58.5 24c-23.3333 0 -43.1667 -8 -59.5 -24s-24.5 -35.3333 -24.5 -58c0 -8.66667 1.66667 -18 5 -28l41 -106zM459 446l60 95c11.3333 20 27.6667 30 49 30c14 0 26 -5 36 -15s15 -22 15 -36 c0 -22 -9.33333 -39 -28 -51l-95 -60l6 -9l104 46c32 14.6667 48 39.3333 48 74c0 22.6667 -8.33333 42.3333 -25 59s-36.3333 25 -59 25c-36 0 -61 -16 -75 -48l-46 -103zM511 371l110 25c6.66667 1.33333 11.3333 2 14 2c15.3333 0 28.6667 -5.16667 40 -15.5 s17 -22.8333 17 -37.5s-5.66667 -27.1667 -17 -37.5s-24.6667 -15.5 -40 -15.5c-2.66667 0 -7.33333 0.666667 -14 2l-110 25l-2 -12l106 -40c10 -3.33333 19.3333 -5 28 -5c22.6667 0 42 8.16667 58 24.5s24 35.8333 24 58.5s-8 42.3333 -24 59s-35 25 -57 25 c-9.33333 0 -19 -2 -29 -6l-106 -40zM496 281l95 -60c19.3333 -12 29 -28.6667 29 -50c0 -14 -5 -25.8333 -15 -35.5c-10 -9.66667 -22 -14.5 -36 -14.5c-21.3333 0 -38 9.33333 -50 28l-60 95l-10 -7l46 -103c6.66667 -14 16.6667 -25.3333 30 -34 c13.3333 -8.66667 28 -13 44 -13c23.3333 0 43.1667 8.16667 59.5 24.5s24.5 36.1667 24.5 59.5c0 34.6667 -15.6667 59 -47 73l-104 46z" glyph-name="O" horiz-adv-x="789" />
   <glyph d="M305 414l-222 202c10.6667 6 17.6667 10.6667 21 14s8 10 14 20l205 -218c0.666667 -2 1 -4.66667 1 -8c0 -6.66667 -4 -10 -12 -10h-7zM480 275l222 -202c-10.6667 -6 -17.6667 -10.6667 -21 -14s-8 -10 -14 -20l-205 218c-0.666667 2 -1 4.66667 -1 8 c0 6.66667 4 10 12 10h7zM305 276h9c6 0 9 -4 9 -12v-7l-202 -222c-6 10.6667 -10.6667 17.6667 -14 21s-10 8 -20 14zM462 432l202 222c6 -10.6667 10.6667 -17.6667 14 -21s10 -8 20 -14l-218 -205c-2 -0.666667 -4.66667 -1 -8 -1c-6.66667 0 -10 4 -10 12v7zM392 404 c16 0 29.8333 -5.83333 41.5 -17.5s17.5 -25.5 17.5 -41.5c0 -16.6667 -5.83333 -30.8333 -17.5 -42.5s-25.5 -17.5 -41.5 -17.5c-16.6667 0 -30.8333 5.83333 -42.5 17.5s-17.5 25.8333 -17.5 42.5c0 16 5.83333 29.8333 17.5 41.5s25.8333 17.5 42.5 17.5zM443 664 c0 -50.6667 -3.66667 -96 -11 -136s-14.6667 -68.1667 -22 -84.5s-13 -24.5 -17 -24.5c-6 0 -18 26 -36 78c-10 30 -15 86.3333 -15 169c0 11.3333 6.33333 20.3333 19 27s23 10 31 10c20.6667 -4 34.3333 -8.66667 41 -14s10 -13.6667 10 -25zM342 25 c0 50.6667 3.66667 96 11 136s14.6667 68.1667 22 84.5c7.33333 16.3333 13 24.5 17 24.5c6 0 18 -26 36 -78c10 -30 15 -86.3333 15 -169c0 -12 -6.5 -21.1667 -19.5 -27.5c-13 -6.33333 -23.5 -9.5 -31.5 -9.5c-20 4 -33.3333 8.66667 -40 14s-10 13.6667 -10 25zM714 395 c11.3333 0 20.3333 -6.16667 27 -18.5s10 -22.8333 10 -31.5c-4 -20.6667 -8.66667 -34.3333 -14 -41s-13.6667 -10 -25 -10c-51.3333 0 -97 3.66667 -137 11s-68 14.6667 -84 22s-24 13 -24 17c0 5.33333 26 17.3333 78 36c30 10 86.3333 15 169 15zM71 294 c-11.3333 0 -20.3333 6.16667 -27 18.5s-10 22.5 -10 30.5v2c4 20 8.66667 33.3333 14 40s13.6667 10 25 10c95.3333 0 167.333 -11 216 -33c19.3333 -8.66667 29 -14.3333 29 -17c0 -6 -26 -18 -78 -36c-30 -10 -86.3333 -15 -169 -15z" glyph-name="U" horiz-adv-x="786" />
   <glyph d="M85 633l21 21l198 -199l-20 -21zM702 56l-21 -21l-198 199l20 21zM681 654l21 -21l-199 -199l-20 21zM106 35l-21 21l199 199l20 -21zM394 426c22.6667 0 42 -8.16667 58 -24.5s24 -35.8333 24 -58.5c0 -22 -8 -41 -24 -57s-35.3333 -24 -58 -24s-42 8 -58 24 s-24 35.3333 -24 58s8 42 24 58s35.3333 24 58 24zM386 704c15.3333 0 34.6667 -8.16667 58 -24.5s35 -39.5 35 -69.5c0 -12 -2.66667 -26.1667 -8 -42.5s-12 -31.8333 -20 -46.5c-8 -14.6667 -16 -28.6667 -24 -42s-15 -24 -21 -32s-9.33333 -12 -10 -12 c-3.33333 0 -12.1667 11.5 -26.5 34.5s-28.1667 48.5 -41.5 76.5s-20 47.6667 -20 59c0 22 8.66667 44 26 66s34.6667 33 52 33zM401 -15c-15.3333 0 -34.6667 8 -58 24s-35 39.3333 -35 70c0 23.3333 7.16667 49.5 21.5 78.5s28.1667 52.3333 41.5 70s20.6667 26.5 22 26.5 c3.33333 0 11.8333 -9.83333 25.5 -29.5s27.1667 -43.5 40.5 -71.5s20 -51 20 -69c0 -22 -8.66667 -44 -26 -66s-34.6667 -33 -52 -33zM752 353c0 -16 -8.16667 -35.6667 -24.5 -59s-39.5 -35 -69.5 -35c-13.3333 0 -28.5 2.83333 -45.5 8.5s-32.8333 12.5 -47.5 20.5 s-28.3333 16 -41 24c-12.6667 8 -22.6667 15 -30 21s-11 9.33333 -11 10c0 3.33333 11.3333 12 34 26c22.6667 14 47.6667 27.6667 75 41s46.3333 20 57 20c23.3333 0 46.3333 -8.5 69 -25.5s34 -34.1667 34 -51.5zM35 337c0 16.6667 8 36.3333 24 59s39.3333 34 70 34 c20 0 44.3333 -6.66667 73 -20s52.8333 -26.6667 72.5 -40c19.6667 -13.3333 29.5 -21.6667 29.5 -25c0 -2.66667 -11.3333 -11 -34 -25c-22.6667 -14 -48 -27.6667 -76 -41s-47.6667 -20 -59 -20c-22.6667 0 -45 8.66667 -67 26s-33 34.6667 -33 52z" glyph-name="V" horiz-adv-x="787" />
   <glyph d="M373 376l133 77c-3.33333 13.3333 -5 23.6667 -5 31c0 22.6667 8.83333 42.3333 26.5 59c17.6667 16.6667 38.1667 25 61.5 25c24.6667 0 45.6667 -8.33333 63 -25s26 -36.6667 26 -60c0 -24 -8.66667 -44.8333 -26 -62.5s-38 -26.5 -62 -26.5 c-24.6667 0 -47.3333 10.6667 -68 32l-131 -78l131 -78c20.6667 21.3333 43 32 67 32s44.6667 -8.83333 62 -26.5s26 -38.8333 26 -63.5c0 -23.3333 -8.5 -43.1667 -25.5 -59.5s-37.8333 -24.5 -62.5 -24.5c-23.3333 0 -43.6667 8.33333 -61 25 c-17.3333 16.6667 -26 36.3333 -26 59c0 3.33333 1.33333 13.6667 4 31l-133 76v-157c46.6667 -17.3333 70 -46.3333 70 -87c0 -23.3333 -8.66667 -43.8333 -26 -61.5s-37.3333 -26.5 -60 -26.5c-23.3333 0 -43.8333 8.66667 -61.5 26s-26.5 37.6667 -26.5 61 c0 41.3333 23.6667 70.6667 71 88v157l-133 -76c3.33333 -12.6667 5 -22.6667 5 -30c0 -22.6667 -8.83333 -42.5 -26.5 -59.5s-38.1667 -25.5 -61.5 -25.5c-24.6667 0 -45.6667 8.16667 -63 24.5s-26 36.1667 -26 59.5c0 24.6667 8.83333 45.8333 26.5 63.5 s38.5 26.5 62.5 26.5s46.3333 -10.6667 67 -32l131 78l-131 78c-21.3333 -22 -43.6667 -33 -67 -33c-24 0 -44.6667 9 -62 27s-26 39.3333 -26 64c0 23.3333 8.5 43.1667 25.5 59.5s37.8333 24.5 62.5 24.5c23.3333 0 43.6667 -8.5 61 -25.5s26 -36.8333 26 -59.5 c0 -4 -1.33333 -14 -4 -30l133 -77v157c-46.6667 18 -70 47 -70 87c0 24 8.5 44.8333 25.5 62.5s37.1667 26.5 60.5 26.5s43.8333 -8.66667 61.5 -26s26.5 -37.6667 26.5 -61c0 -41.3333 -23.6667 -71 -71 -89v-157z" glyph-name="W" horiz-adv-x="713" />
   <glyph d="M416 691v-243h-109v243h109zM307 0v243h109v-243h-109zM688 471l-211 -122l-54 95l210 122zM35 220l211 122l54 -95l-210 -122zM90 566l210 -122l-54 -95l-211 122zM633 125l-210 122l54 95l211 -122z" glyph-name="at" horiz-adv-x="723" />
   <glyph d="M397 691l-12 -321l215 231l31 -32l-234 -212l317 13v-43h-317l234 -210l-31 -31l-215 229l12 -315h-49l14 315l-206 -229l-37 31l229 210h-313v43l313 -13l-229 212l27 32l216 -231l-14 321h49z" glyph-name="A" horiz-adv-x="749" />
   <glyph d="M358 421l22 281c0 2.66667 2 4 6 4c4.66667 0 7 -2.33333 7 -7l29 -278l219 186c0 0.666667 1 1 3 1c5.33333 0 8 -2 8 -6c0 -2.66667 -1 -5 -3 -7l-180 -218l282 -22c3.33333 0 5 -2.33333 5 -7c0 -4 -2.33333 -6.66667 -7 -8l-280 -26l173 -215l1 -4 c0 -4.66667 -2 -7 -6 -7c-2 0 -4 1 -6 3l-209 178l-22 -279c0 -3.33333 -2.33333 -5 -7 -5c-3.33333 0 -5.66667 2.66667 -7 8l-28 276l-215 -178c-1.33333 -1.33333 -2.66667 -2 -4 -2c-5.33333 0 -8 2.33333 -8 7c0 2 1.33333 4.33333 4 7l177 211l-273 21 c-3.33333 1.33333 -5 3.66667 -5 7c0 4.66667 2.33333 7 7 7l271 28l-180 215c-0.666667 0.666667 -1 2 -1 4c0 4.66667 2 7 6 7c2 0 4 -1 6 -3z" glyph-name="B" horiz-adv-x="790" />
   <glyph d="M378 344l140 -81l110 55l20 -26l-97 -48l100 -56l-18 -32l-99 58l7 -107l-33 4l-7 123l-140 81v-162l103 -68l-13 -30l-90 59l2 -114h-38l2 114l-90 -59l-13 30l103 68v162l-140 -81l-7 -123l-33 -4l7 107l-99 -58l-19 32l101 56l-97 48l20 26l110 -55l140 81l-140 81 l-110 -55l-20 26l97 48l-101 56l19 32l99 -59l-7 108l33 -4l7 -123l140 -81v162l-103 68l13 30l90 -59l-2 114h38l-2 -114l90 59l13 -30l-103 -68v-162l140 81l7 123l33 4l-7 -108l99 59l18 -32l-100 -56l97 -48l-20 -26l-110 55z" glyph-name="R" horiz-adv-x="687" />
   <glyph d="M195 611l132 -75l-9 151c0 4 2.33333 6 7 6h2l21 -4l21 4h2c4.66667 0 7 -2 7 -6l-9 -151l132 75l1 -152l125 84c1.33333 0.666667 2.66667 1 4 1c2.66667 0 4.66667 -2 6 -6l8 -20l14 -17c1.33333 -1.33333 2 -3.66667 2 -7c0 -2 -1 -3 -3 -3l-136 -68l132 -77l-132 -76 l136 -68c2 -1.33333 3 -2.66667 3 -4c0 -2.66667 -0.666667 -4.66667 -2 -6l-14 -17l-8 -20c-1.33333 -4 -3.33333 -6 -6 -6c-1.33333 0 -2.66667 0.333333 -4 1l-125 84l-1 -152l-132 75l9 -151c0 -4 -3 -6 -9 -6l-21 4l-21 -4c-6 0 -9 2 -9 6l9 151l-132 -75l-1 152 l-126 -84c-0.666667 -0.666667 -1.66667 -1 -3 -1c-2.66667 0 -4.66667 2 -6 6l-8 20l-14 17c-1.33333 1.33333 -2 3.66667 -2 7c0 0.666667 1 1.66667 3 3l136 68l-132 76l132 77l-136 68c-2 0 -3 1.33333 -3 4s0.666667 4.66667 2 6l14 17l8 20c1.33333 4 3.33333 6 6 6 c1.33333 0 2.33333 -0.333333 3 -1l126 -84zM215 577v-131l114 -67v133zM481 577l-114 -65v-132l114 66v131zM614 346l-113 66l-115 -66l115 -65zM481 116v131l-114 67v-133zM215 116l114 65v132l-114 -66v-131zM82 346l113 -65l115 65l-115 66z" glyph-name="S" horiz-adv-x="696" />
   <glyph d="M370 341l105 -62l158 34l22 -48l-99 -31l92 -49l-17 -30l-88 56l22 -102l-52 -4l-50 154l-105 59l-2 -121l109 -120l-30 -43l-77 70l4 -104h-34l4 104l-77 -70l-30 43l109 120l-2 121l-105 -59l-50 -154l-52 4l22 102l-88 -56l-17 30l92 49l-99 31l22 48l158 -34l105 62 l-105 61l-158 -34l-22 48l99 31l-92 49l17 30l88 -56l-22 102l52 4l50 -154l105 -59l2 121l-109 120l30 43l77 -70l-4 104h34l-4 -104l77 70l30 -43l-109 -120l2 -121l105 59l50 154l52 -4l-22 -102l88 56l17 -30l-92 -49l99 -31l-22 -48l-158 34z" glyph-name="T" horiz-adv-x="689" />
   <glyph d="M404 478h-17l-32 156c-2.66667 10 -4 19 -4 27c0 12 4.5 22.6667 13.5 32s19.5 14 31.5 14c11.3333 0 21.5 -4.66667 30.5 -14s13.5 -20 13.5 -32c0 -3.33333 -1.33333 -12.3333 -4 -27zM387 215h17l32 -156c2.66667 -10 4 -19 4 -27c0 -12 -4.5 -22.6667 -13.5 -32 s-19.1667 -14 -30.5 -14c-12 0 -22.5 4.66667 -31.5 14s-13.5 20 -13.5 32c0 3.33333 1.33333 12.3333 4 27zM494 433l-12 12l88 134c15.3333 23.3333 32 35 50 35c12 0 22.1667 -4.16667 30.5 -12.5s12.5 -18.5 12.5 -30.5c0 -18 -11.6667 -34.6667 -35 -50zM297 260 l12 -12l-88 -134c-15.3333 -23.3333 -32 -35 -50 -35c-12 0 -22.1667 4.16667 -30.5 12.5s-12.5 18.5 -12.5 30.5c0 18 11.6667 34.6667 35 50zM527 338v17l156 32c10 2.66667 19 4 27 4c12 0 22.6667 -4.5 32 -13.5s14 -19.5 14 -31.5c0 -11.3333 -4.66667 -21.5 -14 -30.5 s-20 -13.5 -32 -13.5c-8 0 -17 1.33333 -27 4zM264 355v-17l-156 -32c-10 -2.66667 -19 -4 -27 -4c-12 0 -22.6667 4.5 -32 13.5s-14 19.1667 -14 30.5c0 12 4.66667 22.5 14 31.5s20 13.5 32 13.5c8 0 17 -1.33333 27 -4zM482 248l12 12l134 -88 c23.3333 -15.3333 35 -32 35 -50c0 -12 -4.16667 -22.1667 -12.5 -30.5s-18.5 -12.5 -30.5 -12.5c-18 0 -34.6667 11.6667 -50 35zM309 445l-12 -12l-134 88c-23.3333 15.3333 -35 32 -35 50c0 12 4.16667 22.1667 12.5 30.5s18.5 12.5 30.5 12.5 c18 0 34.6667 -11.6667 50 -35zM397 442c25.3333 0 47.3333 -9.33333 66 -28s28 -41.3333 28 -68c0 -26 -9.33333 -48.3333 -28 -67s-41 -28 -67 -28c-26.6667 0 -49.3333 9.33333 -68 28s-28 41 -28 67c0 26.6667 9.33333 49.3333 28 68s41.6667 28 69 28z" glyph-name="X" horiz-adv-x="791" />
   <glyph d="M369 424l-32 186c-2 12 -3 22.3333 -3 31c0 16 5.66667 30 17 42s24.6667 18 40 18s28.6667 -6 40 -18s17 -26 17 -42c0 -2 -1.33333 -12.3333 -4 -31l-31 -185c7.33333 -1.33333 14 -3.66667 20 -7l109 154c20 28 41 42 63 42c15.3333 0 28.3333 -5.33333 39 -16 s16 -23.6667 16 -39c0 -22 -14 -43 -42 -63l-153 -109c2.66667 -4 5.33333 -10.3333 8 -19l187 32c13.3333 2 23.6667 3 31 3c16 0 30 -5.66667 42 -17s18 -24.6667 18 -40s-6 -28.6667 -18 -40s-26 -17 -42 -17c-7.33333 0 -17.6667 1 -31 3l-186 32 c-1.33333 -6 -3.66667 -12.6667 -7 -20l155 -109c28 -20 42 -41.3333 42 -64c0 -15.3333 -5.33333 -28.1667 -16 -38.5s-23.6667 -15.5 -39 -15.5c-22.6667 0 -43.6667 14 -63 42l-109 153c-5.33333 -3.33333 -11.6667 -6.33333 -19 -9l32 -186c2 -12.6667 3 -23 3 -31 c0 -16 -5.66667 -30 -17 -42s-24.6667 -18 -40 -18c-14.6667 0 -27.8333 6 -39.5 18s-17.5 25.6667 -17.5 41c0 2.66667 1.33333 13.3333 4 32l31 185c-8 2 -14.6667 4.33333 -20 7l-109 -154c-20.6667 -28 -41.6667 -42 -63 -42c-15.3333 0 -28.3333 5.33333 -39 16 s-16 23.6667 -16 39c0 22.6667 14 43.6667 42 63l153 109c-3.33333 5.33333 -6 11.6667 -8 19l-187 -32c-12.6667 -2 -23 -3 -31 -3c-16 0 -30 5.66667 -42 17s-18 24.6667 -18 40s6 28.6667 18 40s26 17 42 17c9.33333 0 19.6667 -1.33333 31 -4l186 -31 c1.33333 6.66667 3.66667 13 7 19l-155 110c-28 20.6667 -42 41.6667 -42 63c0 15.3333 5.33333 28.3333 16 39s23.6667 16 39 16c12.6667 0 23.5 -3 32.5 -9s19.1667 -17 30.5 -33l109 -153c4.66667 4 11 7 19 9z" glyph-name="Y" horiz-adv-x="785" />
  </font>
</defs>
</svg>
